<svg xmlns="http://www.w3.org/2000/svg" viewBox="0 0 600 400" xmlns:xlink="http://www.w3.org/1999/xlink">
<path fill="#090" d="m0,0h600v400h-600z"/>
<path fill="#bf0000" d="m0,0h400v400h-400z"/>
<path d="m0,0h200v400h-200z"/>
<g fill="#fff">
<g fill-rule="evenodd" stroke-width=".5">
<g stroke="#bd6b00">
<path d="m319.5,225.84 8.354,.001c.0311,3.1574 1.8815,6.5489 4.4798,8.4926h-16.008c2.5051-2.271 3.1897-4.9625 3.1741-8.4938z"/>
<path stroke="none" d="m266.71,178.53 4.5742,5.0402 56.934,.0932 4.6674-5.0402-14.56-.1864-7.0937-4.947-22.868-.0932-6.6266,5.1333h-15.027z"/>
<path d="m290.02,172.74 19.66-.0203c2.6616-1.4073 3.4919-5.9014 3.4788-8.4161-.037-7.4282-5.2325-10.991-10.447-11.18-.7813-.0394-1.688-.6475-1.8947-1.3595-.5137-1.6128-.3811-2.6411-.9438-2.5838-.5005-.007-.3536,.94-.7992,2.4524-.2449,.7526-1.0907,1.4945-1.9341,1.5375-6.4904,.3237-10.676,5.0616-10.513,11.134 .1099,4.0151 .577,6.4127 3.3927,8.4364z"/>
<path stroke="none" d="m257.66,242.83h84.469l-7.5608-6.1607h-69.348l-7.5596,6.1607z"/>
<path d="m296.39,219.69 1.5399,4.6196h3.4991l-2.799-4.6208-2.2399,.001zm-1.9592,4.6196 .8864,4.573 4.1059,.0466-1.4933-4.6208-3.4991,.001zm6.9527,.0466 2.8468,4.5264h5.8334l-4.573-4.5742-4.1071,.0478zm-34.441,10.36c3.0953-2.8778 5.0712-5.3352 5.0867-8.8665h7.5596c.0155,1.9759 .7311,3.1574 1.8206,3.0797l7.654-.0466-.0466-4.5264h-5.5538l-.001-24.688c-.2019-8.7267 10.609-13.813 15.028-13.767l-26.275-.0466v-.7932h55.255l.0466,.7932-26.647,.0466c7.9025,.0155 15.524,7.4987 15.587,13.815v6.9993h-1.0274l-.0466-6.9061c0-6.9073-8.6993-13.363-15.681-13.161-6.0364,.1732-15.4,5.9277-15.307,13.115v2.1467l14.327,.0932-.1398,2.4729 2.2495,1.4359 4.487,1.43-.0657,3.7093 3.2136,.9473 .0275,3.7057 3.8551,1.6546v3.8359l2.4454,1.5064-.1123,3.8957 3.3139,2.3331h-7.8403l4.9004,5.4606h-7.2335l-3.5946-5.4606h-4.7594l2.1467,5.4128-5.0855-.0466-1.2149-5.3662h-6.2061l.0466,5.7856-22.214,.001zm22.168-14.981v4.573h5.3209l-1.0752-4.573h-4.2457z"/>
<g fill="none">
<path d="m289.39,211.66h3.313v7.607h-3.313z"/>
<path d="m284.71,219.8h3.2339l-.0203-5.5968c-.0418-2.4329 2.142-4.8854 3.1873-4.967 1.1588-.0439 2.8671,2.2965 2.9244,4.7757l.0466,5.8064 3.431-.007v-14.411l-12.803,.0682v14.332z"/>
<path d="m310.3,223.14h4.014v3.127h-4.014z"/>
<path d="m307.92,217.77h4.014v3.127h-4.014z"/>
<path d="m304.05,212.4h4.014v3.127h-4.014z"/>
<path d="m300.74,207.88h4.014v3.127h-4.014z"/>
<path d="m298.08,219.82 4.1059,.1398 7.3266,6.4868v-3.8264l-2.4729-1.7728v-3.0344l-3.5934-2.0524v-3.2673l-3.5002-1.166v-4.4344l-1.774-1.4467-.092,14.374z"/>
</g>
<path d="m315.43,210.35h.98v7.047h-.98z"/>
<g id="c">
<path d="m257.32,186.53c-1.234-1.9819-2.7118,2.7488-7.7878,6.2706-2.363,1.608-4.0092,5.8931-4.0247,8.7124-.0777,1.9365 .215,3.8682-.001,5.7414-.1362,1.1851-1.3714,3.8156-.5268,4.4882 2.234,1.6605 5.1261,5.4308 6.4677,6.7317 1.16,1.0166 2.1647-5.248 3.0355-8.0518 .933-3.0045 .5149-6.5955 3.1024-9.3718 1.8338-1.8744 6.4594-3.7189 5.9397-4.5539l-6.2049-9.9668z"/>
<path fill="#bf0000" d="m257.06,201.88c-.3853-.8858-.9575-1.8017-1.6562-2.5938-.6987-.792-1.5248-1.4569-2.4375-1.7812-.8816-.3249-1.7792-.7513-2.4062-1.5312-.3135-.39-.5841-.882-.7188-1.4688-.1248-.5436-.1235-1.2104-.0312-1.9688-.1099,.0798-.1678,.1713-.2812,.25-2.363,1.608-4.0157,5.8994-4.0312,8.7188-.0312,.7788-.0314,1.5387 0,2.3125 .1749,.4853 .3436,.956 .5938,1.25 .326,.3831 .7132,.6363 1.125,.8125 .8235,.3524 1.7746,.4251 2.6562,.75 .9127,.3243 1.8518,1.058 2.6562,1.9375 .7668,.8384 1.3575,1.8005 1.75,2.6562 .0663-.2425 .154-.6039 .2188-.8125 .845-2.7212 .6971-5.8888 2.5625-8.5312z"/>
<g fill="none">
<path d="m249.82,192.39c-.4838,3.3557 1.3846,4.4727 3.1478,5.1226 1.8254,.6487 3.3223,2.6067 4.0928,4.3783"/>
<path d="m245.3,203.44c.7705,2.8934 2.7978,2.5314 4.5611,3.1813 1.8254,.6487 3.7452,2.9567 4.5157,4.7283"/>
</g>
<path d="m255.61,184.48 .9246-.5937 17.752,29.898-.9235,.5937-17.753-29.898z"/>
<path d="m257.52,183.29a2.0459,2.0459 0 1,1 -4.0919,0 2.0459,2.0459 0 1,1 4.0919,0z"/>
<path d="m272.7,159.27h7.194v1.65h-7.194z"/>
<path d="m272.7,162.4h7.194v13.784h-7.194z"/>
<path d="m272.26,157.39 7.9801,.0466c.3118-2.7058-2.3893-5.6291-3.9662-5.5992-1.559,.0753-4.0761,2.9555-4.014,5.5526z"/>
<g fill="#bd6b00" stroke="none">
<path d="m292.62,155.76c-1.5214,.6399-2.6876,2.3773-3.4062,4.375-.7186,1.9977-.9915,4.2674-.6562,6.0938v.0312c.1277,.6303 .3009,1.0828 .5,1.4062s.4223,.5134 .6875,.5625c.2652,.0491 .5139-.0929 .6562-.3125 .1424-.2196 .2121-.509 .1875-.8438-.1442-1.8787-.135-3.7323 .3125-5.4062 .4475-1.674 1.3381-3.1644 2.9688-4.375 .2948-.216 .4642-.4632 .5-.7188 .0358-.2555-.0995-.474-.2812-.625-.3635-.302-.9374-.4078-1.4688-.1875zm.1562,.4375c.3706-.1536 .8422-.0633 1.0312,.0937 .0945,.0785 .1058,.1332 .0937,.2188-.012,.0856-.0775,.234-.3125,.4062-1.7131,1.2718-2.6562,2.8713-3.125,4.625s-.4586,3.6602-.3125,5.5625c.019,.2578-.0553,.455-.125,.5625s-.1068,.1399-.1875,.125c-.0807-.0149-.2476-.1173-.4062-.375s-.3173-.6564-.4375-1.25c-.3147-1.7145-.0372-3.9474 .6562-5.875 .6934-1.9276 1.8032-3.5378 3.125-4.0938z"/>
<path d="m295.19,157.73c-1.5192,.6389-2.5013,2.292-3.0312,4.1875-.53,1.8955-.6134,4.0655-.2812,5.875 .26,1.2838 .9344,1.9611 1.5938,2.0625 .3297,.0507 .6478-.0795 .8438-.3438 .1959-.2643 .26-.6189 .1562-1.0625-.3723-1.4981-.5156-3.366-.25-5.0625s.9402-3.2115 2.2188-4.125c.2955-.2151 .4639-.4631 .5-.7188 .0361-.2556-.0995-.5051-.2812-.6562-.3636-.3023-.9371-.3767-1.4688-.1562zm.1875,.4375c.3703-.1535 .8105-.0639 1,.0937 .0948,.0788 .137,.1336 .125,.2188-.012,.0852-.1083,.2349-.3438,.4062-1.4117,1.0086-2.1286,2.6642-2.4062,4.4375-.2776,1.7733-.105,3.6646 .2812,5.2188 .0826,.3532 .0007,.5914-.0937,.7188-.0944,.1274-.2143,.1858-.4062,.1562-.3838-.059-.983-.5548-1.2188-1.7188-.3178-1.7314-.2275-3.868 .2812-5.6875s1.4572-3.2869 2.7812-3.8438z"/>
</g>
<path d="m272.31,187.39h8.027v11.107h-8.027z"/>
<path d="m272.78,204.85h7.747v2.333h-7.747z"/>
<path d="m272.59,208.95h7.933v8.68h-7.933z"/>
<path d="m272.03,219.41h8.68v4.853h-8.68z"/>
<path d="m273.1,202.76h6.9946l1.387-2.3092h-9.6359l1.2544,2.3092z"/>
<path d="m282.53,194.25 .0657-6.0711h4.8179c-1.8923,1.5614-3.652,3.4537-4.8836,6.0711z"/>
<g fill="none">
<path d="m273.56,196.74c.0478,1.2986 1.5184,.7192 1.5184,.0657 0-2.0034 .0263-4.1693-.0538-5.5873-.01-1.0453 2.4908-.7837 2.4765-.1398 .01,1.6916 .0287,4.0116 .0382,5.9911-.0179,.9641 1.6151,.8804 1.5924,0-.01-2.2113-.0108-5.4248 0-7.0519 .0143-2.0954-5.5013-2.05-5.5443-.0466 .002,1.645-.0299,4.5898-.0275,6.7688z"/>
<path d="m273.57,209.98h5.694v7.093h-5.694z"/>
</g>
<path d="m277.21,212.92h2.007v1.167h-2.007z"/>
<path d="m273.71,212.92h1.96v1.167h-1.96z"/>
<path d="m275.67,210.07h1.54v2.893h-1.54z"/>
<path d="m275.67,214.04h1.54v3.08h-1.54z"/>
<path d="m243.99,138.97c.356,5.567-1.3714,8.6228-4.3198,8.1581-.8124-3.0881 1.0357-5.1596 4.3198-8.1581z"/>
<path d="m237.52,151.31c-2.621-1.3332-.7299-11.513 .276-15.78 .7442,5.4965 1.9891,13.309-.276,15.78z"/>
<path d="m238.45,151.79c4.4058,1.5327 7.8941-3.2124 9.0732-8.7077-3.6364,5.0186-9.5546,5.0246-9.0732,8.7077z"/>
<path d="m235.11,156.93c-3.4453-.9103-1.3702-11.71-.7442-16.03 .7574,4.4619 3.1323,14.552 .7442,16.03z"/>
<path d="m236.29,156.59c.1923-3.7248 3.9052-2.6485 6.4677-4.6364-.4181,1.8612-1.9938,5.1596-6.4677,4.6364z"/>
<path d="m232.07,161.58c-3.4142-.9211-1.3619-12.544-1.5554-17.329 1.0011,4.1346 4.1705,16.209 1.5554,17.329z"/>
<path d="m233.66,161.08c2.7966,.9091 6.5012-.9079 6.7927-4.2386-2.4084,1.6343-6.2539,.3847-6.7927,4.2386z"/>
<path d="m229.52,166.71c-3.2649,.2604-1.8039-9.6383-1.8015-18.857 1.1994,8.6169 4.4667,16.505 1.8015,18.857z"/>
<path d="m230.65,166.26c2.2053,1.1062 6.1559-.6618 7.2837-4.3867-3.9841,1.7322-6.6481,.0394-7.2837,4.3867z"/>
<path d="m256.28,144.13c-.5806,4.8287-2.5541,7.6385-5.5025,7.1738-.8124-3.0881 1.5781-5.0616 5.5025-7.1738z"/>
<path d="m248.48,156.52c4.898,.6953 6.6624-3.0642 9.9596-7.8702-4.6208,3.3438-10.146,4.039-9.9596,7.8702z"/>
<path d="m247.09,155.97c-2.67-3.204-.0896-7.2275 1.9508-10.657-.4384,5.1023 1.2998,7.9407-1.9508,10.657z"/>
<path d="m245.91,161.26c-.3011-3.1335 5.0378-3.83 7.4521-5.5718-.8124,1.811-2.0428,6.6863-7.4521,5.5718z"/>
<path d="m244.79,161.33c-3.6914-.4181-2.1587-6.6863 .4874-10.17-1.1146,4.8072 1.9496,8.1498-.4874,10.17z"/>
<path d="m242.01,166.55c-4.2015-1.8576-1.5088-7.1272 .0705-10.238-.6738,4.0856 2.6927,7.1964-.0705,10.238z"/>
<path d="m242.84,166.06c2.2053,2.879 6.5012-.8589 7.3828-5.2241-3.738,3.112-6.5,2.6007-7.3828,5.2241z"/>
<path d="m233.24,186.32c-.4317-4.2875 2.7929-12.084 .5044-16.24-.312-.571 .685-2.087 1.329-1.1672 1.0064,1.4682 2.041,5.6518 2.4738,4.1071 .4586-1.6796 .529-4.6507 2.0164-5.2277 .9489-.3381 2.2908-.5591 1.9249,.9342-.3636,1.4359-1.1777,3.419-.2757,3.5469 .5231,.0776 2.0304-1.9544 3.2996-2.8934 1.0228-.8374 2.5489,.4731 1.0533,1.7262-4.8608,4.0367-9.5704,5.8537-12.326,15.214z"/>
<path d="m224.51,250.85c-.5704-.1094-1.3518-.3032-.6408,.5839 5.6789,6.9961 7.3221,8.924 15.603,7.9397 8.3647-1.1012 10.357-3.3637 16.214-6.6504 3.1284-1.8351 7.7026-2.2426 11.17-1.1055 1.6142,.5283 2.5906,.5602 1.4336-.5983-1.1575-1.1569-2.5249-2.7312-3.9485-3.8153-3.1181-2.3942-8.4069-3.4322-12.723-2.6616-6.1044,.9573-11.148,4.8442-17.176,6.3123-3.1669,.7229-6.6407,.6139-9.9317-.005z"/>
<path d="m272.3,263.35c1.056,.1314 1.725,2.1766 2.2447,.792 .8816-2.2423 .264-4.0259-.7263-3.8288-1.1696,.3118-3.1478,2.934-1.5184,3.0368z"/>
<path stroke="none" d="m220.6,182.92c-1.2149-1.2687-.8637-1.7537 .933-1.774 1.4252-.0896 4.2493,.8733 5.3209,.0932 .982-.7132 .5913-3.738 1.0274-5.1333 .1899-.7777 .7347-1.9986 1.9592-.0932 3.6221,5.8047 8.1462,12.773 10.08,19.6 1.0572,3.8264 .0621,9.7996-3.4537,13.814 .1242-3.4226-1.1516-5.7247-2.707-8.587-1.921-3.7619-9.0565-13.951-13.16-17.919z"/>
<path d="m235.53,213.44c3.9829,.0191 4.6674-5.3197 4.6674-6.813-1.9604,.3727-5.4141,3.64-4.6674,6.813z"/>
<path d="m269.95,265.26c2.8326,.6446 2.7937-6.1781-.0995-9.0701 1.274,4.3824-2.1286,8.3884 .0995,9.0701z"/>
<path d="m268.85,265.2c.1869,3.2427-7.9586-.4238-10.052-2.9462 4.8125,2.0445 9.8145,.3522 10.052,2.9462z"/>
<path d="m265.28,260.57c.2913,3.1414-7.0638,.3793-9.2378-2.074 4.83,1.5602 8.9164-.511 9.2378,2.074z"/>
<path d="m266.63,261.01c2.8326,.6446 2.3737-6.412-.3793-8.8369 1.3211,4.7091-1.8488,8.1552 .3793,8.8369z"/>
<path d="m263.65,256.72c2.8326,.6446 1.207-5.4312-.8927-7.8575 .341,4.4298-1.055,7.5021 .8927,7.8575z"/>
<path d="m262.15,256.7c.2919,3.2349-5.4301,.7515-7.6509-2.3088 4.783,1.561 7.3296-.2762 7.6509,2.3088z"/>
<path d="m260.59,254.24c1.8558-1.3343-.1129-4.8633-3.645-4.6447 .3456,2.1312 1.5659,5.88 3.645,4.6447z"/>
<path d="m274.54,268.87c.1869,3.2427-7.9595,1.6298-10.519-1.8255 5.1387,.9711 10.281-.7685 10.519,1.8255z"/>
<path d="m242.18,263.07c.2919,3.2349-8.6024-.3225-10.823-3.3827 4.783,1.561 10.502,.7978 10.823,3.3827z"/>
<path d="m247.63,264.45c1.8558-1.3343-1.9327-4.7703-4.951-5.578 .3456,2.1312 2.8719,6.8132 4.951,5.578z"/>
<path d="m248.2,266.69c.1986,2.9084-9.5373,1.3132-12.084-1.3741 8.3771,1.5142 11.81-1.1172 12.084,1.3741z"/>
<path d="m252.76,268.63c1.0806,2.7015-8.2641,2.0422-11.545,.4715 5.3012-.0461 10.802-2.3534 11.545-.4715z"/>
<path d="m257.13,270.6c1.0345,2.421-7.6104,2.3687-11.824,1.0303 5.5812-.0458 10.801-3.4259 11.824-1.0303z"/>
<path d="m263.42,271.9c1.531,2.8646-7.5878,3.1435-10.547,1.7331 5.2725-.7251 9.2422-3.9877 10.547-1.7331z"/>
<path d="m252.74,267c-2.9011,1.8295-2.7458-3.5643-5.0532-7.2996 3.6255,3.3017 7.0194,5.5553 5.0532,7.2996z"/>
<path d="m257.88,268.94c-2.4335,2.156-4.379-5.2459-6.594-9.399 3.5805,3.9539 8.8395,7.6085 6.594,9.399z"/>
<path d="m264.68,271c-2.0609,2.3888-8.0196-7.0181-10.187-11.919 3.2992,3.8152 11.826,9.895 10.187,11.919z"/>
<path d="m258.88,278.18c-1.028,3.6318-16.192-3.4234-17.885-7.0785 8.6768,4.5975 18.092,3.6359 17.885,7.0785z"/>
<path d="m210.15,204.38c-.3548-.4599-1.3738,.012-1.1194,1.1206 .2365,1.5004 2.449,9.2034 6.2515,11.853 2.7118,1.9544 16.965,5.1023 23.427,6.439 3.5564,.7156 6.5346,2.4896 8.8677,5.3209-.9653-3.7022-1.7406-6.445-2.9866-9.7996-1.2114-2.9483-4.4213-6.1738-7.746-6.3471-6.175-.2222-14.167-.7478-19.974-3.2673-2.9973-1.252-4.7917-2.9436-6.7198-5.3197z"/>
<path d="m245.54,234.87c1.9469,1.4336 4.0958-3.704 1.6225-8.588-.0776,4.7012-3.8141,6.2791-1.6225,8.588z"/>
<path d="m247.41,239.58c2.6927,.8267 3.536-3.937 1.7626-7.7474 .2957,4.0938-4.2336,6.5596-1.7626,7.7474z"/>
<path d="m249.46,243.36c2.6006,1.2948 3.5848-3.5179 1.7159-7.0917 .2039,4.5593-3.7203,5.9035-1.7159,7.0917z"/>
<path d="m248.39,243.65c-1.0304,3.0802-7.0069-2.6554-8.0141-5.7748 3.7094,3.6852 8.7568,3.278 8.0141,5.7748z"/>
<path d="m245.68,238.94c-1.171,3.0797-8.6865-4.8497-10.348-8.6679 3.7094,3.6852 11.184,6.4975 10.348,8.6679z"/>
<path d="m244.19,234.32c-1.1706,3.5001-9.3403-5.829-11.654-9.1352 3.8968,3.6388 12.537,6.5919 11.654,9.1352z"/>
<path d="m243.93,230.86c2.8765-.5594-.1633-2.9553-3.6892-6.849-.1649,4.0999 .508,6.9664 3.6892,6.849z"/>
<path d="m239.08,228.53c1.2422-1.3529-1.1906-1.9289-4.203-5.3096-.4444,2.2798 2.7942,6.4535 4.203,5.3096z"/>
<path d="m253,243.73c1.5742,.9212 2.6516-2.3045 .6898-5.225-.4489,3.1594-2.1332,4.0368-.6898,5.225z"/>
<path d="m218.81,223.38c-3.3424,2.004-8.6516-5.992-10.068-9.2817 2.9329,3.7754 10.699,7.2242 10.068,9.2817z"/>
<path d="m221.65,228.04c-1.8496,2.0506-7.6713-3.5187-9.6942-6.3413 3.1204,2.7022 10.512,3.0236 9.6942,6.3413z"/>
<path d="m224.82,232.22c-.6103,2.801-9.1062-3.4952-11.092-6.4756 3.6626,3.4518 11.649,3.1398 11.092,6.4756z"/>
<path d="m223.52,235.25c-1.3106,2.5218-8.2206-3.7268-9.8794-6.9868 4.222,3.6843 10.949,4.4926 9.8794,6.9868z"/>
<path d="m219.97,222.97c2.1805-2.2988 1.2516-3.3763-.338-6.9994-.8689,3.7206-2.1793,5.2055 .338,6.9994z"/>
<path d="m222.86,227.31c3.9544,.1742 .0381-4.6378-.8969-8.6793 .3439,4.6062-1.0136,8.2375 .8969,8.6793z"/>
<path d="m225.38,231.13c2.7405-.6193 1.95-4.4971-.1507-9.1933 .4364,5.0738-2.3203,8.0055 .1507,9.1933z"/>
<path d="m224.45,238.8c-1.0304,3.0802-8.8265-4.0555-10.067-6.7554 3.9426,3.3119 10.763,4.4456 10.067,6.7554z"/>
<path d="m229.12,243.61c-1.1698,3.0817-9.3391-3.1669-11.839-6.5678 4.9223,3.8722 12.443,3.5126 11.839,6.5678z"/>
<path d="m233.88,248.46c-1.3096,4.2937-9.8528-2.5609-12.399-5.9148 5.4358,4.1511 13.096,2.859 12.399,5.9148z"/>
<path d="m225.85,237.43c2.3206,1.201 3.2577-5.3837 1.9487-10.033 .0175,5.0736-4.6535,8.8452-1.9487,10.033z"/>
<path d="m229.81,242.66c2.7876,.8281 1.904-6.2694-.478-10.873-.3088,4.561-2.3662,8.8924 .478,10.873z"/>
<path d="m234.76,247.56c3.1142,.1745 .9714-6.084-1.5973-9.6132 .4372,4.6069-1.0129,9.0788 1.5973,9.6132z"/>
<path d="m229.3,250.23c-.9362,1.5864-3.226-1.3475-6.9861-3.4886 3.3817,.8844 7.4021,2.0185 6.9861,3.4886z"/>
<path d="m227.52,197.49c2.9065-2.1503 .6893-6.1726 0-9.9979-.9354,3.6281-3.3975,8.3887 0,9.9979z"/>
<path d="m227.42,202.85c-4.3664-.5244-3.7093-6.1715-3.8407-9.7506 1.3129,4.8586 4.892,5.6793 3.8407,9.7506z"/>
<path d="m228.11,202.12c3.6938-.2138 3.4979-4.4166 3.695-8.6682-1.872,3.9076-4.0892,4.5145-3.695,8.6682z"/>
<path d="m227.96,207.34c-2.8731,.2294-4.3664-2.5935-5.0234-6.9934 2.725,4.0546 5.2038,2.7907 5.0234,6.9934z"/>
<path d="m228.99,206.99c3.6938,.4755 3.1036-3.8252 2.9555-6.9946-1.1325,3.0212-4.137,3.9733-2.9555,6.9946z"/>
<path d="m223.23,205.17c.2951,2.8074 2.0691,7.6337 4.9255,6.5502 1.1815-3.4477-2.5123-4.137-4.9255-6.5502z"/>
<path d="m229.04,212.02c-1.2806-2.4621 2.9053-3.695 3.7918-6.8954 .5089,4.5802 .0824,7.5847-3.7918,6.8954z"/>
<path d="m217.13,182.84c2.2997-2.4765 .2688-6.4056-.4205-10.231-.9354,3.6281-2.5565,8.4353 .4205,10.231z"/>
<path d="m217.06,187.45c-4.039,.4098-5.0162-7.8045-5.4272-11.337 1.3129,4.8586 5.9648,7.0794 5.4272,11.337z"/>
<path d="m217.89,187.37c2.854-1.4742 2.191-4.6495 3.0881-7.0352-1.9186,2.928-3.6687,3.3474-3.0881,7.0352z"/>
<path d="m217.09,192.75c-4.2254,.362-6.7425-8.7387-6.8739-12.318 1.3129,4.8586 7.3661,7.4999 6.8739,12.318z"/>
<path d="m217.9,192.61c3.9733-.9139 3.4979-3.4835 2.9018-7.642-1.2651,4.1884-3.4824,3.3008-2.9018,7.642z"/>
<path d="m217.04,198c-4.6459,.7885-4.3198-6.5609-8.0088-11.893 3.1909,3.9602 8.9358,8.9502 8.0088,11.893z"/>
<path d="m218.09,197.75c3.5074,.1015 3.8503-5.1787 3.6556-7.3207-.8064,2.1336-4.9302,4.1597-3.6556,7.3207z"/>
<path d="m209.78,192.34c1.7418,5.6542 4.2158,11.32 7.2586,10.89 1.461-3.2148-2.8862-3.6245-7.2586-10.89z"/>
<path d="m218.14,202.4c-1.2806-2.4621 2.9053-3.695 3.7918-6.8954 .5089,4.5802 .0824,7.5847-3.7918,6.8954z"/>
<path d="m210.98,198.8c2.4872,5.0939 3.609,10.948 7.0244,10.097 1.2747-3.9614-3.7714-4.7905-7.0244-10.097z"/>
<path d="m218.71,207.93c-1.467-2.6951 2.719-3.6484 3.7452-7.3625 .5555,4.861 .0358,8.3314-3.7452,7.3625z"/>
<path d="m225.87,173.45c2.4514,.663 5.0222-2.0894 4.131-6.2085-2.8014,.6977-4.0868,3.241-4.131,6.2085z"/>
<path d="m218.03,171.39c.2138,1.1588 1.6235,1.2639 1.2137-.3727-.3417-1.3284-.4002-2.3271 0-3.4071 .5483-1.3535 .3656-3.658-.0466-4.6196-.4157-1.0154-1.7931-.4205-1.2137,.3739 .6379,.9211 .6714,2.8372 .2329,3.732-.577,1.3212-.4205,3.075-.1864,4.2935z"/>
<path d="m240.9,187.31c-.947,1.3932-2.8812,.5411-1.4078-1.3724 1.2073-1.5486 2.9282-2.8138 3.0552-4.4136 .1003-2.0286 1.2909-5.1066 2.3726-6.1447 1.1177-1.106 2.4089,.4499 1.2142,1.1874-1.3426,.872-2.2147,4.4568-2.1853,5.836-.0453,2.0013-2.0413,3.447-3.0489,4.9072z"/>
<path d="m237.92,185.07c-.947,1.3932-2.4566,.5846-1.6013-1.6522 .7223-1.5486 .7997-3.4676 1.6042-4.6 1.125-1.7165 3.0307-3.1471 4.1125-4.1853 1.1177-1.106 2.0456-.0402 1.0207,.9075-1.2445,1.2453-2.5947,2.7953-3.345,3.9693-1.3993,2.2808-.7834,4.1004-1.7909,5.5607z"/>
<path d="m222.18,177.86c-.1123,1.9667 1.4706,2.4433 1.4001-.4089-.0717-2.9777-2.179-5.702-.8864-10.235 .6798-2.2176 .6917-6.2814 .2796-8.4413-.362-2.1423-1.8863-.7425-1.3069,.9257 .6379,1.9341-.1195,5.6442-.6069,7.5106-1.4634,5.4335 1.2066,8.0801 1.1206,10.649z"/>
<path d="m226.5,166.98c-.2324,1.8098-1.7642,1.974-1.319-.5821 .3713-2.0748 .4349-3.6346 0-5.3213-.5959-2.114-.3972-5.7131 .0506-7.2151 .4518-1.5859 1.9486-.6568 1.319,.584-.6932,1.4385-.7296,4.4313-.2532,5.8288 .627,2.0636 .457,4.8026 .2025,6.7057z"/>
<path d="m210.94,204c.7581,.9021 2.0358,.2976 .8715-.9234-.953-.9865-.6393-1.2979-1.22-2.4999-.5743-1.343-.5443-2.084-1.2375-3.0436-.613-.9103-1.535,.0184-.9173,.7845 .7754,.906 .5613,1.5743 1.0356,2.4508 .8763,1.4999 .6626,2.2875 1.4678,3.2315z"/>
<path d="m231.34,228.61c2.4394,1.1994 4.2911,4.1955 4.413,6.6361 .2067,2.8086 .6116,5.1799 1.8732,7.1761-2.0082-.5591-2.9698-3.7595-3.2554-6.8249-.2891-3.1729-1.9986-4.5491-3.0308-6.9874z"/>
<path d="m236.42,234.49c1.688,3.1159 4.0486,4.3044 4.1692,6.6167 .2045,2.661 .4066,2.7968 1.1277,5.4136-1.9871-.5297-2.4871-.7029-3.0238-4.6847-.331-2.7979-2.571-4.7718-2.2732-7.3456z"/>
<g stroke="none">
<path d="m288.97,263.32c.9485,1.7884 2.038,4.5109 4.0128,4.0128 .0311-1.369-2.1312-2.3176-4.0128-4.0128z"/>
<path d="m291.91,263.93c3.8353,1.5721 7.1472,1.1839 7.5598,3.5946-3.598,.3883-4.9137-1.0895-7.5598-3.5946z"/>
<path d="m275.85,251.24c2.5828,2.1157 4.2588,4.5312 5.0401,7.6528 .8147,2.9077 1.9604,5.2265 3.6412,7.8403-2.7381-1.8672-4.4596-4.407-5.3209-7.4676-.7562-3.0081-1.6486-5.2564-3.3605-8.0255z"/>
<path d="m279.03,251.23c2.7692,2.2101 5.3794,4.7188 6.1607,7.8403 .8147,2.9077 1.3069,5.1333 3.1741,8.0267-2.9244-1.8672-4.0856-4.6877-4.947-7.7483-.7562-3.0069-2.4896-5.2552-4.3879-8.1187z"/>
<path d="m288.17,258.47c-.0765-.5459 .2975-1.0226 .7466-1.166 .8745-.3273 1.7454-.5937 2.6126-.8398 .9856-.233 1.5375,.4707 1.5411,.933 .005,.7693 .0406,1.4228 0,2.0058-.0538,.7263-.1923,.7801-.6535,.8876-.7383,.1242-1.6844,.2509-2.4263,.7466-.5878,.3608-1.1528,.0753-1.4467-.5591-.1899-.485-.2939-1.4336-.3739-2.0082z"/>
<path d="m298.8,258.47c.0683-.5459-.2199-1.0692-.6212-1.2126-.7812-.3273-1.5593-.4074-2.38-.3739-.9114-.0143-1.1409,.1911-1.1441,.6535-.004,.7693-.0363,1.516 0,2.099 .048,.7263 .032,.7801 .444,.8876 .6596,.1242 1.7845,.1577 2.4472,.6535 .5251,.3608 1.1238,.0753 1.1526-.6057-.0128-.5137 .0299-1.5267 .1014-2.1013z"/>
</g>
</g>
<use x="-600" xlink:href="#c" transform="scale(-1 1)"/>
</g>
<g stroke="none">
<path d="m328.54,286.65c.0466,1.1815 .1876,2.1312 .8876,3.0797-4.0761-1.633-9.8306-.7586-13.767,1.074-1.7561,.8386-3.8802-.9581-1.8206-2.6604 2.9292-2.3737 9.7063-1.0274 14.7-1.4933zm-57.505-.0621c.0573,1.1134-.0717,2.1336-.4814,3.106 4.4309-1.8349 9.1879-.3106 13.664,1.4945 3.0774,1.2723 3.3258-.9306 2.7823-1.6928-.9342-1.3523-2.7417-2.8372-5.0282-2.8695-1.522-.0215-7.3816-.0741-10.937-.0382zm3.7404-21.642c-1.2364-.5328-2.6724-.0203-3.9602,1.3356-4.3269,4.2397-9.4041,8.3707-13.502,11.584-1.5291,1.3284-3.0917,3.7117 3.431,6.0938 .2365,.0896 4.9912,1.8517 8.004,1.964 1.2305-.0346 1.2269,1.8027 .9987,2.2925-.5197,.9784-.1434,1.3523-1.1934,2.2937-1.0943,.9235 .1171,2.1193 .9772,1.3069 3.6723-3.1884 9.6275-1.148 15.366,.718 1.3559,.3751 3.8371,.27 3.8156-1.6008 .0239-2.038 1.5004-3.4787 2.4036-3.5313 2.3427,.4062 13.919,.5352 17.485,.1015 2.0786-.27 2.2041,2.848 3.3163,4.0773 .767,.8147 3.7189,1.031 5.7426,.1374 4.0008-1.8588 10.097-1.8588 12.582-.0824 1.0214,.7777 1.8278,.1469 1.2472-.6427-.7478-1.0799-.7311-1.5805-1.1026-2.4334-.933-1.8983-.1888-2.363 .7896-2.5004 11.054-1.4252 14.582-5.1966 11.202-8.2716-4.364-3.8276-9.2225-7.6755-13.408-12.198-1.1349-1.1994-1.8851-1.6808-4.2469-.6988-7.2215,3.2888-16.388,5.6864-25.358,5.862-8.3469,.0717-19.824-3.7894-24.589-5.8071z"/>
<path fill="#bd6b00" d="m326.62,265.54c-.5802,.0578-1.1972,.2383-1.6562,.4062-8.921,3.1336-17.117,5.328-25.656,5.3125-8.3351-.0155-17.066-2.3091-24.906-5.5312-.4462-.1905-.9598-.1608-1.4688-.0312-.5089,.1296-1.0125,.3658-1.3438,.6875-3.6409,3.6266-7.5824,7.1483-11.812,10.344-.6391,.488-.535,1.7307 .5,2.1562h.0312c8.3042,2.9793 16.412,8.5315 39.625,8.3125 23.433-.2213 31.746-5.64 39.188-8.125 .5246-.1998 1.0644-.4994 1.3125-.9688 .124-.2347 .1577-.526 .0625-.8125-.0952-.2865-.2836-.5544-.625-.8438h-.0312c-4.2235-3.4524-8.7488-6.2064-11.719-10.406-.3338-.479-.9198-.5578-1.5-.5zm.0312,.4375c.5072-.0506 .8948,.027 1.0938,.3125 3.0414,4.3011 7.621,7.0738 11.812,10.5 .3001,.2543 .4415,.4802 .5,.6562 .0585,.176 .0438,.2956-.0312,.4375-.15,.2839-.5896,.5699-1.0625,.75-7.534,2.5157-15.668,7.9043-39.031,8.125-23.115,.218-31.094-5.3023-39.469-8.3125-.7546-.3103-.6871-1.1606-.4062-1.375 4.2421-3.2062 8.227-6.7414 11.875-10.375 .2505-.2433 .6527-.4502 1.0938-.5625 .4411-.1123 .9124-.1308 1.2188,0 7.8791,3.2384 16.613,5.5781 25.031,5.5938 8.6179,.0156 16.903-2.2032 25.844-5.3438 .4452-.1629 1.0241-.3557 1.5312-.4062z"/>
<path d="m269.71,114.56c-.0681-1.3788 2.0691-1.4841 1.8242,.412-.313,2.3623 4.4583,8.342 4.8538,12.029 .2652,2.4726-1.4527,4.6371-3.1538,5.9841-2.0858,1.6157-5.2934,1.3935-6.7938,.4666-.9079-.7308-1.7358-3.2334-1.056-4.224 .2401-.3334 1.3272,3.673 3.7213,3.6574 3.2578-.021 5.8967-2.4682 5.9934-4.6508 .1673-3.8014-5.3292-9.8095-5.389-13.675z"/>
<path d="m279.24,123.95c.5388-.385 1.3989,1.2959 .792,1.716-.5053,.3365-1.4921-1.2493-.792-1.716z"/>
<path d="m280.69,120.54c-.2724,.1321-.8135-.0555-.6523-.2867 .7622-1.0889 2.3869-2.7279 3.5648-3.3 .362-.1758 .9951,.463 .7765,.776-.7048,1.0071-2.4203,2.1949-3.689,2.8107z"/>
<path d="m293.28,110.55c.3022-.6309 2.1169-1.3441 2.5792-1.7707 .4277-.4378 .632,.3705 .4492,.752-.3022,.6305-1.8684,1.6954-2.5553,1.724-.3691,.0154-.6558-.3242-.4731-.7053z"/>
<path d="m297.59,110.75c.393-1.1074 1.6605-2.7861 2.5326-3.3387 .448-.2834 1.252-.0605 1.1014,.364-.3333,.9396-1.8839,2.5812-2.9268,3.3546-.3166,.2817-.798-.1233-.7072-.3799z"/>
<path d="m293.9,113.52c-.2628,.1315-.1207,.6913 .1326,.7759 .5388,.1794 1.5196,.2144 1.964-.0307 .6451-.3976 .3512-2.8442-.5125-1.5372-.5794,.8063-1.0023,.5473-1.5841,.792z"/>
<path d="m286.61,119.14c-1.3177-1.0262 .3548-2.4639 1.7322-1.4601 2.6831,2.024-4.0032,9.7781-7.6408,13.403-.6654,.7098-1.2496-1.078-.3966-1.848 2.6079-2.2121 5.0497-4.8551 6.7472-7.5854 .3273-.5256 .6403-1.6587-.442-2.5092z"/>
<path d="m301.88,112.47c.1637-.9821-1.5889,.0206-1.6211-1.2814-.0167-.6891 1.915-1.1725 2.7226-.3799 1.3643,1.384 .3441,3.7184-1.9245,3.8653-1.8911,.0835-5.0461,2.685-4.5659,3.2319 .546,.6753 5.4499,1.1213 8.3015,.6747 1.7657-.2478 1.3953,1.3314-.4133,1.5452-1.7477,.2014-3.1717,.0147-4.8048,.528-1.9222,.5492-2.7608,3.1292-3.8288,4.0921-.2377,.1674-.8793-.8459-.6355-1.2268 .7693-1.2032 1.9962-3.0449 3.3462-3.572 .8518-.345-2.3486-.4538-3.37-.7453-.81-.2442-.5746-1.2735-.264-1.848 .4121-.8951 3.4286-3.916 4.6447-3.8666 1.1421,.0483 2.2997-.2842 2.4132-1.0173z"/>
<path d="m306.96,112.73c.5675-.5006 .8578-1.3381 1.4527-1.848 .3261-.3266 .847,.0647 .7598,.8533-.0729,.6208-.9067,1.1559-1.467,1.6227-.4563,.3418-.9868-.3964-.7455-.628z"/>
<path d="m313.43,110.43c.8446-.0933 1.0548,1.5372 .1314,1.8012-.5603,.1867-1.0501-1.7051-.1314-1.8012z"/>
<path d="m311.3,115.47c-.0131,1.4037 .6797,1.2746 2.0022,1.2266 1.283-.0483 2.412,.0331 2.4072-1.2346-.006-1.3141-.7275-2.4637-.939-1.5694-.1864,.8401-.3345,2.2154-.8231,1.6161-.4611-.515-.2783-.6279-1.0716,.2173-.4396,.4658-.4898-.2258-.7538-.66-.184-.2572-.8207,.2078-.8219,.404z"/>
<path d="m302.08,122.63c-.3154,1.8576-.0263,4.4587 .9246,4.4881 1.1755,.0382 3.6078-4.0615 4.7594-6.188 .6905-1.1867 1.8768-1.3942 1.3822-.156-.749,1.9104-.6821,5.9976-.0239,7.1987 .3536,.6469 2.9639-.5932 3.3856-1.5147 .767-1.6746 .1433-4.7616 .4121-6.6468 .1302-1.2376 1.2627-1.4963 1.203-.3492-.1123,2.0524-.307,5.8151-.1625,7.524 .086,.9823 2.8946,2.432 3.3462-.5427 .2377-1.8724 1.2018-3.7189-.0466-5.7933-.7741-1.297 1.1361-1.1345 2.1659,.6373 .7204,1.2058-.6069,3.2015-.5603,4.744 .1195,2.3731-1.7262,3.7214-3.0654,3.7494-1.197,.0241-1.9771-1.4462-2.9579-1.4668-1.0883-.0694-2.2065,1.693-3.106,1.6307-3.4859-.2382-1.6402-5.3335-2.7022-5.396-1.1815-.0695-2.5744,4.994-4.0295,4.8134-1.4348-.1723-2.9197-4.1268-2.3224-5.8 .54-1.5567 1.5578-1.9216 1.3977-.932z"/>
<path d="m318.96,114.6c-1.7012-1.0376 .1075-3.7361 .939-2.788 1.6056,1.9229 3.2243,6.487 4.3556,6.8641 .7168,.2391 .6833-3.3736 1.1886-5.016 .3261-1.2133 1.7931-.8172 1.5124,.7373-.0956,.5191-1.9162,6.4213-1.7764,6.6546 1.2615,2.522 2.5099,5.0812 3.2996,7.788 .3261,1.1667-1.0752,.381-1.2424,.1387-.8948-1.3375-2.4609-6.452-2.4609-6.2187-.7204,3.598-.89,4.6599-1.6546,7.7174-.233,.98-1.6749,.8015-1.3499-.9239 .313-1.4182 2.3749-8.3926 2.259-8.5947-1.6211-2.8616-3.1036-5.1252-5.07-6.3588z"/>
<path d="m322.03,131.2c-.4743-.0538-1.2102,1.055 1.1516,1.4906 3.1562,.5713 6.6111-.4917 7.6695-3.5866 1.2125-3.6865 2.0141-7.1765 2.6473-8.4934 .7908-1.5347 1.8027-1.4107 1.056-3.6506-.5268-1.6123-1.51-1.1258-1.7167-.264-.5519,2.3498-2.6461,9.9521-3.2996,11.352-1.2328,2.5547-3.7177,3.5654-7.5082,3.152z"/>
<path d="m328.35,119.07c-.3381-.7254-1.1265-.1639-.9856,.6293 .0836,.717 .6654,1.1068 1.2496,1.0866 .6917-.0239 2.1551,.0232 2.1587-1.1253 .002-.8068-.632-1.481-1.1026-.5906-.4504,.8061-1.0298,.7217-1.3201,0z"/>
<path d="m329.14,116.03c-.2425,.1683-.0251,1.0656 .264,1.0559 1.031-.0344 2.492-.3633 3.2745-.9079 .2294-.1594 .1338-.7016-.1923-.6907-.9939,.0331-2.5756,.007-3.3462,.5427z"/>
<path d="m337.9,118.29c.7466-1.1667 2.8062-1.2855 2.0655,.38-.5244,1.1476-5.6518,11.055-6.3518,12.315-.7634,1.4167-1.3882,.7152-.8458-.388 .7299-1.4197 4.898-11.962 5.1321-12.307z"/>
<path d="m330.18,133.04c-.2186-.7885-1.4419-1.9543-1.3045,.1547 .2437,3.8285 5.5036,2.6184 7.0961,1.2577 1.4455-1.2811 .1911,4.3222 2.1121,4.9218 1.0584,.3393 3.0511-1.105 4.0307-2.3761 2.7166-3.5249 4.4452-8.5779 7.0579-12.058 .9868-1.3608-.54-2.3322-1.1576-1.2493-2.2722,3.8098-5.0939,11.585-8.176,13.604-2.5123,1.608-1.768-2.0703-1.8553-3.1753-.1099-.8107-1.0979-2.0034-2.4155-.9084-.9211,.7196-2.3522,1.305-3.6484,1.1879-.7514-.0418-1.3858-.0287-1.7394-1.3586z"/>
<path d="m339.57,125.93c.0275-.2161-1.1122-.3142-1.056,.792 .0394,.8189 1.019,1.0412 1.1875,.924 1.5411-1.1208-.3273-.5618-.1314-1.7161z"/>
<path d="m337.33,130.42c-.3034,.071-.5818,1.0397 .1326,1.0946 .6535,.0466 3.2135-.2282 3.9208-.1867 .4576-.0172 .632-.8919-.3488-.8453-1.1898,.0596-2.7536-.2386-3.7045-.0626z"/>
<path d="m275.37,113.76c.4062,.0194 1.5196,1.4621 1.4467,1.9133-.0502,.2128-1.191-.0317-1.5399-.3266-.258-.2184-.1541-1.5984 .0932-1.5867zm-5.3687,10.452c-1.0178,.5551 .1613,1.651 .9235,1.1879 2.8611-1.8525 7.1546-3.7984 8.0518-7.4681 .2879-1.2429 1.4431-3.1481 2.5398-3.5732 1.0596-.4108 2.5983,1.9171 3.603,.0853 .589-1.0471 2.6533,.6872 3.1514-.4333 .6069-1.3533 .3178-2.0984 .3429-3.3946-.0442-.8491-.6929-1.1028-1.1636,.272-.2449,.6225 .043,1.251-.1565,1.576-.1517,.2471-.6248,.4861-.8995,.28-.2533-.1899-.0777-.7204-.6845-.9548-.2353-.1179-.6128-.216-.7765,.0853-.7204,1.2847-1.1194,2.4826-2.1276,1.1174-.8984-1.176-1.3535-3.2088-2.0118-.4267-.2365,.9819-1.7286,2.4067-2.6091,2.4067-1.0991,0-.8231-2.8938-3.2374-2.4534-1.2412,.2647-1.1552,2.6396-.97,3.5175 .3046,1.22 3.9315,.3437 3.7511,1.1412-.62,2.7712-4.4667,5.4053-7.7268,7.0348z"/>
<path d="m247.3,137.42c-.1541,.4635 .4623,1.7227 1.1014,1.8158 .6272,.0466 .9473-1.3595 .7455-1.8158-.1493-.3357-1.737-.3285-1.8469,0z"/>
<path d="m250.63,142.3c-.4026-.4337-1.5889,.7299-.6296,1.553 .5388,.436 2.5123,1.0692 3.0523,.1481 .7311-1.1851-.7204-5.4881-.0777-6.0568 .5017-.4444 2.8277,2.8743 3.9757,3.1132 2.6975,.3739 2.05-4.6184 4.9565-4.2792 1.9807,.264 2.1981-2.2113 1.9222-3.7568-.221-1.483-2.6222-3.6238-3.726-4.5814-1.4527-1.2093-2.1002,.8916-1.1886,1.5841 1.1731,.9395 3.2362,2.8371 3.5648,4.0924 .1553,.5925-1.4336,1.7704-2.0189,1.4515-1.3511-.7371-2.6079-3.898-3.7894-4.62-.4026-.2459-1.3929,.3098-.9163,1.296 .5364,1.0566 2.9053,2.6932 3.0439,3.8209 .1254,1.0286-1.0561,3.253-1.8314,3.253-.853,0-3.0272-2.6879-3.7057-3.953-.3393-.6057-1.5148-.5471-1.6378,.2891-.1947,1.2556 .1816,3.9124 .4814,5.5586 .2377,1.559-.8781,1.6378-1.4754,1.0871z"/>
<path d="m246.56,133.73c-.3393,.3836 .792,1.1338 1.0166,.9391 .436-.3775 2.1288-2.3073 1.8027-2.9818-.2903-.6015-2.6186-1.9187-2.9973-1.2666-.7024,1.1287 2.1945,1.6344 1.7406,1.9653-.2234,.1282-1.0202,.6786-1.5626,1.344z"/>
<path d="m250.73,125.27s.7275,2.4891 1.3201,1.4521c.4791-.7187-1.3201-1.4521-1.3201-1.4521z"/>
<path d="m251.92,129.23c-.2664,.1456-1.0166,.74-.528,1.0561 .7729,.4572 2.8755,.8192 2.4215-.6761-.276-.8807 3.1706,.0245 2.3307-2.36-.2198-.6599-1.2591-1.6123-1.7704-1.7468-.3249-.0855-1.4288,.5199-.7383,.8534 .5041,.261 2.0249,1.1546 1.4598,1.7399-.6415,.6122-1.0883-.2748-1.8863-.1319-.4014,.0763-.1398,1.2186-.3656,1.5294-.1266,.1733-.706-.3824-.9235-.264z"/>
<path d="m257.4,119.77c-.4348,.2173-1.2138,1.3963-1.2424,1.9414-.0155,.2909 .3034,.6907 .5519,.5666 .4563-.2279 1.1612-1.3438 1.1875-1.856 .0167-.3239-.227-.7868-.497-.652z"/>
<path d="m260.24,119.46c-.8398-1.0267 .8912-2.5509 1.6701-.496 .4707,1.2891 5.4881,7.8921 6.5143,10.132 .7263,1.516-.0263,2.1423-.9246,1.056-2.541-3.242-4.6256-7.2831-7.2598-10.692z"/>
<path d="m265.39,119.6c.8948-.9693 2.7214-2.9492 2.2292-4.0533-.3775-.9496-1.4873-.8552-1.6773-.6361-1.0859,1.2962 .7717,.9709 .5041,1.4135-.5531,1.0384-1.1038,1.61-1.3894,2.608-.0669,.234 .172,.8426 .3333,.6679z"/>
<path d="m343.17,122.84c-.6427-.5206 .632-3.044 1.4945-2.0534 2.3678,2.74 3.468,11.636 4.1525,18.294 0,0-1.0644,.8876-1.0728,.7466 0-3.5468-1.4252-14.397-4.5742-16.987z"/>
<path d="m290.07,114.18c-.7658-1.7604 1.1492-2.412 1.436-1.1572 1.3308,5.7827 4.5169,10.161 6.942,14.093 .7299,1.2293 .1445,1.9618-1.6307,.8306-1.2293-.8428-2.4777-3.9162-3.0821-4.0374-1.0943-.2037-3.7129,4.9927-9.0696,3.5094-1.3858-.3872-1.2938-4.5079-1.3201-6.328-.0585-.8533 .884-1.0787 .9163,.0853 .049,1.6781-.002,5.164 2.1444,5.2813 1.7501,.0978 5.6267-2.3765 6.4438-4.3107 .7275-1.9887-1.952-5.9413-2.7799-7.9667z"/>
<path d="m344.61,138.38c.4277-1.191 6.1141-10.735 6.8607-12.835 .3823-1.0126 2.0141,1.7366 .4205,3.2201-1.4001,1.26-5.5311,8.0342-6.3017,10.408-.3548,1.0716-1.4312,.5615-.9796-.7932z"/>
<path d="m354.28,129.28c1.0501-3.9348 3.5934,.607 1.3535,2.8469-3.4584,3.3874-4.5002,9.8539-9.9871,10.827-1.479,.3178-4.082-.6654-4.8538-1.2137-.301-.2138 .1947-1.6187 1.1194-.933 1.3368,1.0441 4.0976,1.2794 5.555,.0932 3.118-3.0606 5.6566-7.1136 6.813-11.621z"/>
<path d="m297.27,142.02c-.2473,.2843-1.0035,.2377-1.0716,.6367-.2975,1.4801 0,2.2304-.3261,3.6556-.3118,1.3643-1.2591,1.4156-1.1946,.3034 .086-1.4419 1.2747-3.4776 .4348-3.6173-.5591-.1314-.9903-.8793-.4121-1.2484 1.0919-.7574 1.6784-.6415 2.4287-.4133 .2616,.08 .3285,.4647 .141,.6833z"/>
<path d="m296.5,140.09c-1.4479,1.2663-2.7906,1.7836-4.1227,3.3844-.5448,.6558-.5292,1.5697-.8542,2.406-.3261,.8876-1.375,1.062-1.7,.8768-.5436-.3572-.4647-2.0034-1.0716-1.117-.5149,.8159-.847,1.9401-1.608,1.9257-.6881-.0143-1.9867-1.4216-1.3284-1.4897 2.2519-.2306 2.2244-2.0332 3.0678-2.1515 .9461-.1266 1.0083,1.4885 1.5924,1.1648 .4587-.2353 .675-2.1169 1.1731-2.6246 1.5267-1.5602 2.7345-2.3845 4.2923-3.5313 .7885-.6284 1.3511,.5053 .5591,1.1564z"/>
<path d="m301.78,144.94c-1.1588,.2341-.9617,1.7238-.6212,1.909 .5615,.2616 1.43,.3715 1.7549-1.3416 .1517-.7036 .2891,3.4979 1.8314,1.8792 .8876-.9808 3.0869,.178 4.008-1.056 .6594-.8219 .8625-1.3953 .3488-2.6091-.1493-.3691-1.0525-.1876-1.0011,.7084 .0454,.755-.5352,1.6868-1.2902,1.5279-.3668-.0669 .2067-1.8469-.1613-2.3295-.2031-.2652-.5113-.2365-.7132,.0382-.2831,.3847 .2843,2.0906-.6463,2.3152-1.1743,.2712-.5591-1.1409-1.056-1.3989-1.5984-.8064-1.7525,.2091-2.4538,.3572z"/>
<path d="m310.83,142.08c.8494-.2389 .5842-.2401 1.921-1.3344 .5209-.3942 .6236,.7598 .5686,1.2161-.0968,.7753-1.0178,.2282-1.3033,.9103-.4181,.8864-.2485,2.9483-.3883,3.7882-.0956,.4313-.7873,.3942-.853,.0538-.1983-1.0238 .1398-2.0261 .1075-3.3067-.0108-.4348-.6332-1.117-.0526-1.3272z"/>
<path d="m305.83,139.46c-.2055,.9265-.19,1.6899-.19,2.3255 .0466,.5137 .9856,.1828 .982,.1171-.0466-.8135 .1386-1.9389-.1015-2.2526-.1302-.1693-.6427-.3648-.6905-.19z"/>
<path d="m299.54,130.19-1.4584,5.5938-2.029-3.75v3.8438l-4.375-5.1875 1.5218,5.5625-3.9312-3.3438 2.0924,3.7812-6.9747-4.5 4.4385,5.1875-5.5798-2.75 3.9946,3.375-9.1305-3.4375 8.8135,4.3438c3.2225-1.5882 7.6406-2.5625 12.554-2.5625 4.8962,0 9.3348,.9844 12.554,2.5625 .0116,.006 .0518-.006 .0634,0l8.7501-4.3438-9.0037,3.4688 3.9312-3.4062-5.5164,2.7188 4.375-5.1562-6.9747,4.5 2.0924-3.7812-3.9312,3.3438 1.5218-5.5625-4.375,5.2188 .0634-3.875-2.029,3.75-1.4584-5.5938z"/>
</g>
</g>
<path d="m291.82,251.63c-0,.5929-.0892,1.4489-.2675,2.5679h-.4146c-0-.7623-.0357-1.3486-.107-1.7588-.0669-.4101-.2006-.8983-.4012-1.4645-.1649-.477-.3455-.8827-.5417-1.2171-.1962-.3388-.5105-.7891-.9429-1.3508l.8292-2.0463c.3834,.4904 .6553,.8671 .8159,1.1301 .1828,.3032 .3544,.6843 .5149,1.1435 .1649,.4592 .292,.9407 .3812,1.4444 .0892,.5038 .1337,1.0209 .1338,1.5514"/>
<path d="m298.32,247.67c-0,.6241-.1182,1.0923-.3544,1.4043-.2363,.3121-.6397,.535-1.2104,.6687 .1649,.5796 .2742,1.0321 .3277,1.3575 .0579,.3255 .0869,.6888 .0869,1.09 0,.2586-.0156,.535-.0468,.8292-.0268,.2942-.078,.691-.1538,1.1903h-.3745c-0-.4458-.0245-.8292-.0736-1.1502-.0446-.3254-.1137-.6308-.2073-.9161-.0223-.0713-.1404-.3856-.3544-.9429-.2095-.5617-.4191-1.0276-.6286-1.3976-.2051-.3745-.5417-.8894-1.0098-1.5448l.642-1.9259c.3388,.486 .6353,.8225 .8894,1.0098 .2541,.1828 .555,.2742 .9028,.2742 .7579,0 1.1368-.4101 1.1368-1.2304h.3879c0,.2675 .007,.4904 .0201,.6687 .0134,.1739 .0201,.379 .0201,.6152"/>
<path d="m304.29,252.19-.4815,2.0062c-.3032-.0847-.5506-.3232-.7423-.7155-.1605-.3254-.2764-.7378-.3477-1.2372-.0669-.4993-.1003-1.0165-.1003-1.5514-.4057,.107-.7267,.1605-.963,.1605-.4681,0-.856-.1226-1.1636-.3678-.3032-.2497-.4547-.564-.4547-.9429 0-.8158 .2095-1.5492 .6286-2.2001 .4235-.6553 .9005-.983 1.4311-.983 .4101,0 .6955,.1159 .856,.3477 .1783,.2541 .2876,.5439 .3277,.8693 .0401,.3254 .0602,.954 .0602,1.8858-0,.8337 .0669,1.4222 .2006,1.7654 .107,.2675 .3567,.5885 .749,.963m-1.8056-3.3303c-.0803-.5082-.3477-.7623-.8025-.7623-.1962,0-.3767,.0535-.5417,.1605s-.2474,.2006-.2474,.2809c0,.2675 .321,.4012 .963,.4012 .2051,0 .4146-.0267 .6286-.0802"/>
<path d="m310.61,251.69-.2407,2.4342c-.477-.3344-.9184-.9384-1.3241-1.8122-.4235-.9139-.8515-2.209-1.284-3.8853-.37,1.6139-.6754,2.7975-.9162,3.5509-.2363,.749-.4703,1.2795-.7022,1.5916-.156,.2095-.4057,.4213-.749,.6353l.0535-2.3272c.4414-.6019 .7512-1.061 .9295-1.3776 .263-.4681 .4792-1.0142 .6487-1.6384 .1739-.6286 .3299-1.469 .4681-2.5211h.4414c.2719,1.0566 .535,1.897 .7891,2.5211 .2363,.5885 .5127,1.1079 .8292,1.5581 .2229,.3165 .5751,.7401 1.0566,1.2706"/>
</g>
<path fill="#bf0000" d="m328.98,274.65c.325,.381 .5533,.7547 .685,1.1212 .128,.3622 .2205,.8798 .2774,1.5528l-.7252,.0591c-.309-.6048-.6096-1.0784-.9017-1.4208-.2228-.2611-.5825-.6324-1.0794-1.1138-.4968-.4814-1.0047-.9505-1.5236-1.4072-.5225-.461-1.188-.9937-1.9966-1.598-.2836-.2113-.4638-.3619-.5405-.4518-.1132-.1327-.2026-.3942-.2683-.7844-.0693-.3945-.1128-.8849-.1304-1.4714l2.5326,2.0598c.9553,.7865 1.746,1.4811 2.3722,2.0839 .4822,.4643 .915,.9212 1.2984,1.3706m-8.9817-5.4124-.1517,1.8623-2.9822-.0806 .224-1.9006 2.9099,.1188m7.8445,8.3364-7.1052,2.1647-1.3076-1.8069 6.1428-1.8715c-.2788-.3853-.4946-.6547-.6473-.8081-.2373-.2358-.5085-.4207-.8138-.5547-.0197,.3411-.161,.6409-.4238,.8993-.2628,.2584-.6024,.4511-1.0187,.5779-.546,.1664-1.0917,.1894-1.6369,.069-.5452-.1203-.9461-.3577-1.2024-.712-.3782-.5226-.5811-1.2174-.6089-2.0846-.0312-.9526 .2295-1.5131 .7824-1.6815 .7167-.2183 1.6856-.019 2.9069,.5981 1.2212,.6171 2.1588,1.3773 2.8126,2.2808l2.12,2.9295m-5.457-3.7938c-.3349-.152-.6029-.246-.8039-.2821-.1974-.0425-.378-.0389-.5418,.011-.2048,.0624-.3458,.1783-.4231,.3478-.0773,.1695-.0582,.3339 .0571,.4934 .0737,.1019 .1976,.1695 .3718,.2029 .1778,.0269 .3656,.0102 .5635-.0501 .157-.0478 .2931-.1244 .4085-.2298 .1189-.1119 .2416-.2763 .3679-.4931m-7.612-1.4544-.4351,1.8434-2.9552-.2717 .4489-1.8622 2.9415,.2904m7.0047,7.1968-1.5782,.3621c-.5616,.1288-1.0959,.1684-1.6029,.1186-.507-.0497-.9812-.2082-1.4227-.4754-.261,.475-.7197,.8735-1.3761,1.1953-.4352,.214-.9408,.3871-1.5166,.5192l-1.1197,.2569-1.0255-1.882 1.1197-.2569c.5901-.1354 .9923-.2484 1.2068-.3391 .2191-.097 .4935-.2611 .8234-.4925-.3616-.2232-.6532-.3768-.875-.4609-.2699-.099-.5079-.1248-.714-.0775-.0782,.0179-.1428,.0535-.1938,.1067-.0464,.047-.0858,.1287-.1184,.2451l-.4918,.0661c-.4549-.8349-.5588-1.4805-.3116-1.9368 .2518-.4625 .8576-.8039 1.8173-1.0241 .9882-.2267 1.8322-.2776 2.532-.1528 .7045,.1186 1.1761,.397 1.4148,.8352 .1282,.2353 .1767,.4784 .1456,.7294-.0337,.2464-.1561,.6015-.3674,1.0651 .1473,.0648 .32,.103 .5183,.1146 .1983,.0116 .3756-.0005 .532-.0364l1.5782-.3621 1.0255,1.882m-7.5437,1.7549-1.5392,.2414c-.8575,.1345-1.5619,.003-2.1131-.3934-.6129-.4374-1.1417-1.253-1.5864-2.4466l-.7574-2.033c-.1719-.4613-.4046-.8048-.6981-1.0306-.1413-.1087-.4277-.2525-.8589-.4315l.523-1.9696c.5668,.3138 1.0036,.6429 1.3104,.9874 .3591,.4017 .6636,.9379 .9134,1.6084l.5235,1.4053c.3703,.9939 .7298,1.6674 1.0785,2.0204 .2764,.2838 .5905,.3981 .9423,.343l1.5391-.2414 .7228,1.9403m-6.5774-7.0651-.9939,1.7499-2.812-.6493 1.002-1.7654 2.804,.6649m1.6358,7.9213-7.0124,.6352-.4254-1.977 5.8922-.5337c-.1531-.322-.3624-.5871-.6279-.7953-.1391-.1158-.4474-.3102-.9249-.5831l.524-1.811c.6487,.3611 1.1224,.7579 1.421,1.1903 .3061,.4317 .5545,1.0909 .7453,1.9776l.4082,1.897m-5.6298,.8976c-.8434-.028-1.5407-.0904-2.0917-.1871-.5511-.0967-1.091-.2396-1.6196-.4286-.4526,.1858-.8546,.3047-1.206,.3567-.3439,.0523-.8585,.067-1.5437,.0442l-1.8412-.0612c-.5045-.0168-.8969-.1155-1.1771-.2963-.2802-.1808-.5214-.4729-.7235-.8765-.4466,.3967-.9329,.6744-1.4588,.8333-.4487,.1369-.9781,.1953-1.588,.175l-1.6153-.0537 .1575-1.9935 1.6153,.0537c.7907,.0263 1.461-.0959 2.0109-.3667 .715-.3535 1.1028-.9137 1.1634-1.6809l.7397,.0981c-.0274,.1559-.0566,.3337-.0874,.5335-.0309,.1998-.056,.4219-.0753,.6662-.0197,.2492 .0957,.4612 .3461,.6361 .2504,.1749 .5451,.268 .884,.2792l1.3894,.0462c.9187,.0306 1.5804-.0307 1.9851-.1838 .4902-.1846 .757-.5505 .8002-1.0977 .009-.1173 .074-.2204 .1943-.3095 .072-.0515 .2177-.1275 .437-.228l.4466-.2056c.008,.0933 .009,.2208 .004,.3822-.005,.1566-.009,.2593-.013,.3082-.0212,.2687-.1097,.6234-.2652,1.0641 .2717,.0972 .5782,.1833 .9196,.2584 .3414,.075 .7027,.1361 1.0841,.183 .0131-.1661-.064-.3843-.2314-.6544-.1674-.2701-.2475-.4516-.2401-.5444 .01-.127 .0441-.2239 .1022-.2905 .017-.0239 .1058-.0969 .2664-.219l1.0267-.8109c.179,.3146 .2999,.6003 .3627,.8571 .0707,.2522 .0911,.5664 .0614,.9426l-.2188,2.7704m-10.645-8.1911-1.7712,1.2539-1.3356-.8244-1.3149,.9805-1.7572-1.06 1.6777-1.1935 1.4181,.7925 1.3698-1.0018 1.7134,1.0528m-2.785,7.6352-6.8649-1.1248 .7533-1.9354 5.7682,.9452c.0451-.3358 .005-.6325-.1202-.8902-.0617-.1413-.2345-.3967-.5184-.7662l1.5364-1.5497c.3914,.4931 .5999,.9763 .6256,1.4498 .033,.4747-.1194,1.1461-.4573,2.0142l-.7228,1.8571m-5.7788-.896-1.4847-.3572c-.8272-.199-1.2988-.5629-1.4148-1.0918-.1322-.5849 .1307-1.4531 .7887-2.6045l1.1207-1.9611c.2543-.445 .3567-.8143 .3074-1.1079-.0238-.1414-.1375-.3644-.3414-.6692l2.1284-1.4447c.2003,.4656 .2796,.8969 .2377,1.2939-.0477,.4634-.2563,1.0185-.6259,1.6653l-.7746,1.3556c-.5479,.9588-.829,1.6478-.8434,2.067-.0149,.3356 .1474,.5442 .4868,.6259l1.4847,.3572-1.0696,1.8716m-3.5159-7.43-2.4095,1.0168-1.6552-1.6116 2.4303-1.0261 1.6344,1.6209m-1.0246,6.2246c-.501,.5917-.9933,1.0359-1.4767,1.3325-.4798,.2923-1.0171,.4748-1.612,.5474-.5883,.075-1.3338,.0409-2.2364-.1022-.8997-.1365-1.7658-.3531-2.5985-.6499-1.6059-.5725-2.6835-1.205-3.2327-1.8976-.5462-.6859-.5235-1.3784 .0683-2.0774 .5047-.596 1.1045-1.0912 1.7996-1.4853 .7651-.4362 1.9589-.9317 3.5815-1.4866l.366,.4822c-1.2678,.4915-2.1422,.8636-2.623,1.1165-.4742,.2552-.8583,.5565-1.1524,.9038-.3812,.4502-.3234,.9509 .1735,1.5021 .5072,.5492 1.3654,1.0394 2.5748,1.4705 1.1896,.424 2.316,.633 3.3794,.6269 1.0634-.006 1.7766-.2236 2.1397-.6524 .2251-.2659 .3757-.5555 .4518-.8689 .0827-.311 .1327-.8375 .1499-1.5794l2.3428-1.4257c.001,.7095-.032,1.186-.1005,1.4295-.1176,.4437-.4197,.9529-.9062,1.5275l-1.0892,1.2864"/>
</svg>
