<svg xmlns="http://www.w3.org/2000/svg" viewBox="0 0 450 300" xmlns:xlink="http://www.w3.org/1999/xlink">
<path fill="#ce1126" d="m125,552.362h187.5v125h-187.5z" transform="matrix(2.4 0 0 2.4 -300 -1325.669)"/>
<path d="m125,614.862h187.5v62.5h-187.5z" transform="matrix(2.4 0 0 2.4 -300 -1325.669)"/>
<g fill="#f9d616" fill-rule="evenodd">
<path d="m208.0519,600.1355h8.1734l2.5248-7.7733 2.5248,7.7733h8.1734l-6.6114,4.8035 2.5248,7.7733-6.6114-4.8035-6.6114,4.8035 2.5248-7.7733-6.6114-4.8035z" transform="matrix(2.4 0 0 2.4 -300 -1325.669)"/>
<path d="m251.0935,611.6766c.2087,2.1186 .2087,4.2525 0,6.3711l-6.2199-.6126c.1685-1.7112 .1685-3.4347 0-5.1459l6.2199-.6126m-1.2429,12.6198c-.618,2.0372-1.4346,4.0087-2.4381,5.8861l-5.512-2.9462c.8105-1.5164 1.4701-3.1088 1.9693-4.7542l5.9809,1.8143m-5.9777,11.1835c-1.3505,1.6456-2.8594,3.1545-4.5051,4.5051l-3.965-4.8313c1.3291-1.0908 2.5479-2.3096 3.6387-3.6387l4.8313,3.965m-9.8024,8.0447c-1.8775,1.0035-3.849,1.8202-5.8861,2.4381l-1.8143-5.9809c1.6454-.4991 3.2378-1.1587 4.7542-1.9693l2.9462,5.512m-12.1348,3.6811c-2.1186,.2087-4.2525,.2087-6.3711,0l.6126-6.2199c1.7112,.1685 3.4347,.1685 5.1459,0l.6126,6.2199m-12.6198-1.2429c-2.0372-.618-4.0087-1.4346-5.8861-2.4381l2.9462-5.512c1.5164,.8105 3.1088,1.4701 4.7542,1.9693l-1.8143,5.9809m18.8685-62.2011c2.0372,.618 4.0087,1.4346 5.8861,2.4381l-2.9462,5.512c-1.5164-.8105-3.1088-1.4701-4.7542-1.9692l1.8143-5.9809m11.1835,5.9777c1.6456,1.3505 3.1545,2.8595 4.5051,4.5051l-4.8313,3.965c-1.0908-1.3292-2.3096-2.5479-3.6387-3.6387l3.965-4.8313m8.0447,9.8025c1.0035,1.8775 1.8202,3.849 2.4381,5.8861l-5.9809,1.8143c-.4991-1.6454-1.1587-3.2378-1.9693-4.7542l5.512-2.9462z" transform="matrix(2.4 0 0 2.4 -300 -1325.669)"/>
</g>
<g transform="matrix(2.4 0 0 2.4 -299.3956 -1325.062)">
<path fill="#f9d616" fill-rule="evenodd" d="m241.6593,645.8034l3.0384-3.5632c1.5993,1.5476 3.7527,3.0732 5.3146,4.4594 1.5619,1.3861 2.7586,2.5385 3.7272,4.1132 1.4196,2.3079-.1745,4.9216-2.3851,3.3874-1.1954-.8297-1.9466-3.0694-3.7779-4.9228-1.3564-1.1547-2.4251-2.3652-5.8343-2.9493-.1637-.028-.2116-.3739-.0829-.5248z"/>
<path d="m246.4545,644.7772a.5741,.5741 0 1,1 -1.1482,0 .5741,.5741 0 1,1 1.1482,0z" transform="matrix(.73077 0 0 .73077 66.06607 173.5497)"/>
<path d="m246.4545,644.7772a.5741,.5741 0 1,1 -1.1482,0 .5741,.5741 0 1,1 1.1482,0z" transform="matrix(.73077 0 0 .73077 69.15756 176.2437)"/>
<path d="m246.4545,644.7772a.5741,.5741 0 1,1 -1.1482,0 .5741,.5741 0 1,1 1.1482,0z" transform="matrix(.73077 0 0 .73077 71.87362 179.004)"/>
</g>
<path fill="#f9d616" d="m221.875,585.1875l-.5938,5.5625c12.2492,1.2847 21.8438,11.5374 21.8438,24.125 0,13.455-10.92,24.375-24.375,24.375-5.8664-0-11.1673-2.1682-15.375-5.625l-3.5625,4.3438c5.1776,4.251 11.7206,6.9063 18.9375,6.9062 16.56,0 30-13.44 30-30 0-15.4879-11.8054-28.1003-26.875-29.6875z" transform="matrix(2.4 0 0 2.4 -300 -1325.669)"/>
<g fill-rule="evenodd">
<path d="m221.4002,634.7975l8.4364,4.9885 1.834,7.1159 9.6835-.7336 4.2549-4.9885-15.7724-10.9306-8.4364,4.5483z" transform="matrix(2.4 0 0 2.4 -300 -1325.669)"/>
<path fill="#f9d616" d="m241.5264,645.566c-10.848-7.2142-17.7462-11.1097-28.1425-17.0208-4.084-2.3221-10.4262-8.1591-5.4234-17.9251 .3149,6.4114 25.6536,24.0097 36.3605,31.6615l-2.7946,3.2844z" transform="matrix(2.4 0 0 2.4 -300 -1325.669)"/>
<path fill="none" stroke="#000" fill-opacity=".75" stroke-linecap="round" stroke-width=".625" d="m215.0357,622.1619c8.3524,7.8712 18.8708,14.2924 28.255,21.3898" transform="matrix(2.4 0 0 2.4 -300 -1325.669)"/>
</g>
</svg>
