<svg width="1200" xmlns="http://www.w3.org/2000/svg" height="600" viewBox="0 -300 1200 600">
<path fill="#0092c7" d="m0-300h1200v600h-1200z"/>
<path fill="#ea0437" d="m0-100h1200v200h-1200z"/>
<path fill="#00ae68" d="m0,100h1200v200h-1200z"/>
<circle fill="#fff" cx="560" cy="0" r="84"/>
<circle fill="#ea0437" cx="582" cy="0" r="70"/>
<path fill="#fff" d="m70.256-339.9729l-21.7701-9.8522-8.3813,22.3777-8.4272-22.3604-21.7499,9.8969 9.8522-21.7702-22.3777-8.3813 22.3604-8.4272-9.8969-21.7499 21.7701,9.8522 8.3813-22.3777 8.4272,22.3604 21.7499-9.8969-9.8522,21.7702 22.3777,8.3813-22.3604,8.4272 9.8969,21.7499z" transform="matrix(1.05488 .00184 -.00184 1.05488 602.05929 390.34455)"/>
</svg>
