<svg xmlns="http://www.w3.org/2000/svg" viewBox="0 0 900 600">
<defs/>
<g transform="matrix(4.16667 0 0 4.16667 -5.45921 -5.45892)">
<path fill="#efb22d" d="m217.31,145.31v-143.9998l-215.9998-0-0,143.9998h215.9998z"/>
</g>
<g transform="matrix(4.16667 0 0 4.16667 -5.45921 -5.45892)">
<path fill="#e23d28" d="m1.3102,145.31h215.9998v-143.9998l-215.9998,143.9998z"/>
</g>
<g fill="#fff" stroke="#000" stroke-width=".125" transform="matrix(4.16667 0 0 4.16667 -5.45921 -5.45892)">
<path d="m116.928,46.3316c-1.197-.425-1.97,.1932-1.931,1.7386 .038,1.5454 .85,2.434 2.047,1.8545l-.116-3.5931z"/>
<path d="m117.98,43.4377c-.997-.7872-1.927-.4497-2.387,1.0262-.46,1.4758 .023,2.578 1.343,2.4138l1.044-3.44z"/>
<path d="m119.639,40.6362c-.859-.9371-1.831-.7532-2.522,.6299-.69,1.3832-.39,2.5484 .94,2.5981l1.582-3.228z"/>
<path d="m118.551,54.2517c-1.468,.5409-1.623,2.55-.695,3.7863 .927,1.2363 2.627,1.4681 3.554,0l-2.859-3.7863z"/>
<path d="m116.851,50.0019c-1.391-.4636-2.644,1.4046-2.859,3.0908-.27,2.1249-3.284,2.8203-1.622,6.027 .347-2.0476 1.7-3.168 2.781-3.2453 1.082-.0773 2.705-.3091 3.4-1.6227l-1.7-4.2498z"/>
<path d="m121.256,58.2698c-1.623,.3863-1.855,2.5499-.696,4.0953 .992,1.3231 4.095,1.0045 4.018-.3091l-3.322-3.7862z"/>
<path d="m125.853,71.2897c.077-1.3908-2.163-1.9317-3.245-1.6613-1.082,.2705-3.149-.0386-3.632-1.1977-.386,.9273 .174,1.9318 1.739,2.434 1.184,.3803 1.159,1.2363 .811,1.6227 .889,.1545 3.516,.1545 4.327-1.1977z"/>
<path d="m124.578,62.4037c-1.584-.6954-2.523,.3638-3.129,1.3908-.889,1.5068-3.632-.4249-4.559,1.5841 1.256-.5409 2.534,.6126 3.129,1.0045 1.7,1.1204 4.984,.7727 5.448-1.8545l-.889-2.1249z"/>
<path d="m125.505,64.2582c-1.584,1.1976-2.202,2.6271-2.163,3.593 .039,.9659 1.391,3.0908 2.859,3.2067 .85-1.7386 1.275-5.4089-.696-6.7997z"/>
<path d="m118.938,71.7147c0-.5795 .85-.8113 1.429-.6182 .58,.1932 1.468,.7727 1.159,1.3909l-2.588-.7727z"/>
<path d="m110.206,68.5466c-.154-.6954 .966-1.8931 2.473-1.2363 1.506,.6568 1.7,1.9318 1.081,2.434l-3.554-1.1977z"/>
<path d="m113.876,69.8216c-.116-.3864 .969-1.1581 2.821-.6955 1.854,.4637 2.309,1.6576 2.241,2.5886l-5.062-1.8931z"/>
<path d="m110.013,68.5466c.966-.734 .6-2.1252-.271-2.5499-1.584-.7727-1.004-2.7817-2.009-3.168-1.004-.3864-1.97-1.0818-2.009-1.7772-.502,.9658-.193,1.8545 .503,2.4726 .695,.6182-.541,3.1294 .347,3.7862l3.439,1.2363z"/>
<path d="m89.3046,68.0057c-.8113-1.2749-2.7431-1.0431-3.5544-.1545-.8113,.8886-.6954,2.2022 .0773,2.7817l3.4771-2.6272z"/>
<path d="m93.9408,66.1126c-.3091-1.6999-2.3568-1.8931-3.4772-1.4681-1.1204,.425-1.8931,2.1249-1.159,3.3612l4.6362-1.8931z"/>
<path d="m97.0316,65.8808c.734-1.4295-.6954-3.5544-2.3181-3.8635-1.3547-.2577-2.9556-.2511-3.4772-1.584-.3284,1.1591 .541,1.8931 1.5455,2.5499 1.0044,.6568-.1933,2.3568 1.4294,3.3226l2.8204-.425z"/>
<path d="m96.877,65.93c-.3381-1.024 .3477-2.3864 1.7358-2.2909 1.3882,.0955 2.1792,1.1043 1.5672,2.3654l-3.303-.0745z"/>
<path d="m99.9678,66.0072c-.191-1.0613 .6792-2.3137 2.0402-2.0244 1.361,.2893 2.002,1.3992 1.22,2.5619l-3.2602-.5375z"/>
<path d="m103.036,66.495c-.138-1.0698 .794-2.277 2.139-1.9203 1.345,.3569 1.93,1.4977 1.09,2.6197l-3.229-.6994z"/>
<path d="m79.7232,84.1937c-2.5886,0-3.2209,.6163-3.5931,3.284-.4636,3.3226 4.0567,3.7089 3.5931-3.284z"/>
<path d="m80.8822,80.7166c-3.9794-1.5068-6.1429,4.7907-10.0836,3.6703 1.4101,2.2408 4.8284,.004 6.1042,.2318 2.1636,.3864 6.8384-.425 3.9794-3.9021z"/>
<path d="m78.2937,89.3321c-1.9704-.8885-4.0953,2.125-3.709,3.4385 .4905,1.6685 4.9839,.3091 3.709-3.4385z"/>
<path d="m69.0986,102.314c1.0818,.308 2.3953,.927 2.1635,3.013-.2318,2.086-4.1725,6.336-7.7269,6.568-3.5544,.232-4.8294,4.52-7.8815,3.322 2.8589-.54 2.8589-3.786 5.0998-4.79-1.6227-.58-2.4726,3.091-4.5589,3.091-2.0863,0-3.0908,3.322-5.6407,3.09-2.5499-.231-2.8183,4.045-7.9201,4.096-3.9022,.038-8.7315,4.597-10.4701,2.627 3.7863-.541 5.314-2.639 7.5724-4.946 3.6317-3.708 7.727-2.047 9.1179-5.331-1.6614,1.12-3.5931,1.661-5.4862,1.623-2.3764-.049-4.9839,3.786-7.6497,2.086 1.5454-.193 2.55-.85 4.1726-2.55 1.6617-1.741 4.0999-.616 6.027-2.395 3.0135-2.782 5.6021-.464 8.4997-3.941-.8114-.386-2.5499-.116-4.1726,.734-1.6227,.85-3.7089-.58-5.5634,.425 .2318-2.279 4.5589-.975 7.2633-2.55 3.0522-1.777 5.5828-1.256 7.9974-1.043-3.3612-.019-4.6748-3.207-9.3109-2.28-2.022,.405-3.6317-2.781-5.6407-1.159 .0579-1.197 2.1636-2.1632 4.3271-1.004 2.1635,1.159 3.0354-1.0142 7.3406,1.7 1.7772,1.12 4.8293-.696 6.7611,.502-.2511-.734-1.3523-1.198-2.6465-1.101 .8114-1.661 6.0464-1.449 8.3258,.213z"/>
<path d="m72.5371,99.8022c-1.6999-1.3136-4.0566,.2708-5.6793-.3477 0,1.0815 .5409,2.7045 2.3181,3.3225 .5409-.386 2.9748-2.511 3.3612-2.9748z"/>
<path d="m75.2029,96.0546c-2.6658-1.3522-3.1294,2.009-5.2157,1.3136 .0773,.9659 .85,2.1636 2.5499,2.434l2.6658-3.7476z"/>
<path d="m76.7869,93.0025c-3.9407-1.5454-4.443,2.2408-6.7611,1.5067 .5409,1.3136 3.8635,2.009 5.5634,1.5454l1.1977-3.0521z"/>
<path d="m82.1958,76.4281c-1.0432-1.4681-3.2453-.2704-3.593,1.4681-.3477,1.7386 .5022,4.1726 1.9704,3.6317l1.6226-5.0998z"/>
<path d="m84.8616,71.7919c-1.8158-.4249-3.9021-.2318-3.6703,1.5454-.6955,.3091-.8886,2.5886 1.0045,3.0908l2.6658-4.6362z"/>
<path d="m86.0593,70.5943c-1.7772-2.0863-3.7592-2.0378-4.868-1.1591-2.0477,1.6227-4.0374,.6955-4.0953,2.3181 1.2364-.9465 2.3181,.1932 3.3226-.1545 1.0045-.3477 1.7386,1.584 4.5203,.7727l1.1204-1.7772z"/>
<path d="m81.7708,101.773c.2705,.502 1.9317,.734 2.7431-.116 1.0753-1.127-.1159-4.2502-1.8159-4.482-1.6999-.2318-1.8544,3.516-.9272,4.598z"/>
<path d="m79.8391,101.85c2.4339,.888 3.4771-1.121 2.1635-2.3955-.3477,.425-1.6227,1.9705-2.1635,2.3955z"/>
<path d="m70.7213,105.172c-.4637,1.391-2.859,1.623-5.5634,5.95-2.7045,4.327-5.293,2.511-5.9498,5.486 3.2453-2.627 5.794-.882 7.7269-3.477 2.9363-3.941 5.3542-3.375 6.4907-6.027 1.6226-3.786 8.7315-3.709 9.1178-9.6585-2.3954-.4637-9.9678,5.9495-11.8222,7.7265z"/>
</g>
<g transform="matrix(4.16667 0 0 4.16667 -5.45921 -5.45892)">
<path fill="#fff" stroke="#000" stroke-width=".125" d="m131.687,46.7566c3.091,1.0045 3.168,5.0225 6.722,6.3361 3.555,1.3136 3.903,4.4816 6.8,3.709-2.704-.7341-2.511-3.8635-5.331-4.6362-3.308-.9062-4.559-5.9498-7.187-6.7225"/>
</g>
<g fill="#fff" stroke="#000" stroke-width=".125" transform="matrix(4.16667 0 0 4.16667 -5.45921 -5.45892)">
<path d="m145.866,67.7353c.541,1.2363 .464,3.4385-1.468,4.018 1.043,.6568 2.588,.0386 3.438-1.3908-1.275,2.8203-.425,5.3702 1.584,5.8725-.966-1.9704 1.198-2.8977 .503-4.1726 1.275,.5409 2.395,2.2795 2.356,3.3612 1.662-1.8545-1.236-4.3271-.695-6.0656l-5.718-1.6227z"/>
<path d="m125.853,87.5936c-1.893-1.6613-2.701,.4343-3.632-.2898-.869-.6761-2.028-.7727-2.472-.0966 1.623,.058 .83,1.3136 3.979,1.6227-3.149,.2125-2.569,3.7283-4.675,3.5544 2.241,2.1249 3.4-1.8931 5.216-1.2363-.541,.1545 .85,1.4295-.116,3.1294 1.565-.0386 2.202-2.2022 2.396-3.3226l-.696-3.3612z"/>
<path d="m84.1662,105.636c-.6955-.579-2.7045-.85-3.4772-.386-.7726,.463-.5022,.579 .425,.657 .9273,.077 2.1246,1.577 .1159,1.661-.9272,.038-.6181,2.279-2.5499,2.434 .792,.966 3.0522,.328 3.8635-.734-.1545,.869 1.0045,1.661 .5409,2.704 1.4295,.155 .5988-2.897 2.859-2.743-.9273,.116-.5409,2.202 1.0817,1.661-.9658,.464-.4636,1.584 .6182,1.314-.6954,.232-.9273,1.12 .0386,1.623 .9273-1.275-.1159-5.834-3.5157-8.191z"/>
</g>
<g transform="matrix(4.16667 0 0 4.16667 -5.45921 -5.45892)">
<path fill="#fff" stroke="#000" stroke-width=".125" d="m168.313,63.0064c2.957,0 5.354-2.3975 5.354-5.3548 0-2.9569-2.397-5.3545-5.354-5.3545-2.958,0-5.355,2.3976-5.355,5.3545 0,2.9573 2.397,5.3548 5.355,5.3548z"/>
</g>
<g transform="matrix(4.16667 0 0 4.16667 -5.45921 -5.45892)">
<path fill="#fff" stroke="#000" stroke-width=".125" d="m140.341,69.4739c1.623-1.5454 4.096-2.3181 5.795-1.1591 1.7,1.1591 7.341,2.5499 10.123,.6182 2.781-1.9318 4.095-2.9363 5.331-2.7045 .928,1.3909 2.048,2.0477 3.439,2.1636 .425,.4636 1.932,.85 2.782,.734 1.236,.3091 2.743-.0772 3.94-1.3908 1.855,.2704 3.593-1.1204 4.25-3.2067 1.97-.2318 2.086-2.434 .85-3.9021-1.159-.2318-.27-4.1339-4.482-3.3612 1.778,1.0817 .425,3.2453 1.894,4.2498-1.005,0-2.299,.425-2.608,1.9317 .386-1.0431-.058-1.7385-.329-1.9703 .039-.8886-1.931-3.0715-3.786-2.2795 1.333,.2898 .58,2.434 1.546,3.2453-.696,.0387-1.43,.3864-1.855,1.0045-.502-.8886-2.279-1.8158-3.361-1.8931 0-.3091-.058-.9272-.193-1.2363-.483-.9272-.889-2.0282-.696-3.4385-.927,1.0045-1.7,2.3954-2.163,3.3999-1.468-1.0045-5.1,.4636-6.8,.8499-1.7,.3864-7.418-.5408-8.732-1.9317-1.313-1.3908-3.863-2.2408-6.258-2.9362-3.294-.956-3.323-4.5589-6.955-7.0316-.077,4.4817 6.723,18.6993 8.268,20.2447z"/>
</g>
<g transform="matrix(4.16667 0 0 4.16667 -5.45921 -5.45892)">
<path fill="#fff" stroke="#000" stroke-width=".125" d="m102.479,103.627c2.859,0 5.177-2.318 5.177-5.177 0-2.859-2.318-5.1768-5.177-5.1768-2.8592,0-5.177,2.3178-5.177,5.1768 0,2.859 2.3178,5.177 5.177,5.177z"/>
</g>
<g transform="matrix(4.16667 0 0 4.16667 -5.45921 -5.45892)">
<path fill="#fff" stroke="#000" stroke-width=".125" d="m90.116,99.6477c1.0431,1.3523 2.8203,1.2753 3.5543,1.1593 .6182,1.622 2.5885,1.584 3.4385,2.472 .85,.889 3.7472,.812 4.5972,.309-.772-.077-1.7768-.54-2.7427-1.352-1.1659-.979-.6182-2.9361-1.5454-3.6315 .6954-.7727 .8113-2.0476 .6568-2.5499 .7341-.425 1.2749-1.1204 1.3522-1.4681 1.2751-.0773 2.3951-.7341 2.8591-1.2363 .657,.6181 2.318-.1932 3.207,.8499 .193-2.5499-2.241-3.9021-3.864-3.0521-.657-.3477-2.3953-.1159-2.7043,.3477-.5409-.2318-2.0477,.5409-2.7431,1.0431 .7727-.4249 .8886-1.6999 .5795-2.1635 .6568-.2704 1.3909-1.159 1.4681-1.8158 .9273,.1545 2.3178-.4637 2.9358-.3091-1.004-1.3136-2.6653-1.7772-4.3653-1.6613-1.758,.0967-2.5112,1.333-2.743,2.6658-1.0432,.6181-1.3909,2.7044-1.0045,3.4385-.599-.0192-1.1591,.5603-1.3909,.8886-.8113-.3477-1.9704-.5987-2.8011-.5987"/>
</g>
<g fill="#fff" stroke="#000" stroke-width=".125" transform="matrix(4.16667 0 0 4.16667 -5.45921 -5.45892)">
<path d="m89.2273,90.8775c-.3477-1.0045 .1128-1.9088 .3477-2.7044 .5988-2.0282 .2318-2.5499-1.584-2.2794-.1545,.9658 .7727,4.1339 1.2363,4.9838z"/>
<path d="m87.8943,86.0096c.4636,.4636 2.1057,.6762 2.2795-.7919 .1996-1.6854-.4829-2.3376-1.951-1.6808-.1159,.3864-.2513,1.9704-.3285,2.4727z"/>
<path d="m88.242,83.4791c.6182,.251 1.9512,.7533 2.6852-.6762 .6158-1.1989-.1931-2.1249-1.468-2.0477-.3092,.3477-.9273,1.5841-1.2172,2.7239z"/>
<path d="m89.3819,80.6393c.1545,.4636 1.7386,2.009 2.8976,.8886 1.1591-1.1204 1.1591-2.7817-.5795-3.3998-.4637,.0772-1.8545,1.6999-2.3181,2.5112z"/>
<path d="m91.7,78.1281c.3477,.9658 1.4294,2.6271 3.4384,1.8544 2.0091-.7727 1.1591-3.2839 .2319-3.7862-.5409,.0387-2.7431,1.0432-3.6703,1.9318z"/>
<path d="m95.3703,76.1963c-.1546,.85 0,3.1681 2.743,3.1294 2.7427-.0386 1.9707-3.2453 1.275-3.7089-1.1204,0-3.0135,.0386-4.018,.5795z"/>
<path d="m99.5042,75.7327c-.3091,.6568-1.0055,4.9799 4.3658,3.7862 .695-.1545 2.511-4.1339-4.3658-3.7862z"/>
<path d="m102.44,76.1191c-.54,.5408 .85,4.9066 4.482,4.1725 3.632-.7341 .58-4.868-4.482-4.1725z"/>
<path d="m105.531,76.7758c-.579,1.1977 .291,4.7521 4.772,4.7521 4.061,0-.213-4.6748-4.772-4.7521z"/>
<path d="m109.047,77.819c-.291,.6639-.647,4.4322 4.636,4.7521 3.825,.2318 2.898-5.1771-4.636-4.7521z"/>
<path d="m114.726,79.403c-.656,1.1591-1.352,4.0567 4.443,4.2885 3.713,.1486 1.43-4.2112-4.443-4.2885z"/>
<path d="m119.556,80.2916c-.85,1.1591-.224,3.4326 1.931,3.8635 2.705,.5409 3.091-2.009 1.237-3.2453-1.855-1.2363-3.168-.6182-3.168-.6182z"/>
<path d="m122.183,80.8325c-.618,1.0818-.235,3.7089 3.863,3.7089 .85,0 4.096-3.3226-3.863-3.7089z"/>
</g>
<g transform="matrix(4.16667 0 0 4.16667 -5.45921 -5.45892)">
<path fill="#fff" stroke="#000" stroke-width=".125" d="m90.4652,131.216c3.3192,0 6.0101-2.691 6.0101-6.01 0-3.32-2.6909-6.011-6.0101-6.011-3.3195,0-6.0104,2.691-6.0104,6.011 0,3.319 2.6909,6.01 6.0104,6.01z"/>
</g>
<g transform="matrix(4.16667 0 0 4.16667 -5.45921 -5.45892)">
<path fill="#fff" stroke="#000" stroke-width=".125" d="m134.546,43.8204c-.464,.4636-1.429,1.8544-1.623,2.3953-2.009,6.027 3.354,10.5291 6.491,16.9993 2.473,5.0998 2.164,13.1359-1.7,18.2357-1.322,1.7444-.927,2.2408-2.627,4.018-.652,.6818-1.391,1.5454-1.159,4.018 1.082-.3864 2.627,.6182 2.936,1.4681 .773-.3863 1.855-.2318 2.241,.2318 1.313-.6181 2.395-.3091 3.554,.9273 1.005-.1546 2.087,0 3.091,1.0817 .541-1.0817 1.623-1.4681 2.395-1.2363-.077-1.3908 1.314-2.3953 2.55-1.8544-.386-1.8545 1.314-3.2454 2.937-2.7045 1.39-1.0818 4.172-1.159 5.563,.4636-2.473-.6954-2.395,1.9318-4.482,1.7 .541,1.5454-.85,2.434-2.24,2.9362 .888-.425 1.854-.9272 2.163-.3863 .773-.676 2.318-.425 2.705-.0773 1.023-.3283 2.009-.0773 2.472,1.159 1.391,.85 2.318,3.0135 1.314,4.6362-.309-1.6999-1.468-1.6227-1.932-2.3181-1.082,.3864-2.164,.3864-2.473-.3091-.618,.6182-2.704,1.1591-3.631,.2318-.348,1.3909-1.546,2.55-2.937,2.55 .387,1.0817-.695,2.9366-1.545,3.8636 1.314,.695 .927,2.241 .618,3.168 2.009,.309 .309,2.086 3.786,3.245-1.699,.541-5.022,0-5.486-2.086-1.7-.077-2.859-1.777-2.781-3.555-1.314-1.236-1.507-3.013 .309-4.2493-1.546,.4636-2.396-2.009-4.637-1.0045-1.114,.4998-4.056-.3477-4.017-1.3909-.464,.7727-3.284,.4637-3.671-.8499-.927,.5022-3.091-.3477-3.052-1.6227-1.198,.5409-2.82-.425-2.743-1.6613-1.12-.1545-1.236-1.159-1.159-2.009-1.005-.4636-.734-1.4295-.348-2.5885-.695-.7727-.386-1.8545 .155-2.859-.773-.7727-.618-1.6999-.387-2.7817-3.709-.3091-8.355-1.2036-19.008-4.4816-16.072-4.9453-20.3992,6.6451-16.8448,13.9085 4.1009,8.3806-.4636,10.1999 .9273,16.4589 1.4681,.309 2.2408,1.545 2.1636,2.859 .869,.038 1.4872,.849 1.1781,2.395 .7341-.135 1.6808,.077 2.2989,.695 .5409-1.004 2.3181-1.236 3.2454-.077 2.0085-.155 3.0135,1.468 2.9365,3.477 1.081,1.932 .695,4.289-.464,5.795 .116-.811 0-1.97-.038-2.665-.072-1.279-1.855-1.546-1.6618-2.589-.9272,.077-1.8159-.425-2.1249-1.12-.5409,.463-1.3136,.618-1.9704,.386 1.0431,.464 1.8545,2.318 1.5454,3.554 .5409,.928 .425,2.628-.2318,3.362-.3091,1.506-1.4681,2.047-2.9749,1.39 .85-.54 1.159-1.506 1.1204-2.318-.5409-.463-.8113-1.352-.85-1.893-1.5067,.232-3.593-1.043-3.9778-1.547-3.3195,0-6.0104,2.691-6.0104,6.011-.1545-1.237-1.7181-2.455-1.525-3.498-.9272-2.859 .3864-5.525 4.1726-6.065-.4636-1.082 1.159-2.203 .5409-3.439-.7897-1.579-2.2408-3.632-4.4043-6.027 1.3136-2.241 .9272-5.254 .1545-7.1089-1.1096-2.663-2.1636-2.009-6.1043,2.3179-6.4223,7.052-14.9903,5.1-22.5628,9.736-2.0121,1.232-4.0179,1.7-1.8544-.463 2.1636-2.164 7.8815-4.327 11.5904-6.182 6.9457-3.473 12.8268-9.2724 15.1449-20.5537 5.4472-26.5115 25.4987-17.772 38.1707-12.8268 11.897,4.643 9.736-5.8725 3.709-12.2086-7.244-7.6157-5.795-13.5994-2.395-18.3902 6.104-.8499 17.811,1.275 15.454,3.3227z"/>
</g>
<g transform="matrix(4.16667 0 0 4.16667 -5.45921 -5.45892)">
<path fill="#fff" stroke="#000" stroke-width=".125" d="m156.067,108.946c3.652,0 6.613-2.96 6.613-6.612 0-3.6522-2.961-6.6129-6.613-6.6129-3.652,0-6.613,2.9607-6.613,6.6129 0,3.652 2.961,6.612 6.613,6.612z"/>
</g>
<g transform="matrix(4.16667 0 0 4.16667 -5.45921 -5.45892)">
<path fill="none" stroke="#000" stroke-width=".125" d="m130.837,44.1294c-1.468,6.4907-.232,9.4269 1.932,12.2859 4.471,5.909 8.036,19.3947 2.936,28.2034"/>
</g>
<g fill="none" stroke="#000" stroke-linecap="round" stroke-width=".125" transform="matrix(4.16667 0 0 4.16667 -5.45921 -5.45892)">
<path d="m138.564,77.0076c.618-.2318 1.777-.9658 2.048-2.2408"/>
<path d="m139.028,74.1873c.193-1.1204 1.931-1.6032 1.97-2.8009"/>
<path d="m139.066,69.8216c-.116-1.1591 1.739-2.2022 1.468-3.3612"/>
<path d="m138.062,65.649c-.155-.6568 1.545-1.8931 1.082-2.9362"/>
<path d="m136.787,61.5924c-.348-.7341 .811-1.5841 .309-2.3568"/>
<path d="m134.932,58.347c-.116-.5022 .599-1.6032 .213-2.2599"/>
<path d="m133.078,54.5222c.154-.1932 .773-.6568 .521-1.2363"/>
<path d="m131.803,51.7213c.251-.1353 1.004-.3672 .908-.9272"/>
</g>
<g fill="none" stroke="#000" stroke-linejoin="round" stroke-linecap="round" stroke-width=".125" transform="matrix(4.16667 0 0 4.16667 -5.45921 -5.45892)">
<path d="m93.1294,124.567c-1.5454-.541-3.4771,.232-3.8634,1.546"/>
<path d="m90.425,127.31c.1932-1.313 2.2022-1.893 2.8203-1.275-1.2749-.695-1.8931,1.777-.7727,1.855"/>
<path d="m102.865,96.75c-.927,.4637-1.197,2.1636 0,3.439"/>
<path d="m104.256,97.1364c-.656,.5409-.618,2.1635 .348,2.5499-.811-.5795 0-1.584 .58-1.6227 .579-.0386 .965,.6568 .27,1.3522"/>
<path d="m158.538,100.961c-2.163-.579-3.902,1.932-1.932,4.173-.038-2.164 1.507-3.593 3.4-3.207"/>
<path d="m159.137,103.424c-.532,0-.831,.416-.831,.821 0,.425 .367,.831 .966,.831 .387,0 .696-.444 .696-.792"/>
<path d="m166.767,55.9903c.348,1.3136 2.164,1.8545 3.593,1.5454"/>
<path d="m170.36,56.6857c-1.12,.0387-2.047-1.0045-1.97-1.8931 0,.6568 1.507,.9659 1.97,.5409"/>
</g>
<g fill="none" stroke="#000" stroke-linecap="round" stroke-width=".125" transform="matrix(4.16667 0 0 4.16667 -5.45921 -5.45892)">
<path d="m93.6703,100.807c-.309-.773 .9273-1.5457 .9659-2.2798 .0387-.734 1.3908-1.3135 2.7817,.0773"/>
<path d="m96.7611,90.3753c-.2704,.1159-.5023,.2704-.7341,.3477"/>
<path d="m99.4269,94.5865c-.3285,.0195-1.0045-.0192-1.3716-.2705"/>
<path d="m98.0747,96.0546c-.2704,.1354-.8695,.3672-1.2172,.4445"/>
<path d="m84.823,119.39c-.0387,.696 .6568,1.7 1.0431,2.009"/>
<path d="m87.8365,117.729c-.3864,.579-.6181,1.584-.3864,2.279"/>
<path d="m93.5931,120.047c-.6955-.464-.2318-1.662-.3091-2.434-.0773-.773 .8114-2.009 2.5499-.966"/>
<path d="m87.1024,115.643c.6955-.116 1.4295-.078 1.8931,.115"/>
<path d="m95.9111,113.44c-.309,.425-.3863,.889-.4249,1.198"/>
<path d="m99.1565,113.363c-.5409,0-1.0045,.386-1.2363,.773"/>
<path d="m91.6613,93.582c.6182,.2126 2.2214,1.1977 2.2795,2.2216"/>
<path d="m98.2292,88.5595c-1.893-.0387-2.6271-1.9704-1.1976-1.9704"/>
<path d="m101.629,91.148c-.734,.3091-.386,1.584 .657,2.2022"/>
<path d="m97.1088,103.279c-.3671-.463 .1159-1.815 1.3136-1.41"/>
<path d="m99.9292,117.381c.0768-1.178 1.5648-1.874 2.1638-.541"/>
<path d="m94.443,120.742c-.0967-1.294 .5601-1.719 1.1396-1.796 .5795-.077 1.4104,.405 1.7967,1.255"/>
<path d="m82.9298,121.708c.0773-.773 .7341-1.584 1.4295-1.468"/>
<path d="m153.632,87.4004c-.503,.3672-.831,2.009 1.081,2.1636"/>
<path d="m150.695,90.1049c0,.1931 .251,.4636 .406,.5795"/>
<path d="m159.813,93.1956c-.502-.3863-1.797,1.1785-.618,2.3181"/>
<path d="m147.527,106.177c-.29-1.101 .734-1.391 1.7-1.159"/>
<path d="m145.055,98.3727c.579-.3863 1.159-.8113 1.893-1.0045"/>
<path d="m144.746,102.622c0-.927 .463-1.699 .888-1.931"/>
<path d="m148.145,91.9593c-.077,1.1204 .387,2.2022 .735,2.7817"/>
<path d="m157.341,92.0366c-.561,.174-1.063,.3863-1.275,.85"/>
<path d="m156.722,95.2046c.271-.2318 .58-.5022 .715-.6954"/>
<path d="m171.326,61.4765c0,1.0817-1.352,1.6612-2.24,.9658"/>
<path d="m174.263,61.5151c.598,.4636 2.665,.0195 2.182-1.1782"/>
<path d="m171.751,67.7353c-.425-.0773-1.159-.5409-1.468-.9272"/>
<path d="m176.001,64.5286c-.695,.1545-1.159,0-1.507-.1545"/>
<path d="m165.029,68.3921c.386,0 1.313-.1546 1.951-.4828"/>
<path d="m163.87,61.5537c-.502-.0578-.87,.0387-1.159,.2318"/>
<path d="m171.655,63.4468c-.135,.4831-.483,1.2363-.908,1.5649"/>
<g stroke-linejoin="round">
<path d="m162.556,65.1468c.966-.425 2.164,2.8589 4.482,1.6999"/>
<path d="m167.231,63.4468c-.309,.425-.502,1.0818-.541,1.6613"/>
</g>
</g>
<g fill="none" stroke="#000" stroke-width=".125" transform="matrix(4.16667 0 0 4.16667 -5.45921 -5.45892)">
<path d="m121.024,58.4243c.309-.0386 .85-.1545 .966-.5409"/>
<path d="m81.2685,94.3933c1.1591,.6568 1.9705,1.7772 1.4682,3.4385"/>
<path d="m134.391,54.8699c.348,.2318 1.662,.2318 2.396-.0386"/>
<path d="m137.714,55.6426c-.039,.5409 .116,2.5885-.927,3.0135"/>
<path d="m137.173,58.3857c.966,.3091 2.898,.1931 3.516-1.584"/>
<path d="m139.337,58.3084c.502,.7727 .656,2.2795-.85,3.0908"/>
<path d="m139.723,59.5834c1.12,.3863 3.709,.4249 3.438-1.7772"/>
<path d="m142.273,59.5834c.773,1.0817 4.173,2.3567 3.632,.1159"/>
<path d="m139.144,62.7128c1.313,.3091 3.168-.5796 2.395-2.8976"/>
<path d="m145.248,60.9742c.193,.8886 4.52,1.8158 3.941-.1932"/>
<path d="m148.377,61.9401c.812,1.8544 5.1,1.6999 3.748-.7727"/>
<path d="m151.429,63.0991c.85,1.0432 4.637,.425 3.13-2.0863"/>
<path d="m154.52,63.0605c2.357,1.7772 5.1-.7727 2.125-2.6272"/>
<path d="m157.997,62.481c2.087,1.6613 4.637-1.3523 2.821-2.2022"/>
<path d="m141.5,61.7855c.657,.1932 2.048,.1159 2.357-1.0817"/>
<path d="m143.335,61.5151c-.077,1.758 2.879,2.434 3.632,.4058"/>
<path d="m145.982,63.0219c.541,1.159 3.129,1.6226 3.554-.0387"/>
<path d="m149.111,63.7559c.425,1.1591 2.666,1.0432 3.284-.1545"/>
<path d="m151.584,64.3741c.695,1.5067 3.554,1.5067 4.211-.6955"/>
<path d="m155.293,64.6445c1.12,.6955 3.516,.425 3.322-1.7385"/>
<path d="m158.152,64.4513c1.661,1.3523 4.018,.0387 2.859-2.2408"/>
<path d="m160.895,66.2285c.889-.1545 1.352-1.9317 .425-2.3953"/>
<path d="m140.303,66.5376c1.854-1.0045 2.202-2.7044 .927-4.3657"/>
<path d="m141.887,64.8377c1.159,.6954 3.361-.0386 3.747-1.7386"/>
<path d="m143.471,65.0309c.656,.8499 .772,1.8931-.078,2.8589"/>
<path d="m144.012,66.1126c2.047-1.2749 4.597,1.0818 2.704,2.5113"/>
<path d="m146.368,65.9967c.464-.1159 1.275-.9658 1.352-1.9317"/>
<path d="m147.295,66.8853c.85-.8886 6.646,.9273 2.975,2.7817"/>
<path d="m150,64.4513c1.12,.425 1.7,2.0091 0,2.5499"/>
<path d="m151.468,68.3148c1.236-1.2749 5.1-.4636 3.709,1.1591"/>
<path d="m154.25,67.8126c.695-2.3568 4.829-.8886 3.477,.0772"/>
<path d="m153.4,65.4558c.116,.4637 .154,1.6227-.618,2.2409"/>
<path d="m156.877,64.9922c.154,.3864 .116,1.1204-.232,1.5841"/>
<path d="m159.504,65.0309c.232,.4249 .618,1.2363-.232,1.8931"/>
<path d="m126.433,47.2589c.038,2.2021 .811,3.6703 3.786,2.2794"/>
<path d="m127.36,49.886c-1.468,1.9704 .193,4.0953 3.091,1.9704"/>
<path d="m122.84,50.8519c2.009,2.1635 5.602,.5795 3.284-2.7045"/>
<path d="m128.558,52.7064c-.387,2.1249 1.352,2.5499 2.781,1.584"/>
<path d="m121.062,51.1996c.366,2.1363 2.55,3.8248 4.675,2.5113"/>
<path d="m123.69,54.1358c0,3.0522 4.211,3.3999 5.177,.2319"/>
<path d="m127.36,56.2994c1.352,2.7817 4.288,1.6613 5.254-.0386"/>
<path d="m124.385,51.8564c.541,1.3522 1.623,2.859 4.134,1.7386"/>
<path d="m116.658,51.1996c.348,1.1204 2.357,2.4726 4.675,.9272"/>
<path d="m118.088,52.6291c-1.237,1.8158 1.236,3.5158 4.211,.8113"/>
<path d="m119.556,54.8699c.502,2.5499 1.506,4.5976 5.138,1.3136"/>
<path d="m122.878,57.4971c1.314,1.6226 3.323,2.6271 5.216-.1159"/>
<path d="m129.485,57.9607c-.116,1.9317 .27,2.8976 1.777,2.8203 1.188-.0608 2.318-1.0045 2.975-2.009"/>
<path d="m130.992,60.781c-.039,2.2022 1.699,3.9408 4.945,1.7"/>
<path d="m132.344,63.3696c-.618,1.6613 1.236,4.3657 4.868,2.9748"/>
<path d="m124.655,58.9652c-.231,2.1249 1.739,3.5544 4.907,.8113"/>
<path d="m126.201,61.3219c.116,1.7386 2.086,3.8249 4.984,.8113"/>
<path d="m127.592,63.5241c-.232,2.9749 2.511,3.8248 4.829,1.5454"/>
<path d="m123.458,61.3219c.618,.0387 1.12-.5022 1.429-.8886"/>
<path d="m124.771,63.4855c.541,.1159 1.469-.3864 1.778-1.0045"/>
<path d="m126.124,67.0012c.618,.6568 2.704,.1932 2.974-.6954"/>
<path d="m128.442,66.9626c1.159,2.7044 4.249,2.5885 5.524-.4636"/>
<path d="m133.387,67.5808c.579,1.584 2.048,2.5885 4.443,2.0476"/>
<path d="m134.546,69.2034c-1.352,2.2022 .425,4.7907 3.438,2.2408"/>
<path d="m135.28,72.4874c-.154,1.3908 1.121,2.9749 2.859,3.168"/>
<path d="m129.562,68.4307c-.464,3.1294 1.777,4.6362 4.598,2.9749"/>
<path d="m126.278,69.9375c.734,.5795 2.048,.6568 3.284,.1932"/>
<path d="m131.069,71.9465c-.696,2.6272 2.009,4.5203 4.327,1.584"/>
<path d="m127.321,70.3625c.039,1.3522 1.353,2.8203 3.632,2.3953"/>
<path d="m137.328,75.4623c-1.546,1.0431-1.855,2.8976 .309,4.0952"/>
<path d="m133.541,74.9214c.078,1.584 .812,2.4726 2.55,2.6271"/>
<path d="m131.262,74.11c-2.318,2.125-.039,4.5976 2.704,2.5113"/>
<path d="m132.885,77.2781c-.773,2.434 2.125,3.9021 3.67,1.4295"/>
<path d="m128.094,72.101c-.85,2.3954 .232,3.9794 2.202,3.8249"/>
<path d="m125.042,71.6374c.116,1.4295 1.352,1.9317 2.743,1.6227"/>
<path d="m125.93,73.1442c-1.043,2.009 .541,3.0908 2.628,2.3181"/>
<path d="m134.894,79.9439c-.348,1.2749-.155,2.2022 1.738,2.6272"/>
<path d="m135.01,81.7597c-2.28,1.0432-2.473,3.2454-.696,4.6748"/>
<path d="m133.174,79.3066c-1.197,1.0818-.966,2.9554 .348,3.6894"/>
<path d="m123.033,72.2556c-1.314,1.2944-.058,4.868 2.839,2.9171"/>
<path d="m130.567,76.7758c-1.778,1.4682-.966,4.134 1.97,3.3999"/>
<path d="m127.63,75.6554c-.927,2.6272-.038,3.5544 2.048,3.5931"/>
<path d="m121.101,72.1397c-1.584,1.1976-1.159,2.8976-.463,3.6703 .695,.7727 2.008,.425 2.433-.5795"/>
<path d="m117.778,71.0965c-1.777,2.2795 0,4.9839 2.512,4.1726"/>
<path d="m127.283,77.8576c-1.816,.6568-3.201,2.3057-2.087,3.7476 .657,.85 3.516,.9659 4.327-2.3181"/>
<path d="m123.999,75.7327c-1.043,1.5068-.696,2.9363 1.236,3.6703"/>
<path d="m123.883,78.553c-1.121,.6182-1.855,1.3523-1.584,2.7045"/>
<path d="m121.372,76.1963c-.425,1.8159 .077,2.9363 1.197,3.4772"/>
<path d="m121.333,78.3599c-1.739-.1159-2.627,.6181-2.048,2.3181"/>
<path d="m119.44,78.7849c-1.7-.6182-1.971-2.0863-1.237-3.6317"/>
<path d="m117.972,77.4326c-1.855,.0773-2.666,1.0045-2.666,2.2795"/>
<path d="m115.46,70.2079c-1.352,.5795-1.777,2.3954-1.275,3.3999 .503,1.0045 2.087,1.0818 3.053,.425"/>
<path d="m111.674,68.7784c-1.236,1.3909 .193,4.0953 2.396,3.4385"/>
<path d="m108.506,67.6967c-1.159,1.6226 .116,4.3271 3.091,3.5544"/>
<path d="m111.751,78.7849c-.309-1.9318 1.7-3.2067 4.173-.6955"/>
<path d="m114.726,74.1873c-.734,.6568-1.081,1.6999-.966,2.5499"/>
<path d="m105.338,66.7694c-1.275,2.1636 .271,4.134 3.014,3.3613"/>
<path d="m112.486,72.1397c-1.816,1.8158-1.198,3.6316 .154,4.6748"/>
<path d="m111.326,74.2646c-2.743,.0386-2.897,3.2067-.656,4.2112"/>
<path d="m109.24,71.0965c-1.12,.7727-1.468,2.8976 .464,3.7476"/>
<path d="m109.163,75.8486c-1.159-.5409-2.55,.1159-2.434,1.4681"/>
<path d="m107.424,75.8872c-1.043-2.4726-4.095-2.0476-3.824,.5023"/>
<path d="m108.274,72.8351c-.656,.1159-1.97,.5022-2.472,1.5068"/>
<path d="m105.995,70.0534c-1.236,1.3908-.271,3.0521 .734,3.3998"/>
<path d="m102.325,66.1513c-.232,1.6613 .425,2.4726 2.511,2.3181"/>
<path d="m103.059,68.2762c-.812,2.009 .27,2.8976 2.356,2.7817"/>
<path d="m103.522,70.7488c-1.236,1.4681-.386,3.0522 .811,3.709"/>
<path d="m102.943,72.6033c-2.202-.2705-2.55,2.2794-1.816,3.4771"/>
<path d="m101.165,65.9581c-1.3517,.5795-2.1244,2.2794-1.3904,3.3226 .7344,1.0431 2.2024,.6954 3.0134,.1545"/>
<path d="m100.238,69.7443c-1.1202,1.6999-.116,2.9749 1.082,3.4771"/>
<path d="m95.9111,65.7649c-.8885,.9272-.3477,2.8204 1.8159,2.859 1.7419,.0312 2.627-1.6227 2.0863-2.7817"/>
<path d="m97.4179,68.6239c-.6954,1.5454-.2704,3.2067 2.3567,2.9362"/>
<path d="m100.895,73.9941c-1.6226-.734-3.7862,0-2.8589,1.9318"/>
<path d="m97.8043,71.2511c-.6568,.9272-.425,2.2408 .309,3.0521"/>
<path d="m97.6884,73.7237c-1.0818,.1932-2.125,.7727-1.4682,2.4726"/>
<path d="m96.0657,74.8055c-1.3908-.425-3.1681,.5795-2.0863,2.009"/>
<path d="m93.7476,75.4623c-1.1977-.1932-2.6271,1.0817-1.4681,2.3567"/>
<path d="m91.8159,76.7758c-1.0818,.2705-2.3567,1.5068-1.2364,2.4727"/>
<path d="m97.2634,70.7102c-1.5454,.6954-1.7,2.434-.9659,3.7089"/>
<path d="m95.6407,67.5035c-2.3181,.8886-2.2794,3.9794 .2704,4.9452"/>
<path d="m94.8294,71.7533c-1.3908,.8113-1.6613,2.3567-.734,3.3612"/>
<path d="m92.3954,66.3444c-.9273,.3091-.85,3.1681 1.6227,3.0908"/>
<path d="m89.8455,67.3103c-1.8545,1.2363 .3863,4.3657 3.3998,2.1249"/>
<path d="m91.584,70.2079c-.2704,1.275 .0773,2.6658 2.125,2.8204"/>
<path d="m91.7,71.9079c-1.4682,.5408-1.7386,3.5544 .9272,3.7862"/>
<path d="m87.0251,69.1648c-1.8931,1.7386 1.5454,3.2453 2.8204,.7341"/>
<path d="m84.398,72.0624c-.9273,1.1204 2.318,4.0567 3.7475-.85"/>
<path d="m88.4933,71.1352c.0772,1.159 .7727,1.8544 2.2021,1.9317"/>
<path d="m90.6568,74.1873c-2.2794,.3477-3.0135,3.2067-.4636,3.8249"/>
<path d="m86.4456,73.801c-.0773,1.0817 1.0431,1.9703 2.3181,1.7772"/>
<path d="m89.9227,77.9349c-2.0862,.4636-2.3567,3.168-.5022,3.0135"/>
<path d="m88.4547,83.4597c-1.7387-.5215-1.7773-2.5886-.2319-3.3613"/>
<path d="m87.0251,81.6438c-1.468,.8886-.8885,3.0135-.1159,3.3226 .7727,.3091 1.3909-.0772 1.4682-.734"/>
<path d="m88.2614,87.2072c.1546,1.0045-3.5738,.6182-1.6612-2.5112"/>
<path d="m86.5807,87.3812c-1.2555,1.9704 .7922,3.5736 2.0863,1.8932"/>
<path d="m86.7547,89.7571c-.5023,1.5841 1.41,2.7239 2.6463,1.4876"/>
<path d="m82.5822,74.9214c-.6955,1.4295 2.7816,1.9703 3.0134-.9659"/>
<path d="m81.6163,77.0463c-.6954,2.7817 4.5589,2.2022 3.2067-1.3909"/>
<path d="m84.9389,77.5099c.734,.425 2.9363,.4636 3.4771-1.8931"/>
<path d="m86.832,77.5872c.1545,.734 .8113,1.6226 1.4294,1.8931"/>
<path d="m84.3207,78.3212c-.2318,1.5068 1.2749,2.7431 3.0135,2.6272"/>
<path d="m84.5911,79.7893c-.8499,1.1591-1.1204,3.3999 1.5455,3.5545"/>
<path d="m80.5345,80.1757c-.425,1.1977 2.0863,2.434 3.5544,.4636"/>
<path d="m79.7618,83.2278c-.2127,.9081 2.0476,2.125 3.3226-1.7385"/>
<path d="m82.0799,83.4597c.5409,.9658 2.3567,1.7385 3.4772-.1546"/>
<path d="m83.7412,84.4642c-.4636,1.3522 .8114,2.6271 2.3567,2.2408"/>
<path d="m80.8436,84.1551c-.3091,1.9317 1.9317,3.0521 3.3226,2.0476"/>
<path d="m79.3754,85.0051c-.6567,2.4726 2.5113,3.3998 3.709,1.5453"/>
<path d="m82.273,87.2845c.116,1.3909 2.2796,2.5885 3.9794,1.4295"/>
<path d="m78.4096,88.4436c-.1545,.6181 2.434,1.2363 2.8203-.9273"/>
<path d="m79.9164,88.9844c.6181,1.5841 2.7044,1.9704 3.9021,.0387"/>
<path d="m83.123,89.7958c.2705,1.4681 2.1636,2.2794 3.8249,1.2749"/>
<path d="m87.6433,91.6502c-.4249,1.9704 1.6227,3.5544 2.8976,2.4727"/>
<path d="m84.3593,91.3025c-.6181,2.1636 2.0863,3.3999 3.5931,2.2022"/>
<path d="m81.114,90.2208c-.1545,2.009 1.4295,3.2066 3.2453,2.318"/>
<path d="m77.6756,90.4139c-.541,1.3136 2.3181,2.3954 3.6702,1.275"/>
<path d="m75.8983,94.007c.7341,.8499 3.284,0 3.5158-1.8931"/>
<path d="m78.7187,93.5047c.9272,1.0818 3.1294,1.6613 4.018-.6568"/>
<path d="m81.964,94.0456c-.0387,1.6613 2.9363,2.859 3.9021-.1932"/>
<path d="m89.3624,94.4514c-.2705,.8114 .3672,2.1055 1.6999,2.26"/>
<path d="m86.9092,93.9492c-.1932,.9272 1.1591,2.2213 2.5886,1.6999"/>
<path d="m89.7682,96.0355c-.3863,1.0045-.0581,2.4531 1.2941,2.4339"/>
<path d="m89.9033,97.9091c-1.0045,.8499-.5796,2.3569 .8695,2.4149"/>
<path d="m89.3819,99.3386c-1.4295,.9654-.9272,3.0904 .9658,2.9754"/>
<path d="m85.0548,95.2433c0,2.0863 2.5885,2.3953 3.0907,.4636"/>
<path d="m87.1411,96.9432c-.3864,1.2363 .6181,2.434 2.2021,2.0863"/>
<path d="m87.4501,111.856c.3478,.503 1.7772-.347 1.3909-1.197-.3863-.85-1.9006-.388-1.7386,.502"/>
<path d="m88.4933,110.311c.1931-1.7-1.8159-1.97-2.3181-.502"/>
<path d="m86.9092,108.959c.5023-.85-1.1976-2.009-1.8931-.773"/>
<path d="m85.6343,107.684c.4636-1.237-1.4681-1.777-1.6227-.657"/>
<path d="m83.5866,105.404c.2319-.618 2.3954-.232 1.4682,1.043"/>
<path d="m86.716,107.993c.85-.773-.5794-2.357-1.4681-1.777"/>
<path d="m92.4341,110.35c-.6763,.077-1.3718,.521-.8695,1.951 .3483,.992 1.8353,1.043 2.0476,.444"/>
<path d="m91.4487,111.064c-.6568-.425-2.0863,.29-1.4295,1.681 .4945,1.047 1.7386,.618 1.9317,.077"/>
<path d="m87.7592,113.054c.3282,.579 1.9701,.329 2.26-.309"/>
<path d="m88.8796,111.142c.3477-.232 .985,.057 1.1204,.347"/>
<path d="m88.7637,101.618c-1.1204,.734-.425,2.975 1.3136,2.395"/>
<path d="m88.416,103.434c-.8886,.695-.0773,2.859 1.584,2.048"/>
<path d="m88.6864,105.482c-.6181,.618-.0194,2.337 1.5841,2.009"/>
<path d="m88.4547,106.332c-.3478-.155-1.2558-.039-1.6422,.54"/>
<path d="m87.4501,98.5081c-.8499,.8113-.4444,2.4729 1.1396,2.6079"/>
<path d="m87.1411,100.208c-1.2172,.599-1.2172,3.013 1.2168,3.11"/>
<path d="m87.0443,102.932c-.676,.541-.3477,2.627 1.3909,2.356"/>
<path d="m87.6047,105.211c-.2513,.251-.29,.889-.0773,1.159"/>
<path d="m86.832,104.419c-.6181,.019-1.4295,.464-1.6422,1.101"/>
<path d="m84.0694,103.279c.2318-.618 2.1445-.579 2.2795,1.237"/>
<path d="m86.5421,102.352c-.2705,.058-.7919,.309-.9272,.831"/>
<path d="m85.7116,96.6922c-.8308,.7533-1.2363,3.1295 1.2941,3.5928"/>
<path d="m84.0308,101.599c0-.638 1.7194-1.179 2.3181-.232"/>
<path d="m82.9298,98.1409c.251,.4831 1.4487,1.1399 2.1828,.599"/>
<path d="m76.7096,94.3547c-.0385,1.1204 .8887,2.1249 2.1636,1.9704 1.2749-.1546 1.5454-1.275 1.159-2.0091"/>
<path d="m79.0664,96.3637c-.85,1.0431 .1932,2.5113 1.159,2.0863"/>
<path d="m80.0322,95.6296c.5023-.1932 2.1636-.425 2.6658,.3477"/>
<path d="m74.662,95.9387c-.3864,.5795 2.0091,1.1591 2.8203,.0386"/>
<path d="m76.6711,96.5569c-.0774,.7727 .309,2.0862 2.2794,1.5454"/>
<path d="m79.2596,99.2999c.309-.6568-1.1591-1.7385-2.2795-.5409-1.1204,1.1977 .1545,2.55 .85,2.086"/>
<path d="m74.1211,96.7114c-.5795,1.0045 1.6613,2.8398 2.9363,1.1399"/>
<path d="m72.6335,98.45c-.8113,.8308 .1932,2.357 1.4103,1.893 1.2169-.4635 1.101-1.7385 .8114-2.0667"/>
<path d="m71.069,99.9954c-.6568,.5986-.0195,2.0086 .8886,2.0086 .9077,0 1.4681-.714 1.2941-1.622"/>
<path d="m74.7585,99.8795c-.116,.8885 1.1976,1.5065 2.0476,.6765"/>
<path d="m76.8447,98.9331c.1159-.1932 .0195-.5218-.1736-.6763"/>
<path d="m69.6586,101.193c-.7532,.599 .8695,2.26 1.8931,.734"/>
<path d="m75.4733,100.865c-.4831,.463 .2896,1.68 1.0623,1.313"/>
<path d="m72.8267,101.715c.1159,.83 1.7386,1.448 2.7625,.174"/>
<path d="m73.7153,102.545c-.251,.522 .2513,1.353 .8694,1.237"/>
<path d="m89.0919,107.317c-.5986,1.178 1.3136,2.55 2.7045,1.12"/>
<path d="m90.4828,109.075c-.2896,.637 .0581,1.526 .5795,1.854"/>
<path d="m88.667,110.408c.1354-.58 .9658-1.121 1.7194-.85"/>
<path d="m87.6625,108.881c.1159-.521 .8113-1.043 1.333-.907"/>
<path d="m133.155,84.7732c-2.743,.0387-1.584,4.4431 .773,3.5544"/>
<path d="m132.267,88.0186c-.541,.8886 .502,2.2989 1.661,1.4681"/>
<path d="m133.619,89.6607c-.812,1.3522 2.086,3.419 3.245,1.2941"/>
<path d="m135.937,91.7661c.038,1.275 3.747,2.0863 3.207-.4636"/>
<path d="m138.796,92.6934c.888,1.5067 4.211,1.6613 3.863-.5795"/>
<path d="m141.925,93.6593c.696,1.0045 3.941,1.6226 3.825-.4637"/>
<path d="m128.751,80.9484c.463,1.1977 2.047,1.6227 3.786,.9272"/>
<path d="m127.746,81.7984c1.082,.6954-.502,3.8634-2.163,2.5885"/>
<path d="m127.746,83.7687c1.198,.5796 2.666,.1546 3.091-1.5454"/>
<path d="m130.103,83.5369c.116,.8886 1.391,1.5841 3.052,1.2363"/>
<path d="m127.128,84.4642c1.546,1.3136-.695,4.018-1.7,2.7817"/>
<path d="m127.708,85.4687c.734,.5409 2.627,.2318 2.82-1.1977"/>
<path d="m129.678,85.4687c.155,.9272 .889,1.2749 1.932,1.3136"/>
<path d="m127.283,86.7436c.772,1.0818 2.704,1.3909 3.554-.0386"/>
<path d="m129.987,87.5163c-.077,1.0432 1.082,1.8931 2.28,1.6613"/>
<path d="m125.776,89.8344c1.004,.5022 2.086-1.3908 1.236-2.7044"/>
<path d="m126.935,91.8434c1.198,.0773 1.352-1.7385 .232-2.7431"/>
<path d="m129.678,93.5047c1.005-.2318 .695-2.434-1.739-2.6272"/>
<path d="m132.73,95.1274c.966-.2705 .193-2.7045-2.472-2.5499"/>
<path d="m136.401,95.9773c.656-1.0045-1.507-2.7044-3.284-1.8158"/>
<path d="m138.216,97.3682c1.198,.3477 2.009-2.8203-1.777-2.3181"/>
<path d="m140.418,97.3682c1.044-.2704 1.778-2.1636-1.274-1.5454"/>
<path d="m142.737,97.5227c.927,.4637 1.352-2.2408-1.469-1.5067"/>
<path d="m127.167,89.1003c1.159,.6568 2.975-.1159 2.82-1.584"/>
<path d="m129.523,88.7913c.387,.6954 .232,2.0476-.502,2.3953"/>
<path d="m129.639,90.4139c.773,.3091 1.816,.0387 2.434-1.1976"/>
<path d="m130.992,90.4139c.231,.5409 .309,1.6227-.194,2.1636"/>
<path d="m131.185,91.3412c.85,.4636 1.854-.1546 2.279-1.0432"/>
<path d="m132.923,91.0707c.618,.3864 1.159,2.2022 .116,2.9363"/>
<path d="m133.619,93.157c.734,.0386 1.816,.0386 2.511-.8886"/>
<path d="m135.628,92.7706c.657,.1932 1.429,1.275 1.159,2.2409"/>
<path d="m136.825,94.6638c.735-.0773 2.009-.5796 2.357-1.4682"/>
<path d="m138.834,93.7752c.619,.3477 1.044,1.0817 .966,1.9317"/>
<path d="m139.8,95.0887c.734-.0386 1.391-.4249 1.584-1.2363"/>
<path d="m141.191,94.3933c.541,.1932 1.198,.8113 1.237,1.5454"/>
<path d="m142.35,95.4751c.541-.0773 .927-.425 1.275-.9659"/>
<path d="m145.093,94.4319c.696,.6955-.231,3.0136-1.661,2.5886"/>
<path d="m130.258,47.6066c-1.43,.8499-5.487,.5795-3.478-2.7817"/>
<path d="m130.644,45.3271c-2.82,1.1204-6.298-1.0431-2.666-3.3998"/>
<path d="m127.012,41.1545c-2.357,0-3.941,3.7863-.772,5.0998"/>
<path d="m117.856,42.7386c-.618,1.1976 1.584,2.5112 3.091,1.3136 1.167-.9279 1.081-3.4385 .386-4.4044"/>
<path d="m116.658,45.5976c-.773,2.5498 4.907,2.7044 4.018-1.3523"/>
<path d="m116.349,49.3838c.193,1.9317 5.448,1.3136 3.747-2.5886"/>
<path d="m120.715,45.7135c.425,.5795 1.584,1.584 3.554,1.3908"/>
<path d="m121.642,42.9704c.174,.6954 1.352,1.2363 2.859,.7149"/>
<path d="m68.9246,101.753c-1.3328,.947 .7149,2.434 1.4681,.792"/>
<path d="m67.8814,102.488c-1.3327,.946 .7149,2.433 1.4682,.791"/>
<path d="m66.7805,103.202c-1.3331,.947 .7146,2.434 1.4681,.792"/>
<path d="m65.6215,103.859c-1.275,.676 .2123,2.337 1.5067,.869"/>
<path d="m64.3657,104.497c-1.275,.675 .2126,2.337 1.5068,.869"/>
<path d="m70.8372,102.507c-.0195,.985 1.8545,1.391 2.5304-.078"/>
<path d="m72.0154,103.415c-.5795,.734 .4831,1.642 1.0626,1.313"/>
<path d="m69.5236,103.279c-.0581,.831 1.5645,1.314 2.3567,.406"/>
<path d="m70.4122,104.149c-.5217,.676 .5022,1.584 1.159,1.313"/>
<path d="m68.4418,104.033c.0578,.657 .985,1.41 1.9896,.985"/>
<path d="m69.0405,104.921c-.3864,.348-.1931,1.16 .3477,1.411"/>
<path d="m67.0315,104.863c-.1545,.599 .8694,1.662 1.9125,.966"/>
<path d="m67.2441,105.559c-.6181,.483-.5409,1.217 .251,1.313"/>
<path d="m65.7565,105.482c-.0772,.405 .4445,1.062 1.1013,.985"/>
<path d="m62.4534,105.443c-.6181,.328 .9659,2.009 1.9509,.444"/>
<path d="m60.9272,106.138c-.7727,.368 1.1398,2.222 1.9899,.329"/>
<path d="m65.9305,106.061c-.599,.135-.9853,1.005-.4831,1.352"/>
<path d="m63.9793,106.37c-.0773,.348 .6568,.927 1.2559,.715"/>
<path d="m63.4771,106.525c-.5795,.367-.2705,1.39 .4058,1.236"/>
<path d="m61.4103,107.201c-.5409,.405-.174,1.217 .5795,1.024"/>
<path d="m62.3953,107.143c.0195,.212 .5023,.541 .9081,.406"/>
<path d="m59.5363,106.795c-.6759,.29-.6373,1.99 1.6422,1.063"/>
<path d="m58.0104,107.471c-.9467,.464-.6376,1.739 1.4295,.522"/>
<path d="m59.6136,108.09c-.251,.193-.5214,1.043 .425,.714"/>
<path d="m57.875,108.495c-.3863,.348-.135,1.063 .715,.792"/>
<path d="m55.8855,108.611c-.6954,.406 .8305,.947 1.8545-.135"/>
<path d="m56.3492,109.113c-.3092,.309-.3092,1.217 .5022,.889"/>
<path d="m54.3787,109.48c-.4636,.348 .3283,.812 1.7772,.174"/>
<path d="m54.9583,109.983c-.5409,.444-.4831,1.004 .309,.83"/>
<path d="m53.3548,110.234c-.5987,.541 .2704,.908 1.3136,.463"/>
<path d="m53.3743,110.833c-1.024,.463-.5796,1.313 .0578,.985"/>
<path d="m87.566,113.788c-.2374,.511 .5409,.927 1.275,.811 .7051-.111 1.3796-.692 .8499-1.506"/>
<path d="m89.7296,114.097c.6954,.541 1.9317-.077 1.9317-.889"/>
</g>
<g fill="#fff" stroke="#000" stroke-width=".125" transform="matrix(4.16667 0 0 4.16667 -5.45921 -5.45892)">
<path d="m132.344,32.2299c-3.091-1.5454-9.504-4.4044-11.32-2.0863 1.661-.6954 6.529,.0387 10.547,3.7476l.773-1.6613z"/>
<path d="m134.218,32.066c-3.574-4.1632-5.679-3.2313-8.249-4.6654-2.414-1.3474-6.259-1.6227-7.004,.5201 3.527-1.7178 6.765,.9237 8.754,1.2433 2.732,.4387 4.274,2.5506 5.073,3.522l1.426-.62z"/>
<path d="m147.682,31.5345c-1.855-4.2498-5.821-3.1399-7.573-4.9453-2.549-2.6271-9.001-5.0611-11.667-3.2453 5.872-.3091 8.373,4.0477 11.513,5.5634 2.241,1.0818 4.636,3.3999 7.727,2.6272z"/>
<path d="m140.728,31.0709c-3.168-3.9408-8.037-7.4179-10.277-6.1043 2.936,.1545 3.863,2.2022 5.95,3.5157 2.086,1.3136 1.159,3.2067 4.327,2.5886z"/>
<path d="m125.66,38.0251c-3.323-1.2363-9.813-1.8544-12.827,1.9318 5.023,.8499 12.595,.3863 12.827-1.9318z"/>
<path d="m125.042,39.4933c-3.323-1.5454-5.918,.6132-9.041,.309-5.949-.5795-10.199-.2318-10.74,2.6272 3.4-3.0521 9.118-.5409 11.436-1.159 2.318-.6182 10.895-.0773 13.599,1.0817-1.391-1.6999-3.554-2.1635-5.254-2.8589z"/>
<path d="m135.473,30.6459c-.772-2.5499-.734-5.2544 3.091-5.0612-.966-1.1977-4.52-1.8158-5.1,2.6658-4.211-3.0908-8.809-3.6316-9.658-.9658 2.163-1.8545 5.524-.5023 9.542,4.0566 .348-.1932 1.275-.5795 2.125-.6954z"/>
<path d="m129.678,34.1616c-2.395-1.5453-5.641-4.0566 .039-5.0611-2.434-1.3136-5.989-.7341-5.602,3.7476-6.491-2.6272-11.152-1.7405-12.132,.8499-1.082,2.859 2.937,4.443 3.632,2.6272-.734,.3091-3.245-.5409-1.932-2.1636 1.314-1.6226 8.046-.4045 14.45,2.9363 1.777,.9272 7.881,.7727 1.545-2.9363z"/>
<path d="m127.978,38.4115c-1.848-3.7733-7.843-.3477-9.051-4.0026-1.651,5.3548 8.525,2.3918 9.051,4.0026z"/>
</g>
<g transform="matrix(4.16667 0 0 4.16667 -5.45921 -5.45892)">
<path fill="#fff" stroke="#000" stroke-width=".125" d="m166.111,42.5068c1.257,.6246 2.344-.3573 .421-1.1275 1.258,.6243 2.355-.3342 .432-1.1047 1.258,.6243 2.355-.3341 .432-1.1046-.513,.5164-1.247,2.4095-1.285,3.3368z"/>
</g>
<g fill="#fff" stroke="#000" stroke-width=".125" transform="matrix(4.16667 0 0 4.16667 -5.45921 -5.45892)">
<path d="m166.767,35.2434c2.782-2.9362-.231-3.9407 3.168-6.9542 2.782-2.4656 .531-4.1089 3.169-6.0271 .85-.6181 2.704-1.8544 2.859-3.0908 1.12,2.7817-3.478,3.1681-3.169,7.6497 .197,2.8535-1.732,2.6043-2.472,7.4179-.155,1.0045-.85,3.2453-3.555,1.0045z"/>
<path d="m168.004,36.557c1.545-3.3226 3.319-3.2586 4.172-4.5589 1.623-2.4726 5.061,.425 7.959-1.7772-.502,3.1294-4.404,2.009-6.104,4.018-1.7,2.009-3.091,2.9363-6.027,2.3181z"/>
<path d="m168.39,37.6388c2.705-2.1636 4.698-.7202 6.568-1.8545 4.713-2.859 6.607,.5795 10.818-.7727-1.121,2.7044-7.341,.3864-10.045,2.3954-2.705,2.009-12.209,3.9407-7.341,.2318z"/>
</g>
<g transform="matrix(4.16667 0 0 4.16667 -5.45921 -5.45892)">
<path fill="#fff" stroke="#000" stroke-width=".125" d="m160.509,53.0541c-.039-1.2363-1.198-2.8204-2.821-3.0135-1.622-.1932-2.318-1.8932-3.554-1.9704-1.236-.0773-2.048-2.5499-3.748-2.5113-1.7,.0387-2.395,2.2408 1.584,4.2498 3.98,2.0091 8.384,4.3271 8.539,3.2454z"/>
</g>
<g fill="#fff" stroke="#000" stroke-width=".125" transform="matrix(4.16667 0 0 4.16667 -5.45921 -5.45892)">
<path d="m155.486,54.0972c-1.7,.0773-1.932,2.5499-3.554,2.6272 2.24,1.1977 3.863-.5409 5.022-2.0863l-1.468-.5409z"/>
<path d="m156.877,54.4063c-1.468,1.2363-1.893,3.8248 .232,4.5589-1.275-1.7579 2.241-2.5499 1.159-4.1726l-1.391-.3863z"/>
<path d="m158.345,54.4836c-1.159,2.2408 1.816,2.5112 1.043,4.2112 1.7-.3864 1.971-3.5931 .425-4.4431l-1.468,.2319z"/>
</g>
<g fill="#fff" stroke="#000" stroke-width=".125" transform="matrix(4.16667 0 0 4.16667 -5.45921 -5.45892)">
<path d="m146.986,49.6928c2.782-.1545 5.326,1.3504 7.032,3.7863 1.082,1.5453 4.713,2.1635 5.95,.9272 1.236-1.2363 .541-3.8635-2.55-3.0135-.773-1.3136-3.014-.85-4.095-1.9318-1.082-1.0817-5.255-4.1725-6.337,.2318z"/>
<g stroke-linecap="round">
<path d="m157.418,51.3928c-.734,.1545-.966,1.4295-.503,2.0863"/>
<path d="m159.002,52.1655c.232,.3863 .077,.9272-.039,1.1977"/>
<path d="m151.391,49.8087c1.429,.0773 1.7,1.1205 3.245,1.5068"/>
</g>
<path d="m150.447,46.293c4.937,1.2363 8.854,2.3181 11.283,3.7089 2.429,1.3909 6.19,1.7772 9.481,.85 3.291-.9272 9.637-1.7772 9.324,2.3181 1.725-2.0477-.47-4.2499-4.858-4.6362 .079-2.009-2.071-3.8249-3.617-2.6272 1.43-.1931 2.664,2.4727-.156,3.5544 .548-2.009-1.45-3.8248-3.526-2.9362 1.332,.3863 2.679,2.62-.301,3.4771-1.881,.5409-4.623-.1545-6.66-1.3908-2.037-1.2364-13.477-5.718-10.97-2.3181z"/>
</g>
<g fill="#fff" stroke="#000" stroke-width=".125" transform="matrix(4.16667 0 0 4.16667 -5.45921 -5.45892)">
<path d="m162.904,44.284c-1.545,.6954-.541,2.3181-2.936,3.2453-2.396,.9272-4.057,3.0521-3.516,4.868 1.623-3.5544 4.482-3.3999 5.486-4.7907 1.005-1.3909 2.473-3.4385 .966-3.3226z"/>
<path d="m163.329,44.5158c-.077,2.8203-2.297,1.7929-1.43,5.7566 .271,1.2363 .773,3.2453-.077,5.2543 2.492-1.8158 .889-5.6305 2.009-7.0702 .541-.6954 1.236-1.7772 1.507-2.7044-.58,1.6226-.541,4.6362 1.043,5.4089-1.275-3.0136 3.439-5.4862 .193-8.9633-.463,.85-1.932,2.3567-3.245,2.3181z"/>
</g>
<g transform="matrix(4.16667 0 0 4.16667 -5.45921 -5.45892)">
<g stroke="#000" stroke-width=".125">
<g fill="#fff">
<path d="m155.447,41.6954c.387,.5795 .773,2.0477 .425,2.859 .773-.4636 1.894-1.6613 2.241-2.4726 1.584,.2318 2.202,2.2022 .696,3.0521 .927,0 2.511,0 3.399-1.0431-1.081-1.1977-4.442-3.0522-6.761-2.3954z"/>
<path d="m131.416,36.1524c-.25-.2278-.672-.4444-1.429-.5999-2.339-.4797-1.131-2.5882 .86-2.5694 4.249-4.6361 6.635-1.0623 11.812-2.5304 1.812-.5137 3.056-.3619 4.043,.0652 2.318-1.5454 5.037-1.1136 7.008,.7023 .219-.3484 .513-.6142 .926-.7289 1.815-.5041 3.283,1.0435 3.785,3.0525 1.415-.2621 3.031,.4383 4.094,1.4041 1.472-.756 2.486-.7896 2.859-.0123 1.314-.6182 3.016-1.0058 3.866,1.0805 .85,2.0863-2.009,1.4681-2.473,5.8725-.286,2.7171-3.322,3.7862-5.718,2.1636-3.832-2.596-7.572-3.0136-9.427,.9272-1.854,3.9407-3.307,6.2304-7.804,4.9453-1.622-.4637-3.709,.1545-5.022,1.9317-1.314,1.7772-3.323,.1159-5.718,.3091 3.013-.4636 1.859-1.2215 4.482-1.3909 2.395-.1545 1.777-2.3953 3.322-2.7044-6.027,1.5454-5.795-.6955-10.74,.8499 2.163-2.7817 5.563-1.2363 7.263-2.8589-4.482-.0773-6.486-3.0052-8.5-1.7772-3.168,1.9317-1.778,7.4315-10.045,6.9542-4.018-.2318-6.568,.3091-8.963,2.7045 4.173-8.6542 9.849-3.8997 12.595-6.6452 1.623-1.6227 2.859-2.859 3.709-4.4044 .299-.544 .704-.8549 1.21-.9751-6.877-2.1636-2.718-5.5338 4.005-5.7656z"/>
<path stroke-linecap="round" d="m165.372,34.9365c.105,.2173 .159,.4992 .159,.8478 0,1.6999-2.55,1.7772-2.704,4.2885-.081,1.3136-.232,2.0476-1.121,1.8931-.888-.1546-1.661-1.5454-.811-3.1681"/>
<path d="m132.691,33.6208c-.64-.4497-1.28-.6324-1.854-.6377"/>
<path d="m146.688,30.5056c2.046,.8858 3.044,3.011 6.016,3.1152 2.861,.1004 4.637,4.2498 9.427,1.5453 .13-.0732 .257-.1415 .38-.2049"/>
<path d="m153.71,31.2202c-.427,.679-.524,1.6268-.407,2.4585"/>
<path d="m144.359,39.9569c-3.631,0-4.559,1.8544-4.559,3.6316 0,1.7772 1.7,4.0953 4.714,4.0953 3.013,0 4.636-1.8544 4.636-3.8634 0-2.0091-1.855-3.8635-4.791-3.8635z"/>
<path d="m145.016,47.6066c-.077-1.0045-1.893-.85-1.816-1.6227 .077-.7727 1.005-1.0818 1.005-2.1635 0-1.0818 1.622-1.1591 2.163-.3091 .541,.8499 2.164,2.5112 2.512,1.6613"/>
<path d="m146.368,43.5113c-.85,.8499-1.236,2.5885-.116,3.9407"/>
<path d="m147.527,44.8249c-.27,.5795-.347,1.4681-.038,2.009"/>
</g>
<g fill="none">
<path d="m161.957,41.9854c2.84,.2318 3.323-2.8977 1.198-3.0908"/>
<path d="m158.461,33.5435c-.985-1.2555-3.245-1.6805-3.284,.9853"/>
</g>
<g fill="#fff">
<path d="m154.907,37.5615c-.966-2.3954-3.439-2.7431-4.753-1.5454-1.093,.9968-1.12,3.5931 1.237,4.1339 .811-.9658 2.395-2.2408 3.516-2.5885z"/>
<path d="m153.844,36.0548c-1.391-1.2364-3.439,1.1012-1.584,3.2453"/>
</g>
</g>
<path d="m158.461,33.5435c-.85-.9079-2.704-.1932-2.183,1.6421 .406-.8499 1.275-1.5648 2.183-1.6421z"/>
<path d="m153.209,38.4931c.585-.4247 1.189-.7736 1.698-.9316-.278-.6874-.679-1.2063-1.142-1.5683-.442-.3053-1.712,1.4026-.556,2.4999z"/>
<g fill="none" stroke="#000" stroke-linecap="round" stroke-width=".125">
<path d="m150.927,35.3593c-1.391-.9272-2.666-.8499-3.091-.0772-1.004-.0387-1.835,.6954-1.874,2.1635"/>
<path d="m148.107,38.0638c-1.661-1.1396-3.941-.7146-3.786,1.8353"/>
</g>
</g>
<g fill="none" stroke="#000" stroke-linecap="round" stroke-width=".125" transform="matrix(4.16667 0 0 4.16667 -5.45921 -5.45892)">
<path d="m143.316,41.3477c.811-.6568 1.97-1.1204 2.859,.0387"/>
<path d="m155.718,38.8365c-.309,.4249-.541,1.0817-.039,2.0863-.618-.8114-2.163-.8114-3.825,1.3521"/>
<path d="m159.388,38.7206c-2.009,.2318-1.97,1.5453-.348,2.1249"/>
<path d="m145.093,33.8139c-1.7-.3477-2.936,.6568-.579,1.5068"/>
<path d="m148.339,32.6549c-2.396-.5795-3.362,.0386-2.28,.5795"/>
<path d="m141.423,42.2749c-.077,.85 .386,1.9704 1.777,.6955"/>
<path d="m141.887,44.8249c0,.2318-.039,.5022-.194,.6954"/>
<path d="m136.323,33.5049c-1.468-.425-1.738-1.7772-.038-1.6613"/>
<path d="m135.821,36.6343c-1.623-.5409-1.623-2.1249-.271-1.9704"/>
<path d="m138.834,35.823c-1.893-.4637-1.97-1.7773-.54-1.5841"/>
<path d="m139.066,31.8049c-1.004-.0772-2.55,1.0432 .039,1.7"/>
<path d="m141.887,34.0457c-2.357-.3477-2.318,.6182-.928,1.2364"/>
<path d="m143.664,31.8049c-1.816-.3477-2.434,.7341-1.198,1.1977"/>
<path d="m137.946,38.4888c-.445-.3669-.811-2.125 1.313-1.6032"/>
<path d="m142.35,37.9479c-1.429-.3864-2.781,1.0045-1.468,1.8158"/>
<path d="m144.243,36.2866c-1.506-.2705-2.781,.1545-1.97,.6954"/>
</g>
<g fill="#fff" stroke="#000" stroke-width=".125" transform="matrix(4.16667 0 0 4.16667 -5.45921 -5.45892)">
<path d="m127.385,41.9087c.931-.221 2.292,.2346 4.379,1.2162 1.314,.6182 5.255,1.9318 7.727,.6182-2.55,.9272-4.481-2.9363-6.413-2.4726-1.932,.4636-5.467,1.1783-6.954-.2319 3.631,.2319 5.584-2.6451 9.735-.1545 1.16,.6954 2.628,1.1591 3.941,1.0818-3.399-4.0953-7.881-1.4682-8.345-4.7907 2.048,2.2022 7.051-.5023 9.601,3.6316"/>
<path d="m158.381,33.5441c-.849,.1573-1.61,.6562-2.103,1.6415"/>
<path d="m132.19,37.7915c-.478-.595-.262-1.1881-.775-1.6573"/>
</g>
</svg>
