<svg xmlns="http://www.w3.org/2000/svg" viewBox="0 0 1800 1200">
<g fill-rule="evenodd" stroke-width="1.25">
<path fill="#009" d="m0,0h1800v1200h-1800z"/>
<path fill="#c00" d="m0,300h1800v600h-1800z"/>
</g>
<g fill="#fff" stroke="#c00" stroke-width="3">
<g fill-rule="evenodd">
<path d="m550.114,631.417h699.776v113.152h-699.776z"/>
<path d="m549.6229,744.5684-11.3025,26.624 723.3611,0-11.3024-26.624-700.7562,0z"/>
<path d="m1108.2662,744.5512-13.3638,26.6603 160.3653,0-13.3638-26.6603-133.6377,0z"/>
<path d="m1142.0744,744.5694-6.906,26.624 82.8732,0-6.9061-26.624-69.0611,0z"/>
<path d="m1154.3376,744.5694-4.4634,26.624 53.561,0-4.4634-26.624-44.6342,0z"/>
<path d="m815.9265,744.5689-14.4148,26.624 194.9777,0-14.4148-26.624-166.1481,0z"/>
<path d="m546.183,629.696h707.637v26.624h-707.637z"/>
<path d="m1108.08,631.657h134.02v112.708h-134.02z"/>
<path d="m1203.95,684.476h13.4v59.883h-13.4z"/>
<path d="m1144.98,684.475h13.41v59.883h-13.41z"/>
<path d="m858.8082,744.6573-8.1432,26.4472 97.7189,0-8.1432-26.4472-81.4325,0z"/>
<path d="m872.1308,744.4334-4.6098,20.1841 63.3174,0-4.6098-20.1841-54.0978,0z"/>
<path d="m816.584,629.021h165.42v115.413h-165.42z"/>
<path d="m949.12,684.465h13.483v59.883h-13.483z"/>
<path d="m838.279,684.46h13.493v59.883h-13.493z"/>
<path d="m859.98,604.108h80.002v140.355h-80.002z"/>
<path d="m919.015,684.462h13.483v59.882h-13.483z"/>
<path d="m866.402,684.464h13.493v59.883h-13.493z"/>
<path d="m860.5994,627.0019 38.256,56.8235 40.508-56.8235-78.764,0z"/>
<path d="m1156.4,631.417h39.31v139.776h-39.31z"/>
<path d="m1162.93,631.417h26.18v139.776h-26.18z"/>
<path d="m559.0075,744.5694-13.7137,26.624 164.5646,0-13.7137-26.624-137.1371,0z"/>
<path d="m591.9562,744.5694-6.4474,26.624 77.3683,0-6.4474-26.624-64.4736,0z"/>
<path d="m603.4289,744.5694-4.1137,26.624 49.3643,0-4.1137-26.624-41.1369,0z"/>
<path d="m557.977,631.417h137.595v113.152h-137.595z"/>
<path d="m584.797,684.48h13.868v59.883h-13.868z"/>
<path d="m648.593,684.482h13.869v59.883h-13.869z"/>
<path d="m605.152,631.417h39.313v139.776h-39.313z"/>
<path d="m611.678,631.417h26.183v139.776h-26.183z"/>
<path d="m538.32,604.782h723.36v26.625h-723.36z"/>
<path d="m1270.8521,618.8887 1.1823-82.3885c0,0-3.5483,23.1535-14.1963,23.1535-10.6471,0-704.4764,0-715.1233,0-10.6481,0-14.1974-23.1535-14.1974-23.1535l1.1824,82.3885h741.1524z"/>
<path d="m1263.3,602.9034 1.1582-64.4182c0,0-3.476,23.1642-13.907,23.1642-10.4301,0-690.1193,0-700.5493,0-10.4311,0-13.9081-23.1642-13.9081-23.1642l1.1583,64.4182h726.0479z"/>
<path d="m518.24,764.529h760.62v34.231h-760.62z"/>
<path d="m506.627,771.864h783.843v34.231h-783.843z"/>
<path d="m486.306,791.425h827.384v34.231h-827.384z"/>
<path d="m457.274,815.875h885.456v34.231h-885.456z"/>
</g>
<path d="m428.433,850.298h943.137v33.85h-943.137z"/>
<g fill-rule="evenodd">
<path d="m605.152,764.529h39.313v119.808h-39.313z"/>
<path d="m611.704,764.529h26.209v119.808h-26.209z"/>
<path d="m1155.54,764.529h39.31v119.808h-39.31z"/>
<path d="m1162.09,764.529h26.21v119.808h-26.21z"/>
<path d="m819.959,600.181h160.083a14.31,14.31 0 0,1 14.31,14.31 14.31,14.31 0 0,1 -14.31,14.31h-160.083a14.31,14.31 0 0,1 -14.31-14.31 14.31,14.31 0 0,1 14.31-14.31"/>
<path d="m997.0728,617.0075 1.2127-94.3514c0,0-3.6392,23.1431-14.5601,23.1431-10.9198,0-156.5245,0-167.4443,0-10.9209,0-14.5611-23.1431-14.5611-23.1431l1.2127,94.3514h194.1402z"/>
<path d="m981.9166,592.5467 1.0146-75.6074c0,0-3.0448,18.5455-12.182,18.5455-9.1363,0-130.9606,0-140.0969,0-9.1372,0-12.183-18.5455-12.183-18.5455l1.0146,75.6074h162.4327z"/>
<path d="m853.938,591.9674 44.7457,38.5983 47.3798-38.5983-92.1255,0z"/>
<path d="m927.1799,390.1383 .1682-20.358c-21.0326,0-15.812-22.1498-15.812-30.5422 6.1993-8.4449 7.9326-20.2262-9.3692-28.7969-16.9346,9.5655-15.5988,20.1914-9.3688,28.087 .093,9.3256 6.9158,31.2521-16.1367,31.2521l.1678,20.358h50.3506z"/>
<path d="m942.8032,416.2047 .2472-26.8496c0,0 6.1253-4.93 4.1494-11.9656-1.9764-7.0356-10.9887,8.8712-10.9887,8.8712h-68.4997c0,0-10.3651-15.9068-12.3409-8.8712-1.9758,7.0357 5.5015,11.9656 5.5015,11.9656l.2465,26.8496h81.6847z"/>
</g>
<path d="m871.252,354.218h61.506v14.886h-61.506z"/>
<path d="m866.644,370.617h69.234v14.744h-69.234z"/>
<path fill-rule="evenodd" d="m874.9946,386.1542-.2695-15.3202c4.3675-3.9718 6.0609,7.8706 6.0609,7.8706 0,0 1.8005-16.5831 20.5172-23.9598 18.716,7.3767 20.5165,24.9663 20.5165,24.9663 0,0 1.6941-12.8489 6.0616-8.8771l-.2702,15.3202h-52.6165z"/>
<path d="m879.356,339.63h45.297v14.204h-45.297z"/>
<g fill-rule="evenodd">
<path d="m870.7962,418.2511-.3095-17.5947c5.0159-4.5614 6.9607,9.039 6.9607,9.039 0,0 2.0678-19.0451 23.5633-27.5169 21.4947,8.4718 23.5625,28.6728 23.5625,28.6728 0,0 1.9456-14.7564 6.9615-10.195l-.3103,17.5947h-60.4281z"/>
<path d="m952.6292,453.0414 .3066-33.3032c0,0 7.5976-6.115 5.1468-14.8418-2.4514-8.7267-13.6301,11.0035-13.6301,11.0035h-84.9646c0,0-12.8565-19.7302-15.3072-11.0035-2.4507,8.7268 6.8239,14.8418 6.8239,14.8418l.3058,33.3032h101.3188z"/>
<path d="m867.017,453.2879-.3545-20.1535c5.7454-5.2248 7.9729,10.3536 7.9729,10.3536 0,0 2.3685-21.8148 26.9901-31.5186 24.6206,9.7038 26.9891,32.8427 26.9891,32.8427 0,0 2.2285-16.9025 7.9739-11.6776l-.3555,20.1535h-69.2161z"/>
<path d="m960.7683,496.5759 .3546-39.3457c0,0 8.7894-7.2244 5.9542-17.5346-2.836-10.3101-15.7682,13-15.7682,13h-98.293c0,0-14.8733-23.31-17.7084-13-2.8352,10.3102 7.8944,17.5346 7.8944,17.5346l.3538,39.3457h117.2127z"/>
<path d="m861.5466,496.2227-.4101-23.3151c6.6467-6.0445 9.2237,11.9778 9.2237,11.9778 0,0 2.74-25.2369 31.2241-36.463 28.4829,11.2261 31.223,37.9948 31.223,37.9948 0,0 2.5781-19.554 9.2248-13.5095l-.4112,23.3151h-80.0743z"/>
<path d="m965.6966,542.7745 .3908-43.2167c0,0 9.6838-7.9352 6.56-19.2598-3.1246-11.3244-17.3728,14.2789-17.3728,14.2789h-108.2953c0,0-16.3868-25.6034-19.5104-14.2789-3.1237,11.3245 8.6977,19.2598 8.6977,19.2598l.3898,43.2167h129.1403z"/>
<path d="m970.0596,560.0053 .4187-34.355c0,0 10.377-6.3081 7.0297-15.3105-3.3483-9.0023-18.6166,11.351-18.6166,11.351h-116.0484c0,0-17.56-20.3533-20.9072-11.351-3.3473,9.0024 9.3204,15.3105 9.3204,15.3105l.4177,34.355h138.3857z"/>
<path d="m854.0427,540.2503-.4769-27.1089c7.7282-7.028 10.7246,13.9268 10.7246,13.9268 0,0 3.1859-29.3435 36.305-42.3964 33.1177,13.0529 36.3036,44.1774 36.3036,44.1774 0,0 2.9976-22.7359 10.7259-15.7078l-.4782,27.1089h-93.1041z"/>
<path d="m851.8724,592.1924-.0273-28.567c8.0235-5.1802 12.6177,22.5902 12.6177,22.5902 0,0 1.1535-41.8299 35.5378-51.4508 34.383,9.6208 35.5365,51.4508 35.5365,51.4508 0,0 4.5955-27.7704 12.619-22.5902l-.0287,28.567h-96.2549z"/>
<path d="m857.6463,630.9557-.4339-31.4426c7.0312-8.1516 9.7574,16.1531 9.7574,16.1531 0,0 2.8986-34.0344 33.0308-49.1738 30.131,15.1395 33.0296,51.2396 33.0296,51.2396 0,0 2.7273-26.3704 9.7586-18.2189l-.435,31.4426h-84.7075z"/>
<path d="m988.524,684.467h13.866v59.883h-13.866z"/>
<path d="m1082.83,684.464h13.87v59.883h-13.87z"/>
<path d="m1035.68,684.462h13.87v59.883h-13.87z"/>
<path d="m1013.49,684.461h13.87v59.882h-13.87z"/>
<path d="m1057.87,684.461h13.87v59.882h-13.87z"/>
<path d="m703.602,684.471h13.869v59.883h-13.869z"/>
<path d="m748.756,684.465h13.869v59.883h-13.869z"/>
<path d="m726.566,684.464h13.868v59.883h-13.868z"/>
<path d="m793.91,684.468h13.868v59.883h-13.868z"/>
<path d="m770.946,684.464h13.869v59.883h-13.869z"/>
<path d="m562.596,603.308h129.069a14.4319,14.4319 0 0,1 14.432,14.432 14.4319,14.4319 0 0,1 -14.432,14.432h-129.069a14.4319,14.4319 0 0,1 -14.431-14.432 14.4319,14.4319 0 0,1 14.431-14.432"/>
<path d="m705.7102,620.2574 1.2127-94.3514c0,0-3.6392,23.1431-14.5601,23.1431-10.9198,0-122.5245,0-133.4443,0-10.9209,0-14.5611-23.1431-14.5611-23.1431l1.2127,94.3514h160.1401z"/>
<path d="m693.0691,599.1146 1.0146-75.6074c0,0-9.0448,18.5455-18.182,18.5455-9.1363,0-90.9606,0-100.0969,0-9.1372,0-18.183-18.5455-18.183-18.5455l1.0146,75.6074h134.4327z"/>
<path d="m591.7949,583.4864 33.7663,29.1273 35.7541-29.1273-69.5204,0z"/>
<path d="m647.0653,447.1806 .1269-15.3627c-15.8717,0-11.9322-16.7149-11.9322-23.048 4.6782-6.3728 5.9862-15.2632-7.0702-21.7309-12.7793,7.2184-11.7713,15.237-7.0699,21.1952 .0702,7.0374 5.2188,23.5837-12.1772,23.5837l.1266,15.3627h37.9959z"/>
<path d="m658.855,466.851 .1865-20.2614c0,0 4.6223-3.7203 3.1313-9.0296-1.4914-5.3093-8.2924,6.6945-8.2924,6.6945h-51.6917c0,0-7.8218-12.0037-9.3128-6.6945-1.491,5.3093 4.1516,9.0296 4.1516,9.0296l.186,20.2614h61.6415z"/>
</g>
<path d="m604.861,420.074h46.413v11.233h-46.413z"/>
<path d="m601.383,432.449h52.246v11.127h-52.246z"/>
<path fill-rule="evenodd" d="m607.6848,444.1741-.2034-11.5611c3.2958-2.9972 4.5737,5.9393 4.5737,5.9393 0,0 1.3587-12.5141 15.4829-18.0807 14.1236,5.5666 15.4823,18.8402 15.4823,18.8402 0,0 1.2784-9.6961 4.5742-6.6989l-.2039,11.5611h-39.7059z"/>
<path d="m610.976,409.066h34.183v10.718h-34.183z"/>
<g fill-rule="evenodd">
<path d="m604.5165,466.3953-.2336-13.2775c3.7852-3.4422 5.2527,6.8211 5.2527,6.8211 0,0 1.5604-14.372 17.7815-20.765 16.2205,6.3931 17.7809,21.6373 17.7809,21.6373 0,0 1.4682-11.1356 5.2533-7.6934l-.2342,13.2775h-45.6007z"/>
<path d="m666.27,492.649 .2313-25.1315c0,0 5.7333-4.6145 3.8839-11.2-1.8499-6.5854-10.2856,8.3035-10.2856,8.3035h-64.1166c0,0-9.7019-14.889-11.5512-8.3035-1.8494,6.5855 5.1495,11.2 5.1495,11.2l.2307,25.1315h76.4579z"/>
<path d="m601.6647,492.835-.2675-15.2084c4.3356-3.9428 6.0166,7.8131 6.0166,7.8131 0,0 1.7873-16.462 20.3674-23.7848 18.5794,7.3228 20.3667,24.784 20.3667,24.784 0,0 1.6817-12.7551 6.0173-8.8123l-.2682,15.2084h-52.2323z"/>
<path d="m672.412,523.5013 .2676-29.6913c0,0 6.6327-5.4518 4.4932-13.2321-2.1401-7.7803-11.8991,9.8101-11.8991,9.8101h-74.1746c0,0-11.2238-17.5904-13.3633-9.8101-2.1395,7.7804 5.9573,13.2321 5.9573,13.2321l.267,29.6913h88.4519z"/>
<path d="m597.5366,517.2348-.3095-17.5942c5.0158-4.5613 6.9605,9.0387 6.9605,9.0387 0,0 2.0677-19.0445 23.5626-27.516 21.494,8.4715 23.5617,28.6719 23.5617,28.6719 0,0 1.9455-14.756 6.9613-10.1947l-.3103,17.5942h-60.4262z"/>
<path d="m676.131,554.364 .2949-32.6125c0,0 7.3076-5.9881 4.9504-14.534-2.3579-8.5457-13.11,10.7753-13.11,10.7753h-81.7226c0,0-12.366-19.321-14.7231-10.7753-2.3572,8.5458 6.5635,14.534 6.5635,14.534l.2941,32.6125h97.4528z"/>
<path d="m679.4234,565.3668 .316-25.9252c0,0 7.8308-4.7602 5.3048-11.5537-2.5267-6.7934-14.0486,8.5658-14.0486,8.5658h-87.5733c0,0-13.2513-15.3592-15.7772-8.5658-2.526,6.7935 7.0334,11.5537 7.0334,11.5537l.3152,25.9252h104.4296z"/>
<path d="m591.874,550.4592-.3599-20.4571c5.8319-5.3035 8.0931,10.5095 8.0931,10.5095 0,0 2.4042-22.1434 27.3967-31.9935 24.9915,9.8501 27.3957,33.3375 27.3957,33.3375 0,0 2.2621-17.1571 8.0941-11.8536l-.3608,20.4571h-70.2589z"/>
<path d="m590.2362,583.6562-.0206-21.5575c6.0547-3.9091 9.5216,17.0472 9.5216,17.0472 0,0 .8704-31.566 26.8178-38.8261 25.9464,7.2601 26.8168,38.8261 26.8168,38.8261 0,0 3.4679-20.9563 9.5226-17.0472l-.0216,21.5575h-72.6366z"/>
<path d="m588.6275,631.8537-.3853-27.9242c6.2445-7.2394 8.6656,14.3456 8.6656,14.3456 0,0 2.5743-30.2261 29.3347-43.6715 26.7595,13.4454 29.3337,45.5061 29.3337,45.5061 0,0 2.4221-23.4197 8.6666-16.1802l-.3863,27.9242h-75.229z"/>
<path d="m1111.47,603.588h129.07a14.4319,14.4319 0 0,1 14.43,14.432 14.4319,14.4319 0 0,1 -14.43,14.431h-129.07a14.4319,14.4319 0 0,1 -14.43-14.431 14.4319,14.4319 0 0,1 14.43-14.432"/>
<path d="m1254.583,620.5366 1.2127-94.3514c0,0-3.6392,23.1431-14.5601,23.1431-10.9197,0-122.5245,0-133.4443,0-10.9209,0-14.5611-23.1431-14.5611-23.1431l1.2127,94.3514h160.1401z"/>
<path d="m1241.9419,599.3938 1.0146-75.6074c0,0-9.0449,18.5455-18.1821,18.5455-9.1363,0-90.9606,0-100.0969,0-9.1372,0-18.1829-18.5455-18.1829-18.5455l1.0146,75.6074h134.4327z"/>
<path d="m1140.6677,583.7656 33.7663,29.1273 35.7541-29.1273-69.5204,0z"/>
<path d="m1195.938,447.4599 .127-15.3627c-15.8718,0-11.9322-16.7149-11.9322-23.048 4.6782-6.3728 5.9862-15.2632-7.0703-21.7309-12.7793,7.2184-11.7713,15.237-7.0699,21.1952 .07,7.0374 5.2188,23.5837-12.1771,23.5837l.1266,15.3627h37.9959z"/>
<path d="m1207.7278,467.1303 .1865-20.2614c0,0 4.6223-3.7203 3.1313-9.0296-1.4915-5.3093-8.2924,6.6945-8.2924,6.6945h-51.6918c0,0-7.8217-12.0037-9.3127-6.6945-1.491,5.3093 4.1516,9.0296 4.1516,9.0296l.186,20.2614h61.6415z"/>
</g>
<path d="m1153.73,420.353h46.42v11.233h-46.42z"/>
<path d="m1150.26,432.728h52.24v11.127h-52.24z"/>
<path fill-rule="evenodd" d="m1156.5576,444.4533-.2034-11.5611c3.2959-2.9972 4.5737,5.9393 4.5737,5.9393 0,0 1.3587-12.5141 15.4829-18.0807 14.1236,5.5666 15.4823,18.8402 15.4823,18.8402 0,0 1.2784-9.6961 4.5743-6.6989l-.2039,11.5611h-39.7059z"/>
<path d="m1159.85,409.345h34.18v10.718h-34.18z"/>
<g fill-rule="evenodd">
<path d="m1153.3893,466.6745-.2336-13.2775c3.7852-3.4422 5.2528,6.8211 5.2528,6.8211 0,0 1.5604-14.372 17.7814-20.765 16.2205,6.3931 17.7809,21.6373 17.7809,21.6373 0,0 1.4682-11.1356 5.2534-7.6934l-.2342,13.2775h-45.6007z"/>
<path d="m1215.1427,492.9283 .2314-25.1315c0,0 5.7333-4.6145 3.8839-11.2-1.8499-6.5854-10.2856,8.3035-10.2856,8.3035h-64.1166c0,0-9.7019-14.889-11.5512-8.3035-1.8494,6.5855 5.1495,11.2 5.1495,11.2l.2307,25.1315h76.4579z"/>
<path d="m1150.5374,493.1143-.2675-15.2084c4.3356-3.9428 6.0166,7.8131 6.0166,7.8131 0,0 1.7874-16.462 20.3675-23.7848 18.5794,7.3228 20.3667,24.784 20.3667,24.784 0,0 1.6817-12.7551 6.0173-8.8123l-.2682,15.2084h-52.2324z"/>
<path d="m1221.2848,523.7805 .2676-29.6913c0,0 6.6327-5.4518 4.4932-13.2321-2.1401-7.7803-11.8992,9.8101-11.8992,9.8101h-74.1746c0,0-11.2238-17.5904-13.3632-9.8101-2.1395,7.7804 5.9573,13.2321 5.9573,13.2321l.267,29.6913h88.4519z"/>
<path d="m1146.4093,517.514-.3095-17.5942c5.0158-4.5613 6.9605,9.0387 6.9605,9.0387 0,0 2.0677-19.0445 23.5625-27.516 21.494,8.4715 23.5618,28.6719 23.5618,28.6719 0,0 1.9455-14.756 6.9613-10.1947l-.3104,17.5942h-60.4262z"/>
<path d="m1225.0038,554.6432 .2949-32.6125c0,0 7.3076-5.9881 4.9504-14.534-2.3579-8.5457-13.11,10.7753-13.11,10.7753h-81.7226c0,0-12.3659-19.321-14.7231-10.7753-2.3572,8.5458 6.5635,14.534 6.5635,14.534l.2941,32.6125h97.4528z"/>
<path d="m1228.2962,565.6461 .316-25.9252c0,0 7.8308-4.7602 5.3048-11.5537-2.5267-6.7934-14.0486,8.5658-14.0486,8.5658h-87.5732c0,0-13.2513-15.3592-15.7772-8.5658-2.526,6.7935 7.0334,11.5537 7.0334,11.5537l.3152,25.9252h104.4296z"/>
<path d="m1140.7467,550.7384-.3598-20.4571c5.8319-5.3035 8.093,10.5095 8.093,10.5095 0,0 2.4042-22.1434 27.3968-31.9935 24.9915,9.8501 27.3957,33.3375 27.3957,33.3375 0,0 2.2621-17.1571 8.094-11.8536l-.3608,20.4571h-70.2589z"/>
<path d="m1139.109,583.9354-.021-21.5575c6.0548-3.9091 9.5216,17.0472 9.5216,17.0472 0,0 .8705-31.566 26.8179-38.8261 25.9463,7.2601 26.8168,38.8261 26.8168,38.8261 0,0 3.4678-20.9563 9.5226-17.0472l-.022,21.5575h-72.6366z"/>
<path d="m1137.5003,632.1329-.3853-27.9242c6.2445-7.2394 8.6656,14.3456 8.6656,14.3456 0,0 2.5742-30.2261 29.3347-43.6715 26.7595,13.4454 29.3337,45.5061 29.3337,45.5061 0,0 2.4221-23.4197 8.6666-16.1802l-.3863,27.9242h-75.229z"/>
<path d="m879.873,631.214h39.314v139.776h-39.314z"/>
<path d="m886.399,631.214h26.183v139.776h-26.183z"/>
<path d="m879.322,764.326h39.313v119.808h-39.313z"/>
<path d="m885.561,764.326h26.208v119.808h-26.208z"/>
</g>
</g>
</svg>
