<svg xmlns="http://www.w3.org/2000/svg" viewBox="0 0 500 300" xmlns:xlink="http://www.w3.org/1999/xlink">
<path fill="#ffc61e" d="m0,0h500v300h-500z"/>
<path fill="#fff" d="m0,75h500v225h-500z"/>
<path fill="#ce1126" d="m0,150h500v150h-500z"/>
<path fill="#3a75c4" d="m0,225h500v75h-500z"/>
<path fill="#3d8e33" d="m0,300l250-150-250-150v300z"/>
<path fill="#fff" d="m152.5,150c0,37.2792-30.2208,67.5-67.5,67.5-37.2792,0-67.5-30.2208-67.5-67.5-0-37.2792 30.2208-67.5 67.5-67.5 37.2792,0 67.5,30.2208 67.5,67.5z"/>
<path fill="#3d8e33" d="m182.5,150c0,37.2792-30.2208,67.5-67.5,67.5-37.2792,0-67.5-30.2208-67.5-67.5 0-37.2792 30.2208-67.5 67.5-67.5 37.2792,0 67.5,30.2208 67.5,67.5h.0001v0h-.0001z"/>
<use xlink:href="#path6092" transform="translate(0 96.625)"/>
<path fill="#fff" id="path6092" d="m88.1124,97.825h9.0821l2.8055-8.6375 2.8055,8.6375h9.0821l-7.3465,5.3375 2.8055,8.6375-7.3465-5.3375-7.3465,5.3375 2.8055-8.6375-7.3465-5.3375z"/>
<use xlink:href="#path6092" transform="translate(0 32.2083)"/>
<use xlink:href="#path6092" transform="translate(0 64.4166)"/>
</svg>
