<svg xmlns="http://www.w3.org/2000/svg" viewBox="0 0 1200 600">
<path fill="#006b3f" d="m0,0h1200v600h-1200z"/>
<path fill="#fff" d="m0,325h1200v50h-1200z"/>
<path d="m0,275h1200v50h-1200z"/>
<g fill="#fcd116">
<path d="m0,225h1200v50h-1200z"/>
<path d="m525,0h50v600h-50z"/>
</g>
<path d="m575,0h50v600h-50z"/>
<path fill="#fff" d="m625,0h50v600h-50z"/>
<path fill="#d41c30" d="m750.8831,300.2523a150.3785,150.3785 0 1,1 -300.7569,0 150.3785,150.3785 0 1,1 300.7569,0z" transform="matrix(.99748 0 0 .99748 1.00668 .50345)"/>
<g fill-rule="evenodd" stroke="#000">
<g fill="#006b3f">
<path d="m595.19,181.5926c0-.2213 4.81-13.7188 4.81-13.7188l4.3727,13.4975c0,0 14.6484,.4426 14.6484,.2213 0-.2213-11.5875,8.851-11.5875,8.851 0,0 5.4657,15.4891 5.2473,15.0466-.2187-.4426-12.6808-9.2936-12.6808-9.2936 0,0-12.6805,8.851-12.4619,8.851 .2186,0 4.8097-14.604 4.8097-14.604l-11.3688-8.6297 14.211-.2213z"/>
<path d="m604.81,418.7492c0,.2213-4.81,13.7188-4.81,13.7188l-4.3727-13.4975c0,0-14.6484-.4426-14.6484-.2213 0,.2213 11.5875-8.851 11.5875-8.851 0,0-5.4657-15.4891-5.2473-15.0466 .2187,.4426 12.6808,9.2936 12.6808,9.2936 0,0 12.6805-8.851 12.4619-8.851-.2186,0-4.8097,14.604-4.8097,14.604l11.3688,8.6297-14.211,.2213z"/>
<path d="m669.7161,215.4582c0,.2213-4.81,13.7188-4.81,13.7188l-4.3727-13.4975c0,0-14.6484-.4426-14.6484-.2213 0,.2213 11.5875-8.851 11.5875-8.851 0,0-5.4657-15.4891-5.2473-15.0466 .2187,.4426 12.6808,9.2936 12.6808,9.2936 0,0 12.6805-8.851 12.4619-8.851-.2186,0-4.8097,14.604-4.8097,14.604l11.3688,8.6297-14.211,.2213z"/>
<path d="m711.8123,338.5087c0,.2213-4.81,13.7188-4.81,13.7188l-4.3727-13.4975c0,0-14.6484-.4426-14.6484-.2213 0,.2213 11.5875-8.851 11.5875-8.851 0,0-5.4657-15.4891-5.2473-15.0466 .2187,.4426 12.6808,9.2936 12.6808,9.2936 0,0 12.6805-8.851 12.4619-8.851-.2186,0-4.8097,14.604-4.8097,14.604l11.3688,8.6297-14.211,.2213z"/>
<path d="m497.789,342.0251c0,.2213-4.81,13.7188-4.81,13.7188l-4.3727-13.4975c0,0-14.6484-.4426-14.6484-.2213 0,.2213 11.5875-8.851 11.5875-8.851 0,0-5.4657-15.4891-5.2473-15.0466 .2187,.4426 12.6808,9.2936 12.6808,9.2936 0,0 12.6805-8.851 12.4619-8.851-.2186,0-4.8097,14.604-4.8097,14.604l11.3688,8.6297-14.211,.2213z"/>
<path d="m536.6461,216.8973c0,.2213-4.81,13.7188-4.81,13.7188l-4.3727-13.4975c0,0-14.6484-.4426-14.6484-.2213 0,.2213 11.5875-8.851 11.5875-8.851 0,0-5.4657-15.4891-5.2473-15.0466 .2187,.4426 12.6808,9.2936 12.6808,9.2936 0,0 12.6805-8.851 12.4619-8.851-.2186,0-4.8097,14.604-4.8097,14.604l11.3688,8.6297-14.211,.2213z"/>
<path d="m487.3174,261.8635c0-.2213 4.81-13.7188 4.81-13.7188l4.3727,13.4975c0,0 14.6484,.4426 14.6484,.2213 0-.2213-11.5876,8.851-11.5876,8.851 0,0 5.4657,15.4891 5.2473,15.0466-.2187-.4426-12.6808-9.2936-12.6808-9.2936 0,0-12.6805,8.851-12.4619,8.851 .2186,0 4.8097-14.604 4.8097-14.604l-11.3688-8.6297 14.211-.2213z"/>
<path d="m529.1417,384.6857c0-.2213 4.81-13.7188 4.81-13.7188l4.3727,13.4975c0,0 14.6484,.4426 14.6484,.2213 0-.2213-11.5875,8.851-11.5875,8.851 0,0 5.4657,15.4891 5.2473,15.0466-.2187-.4426-12.6808-9.2936-12.6808-9.2936 0,0-12.6805,8.851-12.4619,8.851 .2186,0 4.8097-14.604 4.8097-14.604l-11.3688-8.6297 14.211-.2213z"/>
<path d="m701.4305,258.5851c0-.2213 4.81-13.7188 4.81-13.7188l4.3727,13.4975c0,0 14.6484,.4426 14.6484,.2213 0-.2213-11.5876,8.851-11.5876,8.851 0,0 5.4657,15.4891 5.2473,15.0466-.2187-.4426-12.6808-9.2936-12.6808-9.2936 0,0-12.6805,8.851-12.4619,8.851 .2186,0 4.8097-14.604 4.8097-14.604l-11.3688-8.6297 14.211-.2213z"/>
<path d="m662.4505,383.5299c0-.2213 4.81-13.7188 4.81-13.7188l4.3727,13.4975c0,0 14.6484,.4426 14.6484,.2213 0-.2213-11.5875,8.851-11.5875,8.851 0,0 5.4657,15.4891 5.2473,15.0466-.2187-.4426-12.6808-9.2936-12.6808-9.2936 0,0-12.6805,8.851-12.4619,8.851 .2186,0 4.8097-14.604 4.8097-14.604l-11.3688-8.6297 14.211-.2213z"/>
<g stroke-width="2.5" transform="matrix(.20613 -.02052 .0149 .23243 520.08502 151.81379)">
<ellipse cx="680.206" cy="586.126" rx="30.805" ry="189.825" transform="matrix(1.40512 -.00581 .00817 .99998 -534.2869 263.7234)"/>
<ellipse cx="680.206" cy="586.126" rx="30.805" ry="189.825" transform="matrix(1.48615 -.00581 .00864 .99998 -547.2176 267.0538)"/>
<ellipse cx="680.206" cy="586.126" rx="30.805" ry="189.825" transform="matrix(1.18905 -.00642 .00691 1.10525 -364.9289 214.0982)"/>
</g>
</g>
<g transform="matrix(1.26072 0 0 1.26072 70.0472 411.30814)">
<path fill="#9c4a00" stroke-width="2.505" d="m238.342,971.79c29.972-1.665 16.651-16.652 31.637-24.977 14.986-8.326 36.633-3.33 43.293,6.66 6.661,9.991 1.666,19.982 9.991,19.982 8.326,0 234.556-12.675 242.881-4.349 8.326,8.325 9.991,24.977 1.665,31.634-8.325,6.66-294.5,14.34-304.49,7.68-9.991-6.66-24.977-34.965-24.977-36.63z" transform="matrix(.20244 .00349 -.00394 .21385 340.8638 -247.3115)"/>
<g fill="#fcd116" stroke-width="3.853">
<path d="m529.59,405.459c0,39.983 45.562,27.879 46.81,61.249-.724,35.408-76.706,3.467-78.635-61.249 1.929-64.716 75.107-97.929 76.705-61.011 1.246,30.686-44.88,21.028-44.88,61.011z" transform="matrix(.14799 .00195 -.00275 .11459 340.4216 -81.69088)"/>
<path d="m529.59,405.459c0,39.983 45.562,27.879 46.81,61.249-.724,35.408-76.706,3.467-78.635-61.249 1.929-64.716 75.107-97.929 76.705-61.011 1.246,30.686-44.88,21.028-44.88,61.011z" transform="matrix(.14799 .00195 -.00275 .11459 344.4198 -81.63816)"/>
<path d="m529.59,405.459c0,39.983 45.562,27.879 46.81,61.249-.724,35.408-76.706,3.467-78.635-61.249 1.929-64.716 75.107-97.929 76.705-61.011 1.246,30.686-44.88,21.028-44.88,61.011z" transform="matrix(.14799 .00195 -.00275 .11459 348.7088 -81.79968)"/>
<path d="m529.59,405.459c0,39.983 45.562,27.879 46.81,61.249-.724,35.408-76.706,3.467-78.635-61.249 1.929-64.716 75.107-97.929 76.705-61.011 1.246,30.686-44.88,21.028-44.88,61.011z" transform="matrix(.14799 .00195 -.00275 .11459 352.7069 -81.74693)"/>
</g>
<ellipse fill="#9c4a00" cx="478.382" cy="-41.086" rx="3.534" ry="3.403" stroke-width=".399" transform="matrix(1.09455 .01648 -.02429 1.15366 -75.5714 4.67757)"/>
</g>
<g stroke-width="2.5" transform="matrix(1.25427 -.12736 .12736 1.25427 62.25418 507.29339)">
<g fill="#006b3f">
<ellipse cx="427.106" cy="904.998" rx="20.814" ry="24.144" transform="matrix(.16619 -.00807 .00169 .31521 369.7997 -361.6541)"/>
<ellipse cx="427.106" cy="904.998" rx="20.814" ry="24.144" transform="matrix(.16619 -.00807 .00169 .31521 364.0408 -362.7012)"/>
<ellipse cx="427.106" cy="904.998" rx="20.814" ry="24.144" transform="matrix(.16619 -.00807 .00169 .3152 360.6378 -370.5537)"/>
<ellipse cx="427.106" cy="904.998" rx="20.814" ry="24.144" transform="matrix(.1599 -.00891 .00162 .34772 369.2988 -399.3517)"/>
</g>
<g fill="#009543">
<ellipse cx="427.106" cy="904.998" rx="20.814" ry="24.144" transform="matrix(.1599 -.00835 .00162 .32604 377.4103 -379.0724)"/>
<ellipse cx="427.106" cy="904.998" rx="20.814" ry="24.144" transform="matrix(.1599 -.00835 .00162 .32604 373.222 -382.2137)"/>
<ellipse cx="427.106" cy="904.998" rx="20.814" ry="24.144" transform="matrix(.1599 -.00835 .00162 .32604 367.9866 -386.6638)"/>
</g>
<ellipse fill="#006b3f" cx="427.106" cy="904.998" rx="20.814" ry="24.144" transform="matrix(.1599 -.00835 .00162 .32604 363.0129 -389.5432)"/>
</g>
</g>
<g transform="matrix(1.26072 0 0 1.26072 -21.81527 423.65943)">
<path fill="#9461c9" fill-rule="evenodd" stroke="#000" stroke-width="2.5" d="m173.174,346.347c0,0-54.198,64.893-21.252,208.815 33.958,144.59 178.965,189.783 178.965,189.783 0,0 26.496-47.423 1.726-164.041-39.963-169.843-116.146-234.557-116.146-234.557h-43.293z" transform="matrix(.17689 .03219 -.03142 .18236 461.7877 -208.6117)"/>
</g>
<g fill="#006b3f" stroke="#000" fill-rule="evenodd" stroke-width="2.5" transform="matrix(1.25689 .09822 -.09822 1.25689 54.49792 408.83368)">
<ellipse cx="427.106" cy="904.998" rx="20.814" ry="24.144" transform="matrix(.16619 -.00807 .00169 .31521 369.7997 -361.6541)"/>
<ellipse cx="427.106" cy="904.998" rx="20.814" ry="24.144" transform="matrix(.16619 -.00807 .00169 .31521 364.0408 -362.7012)"/>
<ellipse cx="427.106" cy="904.998" rx="20.814" ry="24.144" transform="matrix(.16619 -.00807 .00169 .3152 360.6378 -370.5537)"/>
<ellipse cx="427.106" cy="904.998" rx="20.814" ry="24.144" transform="matrix(.1599 -.00891 .00162 .34772 369.2988 -399.3517)"/>
<ellipse cx="427.106" cy="904.998" rx="20.814" ry="24.144" transform="matrix(.1599 -.00835 .00162 .32604 377.4103 -379.0724)"/>
<ellipse cx="427.106" cy="904.998" rx="20.814" ry="24.144" transform="matrix(.1599 -.00835 .00162 .32604 373.222 -382.2137)"/>
<ellipse cx="427.106" cy="904.998" rx="20.814" ry="24.144" transform="matrix(.1599 -.00835 .00162 .32604 367.9866 -386.6638)"/>
<ellipse cx="427.106" cy="904.998" rx="20.814" ry="24.144" transform="matrix(.1599 -.00835 .00162 .32604 363.0129 -389.5432)"/>
</g>
<g transform="matrix(1.26072 0 0 1.26072 -21.81527 423.65943)">
<ellipse fill="#d41c30" cx="624.424" cy="606.107" rx="58.28" ry="186.495" fill-rule="evenodd" stroke="#000" stroke-width="1.25" transform="matrix(.15695 -.06063 .06364 .14841 369.6128 -145.0546)"/>
</g>
<g fill-rule="evenodd">
<g stroke="#000">
<g transform="matrix(1.26052 .02244 -.02244 1.26052 -65.70644 417.82424)">
<g fill="#009543">
<ellipse cx="218.132" cy="356.754" rx="10.823" ry="12.905" stroke-width="1.463" transform="matrix(.3953 0 0 .2927 445.0725 -230.5263)"/>
<g stroke-width="1.546">
<ellipse cx="218.132" cy="356.754" rx="10.823" ry="12.905" transform="matrix(.35412 0 0 .2927 457.1741 -235.9224)"/>
<ellipse cx="218.132" cy="356.754" rx="10.823" ry="12.905" transform="matrix(.35412 0 0 .2927 452.0043 -235.9224)"/>
</g>
</g>
<g fill="#006b3f">
<g stroke-width="1.56">
<ellipse cx="218.132" cy="356.754" rx="10.823" ry="12.905" transform="matrix(.37059 0 0 .27478 449.4811 -233.4606)"/>
<ellipse cx="218.132" cy="356.754" rx="10.823" ry="12.905" transform="matrix(.37059 0 0 .27478 448.9463 -237.9316)"/>
</g>
<ellipse cx="218.132" cy="356.754" rx="10.823" ry="12.905" stroke-width="1.546" transform="matrix(.35412 0 0 .2927 447.0128 -238.8517)"/>
<ellipse cx="218.132" cy="356.754" rx="10.823" ry="12.905" stroke-width="1.562" transform="matrix(.35412 0 0 .28673 448.0824 -241.577)"/>
<ellipse cx="218.132" cy="356.754" rx="10.823" ry="12.905" stroke-width="1.463" transform="matrix(.3953 0 0 .2927 432.772 -243.4769)"/>
<ellipse cx="218.132" cy="356.754" rx="10.823" ry="12.905" stroke-width="1.56" transform="matrix(.37059 0 0 .27478 445.9157 -243.4819)"/>
<ellipse cx="218.132" cy="356.754" rx="10.823" ry="12.905" stroke-width="1.562" transform="matrix(.35412 0 0 .28673 444.1605 -246.9731)"/>
<ellipse cx="218.132" cy="356.754" rx="10.823" ry="12.905" stroke-width="1.546" transform="matrix(.35412 0 0 .2927 436.1385 -243.1686)"/>
<g stroke-width="1.562">
<ellipse cx="218.132" cy="356.754" rx="10.823" ry="12.905" transform="matrix(.35412 0 0 .28673 437.4203 -243.8784)"/>
<ellipse cx="218.132" cy="356.754" rx="10.823" ry="12.905" transform="matrix(.35412 0 0 .28673 438.9908 -247.0197)"/>
</g>
</g>
</g>
<g fill="#006b3f" transform="matrix(.22644 -.0057 .00529 .23339 508.92932 150.33295)">
<ellipse cx="528.679" cy="564.479" rx="67.438" ry="205.644" stroke-width="2.545" transform="matrix(.97574 -.30793 .36305 .87448 -245.8061 324.3975)"/>
<ellipse cx="528.679" cy="646.07" rx="13.321" ry="40.796" stroke-width="2.5" transform="matrix(.91788 -.39685 .39685 .91788 -210.4826 304.4884)"/>
<g stroke-width="1.533">
<path d="m139.87,643.988c0,57.677-18.755,86.171-34.551,110.315 7.517-32.47 12.905-52.637 12.905-110.314 0-57.677 29.579-85.337 40.379-101.989-4.186,16.652-18.733,44.312-18.733,101.988z" transform="matrix(1.88282 -.45598 .95342 1.18219 -352.2551 -10.01956)"/>
<path d="m139.87,643.988c0,57.677-18.755,86.171-34.551,110.315 7.517-32.47 12.905-52.637 12.905-110.314 0-57.677 29.579-85.337 40.379-101.989-4.186,16.652-18.733,44.312-18.733,101.988z" transform="matrix(1.88282 -.45598 .95342 1.18219 -348.4234 44.05751)"/>
<path d="m139.87,643.988c0,57.677-18.755,86.171-34.551,110.315 7.517-32.47 12.905-52.637 12.905-110.314 0-57.677 29.579-85.337 40.379-101.989-4.186,16.652-18.733,44.312-18.733,101.988z" transform="matrix(1.87302 -.49468 .97758 1.16229 -361.9242 105.7834)"/>
</g>
<ellipse cx="528.679" cy="646.07" rx="13.321" ry="40.796" stroke-width="1.389" transform="matrix(1.81048 -.40052 .69907 1.63529 -915.63 -221.0144)"/>
<g stroke-width="1.64">
<ellipse cx="528.679" cy="646.07" rx="13.321" ry="40.796" transform="matrix(1.62567 -.23068 .54158 1.35284 -739.4891 -91.77486)"/>
<ellipse cx="528.679" cy="646.07" rx="13.321" ry="40.796" transform="matrix(1.63044 -.19719 .51251 1.36353 -750.6206 -91.82552)"/>
</g>
<g stroke-width="2.097">
<ellipse cx="528.679" cy="646.07" rx="13.321" ry="40.796" transform="matrix(1.31445 -.2006 .46889 1.01012 -531.0563 47.56802)"/>
<ellipse cx="528.679" cy="646.07" rx="13.321" ry="40.796" transform="matrix(1.32578 -.13044 .40342 1.03274 -517.8685 12.21143)"/>
</g>
<path stroke-width="2.086" d="m145.698,569.474c0,34.006-6.712,61.61-14.985,61.61-8.272,0-14.986-27.604-14.986-61.61" transform="matrix(1.02543 -.49277 .46438 1.17733 12.76656 -14.519)"/>
<g stroke-width="2.097">
<ellipse cx="528.679" cy="646.07" rx="13.321" ry="40.796" transform="matrix(1.32578 -.13044 .40342 1.03274 -519.5336 -34.41226)"/>
<ellipse cx="528.679" cy="646.07" rx="13.321" ry="40.796" transform="matrix(1.32875 -.10511 .37955 1.04001 -533.9751 -40.12073)"/>
</g>
<g stroke-width="2.88">
<path d="m145.698,569.474c0,34.006-6.712,61.61-14.985,61.61-8.272,0-14.986-27.604-14.986-61.61" transform="matrix(.6722 -.47182 .45894 .7991 39.48589 143.278)"/>
<path d="m145.698,569.474c0,34.006-6.712,61.61-14.985,61.61-8.272,0-14.986-27.604-14.986-61.61" transform="matrix(.6722 -.47182 .45894 .7991 51.14178 125.7941)"/>
</g>
<path stroke-width="2.086" d="m145.698,569.474c0,34.006-6.712,61.61-14.985,61.61-8.272,0-14.986-27.604-14.986-61.61" transform="matrix(.9374 -.64468 .64 1.09186 -40.19822 -10.74352)"/>
<path stroke-width="2.742" d="m145.698,569.474c0,34.006-6.712,61.61-14.985,61.61-8.272,0-14.986-27.604-14.986-61.61" transform="matrix(.6722 -.52022 .45894 .88108 68.62559 71.17856)"/>
</g>
<g fill="#9461c9" stroke-width="2.5" transform="matrix(1.38861 .34779 -.33483 1.22841 -129.49973 224.59019)">
<path d="m276.266,345.409c-12.278,9.174 .409,25.144 12.022,30.679 13.06,7.672 86.603,58.185 136.317,11.999-40.795,.833-118.663-63.183-148.339-42.678z" transform="matrix(.13441 -.03045 .04851 .21681 448.7474 -184.9145)"/>
<path d="m276.266,345.409c-12.278,9.174 .409,25.144 12.022,30.679 13.06,7.672 86.603,58.185 136.317,11.999-40.795,.833-118.663-63.183-148.339-42.678z" transform="matrix(.13441 -.03045 .04851 .21681 446.2043 -190.218)"/>
<path d="m276.266,345.409c-12.278,9.174 .409,25.144 12.022,30.679 13.06,7.672 86.603,58.185 136.317,11.999-40.795,.833-118.663-63.183-148.339-42.678z" transform="matrix(.13441 -.03045 .04851 .21681 443.3872 -195.1923)"/>
<path d="m276.266,345.409c-12.278,9.174 .409,25.144 12.022,30.679 13.06,7.672 86.603,58.185 136.317,11.999-40.795,.833-118.663-63.183-148.339-42.678z" transform="matrix(.13441 -.03045 .04851 .21681 438.6063 -200.4414)"/>
</g>
</g>
<g transform="matrix(1.26052 .02244 -.02244 1.26052 -6.63605 437.02976)">
<g stroke="#000" stroke-width="2.5">
<path fill="#9461c9" d="m211.167,247.301c21.773-12.065 56.618-9.749 79.734,11.165 19.36,16.943 45.307,75.194 70.322,92.834-20.227,.019-31.298-5.769-42.241-15.18-28.767,15.442-38.127,16.724-63.89,15.632-35.881-1.334-62.459-17.654-68.178-40.604-6.166-21.804 4.925-52.498 24.253-63.847z" transform="matrix(.20883 -.04091 .0473 .1806 407.8048 -213.6359)"/>
<ellipse fill="#d41c30" cx="287.235" cy="323.035" rx="14.154" ry="14.986" transform="matrix(.24521 0 0 .13433 401.8211 -215.1804)"/>
<ellipse fill="#fcd116" cx="204.578" cy="348.262" rx="23.254" ry="15.895" transform="matrix(.19364 -.07599 .06759 .17273 398.6623 -208.0622)"/>
</g>
<ellipse cx="283.905" cy="333.858" rx="5.828" ry="5.828" stroke-width="1.25" transform="matrix(.21412 0 0 .18518 411.2866 -233.7407)"/>
<path fill="#fcd116" stroke="#000" stroke-width="6.56" d="m516.796,260.294c4.425,18.107-6.674,43.083-33.133,52.609-26.775,13.173-46.079,41.831-55.641,88.017-47.244-103.27-23.107-148.275 20.6-160.346 37.377-14.363 60.42-13.371 68.174,19.72z" transform="matrix(.09229 .00089 -.0034 .08482 417.8523 -191.4926)"/>
<ellipse cx="198.985" cy="362.391" rx="4.71" ry="4.71" stroke-width="1.25" transform="matrix(.18697 -.01313 .01399 .19143 418.6864 -234.9767)"/>
</g>
</g>
</svg>
