<svg width="900" xmlns="http://www.w3.org/2000/svg" height="600" viewBox="0 0 1501.95 1001.95" xmlns:xlink="http://www.w3.org/1999/xlink" enable-background="new 0 0 1501.953 1001.953">
<g fill-rule="evenodd" stroke-width="1.953">
<path stroke="#000" d="m.977,667.645h1500.003v333.335h-1500.003z"/>
<path fill="#fff" stroke="#fff" d="m.977,334.311h1500.003v333.334h-1500.003z"/>
<path fill="#ce1126" stroke="#ce1126" d="m.977,.977h1500.003v333.334h-1500.003z"/>
</g>
<g transform="matrix(1.00015 0 0 1 .02178 0)">
<path fill="#fff" stroke="#c09300" stroke-linejoin="round" stroke-linecap="round" stroke-width="3.906" d="m741.329,659.042c32.762,0 64.106-2.592 82.488-7.778 7.779-1.411 7.779-5.418 7.779-10.606 7.779-2.592 3.77-11.781 9.19-11.781-5.42,1.417-6.597-9.191-13.196-7.774 0-9.195-9.192-10.372-16.969-7.784-15.556,5.188-43.13,6.367-69.291,6.367-26.159-1.179-53.499-1.179-69.29-6.367-7.777-2.588-16.965-1.411-16.965,7.784-6.601-1.417-7.779,9.191-13.198,7.774 5.419,0 1.412,9.189 9.19,11.781 0,5.188 0,9.195 8.013,10.606 18.144,5.186 49.492,7.778 82.249,7.778z"/>
</g>
<g fill="#fdd220" stroke="#c09300" stroke-linejoin="round" stroke-linecap="round" stroke-width="2.087">
<path d="m666.979,626.281c-2.595,0-2.595,1.416 0,1.416 1.176,0 1.176-1.416 0-1.416z"/>
<path d="m666.979,621.102c-1.416,0-1.416,2.59 0,2.59 2.596-.001 2.596-2.59 0-2.59z"/>
<path d="m666.979,640.657c-1.416,0-1.416,2.593 0,2.593 1.176,0 1.176-2.593 0-2.593z"/>
<path d="m672.162,642.072c-2.587,0-2.587,2.593 0,2.593 1.418,0 1.418-2.593 0-2.593z"/>
<path d="m677.348,643.25c-1.177,0-1.177,2.596 0,2.596 2.593,0 2.593-2.596 0-2.596z"/>
<path d="m758.438,630.293c-1.183,0-1.183,2.588 0,2.588 1.412,0 1.412-2.588 0-2.588z"/>
<path d="m759.85,635.477c-2.594,0-2.594,1.18 0,1.18 1.178-.001 1.178-1.18 0-1.18z"/>
<path d="m763.624,648.439c-1.181,0-1.181,2.824 0,2.824 1.413,.001 1.413-2.824 0-2.824z"/>
<path d="m769.043,648.439c-2.83,0-2.83,2.824 0,2.824 1.179,.001 1.179-2.824 0-2.824z"/>
<path d="m822.548,638.065c-2.59,0-2.59,1.417 0,1.417 1.415-0 1.415-1.417 0-1.417z"/>
</g>
<g transform="matrix(1.00015 0 0 1 .02178 0)">
<path fill="none" stroke="#c09300" stroke-linejoin="round" stroke-linecap="round" stroke-width="2.087" d="m672.039,621.102c-1.411,5.18-2.587,10.368-4.007,12.96 0,2.595 1.42,4.004 2.595,4.004 4.008,1.417 4.008,1.417 5.42-4.004 1.177-2.592 0-2.592 0,0-1.412,4.004-2.591,5.421 2.591,6.596 3.772,1.415 5.185,0 6.363-5.181 0-2.596-2.591-1.415-1.178,0"/>
</g>
<g transform="matrix(1.00015 0 0 1 .02178 0)">
<path fill="none" stroke="#c09300" stroke-linejoin="round" stroke-linecap="round" stroke-width="2.087" d="m669.452,631.47c-6.6,1.411-4.011,5.187 1.176,6.596"/>
</g>
<g transform="matrix(1.00015 0 0 1 .02178 0)">
<path fill="none" stroke="#c09300" stroke-linejoin="round" stroke-linecap="round" stroke-width="2.087" d="m686.418,645.846c2.592-1.181 4.004-3.773 4.004-6.363-1.412-4.006-2.591-2.826-1.412,0 0,2.59 1.412,3.768 5.185,3.768 2.593,0 5.185-1.178 8.013-2.593 2.591-1.175 2.591-5.181 0-6.596-4.006-1.181-6.599,4.004-2.827,6.596 1.411,1.415 2.827,2.593 5.418,4.008 0,1.181 0,3.774 2.593,3.774 1.181,1.413 3.774-2.594 3.774-6.367 0-5.416 0-9.191 0-11.779"/>
</g>
<g transform="matrix(1.00015 0 0 1 .02178 0)">
<path fill="none" stroke="#c09300" stroke-linejoin="round" stroke-linecap="round" stroke-width="2.087" d="m716.586,630.293c0,3.769-1.416,10.364-1.416,14.372"/>
</g>
<g transform="matrix(1.00015 0 0 1 .02178 0)">
<path fill="none" stroke="#c09300" stroke-linejoin="round" stroke-linecap="round" stroke-width="2.087" d="m719.177,652.443c5.185-4.004 5.185-6.598 5.185-9.193-1.414-3.768-4.007-2.593-2.593,0 1.179,1.415 2.593,2.596 5.184,2.596 1.417,0 2.593-1.181 2.593-6.363 0-1.417-1.176-1.417-1.176,0 0,1.175 3.767,1.175 5.18,1.175 2.593,1.415 9.193,1.415 10.374,0 1.41,0 1.41,4.008 1.41,4.008 0,1.181-1.41,2.594-1.41,3.774-1.181,2.824-2.596,1.413-4.009,0 0-2.594-2.594-2.594-3.772-2.594-2.593,0-5.181,0-9.191,0"/>
</g>
<g transform="matrix(1.00015 0 0 1 .02178 0)">
<path fill="none" stroke="#c09300" stroke-linejoin="round" stroke-linecap="round" stroke-width="2.087" d="m745.336,645.846c1.18,0 3.772-1.181 5.185,0 1.179,0 4.008-1.181 4.008-2.596 0-3.768-6.601-3.768-4.008,2.596"/>
</g>
<g transform="matrix(1.00015 0 0 1 .02178 0)">
<path fill="none" stroke="#c09300" stroke-linejoin="round" stroke-linecap="round" stroke-width="2.087" d="m763.487,630.293c1.413,5.184 1.413,11.779 0,14.372-1.181,1.181-3.774,1.181-3.774,0 1.179-1.415 3.774-2.593 5.187-1.415 0,1.415 1.176,2.596 4.005,1.415 2.591,0 3.77,0 3.77-6.6 0-1.409-3.77-1.409 0,1.417"/>
</g>
<g transform="matrix(1.00015 0 0 1 .02178 0)">
<path fill="none" stroke="#c09300" stroke-linejoin="round" stroke-linecap="round" stroke-width="2.087" d="m776.684,649.853c2.591-2.594 5.185-7.78 3.768-10.37-2.591-2.826-3.768-2.826-3.768,0 0,1.175 1.177,2.59 3.768,3.768"/>
</g>
<g transform="matrix(1.00015 0 0 1 .02178 0)">
<path fill="none" stroke="#c09300" stroke-linejoin="round" stroke-linecap="round" stroke-width="2.087" d="m785.874,647.259c3.768-1.413 3.768-4.009 3.768-6.602 0-2.592-1.177-4.001-2.593-2.592-2.589,1.417-2.589,4.007 0,4.007 5.189,0 14.382-1.415 20.977-5.416"/>
</g>
<g transform="matrix(1.00015 0 0 1 .02178 0)">
<path fill="none" stroke="#c09300" stroke-linejoin="round" stroke-linecap="round" stroke-width="2.087" d="m795.064,640.657c0-2.592 1.179-5.181 3.772-5.181 1.414-1.415 5.184,0 5.184,2.589 1.415,2.592-1.177,5.185-3.77,4.007-1.414-2.59-2.592-9.191-4.007-14.375"/>
</g>
<g transform="matrix(1.00015 0 0 1 .02178 0)">
<path fill="none" stroke="#c09300" stroke-linejoin="round" stroke-linecap="round" stroke-width="2.087" d="m815.805,634.062c-2.591-2.592-9.194,0-7.779,2.595 1.414,4 9.19,1.408 7.779-2.595z"/>
</g>
<g transform="matrix(1.00015 0 0 1 .02178 0)">
<path fill="none" stroke="#c09300" stroke-linejoin="round" stroke-linecap="round" stroke-width="2.087" d="m815.805,635.477c0,0 2.592-1.415 4.007-2.596"/>
</g>
<g transform="matrix(1.00015 0 0 1 .02178 0)">
<path fill="none" stroke="#c09300" stroke-linejoin="round" stroke-linecap="round" stroke-width="2.087" d="m809.44,621.102c2.593-2.596 7.776-2.596 7.776,2.59 0,9.189 3.775,12.965 9.194,9.189 0-1.411 0-2.588-1.413,0"/>
</g>
<g transform="matrix(1.00015 0 0 1 .02178 0)">
<path fill="none" stroke="#c09300" stroke-linejoin="round" stroke-linecap="round" stroke-width="2.087" d="m695.609,636.656h2.593"/>
</g>
<g transform="matrix(1.00015 0 0 1 .02178 0)">
<path fill="none" stroke="#c09300" stroke-linejoin="round" stroke-linecap="round" stroke-width="2.087" d="m704.798,638.065h1.18"/>
</g>
<path fill="#fff" stroke="#c09300" stroke-linejoin="round" stroke-linecap="round" stroke-width="2.087" d="m742.785,508.857l112.525,104.46-8.011-189.716c-1.177-28.752-26.163-22.155-44.313-11.784-18.387,11.784-39.362,11.784-61.523,4.004-22.156,7.78-43.134,7.78-61.521-4.004-18.148-10.371-43.132-16.969-44.312,11.784l-8.016,189.716 115.171-104.46z"/>
<g transform="matrix(1.00015 0 0 1 .02178 0)">
<path fill="#fff" stroke="#c09300" stroke-linecap="square" stroke-width="1.953" d="m759.713,422.422c6.362,3.773 12.962,3.773 16.971,3.773-13.197-9.194-16.971-33.938-15.792-44.311 2.595-20.976-2.589-32.756-15.556-35.351-2.592,0-4.007-1.413-9.191-1.413-4.006-1.177-6.995,2.592-8.412,5.183-4.006-2.591-7.377-1.175-11.147-3.77-4.01-1.413-10.607,0-10.607,9.19l2.563-1.075c1.175,.181 3.346,1.455 5.979,2.905 3.409,2.687 8.428,4.534 9.842,13.726 2.591,19.562 0,37.945-18.383,54.916 4.006,0 10.607,0 16.969-3.773-2.592,3.773-3.771,5.185-6.362,7.776 7.776-1.414 14.377-4.003 18.146-10.369 1.413,2.592 5.185,6.365 6.598,8.955 1.415-2.59 5.186-6.363 6.599-8.955 3.771,6.365 10.374,8.955 18.147,10.369-2.591-2.591-3.771-4.003-6.364-7.776z"/>
</g>
<g transform="matrix(1.00015 0 0 1 .02178 0)">
<path fill="none" stroke="#c09300" stroke-linejoin="round" stroke-linecap="round" stroke-width="2.087" d="m753.112,397.441c0,10.606 3.416,18.38 7.421,26.16"/>
</g>
<g transform="matrix(1.00015 0 0 1 .02178 0)">
<path fill="none" stroke="#c09300" stroke-linejoin="round" stroke-linecap="round" stroke-width="2.087" d="m747.928,419.83c-2.592-4.009-4.003-11.783-4.003-22.389"/>
</g>
<g transform="matrix(1.00015 0 0 1 .02178 0)">
<path fill="none" stroke="#c09300" stroke-linejoin="round" stroke-linecap="round" stroke-width="2.087" d="m729.546,397.441c0,10.606-3.412,18.38-7.417,26.16"/>
</g>
<g transform="matrix(1.00015 0 0 1 .02178 0)">
<path fill="none" stroke="#c09300" stroke-linejoin="round" stroke-linecap="round" stroke-width="2.087" d="m734.731,419.83c2.591-4.009 4.003-11.783 4.003-22.389"/>
</g>
<path fill="#c09300" stroke="#c09300" stroke-linejoin="round" stroke-linecap="round" stroke-width=".977" d="m706.959,354.492c2.766,.181 3.979,1.139 7.689,3.062 2.596,1.417 8.429,4.534 9.844,12.548-1.415-4.007 1.176-8.015 4.009-6.598-4.008-9.193-16.357-11.604-21.542-9.012z"/>
<g transform="matrix(1.00015 0 0 1 .02178 0)">
<path fill="#c09300" stroke="#c09300" stroke-linecap="square" stroke-width="1.764" d="m746.515,529.651l15.791,71.889-5.187,5.184-5.42-4.007-8.956-64.106 3.771,64.106-5.186,6.598-5.185-6.598 3.772-64.106-8.954,64.106-5.425,4.007-5.182-5.184 15.789-71.889h10.372z"/>
</g>
<g transform="matrix(1.00015 0 0 1 .02178 0)">
<path fill="#c09300" d="m648.472,417.001l-7.777,184.539-13.199,11.777 8.014-189.716c3.77-2.593 10.371-6.6 12.962-6.6z"/>
</g>
<g transform="matrix(1.00015 0 0 1 .02178 0)">
<path fill="#c09300" d="m664.261,430.199l-6.599,154.368-13.195,13.506 8.012-178.242c2.594,2.591 10.372,8.954 11.782,10.368z"/>
</g>
<g transform="matrix(1.00015 0 0 1 .02178 0)">
<path fill="#c09300" d="m678.638,441.983l-5.182,128.749-10.605,10.366 6.6-146.892c2.587,2.593 7.772,6.364 9.187,7.777z"/>
</g>
<g transform="matrix(1.00015 0 0 1 .02178 0)">
<path fill="#c09300" d="m694.194,448.582l-5.185,109.73-10.371,8.411 5.185-122.146c2.594,1.177 7.778,4.005 10.371,4.005z"/>
</g>
<g transform="matrix(1.00015 0 0 1 .02178 0)">
<path fill="#c09300" d="m708.572,448.582l-3.774,91.444-10.603,10.372 4.007-100.636c2.589-.001 9.189-.001 10.37-1.18z"/>
</g>
<g transform="matrix(1.00015 0 0 1 .02178 0)">
<path fill="#c09300" d="m834.188,417.001l7.773,184.539 13.197,11.777-8.01-189.716c-3.77-2.593-10.369-6.6-12.96-6.6z"/>
</g>
<g transform="matrix(1.00015 0 0 1 .02178 0)">
<path fill="#c09300" d="m818.397,430.199l6.6,154.368 13.197,11.553-8.011-176.289c-2.594,2.591-10.371,8.954-11.786,10.368z"/>
</g>
<path fill="#c09300" d="m804.162,441.983l5.421,128.749 10.374,8.413-6.6-144.938c-2.593,2.592-7.78,6.363-9.195,7.776z"/>
<g transform="matrix(1.00015 0 0 1 .02178 0)">
<path fill="#c09300" d="m788.465,448.582l5.186,107.777 10.369,8.411-5.184-120.192c-2.594,1.176-7.778,4.004-10.371,4.004z"/>
</g>
<g transform="matrix(1.00015 0 0 1 .02178 0)">
<path fill="#c09300" d="m774.09,448.582l3.77,91.444 10.605,10.372-4.006-100.636c-2.591-.001-9.193-.001-10.369-1.18z"/>
</g>
<g transform="matrix(1.00015 0 0 1 .02178 0)">
<path fill="#fff" stroke="#c09300" stroke-linejoin="round" stroke-linecap="round" stroke-width="1.953" d="m705.978,498.076l-31.343,111.239 43.13,6.601 18.379-83.667-30.166-34.173z"/>
</g>
<g transform="matrix(1.00015 0 0 1 .02178 0)">
<path fill="#fff" stroke="#c09300" stroke-linejoin="round" stroke-linecap="round" stroke-width="1.953" d="m776.683,498.076l31.342,111.239-43.126,6.601-18.384-83.667 30.168-34.173z"/>
</g>
<g transform="matrix(1.00015 0 0 1 .02178 0)">
<path fill="none" stroke="#c09300" stroke-linejoin="round" stroke-linecap="round" stroke-width="2.087" d="m695.608,536.021l3.771,9.189 11.785-12.962"/>
</g>
<g transform="matrix(1.00015 0 0 1 .02178 0)">
<path fill="none" stroke="#c09300" stroke-linejoin="round" stroke-linecap="round" stroke-width="2.087" d="m709.983,516.459l4.007,36.529 12.962-16.968"/>
</g>
<g transform="matrix(1.00015 0 0 1 .02178 0)">
<path fill="none" stroke="#c09300" stroke-linejoin="round" stroke-linecap="round" stroke-width="2.087" d="m721.768,542.618l7.777,19.562"/>
</g>
<g transform="matrix(1.00015 0 0 1 .02178 0)">
<path fill="none" stroke="#c09300" stroke-linejoin="round" stroke-linecap="round" stroke-width="2.087" d="m728.37,567.363l-10.605,10.605-6.6-20.974-6.367,11.784-5.418-12.965-11.55,10.372"/>
</g>
<g transform="matrix(1.00015 0 0 1 .02178 0)">
<path fill="none" stroke="#c09300" stroke-linejoin="round" stroke-linecap="round" stroke-width="2.087" d="m685.001,571.367l8.012,19.563 9.193-11.785 5.184,15.793 10.373-13.195 4.004,19.797"/>
</g>
<g transform="matrix(1.00015 0 0 1 .02178 0)">
<path fill="none" stroke="#c09300" stroke-linejoin="round" stroke-linecap="round" stroke-width="2.087" d="m683.823,606.724l7.777-10.604 6.601,17.198 7.777-13.197 5.187,15.795 8.011-6.601"/>
</g>
<g transform="matrix(1.00015 0 0 1 .02178 0)">
<path fill="none" stroke="#c09300" stroke-linejoin="round" stroke-linecap="round" stroke-width="2.087" d="m787.048,536.021l-3.768,9.189-11.784-12.962"/>
</g>
<g transform="matrix(1.00015 0 0 1 .02178 0)">
<path fill="none" stroke="#c09300" stroke-linejoin="round" stroke-linecap="round" stroke-width="2.087" d="m772.674,516.459l-3.77,36.529-13.197-16.968"/>
</g>
<g transform="matrix(1.00015 0 0 1 .02178 0)">
<path fill="none" stroke="#c09300" stroke-linejoin="round" stroke-linecap="round" stroke-width="2.087" d="m760.89,542.618l-7.779,19.562"/>
</g>
<g transform="matrix(1.00015 0 0 1 .02178 0)">
<path fill="none" stroke="#c09300" stroke-linejoin="round" stroke-linecap="round" stroke-width="2.087" d="m754.528,567.363l10.37,10.605 5.184-20.974 7.777,11.784 5.42-12.965 11.783,10.372"/>
</g>
<g transform="matrix(1.00015 0 0 1 .02178 0)">
<path fill="none" stroke="#c09300" stroke-linejoin="round" stroke-linecap="round" stroke-width="2.087" d="m797.656,571.367l-8.015,19.563-9.19-11.785-5.185,15.793-10.368-13.195-4.008,19.797"/>
</g>
<g transform="matrix(1.00015 0 0 1 .02178 0)">
<path fill="none" stroke="#c09300" stroke-linejoin="round" stroke-linecap="round" stroke-width="2.087" d="m798.835,606.724l-7.777-10.604-6.6,17.198-7.775-13.197-5.188,15.795-8.01-6.601"/>
</g>
<g transform="matrix(1.00015 0 0 1 .02178 0)">
<path fill="#fff" stroke="#c09300" stroke-linejoin="round" stroke-linecap="round" stroke-width="1.465" d="m741.328,434.207c13.2,10.37 30.167,15.554 49.73,14.375-1.417,45.724-14.375,77.067-49.73,100.639-35.351-23.572-48.315-54.915-49.728-100.639 19.564,1.179 36.769-4.005 49.728-14.375z"/>
</g>
<g transform="matrix(1.00015 0 0 1 .02178 0)">
<path fill="#c09300" stroke="#c09300" stroke-linejoin="round" stroke-linecap="round" stroke-width="1.953" d="m741.328,544.031c27.576-18.383 43.13-49.726 44.545-91.679-16.969,0-34.174-3.771-44.545-12.961-11.783,9.19-27.338,12.961-45.72,12.961 2.592,41.954 18.382,73.296 45.72,91.679z"/>
</g>
<g transform="matrix(1.00015 0 0 1 .02178 0)">
<path fill="#fff" stroke="#c09300" stroke-linejoin="round" stroke-linecap="round" stroke-width="2.087" d="m696.787,609.314c10.603,1.415 22.388,2.592 31.582,1.415 5.18,0 8.952,8.955-1.417,10.372-9.188,1.175-23.566,0-31.344-1.417-6.599-1.179-20.974-3.77-30.168-6.367-9.191-4.003-2.589-11.777 2.591-10.601 8.015,2.591 18.386,5.186 28.756,6.598z"/>
</g>
<g transform="matrix(1.00015 0 0 1 .02178 0)">
<path fill="#fff" stroke="#c09300" stroke-linejoin="round" stroke-linecap="round" stroke-width="2.087" d="m785.873,609.314c-10.607,1.415-22.387,2.592-31.345,1.415-5.422,0-9.193,8.955 1.178,10.372 9.192,1.175 23.568,0 31.341-1.417 6.602-1.179 20.977-3.77 30.167-6.367 9.194-4.003 2.596-11.777-2.591-10.601-8.013,2.591-18.382,5.186-28.75,6.598z"/>
</g>
<path fill="#fff" stroke="#c09300" stroke-linejoin="round" stroke-linecap="round" stroke-width="2.087" d="m664.382,604.132c-8.013-1.415-11.784,7.774-9.189,12.958 1.177-2.592 6.599-2.592 7.779-5.184 1.41-4.004-1.18-4.004 1.41-7.774z"/>
<g transform="matrix(1.00015 0 0 1 .02178 0)">
<path fill="#fff" stroke="#c09300" stroke-linejoin="round" stroke-linecap="round" stroke-width="2.087" d="m695.607,628.234c0-5.18 5.182-4.543 5.182-9.729 0-2.591-1.411-6.6-4.003-6.6-2.593,0-5.187,2.592-5.187,5.184-1.179,5.187 4.008,5.966 4.008,11.145z"/>
</g>
<g transform="matrix(1.00015 0 0 1 .02178 0)">
<path fill="#fff" stroke="#c09300" stroke-linejoin="round" stroke-linecap="round" stroke-width="2.087" d="m732.914,613.317c7.771,0 7.001,10.374 3.229,15.559 0-3.771-6.598-5.185-6.598-7.774-0-4.012 5.957-4.012 3.369-7.785z"/>
</g>
<path fill="#fff" stroke="#c09300" stroke-linejoin="round" stroke-linecap="round" stroke-width="2.087" d="m818.541,604.132c8.014-1.415 11.787,7.774 9.193,12.958-1.18-2.592-6.6-2.592-7.778-5.184-1.415-4.004 1.179-4.004-1.415-7.774z"/>
<g transform="matrix(1.00015 0 0 1 .02178 0)">
<path fill="#fff" stroke="#c09300" stroke-linejoin="round" stroke-linecap="round" stroke-width="2.087" d="m787.047,628.234c0-5.18-5.18-4.543-5.18-9.729 0-2.591 1.412-6.6 4.005-6.6 2.591,0 5.185,2.592 5.185,5.184 1.179,5.187-4.01,5.966-4.01,11.145z"/>
</g>
<g transform="matrix(1.00015 0 0 1 .02178 0)">
<path fill="#fff" stroke="#c09300" stroke-linejoin="round" stroke-linecap="round" stroke-width="2.087" d="m749.745,613.317c-7.774,0-7.003,10.374-3.232,15.559 0-3.771 6.597-5.185 6.597-7.774 .001-4.012-5.957-4.012-3.365-7.785z"/>
</g>
<g stroke-linejoin="round" stroke-linecap="round">
<g stroke="#c09300">
<g fill="#fff" stroke-width="1.465">
<path d="m666.977,606.724c2.596,0 6.601,1.179 7.78,2.591l-7.78-2.591z"/>
<path d="m679.94,610.729c1.416,0 6.602,1.177 9.194,2.588l-9.194-2.588z"/>
<path d="m727.083,615.915c-2.592,0-7.778,0-9.189,1.175l9.189-1.175z"/>
<path d="m712.704,615.915c-1.411-1.417-6.599-1.417-9.19,0h9.19z"/>
<path d="m815.949,606.724c-2.592,0-6.366,1.179-7.78,2.591l7.78-2.591z"/>
<path d="m802.985,610.729c-1.413,0-6.6,1.177-9.193,2.588l9.193-2.588z"/>
<path d="m755.842,615.915c2.595,0 7.78,0 9.193,1.175l-9.193-1.175z"/>
<path d="m770.22,615.915c1.413-1.417 6.602-1.417 9.193,0h-9.193z"/>
</g>
<path fill="#c09300" stroke-width=".977" d="m759.848,358.32c-2.594-6.602-7.264-11.811-13.628-12.989-3.283-.994-6.668-.708-10.441-.708-4.007-1.177-7.278,3.089-8.696,5.68 4.01,2.831 4.906,5.709 6.965,6.6 4.002,1.417 6.002-.002 10.01-3.769 4.003-4.005 13.196-2.83 15.79,5.186z"/>
</g>
<path fill="#fff" stroke="#fff" stroke-width="2.087" d="m734.863,348.189c-2.594,0-2.594,4.006 0,4.006 2.591,.001 2.591-4.006 0-4.006z"/>
</g>
<path fill="#fff" d="m757.493,448.11v82.255c-4.715,5.184-10.137,9.66-16.031,13.666-5.893-4.006-11.313-8.482-16.028-13.666v-82.49c5.893-2.121 11.312-4.949 16.028-8.484 4.478,3.77 9.9,6.599 16.031,8.719z"/>
</svg>
