<svg xmlns="http://www.w3.org/2000/svg" viewBox="0 0 900 600" xmlns:xlink="http://www.w3.org/1999/xlink">
<path fill="#de2910" d="m0,0h900v600h-900z"/>
<g id="petal">
<path fill="#fff" d="m449.9641,299.9134c-105.2631-44.4863-58.6017-181.5819 42.0696-174.6907-20.3661,10.4669-23.3177,29.9977-11.687,48.0902 13.0244,20.2558-1.199,52.8486-18.8058,60.7674-28.9348,13.0244-34.7279,47.75-11.5768,65.8331z"/>
<g fill="#de2910">
<path d="m444.2719,200.9197-5.9198,9.2938-2.1445-10.8142-10.6781-2.7593 9.6246-5.3895-.671-10.9995 8.0854,7.4895 10.2558-4.0427-4.6105,10.0094 7.0014,8.5054z"/>
<path d="m450.56,298.759c-12.7311-6.5345-22.9963-20.1549-27.4684-36.4313-5.115-18.6697-2.1727-38.7425 8.0831-55.0377l-2.2079-1.3937c-10.6406,16.9287-13.6931,37.7429-8.3857,57.1189 4.7278,17.222 15.2135,31.0981 28.787,38.0644z"/>
</g>
</g>
<use width="900" height="600" xlink:href="#petal" transform="matrix(-.80902 -.58779 .58779 -.80902 637.70988 807.33155)"/>
<use width="900" height="600" xlink:href="#petal" transform="matrix(-.80902 .58779 -.58779 -.80902 990.3791 278.06866)"/>
<use width="900" height="600" xlink:href="#petal" transform="matrix(.30902 .95106 -.95106 .30902 596.79675 -220.70502)"/>
<use width="900" height="600" xlink:href="#petal" transform="matrix(.30902 -.95106 .95106 .30902 25.21992 635.18378)"/>
</svg>
