<svg xmlns="http://www.w3.org/2000/svg" viewBox="0 0 1000 600">
<defs>
<clipPath id="clip">
<circle cx="0" cy="-39" r="46"/>
</clipPath>
<clipPath>
<circle cx="0" cy="-39" r="46"/>
</clipPath>
</defs>
<g transform="matrix(2 0 0 2 1395.78101 164.85185)">
<path fill="#e8112d" d="m-697.89-82.4259h500v299.9999h-500z"/>
</g>
<g fill="#ffef00">
<g transform="matrix(2 0 0 2 500.67993 300.60523)">
<path d="m4.2-54c-4.2-11 4.8-28-4.2-36 3,12-7,25-4.2,36 2.8,11 12.6,11 8.4,0z"/>
<path d="m12.5958-52.6781c-2.4275-11.5216 9.1211-26.9044 1.4834-36.2138 1.0859,12.3216-10.8247,23.5972-9.7799,34.8998 1.0447,11.3026 10.7241,12.8356 8.2966,1.3141z"/>
<path d="m20.6814-50.0592c-.5953-11.7595 13.2175-25.1463 7.1302-35.5359-.855,12.3397-14.3828,21.6133-15.119,32.9402-.7362,11.3269 8.5841,14.3552 7.9889,2.5957z"/>
<path d="m28.2577-46.2076c1.2517-11.7078 16.9886-22.769 12.6014-33.983-2.7749,12.054-17.5868,19.0972-20.0859,30.1695-2.4991,11.0722 6.2328,15.5214 7.4845,3.8135z"/>
<path d="m35.1383-41.2182c3.0678-11.3679 20.3413-19.8311 17.7624-31.5933-4.6264,11.4716-20.3578,16.1109-24.5581,26.6559-4.2004,10.545 3.728,16.3053 6.7957,4.9374z"/>
<path d="m41.1536-35.2139c4.8083-10.748 23.1931-16.4049 22.486-28.4257-6.364,10.6066-22.6274,12.7279-28.4257,22.486-5.7983,9.7581 1.1314,16.6877 5.9397,5.9397z"/>
<path d="m46.1556-28.3425c6.4305-9.8635 25.4738-12.5747 26.6559-24.5581-7.9448,9.4805-24.3399,9.0315-31.5933,17.7624-7.2534,8.7309-1.4931,16.6593 4.9374,6.7957z"/>
<path d="m50.0211-20.7733c7.8943-8.7361 27.1273-8.4349 30.1695-20.0859-9.3301,8.1209-25.4531,5.1127-33.983,12.6014-8.5299,7.4887-4.0808,16.2206 3.8135,7.4845z"/>
<path d="m52.6549-12.6925c9.1638-7.3936 28.1129-4.0874 32.9402-15.119-10.4856,6.5614-25.9395,1.068-35.5359,7.1302-9.5964,6.0621-6.568,15.3825 2.5957,7.9889z"/>
<path d="m53.9922-4.2992c10.2075-5.8691 28.4062,.3607 34.8998-9.7799-11.383,4.8403-25.7872-3.003-36.2138,1.4834-10.4266,4.4863-8.8935,14.1657 1.3141,8.2966z"/>
</g>
<g transform="matrix(0 2 -2 0 500.67993 300.60523)">
<path d="m4.2-54c-4.2-11 4.8-28-4.2-36 3,12-7,25-4.2,36 2.8,11 12.6,11 8.4,0z"/>
<path d="m12.5958-52.6781c-2.4275-11.5216 9.1211-26.9044 1.4834-36.2138 1.0859,12.3216-10.8247,23.5972-9.7799,34.8998 1.0447,11.3026 10.7241,12.8356 8.2966,1.3141z"/>
<path d="m20.6814-50.0592c-.5953-11.7595 13.2175-25.1463 7.1302-35.5359-.855,12.3397-14.3828,21.6133-15.119,32.9402-.7362,11.3269 8.5841,14.3552 7.9889,2.5957z"/>
<path d="m28.2577-46.2076c1.2517-11.7078 16.9886-22.769 12.6014-33.983-2.7749,12.054-17.5868,19.0972-20.0859,30.1695-2.4991,11.0722 6.2328,15.5214 7.4845,3.8135z"/>
<path d="m35.1383-41.2182c3.0678-11.3679 20.3413-19.8311 17.7624-31.5933-4.6264,11.4716-20.3578,16.1109-24.5581,26.6559-4.2004,10.545 3.728,16.3053 6.7957,4.9374z"/>
<path d="m41.1536-35.2139c4.8083-10.748 23.1931-16.4049 22.486-28.4257-6.364,10.6066-22.6274,12.7279-28.4257,22.486-5.7983,9.7581 1.1314,16.6877 5.9397,5.9397z"/>
<path d="m46.1556-28.3425c6.4305-9.8635 25.4738-12.5747 26.6559-24.5581-7.9448,9.4805-24.3399,9.0315-31.5933,17.7624-7.2534,8.7309-1.4931,16.6593 4.9374,6.7957z"/>
<path d="m50.0211-20.7733c7.8943-8.7361 27.1273-8.4349 30.1695-20.0859-9.3301,8.1209-25.4531,5.1127-33.983,12.6014-8.5299,7.4887-4.0808,16.2206 3.8135,7.4845z"/>
<path d="m52.6549-12.6925c9.1638-7.3936 28.1129-4.0874 32.9402-15.119-10.4856,6.5614-25.9395,1.068-35.5359,7.1302-9.5964,6.0621-6.568,15.3825 2.5957,7.9889z"/>
<path d="m53.9922-4.2992c10.2075-5.8691 28.4062,.3607 34.8998-9.7799-11.383,4.8403-25.7872-3.003-36.2138,1.4834-10.4266,4.4863-8.8935,14.1657 1.3141,8.2966z"/>
</g>
<g transform="matrix(-2 0 0 -2 500.67993 300.60523)">
<path d="m4.2-54c-4.2-11 4.8-28-4.2-36 3,12-7,25-4.2,36 2.8,11 12.6,11 8.4,0z"/>
<path d="m12.5958-52.6781c-2.4275-11.5216 9.1211-26.9044 1.4834-36.2138 1.0859,12.3216-10.8247,23.5972-9.7799,34.8998 1.0447,11.3026 10.7241,12.8356 8.2966,1.3141z"/>
<path d="m20.6814-50.0592c-.5953-11.7595 13.2175-25.1463 7.1302-35.5359-.855,12.3397-14.3828,21.6133-15.119,32.9402-.7362,11.3269 8.5841,14.3552 7.9889,2.5957z"/>
<path d="m28.2577-46.2076c1.2517-11.7078 16.9886-22.769 12.6014-33.983-2.7749,12.054-17.5868,19.0972-20.0859,30.1695-2.4991,11.0722 6.2328,15.5214 7.4845,3.8135z"/>
<path d="m35.1383-41.2182c3.0678-11.3679 20.3413-19.8311 17.7624-31.5933-4.6264,11.4716-20.3578,16.1109-24.5581,26.6559-4.2004,10.545 3.728,16.3053 6.7957,4.9374z"/>
<path d="m41.1536-35.2139c4.8083-10.748 23.1931-16.4049 22.486-28.4257-6.364,10.6066-22.6274,12.7279-28.4257,22.486-5.7983,9.7581 1.1314,16.6877 5.9397,5.9397z"/>
<path d="m46.1556-28.3425c6.4305-9.8635 25.4738-12.5747 26.6559-24.5581-7.9448,9.4805-24.3399,9.0315-31.5933,17.7624-7.2534,8.7309-1.4931,16.6593 4.9374,6.7957z"/>
<path d="m50.0211-20.7733c7.8943-8.7361 27.1273-8.4349 30.1695-20.0859-9.3301,8.1209-25.4531,5.1127-33.983,12.6014-8.5299,7.4887-4.0808,16.2206 3.8135,7.4845z"/>
<path d="m52.6549-12.6925c9.1638-7.3936 28.1129-4.0874 32.9402-15.119-10.4856,6.5614-25.9395,1.068-35.5359,7.1302-9.5964,6.0621-6.568,15.3825 2.5957,7.9889z"/>
<path d="m53.9922-4.2992c10.2075-5.8691 28.4062,.3607 34.8998-9.7799-11.383,4.8403-25.7872-3.003-36.2138,1.4834-10.4266,4.4863-8.8935,14.1657 1.3141,8.2966z"/>
</g>
<g transform="matrix(0 -2 2 0 500.67993 300.60523)">
<path d="m4.2-54c-4.2-11 4.8-28-4.2-36 3,12-7,25-4.2,36 2.8,11 12.6,11 8.4,0z"/>
<path d="m12.5958-52.6781c-2.4275-11.5216 9.1211-26.9044 1.4834-36.2138 1.0859,12.3216-10.8247,23.5972-9.7799,34.8998 1.0447,11.3026 10.7241,12.8356 8.2966,1.3141z"/>
<path d="m20.6814-50.0592c-.5953-11.7595 13.2175-25.1463 7.1302-35.5359-.855,12.3397-14.3828,21.6133-15.119,32.9402-.7362,11.3269 8.5841,14.3552 7.9889,2.5957z"/>
<path d="m28.2577-46.2076c1.2517-11.7078 16.9886-22.769 12.6014-33.983-2.7749,12.054-17.5868,19.0972-20.0859,30.1695-2.4991,11.0722 6.2328,15.5214 7.4845,3.8135z"/>
<path d="m35.1383-41.2182c3.0678-11.3679 20.3413-19.8311 17.7624-31.5933-4.6264,11.4716-20.3578,16.1109-24.5581,26.6559-4.2004,10.545 3.728,16.3053 6.7957,4.9374z"/>
<path d="m41.1536-35.2139c4.8083-10.748 23.1931-16.4049 22.486-28.4257-6.364,10.6066-22.6274,12.7279-28.4257,22.486-5.7983,9.7581 1.1314,16.6877 5.9397,5.9397z"/>
<path d="m46.1556-28.3425c6.4305-9.8635 25.4738-12.5747 26.6559-24.5581-7.9448,9.4805-24.3399,9.0315-31.5933,17.7624-7.2534,8.7309-1.4931,16.6593 4.9374,6.7957z"/>
<path d="m50.0211-20.7733c7.8943-8.7361 27.1273-8.4349 30.1695-20.0859-9.3301,8.1209-25.4531,5.1127-33.983,12.6014-8.5299,7.4887-4.0808,16.2206 3.8135,7.4845z"/>
<path d="m52.6549-12.6925c9.1638-7.3936 28.1129-4.0874 32.9402-15.119-10.4856,6.5614-25.9395,1.068-35.5359,7.1302-9.5964,6.0621-6.568,15.3825 2.5957,7.9889z"/>
<path d="m53.9922-4.2992c10.2075-5.8691 28.4062,.3607 34.8998-9.7799-11.383,4.8403-25.7872-3.003-36.2138,1.4834-10.4266,4.4863-8.8935,14.1657 1.3141,8.2966z"/>
</g>
</g>
<g transform="matrix(2 0 0 2 1395.78101 164.85185)">
<circle fill="#e8112d" cx="0" cy="0" r="54" transform="translate(-447.55054 67.87669)"/>
<path fill="none" stroke="#ffef00" stroke-linejoin="round" stroke-linecap="round" stroke-width="8" d="m-158.9584,112.0634a38.8252,38.8252 0 1,1 -77.6505,0 38.8252,38.8252 0 1,1 77.6505,0z" transform="matrix(1.36769 0 0 1.36769 -176.98695 -86.20138)"/>
<circle fill="#ffef00" cx="0" cy="-3" r="45" transform="matrix(.88995 0 0 .89973 -447.55054 67.62603)"/>
<g clip-path="url(#clip)" transform="matrix(.88995 0 0 .89973 -447.55054 100.01639)">
<g fill="#e8112d">
<path d="m45-63.6396c-35.1472,0-63.6396,28.4924-63.6396,63.6396 0,35.1472 28.4924,63.6396 63.6396,63.6396l-3.6,2.4651c-36.5086,0-66.1047-29.5961-66.1047-66.1047 0-36.5086 29.5961-66.1047 66.1047-66.1047l3.6,2.4651z"/>
<path d="m39-67.8492c-37.4721,0-67.8492,30.3771-67.8492,67.8492-0,37.4721 30.3771,67.8492 67.8492,67.8492l-3.6,2.7533c-38.9926,0-70.6024-31.6098-70.6024-70.6024-0-38.9926 31.6098-70.6024 70.6024-70.6024l3.6,2.7533z"/>
<path d="m33-72.5209c-40.0522,0-72.5209,32.4687-72.5209,72.5209 0,40.0522 32.4687,72.5209 72.5209,72.5209l-3.6,2.9896c-41.7033,0-75.5105-33.8072-75.5105-75.5105 0-41.7033 33.8072-75.5105 75.5105-75.5105l3.6,2.9896z"/>
</g>
<g fill="#e8112d" transform="scale(-1 1)">
<path d="m45-63.6396c-35.1472,0-63.6396,28.4924-63.6396,63.6396 0,35.1472 28.4924,63.6396 63.6396,63.6396l-3.6,2.4651c-36.5086,0-66.1047-29.5961-66.1047-66.1047 0-36.5086 29.5961-66.1047 66.1047-66.1047l3.6,2.4651z"/>
<path d="m39-67.8492c-37.4721,0-67.8492,30.3771-67.8492,67.8492-0,37.4721 30.3771,67.8492 67.8492,67.8492l-3.6,2.7533c-38.9926,0-70.6024-31.6098-70.6024-70.6024-0-38.9926 31.6098-70.6024 70.6024-70.6024l3.6,2.7533z"/>
<path d="m33-72.5209c-40.0522,0-72.5209,32.4687-72.5209,72.5209 0,40.0522 32.4687,72.5209 72.5209,72.5209l-3.6,2.9896c-41.7033,0-75.5105-33.8072-75.5105-75.5105 0-41.7033 33.8072-75.5105 75.5105-75.5105l3.6,2.9896z"/>
</g>
</g>
</g>
</svg>
