<svg xmlns="http://www.w3.org/2000/svg" viewBox="0 0 570 300" xmlns:xlink="http://www.w3.org/1999/xlink">
<path fill="#003893" d="m125,552.362h237.5v125h-237.5z" transform="matrix(2.4 0 0 2.4 -300 -1325.669)"/>
<g fill-rule="evenodd">
<g fill="#fff">
<path d="m170.6375,636.7497l-1.599-26.6048-5.5833,14.6592 2.4944-15.4869-9.1871,12.7147 6.4177-14.3136-12.1649,9.9036 9.9036-12.1649-14.3136,6.4177 12.7147-9.1871-15.4869,2.4944 14.6592-5.5833-26.6048-1.599 26.6048-1.5989-14.6592-5.5833 15.4869,2.4944-12.7147-9.1871 14.3136,6.4177-9.9036-12.1649 12.1649,9.9036-6.4177-14.3136 9.1871,12.7147-2.4944-15.4869 5.5833,14.6592 1.599-26.6048 1.599,26.6048 5.5833-14.6592-2.4944,15.4869 9.1871-12.7147-6.4177,14.3136 12.1649-9.9036-9.9036,12.1649 14.3136-6.4177-12.7147,9.1871 15.4869-2.4944-14.6592,5.5833 26.6048,1.5989-26.6048,1.599 14.6592,5.5833-15.4869-2.4944 12.7147,9.1871-14.3136-6.4177 9.9036,12.1649-12.1649-9.9036 6.4177,14.3136-9.1871-12.7147 2.4944,15.4869-5.5833-14.6592-1.599,26.6048z" transform="matrix(2.4 0 0 2.4 -300 -1325.669)"/>
<path d="m125,675.3622l237.5-72v-49l-237.5,117v4z" transform="matrix(2.4 0 0 2.4 -300 -1325.669)"/>
</g>
<path fill="#dd7500" d="m125,673.3622l237.5-94.5v-24.5l-237.5,117v2z" transform="matrix(2.4 0 0 2.4 -300 -1325.669)"/>
</g>
</svg>
