<svg xmlns="http://www.w3.org/2000/svg" viewBox="0 0 1000 500">
<g transform="matrix(1.00794 0 0 1.00794 0 -.00001)">
<path fill="#006" stroke-width="1.25" d="m0,0h992.126v496.063h-992.126z"/>
</g>
<g fill-rule="evenodd" transform="matrix(1.20835 0 0 1.20835 592.70939 100.08463)">
<path fill="#fff" d="m40.1476,18.9127h177.1554l-.211,126.0583c1.474,50.675-30.111,82.12-88.227,96.298-41.2704-10.248-88.8579-31.445-88.928-94.86l.2106-127.4963z"/>
<path fill="#00a2bd" stroke="#000" stroke-width="1.25" d="m44.0689,22.7132h169.3031l-.201,120.7948c1.408,48.558-28.777,78.69-84.317,92.276-39.4411-9.819-84.9195-30.132-84.9864-90.899l.2013-122.1718z"/>
<path fill="#a53d08" d="m212.061,157.816c-6.159,46.351-41.856,66.603-83.209,77.352-36.6044-9.819-75.9837-25.495-83.6172-77.119l166.8262-.233z"/>
</g>
<g fill-rule="evenodd" transform="matrix(1.00794 0 0 1.00794 0 -.00001)">
<path d="m694.8608,153.3603l39.6143,.1415-.2829-18.2512 14.4316,.1415 .1415,18.1097h39.4729l.1415,14.1482-39.6143,.1415-.3165,166.8546-14.0767,.0887-.1798-167.0849-39.3398,.1416 .0084-14.4311z"/>
<path fill="#ff9a08" stroke="#000" stroke-width=".8" d="m702.5194,295.3781l36.1324,37.484c12.4943-13.7327 3.8279-65.0632-12.6058-74.5172-1.9697,6.0781-5.3192,13.3658-8.8798,15.7155-7.8332,5.3384-27.029,11.5796-20.6128,15.5765 1.4633-2.026 5.2905-3.9394 7.0915,.5634 2.1387,7.0911-7.992,7.5419-7.992,7.5419 0,0-6.416-.7888-7.5418-7.3177-1.1256-6.5277 9.5568-12.4883 10.4685-12.9438 .9004-.3381 14.8583-4.0521 17.2224-16.4348 2.9264-12.1574 5.9654-10.3555 6.5289-10.5809 18.2343,1.8007 30.1663,34.445 30.8425,57.4075 .6749,22.9625-9.3425,38.1589-11.1444,39.172-1.8007,1.013-43.4493-49.4148-43.4493-49.4148l3.9397-2.2514z"/>
<g fill="none">
<g stroke-width=".8">
<g stroke="#000">
<path d="m728.8598,260.4836l.2242,67.6503"/>
<path d="m724.8077,261.7208c0,.1127 .2242,61.4607 .2242,61.4607"/>
<path d="m720.4176,270.6138l.2242,48.8526"/>
<path d="m716.8151,274.1024l.2254,40.4116"/>
<path d="m712.9884,275.9042v34.1069"/>
<path d="m708.8224,278.6064v27.0146"/>
<path d="m705.221,280.7451v20.7111"/>
</g>
<path stroke="#ffdf00" stroke-linecap="round" d="m701.9566,299.6556l37.2587,42.6618"/>
</g>
<g stroke="#ffdf00" stroke-linecap="round" stroke-width="1.499">
<path d="m741.016,272.7525c0,0 16.8856,36.9218 1.2384,67.3134"/>
<path d="m697.5666,291.8883c0,0 1.2383-3.2644 2.8142-1.9133"/>
<path d="m694.64,282.4331c0,0-6.7539,5.9654-3.0392,9.7933"/>
</g>
</g>
</g>
<g stroke-width="1.25" transform="matrix(8.33334 0 0 8.33334 0 .00001)">
<g fill="#fff">
<path d="m0,0v3.3541l53.2918,26.6459h6.7082v-3.3541l-53.2918-26.6459h-6.7082zm60,0v3.354l-53.2918,26.6459h-6.7082v-3.3542l53.2918-26.6458h6.7082z"/>
<path d="m25,0v30h10v-30h-10zm-25,10v10h60v-10h-60z"/>
</g>
<g fill="#c00">
<path d="m0,12v6h60v-6h-60zm27-12v30h6v-30h-6z"/>
<path d="m0,30l20-10h4.4721l-20,10h-4.4721zm0-30l20,10h-4.4721l-15.5279-7.7639v-2.2361zm35.5279,10l20-10h4.4721l-20,10h-4.4721zm24.4721,20l-20-10h4.4721l15.5279,7.7639v2.2361z"/>
</g>
</g>
<g stroke="#000" stroke-width=".063" transform="matrix(5.27437 0 0 5.27437 -399.15253 -150.91549)">
<path fill="#008021" d="m218.788,64.6432c.478-.41 .726-.6606 1.022-.615 .296,.0455 .699,.0227 .995-.0684 .297-.0912 1.766-.2734 2.37-.0684 .205,.0228 .478,.1368 .899,.4899 .422,.353 1.037,.9682 .832,2.6767-.205,1.7085-.138,2.4393-.228,3.3943-.159,1.6858-.533,3.0739-1.207,2.9615 .911,1.5947 1.002,2.9615 1.594,4.055 .593,1.0935 .957,3.326 .729,5.7408-.227,2.4148-.865,7.8365 1.048,11.4815-.319,.2278-1.093,0-1.777-.729-.683-.729-.983-.7051-1.549-.2734-1.731,1.3213-3.352,2.9138-5.74,1.3213-.547-.3645-.72-.8017-.319-1.9136 1.002-2.7792 1.489-6.5924 1.331-8.3833v-20.0699z"/>
<g fill="#ffe1cf">
<path d="m220.43,62.9347c.125,.3873 .193,.8884-.012,1.344-.205,.4556-.25,1.0024 .091,1.663 .547-.7745 1.322-.615 1.777-1.0706 .456-.4557 .547-.8885 .889-.9797-.342-.2961-.866-.615-.752-1.4807 .114-.8657 1.321-1.5718 .228-2.8932-.706-.8529-1.732-.615-2.176-.2847-.209,.1552-.387,.3758-.455,.5239-.069,.1481 .017,.4851-.149,.6835-.113,.1366-.251,.2725-.41,.3872-.102,.0741-.166,.182-.057,.3076 .044,.0502 .124,.0609 .212,.0914-.051,.1025-.109,.2047-.166,.2788-.054,.0695-.031,.1358 .034,.1924-.086,.2733 .08,.303-.034,.5081-.099,.1773-.233,.3871 .137,.5923 .102,.0569 .587,.1694 .843,.1367z"/>
<path d="m215.999,67.468c-.638,.1595-1.663-.1138-2.438-.0228-.342,.0404-.615-.1366-.569-.4783 .045-.3418 .091-.8657 .022-1.3441-.106-.7455 .251-1.7769 .752-2.916 .501-1.139 .752-1.7768 .752-2.3122 0-.3531 .034-.7518 .353-.9568 .236-.1515 .281-.2986 .365-.4214 .193-.2848 .375-.3531 .398-.1822 .014,.1016-.023,.1936-.114,.3303 .205-.1709 .553-.3703 .632-.4272 .08-.0569 .485-.3417 .507-.074 .16-.0797 .268-.0741 .308,.0113 .043,.0924 .017,.1311-.063,.1994 .114-.0228 .245,.1766 .017,.3531 .12-.0399 .239,.1595 .029,.3417-.218,.1881-.467,.319-.547,.467-.08,.1481-.621,.5639-.837,.655-.217,.0911-.228,.2161-.228,.5353 0,3.5082-.421,3.2232-.421,4.0664 0,.2278-.046,.4328 .182,.3644 .228-.0683 .558-.1708 .9-.1708v1.9819z"/>
<path d="m216.135,75.0312c1.03-.5148 2.21-.7062 2.825-.8656 .615-.1595 1.595-.6378 2.073-.8884 .479-.2507 .866-.5924 1.139-.6835 .274-.0911 .58-.2796 .752-.615 .888-1.7314 1.367-3.1208 1.367-4.3284 0-.7973-.205-1.6858-.98-1.0479-.728,.5996-1.521,1.7554-1.731,2.597-.319,1.2757-.592,1.5491-.661,1.7996-.068,.2507-.326,.2504-.638,.319-1.344,.2962-1.663,.5011-2.665,1.2529-1.002,.7518-2.096,1.4125-2.825,1.8225-.729,.4101-.865,.4556-1.025,.7859-.159,.3303-.307,.5809-.444,.7291-.137,.148-.176,.3211-.148,.5011 .023,.1481-.046,.8315-.057,1.0593-.012,.2278 .045,.2848 .137,.2961 .091,.0115 .216-.0341 .262-.3075-.046,.2734 .33,.1822 .353-.0227-.012,.2961 .387,.1253 .41-.1481 0,.1936 .302,.0597 .33-.0342 .068-.2278 .125-.4784 .216-.6606 .133-.2645 .275-.6071 .536-.7974 .296-.2164 .159-.4556 .774-.7632z"/>
<path d="m223.516,93.6887c.069,.2506 .194,.5354 .239,.7063 .046,.1708-.034,.2241-.079,.3189-.239,.5012-.496,1.3001-.536,1.7313-.022,.2506-.193,.4898-.273,.6379-.088,.1633-.054,.2893 .148,.4442 .097,.074 .41-.0228 .444-.1822 .114,.1138 .319,.0683 .41-.1026 .103,.1026 .274,.0342 .388-.1366 .102,.0683 .25-.0684 .307-.1596 .16,.0798 .331-.017 .336-.3302 .001-.0629 .04-.1709 .086-.2449 .045-.0741 .062-.2164 .057-.3418-.006-.1253 .074-.3758 .182-.5524 .108-.1766 .296-.4898 .216-.7859-.074-.2759-.193-.2506-.296-.6492-.25-.2621-.592-.6266-.945-.6494-.353-.0227-.558,.2165-.684,.2962z"/>
<path d="m217.035,95.6479c.319,.3189 1.037,.3303 1.538-.2051-.182-.0797-.581-.262-.763-.41-.251,.2506-.536,.5353-.775,.6151z"/>
</g>
<path fill="#870f00" d="m220.259,59.4264c.125-.8087 .698-.7896 1.059-.7062 .148,.0342 .513,.0683 .854-.0228 .676-.1801 1.185,.057 1.117,.7063 .182,.1366 .375,.4555 .341,.729-.034,.2733 .023,.3872 .274,.4213 .25,.0343 .786,.3418 .432,.7746 .342,.2051 .604,.729 .422,1.0821-.182,.3531-.729,.4101-.957,.0911-.25,.1139-.661,.1367-.911-.1252-.171,.2049-.604,.1822-.684,0-.079-.1823-.214-.2798-.375-.3304-.183-.0569-.194-.5581 .079-.6151-.034-.1481-.022-.3189 .046-.3986 .068-.0797 .011-.2278-.148-.3532-.16-.1253-.296-.6037-.137-.8656-.273,.0911-.877-.1709-1.002-.3531-.126-.1823-.296-.1936-.41-.0342z"/>
<g fill="none">
<path d="m220.43,62.9347c.444-.057 .592-.3303 .922-.3076"/>
<path d="m219.484,61.6976c.029,.0256 .066,.0465 .108,.0696 .09,.0486 .188,.0542 .279,.0655"/>
<path d="m219.616,61.2264c.062,.0214 .128,.0526 .187,.1136"/>
<path d="m220.646,59.4264c-.262-.2506 .444-.7631 1.185-.0342 .138,.1361 .489,.1368 .592,.1025"/>
<path d="m221.671,59.8137c.342-.0798 .854-.0798 1.002,.3075 .149,.3873 .445,.1367 .684,.5924 .239,.4556 .615,.9681 .979,.615"/>
<path d="m222.89,62.3766c-.103-.1367-.148-.4329-.08-.638-.137-.1594-.08-.4897 0-.6492"/>
<path d="m221.91,61.4311c.012,.1367 .194,.3873 .479,.4328"/>
<path d="m223.801,62.5018c-.159-.205-.137-.3872-.102-.6379"/>
<path d="m222.138,60.2352c-.011,.205 .114,.4784 .33,.5695 .046,.1138 .274,.4328 .729,.3873"/>
<path d="m223.289,59.4037c-.25-.194-.589-.433-1.037-.4921"/>
<path d="m220.509,65.9417c-.387,.524-.638,1.2529-.455,2.2781 .182,1.0252 .478,2.5287-.274,3.2121"/>
<path d="m223.471,73.4138c-.524-.1138-1.276-.1138-1.686,.1823-.41,.2961-1.094,.3189-1.549,.0911"/>
<path d="m222.366,73.3797c-.456,.0797-.672,.3986-.672,1.2415 0,.8429-.182,2.073-.023,3.2804"/>
<path d="m221.534,73.7328c-.296,.0797-.603,.091-.546,.8884"/>
<path d="m219.997,74.644c.011-.4898 .182-.9454 .501-.8657"/>
<path d="m223.277,74.7351c.023-1.0821-.216-1.3896-.535-1.3782 .433,.0114 .728,.0643 .911,1.8338 .137,1.3213 .413,1.789 .729,2.8249 .82,2.6881 .41,6.8342 .82,8.2922"/>
<path d="m222.651,75.054c.865,2.506 1.321,5.2852-.091,9.7502 .956,2.6426 1.913,4.5561 2.095,5.6497"/>
<path d="m219.917,80.977c.159-.5694-.41-.6378 .091-2.6425 .217-.8684 .251-1.3896 .114-1.663"/>
<path d="m220.122,77.8561c-.205,.8885 .661,2.5515 .228,3.7588"/>
<path d="m219.279,81.8427c0,.7745 .182,1.7769 .137,2.5515-.046,.7745 .27,1.1334 .638,1.868 1.321,2.6426 2.22,4.528 2.095,7.0165-.022,.4556 .137,1.4124-.341,1.6857"/>
<path d="m219.313,95.6365c.137,.0114 .285-.0569 .456-.467 .171-.4101 .718-2.8704 .49-4.5562"/>
<path d="m220.532,92.5269c.068,.5239 .068,1.5946-.273,2.4375"/>
<path d="m221.398,90.955c.205,1.1163 .182,2.1187 .023,2.8248"/>
<path d="m220.942,93.7798c.023,.4556 .228,1.5947-.114,1.6859"/>
<path d="m222.651,88.4947c.842,1.3213 1.503,4.579 2.209,5.2623"/>
<path d="m223.38,93.2331c-.023-.3645-.046-.8656-.251-1.0935"/>
<path d="m214.279,77.2866c.011-.2507-.034-.4899 .239-.8771"/>
<path d="m213.869,77.4347c.034-.8771 .022-.9569 .273-1.1961"/>
<path d="m213.516,77.4574c.011-.6264-.069-.8429 .182-1.2416"/>
<path d="m216.659,58.6633c-.097,.0626-.666,.4954-.905,.6777"/>
<path d="m216.904,58.874c-.108,.017-.421,.2734-.979,.7062"/>
<path d="m216.921,59.2271c-.176,.0797-.512,.4044-.82,.6208"/>
<path d="m215.52,59.1645c-.085,.0626-.25,.2449-.33,.3075"/>
<path d="m223.459,97.3451c-.051-.057-.051-.2564 .04-.4784"/>
<path d="m223.869,97.2425c-.062-.0626 0-.336 .063-.5126"/>
<path d="m224.257,97.1059c-.074-.0342-.097-.1937 .011-.4101"/>
<path d="m224.564,96.9463c-.051-.017-.074-.1025 .017-.353"/>
</g>
</g>
<g transform="matrix(5.27437 0 0 5.27437 -399.15253 -150.91549)">
<path d="m220.082,60.144c.165,.2164 .336,.1935 .366,.333 .03,.1397 .052,.1496 .084,.191 .032,.0413-.078,.033-.132,.0107-.053-.0223-.187-.02-.269-.0188-.081,.0012-.178-.0946-.117-.1059 .06-.0112 .052-.0301 .043-.0726-.009-.0424 .034-.1095 .059-.1218 .026-.0123 .008-.01-.015-.0669-.024-.057-.054-.1953-.019-.1487z"/>
<path d="m220.182,59.9458c.185,.0217 .504,.1216 .677,.3131 .136,.1506 .025,.1107-.044,.1163-.069,.0058-.204-.0431-.272-.1287-.067-.0855-.268-.1939-.375-.2221-.065-.0168-.126-.0951 .014-.0786z"/>
</g>
</svg>
