<svg xmlns="http://www.w3.org/2000/svg" viewBox="0 0 900 500" xmlns:xlink="http://www.w3.org/1999/xlink">
<defs/>
<g fill-rule="evenodd" stroke-width="1.25">
<path fill="#da2d1c" d="m0,0h900v500h-900z"/>
<path fill="#2042a1" d="M 0,0 H389.764 V248.032 H0 z"/>
<path fill="#fff" d="m227.0559,125.3177c0,17.8129-14.6378,32.2699-32.6733,32.2699-18.0351,0-32.6729-14.457-32.6729-32.2699 0-17.8129 14.6378-32.2695 32.6729-32.2695 18.0355,0 32.6733,14.4566 32.6733,32.2695zm-101.8629-7.2244l3.8437-14.9307 10.5709,4.3348 5.7658-12.0411-9.1296-5.7796 9.1296-12.5226 8.6489,8.6692 9.6095-8.6692-5.7658-9.633 13.9339-7.2244 3.3634,12.0407 12.9733-3.8529-1.4413-11.0778 14.8949-.4815-.961,11.5592 13.4536,4.3348 3.3634-12.0411 13.4536,6.7429-6.2465,10.1144 10.5709,8.1877 8.1681-8.6692 9.1292,11.5592-9.6095,6.7429 6.2461,12.0411 10.5709-3.8533 3.3634,14.9307-11.0512,.9633-.4807,13.4859 11.0512,.9633-3.3634,15.4126-11.0508-4.8167-4.8051,12.523 9.1292,5.7796-9.1292,12.0407-7.6878-8.6692-10.5705,8.6692 6.2461,10.1144-13.9339,6.743-3.8437-11.5592-12.9733,3.3715 1.4413,11.5592-15.3752,.4819 1.4413-11.5596-12.4926-3.3715-4.3244,11.0778-12.9733-6.743 6.2465-9.6325-11.0512-8.1882-8.1681,8.1882-9.6099-11.5592 10.0902-7.2248-6.2461-11.5592-10.0902,3.8529-4.3244-14.9307 12.0122-.9633v-13.4859l-12.0122-1.4448z"/>
</g>
<path fill="#fff" fill-rule="evenodd" id="polygon579" stroke-width="1.25" d="m390.906,29.178-30.673-21.473-30.793,21.2988 10.944-35.8067-29.772-22.7047 37.435-.6568 12.394-35.3311 12.193,35.4008 37.431,.8689-29.9,22.5357 10.741,35.8681z" transform="matrix(.34044 0 0 .33275 72.20727 39.51004)"/>
<g fill="#fff" fill-rule="evenodd" stroke="#2042a1">
<path stroke-width="1.244" d="m240.4434,93.1968c6.574,23.1318 2.0053,35.641 .2627,35.8703-2.2312-.9769-2.3996-24.5631-11.8979-30.5701-8.9544-5.5187-3.6087-10.8774-1.1725-12.9592 2.4828-1.1038 10.0105-2.0479 12.8077,7.659z"/>
<path stroke-width="1.471" d="m215.4742,123.3164c-16.8134,38.1903-10.3242,64.0719-16.7349,63.89-6.5868,.0539-8.3289-23.7726 3.8441-63.6356 15.3512-50.1084 34.8916-45.9212 37.2598-31.8996-12.9231,6.1141-14.671,7.634-24.3689,31.6452z"/>
<path stroke-width="1.382" d="m237.0526,136.0189c2.7313,24.7247-5.4562,35.4938-7.5798,35.16-2.4395-1.6698 6.9094-16.9002-7.4285-33.7031-8.2206-9.4821 .7172-5.9958 4.0734-7.2514 3.1965-.2843 9.7429-4.593 10.9349,5.7945z"/>
<path stroke-width="1.634" d="m209.6195,160.4518c-6.4888,14.9107-9.3155,33.0749-16.9022,30.8441-7.8481-2.0566-.3508-27.5635 9.6974-45.3514 12.4039-21.7556 34.6342-27.2781 34.2592-11.6094-15.3268,2.4489-22.0584,14.0656-27.0544,26.1167z"/>
<path stroke-width="1.605" d="m153.4013,120.6892c-6.4774,28.1095-5.1186,45.4523-3.354,44.978 2.416,.2934 1.6954-26.8337 12.9948-37.8873 10.4595-10.6776 4.5922-8.5217 2.2043-12.4947-4.8672-1.9787-8.5888-7.7508-11.845,5.4041z"/>
<path stroke-width="1.744" d="m179.2402,151.0009c7.7664,18.9706 12.7463,42.2401 19.1362,39.1329 6.6444-2.8914-4.0271-35.1809-14.7631-58.0152-9.1664-18.0507-15.9566-20.2774-26.097-19.7004 11.8224,4.7109 15.6661,23.2425 21.7239,38.5827z"/>
<path stroke-width="1.944" d="m180.5756,140.4716c5.77,24.0949 8.2564,53.0354 15.0487,50.1244 7.0257-2.6145-.2227-43.2816-8.5694-72.4714-7.2843-23.1666-18.5013-22.7965-28.8046-23.4659 16.5005,8.2463 17.884,26.3591 22.3253,45.8129z"/>
<path stroke-width="1.789" d="m156.5098,95.7504c-15.1143,12.4059-15.0322,37.542-12.1585,37.9397 2.9962,.5062 4.619-19.8696 13.8608-27.5021 9.7864-7.7766 11.211-3.5471 22.2647-2.72-2.9523-6.515-11.5704-18.3759-23.967-7.7177z"/>
<g stroke-width="1.25">
<ellipse cx="372.067" cy="394.769" rx="11.774" ry="25.315" transform="matrix(.37082 -.16913 .14683 .28865 -11.64278 21.79746)"/>
<ellipse cx="372.067" cy="394.769" rx="11.774" ry="25.315" transform="matrix(.38446 -.1351 .12041 .30069 -6.41801 15.10126)"/>
<ellipse cx="372.067" cy="394.769" rx="11.774" ry="25.315" transform="matrix(.40597 -.03419 .04138 .32134 24.358 -33.65877)"/>
<ellipse cx="372.067" cy="394.769" rx="11.774" ry="25.315" transform="matrix(.40247 -.06334 .06431 .31753 11.20866 -8.3407)"/>
<ellipse cx="372.067" cy="394.769" rx="11.774" ry="25.315" transform="matrix(.40247 -.06334 .06431 .31753 11.20866 1.77373)"/>
<ellipse cx="372.067" cy="394.769" rx="11.774" ry="25.315" transform="matrix(.40546 .0398 -.01715 .32355 50.25689 -50.73367)"/>
<ellipse cx="372.067" cy="394.769" rx="11.774" ry="25.315" transform="matrix(.40546 .0398 -.01715 .32355 50.25689 -40.61925)"/>
<ellipse cx="372.067" cy="394.769" rx="11.774" ry="25.315" transform="matrix(.40691 .01995 -.00139 .324 30.11879 -21.0913)"/>
<ellipse cx="372.067" cy="394.769" rx="11.774" ry="25.315" transform="matrix(.40691 .01995 -.00139 .324 37.32606 -21.06861)"/>
<ellipse cx="372.067" cy="394.769" rx="11.774" ry="25.315" transform="matrix(.38894 .12155 -.08237 .31331 84.15241 -54.62465)"/>
<ellipse cx="372.067" cy="394.769" rx="11.774" ry="25.315" transform="matrix(.40691 .01995 -.00139 .324 29.6383 -10.01365)"/>
<ellipse cx="372.067" cy="394.769" rx="11.774" ry="25.315" transform="matrix(.40691 .01995 -.00139 .324 36.84557 -12.8808)"/>
<ellipse cx="372.067" cy="394.769" rx="11.774" ry="25.315" transform="matrix(.38894 .12155 -.08237 .31331 83.67194 -44.51027)"/>
<ellipse cx="372.067" cy="394.769" rx="11.774" ry="25.315" transform="matrix(.52622 -.03849 .04974 .40725 -20.07996 36.42717)"/>
<ellipse cx="372.067" cy="394.769" rx="11.774" ry="25.315" transform="matrix(.40691 .01995 -.00139 .324 26.27491 1.06405)"/>
<ellipse cx="372.067" cy="394.769" rx="11.774" ry="25.315" transform="matrix(.40691 .01995 -.00139 .324 34.92362 -1.32146)"/>
<ellipse cx="372.067" cy="394.769" rx="11.774" ry="25.315" transform="matrix(.38894 .12155 -.08237 .31331 80.30856 -33.43256)"/>
<ellipse cx="372.067" cy="394.769" rx="11.774" ry="25.315" transform="matrix(.39915 .08175 -.05054 .32002 52.3991 -10.49794)"/>
<ellipse cx="372.067" cy="394.769" rx="11.774" ry="25.315" transform="matrix(.39915 .08175 -.05054 .32002 59.51908 -9.37674)"/>
<ellipse cx="372.067" cy="394.769" rx="11.774" ry="25.315" transform="matrix(.36597 .17943 -.12895 .29711 111.03815 -36.35558)"/>
<ellipse cx="372.067" cy="394.769" rx="11.774" ry="25.315" transform="matrix(.40627 -.03041 .0384 .32171 22.77945 55.86659)"/>
<ellipse cx="372.067" cy="394.769" rx="11.774" ry="25.315" transform="matrix(.38112 .1443 -.10063 .3079 100.47418 -3.68416)"/>
<ellipse cx="372.067" cy="394.769" rx="11.774" ry="25.315" transform="matrix(.40697 .01867 -.00038 .32401 44.55276 35.25675)"/>
<ellipse cx="372.067" cy="394.769" rx="11.774" ry="25.315" transform="matrix(.40697 .01867 -.00038 .32401 34.94306 23.69742)"/>
<ellipse cx="372.067" cy="394.769" rx="11.774" ry="25.315" transform="matrix(.40697 .01867 -.00038 .32401 42.15035 23.69742)"/>
<ellipse cx="372.067" cy="394.769" rx="11.774" ry="25.315" transform="matrix(.38931 .12033 -.08139 .31357 86.94645 -21.08338)"/>
<ellipse cx="372.067" cy="394.769" rx="11.774" ry="25.315" transform="matrix(.38931 .12033 -.08139 .31357 88.86839 -10.96901)"/>
<ellipse cx="372.067" cy="394.769" rx="11.774" ry="25.315" transform="matrix(.38931 .12033 -.08139 .31357 94.63419 -9.04246)"/>
<ellipse cx="372.067" cy="394.769" rx="11.774" ry="25.315" transform="matrix(.38931 .12033 -.08139 .31357 91.27084 -32.64271)"/>
<ellipse cx="372.067" cy="394.769" rx="11.774" ry="25.315" transform="matrix(.40637 .02905 -.00861 .32389 63.88378 -47.54979)"/>
<ellipse cx="372.067" cy="394.769" rx="11.774" ry="25.315" transform="matrix(.38931 .12033 -.08139 .31357 93.67324 -22.0467)"/>
<ellipse cx="372.067" cy="394.769" rx="11.774" ry="25.315" transform="matrix(.38931 .12033 -.08139 .31357 99.43905 -20.60176)"/>
<ellipse cx="372.067" cy="394.769" rx="11.774" ry="25.315" transform="matrix(.40637 .02905 -.00861 .32389 59.07893 -37.43538)"/>
<ellipse cx="372.067" cy="394.769" rx="11.774" ry="25.315" transform="matrix(.4045 .04868 -.0242 .3231 74.09607 -44.42408)"/>
<ellipse cx="372.067" cy="394.769" rx="11.774" ry="25.315" transform="matrix(.40637 .02905 -.00861 .32389 58.11797 -28.28431)"/>
<ellipse cx="372.067" cy="394.769" rx="11.774" ry="25.315" transform="matrix(.4045 .04868 -.0242 .3231 73.13511 -34.30971)"/>
<ellipse cx="372.067" cy="394.769" rx="11.774" ry="25.315" transform="matrix(.40637 .02905 -.00861 .32389 59.07892 -16.24329)"/>
<ellipse cx="372.067" cy="394.769" rx="11.774" ry="25.315" transform="matrix(.38931 .12033 -.08139 .31357 97.99759 -34.56934)"/>
<ellipse cx="372.067" cy="394.769" rx="11.774" ry="25.315" transform="matrix(.38931 .12033 -.08139 .31357 104.24386 -32.64279)"/>
<ellipse cx="372.067" cy="394.769" rx="11.774" ry="25.315" transform="matrix(.4045 .04868 -.0242 .3231 75.05704 -23.23201)"/>
</g>
</g>
<use width="900" height="500" id="use2752" xlink:href="#polygon579" transform="translate(-40.36072 8.66952)"/>
<use width="900" height="500" id="use2754" xlink:href="#use2752" transform="translate(-32.67296 23.11869)"/>
<use width="900" height="500" id="use2756" xlink:href="#use2754" transform="translate(-16.33642 34.67798)"/>
<use width="900" height="500" id="use2758" xlink:href="#use2756" transform="translate(-.00004 38.53108)"/>
<use width="900" height="500" id="use2760" xlink:href="#use2758" transform="translate(16.33646 38.53104)"/>
<use width="900" height="500" id="use2762" xlink:href="#use2760" transform="translate(31.23153 27.93495)"/>
<use width="900" height="500" id="use2764" xlink:href="#use2762" transform="translate(40.36069 9.63279)"/>
<use width="900" height="500" id="use2766" xlink:href="#use2764" transform="translate(42.2827 -7.70616)"/>
<use width="900" height="500" id="use2768" xlink:href="#use2766" transform="translate(31.23133 -27.93503)"/>
<use width="900" height="500" id="use2770" xlink:href="#use2768" transform="translate(17.29753 -38.53104)"/>
<use width="900" height="500" id="use2772" xlink:href="#use2770" transform="translate(-2.883 -37.56778)"/>
<use width="900" height="500" id="use2774" xlink:href="#use2772" transform="translate(-17.29737 -35.64128)"/>
<use width="900" height="500" xlink:href="#use2774" transform="translate(-26.90711 -25.04524)"/>
</svg>
