<svg xmlns="http://www.w3.org/2000/svg" viewBox="0 0 1000 500">
<g fill-rule="evenodd" stroke-width="1.25">
<path fill="#fff" d="m304.357,.0001h391.321v499.9999h-391.321z"/>
<g fill="#007a3d">
<path stroke="#198200" stroke-linejoin="round" stroke-linecap="round" d="m499.7158,22.6472c-.8709,9.4794-1.7435,18.9633-2.6143,28.4427-3.1921,.4837-6.3833,.9653-9.5754,1.4489-0-0 6.6504,3.7556 7.8115,7.528 .1858,.6042 .1115,1.1043-.1575,1.4804-.0882,.1177-.2237,.2483-.3465,.3465-1.9265,1.4889-7.6225,.7874-7.6225,.7874-0-0 7.5459,6.4034 8.1265,8.7249 .0136,.0544 .0304,.105 .0315,.1575-.0008,.0435 .009,.1153 0,.1575-.0085,.0336-.0495,.0933-.063,.126-.0515,.1139-.1443,.2423-.252,.3465-1.7741,1.648-10.1424,2.1104-10.1424,2.1104-0,0 9.2783,6.6534 9.8589,10.4258 .5261,3.4188 .0848,5.4213 0,5.7641-.6484-.557-15.6105-13.2024-25.2614-9.5124-.4807,.2511-.7652,.4904-.882,.7245-.0513,.1168-.0621,.2622-.0315,.378 .6761,2.1033 14.3243,4.2581 23.844,12.5362-.2362,2.0717-27.1327-6.5898-28.1277-1.1654 .8413,1.5295 28.9462,5.6034 31.0255,9.2919-10.3505,.3871-31.7331-2.2909-31.0255,1.1339-2.163,3.9541 20.1958,1.7208 29.5766,4.9452 2.7497,3.1246 2.4843,5.7495-2.2994,6.0791-9.0412-4.323-29.2763-7.5353-29.3246-2.0159 .0005,.0058-.0011,.0258 0,.0315 .0017,.0056 .0291,.026 .0315,.0315 .0089,.0164 .0171,.0472 .0315,.063 .0324,.0312 .104,.0656 .1575,.0945 2.2851,1.1463 21.1284,.5871 28.2222,5.2917-10.0582,2.288-44.165-4.6416-44.3807-1.2599 .9716,1.5794 6.3684,8.5113 15.6545,8.221 9.2861-.2903 30.771,3.7757 32.2224,6.6776 .0453,.0907 .0448,.1838 .0315,.252-.6288,2.0238-28.2924-6.1734-38.9315-1.1339-11.0268,5.2241 31.6202,2.0572 38.5851,8.4415 6.9649,6.3843-13.9221-.5985-13.9221-.5985 0,0-29.0041-4.0469-33.3564-2.0159-4.3533,2.032-9.2919,6.6776-9.2919,6.6776 0,0 2.8938,5.7903 5.7956,4.6302 .4421-.1769 .7442-.2131 .9135-.1575 .004,.0017 .0276-.0018 .0315,0 .0037,.0019 .0279,.0294 .0315,.0315 .0063,.0048 .0258,.0262 .0315,.0315 .0054,.0055 .0266,.0255 .0315,.0315 .002,.0033 .0296,.0281 .0315,.0315 .0129,.0291 .0267,.0904 .0315,.126 .0684,.8705-1.9844,3.4018-1.9844,3.4018-0,0 40.645,9.8468 49.6409,18.5523 8.9958,8.7065-51.6567-13.6386-51.6567-13.6386 0-0-24.3774,8.9948 1.4489,9.5754-2.8785,4.2114 1.1923,6.8035 1.4489,6.9611 0,0 42.9577,9.0046 47.31,15.9695 4.3533,6.9648-29.3073-6.6856-36.8527-10.4573-7.2792-3.6401-27.5408,1.9251-28.6947,3.6223-.0081,.0135-.0259,.05-.0315,.063-.0021,.0063 .0015,.0253 0,.0315-.0017,.0122-.0009,.0514 0,.063 .0011,.0057-.0014,.0258 0,.0315 .0017,.0057-.002,.0258 0,.0315 .0023,.0058 .0289,.0257 .0315,.0315 .0029,.0058-.0032,.0257 0,.0315 .0139,.0232 .0447,.071 .063,.0945 .0048,.0059 .0264,.0256 .0315,.0315 1.298,1.4303 10.3425,3.4001 10.6148,5.8586 .0011,.0102-.0007,.0214 0,.0315 .0045,.1312-.036,.2867-.0945,.4095-1.1393,2.209-11.9299,3.1487-12.3787,5.2287-.0061,.0356-.0315,.0897-.0315,.126-0,2.3223 54.2824,13.6404 68.7916,25.8284 14.5092,12.188-42.6483-14.5206-42.6483-14.5206 0,0 3.1921,4.351 0,5.5121-3.1921,1.1601-14.5322-16.2497-33.1044-5.5121-3.3826,4.4178 16.2159,7.9241 21.1982,8.41-1.7014,4.3744-3.1851,5.8216 3.7798,10.1738 .7617,.4761 1.1893,.7638 1.3544,.9134 .0052,.005 .0269,.0269 .0315,.0315 .0039,.0042 .0283,.0276 .0315,.0315 .0019,.0032-.0013,.0287 0,.0315-.0006,.0018 .0012,.0301 0,.0315-.0031,.0004-.0278-.0001-.0315,0-.0043-.0002-.0267,.0005-.0315,0-1.0788-.1687-13.5913-6.599-14.8986-6.8666-.012-.0021-.0533,.0008-.063,0-.0037,.0003-.0284-.0006-.0315,0 0,.5806 1.4489,7.5595 1.4489,7.5595-6.4296-5.2231-14.2013-6.798-21.4816-1.4489-.0099,.3094-.0641,5.3176 7.2445,8.41-4.1194,8.4173 4.6551,5.8039 18.5838,13.6386-20.702-5.4106-22.359,4.6398-7.5595,6.9611 14.7995,2.3213 55.4355,3.7757 65.0119,16.253 2.02,2.6321 2.5682,3.9557 2.1734,4.3782-1.5972,1.4475-16.2922-9.1807-18.4263-9.5754-.0045,.003-.027-.0037-.0315,0-.0045,.0043-.027,.0265-.0315,.0315-.0272,.034-.0675,.1012-.0945,.1575-.5215,1.1545-1.0079,6.1736-1.0079,6.1736-6.1907-3.5832-11.8715-6.7975-19.2768-8.3155-.5806,1.1601-.4589,2.8086-1.0394,3.9688-6.7199-4.8462-12.5743-8.2532-22.3321-8.7249-.387,1.5482-.7784,3.1135-1.1654,4.6617 0-0-8.1353-10.157-24.096,0-8.9122,6.3893 33.6676,2.3135 40.6324,9.8589 6.9648,7.5444 1.4489,8.6934 1.4489,8.6934-5.8037-2.1278-11.5832-4.2348-17.3869-6.3626 0,0-20.6231-3.7921-26.4268,.8504-5.8037,4.6436 84.7324,15.9644 87.344,28.4427 1.7609,6.7673-21.2715-7.0863-41.1994-13.0402-.7708,2.2152-1.56,4.4309-2.3308,6.6461-.4726-.4676-8.1814-7.9657-16.8199-9.2604-.0034,.0038-.0292,.0241-.0315,.0315-.0013,.0109 .0003,.0487 0,.063 .0136,.9524 1.7639,7.7485 1.7639,7.7485-0,0-22.3228-10.4586-33.6399-4.9452-11.3181,5.5134 39.4547,8.4145 44.0972,13.6386 .5078,.5713 .7191,.9877 .693,1.2599-.0077,.0469-.0405,.1187-.063,.1575-1.1215,1.6425-16.2621-4.4237-17.7649-1.4174-1.7417,3.4824-26.4021-6.3749-26.1118-1.7324 .2903,4.6436 3.4963,7.2445 3.4963,7.2445-0-0 51.3639,4.9303 53.1056,11.0243 1.7407,6.094-28.4427-3.4648-28.4427-3.4648 0,0-2.9197,4.3316-.5985,6.3626 .0907,.0794 .163,.1552 .189,.189 .0007,.0021-.0002,.0298 0,.0315-.0034-.0007-.0276,.0011-.0315,0-1.0491-.3461-17.4031-11.0576-15.812-2.8348-6.3994-2.5481-22.921-10.4407-20.5997-4.3467 2.2871,6.0044 45.3803,14.5542 46.6485,14.8041-1.1396,.0897-19.3645,1.6144-18.5208,6.3941-24.4257-14.8809-24.3682-5.957-23.8125-5.2602 .0011,.001-.0011,.0306 0,.0315-1.3722-.217-31.4224-7.7033-7.528,5.2287 12.8149,6.9348 15.9373,9.6383 16.001,10.6778 .0004,.0229 .0026,.0733 0,.0945-.0047,.0276-.022,.0697-.0315,.0945-.0027,.006-.0285,.0256-.0315,.0315-.0097,.0171-.0194,.0473-.0315,.063-.0043,.0051-.0269,.0266-.0315,.0315-.0048,.0048-.0265,.0269-.0315,.0315-.0053,.0045-.026,.0272-.0315,.0315-.0057,.0042-.0256,.0274-.0315,.0315-.4968,.3178-1.6972,.1847-2.0474,.189-.0152,.0005-.0522-.0014-.063,0-.0061,.0023-.0305,.0282-.0315,.0315 .0045,.0045 .026,.024 .0315,.0315 .3409,.5068 2.2157,5.6249 2.1104,6.5201-.0025,.0144-.0278,.0513-.0315,.063-.0022,.0052 .0025,.027 0,.0315-.0015,.0017-.0299-.0015-.0315,0-.0017,.0013 .0017,.0304 0,.0315-.002,.0006-.0294-.0004-.0315,0-.0027-.0003-.0283,.0005-.0315,0-1.0472-.2638-16.8733-8.7214-22.3006-9.2919-5.5144-.5806-31.6381,7.2463-3.7798,19.4343 27.8583,12.188 44.9701-2.9071 60.3502-1.1654 15.3801,1.7407 22.6486,4.3581 21.1982,9.2919-1.4514,4.9328-15.7329-16.1728-30.7421,2.0789-17.0734-3.3786-28.6571-5.3338-19.8437,7.213-27.8825-10.42-44.9093,3.179-9.7959,8.6934 34.5047,1.017 55.72-8.41 55.72-8.41 0,0 5.8208,10.7582 14.2371,3.2128 8.0208-7.1908 8.6517,1.9609 8.9454,2.8348 .0047,.0121 .0269,.0241 .0315,.0315 .0023,.0025-.0023,.0302 0,.0315 .0023,0 .0283,.0004 .0315,0 .6197-.1557 8.095-3.4963 8.095-3.4963 .6773,0 1.37,0 2.0474,0-0,23.2148 0,46.4273 0,69.6421 9.3829,.0968 18.7448,.1867 28.1277,.2835-0,0-8.9961-60.6352-4.0632-68.7601 4.7797-7.8711 9.2984-7.0214 9.5754-6.9611-0,0 18.2852,5.5011 20.3162,4.6302 .0238-.0102 .0719-.0199 .0945-.0315 .0149-.0081 .0486-.0228 .063-.0315 .0353-.0224 .0936-.0685 .126-.0945 .0064-.0054 .0252-.026 .0315-.0315 1.486-1.3567-.0281-6.7099 9.2604-5.8901 2.8679-1.0432 1.7736-5.6153 3.6223-6.7406 .0326-.0191 .0915-.0461 .126-.063 .0698-.0328 .1742-.0708 .252-.0945 .1083-.031 .2533-.0505 .378-.063 2.9019-.2903 58.903,15.6568 71.091,.567-3.1921-8.4153-14.2331-.5738-17.1349-.2835-2.6116,0-13.6475-5.2231-20.0327,0-5.8037-4.3523-32.191-7.2445-32.191-7.2445-3.4824-3.4824 62.9716,1.7296 66.7443-.8819 7.8347-7.8357-14.5029-6.9583-17.9854-4.3467-6.1908-3.7727-13.9695-3.4935-18.7098-.8819-2.2729-5.4368-23.8503-3.082-35.8447-4.6302-3.8393-2.2517-3.1999-3.5442-.5985-4.9452 25.0533,1.0644 49.979,4.3356 75.1542,3.2128 6.8046-8.8708-8.5662-12.2162-17.9854-4.6617-5.5296-9.0936-16.8341-.2956-24.3795-1.1654-7.5444-.8709-4.0633-10.1439 5.5122-8.6934 9.5764,1.4514 26.6995-.5919 29.8916-4.9452 3.1911-4.3523-1.9055-8.7617-17.7019-4.6302-5.3461-5.2251-17.1021-.0083-22.6156,1.7324-7.3358-4.0922-24.4029-.5695-30.2066,.882-5.6817-3.5318 29.8916-9.2919 29.8916-9.2919 13.7311-.2429 21.4761-2.6186 25.8284-3.7798 20.7574-11.1256-.289-12.3074-11.1818-4.2207-6.7612-5.2786-13.1828,.4564-19.2768,2.4884-5.7131,1.9041-16.2782,3.291-17.5759,2.7403-.0153-.0071-.0507-.0238-.063-.0315-.0034-.0027-.0284-.0287-.0315-.0315-.0021-.003-.0297-.0284-.0315-.0315-.0011-.0032 .0007-.0283 0-.0315 0-.0034-.0005-.0278 0-.0315 .0045-.0127 .0226-.0478 .0315-.063 .8558-1.3268 16.505-10.9298 16.505-10.9298 0-0 20.3165-1.4668 24.3795-2.0474 2.4759-.3538 11.1529-4.4616 11.1503-5.9846-.0728-.9454-3.6881-.8586-14.6466,1.9214-9.8667,.8709-15.6616,.3082-19.4343,.5985-6.0675-.6273-8.6238-1.2669-9.1344-1.8269-.0192-.0236-.0509-.0711-.063-.0945-.0424-.1011-.0149-.2179 .063-.315 .0199-.0223 .0688-.0724 .0945-.0945 1.4873-1.1879 11.0873-2.0474 11.0873-2.0474-0,0 29.3077-2.6877 31.246-4.2207 .0069-.0061 .0255-.0254 .0315-.0315 .0102-.0121 .0249-.0511 .0315-.063 .0024-.0059 .0301-.0256 .0315-.0315 .6031-11.9827-24.8637-6.4494-25.5449-6.3626 .0728-8.4257-22.9845-.1237-24.0645,0-.0022-.0003-.03,.0006-.0315,0-.992-.5845-1.4243-1.2011-1.5119-1.7639-.0285-.2145-.0012-.456 .063-.6615 .5776-1.7373 4.0632-3.0868 4.0632-3.0868 6.3842-1.5472 15.9297-2.0302 18.4263-4.0632-0-0 18.0189-.1585 20.1587-4.9452-4.4218-12.199-38.1338,2.1595-42.6483,4.3467-.9046,0-1.4585-.2273-1.7324-.5985-1.4823-2.1658 5.833-9.2978 6.0791-9.5439 .0023-.0023 .0259-.0291 .0315-.0315 1.1148-.3163 28.0306-1.6935 40.8844-19.1193 .9072-10.7748-15.371,6.0791-15.371,6.0791-1.2156-13.974-17.7009,.8862-27.2773,2.0474-9.5754,1.1601-9.8559-4.3578-3.1813-5.2287 6.6735-.8698 14.2127-.3004 17.9854-10.4573 3.7717-10.157 15.1039,.5914 17.1349-3.1813 1.9675-3.6548-3.7077-6.7703-4.0632-6.9611 0,0 8.4097-8.7318-5.2287-8.4415-13.5011,.2874-30.9561-1.6921-31.309-1.7324 .8467-.3232 14.5983-5.5099 27.5293-5.2287 13.3491,.2903 6.091-9.5754-6.6776-9.5754-12.7675-0-19.4343-4.3467-19.4343-4.3467 7.2551-2.7083 14.51-5.4182 21.7651-8.1265-.4838-2.031-.9651-4.0481-1.4489-6.0791-0,0 12.763-10.1643-5.2287-7.843-17.9917,2.3223-20.0327,2.6143-20.0327,2.6143-0,0-35.4172,5.4273-36.2542,5.5122-.0023,0-.0281,.0004-.0315,0-.3428-.0537-3.8509-1.1437-4.5042-2.4883-.0201-.0441-.0493-.1129-.063-.1575-.0149-.0537-.0266-.1346-.0315-.189-.0037-.0635-.0111-.1562 0-.2205 .1461-.7086 1.2387-1.4749 4.0318-2.1734 9.2861-2.3213 42.0937-8.9863 47.0265-7.2445 .636,.2244 1.1002,.1737 1.3859-.063 1.8497-1.6738-4.3041-12.3487-19.4028-13.8591-17.4111-1.7407-28.1277,4.3467-28.1277,4.3467 0,0-11.3292-4.0771-.8819-7.5595 10.4463-3.4814 26.9938,1.1654 26.9938,1.1654-0,0 18.5614-5.5217 3.1813-7.843-15.3801-2.3223-20.2298,2.0879-27.2773,2.3308-2.8132-3.5116 24.1461-4.3407 25.8284-7.2445-2.8434-5.2251-19.5232,0-29.2931,0-4.1557-1.7629-4.4306-4.6312 .2835-6.3941 9.9635-.387 19.3297,.1981 29.2931-.189-.2903-5.3199 .0068-11.626-.2835-16.9459-12.6375-2.3092-27.4584,1.6911-34.5533,1.3544 1.8979-5.8047 29.1845-7.303 32.2225-8.8824 6.2694-7.8365-26.1713-.121-26.9623,0-5.7583-.8507-5.4096-4.4903-1.7639-6.6776 8.4152-.9676 27.2871,1.2332 25.8599-4.4727-1.0936-5.3468-13.084-2.4841-18.0168-1.3229-4.9328,1.1601-12.1897,.2835-12.1897,.2835-3.1589-4.253 28.4485-2.5147 28.1592-5.7956-.4122-3.767-20.0357-1.1722-26.7103-.8819-5.1336-3.542 24.1347-5.897 25.5134-6.3626 .0074-.0035 .0277-.0283 .0315-.0315 1.0936-9.6468-20.3165,0-24.3795,0-.6983,0-1.2269-.1743-1.6064-.4725-.0848-.069-.1809-.1717-.252-.252-1.3948-1.6273-.1575-5.3547-.1575-5.3547 0-0 7.6296-3.4284 8.095-4.2522 .0033-.0066 .0291-.0253 .0315-.0315 .0009-.003-.0007-.0286 0-.0315-.0001-.0027 .0003-.0289 0-.0315-.0023-.0045-.0285-.0268-.0315-.0315-.0183-.0244-.0597-.066-.0945-.0945-.8956-.6897-6.1436-2.4306-6.8351-2.4883-.0052-.0002-.027,0-.0315,0-.0042-.0016-.0274-.0291-.0315-.0315-.0079-.0063-.0241-.0222-.0315-.0315-.0036-.0054-.0281-.0254-.0315-.0315-.3953-.8112 .0945-6.5831 .0945-6.5831 0,0 6.0456-4.5303 6.4256-6.3311 .0028-.0149-.002-.0484 0-.063 .0016-.0143-.0007-.0491 0-.063 .0003-.0137 .0005-.0497 0-.063-.001-.0131 .0018-.0503 0-.063-.0011-.0062 .0014-.0254 0-.0315-.0048-.018-.0247-.046-.0315-.063-.0023-.0057 .0025-.026 0-.0315-.0027-.0054-.0286-.0262-.0315-.0315-.0062-.0104-.0245-.0216-.0315-.0315-.0111-.0145-.0186-.0496-.0315-.063-.0045-.0044-.0268-.0273-.0315-.0315-.0244-.0206-.0654-.0452-.0945-.063-.012-.0069-.0503-.025-.063-.0315-1.5268-.7331-7.843,1.4489-7.843,1.4489-0-1.9346 0-3.861 0-5.7956-0-0 5.53-.6011 6.1106-3.2128 .034-.153 .0168-.3035 0-.441-.008-.0546-.0162-.1368-.0315-.189-.0358-.1123-.0902-.245-.1575-.3465-.0107-.0155-.0516-.0478-.063-.063-1.2653-1.6334-6.4256-1.8584-6.4256-1.8584-.9676-10.1566-1.9302-20.302-2.8978-30.4586zm-5.1657,99.4707v4.0002c0,0-6.5077-.3333-7.717-1.3544-.0056-.005-.0262-.0265-.0315-.0315-.0051-.005-.0267-.0264-.0315-.0315-.0046-.0051-.0272-.0264-.0315-.0315-.004-.0052-.0277-.0263-.0315-.0315-.0105-.0157-.0235-.047-.0315-.063-.0024-.0054 .0021-.0261 0-.0315-.0018-.0054-.03-.026-.0315-.0315-.0012-.0055 .001-.026 0-.0315-.0013-.0112 .0001-.0517 0-.063 .0002-.0057-.0005-.0258 0-.0315 .0009-.0057-.0012-.0257 0-.0315 .006-.0233 .0204-.0707 .0315-.0945 .0031-.006 .0281-.0255 .0315-.0315 .0151-.0243 .0424-.0697 .063-.0945 .0055-.0062 .0257-.0252 .0315-.0315 .0124-.0126 .0492-.0502 .063-.063 .0436-.0386 .1005-.0861 .1575-.126 2.1833-1.5286 6.5426-1.4926 7.402-1.7324 .0069-.0021 .0251,.0022 .0315,0 .0059-.0022 .0262-.0292 .0315-.0315 .0048-.0023 .0273,.0024 .0315,0 .0036-.0024 .0285-.029 .0315-.0315zm9.2289,5.3232c.2249,0 12.9633,.1097 14.0796,1.7639 .0086,.0141 .0246,.0487 .0315,.063 .0091,.0216 .0263,.0724 .0315,.0945 .0026,.0149-.0008,.0479 0,.063-.0002,.0228 .0043,.0712 0,.0945-.0057,.0235-.0215,.0705-.0315,.0945-.9727,2.0663-13.8591,3.3073-13.8591,3.3073l-.252-5.4807zm-.7245,7.906c.0038,.0019 .0269-.0019 .0315,0 .0054,.0019 .0253-.0018 .0315,0 .7562,.1997 6.0321,.3708 6.6776,1.2599 .0056,.0083 .0267,.0231 .0315,.0315 .0022,.0042-.002,.0272 0,.0315 .0035,.0086 .0288,.0227 .0315,.0315 .0011,.0044-.0009,.0271 0,.0315 .0005,.0045-.0003,.027 0,.0315 0,.0046 .0002,.0269 0,.0315-.0004,.0046 .0006,.0268 0,.0315-.0009,.0047 .0011,.0267 0,.0315-.0016,.0048-.0297,.0266-.0315,.0315-.002,.0049 .0023,.0266 0,.0315-.0076,.0149-.0217,.0478-.0315,.063-.0035,.0051-.0277,.0263-.0315,.0315-.004,.0052 .0043,.0263 0,.0315-1.0936,1.3365-5.9622,1.7009-6.2051,1.7009-.0019-.0004-.0296,.0008-.0315,0-.0019-.0012 .0019-.0299 0-.0315-.0038-.0055-.0277-.0246-.0315-.0315-.2226-.4519-.441-3.3388-.441-3.3388zm-38.837,10.5203c4.159-.216 12.4125,.7634 27.9072,5.0397 0,.3298 .3137,4.3475 .189,5.0082-.0011,.0052-.0303,.0268-.0315,.0315-.0013,.0036 .0014,.0284 0,.0315-.0032,.0028-.028,.031-.0315,.0315-.2429-.122-28.19-8.1529-30.742-8.032-.0698,.0033-.1541,.0062-.2205,0-.0564-.0064-.1362-.0188-.189-.0315-.0695-.0182-.1593-.0665-.2205-.0945-.0225-.0109-.0734-.0194-.0945-.0315-.0069-.0042-.0248-.0272-.0315-.0315-.085-.0576-.169-.145-.2205-.2205-.0037-.0059-.028-.0255-.0315-.0315-.0065-.0121-.0259-.0506-.0315-.063-.0026-.0063 .0023-.0251 0-.0315-.0041-.0128-.0284-.0499-.0315-.063-.0013-.0066 .001-.0248 0-.0315-.0014-.0135 .0003-.0494 0-.063 .0002-.0137-.0014-.0491 0-.063 .005-.035 .0188-.0903 .0315-.126 .0343-.086 .105-.1968 .189-.2835 .4274-.418 1.4975-.8379 3.5593-.9449zm14.4891,11.8748c4.4547-.1598 15.1281,2.4081 15.7175,2.2679-0,.8511 .4723,4.8738-.063,5.7011-.0049,.0069-.0264,.0251-.0315,.0315-.0053,.0058-.0261,.0262-.0315,.0315-.0056,.0047-.0257,.0273-.0315,.0315-.0119,.0072-.0504,.0266-.063,.0315-.0065,.0018-.0248-.0012-.0315,0-.0137,.0013-.0486,.0012-.063,0-.0074-.0012-.0239,.0019-.0315,0-.9071-.2268-16.658-5.2295-17.2609-7.276-.008-.0338-.0007-.0939 0-.126 .0066-.0713 .0412-.1585 .0945-.2205 .0065-.0068 .0244-.0249 .0315-.0315 .0071-.0066 .024-.025 .0315-.0315 .3024-.2397 .9263-.3805 1.7324-.4095zm43.8452,11.0243c4.2541-.0832 7.2576,.281 6.1421,1.5749-3.0379,3.5237-24.033,6.4256-24.033,6.4256l-.378-6.4256c.4509-.0664 11.1183-1.4351 18.2688-1.5749zm-60.0982,20.0327c3.5701-.1901 11.8838,1.7706 30.3956,9.6069l.126,4.6302c0,0-31.3493-9.5079-32.4429-11.0873-.5383-.7774-1.5389-2.9656 1.9214-3.1498zm61.4211,6.8981c.9538-.0485 1.6251,.048 1.8584,.2835 .0055,.0064 .0266,.0248 .0315,.0315 .0129,.0207 .0242,.0716 .0315,.0945 .0054,.0236 .032,.0687 .0315,.0945-.0124,.1327-.1126,.3117-.2835,.504-2.917,3.2818-18.5838,6.5516-18.5838,6.5516 0,0-0-4.1303 0-4.2522 .0026,.0002 .0283-0 .0315,0 .7142-.0244 12.2145-3.0699 16.8829-3.3073zm-68.7286,.567c4.6802-.2482 15.248,2.2341 38.9315,13.4496-0,.1162 .2108,3.9843 .126,4.3467-.0018-.0005-.0285,.0009-.0315,0-1.4041-.4526-42.6168-14.93-42.6168-14.93-.0438-.1587-.6639-2.6407 3.5908-2.8663zm78.4615,18.1113c1.1976-.0501 1.9833,.0532 2.1734,.315 .0174,.0302 .0292,.0912 .0315,.126-.0054,.1258-.1089,.2864-.315,.4725-3.7372,3.3752-27.5645,7.4643-28.4112,7.528-.0038,0-.0279,.0005-.0315,0-.0034-.0014-.0283,.0018-.0315,0-.0029-.0027-.0287-.0284-.0315-.0315-.0076-.0119-.025-.0475-.0315-.063-.002-.0056 .0019-.0256 0-.0315-.0036-.0126-.0284-.0489-.0315-.063-.1513-.7823 .3418-3.522 .378-3.9057 .0004-.0055 0-.0277 0-.0315 .0014,.0014 .0291-.0012 .0315,0 .0043,.0007 .0263,.031 .0315,.0315 .0061,.0003 .0245-.0001 .0315,0 1.5251-.0254 19.7857-4.0782 26.2063-4.3467zm-70.0516,10.5518c7.0933-.3664 28.5864,9.4891 29.6396,9.7959 .0032,.0006 .0294-.0001 .0315,0-.1105,.4403-.1287,3.9985-.2205,4.5672-.0033,.016 .0035,.0545 0,.063-.0009,.0016-.0306-.0011-.0315,0-.5794-.3103-30.0364-12.5359-31.3405-11.5598-.8126-1.9256 .0298-2.7686 1.9214-2.8663zm63.374,2.5828c1.476-.0651 2.5563,.0007 2.8978,.189 .0413,.026 .0794,.0629 .0945,.0945 .0018,.0054-.001,.0259 0,.0315 .0002,.0057 .0005,.0256 0,.0315-.0026,.0121 .0057,.0502 0,.063-.0037,.0066-.027,.0248-.0315,.0315-.021,.0276-.0603,.0641-.0945,.0945-2.1872,1.9443-22.4896,5.9531-22.4896,5.9531 0,0-.0945-3.7614-.0945-4.1262 .5766-.1232 13.6826-2.0961 19.7177-2.3623zm-1.6379,13.0087c1.4284-.0474 2.4412,.0339 2.6773,.2835 .0041,.0051 .028,.0262 .0315,.0315 .0058,.0109-.0033,.0515 0,.063 .001,.0059 .0311,.0255 .0315,.0315-.0003,.0062-.0305,.0252-.0315,.0315-.0032,.013 .0058,.0494 0,.063-.0036,.007-.0272,.0244-.0315,.0315-.0171,.0285-.0376,.065-.063,.0945-.0206,.0223-.0694,.0717-.0945,.0945-2.1913,1.8914-19.4028,5.5121-19.4028,5.5121 0,0-.4725-4.1303-.4725-4.2522 .4774,.0102 11.9844-1.8061 17.3554-1.9844zm-72.6344,1.0394c4.1527-.2626 14.4427,1.4486 39.845,10.6778l.8504,4.9767c0,0-42.2941-13.6528-43.4987-14.0796 .0019,0-.0009-.0281 0-.0315 .001-.0262-.0062-.0902 0-.1575 .015-.1249 .0784-.3218 .2205-.504 .2981-.3654 .979-.7805 2.5828-.8819zm55.72,10.8038c.5097,.1088 7.6015,.3443 8.9139,1.4489 .0059,.0052 .0259,.0262 .0315,.0315 .0054,.0053 .0264,.0262 .0315,.0315 .0049,.0054 .0269,.0261 .0315,.0315 .013,.0164 .021,.0463 .0315,.063 .0032,.0056 .0286,.0258 .0315,.0315 .0106,.0228 .0256,.071 .0315,.0945 .0012,.0059-.0009,.0255 0,.0315 .0006,.006-.0003,.0255 0,.0315-.0001,.0122 .0013,.0507 0,.063-.001,.0062 .0013,.0252 0,.0315-.0032,.0126-.027,.0502-.0315,.063-.0026,.0064 .0029,.025 0,.0315-.0065,.013-.0236,.0498-.0315,.063-1.0936,1.7014-8.5044,2.3308-8.5045,2.3308 0,0-.3641-3.334-.5355-4.3782zm17.1664,9.7014c1.6514-.0396 2.8366,.1494 3.0868,.63 .1409,.3257-.1302,.8068-.9134,1.4489-6.0758,4.9822-19.3083,5.9531-19.3083,5.9531 0,0 0-5.3597 0-5.4807 .0031,.0003 .0254,.0004 .0315,0 .7517-.0893 11.6207-2.4199 17.1034-2.5513zm16.8514,5.1027c2.0974-.0795 3.0012,.2721 3.2758,.7559 .0221,.0429 .0502,.1124 .063,.1575 .0198,.0819 .0383,.1962 .0315,.2835-.0676,.6243-.7436,1.3723-1.2599,1.8584-2.0663,1.9443-34.9943,12.3787-34.9943,12.3787 0,0-.2479-6.9212-.126-7.528 19.2519-5.8344 28.6678-7.7415 33.0099-7.906zm-21.2927,19.5918c2.0934-.0781 3.7304,.0456 4.2207,.5355 .0299,.0325 .0745,.0902 .0945,.126 .0108,.0219 .0244,.0714 .0315,.0945 .0058,.0235-.002,.0697 0,.0945 .0012,.042 .0097,.1119 0,.1575-.0239,.0928-.0873,.207-.1575,.315-2.8172,2.7648-16.505,3.1813-16.505,3.1813v-3.4333c2.5703-.0868 8.292-.9209 12.3157-1.0709zm13.7016,5.6381c.6508-.0159 1.0476,.0904 1.1024,.2835 .0022,.0149 .0016,.0467 0,.063-.0329,.1607-.2241,.4043-.63,.6929-5.4681,3.8876-26.0173,7.8745-26.0174,7.8745 0,0 .2546-2.7169 .378-3.3703 .5716-.0092 20.2501-5.4233 25.1669-5.5437zm11.5283,4.3152c2.4214-.0228 4.2696,.3345 5.3232,1.1024 .0019,0 .0298-.0005 .0315,0 .0008,.003-.0006,.028 0,.0315 .0004,.0039-.0002,.0271 0,.0315-.0005,.0106 .0014,.0506 0,.063-.103,.7532-1.6425,4.2965-7.0555,5.8271-6.7514-.603-35.4045,7.8678-35.9707,8.0005-.0016-.0017-.0302,.0033-.0315,0-.0021-.0098 .001-.0471 0-.063-.0152-.5426 .378-3.4648 .378-3.4648 9.8769-5.9067 27.8257-11.4387 37.3251-11.5283zm-73.3588,16.6309c.0633-.0013 .1217-.0002 .189,0 12.3946,1.3365 17.0235,5.9763 18.3318,7.843-2.4714,4.3368-22.0592-5.3893-20.0012-7.465 .2356-.2105 .7206-.3621 1.4804-.378zm71.028,.8189c.4923-.0188 .9418,.082 1.2599,.2835 .13,.087 .2582,.2117 .3465,.3465 .1194,.1935 .1989,.4552 .2205,.7559-1.2948,2.0007-7.9911,1.1273-8.41,1.0709 .3374-.1203 4.2038-2.3662 6.5831-2.4568zm-26.5528,13.4811c.919-.0378 1.6825,.055 2.1104,.315 .0517,.0335 .1165,.0865 .1575,.126 .013,.0135 .0512,.0488 .063,.063 .0167,.0218 .0492,.0711 .063,.0945 .0127,.024 .0218,.0689 .0315,.0945 .078,.2354 .0476,.5604-.1575,.9449-1.9443,3.6457-10.4573,2.2993-10.4573,2.2994v-2.5513c.0017,.0007 .0295-.0006 .0315,0 .4795,.0407 5.1713-1.2631 8.158-1.3859zm-50.1448,9.6069c2.6191-.1322 4.9083,1.5859 7.3075,2.9608 5.3461-1.0936 16.316,.8504 16.316,.8504 0,0-0,4.4858 0,4.8507 0,.0038-.0249,.0281-.0315,.0315-.0049,.0016-.025-.0015-.0315,0-.9985,.1739-13.8536-.3878-16.7254-2.2049-2.3418,0-8.9711-3.4987-9.4809-5.2917-.0039-.0151-.0285-.0481-.0315-.063-.0038-.0221 .0017-.0729 0-.0945-.0007-.0142-.0003-.049 0-.063 .0007-.0138-.0017-.0495 0-.063 .0011-.0067-.0013-.0249 0-.0315 .0032-.0131 .0273-.0502 .0315-.063 .0023-.0063-.0026-.0253 0-.0315 .9161-.4882 1.8088-.7452 2.6458-.7875zm56.2239,2.3939c2.0109-.1084 2.8635,.5134 1.2914,2.7403-4.3744,6.1968-15.686,3.6538-15.686,3.6538l-.4725-3.8427c3.9898,.1556 11.2823-2.3582 14.8671-2.5513zm-42.2703,12.5677c4.5739-.2132 9.5439,1.6064 9.5439,1.6064 .1172,.2334 2.4582,4.8484 .378,6.3941-.0774,.0556-.1623,.1105-.252,.1575-2.5521,1.3365-14.7499-1.0445-15.4655-5.9531 1.4354-1.5151 3.5618-2.1007 5.7956-2.2049zm-47.1525,2.3938c4.1831-.251 8.8556,2.3259 9.3864,2.5828 .007,.0032 .0275-.0014 .0315,0-0,.1452-.1575,4.6617-.1575,4.6617 0,0-8.2807-2.3084-10.8983-6.9611 .5249-.1431 1.0854-.2503 1.6379-.2835zm79.6584,.63c4.6654-.0296 10.3018,1.0664 11.1188,2.6458 .1543,.323 .1086,.6791-.189,1.0394-2.3092,2.794-15.434,.252-15.434,.252v-3.4018c1.1677-.3416 2.7763-.5245 4.5042-.5355z"/>
<path d="M 0,6.3e-05 H304.357 V500 H0 z"/>
<path d="m695.678,0h304.322v500h-304.322z"/>
</g>
</g>
</svg>
