<svg xmlns="http://www.w3.org/2000/svg" viewBox="0 0 992.126 496.063">
<g fill-rule="evenodd">
<path fill="#0071bc" d="m0,0h992.126v496.063h-992.126z"/>
<g stroke="#000" stroke-width="1.92">
<path fill="#fff" d="m553.425,392.4292c0,0 17.493-18.5023 34.3131-14.97 5.0462-19.5115 24.053-21.0253 24.053-21.0253 0,0-1.8502-21.5298 22.5389-26.2394 .6728-14.6337 15.4746-26.7441 15.4746-26.7441 0,0-3.0277-22.7071 12.447-27.9214-9.4193-17.9976 3.1958-31.1177 3.0277-31.454-.1682-.3363-15.9791-28.4263-1.8503-36.4998-14.97-12.6152-10.092-26.9123-10.092-26.9123 0,0-16.3156-4.2052-10.4287-23.7166-13.4561-2.3547-16.1473-24.0528-16.1473-24.0528 0,0-20.689,4.2049-23.212-13.7926-13.6243,2.1868-15.1381-11.2695-15.3063-11.2695-.1682,0-27.0806,7.2327-32.4631-13.1198-10.4283,5.3826-14.97-4.2051-14.97-4.2051 0,0-14.97,7.4009-23.8846-6.8962-17.8293,11.1013-27.7533-.5047-27.7533-.5047 0,0-23.3801,15.4745-31.1175,3.5323-13.7927,13.9609-26.0713,7.9056-26.0713,7.9056 0,0-10.4286,18.5021-27.2488,13.7925-3.8687,17.1566-23.2119,17.493-23.2119,17.493 0,0 2.0184,15.1383-21.1935,19.1751-3.0276,17.8293-15.1382,20.857-15.1382,20.857 0,0 1.1774,17.3247-9.7557,22.8755 3.8687,9.7559-6.2235,21.698-6.2235,21.698 0,0 10.7649,13.4561-3.8686,28.5945 14.129,3.7003 3.8686,28.0898 3.8686,28.0898 0,0 19.5115,8.7465 7.2327,24.8938 13.9608,4.5415 9.5875,15.643 9.7557,22.2028 8.9147,4.0366 16.8202,2.0183 12.9516,20.0159 27.4169,3.0277 14.4654,18.1658 14.4654,18.1658 0,0 12.7834,.5047 7.7373,10.5968 23.3801-.5045 26.7441,17.493 26.7441,17.493 0,0 21.6981-5.719 24.5575,2.6911 2.8594,8.4102-9.4193,65.0942-9.4193,65.0942 0,0-18.334,0-31.9584-14.6335-31.9584-.841-24.8939-21.8665-25.3985-21.8665-.5046,0-10.5967,3.8687-15.811-13.6243-21.3617,4.3733-20.6889-13.6241-20.8571-13.7925-.1682-.1682-9.5875-4.3733-6.0553-13.288-22.0345,2.0181-20.3524-19.5115-20.3524-19.5115-4.8218-1.9624-6.6159-6.4477-5.8871-10.9332-2.8594-1.0093-22.3709-1.3457-12.2788-27.0804-18.6704-11.2697-7.0645-24.2211-7.0645-24.2211 0,0-25.7349-13.288-5.8871-28.5945-14.8018-21.8663 1.1774-32.7993 1.1774-32.7993 0,0-20.5206-20.8571 .3364-35.6589-3.3641-31.6219 15.4746-39.1909 15.4746-39.1909 0,0-9.9239-25.7351 16.9884-36.5 1.682-26.0713 20.5206-26.7441 20.5206-26.7441 0,0 .5046-20.6889 30.1082-18.6704 5.7188-18.5021 25.9031-14.8017 25.9031-14.8017 0,0 6.2235-22.3709 33.6404-11.606 13.9607-27.2487 34.6497-13.2879 34.6497-13.2879 0,0 13.1196-8.5784 19.6796-5.8872 8.3297-14.3149 26.063-.5549 37.5287,2.2153 4.1555-1.616 18.9872-12.8121 30.4249,1.317 15.1383-9.924 28.0898,7.9055 28.0898,7.9055 0,0 20.857-10.5965 30.6128,13.6245 44.2371-4.037 37.8454,24.8938 37.8454,24.8938 0,0 34.8178-7.9055 27.2488,26.7441 31.6219,2.1866 28.4261,23.0438 28.4261,23.0438 0,0 20.016,15.138 11.2695,28.7625 17.8295,.8411 11.2695,17.9977 11.2695,17.9977 0,0 13.6245,5.2143 2.3548,26.4076 26.0713,20.857 5.0462,41.5461 4.878,41.3778-.1684-.1682 13.9608,16.8201 1.1773,36.3316 3.8687,30.9493-11.7741,38.8546-11.7741,38.8546 0,0 4.0368,20.0161-13.4561,25.735-.3363,23.5483-22.5391,26.4078-22.5391,26.4078 0,0 5.8872,10.2288-16.1473,20.9938-.869,15.7568-23.8848,17.0198-23.8848,17.0198 0,0-2.1865,28.9306-31.4538,21.1935-7.1033,23.2124-41.3776,16.3156-42.0504,15.9793-.6728-.3365-6.5598-49.7877-6.5598-49.9561z"/>
<g fill="#217900" stroke-linejoin="round">
<path d="m340.8585,114.8332c.0856,0 7.4178,6.3592 6.0485,15.9436-1.3691,9.5845-6.9043,22.9077-5.7919,32.8344 .6801,3.9794 .4226,11.1095 .4226,11.1095 0,0-6.647-9.4449-6.7326-19.5426-.0856-10.0978 7.1978-19.6856 7.1978-27.1306 0-7.445-1.3156-13.3855-1.1444-13.2144z"/>
<path d="m337.2198,117.6852c0,0-9.6217,9.1851-10.8608,18.1115-.9149,4.6011-1.27,26.0407-1.3781,35.5563-.2163,2.9195-1.4263,14.4436-1.6831,18.637-.2567,4.1931 7.0778-7.1578 7.4971-16.4001-.2295-9.5666-.2301-29.7174 .7431-32.7449 .865-3.8928 .6766-8.1937 2.0148-12.0978 1.7705-5.4178 3.7528-10.9764 3.6672-11.0619z"/>
</g>
</g>
<g fill="#ffd200" stroke="#ef8a10" transform="matrix(1.91965 0 0 1.91965 249.652 5.1721)">
<path d="m155.8775,42.9802c0,0 6.4988-2.9978 8.3564-8.5807 1.8576-5.5829-5.6242-5.6367-6.6127-3.8621-.9884,1.7746 .8431,6.1929 .3714,7.361-.4718,1.168-3.1156,3.9879-2.1151,5.0817z"/>
<g stroke-width="1.25">
<path d="m98.2814,45.0173c0,0 4.2188-5.7813 3.125-11.5626-1.0938-5.7813-7.6563-2.1876-7.6563-.1562 0,2.0313 3.75,5.0001 3.9063,6.2501 .1562,1.25-.7813,5 .625,5.4688z"/>
<path d="m86.8751,48.4547c0,0 4.2188-5.7813 3.125-11.5626-1.0938-5.7812-7.6563-2.1876-7.6563-.1562 0,2.0313 3.75,5.0001 3.9063,6.2501 .1562,1.25-.7813,5 .625,5.4688z"/>
<path d="m74.2189,52.361c0,0 4.2188-5.7813 3.125-11.5626-1.0938-5.7812-7.6563-2.1876-7.6563-.1562 0,2.0313 3.75,5.0001 3.9063,6.2501 .1562,1.25-.7813,5 .625,5.4688z"/>
<path d="m65.3126,61.2672c0,0 4.2188-5.7813 3.125-11.5626-1.0938-5.7812-7.6563-2.1876-7.6563-.1562 0,2.0313 3.75,5.0001 3.9063,6.2501 .1562,1.25-.7813,5 .625,5.4688z"/>
<path d="m55.9376,69.8608c0,0 4.2188-5.7813 3.125-11.5626-1.0938-5.7812-7.6563-2.1876-7.6563-.1562 0,2.0313 3.75,5.0001 3.9063,6.2501 .1562,1.25-.7813,5 .625,5.4688z"/>
</g>
<path d="m77.4929,19.7976c0,0-5.6182,4.4338-6.1194,10.2962-.5012,5.8624 6.786,4.166 7.3323,2.2095 .5463-1.9565-2.2672-5.8244-2.0816-7.0703 .1857-1.246 2.0971-4.6057 .8687-5.4354z"/>
<path d="m96.2429,14.0162c0,0-5.6182,4.4338-6.1194,10.2962-.5012,5.8624 6.786,4.166 7.3323,2.2095 .5463-1.9565-2.2672-5.8244-2.0816-7.0703 .1857-1.246 2.0971-4.6057 .8687-5.4354z"/>
<path d="m26.37,64.6321c0,0 1.1868,7.0579 6.0863,10.3158 4.8995,3.2579 6.9154-3.9474 5.4625-5.3671-1.4529-1.4196-6.1971-.8121-7.2004-1.5739-1.0032-.7619-3.0303-4.0531-4.3484-3.3749z"/>
<path d="m17.0055,88.5975c0,0 .0581,7.1567 4.382,11.1471 4.324,3.9903 7.4517-2.8067 6.241-4.4378-1.2107-1.6311-5.9913-1.7799-6.8618-2.6905-.8704-.9106-2.3527-4.4806-3.7613-4.0188z"/>
<path d="m38.6104,115.3692c0,0-2.5544-6.6857-7.9998-8.9142-5.4455-2.2285-6.0019,5.2328-4.2977,6.3383 1.7042,1.1054 6.2356-.4251 7.3694,.1241 1.1337,.5492 3.7695,3.3764 4.9281,2.4518z"/>
<path d="m34.1218,103.7961c0,0 4.3306-5.6981 3.3496-11.4995-.9811-5.8014-7.6123-2.3362-7.6519-.3053-.0395,2.0309 3.652,5.0721 3.7839,6.3249 .1318,1.2528-.8784,4.9837 .5184,5.4798z"/>
<path d="m169.1588,48.7614c0,0 6.4988-2.9978 8.3564-8.5807 1.8576-5.5829-5.6242-5.6367-6.6127-3.8621-.9884,1.7746 .8431,6.1929 .3714,7.361-.4718,1.168-3.1156,3.9879-2.1151,5.0817z"/>
<path d="m188.8142,58.563c0,0 3.8227-6.0505 2.3447-11.7456-1.478-5.6952-7.7854-1.6707-7.6496,.3561 .1359,2.0267 4.076,4.7381 4.3156,5.9748 .2394,1.2368-.4452,5.0411 .9893,5.4147z"/>
<path d="m242.4477,114.2506c0,0-2.5635-6.682-8.012-8.903-5.4486-2.2211-5.9948,5.2409-4.2891,6.3441 1.7058,1.103 6.235-.4336 7.3696,.1139 1.1345,.5477 3.7741,3.3714 4.9315,2.445z"/>
<path d="m216.2228,118.397c0,0 .1487-7.1553 4.5228-11.0906 4.3742-3.9354 7.4155,2.9005 6.1843,4.5163-1.2313,1.6156-6.0131,1.7039-6.8953,2.6034-.8819,.8996-2.409,4.4505-3.8118,3.9709z"/>
<path d="m212.0028,42.5197c0,0-6.6904-2.5414-11.9773,.041-5.287,2.5825-.0872,7.9621 1.8721,7.4255 1.9591-.5368 3.8315-4.9376 4.9959-5.4188 1.1644-.4809 5.0288-.5673 5.1093-2.0477z"/>
<path d="m196.6903,29.7072c0,0-6.6904-2.5414-11.9773,.041-5.287,2.5825-.0872,7.9621 1.8721,7.4255 1.9591-.5367 3.8315-4.9376 4.9959-5.4188 1.1644-.4809 5.0288-.5673 5.1093-2.0477z"/>
<path d="m173.8559,17.4894c0,0-5.672,4.3645-6.2451,10.2204-.573,5.856 6.7342,4.2489 7.3045,2.2992 .5702-1.9497-2.1955-5.8515-1.9947-7.0953 .201-1.2437 2.1536-4.5796 .9353-5.4243z"/>
<path d="m158.9936,13.912c0,0-2.5866,6.6731-.0399,11.9773 2.5467,5.3043 7.9613,.1411 7.4379-1.8218-.5234-1.9627-4.9116-3.8648-5.3848-5.0325-.4731-1.1676-.5334-5.0325-2.0132-5.123z"/>
<path d="m116.8172,39.6273c0,0 4.6265-5.4604 3.9542-11.3058-.6722-5.8455-7.4775-2.7366-7.6247-.7105-.1472,2.026 3.3778,5.2584 3.4432,6.5166 .0653,1.2581-1.1415,4.9302 .2273,5.4996z"/>
</g>
<g stroke="#000">
<g stroke-width="1.92">
<path fill="#8c8a8c" d="m522.2306,103.7382c0,0 21.2881,1.3398 22.3303,13.547 1.042,12.2072-5.0615,19.6506-5.0615,19.6506 0,0 2.6796,26.3496-18.162,34.0909-22.3303,2.6797-57.3145,.5955-57.3145,.5955 0,0-10.272,2.5309-14.4403-18.7574-4.1683-21.2883-5.3593-36.3239-5.3593-36.3239 0,0 2.0842-11.9096 17.12-12.6539 15.0356-.7443 60.7384,.1489 60.8873-.1488z"/>
<path fill="none" stroke-linecap="round" d="m539.3504,136.787c0,0-11.4628,14.2913-10.2718,20.0972"/>
<path fill="#8c8a8c" d="m524.017,170.2824c2.8286,2.3818 5.508,5.0614 6.1035,13.8448 .5955,8.7833 1.1909,17.5666 1.1909,17.5666l14.8869,133.9817 13.1004,96.9135 .8932,15.0358c0,0-3.1261,11.0163-11.9095,11.9095-6.4013,13.3982-41.0875,17.2689-44.5116,17.12-3.1261-.1488-14.1426-4.7638-20.8416-4.1683-6.6992,.5953-18.3109,5.0613-23.5214,4.3171-5.2103-.7443-16.971-4.7638-19.0551-13.2492-14.5891-4.615-16.971-15.7803-16.971-15.7803l15.7801-112.0981 15.3335-141.7229c0,0 1.7864-18.9063 9.3786-21.7348 7.8901-.7443 48.6801,.7443 60.1431-1.9353z"/>
</g>
<g fill="none">
<g stroke-width="1.92">
<path d="m443.6278,364.2582l-3.1262,99.1466"/>
<path d="m539.9459,377.3586l8.7833,81.7289"/>
</g>
<path d="m285.2844,312.7399l-.3265,1.1437"/>
<path d="m697.1193,309.1459l.3265,1.1437"/>
</g>
</g>
<g fill="none" stroke="#6b18b5" stroke-linejoin="round">
<path stroke-width="1.92" d="m274.2356,178.8889c0,0 6.5222,9.0307 7.6928,14.215 1.1707,5.1843 3.3447,15.3856 6.1877,19.5664 2.843,4.1808 19.0649,27.4266 19.901,37.1263 .1672,6.3548-6.6894,17.2252-16.8908,17.3922-6.355-.167-22.744-4.3478-23.4129-18.3956-.6689-14.0478 5.017-14.3824 5.686-22.9114 .6689-8.529 .8362-46.8258 .8362-46.993z"/>
<path d="m386.2836,55.9169c0,0-6.7525,.4815-11.9512,3.2998-4.028,2.4838-10.8508,6.0573-15.6192,12.6683-12.1268,9.4538-30.3713,13.8653-36.1248,21.719-3.4442,5.343-3.2327,18.1935 5.3973,23.6359 5.5169,3.1588 21.6927,8.1006 29.5622-3.5553 7.8695-11.6558 3.1848-14.8956 7.044-22.5308 6.3678-17.5021 21.6049-35.094 21.6918-35.2369z"/>
<path d="m550.0789,38.8574c0,0-5.0431-4.516-10.6842-6.2902-4.5862-1.166-12.2245-.6588-20.1284-1.4344-15.2274-2.1356-30.9255-13.1482-40.57-11.8184-6.2344,1.2424-15.319,10.3336-13.2256,20.3194 1.5683,6.1606 8.4583,18.6204 22.3063,16.166 13.8478-2.4546 13.7284-5.4753 21.8982-8.0141 19.9265-11.1731 40.2408-8.891 40.4038-8.9282z"/>
<path d="m712.5234,196.7416c1.1368-2.5984-.957-7.4825-2.4443-13.2058-1.4438-4.5066-3.5989-11.501-8.8713-17.7175-6.2648-14.0423-5.1911-33.2994-11.4332-40.7708-4.3595-4.6266-16.8846-7.5072-24.2403-.4369-4.3914,4.5969-13.0732,19.1122-3.6485,29.5509 9.4247,10.4383 13.5324,6.5063 20.0173,12.0864 15.4606,10.3847 23.0319,28.5889 30.6203,30.4938z"/>
<path d="m706.9812,319.4062c2.1112-2.9232 5.8916-8.557 5.442-13.2492-.3559-3.7163 1.7031-14.9821 1.9281-19.8968 1.3973-15.3128 10.9823-27.7421 8.3758-41.0464-1.5421-6.1671-10.5746-14.964-20.4473-12.3905-6.0778,1.8642-19.6096,9.3103-16.4888,23.0233 3.1212,13.7132 7.5519,13.4859 10.4824,21.5235 8.413,16.6161 3.03,36.3537 10.7078,42.0362z"/>
</g>
<g stroke="#000">
<g fill="none" stroke-width="1.92">
<path d="m594.2901,416.7575c0,0-2.5957,4.9918 7.7874,9.3848"/>
<path d="m615.0562,404.9766c0,0 11.5812-2.7954 19.3685,0"/>
<path d="m649.5999,375.8241c0,.1998-1.5973,5.1917 7.5878,12.38"/>
<path d="m656.1893,362.8453c0,0 6.7888,4.9918 18.1704,4.7922"/>
<path d="m587.7009,377.4216c0,0 .3993,13.1784-6.3895,19.3683"/>
<path d="m610.4637,357.0547c0,0 11.1817,2.7954 20.3669-1.797"/>
<path d="m682.1469,337.6863c0,0 2.3961,3.3945 14.7759,2.7956"/>
<path d="m633.8258,329.899c.3993,.1996 14.5761,4.7922 23.5616,.5991"/>
<path d="m662.1795,275.5876c0,0 .5989-.7988 4.9918,14.5763"/>
<path d="m673.1616,232.2584c0,0-.5991,8.1865-7.1883,11.7807"/>
<path d="m715.2929,198.7129c0,0-9.5844,7.7872-7.7872,10.9821"/>
<path d="m667.5706,193.1221c0,0 4.9918,8.3862-3.1947,14.1768"/>
<path d="m643.41,157.1807c0,0 8.586-.3995 12.3798,6.9885"/>
<path d="m627.2364,132.8205l6.5894-.0001"/>
<path d="m661.3808,102.8692c0,.1996 1.797,1.7969-1.5973,5.1915"/>
<path d="m600.0807,103.6679c0,0 4.5926,7.1883 3.7938,15.974"/>
<path d="m626.6375,79.3076c1.9966-.1996 8.7856-3.1948 8.7856-3.1948"/>
<path d="m597.0855,50.7541c-.1997,0-2.5957,8.9853 1.7972,12.1801"/>
<path d="m586.1034,91.6876c0,9.5844 7.5878,7.1881 2.3963,16.3732"/>
<path d="m567.5337,83.7004c-.1997,0-11.9803,9.1851-11.9803,10.7825"/>
<path d="m536.7838,78.7086c0,0 4.9918,4.9917 3.7938,11.7807"/>
<path d="m522.2076,74.7151c0,0-2.5957,7.5875-5.9901,9.5843"/>
<path d="m495.651,72.7183c-.1996,.3994-4.1933,8.9853-6.9887,10.5827"/>
<path d="m459.3102,72.9181c.1996,0 3.9934,7.9871-.9984,13.7775"/>
<path d="m450.9238,31.5855c.1996,.1996 .7988,6.1897-2.995,11.3814"/>
<path d="m414.9824,45.1633c0,.1998 1.5974,6.7892-8.9853,8.9854"/>
<path d="m394.6157,106.064c.1997,.3992 10.1834,1.9967 10.1834,1.9967"/>
<path d="m369.6563,129.2263c.1997-.1998 12.1802-3.7938 12.1802-3.7938"/>
<path d="m350.2879,144.2018c.3994,0 8.3863,1.3978 10.3831,.3994"/>
<path d="m344.697,151.5897c0,0 2.5958,1.3978 .3994,14.7759"/>
<path d="m305.7605,116.4471l4.7922,7.1883"/>
<path d="m289.3872,153.3869c0-.1998 4.7922,7.1881 11.1818,8.5859"/>
<path d="m327.1257,190.9257c.1997,0 7.7873-1.5976 8.9854-2.3962"/>
<path d="m323.7312,218.0814c.1997,0-.1997-4.9918 5.9902-8.3864"/>
<path d="m315.5446,230.4612c0,.1996 5.7905,7.3879 9.784,8.3864"/>
<path d="m312.1501,244.2389c.599-.1998 6.7889-5.5912 13.9772-5.1917"/>
<path d="m310.1534,262.8084c0,0 .1997,6.1901 18.5697,4.5927"/>
<path d="m311.9504,284.5729c0-.1996 5.3912-12.3798 16.3733-16.9724"/>
<path d="m326.7263,300.1476c0,0 1.5974-5.1917 10.7824-8.7857"/>
<path d="m336.9097,320.7139c0,0 6.5893-5.3911 8.9854-6.1897"/>
<path d="m345.0964,336.6881c0,0 3.9935,4.1931 13.9772-2.9952"/>
<path d="m296.9748,340.0824c1.1981-.1997 15.7743-3.594 20.7662,3.9936"/>
<path d="m302.7654,352.0629c0,0 15.3749-1.9968 17.3717-.3993"/>
<path d="m357.6759,355.2577c0,0-1.9967,4.1933 16.9723-2.7954"/>
<path d="m381.2375,362.8453c-3.3945,5.7904 .7987,10.383-3.5941,12.9787"/>
<path d="m323.5315,370.8322c.599-.3991 6.9886-2.5956 5.9902-11.7807"/>
<path d="m329.3221,384.6099c.7987-.1996 11.3814-4.7922 13.5779-2.3961"/>
<path d="m350.0882,397.9881c0,0 1.3977-9.3848 4.3928-10.383"/>
<path d="m366.0622,412.1649c0,0 8.7857-.1996 12.5795-2.995"/>
<path d="m383.0345,380.4168c.1997,.1996 8.1867,4.3927 25.159,.1996"/>
<path d="m389.4241,418.5546c0,0 2.3961,12.18 2.1964,14.9755"/>
</g>
<g fill="#de2010" stroke-width="1.25" transform="matrix(1.91965 0 0 1.91965 249.652 3.73808)">
<path d="m232.8412,119.0314c.0018-2.1088-.7941-4.0584-2.0874-5.1136-1.2933-1.0551-2.8872-1.0551-4.1805,0-1.2933,1.0551-2.0892,3.0048-2.0874,5.1136-.0018,2.1088 .7941,4.0584 2.0874,5.1136 1.2933,1.0551 2.8872,1.0551 4.1805,0 1.2933-1.0551 2.0892-3.0048 2.0874-5.1136z" transform="matrix(.96309 -.12039 .12403 .99228 -6.44751 28.44685)"/>
<path d="m232.8412,119.0314c.0018-2.1088-.7941-4.0584-2.0874-5.1136-1.2933-1.0551-2.8872-1.0551-4.1805,0-1.2933,1.0551-2.0892,3.0048-2.0874,5.1136-.0018,2.1088 .7941,4.0584 2.0874,5.1136 1.2933,1.0551 2.8872,1.0551 4.1805,0 1.2933-1.0551 2.0892-3.0048 2.0874-5.1136z" transform="matrix(.96309 -.12039 .12403 .99228 -7.30761 17.87991)"/>
<path d="m232.8412,119.0314c.0018-2.1088-.7941-4.0584-2.0874-5.1136-1.2933-1.0551-2.8872-1.0551-4.1805,0-1.2933,1.0551-2.0892,3.0048-2.0874,5.1136-.0018,2.1088 .7941,4.0584 2.0874,5.1136 1.2933,1.0551 2.8872,1.0551 4.1805,0 1.2933-1.0551 2.0892-3.0048 2.0874-5.1136z" transform="matrix(.94879 -.20455 .21075 .97754 -16.44761 27.94469)"/>
<path d="m232.8412,119.0314c.0018-2.1088-.7941-4.0584-2.0874-5.1136-1.2933-1.0551-2.8872-1.0551-4.1805,0-1.2933,1.0551-2.0892,3.0048-2.0874,5.1136-.0018,2.1088 .7941,4.0584 2.0874,5.1136 1.2933,1.0551 2.8872,1.0551 4.1805,0 1.2933-1.0551 2.0892-3.0048 2.0874-5.1136z" transform="matrix(.8653 -.43966 .45299 .89152 -29.75283 81.13217)"/>
<path d="m232.8412,119.0314c.0018-2.1088-.7941-4.0584-2.0874-5.1136-1.2933-1.0551-2.8872-1.0551-4.1805,0-1.2933,1.0551-2.0892,3.0048-2.0874,5.1136-.0018,2.1088 .7941,4.0584 2.0874,5.1136 1.2933,1.0551 2.8872,1.0551 4.1805,0 1.2933-1.0551 2.0892-3.0048 2.0874-5.1136z" transform="matrix(.8653 -.43966 .45299 .89152 -33.93046 71.67111)"/>
<path d="m232.8412,119.0314c.0018-2.1088-.7941-4.0584-2.0874-5.1136-1.2933-1.0551-2.8872-1.0551-4.1805,0-1.2933,1.0551-2.0892,3.0048-2.0874,5.1136-.0018,2.1088 .7941,4.0584 2.0874,5.1136 1.2933,1.0551 2.8872,1.0551 4.1805,0 1.2933-1.0551 2.0892-3.0048 2.0874-5.1136z" transform="matrix(.82496 -.51136 .52685 .84996 -39.27391 83.79712)"/>
<path d="m232.8412,119.0314c.0018-2.1088-.7941-4.0584-2.0874-5.1136-1.2933-1.0551-2.8872-1.0551-4.1805,0-1.2933,1.0551-2.0892,3.0048-2.0874,5.1136-.0018,2.1088 .7941,4.0584 2.0874,5.1136 1.2933,1.0551 2.8872,1.0551 4.1805,0 1.2933-1.0551 2.0892-3.0048 2.0874-5.1136z" transform="matrix(.77166 -.58871 .60656 .79504 -42.96256 99.17577)"/>
<path d="m232.8412,119.0314c.0018-2.1088-.7941-4.0584-2.0874-5.1136-1.2933-1.0551-2.8872-1.0551-4.1805,0-1.2933,1.0551-2.0892,3.0048-2.0874,5.1136-.0018,2.1088 .7941,4.0584 2.0874,5.1136 1.2933,1.0551 2.8872,1.0551 4.1805,0 1.2933-1.0551 2.0892-3.0048 2.0874-5.1136z" transform="matrix(.67817 -.69436 .7154 .69872 -42.0354 126.6884)"/>
<path d="m232.8412,119.0314c.0018-2.1088-.7941-4.0584-2.0874-5.1136-1.2933-1.0551-2.8872-1.0551-4.1805,0-1.2933,1.0551-2.0892,3.0048-2.0874,5.1136-.0018,2.1088 .7941,4.0584 2.0874,5.1136 1.2933,1.0551 2.8872,1.0551 4.1805,0 1.2933-1.0551 2.0892-3.0048 2.0874-5.1136z" transform="matrix(.61142 -.75379 .77664 .62995 -42.66369 140.8465)"/>
<path d="m232.8412,119.0314c.0018-2.1088-.7941-4.0584-2.0874-5.1136-1.2933-1.0551-2.8872-1.0551-4.1805,0-1.2933,1.0551-2.0892,3.0048-2.0874,5.1136-.0018,2.1088 .7941,4.0584 2.0874,5.1136 1.2933,1.0551 2.8872,1.0551 4.1805,0 1.2933-1.0551 2.0892-3.0048 2.0874-5.1136z" transform="matrix(.4778 -.84484 .87044 .49228 -32.12083 172.155)"/>
<path d="m232.8412,119.0314c.0018-2.1088-.7941-4.0584-2.0874-5.1136-1.2933-1.0551-2.8872-1.0551-4.1805,0-1.2933,1.0551-2.0892,3.0048-2.0874,5.1136-.0018,2.1088 .7941,4.0584 2.0874,5.1136 1.2933,1.0551 2.8872,1.0551 4.1805,0 1.2933-1.0551 2.0892-3.0048 2.0874-5.1136z" transform="matrix(.39893 -.88482 .91163 .41101 -29.18694 185.5629)"/>
<path d="m232.8412,119.0314c.0018-2.1088-.7941-4.0584-2.0874-5.1136-1.2933-1.0551-2.8872-1.0551-4.1805,0-1.2933,1.0551-2.0892,3.0048-2.0874,5.1136-.0018,2.1088 .7941,4.0584 2.0874,5.1136 1.2933,1.0551 2.8872,1.0551 4.1805,0 1.2933-1.0551 2.0892-3.0048 2.0874-5.1136z" transform="matrix(.33871 -.90957 .93714 .34897 -28.52852 194.5536)"/>
<path d="m232.8412,119.0314c.0018-2.1088-.7941-4.0584-2.0874-5.1136-1.2933-1.0551-2.8872-1.0551-4.1805,0-1.2933,1.0551-2.0892,3.0048-2.0874,5.1136-.0018,2.1088 .7941,4.0584 2.0874,5.1136 1.2933,1.0551 2.8872,1.0551 4.1805,0 1.2933-1.0551 2.0892-3.0048 2.0874-5.1136z" transform="matrix(.2683 -.93277 .96103 .27643 -25.47267 205.2976)"/>
<path d="m232.8412,119.0314c.0018-2.1088-.7941-4.0584-2.0874-5.1136-1.2933-1.0551-2.8872-1.0551-4.1805,0-1.2933,1.0551-2.0892,3.0048-2.0874,5.1136-.0018,2.1088 .7941,4.0584 2.0874,5.1136 1.2933,1.0551 2.8872,1.0551 4.1805,0 1.2933-1.0551 2.0892-3.0048 2.0874-5.1136z" transform="matrix(.12145 -.96296 .99214 .12513 -6.53034 228.3687)"/>
<path d="m232.8412,119.0314c.0018-2.1088-.7941-4.0584-2.0874-5.1136-1.2933-1.0551-2.8872-1.0551-4.1805,0-1.2933,1.0551-2.0892,3.0048-2.0874,5.1136-.0018,2.1088 .7941,4.0584 2.0874,5.1136 1.2933,1.0551 2.8872,1.0551 4.1805,0 1.2933-1.0551 2.0892-3.0048 2.0874-5.1136z" transform="matrix(.03894 -.96981 .9992 .04012 .43684 239.4379)"/>
<path d="m232.8412,119.0314c.0018-2.1088-.7941-4.0584-2.0874-5.1136-1.2933-1.0551-2.8872-1.0551-4.1805,0-1.2933,1.0551-2.0892,3.0048-2.0874,5.1136-.0018,2.1088 .7941,4.0584 2.0874,5.1136 1.2933,1.0551 2.8872,1.0551 4.1805,0 1.2933-1.0551 2.0892-3.0048 2.0874-5.1136z" transform="matrix(.03894 -.96981 .9992 .04012 -10.00723 239.8066)"/>
<path d="m232.8412,119.0314c.0018-2.1088-.7941-4.0584-2.0874-5.1136-1.2933-1.0551-2.8872-1.0551-4.1805,0-1.2933,1.0551-2.0892,3.0048-2.0874,5.1136-.0018,2.1088 .7941,4.0584 2.0874,5.1136 1.2933,1.0551 2.8872,1.0551 4.1805,0 1.2933-1.0551 2.0892-3.0048 2.0874-5.1136z" transform="matrix(-.21629 -.94618 .97486 -.22284 40.07079 267.0575)"/>
<path d="m232.8412,119.0314c.0018-2.1088-.7941-4.0584-2.0874-5.1136-1.2933-1.0551-2.8872-1.0551-4.1805,0-1.2933,1.0551-2.0892,3.0048-2.0874,5.1136-.0018,2.1088 .7941,4.0584 2.0874,5.1136 1.2933,1.0551 2.8872,1.0551 4.1805,0 1.2933-1.0551 2.0892-3.0048 2.0874-5.1136z" transform="matrix(-.29359 -.92512 .95315 -.30249 49.5179 274.4248)"/>
<path d="m232.8412,119.0314c.0018-2.1088-.7941-4.0584-2.0874-5.1136-1.2933-1.0551-2.8872-1.0551-4.1805,0-1.2933,1.0551-2.0892,3.0048-2.0874,5.1136-.0018,2.1088 .7941,4.0584 2.0874,5.1136 1.2933,1.0551 2.8872,1.0551 4.1805,0 1.2933-1.0551 2.0892-3.0048 2.0874-5.1136z" transform="matrix(-.40169 -.88356 .91034 -.41387 69.62627 282.3576)"/>
<path d="m232.8412,119.0314c.0018-2.1088-.7941-4.0584-2.0874-5.1136-1.2933-1.0551-2.8872-1.0551-4.1805,0-1.2933,1.0551-2.0892,3.0048-2.0874,5.1136-.0018,2.1088 .7941,4.0584 2.0874,5.1136 1.2933,1.0551 2.8872,1.0551 4.1805,0 1.2933-1.0551 2.0892-3.0048 2.0874-5.1136z" transform="matrix(-.4756 -.84607 .87171 -.49002 81.29559 287.8874)"/>
<path d="m232.8412,119.0314c.0018-2.1088-.7941-4.0584-2.0874-5.1136-1.2933-1.0551-2.8872-1.0551-4.1805,0-1.2933,1.0551-2.0892,3.0048-2.0874,5.1136-.0018,2.1088 .7941,4.0584 2.0874,5.1136 1.2933,1.0551 2.8872,1.0551 4.1805,0 1.2933-1.0551 2.0892-3.0048 2.0874-5.1136z" transform="matrix(-.56473 -.78938 .8133 -.58184 99.41281 292.1202)"/>
<path d="m232.8412,119.0314c.0018-2.1088-.7941-4.0584-2.0874-5.1136-1.2933-1.0551-2.8872-1.0551-4.1805,0-1.2933,1.0551-2.0892,3.0048-2.0874,5.1136-.0018,2.1088 .7941,4.0584 2.0874,5.1136 1.2933,1.0551 2.8872,1.0551 4.1805,0 1.2933-1.0551 2.0892-3.0048 2.0874-5.1136z" transform="matrix(-.6295 -.73877 .76115 -.64857 111.8287 295.0017)"/>
<path d="m232.8412,119.0314c.0018-2.1088-.7941-4.0584-2.0874-5.1136-1.2933-1.0551-2.8872-1.0551-4.1805,0-1.2933,1.0551-2.0892,3.0048-2.0874,5.1136-.0018,2.1088 .7941,4.0584 2.0874,5.1136 1.2933,1.0551 2.8872,1.0551 4.1805,0 1.2933-1.0551 2.0892-3.0048 2.0874-5.1136z" transform="matrix(-.68085 -.69173 .71269 -.70148 121.7223 298.5299)"/>
<path d="m232.8412,119.0314c.0018-2.1088-.7941-4.0584-2.0874-5.1136-1.2933-1.0551-2.8872-1.0551-4.1805,0-1.2933,1.0551-2.0892,3.0048-2.0874,5.1136-.0018,2.1088 .7941,4.0584 2.0874,5.1136 1.2933,1.0551 2.8872,1.0551 4.1805,0 1.2933-1.0551 2.0892-3.0048 2.0874-5.1136z" transform="matrix(-.73636 -.63231 .65147 -.75867 135.1894 300.5982)"/>
<path d="m232.8412,119.0314c.0018-2.1088-.7941-4.0584-2.0874-5.1136-1.2933-1.0551-2.8872-1.0551-4.1805,0-1.2933,1.0551-2.0892,3.0048-2.0874,5.1136-.0018,2.1088 .7941,4.0584 2.0874,5.1136 1.2933,1.0551 2.8872,1.0551 4.1805,0 1.2933-1.0551 2.0892-3.0048 2.0874-5.1136z" transform="matrix(-.79959 -.55018 .56685 -.82383 153.8237 298.5415)"/>
<path d="m232.8412,119.0314c.0018-2.1088-.7941-4.0584-2.0874-5.1136-1.2933-1.0551-2.8872-1.0551-4.1805,0-1.2933,1.0551-2.0892,3.0048-2.0874,5.1136-.0018,2.1088 .7941,4.0584 2.0874,5.1136 1.2933,1.0551 2.8872,1.0551 4.1805,0 1.2933-1.0551 2.0892-3.0048 2.0874-5.1136z" transform="matrix(-.88221 -.40465 .41691 -.90895 185.7724 285.3494)"/>
<path d="m232.8412,119.0314c.0018-2.1088-.7941-4.0584-2.0874-5.1136-1.2933-1.0551-2.8872-1.0551-4.1805,0-1.2933,1.0551-2.0892,3.0048-2.0874,5.1136-.0018,2.1088 .7941,4.0584 2.0874,5.1136 1.2933,1.0551 2.8872,1.0551 4.1805,0 1.2933-1.0551 2.0892-3.0048 2.0874-5.1136z" transform="matrix(-.91526 -.323 .33279 -.943 199.4109 281.4235)"/>
<path d="m232.8412,119.0314c.0018-2.1088-.7941-4.0584-2.0874-5.1136-1.2933-1.0551-2.8872-1.0551-4.1805,0-1.2933,1.0551-2.0892,3.0048-2.0874,5.1136-.0018,2.1088 .7941,4.0584 2.0874,5.1136 1.2933,1.0551 2.8872,1.0551 4.1805,0 1.2933-1.0551 2.0892-3.0048 2.0874-5.1136z" transform="matrix(-.96644 -.07187 .09236 -.79822 236.4132 226.6072)"/>
<path d="m232.8412,119.0314c.0018-2.1088-.7941-4.0584-2.0874-5.1136-1.2933-1.0551-2.8872-1.0551-4.1805,0-1.2933,1.0551-2.0892,3.0048-2.0874,5.1136-.0018,2.1088 .7941,4.0584 2.0874,5.1136 1.2933,1.0551 2.8872,1.0551 4.1805,0 1.2933-1.0551 2.0892-3.0048 2.0874-5.1136z" transform="matrix(-.94631 -.21571 .22224 -.97499 217.2116 271.3869)"/>
</g>
</g>
<g fill="#ffe300">
<path d="m679.9299,195.9178c2.4658-2.6397 4.76-3.3862 7.663-2.4235-1.0237-6.9639-3.2273-9.3266-5.9117-8.4881-2.6844,.8385-3.8994,4.4185-1.7513,10.9116z"/>
<path d="m683.7008,216.934c2.6578-2.4464 5.0018-3.0177 7.8241-1.839-.496-7.0213-2.5155-9.5433-5.2554-8.9095-2.7399,.6339-4.2211,4.1121-2.5687,10.7485z"/>
<path d="m674.7843,176.7335c1.7146-3.1794 3.7441-4.484 6.7963-4.2902-2.7587-6.4756-5.49-8.2012-7.8736-6.7084-2.3834,1.4928-2.6493,5.2639 1.0773,10.9986z"/>
<path d="m665.4331,157.6059c1.7146-3.1794 3.7441-4.484 6.7963-4.2902-2.7587-6.4756-5.49-8.2012-7.8736-6.7084-2.3834,1.4928-2.6493,5.2639 1.0773,10.9986z"/>
<path d="m642.9963,122.568c1.1813-3.4137 2.9749-5.0275 6.0185-5.3268-3.7637-5.948-6.7368-7.2122-8.8494-5.3557-2.1126,1.8565-1.769,5.6213 2.8309,10.6825z"/>
<path d="m628.3369,107.2984c1.0516-3.4559 2.7827-5.1363 5.8129-5.5504-3.9858-5.8015-7.0046-6.9524-9.0454-5.0174-2.041,1.935-1.5553,5.6842 3.2325,10.5678z"/>
<path d="m597.5136,81.2896c-.0639-3.6118 1.0656-5.7437 3.8209-7.0709-5.5789-4.2919-8.8054-4.4571-10.1509-1.9877-1.3459,2.4695 .2709,5.8868 6.33,9.0586z"/>
<path d="m613.5509,93.3162c.5625-3.5683 2.044-5.4724 4.9874-6.3025-4.7513-5.1931-7.9005-5.9145-9.6533-3.7154-1.7532,2.1992-.7525,5.8448 4.6659,10.0179z"/>
<path d="m579.2118,71.1908c-.4361-3.5859 .4673-5.823 3.0709-7.4274-5.9918-3.6934-9.2183-3.5248-10.3018-.9297-1.0838,2.5952 .8769,5.8275 7.2309,8.3571z"/>
<path d="m560.5122,63.0274c-.9448-3.4866-.3709-5.8299 1.9763-7.7904-6.4586-2.798-9.6278-2.1694-10.3286,.5541-.7014,2.7236 1.7018,5.642 8.3524,7.2363z"/>
<path d="m540.363,56.7843c-1.2366-3.3941-.8631-5.7776 1.3096-7.9297-6.6723-2.2412-9.7768-1.3465-10.2446,1.4265-.4684,2.7732 2.1732,5.4777 8.935,6.5033z"/>
<path d="m520.5663,52.9524c-1.4789-3.2958-1.2787-5.7001 .7327-8.0037-6.817-1.7528-9.8485-.636-10.1146,2.1636-.2666,2.7998 2.5637,5.3062 9.3819,5.8401z"/>
<path d="m499.607,51.3456c-1.8127-3.1246-1.8628-5.5368-.1012-8.0365-6.962-1.0365-9.8614,.3887-9.8357,3.2007 .0251,2.8124 3.1,5.0118 9.9368,4.8358z"/>
<path d="m458.5673,54.4374c-2.5124-2.5954-3.1425-4.9244-2.0356-7.775-7.0065,.6725-9.4767,2.7547-8.7739,5.4776 .7024,2.7234 4.2169,4.1165 10.8095,2.2975z"/>
<path d="m478.775,51.7785c-2.1381-2.9116-2.4472-5.3044-.9646-7.979-7.033-.282-9.7624,1.4466-9.4345,4.2396 .3273,2.7934 3.6208,4.6494 10.3991,3.7394z"/>
<path d="m438.7484,58.7188c-2.8586-2.2084-3.816-4.4229-3.1293-7.4029-6.8377,1.6701-8.9839,4.0849-7.898,6.6789 1.0856,2.5945 4.7635,3.4694 11.0272,.724z"/>
<path d="m400.7989,76.168c-3.2265-1.6243-4.5877-3.6163-4.4804-6.6724-6.3952,2.9403-8.0428,5.7193-6.4832,8.0594 1.5593,2.3406 5.3365,2.4999 10.9636-1.387z"/>
<path d="m419.0978,66.8198c-3.0053-2.0041-4.1146-4.1467-3.6368-7.1672-6.7049,2.1419-8.6779,4.7002-7.414,7.2123 1.2635,2.5127 4.9934,3.1295 11.0509-.0452z"/>
<path d="m366.7633,99.8668c-3.4941-.9162-5.2406-2.5808-5.7725-5.5922-5.642,4.2086-6.6743,7.2699-4.6613,9.2336 2.0128,1.9643 5.7403,1.3328 10.4338-3.6414z"/>
<path d="m382.9979,86.5755c-3.4117-1.187-5.0225-2.9831-5.317-6.0269-5.9541,3.754-7.2229,6.7251-5.3698,8.8403 1.8529,2.1158 5.6183,1.7781 10.6868-2.8134z"/>
<path d="m352.3296,114.0825c-3.563-.5948-5.4535-2.0937-6.257-5.0443-5.236,4.704-5.9858,7.8465-3.8026,9.6191 2.1831,1.7732 5.8377,.8055 10.0596-4.5748z"/>
<path d="m339.3977,130.86c-3.6023-.269-5.621-1.5901-6.689-4.4555-4.7874,5.1599-5.2489,8.3574-2.9138,9.9245 2.335,1.5677 5.8867,.2723 9.6028-5.469z"/>
<path d="m328.582,148.0235c-3.601,.2858-5.7982-.7105-7.2924-3.3786-3.9408,5.8321-3.9071,9.0626-1.3596,10.2536 2.5475,1.1916 5.859-.6324 8.652-6.875z"/>
<path d="m319.0793,166.3485c-3.5334,.7507-5.8414,.0479-7.6692-2.4038-3.1507,6.2942-2.6981,9.493-.0176,10.3434 2.6806,.851 5.7274-1.3873 7.6868-7.9396z"/>
<path d="m311.4805,185.155c-3.3698,1.301-5.76,.9727-7.9532-1.1584-2.1137,6.7139-1.16,9.8006 1.6214,10.2155 2.7816,.4155 5.4352-2.2772 6.3318-9.0572z"/>
<path d="m306.3872,206.1118c-3.2752,1.5238-5.682,1.356-8.0129-.6233-1.6595,6.8403-.5013,9.8562 2.3016,10.0841 2.8031,.2283 5.2706-2.6361 5.7112-9.4608z"/>
<path d="m304.3183,223.557c-3.0834,1.633-5.4861,1.826-8.0061,.5914-.9172,5.5747 .5511,7.778 3.3527,7.579 2.8019-.1989 4.9424-2.772 4.6534-8.1704z"/>
<path d="m657.085,140.5693c1.233-3.3953 3.0507-4.9817 6.0985-5.2347-3.6729-6.0045-6.6264-7.3137-8.767-5.4895-2.1404,1.8241-1.854,5.5938 2.6685,10.7242z"/>
<path d="m686.0027,238.2256c2.6577-2.4464 5.0018-3.0177 7.8241-1.839-.496-7.0213-2.5155-9.5433-5.2554-8.9095-2.7399,.6339-4.2211,4.1121-2.5687,10.7485z"/>
</g>
<g fill="#217900" stroke="#000" stroke-linejoin="round" stroke-width="1.92">
<path d="m658.4454,123.9362c-.0856,0-7.9585,7.873-6.5892,17.4574 1.3691,9.5845 7.445,21.3939 6.3325,31.3206-1.1126,9.9267-2.9096,16.516-2.9096,16.516 0,0 9.2421-10.5259 9.3278-20.6237 .0856-10.0978-6.3327-23.3621-6.3327-30.8071 0-7.445 .3425-14.0343 .1712-13.8632z"/>
<path d="m673.0789,156.1126c0,0-6.1615,4.5355-5.5624,14.9757 .5989,10.4402 11.3814,29.6089 11.3814,29.6089 0,0 7.873,16.1738 7.6162,20.3671-.2567,4.1931 1.4549-4.0219 .6847-13.2642-.7702-9.2421-12.6653-29.6091-12.6653-29.6091 0,0-2.5673-4.1931-2.3105-11.1248 .2566-6.9317 .9414-10.8682 .8558-10.9537z"/>
</g>
<g fill="#6b18b5">
<path d="m487.9307,26.748c.0008-2.1606-2.4297-3.9125-5.4281-3.9125-2.9984,0-5.429,1.7518-5.4281,3.9125-.0008,2.1606 2.4297,3.9125 5.4281,3.9125 2.9984,0 5.4289-1.7518 5.4281-3.9125z"/>
<path d="m490.2455,35.8481c0-2.0721-2.5017-3.7518-5.5878-3.7518-3.086,0-5.5878,1.6797-5.5878,3.7518 0,2.0721 2.5017,3.7518 5.5878,3.7518 3.086,0 5.5878-1.6797 5.5878-3.7518z"/>
<path d="m497.1904,25.0717c0,0-6.3861,4.7896-3.7518,6.7054 2.6341,1.9158 9.8983-4.1509 9.8983-4.1509l-6.1465-2.5545z"/>
<path d="m684.879,134.732c.0018-1.3615-.6363-2.6205-1.6737-3.3019-1.0373-.6814-2.3159-.6814-3.3532,0-1.0373,.6814-1.6755,1.9404-1.6737,3.3019-.0018,1.3615 .6363,2.6205 1.6737,3.3019 1.0373,.6814 2.3159,.6814 3.3532,0 1.0373-.6814 1.6755-1.9404 1.6737-3.3019z"/>
<path d="m682.4425,125.595c0-2.2708-1.5681-4.1116-3.5025-4.1116-1.9344,0-3.5025,1.8408-3.5025,4.1116 0,2.2708 1.5681,4.1116 3.5025,4.1116 1.9344,0 3.5025-1.8409 3.5025-4.1116z"/>
<path d="m684.1175,144.1736c0-1.1775-.6136-2.132-1.3706-2.132-.7569,0-1.3705,.9545-1.3705,2.132 0,1.1775 .6136,2.132 1.3705,2.132 .7569,0 1.3706-.9545 1.3706-2.132z"/>
<path d="m689.7521,127.5747c0-1.3457-.6136-2.4366-1.3705-2.4366-.7569,0-1.3705,1.0909-1.3705,2.4366 0,1.3457 .6136,2.4366 1.3705,2.4366 .7569,0 1.3705-1.0909 1.3705-2.4366z"/>
<path d="m674.3715,129.2499c0-1.0933-.6136-1.9797-1.3705-1.9797-.7569,0-1.3705,.8863-1.3705,1.9797 0,1.0933 .6136,1.9797 1.3705,1.9797 .7569,0 1.3705-.8863 1.3705-1.9797z"/>
<path d="m676.8079,142.3462c.0006-1.7667-1.295-3.1992-2.8934-3.1992-1.5984,0-2.8939,1.4325-2.8934,3.1992-.0006,1.7667 1.295,3.1992 2.8934,3.1992 1.5984,0 2.8939-1.4325 2.8934-3.1992z"/>
<path d="m669.1938,136.5594c0-1.5139-1.0909-2.7411-2.4366-2.7411-1.3456,0-2.4365,1.2272-2.4365,2.7411 0,1.5139 1.0909,2.7411 2.4365,2.7411 1.3457,0 2.4366-1.2272 2.4366-2.7411z"/>
<path d="m667.9755,128.7929c.001-.8168-.4051-1.5721-1.0652-1.9808-.6601-.4087-1.4736-.4087-2.1336,0-.66,.4087-1.0662,1.164-1.0652,1.9808-.001,.8168 .4051,1.5721 1.0652,1.9808 .6601,.4087 1.4736,.4087 2.1336,0 .6601-.4087 1.0662-1.164 1.0652-1.9808z"/>
<path d="m702.6899,168.2796c-3.1455-4.1513-8.1812-5.9006-11.2476-3.9071-3.0664,1.9935-3.0023,6.975 .1432,11.1263 3.1455,4.1514 8.1812,5.9006 11.2476,3.907 3.0664-1.9935 3.0022-6.975-.1433-11.1263z"/>
<path d="m711.6334,244.8678c.6095-5.094-1.875-9.58-5.5494-10.0196-3.6744-.4397-7.1472,3.3334-7.7567,8.4275-.6095,5.094 1.875,9.58 5.5494,10.0196 3.6744,.4397 7.1472-3.3334 7.7567-8.4275z"/>
<path d="m713.5197,289.4495c1.0471-5.0224-1.0408-9.7061-4.6635-10.4614-3.6227-.7553-7.4083,2.7038-8.4555,7.7262-1.0471,5.0224 1.0408,9.7061 4.6634,10.4614 3.6227,.7553 7.4084-2.7038 8.4555-7.7262z"/>
<path d="m722.1136,247.7221c0-2.0185-1.3636-3.6549-3.0457-3.6549-1.6821,0-3.0457,1.6364-3.0457,3.6549 0,2.0185 1.3636,3.6549 3.0457,3.6549 1.6821,0 3.0457-1.6364 3.0457-3.6549z"/>
<path d="m714.6517,256.0977l-6.2437,7.0812c0,0-5.8628,.1522-5.5583,2.0557 .3046,1.9035 8.0711,7.6143 7.9949,9.8985-.0762,2.2844 5.1777-.5329 5.1777-.5329 0,0 4.1877-12.7157 4.1877-12.792 0-.0762-.2284-8.8327-2.5126-8.6802-2.2844,.1522-2.9033,2.8081-3.0457,2.9697z"/>
<path d="m303.9654,253.2971c0-1.6411-1.3304-2.9715-2.9716-2.9715-1.6411,0-2.9716,1.3304-2.9716,2.9715 0,1.6411 1.3304,2.9715 2.9716,2.9715 1.6411,0 2.9716-1.3304 2.9716-2.9715z"/>
<path d="m306.7719,244.2174c0-1.7323-1.3304-3.1367-2.9715-3.1367-1.6412,0-2.9716,1.4043-2.9716,3.1367 0,1.7323 1.3304,3.1367 2.9716,3.1367 1.6411,0 2.9715-1.4043 2.9715-3.1367z"/>
<path d="m282.3684,201.0379c-1.1145-2.4979-3.4354-3.8904-5.1839-3.1103-1.7485,.7801-2.2625,3.4375-1.1481,5.9354 1.1145,2.4979 3.4354,3.8904 5.1839,3.1103 1.7485-.7801 2.2625-3.4375 1.1481-5.9354z"/>
<path d="m289.7423,227.9417c-1.531-3.2375-4.7192-5.0423-7.1212-4.0312-2.402,1.0111-3.1081,4.4553-1.5771,7.6927 1.531,3.2375 4.7192,5.0423 7.1212,4.0312 2.402-1.0111 3.1081-4.4553 1.5771-7.6928z"/>
<path d="m297.628,247.6688c.496-4.0437-1.1796-7.7583-3.7425-8.2968-2.563-.5385-5.0427,2.303-5.5387,6.3467-.496,4.0437 1.1796,7.7583 3.7425,8.2969 2.563,.5385 5.0427-2.303 5.5388-6.3467z"/>
<path d="m284.9666,250.5541c1.5852-3.753 .9917-7.7846-1.3256-9.0048-2.3173-1.2202-5.4808,.833-7.066,4.5859-1.5852,3.753-.9917,7.7846 1.3256,9.0048 2.3173,1.2203 5.4808-.8329 7.066-4.5859z"/>
<path d="m279.2025,242.0712c0-1.9147-1.4782-3.4669-3.3017-3.4669-1.8235,0-3.3017,1.5522-3.3017,3.4669 0,1.9147 1.4782,3.4669 3.3017,3.4669 1.8235,0 3.3017-1.5522 3.3017-3.4669z"/>
<path d="m276.5611,233.4867c0-1.7323-1.3304-3.1367-2.9716-3.1367-1.6411,0-2.9715,1.4043-2.9715,3.1367 0,1.7323 1.3304,3.1367 2.9715,3.1367 1.6411,0 2.9716-1.4043 2.9716-3.1367z"/>
<path d="m279.3676,216.9781c0-2.9176-1.2935-5.2829-2.889-5.2829-1.5956,0-2.889,2.3652-2.889,5.2829 0,2.9177 1.2934,5.2829 2.889,5.2829 1.5956,0 2.889-2.3652 2.889-5.2829z"/>
<path d="m288.2569,215.7084c.385-2.8921-.5851-5.4073-2.1668-5.6178-1.5816-.2105-3.1758,1.9634-3.5607,4.8555-.3849,2.8921 .5851,5.4073 2.1668,5.6179 1.5816,.2105 3.1758-1.9634 3.5607-4.8555z"/>
<path d="m351.6012,89.3334c1.1775-4.0958-.0369-8.2123-2.7124-9.1943-2.6755-.982-5.799,1.5422-6.9764,5.638-1.1775,4.0958 .0369,8.2123 2.7124,9.1943 2.6755,.982 5.799-1.5422 6.9764-5.638z"/>
<path d="m339.574,107.5636c3.5285-3.0031 5.0359-7.1556 3.3668-9.275-1.6691-2.1193-5.8826-1.4029-9.4111,1.6002-3.5285,3.0031-5.0359,7.1556-3.3668,9.275 1.6691,2.1193 5.8826,1.4029 9.4111-1.6002z"/>
<path d="m332.5539,97.4435c3.4894-2.5781 4.98-6.1429 3.3295-7.9623-1.6506-1.8194-5.8173-1.2043-9.3066,1.3737-3.4894,2.5781-4.98,6.1429-3.3295,7.9623 1.6506,1.8194 5.8173,1.2043 9.3066-1.3737z"/>
<path d="m359.6053,79.6487c2.3531-1.7988 3.3583-4.2862 2.2452-5.5556-1.1131-1.2695-3.9229-.8403-6.276,.9585-2.3531,1.7988-3.3583,4.2862-2.2452,5.5556 1.1131,1.2695 3.9229,.8403 6.276-.9585z"/>
<path d="m345.5039,96.8901c1.6091-2.4867 1.7172-5.1673 .2414-5.9873-1.4758-.82-3.9766,.531-5.5857,3.0177-1.6091,2.4867-1.7172,5.1673-.2414,5.9873 1.4758,.82 3.9766-.531 5.5857-3.0177z"/>
<path d="m365.8571,86.2354c2.5305-2.1326 3.5165-4.9576 2.2022-6.3097-1.3143-1.3522-4.4312-.7195-6.9617,1.4131-2.5305,2.1326-3.5165,4.9576-2.2022,6.3097 1.3143,1.3522 4.4312,.7195 6.9617-1.4131z"/>
<path d="m329.075,111.0898c2.3655-.118 4.1512-1.2964 3.9884-2.632-.1628-1.3355-2.2125-2.3225-4.578-2.2045-2.3655,.118-4.1512,1.2964-3.9884,2.632 .1628,1.3355 2.2125,2.3225 4.578,2.2045z"/>
<path d="m373.607,73.026c1.6091-2.4867 1.7172-5.1673 .2414-5.9873-1.4758-.82-3.9766,.531-5.5857,3.0177-1.6091,2.4867-1.7172,5.1673-.2414,5.9873 1.4758,.82 3.9766-.531 5.5857-3.0177z"/>
</g>
<path fill="#ffd200" stroke="#ef8a10" d="m641.803,148.4865c0,0 7.3382-11.6148 4.501-22.5475-2.8372-10.9327-14.9452-3.2071-14.6845,.6836 .2609,3.8906 7.8245,9.0954 8.2844,11.4695 .4596,2.3742-.8546,9.6771 1.8991,10.3943z"/>
<g fill="#217900" stroke="#000" stroke-linejoin="round" stroke-width="2.4">
<path d="m501.6714,51.8818c0,0 26.4429,1.0271 26.614,18.1422-.0856,2.6529-.0002,5.8189-.9414,13.4351 5.2201-2.8238 8.7288-10.6968 8.0441-15.7458 .0856-17.3717-23.6187-29.2669-33.7167-15.8316z"/>
<path d="m484.8987,51.1116c0,0 21.3083-4.45 21.4793,12.6652 .1712,17.1151-6.7604,19.8535-6.7604,19.8535 0,0 16.345-3.5087 16.4304-20.8804 .0856-17.3717-21.0514-25.0735-31.1493-11.6382z"/>
</g>
<g transform="matrix(1.91965 0 0 1.91965 249.652 5.76695)">
<path fill="#f7df73" stroke="#000" stroke-linejoin="round" stroke-width="1.25" d="m160.2616,215.9655c0,0 51.9585-14.6766 67.6472-78.4439-9.1096,65.4543-65.9603,86.2039-65.9603,86.2039l-1.6869-7.76z"/>
<g fill="#8c1800">
<path d="m165.5884,219.9401c1.606,0 5.5788-4.3955 7.861-4.9026 2.2823-.5071 2.5358-2.7895-.0845-2.8739-2.6203-.0845-4.9025,2.9584-4.9025,2.9584 0,0-2.2823,1.9442-4.649,2.1978-2.3668,.2536-.8453,3.2119 1.775,2.6203z"/>
<path stroke="#8c1800" stroke-width="1.25" d="m195.511,197.625c0,0-5.4097,3.1274-4.649,3.8882 .7608,.7608 5.5788-2.9584 5.6633-3.0429 .0845-.0846 2.0287-2.4513-1.0143-.8453z"/>
<path d="m176.6615,211.8255c0,0-1.6061-.5917 2.5358-2.1977 4.1418-1.606 3.8882-3.4656 5.2407-4.2264 1.3524-.7607 4.2263-2.7894 4.818-1.606 .5917,1.1834-3.043,3.5502-3.8882,3.8038-.8453,.2536-4.9872,4.0573-6.1705,4.3954-1.1834,.3381-2.0287,.1691-2.5358-.1691z"/>
</g>
<g fill="none" stroke="#8c1800" stroke-linecap="round">
<path stroke-width="1.625" d="m203.541,189.6794c-3.5501,3.9728-3.5501,3.8883-3.5501,3.8883"/>
<path stroke-width="1.5" d="m208.8663,183.1708l-3.3811,4.1419"/>
<path stroke-width="1.375" d="m214.1915,174.7181l-3.8038,6.086"/>
<g stroke-width="1.25">
<path d="m218.6714,166.0964l-3.1275,6.255"/>
<path d="m220.7,161.532l-1.0143,2.1977"/>
</g>
<path stroke-width=".75" d="m222.9823,155.5305l-.8453,2.6203"/>
</g>
</g>
<g transform="matrix(-1.90206 0 0 1.95415 731.3943 -4.33318)">
<path fill="#f7df73" stroke="#000" stroke-linejoin="round" stroke-width="1.25" d="m160.2616,215.9655c0,0 51.9585-14.6766 67.6472-78.4439-9.1096,65.4543-65.9603,86.2039-65.9603,86.2039l-1.6869-7.76z"/>
<g fill="#8c1800">
<path d="m165.5884,219.9401c1.606,0 5.5788-4.3955 7.861-4.9026 2.2823-.5071 2.5358-2.7895-.0845-2.8739-2.6203-.0845-4.9025,2.9584-4.9025,2.9584 0,0-2.2823,1.9442-4.649,2.1978-2.3668,.2536-.8453,3.2119 1.775,2.6203z"/>
<path stroke="#8c1800" stroke-width="1.25" d="m195.511,197.625c0,0-5.4097,3.1274-4.649,3.8882 .7608,.7608 5.5788-2.9584 5.6633-3.0429 .0845-.0846 2.0287-2.4513-1.0143-.8453z"/>
<path d="m176.6615,211.8255c0,0-1.6061-.5917 2.5358-2.1977 4.1418-1.606 3.8882-3.4656 5.2407-4.2264 1.3524-.7607 4.2263-2.7894 4.818-1.606 .5917,1.1834-3.043,3.5502-3.8882,3.8038-.8453,.2536-4.9872,4.0573-6.1705,4.3954-1.1834,.3381-2.0287,.1691-2.5358-.1691z"/>
</g>
<g fill="none" stroke="#8c1800" stroke-linecap="round">
<path stroke-width="1.625" d="m203.541,189.6794c-3.5501,3.9728-3.5501,3.8883-3.5501,3.8883"/>
<path stroke-width="1.5" d="m208.8663,183.1708l-3.3811,4.1419"/>
<path stroke-width="1.375" d="m214.1915,174.7181l-3.8038,6.086"/>
<g stroke-width="1.25">
<path d="m218.6714,166.0964l-3.1275,6.255"/>
<path d="m220.7,161.532l-1.0143,2.1977"/>
</g>
<path stroke-width=".75" d="m222.9823,155.5305l-.8453,2.6203"/>
</g>
</g>
<g fill="#217900" stroke="#000" stroke-linejoin="round" stroke-width="2.4">
<path d="m691.8913,247.2292c.4901,7.6784 8.0051,15.0295 5.0646,28.4259-3.7575,15.1934-16.9904,51.2977-14.7031,57.6692-3.9209-5.3913-3.2674-10.4557-3.5942-17.9708-.3267-7.5148 10.9456-35.4511 11.926-44.9264-.0002-8.495 .8166-20.0941 1.3067-23.198z"/>
<path d="m691.8913,247.3926c0,0 12.2527,15.52 11.5993,27.7727-.6534,12.2527-7.515,26.629-5.2278,33.0005-3.9209-5.3913-4.901-8.8221-5.2278-16.337-.3267-7.5148 6.0446-15.8469 4.7377-24.0152-1.3071-8.1685-6.0448-20.421-5.8814-20.421z"/>
<path d="m290.5124,250.8233c-.4901,7.6784-6.2081,14.5394-3.2676,27.9358 3.7575,15.1932 17.154,34.4707 15.0299,56.5257 3.9209-5.3915 5.0646-11.4361 5.3913-18.9511 .3267-7.5148-14.8665-32.8371-15.8469-42.3125 .0002-8.495-.8166-20.0941-1.3067-23.198z"/>
<path d="m290.5124,250.9867c0,0-11.926,15.0299-11.2725,27.2828 .1634,8.1683 15.1934,42.3123 12.9062,48.6836 3.9209-5.3911 5.0644-4.7379 4.9009-12.9062-4.411-20.9111-12.2525-34.3077-10.9456-42.4758 1.3071-8.1685 4.5745-20.5844 4.4112-20.5844z"/>
</g>
</g>
<path fill="#fff" stroke="#000" stroke-linejoin="round" stroke-linecap="square" stroke-width="1.494" d="m99.9586,125.785l22.1724,68.231 71.7432,.0027-58.0399,42.1718 22.1673,68.2327-58.0431-42.1674-58.0431,42.1674 22.1673-68.2327-58.0399-42.1718 71.7432-.0027 22.1725-68.231z" stroke-dashoffset="1" transform="matrix(1.33891 0 0 1.3391 360.4303 -54.89397)"/>
</svg>
