<svg xmlns="http://www.w3.org/2000/svg" viewBox="0 0 1000 600" xmlns:xlink="http://www.w3.org/1999/xlink">
<defs/>
<g fill-rule="evenodd" stroke-width="1.25" transform="matrix(1.2 0 0 1.2 -100 .00024)">
<path fill="#fff" d="m83.3334,166.667h833.3336v166.666h-833.3336z"/>
<path fill="#0038a8" d="M 83.3334,333.333 H916.667 V500 H83.3334 z"/>
<path fill="#ce1126" d="m83.3334,0h833.3336v166.667h-833.3336z"/>
</g>
<g transform="matrix(1.2 0 0 1.2 -99.9995 0)">
<g fill-rule="evenodd">
<g stroke="#000">
<path fill="#fff" stroke-width="2.5" d="m563.5,250a63.5,63.5 0 1,1 -127,0 63.5,63.5 0 1,1 127,0z"/>
<g fill="#006700">
<path stroke-width=".171" d="m508.5856,220.3272c0,0 24.478,10.5462 20.2038,32.3387-4.2743,21.7924-17.9022,21.6467-23.246,24.0549-5.3438,2.4083-9.0303,5.8551-11.1389,5.3731-2.1085-.4821-4.8956-2.1093-4.8956-2.1093 0,0-.2231,3.5792 4.069,4.2304 4.2921,.6513 9.934-5.6487 12.6439-6.3491 2.7099-.7004 19.348-2.5064 23.3961-24.6806 4.7246-23.6695-20.8813-32.1636-21.0324-32.8581z"/>
<g stroke-width="2.553">
<path d="m320.2599,487.1976a25.9034,108.3232 0 1,1 -51.8067,0 25.9034,108.3232 0 1,1 51.8067,0z" transform="matrix(.03112 -.00239 .00766 .03003 507.254 211.0993)"/>
<path d="m320.2599,487.1976a25.9034,108.3232 0 1,1 -51.8067,0 25.9034,108.3232 0 1,1 51.8067,0z" transform="matrix(.02818 -.01029 .01418 .02864 504.1681 214.5365)"/>
<path d="m320.2599,487.1976a25.9034,108.3232 0 1,1 -51.8067,0 25.9034,108.3232 0 1,1 51.8067,0z" transform="matrix(.00295 -.03198 .02901 .00849 502.5747 232.9157)"/>
<path d="m320.2599,487.1976a25.9034,108.3232 0 1,1 -51.8067,0 25.9034,108.3232 0 1,1 51.8067,0z" transform="matrix(.01359 -.02695 .02642 .01772 500.7885 225.9192)"/>
<path d="m320.2599,487.1976a25.9034,108.3232 0 1,1 -51.8067,0 25.9034,108.3232 0 1,1 51.8067,0z" transform="matrix(.02057 -.02108 .02244 .02332 501.5276 220.8839)"/>
</g>
<path stroke-width=".045" d="m520.7565,228.5646c.0141,.0146-.9443,.5324-1.1613,.6097-.217,.0772-.5111-.289-1.1352,.0313-.6241,.3203-1.0524,.9045-1.1887,1.2473-.1362,.3429 .1768,.4865 .9311,.1199 .7543-.3666 .9528-.9475 1.3165-1.1751 .3637-.2276 .9737-.5625 1.3209-.6861 .1503-.3282 .6385-1.0319 .8909-1.4357 .2524-.4038 1.2425-1.0703 1.603-1.8462 .3146-.6419 .1965-1.1885-.2246-.9601-.4211,.2284-.9656,.8736-1.2192,1.3367-.2536,.4631-.0358,1.0528-.3175,1.4867-.2218,.3145-.7583,1.2707-.8157,1.2716z"/>
<g stroke-width="2.553">
<path d="m320.2599,487.1976a25.9034,108.3232 0 1,1 -51.8067,0 25.9034,108.3232 0 1,1 51.8067,0z" transform="matrix(.04389 .01051 .00066 .04644 513.9587 205.0869)"/>
<path d="m320.2599,487.1976a25.9034,108.3232 0 1,1 -51.8067,0 25.9034,108.3232 0 1,1 51.8067,0z" transform="matrix(.04243 -.00213 .01015 .04736 508.5469 208.6285)"/>
<path d="m320.2599,487.1976a25.9034,108.3232 0 1,1 -51.8067,0 25.9034,108.3232 0 1,1 51.8067,0z" transform="matrix(.01468 -.04448 .03737 .02515 500.2536 234.2373)"/>
<path d="m320.2599,487.1976a25.9034,108.3232 0 1,1 -51.8067,0 25.9034,108.3232 0 1,1 51.8067,0z" transform="matrix(.02774 -.03251 .03073 .0372 500.0969 223.4179)"/>
<path d="m320.2599,487.1976a25.9034,108.3232 0 1,1 -51.8067,0 25.9034,108.3232 0 1,1 51.8067,0z" transform="matrix(.03547 -.02099 .02335 .04344 502.7879 216.5373)"/>
</g>
<path stroke-width=".065" d="m526.8745,236.1426c.0146,.0272-1.4841,.3399-1.8102,.3534-.3261,.0135-.6122-.6427-1.5825-.4633-.9703,.1794-1.757,.8244-2.0592,1.2544-.3022,.4301 .0837,.7759 1.2497,.5884 1.166-.1875 1.6333-.9306 2.2123-1.0938 .579-.1632 1.5347-.3698 2.0565-.3915 .3168-.4028 1.226-1.192 1.7092-1.6574 .4832-.4654 2.0752-.9768 2.8313-1.9267 .6483-.7784 .6657-1.6142 .0068-1.4755-.6589,.1387-1.6266,.819-2.1311,1.3688-.5045,.5498-.3982,1.4917-.932,1.9871-.4113,.3511-1.471,1.4805-1.5508,1.456z"/>
<g stroke-width="2.553">
<path d="m320.2599,487.1976a25.9034,108.3232 0 1,1 -51.8067,0 25.9034,108.3232 0 1,1 51.8067,0z" transform="matrix(.041 .01881 -.00774 .04599 522.9619 212.7895)"/>
<path d="m320.2599,487.1976a25.9034,108.3232 0 1,1 -51.8067,0 25.9034,108.3232 0 1,1 51.8067,0z" transform="matrix(.04186 .00605 .00138 .04872 517.0335 215.2478)"/>
<path d="m320.2599,487.1976a25.9034,108.3232 0 1,1 -51.8067,0 25.9034,108.3232 0 1,1 51.8067,0z" transform="matrix(.02237 -.04111 .03199 .03201 504.3077 238.9474)"/>
<path d="m320.2599,487.1976a25.9034,108.3232 0 1,1 -51.8067,0 25.9034,108.3232 0 1,1 51.8067,0z" transform="matrix(.03298 -.02678 .02332 .04264 506.1063 228.2314)"/>
<path d="m320.2599,487.1976a25.9034,108.3232 0 1,1 -51.8067,0 25.9034,108.3232 0 1,1 51.8067,0z" transform="matrix(.03846 -.01392 .01499 .04739 509.9778 221.9528)"/>
</g>
<path stroke-width=".065" d="m529.9837,245.9426c.0094,.0297-1.5119,.0506-1.8331,.0013-.3212-.0493-.4824-.7523-1.4632-.7615-.9808-.0092-1.8661,.4767-2.2391,.8434-.3729,.3667-.0581,.7824 1.1154,.8212 1.1735,.0388 1.7643-.6054 2.3596-.6553 .5954-.0499 1.5668-.0705 2.0806,.0084 .3824-.337 1.4134-.9418 1.9697-1.3086 .5562-.3668 2.2045-.5661 3.115-1.359 .7741-.6443 .9419-1.4664 .2729-1.456-.669,.0104-1.7376,.4964-2.3299,.9425-.5923,.4461-.6583,1.3968-1.2695,1.7835-.4654,.2677-1.7048,1.1797-1.7784,1.1402z"/>
<g stroke-width="2.553">
<path d="m320.2599,487.1976a25.9034,108.3232 0 1,1 -51.8067,0 25.9034,108.3232 0 1,1 51.8067,0z" transform="matrix(.02981 .03439 -.02486 .03945 535.1827 222.3128)"/>
<path d="m320.2599,487.1976a25.9034,108.3232 0 1,1 -51.8067,0 25.9034,108.3232 0 1,1 51.8067,0z" transform="matrix(.03554 .02291 -.01767 .04575 528.8613 222.1414)"/>
<path d="m320.2599,487.1976a25.9034,108.3232 0 1,1 -51.8067,0 25.9034,108.3232 0 1,1 51.8067,0z" transform="matrix(.03621 -.02887 .01653 .04291 508.139 238.8568)"/>
<path d="m320.2599,487.1976a25.9034,108.3232 0 1,1 -51.8067,0 25.9034,108.3232 0 1,1 51.8067,0z" transform="matrix(.04026 -.0112 .00455 .04918 513.928 229.6635)"/>
<path d="m320.2599,487.1976a25.9034,108.3232 0 1,1 -51.8067,0 25.9034,108.3232 0 1,1 51.8067,0z" transform="matrix(.04022 .00299 -.00483 .05014 519.8706 225.4418)"/>
</g>
<path stroke-width=".065" d="m528.6671,255.9589c-.003,.0314-1.3883-.5782-1.66-.7566-.2716-.1785-.1446-.8971-1.0289-1.3111-.8843-.414-1.8744-.3295-2.3544-.1436-.48,.1858-.3564,.7015 .6909,1.2226 1.0473,.5211 1.8322,.1681 2.3906,.3679 .5583,.1998 1.4457,.5824 1.8803,.868 .477-.1544 1.6452-.289 2.2912-.3992 .646-.1102 2.2155,.3865 3.3476,.0276 .9509-.2774 1.422-.9704 .8123-1.2373-.6097-.267-1.7658-.258-2.4752-.0893-.7094,.1688-1.1383,1.0231-1.8417,1.129-.5252,.0558-2.0014,.3891-2.0527,.322z"/>
<g stroke-width="2.553">
<path d="m320.2599,487.1976a25.9034,108.3232 0 1,1 -51.8067,0 25.9034,108.3232 0 1,1 51.8067,0z" transform="matrix(.02151 .04875 -.04033 .03455 542.3254 231.5851)"/>
<path d="m320.2599,487.1976a25.9034,108.3232 0 1,1 -51.8067,0 25.9034,108.3232 0 1,1 51.8067,0z" transform="matrix(.0316 .03815 -.03449 .04411 535.4233 229.1091)"/>
<path d="m320.2599,487.1976a25.9034,108.3232 0 1,1 -51.8067,0 25.9034,108.3232 0 1,1 51.8067,0z" transform="matrix(.04935 -.01877 .00409 .05334 507.1195 240.0632)"/>
<path d="m320.2599,487.1976a25.9034,108.3232 0 1,1 -51.8067,0 25.9034,108.3232 0 1,1 51.8067,0z" transform="matrix(.048 .0022 -.01115 .05594 516.5132 232.0099)"/>
<path d="m320.2599,487.1976a25.9034,108.3232 0 1,1 -51.8067,0 25.9034,108.3232 0 1,1 51.8067,0z" transform="matrix(.04329 .01785 -.0218 .0536 524.442 229.4998)"/>
</g>
<path stroke-width=".075" d="m524.0955,266.3664c-.0137,.0336-1.3382-1.1404-1.5786-1.4357-.2403-.2953 .1356-1.0425-.7017-1.8194-.8374-.7769-1.955-1.0417-2.5445-1.0102-.5894,.0315-.6229,.6454 .3587,1.5994 .9815,.954 1.9616,.8483 2.5106,1.2709 .5489,.4226 1.4,1.1658 1.7845,1.6383 .5758,.0021 1.9059,.2761 2.6533,.3882 .7473,.1121 2.3118,1.2281 3.6758,1.2415 1.1379,.0378 1.8842-.5567 1.3009-1.0719-.5834-.5152-1.8589-.9236-2.6952-.9939-.8364-.0704-1.5892,.7175-2.3983,.58-.5965-.1284-2.331-.2945-2.3654-.3871z"/>
<g stroke-width="2.553">
<path d="m320.2599,487.1976a25.9034,108.3232 0 1,1 -51.8067,0 25.9034,108.3232 0 1,1 51.8067,0z" transform="matrix(-.00586 .0588 -.0578 .00953 551.732 250.5999)"/>
<path d="m320.2599,487.1976a25.9034,108.3232 0 1,1 -51.8067,0 25.9034,108.3232 0 1,1 51.8067,0z" transform="matrix(.00966 .05455 -.05738 .022 546.4227 244.2532)"/>
<path d="m320.2599,487.1976a25.9034,108.3232 0 1,1 -51.8067,0 25.9034,108.3232 0 1,1 51.8067,0z" transform="matrix(.05788 .01069 -.02519 .0531 513.1214 238.3016)"/>
<path d="m320.2599,487.1976a25.9034,108.3232 0 1,1 -51.8067,0 25.9034,108.3232 0 1,1 51.8067,0z" transform="matrix(.04512 .02985 -.04132 .04675 526.5867 236.0753)"/>
<path d="m320.2599,487.1976a25.9034,108.3232 0 1,1 -51.8067,0 25.9034,108.3232 0 1,1 51.8067,0z" transform="matrix(.03203 .04202 -.05031 .03837 535.6105 238.2737)"/>
</g>
<path stroke-width=".084" d="m515.1389,273.135c-.0315,.024-.6687-1.8585-.7394-2.2784-.0707-.4198 .7003-.913 .3165-2.1361-.3839-1.2231-1.3179-2.1214-1.904-2.4324-.5861-.311-.9537,.2536-.5274,1.7286 .4262,1.475 1.4299,1.9413 1.729,2.6606 .299,.7193 .7144,1.9185 .8275,2.5901 .5546,.335 1.6887,1.3649 2.3488,1.9037 .66,.5388 1.5604,2.505 2.8697,3.3066 1.0776,.6941 2.1226,.5603 1.841-.2671-.2816-.8274-1.2897-1.9535-2.0584-2.5041-.7688-.5506-1.9258-.2367-2.6316-.8355-.5056-.4671-2.0889-1.6282-2.0715-1.7362z"/>
<g stroke-width="2.553">
<path d="m314.71,506.1988a22.4793,81.5915 0 1,1 -44.9586,0 22.4793,81.5915 0 1,1 44.9586,0z" transform="matrix(-.00023 .08223 -.07885 .00116 551.3484 253.2424)"/>
<path d="m314.71,506.1988a22.4793,81.5915 0 1,1 -44.9586,0 22.4793,81.5915 0 1,1 44.9586,0z" transform="matrix(.06101 .05101 -.04996 .06451 516.5993 225.2197)"/>
<path d="m314.71,506.1988a22.4793,81.5915 0 1,1 -44.9586,0 22.4793,81.5915 0 1,1 44.9586,0z" transform="matrix(.02906 .07593 -.0733 .03161 539.3786 236.9868)"/>
<path d="m314.71,506.1988a22.4793,81.5915 0 1,1 -44.9586,0 22.4793,81.5915 0 1,1 44.9586,0z" transform="matrix(.03374 -.01838 .0363 .03269 484.1751 210.1227)"/>
<path d="m314.71,506.1988a22.4793,81.5915 0 1,1 -44.9586,0 22.4793,81.5915 0 1,1 44.9586,0z" transform="matrix(-.00685 -.03696 .04909 .00638 488.5014 230.9409)"/>
<path d="m314.71,506.1988a22.4793,81.5915 0 1,1 -44.9586,0 22.4793,81.5915 0 1,1 44.9586,0z" transform="matrix(.01786 -.02921 .04624 .02353 482.9644 218.7777)"/>
</g>
<path stroke-width=".089" d="m482.9894,273.4432c0,0 5.3919,1.1564 10.0793,2.86 4.6874,1.7036 11.8093,7.5509 13.7235,7.8822 2.1472,.0977 5.1249-.6352 6.255-3.7355-3.3067,.882-5.2898,2.2218-8.4465,.4874-1.1153-.4224-4.7677-3.7479-8.7713-5.5278-4.0037-1.7799-12.0785-3.8089-12.0785-3.8089l-.7615,1.8425z"/>
<g stroke-width=".108">
<path d="m488.738,224.7009c-.0193-.0462 6.2065-3.2746 6.2065-3.2746l-6.8441,1.7502-.7951,1.2041 1.4327,.3203z"/>
<path d="m494.6259,226.2102c-2.4029-.4368-6.0985-1.2448-8.4513-1.4333 1.6263-1.8013 3.8672-4.8475 5.2482-6.7174-.912,1.7834-2.3435,4.1351-2.9085,5.8423 1.6564,.8941 4.26,1.5941 6.1116,2.3084z"/>
<path d="m487.6166,225.0796c-.027-.0426 5.5153-4.2703 5.5153-4.2703l-6.4056,2.8656-.5701,1.3243 1.4604,.0804z"/>
</g>
<path stroke-width=".11" d="m493.5116,226.1465c-2.4196-.46-6.1434-1.3083-8.508-1.5115 1.5978-1.8555 3.7885-4.9951 5.1388-6.9222-.8812,1.8396-2.273,4.2645-2.8076,6.0264 1.6791,.9298 4.3051,1.6626 6.1768,2.4073z"/>
<path stroke-width=".108" d="m486.7029,225.4234c-.0151-.0475 6.4948-2.7202 6.4948-2.7202l-6.9939,1.151-.9029,1.1279 1.402,.4413z"/>
<path stroke-width=".111" d="m492.7847,226.199c-2.4473-.204-6.2302-.6606-8.5929-.6096 1.3621-2.0602 3.1597-5.4903 4.2686-7.5964-.6553,1.9659-1.7467,4.5825-2.0682,6.4318 1.7702,.7622 4.4537,1.221 6.3925,1.7741z"/>
<path stroke-width=".108" d="m486.0446,225.451c-.0356-.0361 4.4-5.3615 4.4-5.3615l-5.5753,4.1689-.2587,1.422 1.434-.2293z"/>
<g stroke-width=".12">
<path d="m492.7423,226.5534c-2.6222-.0499-6.6897-.281-9.1963-.0584 1.2407-2.3447 2.8066-6.2154 3.7735-8.5924-.4988,2.192-1.3957,5.1248-1.5514,7.1659 1.9585,.7069 4.8575,1.0182 6.9742,1.4849z"/>
<path d="m485.1522,226.7242c-.034-.0469 5.3432-5.1267 5.3432-5.1267l-6.4653,3.5771-.4428,1.5322 1.5649,.0173z"/>
</g>
<path stroke-width=".131" d="m491.5743,226.7262c-2.8179,.0107-7.1573-.1422-9.907,.1657 1.8241-2.6139 4.3152-6.917 5.8506-9.5597-.9922,2.4271-2.5674,5.6804-3.1583,7.9327 1.966,.7297 5.0283,1.0001 7.2147,1.4613z"/>
<g stroke-width=".13">
<path d="m483.3524,227.1043c-.0269-.0508 6.8255-5.7811 6.8255-5.7811l-7.7147,4.1022-.7951,1.6989 1.6844-.0201z"/>
<path d="m490.5534,226.8981c-2.7905,.4025-7.1119,.8571-9.7924,1.5398 1.4329-2.8019 3.2846-7.3432 4.4275-10.133-.6354,2.5041-1.7301,5.8946-1.9929,8.1724 2.0525,.4379 5.1254,.2754 7.3578,.4208z"/>
<path d="m482.4445,228.2451c-.0395-.0409 5.259-7.2844 5.259-7.2844l-6.563,5.9342-.3517,1.818 1.6557-.4678z"/>
<path d="m489.0127,227.76c-2.8099,.2617-7.1517,.4985-9.8673,1.0455 1.5887-2.7254 3.6935-7.1663 4.9918-9.894-.7754,2.4681-2.0594,5.798-2.4499,8.0589 2.0254,.5402 5.1039,.5323 7.3255,.7896z"/>
<path d="m481.4944,229.0134c-.0273-.0515 6.6946-5.7933 6.6946-5.7933l-7.5956,4.0935-.7677,1.7099 1.6687-.01z"/>
<path d="m488.1888,228.0574c-2.8013,.5908-7.1477,1.3396-9.8236,2.199 1.3088-2.8614 2.9541-7.4663 3.9702-10.2954-.5173,2.5123-1.4548,5.9302-1.6067,8.1936 2.097,.2888 5.1958-.0852 7.4601-.0972z"/>
<path d="m480.3761,229.3123c-.0458-.0325 4.2766-7.9406 4.2766-7.9406l-5.7885,6.8664-.0957,1.8142 1.6075-.7399z"/>
</g>
<path stroke-width=".144" d="m488.1902,228.5024c-3.0055,.7818-7.6892,1.8073-10.5242,2.8836 1.0886-3.2531 2.3343-8.4683 3.1053-11.6726-.2617,2.8287-.8745,6.6873-.7652,9.2221 2.3391,.2313 5.6979-.3212 8.1841-.4331z"/>
<g stroke-width=".143">
<path d="m479.5351,231.1492c-.0455-.0462 5.3881-7.9578 5.3881-7.9578l-6.8895,6.432-.2907,2.0075 1.792-.4817z"/>
<path d="m486.9976,229.4126c-2.9543,.9343-7.5673,2.1998-10.3382,3.416 .9315-3.273 1.9275-8.4934 2.5451-11.7012-.1284,2.8092-.558,6.655-.3308,9.1539 2.3385,.1026 5.6551-.6242 8.1239-.8686z"/>
<path d="m478.4528,232.3187c-.0523-.0369 4.0952-8.7846 4.0952-8.7846l-5.8228,7.5656 .0264,2.0199 1.7012-.8009z"/>
<path d="m485.8723,230.6064c-3.0265,.6898-7.7346,1.574-10.6041,2.5597 1.2246-3.1865 2.6903-8.3089 3.5965-11.4561-.3829,2.7898-1.1598,6.5883-1.1604,9.0979 2.3192,.2936 5.6875-.1597 8.168-.2015z"/>
<path d="m477.4851,233.1643c-.0363-.054 6.6915-6.8746 6.6915-6.8746l-7.8884,5.0902-.6424,1.9308 1.8394-.1465z"/>
<path d="m484.5224,231.8005c-2.998,.4024-7.6502,.8362-10.5131,1.5553 1.3919-3.1219 3.1382-8.1901 4.2167-11.3034-.5455,2.8015-1.5378,6.5905-1.6927,9.1445 2.2468,.5284 5.5641,.4005 7.9891,.6036z"/>
<path d="m476.1598,232.4771c-.0492-.0413 4.5529-8.6019 4.5529-8.6019l-6.1757,7.2381-.0962,2.0496 1.719-.6858z"/>
</g>
<path stroke-width=".162" d="m484.8987,230.7795c-3.2604,1.3352-8.3532,3.1959-11.4082,4.8418 1.0018-3.8708 2.0579-10.0028 2.713-13.7712-.1173,3.2648-.5589,7.7561-.2856,10.631 2.5882-.0813 6.2513-1.2071 8.9807-1.7016z"/>
<g stroke-width=".161">
<path d="m475.5331,235.0754c-.0528-.046 5.4495-9.8712 5.4495-9.8712l-7.1939,8.3525-.1987,2.3325 1.9431-.8138z"/>
<path d="m483.6411,231.9937c-3.1949,1.5016-8.1952,3.6255-11.1713,5.4215 .8276-3.8705 1.6087-9.9714 2.0948-13.7211 .0283,3.2229-.2125,7.6726 .1883,10.489 2.5798-.228 6.1859-1.5463 8.8882-2.1894z"/>
<path d="m474.4127,236.569c-.0598-.0344 3.9767-10.6234 3.9767-10.6234l-5.9516,9.488 .151,2.2999 1.8239-1.1645z"/>
<path d="m482.2477,232.8787c-3.1874,1.5268-8.1774,3.6905-11.1439,5.5097 .8033-3.8745 1.5459-9.9776 2.0083-13.7287 .0489,3.2204-.1635,7.6689 .2556,10.4801 2.58-.2491 6.18-1.5962 8.88-2.2611z"/>
<path d="m473.5227,237.8339c-.0486-.0515 6.1523-9.368 6.1523-9.368l-7.757,7.6675-.378,2.3229 1.9828-.6224z"/>
<path d="m481.9471,232.3953c-2.8418,2.2687-7.3375,5.6035-9.9002,8.096-.004-3.9109-.5281-9.9388-.8443-13.6452 .7131,3.0691 1.4208,7.3794 2.4161,9.9631 2.5039-.8922 5.7915-3.0935 8.3284-4.4138z"/>
<path d="m473.8192,238.2895c-.0682-.0094 .7127-11.2254 .7127-11.2254l-2.9641,10.9135 .8271,2.0558 1.4243-1.744z"/>
<path d="m481.1411,233.4306c-2.8501,2.2541-7.3579,5.5658-9.9299,8.0453 .0122-3.9124-.4866-9.9454-.7872-13.655 .7,3.0741 1.3896,7.3899 2.3737,9.98 2.5066-.8789 5.8021-3.0632 8.3434-4.3703z"/>
<path d="m473.1062,240.1887c-.0634-.0267 2.867-10.9681 2.867-10.9681l-4.961,10.0865 .3914,2.2519 1.7026-1.3703z"/>
</g>
<g stroke-width=".167">
<path d="m480.8244,233.6969c-2.6933,2.6534-6.9813,6.5903-9.3623,9.4414-.4221-4.013-1.6079-10.1389-2.3306-13.9062 1.0647,3.0679 2.2566,7.4102 3.5609,9.9477 2.4914-1.2021 5.6524-3.8374 8.1321-5.4828z"/>
<path d="m473.1217,241.5888c-.0705-.01 .5367-11.6652 .5367-11.6652l-2.8651,11.3342 .8898,2.1393 1.4387-1.8083z"/>
<path d="m479.9703,235.6311c-2.8823,2.3831-7.4479,5.8891-10.0373,8.5023-.0901-4.0639-.7634-10.3228-1.1711-14.1713 .8032,3.1827 1.6282,7.6552 2.7119,10.3309 2.564-.9497 5.9078-3.2669 8.4964-4.6619z"/>
</g>
</g>
</g>
<path fill="#2563c1" d="m521,250a20.5,20.5 0 1,1 -41,0 20.5,20.5 0 1,1 41,0z" transform="translate(-.43985 -2.5)"/>
<g stroke="#000">
<g fill="#006700">
<path stroke-width=".167" d="m472.262,242.9246c-.0615-.0379 4.0611-10.9721 4.0611-10.9721l-6.09,9.7215 .1593,2.4082 1.8696-1.1576z"/>
<path stroke-width=".164" d="m479.9216,235.6758c-2.551,2.6985-6.6128,6.7031-8.8677,9.6012-.4029-4.0679-1.531-10.2761-2.2186-14.0942 1.0113,3.1077 2.144,7.5073 3.382,10.0765 2.3607-1.2263 5.3551-3.9078 7.7043-5.5835z"/>
<path stroke-width=".167" d="m472.4214,243.4828c-.0714-.0014-.4804-11.5999-.4804-11.5999l-1.8785,11.5534 1.0769,2.0082 1.2819-1.9616z"/>
<g stroke-width=".164">
<path d="m478.6712,236.5387c-2.4683,2.7227-6.4068,6.7654-8.5735,9.6854-.522-4.0689-1.8313-10.2744-2.6304-14.0908 1.1014,3.1026 2.362,7.4976 3.674,10.0592 2.3214-1.2473 5.233-3.9567 7.5299-5.6538z"/>
<path d="m471.7677,244.6339c-.0654-.0193 1.2954-11.784 1.2954-11.784l-3.4552,11.1461 .6886,2.289 1.4712-1.6512z"/>
<path d="m478.1407,236.9991c-2.2566,2.9485-5.8803,7.3531-7.8209,10.4685-.8299-3.9962-2.6075-10.0408-3.6947-13.7589 1.3347,2.9787 2.9264,7.2272 4.4302,9.6472 2.2221-1.4667 4.9221-4.4451 7.0854-6.3568z"/>
<path d="m471.7195,245.7367c-.0676-.0028-.7477-11.7982-.7477-11.7982l-1.4855,11.7048 1.0698,2.0619 1.1634-1.9685z"/>
</g>
<g stroke-width=".165">
<path d="m477.9073,237.678c-2.1182,3.0873-5.5365,7.7126-7.3288,10.9514-1.0358-3.9805-3.1276-9.9739-4.4079-13.6607 1.4916,2.9294 3.3057,7.1239 4.939,9.4819 2.1585-1.5935 4.7207-4.7341 6.7977-6.7726z"/>
<path d="m472.4579,246.841c-.066-.0216 1.2005-11.8513 1.2005-11.8513l-3.3776,11.1398 .7122,2.3316 1.465-1.6201z"/>
<path d="m477.4773,238.7748c-1.8259,3.364-4.8044,8.4379-6.2929,11.9072-1.3873-3.8135-4.0046-9.4814-5.6082-12.9689 1.7453,2.7051 3.9248,6.6231 5.7594,8.7404 2.0003-1.8844 4.2624-5.3632 6.1417-7.6787z"/>
<path d="m472.0449,247.8163c-.0664,.0184-3.312-11.2389-3.312-11.2389l1.1193,11.8465 1.4923,1.6705 .7004-2.278z"/>
</g>
<g stroke-width=".167">
<path d="m477.4126,240.0876c-1.9024,3.3538-5.0026,8.4123-6.5592,11.8711-1.3957-3.8019-4.0407-9.4527-5.6612-12.9297 1.7722,2.6969 3.9811,6.6031 5.8496,8.714 2.0701-1.8787 4.4216-5.3469 6.3708-7.6554z"/>
<path d="m472.1944,249.9341c-.07,0-1.216-11.8175-1.216-11.8175l-1.0946,11.8187 1.1827,2.0253 1.1279-2.0266z"/>
<path d="m477.6032,241.1198c-1.9562,3.3087-5.1374,8.2938-6.7495,11.7156-1.3337-3.8344-3.8865-9.5469-5.4502-13.0617 1.728,2.7383 3.873,6.6962 5.7068,8.8509 2.0999-1.8298 4.5069-5.2424 6.4929-7.5048z"/>
<path d="m472.0788,250.8806c-.0697,.0085-2.1929-11.6051-2.1929-11.6051l-.1071,11.8856 1.3457,1.8712 .9543-2.1516z"/>
<path d="m476.7629,242.7923c-2.11,3.1687-5.5226,7.9267-7.2947,11.2322-1.1484-3.9215-3.424-9.803-4.8173-13.4214 1.5942,2.8543 3.5464,6.9553 5.274,9.234 2.1831-1.6818 4.748-4.9231 6.8379-7.0448z"/>
<path d="m471.0635,252.1695c-.0682-.0186 .9813-11.8623 .9813-11.8623l-3.2325,11.248 .7809,2.2925 1.4702-1.6782z"/>
<path d="m476.8912,243.0924c-1.8039,3.4317-4.7552,8.6176-6.2104,12.1395-1.5058-3.7398-4.3143-9.2741-6.0355-12.6797 1.85,2.6197 4.1717,6.4293 6.1009,8.4594 2.0145-1.9649 4.2639-5.53 6.1449-7.9192z"/>
<path d="m470.6599,253.1594c-.0678,.0212-3.6403-11.0557-3.6403-11.0557l1.4012,11.7566 1.5682,1.5997 .671-2.3006z"/>
<path d="m476.3956,243.9746c-1.2596,3.766-3.3849,9.5063-4.2877,13.2848-2.0446-3.3453-5.6413-8.1691-7.8475-11.139 2.2149,2.1696 5.0731,5.4052 7.2774,6.9781 1.6875-2.3708 3.3655-6.3653 4.8579-9.1239z"/>
<path d="m473.904,254.0633c-.0672,.0239-3.9417-10.903-3.9417-10.903l1.7226,11.6925 1.6114,1.5362 .6077-2.3257z"/>
<path d="m476.367,245.1219c-1.2324,3.7789-3.3163,9.541-4.1918,13.3287-2.0688-3.3236-5.7003-8.1093-7.928-11.0558 2.2306,2.1462 5.1122,5.3515 7.3278,6.9012 1.6703-2.3883 3.3196-6.4001 4.792-9.1741z"/>
<path d="m473.9356,255.9229c-.0642,.0341-5.0716-10.1965-5.0716-10.1965l2.9534,11.3221 1.7625,1.2733 .3557-2.3989z"/>
<path d="m475.983,246.0779c-.7879,3.923-2.1925,9.9342-2.6254,13.8147-2.4346-2.9984-6.5878-7.2223-9.1367-9.8241 2.4598,1.8079 5.6871,4.5726 8.0634,5.7914 1.3824-2.6072 2.5571-6.8208 3.6987-9.782z"/>
<path d="m474.2659,257.5214c-.0692,.0132-2.7347-11.4337-2.7347-11.4337l.4509,11.8705 1.4317,1.7758 .8521-2.2127z"/>
<path d="m475.9987,247.2952c-.4168,4.011-1.2512,10.1835-1.3197,14.1043-2.6942-2.6567-7.2073-6.3017-9.978-8.5482 2.6084,1.4683 6.0673,3.7856 8.5381,4.6787 1.1289-2.7813 1.9024-7.1335 2.7596-10.2347z"/>
<path d="m474.3974,258.3628c-.054,.0528-7.2289-8.2544-7.2289-8.2544l5.4472,9.9974 1.9905,.6801-.2088-2.4231z"/>
<path d="m476.1501,248.6991c-.4326,4.0083-1.2914,10.1755-1.3753,14.0956-2.6839-2.6718-7.1829-6.3422-9.9449-8.6044 2.6028,1.4831 6.0528,3.8198 8.5202,4.727 1.1399-2.7746 1.9306-7.1221 2.8-10.2182z"/>
<path d="m475.2081,260.2738c-.0625,.0369-5.5524-9.9501-5.5524-9.9501l3.4881,11.1689 1.8222,1.1918 .2421-2.4106z"/>
<path d="m476.4762,250.3468c-.2638,4.0324-.8624,10.2484-.782,14.1716-2.7904-2.5076-7.4341-5.9032-10.2854-7.9966 2.6597,1.3244 6.2006,3.4507 8.7011,4.2076 1.0214-2.8423 1.6283-7.2354 2.3663-10.3826z"/>
<path d="m475.9097,262.0941c-.0563,.0492-6.8601-8.6982-6.8601-8.6982l5.0025,10.3235 1.9592,.8058-.1017-2.4311z"/>
<path d="m476.5503,252.2021c-.2396,4.035-.8007,10.2568-.6967,14.1795-2.8051-2.4835-7.4686-5.8389-10.3321-7.9077 2.6673,1.3014 6.2205,3.397 8.7252,4.1322 1.0042-2.8514 1.5846-7.2502 2.3036-10.404z"/>
<path d="m476.5316,263.5733c-.0651,.0301-4.81-10.4868-4.81-10.4868l2.6619,11.4806 1.7303,1.3787 .4178-2.3725z"/>
<path d="m476.7317,253.4026c.1376,4.0486 .1596,10.3171 .6276,14.2076-3.0139-2.0943-7.9525-4.8062-10.9857-6.4797 2.7672,.9361 6.4872,2.5436 9.0404,2.9382 .731-2.9734 .8978-7.43 1.3177-10.666z"/>
<path d="m477.3718,263.1695c-.0405,.0664-8.7859-6.0155-8.7859-6.0155l7.4484,8.2078 2.0701,.1069-.7326-2.2991z"/>
<path d="m477.0097,253.8428c.3495,4.03 .6993,10.277 1.3715,14.137-3.1274-1.9735-8.2144-4.4899-11.3391-6.0433 2.8198,.8285 6.6288,2.2901 9.206,2.5869 .5765-2.9912 .5104-7.4394 .7616-10.6806z"/>
<path d="m478.3183,265.4063c-.0538,.0512-7.3204-8.4149-7.3204-8.4149l5.5446,10.1038 2.0037,.7304-.2279-2.4193z"/>
<path d="m477.644,255.3785c.5186,4.0131 1.1311,10.2456 1.9639,14.0691-3.1996-1.7871-8.3746-3.9995-11.5538-5.3663 2.8447,.6594 6.7018,1.893 9.2823,2.0348 .448-3.0291 .1942-7.4779 .3076-10.7377z"/>
<path d="m479.7832,266.8232c-.0413,.0657-8.7187-6.1611-8.7187-6.1611l7.3541,8.3288 2.07,.1422-.7054-2.3099z"/>
<path d="m477.9182,257.0829c.7814,3.966 1.8035,10.1436 2.8844,13.8902-3.2965-1.4851-8.5834-3.2086-11.8317-4.275 2.8692,.3904 6.782,1.2594 9.3545,1.157 .2439-3.073-.3035-7.5-.4072-10.7721z"/>
<path d="m480.7466,268.0471c-.0545,.0501-7.2114-8.5485-7.2114-8.5485l5.4117,10.2018 1.995,.7684-.1954-2.4216z"/>
<path d="m478.3918,258.181c1.1445,3.857 2.7343,9.8907 4.1543,13.4885-3.3981-1.0423-8.7863-2.0566-12.0975-2.6873 2.873,.0062 6.8227,.3507 9.3561-.0958-.0471-3.1021-1.0035-7.4509-1.4129-10.7054z"/>
<path d="m481.1311,268.0678c-.015,.0789-10.0742-2.158-10.0742-2.158l9.5804,4.7628 1.9352-.7283-1.4414-1.8764z"/>
<path d="m479.0568,259.3797c1.1294,3.8626 2.6956,9.904 4.1016,13.5089-3.3947-1.0613-8.7799-2.1059-12.0894-2.7551 2.8736,.0224 6.8227,.3892 9.3584-.0428-.0348-3.1017-.9741-7.4548-1.3707-10.7109z"/>
<path d="m482.7796,269.1279c-.0301,.0713-9.6388-4.6552-9.6388-4.6552l8.6451,7.0083 2.0713-.1941-1.0776-2.159z"/>
<path d="m478.5571,260.0613c1.9144,3.5198 4.7134,9.0703 6.843,12.2756-3.5314-.2695-8.9987-.0723-12.3601,.0416 2.8047-.6281 6.7299-1.1628 9.1096-2.1586-.6875-3.0237-2.52-7.0659-3.5925-10.1587z"/>
<path d="m484.2943,270.184c-.0187,.0774-10.0157-2.7662-10.0157-2.7662l9.3998,5.3225 1.9766-.6036-1.3608-1.9527z"/>
<path d="m479.5927,261.5537c1.935,3.5062 4.7666,9.0371 6.9147,12.2269-3.5303-.24-8.9922,.0034-12.3503,.1457 2.7986-.6521 6.7174-1.2203 9.089-2.2369-.7059-3.0201-2.5623-7.0498-3.6534-10.1357z"/>
<path d="m485.5659,271.0081c-.0357,.0673-9.3332-5.5833-9.3332-5.5833l8.1546,7.8039 2.0969,.0208-.9183-2.2415z"/>
<path d="m480.3687,262.4327c2.241,3.2724 5.5593,8.4633 7.9788,11.3899-3.4907,.2189-8.8317,1.1753-12.1162,1.7561 2.6854-1.0203 6.4793-2.1022 8.71-3.4332-.9866-2.9439-3.2012-6.7529-4.5726-9.7128z"/>
<path d="m486.2476,271.8247c-.0033,.082-10.0744-.2374-10.0744-.2374l9.967,2.9454 1.7723-1.1011-1.6649-1.6069z"/>
</g>
<path stroke-width=".087" d="m492.0884,223.0152c.0011-.0315 7.2484-1.2092 7.2484-1.2092l-7.2115,.1682-1.2581,.6462 1.2212,.3948z"/>
<path stroke-width=".089" d="m496.0708,224.5648c-2.1031-.6355-5.281-1.7-7.4396-2.1692 2.294-.9118 5.689-2.5291 7.7782-3.5211-1.6074,1.0061-3.9446,2.299-5.1906,3.3077 1.2035,.8175 3.3881,1.6512 4.8519,2.3825z"/>
<path stroke-width=".087" d="m491.7762,223.2647c-.0077-.0303 7.0124-1.9264 7.0124-1.9264l-7.2649,.9261-1.0957,.752 1.3482,.2483z"/>
<path stroke-width=".101" d="m496.4045,225.0706c-2.4573-.2315-6.2258-.7028-8.6506-.727 1.8268-1.6177 4.3879-4.324 5.9657-5.9856-1.0847,1.5615-2.7525,3.6337-3.4715,5.1106 1.6476,.6613 4.2924,1.104 6.1564,1.602z"/>
<g stroke-width=".087">
<path d="m489.17,223.7581c.0057-.0318 7.2883-.823 7.2883-.823l-7.1016-.2273-1.3281,.5839 1.1414,.4664z"/>
<path d="m494.5669,225.348c-2.2344-.4273-5.6296-1.1716-7.8899-1.4367 2.1474-1.0541 5.277-2.8678 7.2035-3.9808-1.4383,1.0864-3.5605,2.505-4.634,3.5639 1.3607,.6743 3.713,1.2826 5.3204,1.8537z"/>
<path d="m488.5352,223.6861c-.0185-.0275 6.4153-2.761 6.4153-2.761l-7.0266,1.8548-.842,.8554 1.4533,.0508z"/>
</g>
<path stroke-width=".091" d="m494.355,226.1658c-1.8594-.7679-4.7083-2.0688-6.548-2.6103 1.4245-1.3252 3.4318-3.6477 4.6684-5.0724-.86,1.4235-2.1744,3.2641-2.7549,4.6759 1.2348,1.0511 3.2316,2.0827 4.6345,3.0067z"/>
<path stroke-width=".09" d="m488.9003,224.1679c-.0135-.043 4.9913-2.1629 4.9913-2.1629l-5.4355,.7447-.6683,.9688 1.1126,.4495z"/>
<g stroke-width=".167">
<path d="m484.7222,270.901c.0039,.0799-10.3442,.0781-10.3442,.0781l10.4742,2.5607 1.7184-1.126-1.8485-1.5128z"/>
<path d="m486.5811,271.5755c-.0126,.0758-10.5059-2.4436-10.5059-2.4436l10.0887,4.9457 1.9769-.6361-1.5597-1.866z"/>
<path d="m488.3083,272.2749c-0,.0793-10.43-.5258-10.43-.5258l10.4294,3.1439 1.7882-1.0137-1.7877-1.6043z"/>
<path d="m481.689,264.9008c2.7135,2.9905 6.7785,7.7557 9.6257,10.3925-3.5036,.5293-8.7796,1.9456-12.0252,2.8093 2.5794-1.2385 6.2724-2.6372 8.3492-4.1377-1.3991-2.7834-4.159-6.2998-5.9497-9.0641z"/>
<path d="m489.7437,272.8015c-.019,.0731-10.4257-3.4117-10.4257-3.4117l9.7968,5.825 2.0524-.4327-1.4235-1.9807z"/>
<path d="m482.6533,265.5877c2.9573,2.6971 7.4175,7.0267 10.4679,9.349-3.3571,.9668-8.3474,3.0502-11.4181,4.3242 2.3824-1.5719 5.8326-3.4431 7.6979-5.2188-1.6553-2.6488-4.713-5.8732-6.7477-8.4544z"/>
<path d="m490.6013,273.448c.0161,.0804-9.8929,1.9453-9.8929,1.9453l10.4246,.7104 1.4718-1.4532-2.0034-1.2025z"/>
<path d="m488.5321,272.8265c.0099,.0794-10.3186,.7917-10.3186,.7917l10.6465,1.8295 1.6306-1.2409-1.9585-1.3803z"/>
<path d="m490.4381,273.3703c-.0069,.0764-10.6694-1.7105-10.6694-1.7105l10.4408,4.2332 1.9254-.7704-1.6968-1.7523z"/>
<path d="m492.2145,273.9483c.0059,.079-10.4496,.1957-10.4496,.1957l10.6457,2.4138 1.7087-1.1338-1.9047-1.4757z"/>
<path d="m485.0541,267.0552c2.9329,2.7934 7.348,7.2624 10.3878,9.6941-3.4572,.7693-8.6168,2.5451-11.7913,3.6299 2.4815-1.4124 6.0624-3.0614 8.0226-4.7003-1.6055-2.6777-4.6241-5.9922-6.619-8.6237z"/>
<path d="m493.6866,274.374c-.0135,.0742-10.662-2.681-10.662-2.681l10.2155,5.1298 2.016-.5729-1.5695-1.8759z"/>
<path d="m486.0681,267.6732c3.1542,2.4842 7.9311,6.4917 11.1501,8.5959-3.2781,1.1953-8.1025,3.6162-11.0716,5.098 2.2598-1.7312 5.5629-3.8343 7.2913-5.7329-1.851-2.5259-5.1451-5.5287-7.3698-7.961z"/>
<path d="m494.5912,274.9593c.0221,.0791-9.728,2.6216-9.728,2.6216l10.4581-.0113 1.3598-1.55-2.0899-1.0603z"/>
</g>
</g>
<path fill="#ffce00" stroke-width=".218" d="m511.1414,261.609l-11.1215-7.6862-11.1215,7.6862 4.1706-12.2978-9.7314-7.6863h12.5117l4.1706-12.2978 4.1706,12.2978h12.5117l-9.7314,7.6863 4.1706,12.2978z"/>
<path fill="#ce1126" stroke-width=".24" d="m540.8339,249.9996c0,22.5407-18.2936,40.8343-40.8341,40.8343-22.5407,0-40.8345-18.2936-40.8345-40.8343 0-22.5405 18.2938-40.8343 40.8345-40.8343 22.5405,0 40.8341,18.2938 40.8341,40.8343zm13.6116,0c0,30.0542-24.3917,54.446-54.4458,54.446-30.0542,0-54.446-24.3917-54.446-54.446 0-30.054 24.3917-54.4459 54.446-54.4459 30.0541,0 54.4458,24.3918 54.4458,54.4459z"/>
</g>
</g>
<g fill="#ffe600" stroke-width="1.25">
<path d="m541.5048,259.7644l3.5859,1.3266 5.9493-1.0872-.4469,1.2081-3.0998,.5356c-.5781,.0958-1.1495,.1735-1.714,.2328 .3597,.3883 .7571,.8461 1.1927,1.3717l1.951,2.3744-.4279,1.1565-3.7717-4.7987-3.5859-1.3266 .3674-.9931z"/>
<path d="m551.5848,246.0119l.1153,1.0528-5.1838,.5675c-.9018,.0987-1.6278,.0864-2.1779-.0361-.5504-.1235-1.0186-.4029-1.4051-.8404-.3819-.4341-.615-1.0345-.6989-1.801-.0816-.7454-.0034-1.3703 .2344-1.8753 .2379-.5057 .6191-.8894 1.1437-1.152 .5285-.2632 1.2683-.4463 2.219-.5503l5.1838-.5675 .1151,1.0518-5.1778,.5669c-.7793,.0853-1.3475,.2122-1.7049,.3797-.3531,.1697-.6125,.4211-.7785,.7541-.1654,.3368-.2233,.7309-.1737,1.1837 .0846,.773 .3428,1.3031 .7749,1.5895 .4317,.2852 1.2107,.3667 2.3366,.2434l5.1778-.5669z"/>
<path d="m544.3451,235.4959l1.0378-.2104 .6792,3.3196-3.2825,.6655c-.5619-.4165-1.0145-.8721-1.3576-1.367-.3392-.4958-.5666-1.0283-.6823-1.5988-.1562-.7705-.1133-1.509 .129-2.2149 .2468-.7039 .6897-1.2868 1.3287-1.7508 .639-.4632 1.3928-.7832 2.2618-.9593 .8609-.1745 1.6956-.1784 2.504-.0117 .8133,.1688 1.4616,.5163 1.9451,1.0416 .4835,.5255 .8043,1.1789 .9627,1.9602 .1149,.5669 .1141,1.0993-.0027,1.5981-.1119,.5016-.3264,.9205-.6437,1.2556-.3174,.3353-.7601,.6312-1.328,.8869l-.4792-.8769c.4266-.209 .7509-.4269 .9731-.6535 .222-.2274 .3766-.5182 .4635-.8741 .0911-.3559 .0965-.7323 .0164-1.1275-.0962-.4747-.2617-.8678-.4968-1.1803-.2311-.3135-.5011-.5504-.8098-.7102-.3081-.1561-.6331-.2612-.9748-.3147-.5876-.0889-1.2011-.0681-1.8408,.0616-.7884,.1598-1.4239,.4132-1.9065,.759-.4817,.3505-.8048,.7819-.969,1.2941-.164,.5122-.1938,1.0266-.089,1.5433 .091,.449 .2766,.8685 .5565,1.2576 .2837,.3872 .5587,.6698 .8246,.8459l1.6474-.334-.4673-2.3049z"/>
<path d="m506.504,206.9719l1.5576-8.8904 1.0422,.1826-1.3738,7.8413 3.8814,.68-.1838,1.0491-4.9236-.8626z"/>
<path d="m497.7132,206.3751v-9.0258h5.7848v1.0652h-4.7257v2.7643h4.4259v1.0589h-4.4259v3.0723h4.9111v1.0651h-5.9702z"/>
<path d="m472.7126,212.0441l1.0003-.4581c.4689,.8897 .6512,1.7194 .5476,2.4881-.1035,.7635-.4719,1.416-1.1049,1.9571-.6556,.5604-1.3174,.8669-1.9855,.9196-.6678,.0471-1.3534-.1228-2.0575-.5092-.7011-.3888-1.3314-.9111-1.8915-1.5663-.6107-.7144-1.0223-1.4398-1.2358-2.1755-.2126-.7417-.2138-1.4398-.0032-2.095 .2108-.6607 .5849-1.2208 1.1208-1.6788 .609-.5205 1.2695-.7827 1.983-.788 .7136-.0052 1.4225,.2393 2.1274,.7329l-.6122,.8879c-.5676-.3789-1.0836-.5669-1.5459-.5658-.463,.0016-.898,.1764-1.3044,.5238-.4673,.3995-.7509,.8604-.85,1.3824-.0968,.5203-.0256,1.0479 .2124,1.5844 .2351,.5332 .5469,1.0254 .9336,1.4778 .4987,.5835 1.0091,1.03 1.5319,1.3392 .5229,.3034 1.0353,.4271 1.5373,.3706 .5018-.0565 .9387-.2435 1.3089-.56 .4509-.3854 .7072-.8584 .7687-1.4185 .0622-.5607-.0987-1.1763-.4811-1.8484z"/>
<path d="m468.9363,219.985l-6.7138-6.0325 .7077-.7877 6.7138,6.0325-.7077,.7877z"/>
<path d="m464.5953,225.1093l-7.1559-5.5008 .6454-.8395 6.3115,4.8517 2.401-3.1234 .8444,.6491-3.0464,3.963z"/>
<path d="m451.1707,230.4326l.3898-.9836 4.8479,1.9212c.8434,.3342 1.4798,.6835 1.9089,1.0489 .4289,.3664 .7121,.8323 .8494,1.3996 .1347,.5625 .0601,1.2021-.224,1.919-.2762,.697-.6375,1.2131-1.084,1.549-.4463,.335-.9631,.4969-1.5492,.4831-.5902-.0145-1.3298-.1984-2.2189-.5507l-4.8479-1.9212 .3898-.9836 4.8424,1.919c.7288,.2888 1.2904,.4423 1.6843,.4621 .3919,.014 .7387-.087 1.0411-.3038 .3036-.2203 .539-.5418 .7065-.9643 .2869-.7239 .3064-1.3131 .0583-1.7683-.2483-.4539-.8989-.8901-1.9519-1.3074l-4.8424-1.919z"/>
<path d="m456.4403,252.273l-9.0255,.0749-.048-5.7846 1.0652-.0088 .0392,4.7266 2.7642-.0229-.0367-4.4258 1.0589-.0088 .0367,4.4258 3.0722-.0255-.0408-4.9119 1.065-.0088 .0495,5.9699z"/>
<path d="m490.1486,207.6521l-1.7856-8.8474 2.7014-.5452c.6099-.1231 1.0832-.1745 1.4216-.1549 .4727,.0261 .8986,.1597 1.2781,.4015 .4932,.3107 .9036,.7535 1.2306,1.3282 .3307,.5698 .5751,1.2489 .7342,2.0375 .1356,.6719 .1864,1.2815 .1524,1.8285-.035,.5472-.1261,1.0137-.2744,1.3995-.149,.3817-.3343,.6975-.5548,.9474-.2184,.2449-.5002,.4546-.8477,.6295-.3431,.1739-.7519,.3087-1.2267,.4045l-2.8293,.571zm.8264-1.2533l1.6744-.3379c.5176-.1045 .911-.2403 1.1812-.4081 .2749-.1685 .4786-.3687 .6141-.6012 .1896-.3272 .3054-.7379 .3472-1.232 .0437-.4988-.0018-1.0821-.1366-1.75-.1867-.9253-.4652-1.6082-.8362-2.0484-.3682-.4449-.7614-.7131-1.181-.8043-.3027-.0645-.7622-.0344-1.3794,.0901l-1.6479,.3326 1.3641,6.7592z"/>
<path d="m519.319,211.2534l4.1743-8.0026 2.6763,1.396c.4707,.2455 .8173,.4588 1.0387,.639 .3143,.2473 .5411,.5252 .6797,.8336 .1403,.3047 .1957,.66 .1642,1.0647-.0275,.4069-.1446,.8089-.3515,1.2055-.355,.6806-.8476,1.1575-1.4783,1.4302-.6288,.2692-1.445,.1421-2.4483-.3812l-1.8192-.9489-1.697,3.2534-.9389-.4897zm3.1286-3.7081l1.834,.9567c.6061,.3162 1.1036,.4139 1.4908,.2918 .3881-.1218 .7023-.4138 .9434-.876 .1746-.3348 .2477-.6601 .2199-.9756-.0233-.3176-.1372-.5784-.3427-.7829-.1331-.1294-.413-.3056-.8392-.5279l-1.8142-.9463-1.4919,2.8602z"/>
<path d="m523.9296,213.6322l8.3151-4.6654 .8484,.7613-3.591,8.9048-.8976-.8055 1.1312-2.6577-2.49-2.2345-2.4795,1.4478-.8366-.7508zm4.1931-1.2172l2.0193,1.8121 1.0477-2.4183c.3178-.7348 .5937-1.3255 .8278-1.7717-.4628,.3622-.9532,.6941-1.4723,.9949l-2.4225,1.383z"/>
<path d="m530.3789,219.6996l7.1605-5.4948 2.1593,2.8138c.4343,.5659 .6991,1.046 .7945,1.4401 .0992,.3923 .0534,.8008-.1369,1.2273-.1906,.4258-.483,.7899-.8769,1.0922-.508,.3898-1.0479,.5728-1.6203,.5483-.5719-.0238-1.1391-.3046-1.7007-.8409 .0503,.3147 .0605,.5745 .0324,.7804-.0657,.4402-.2052,.9158-.4179,1.4277l-1.1016,2.5994-.8108-1.0566 .8456-1.9826c.2415-.5752 .4151-1.03 .5212-1.3637 .1066-.333 .1561-.5988 .1496-.7959-.004-.1942-.038-.37-.1014-.5267-.0503-.1128-.1585-.2775-.3246-.494l-.7473-.9738-3.1798,2.4401-.6448-.8402zm4.645-2.2295l1.3852,1.8051c.2942,.3834 .5691,.6504 .8231,.7994 .2572,.1466 .5264,.2005 .8086,.1638 .2848-.0402 .5429-.149 .774-.3263 .3387-.2599 .5331-.5829 .5829-.9697 .052-.3839-.1026-.8113-.4638-1.2819l-1.5411-2.0083-2.3689,1.8179z"/>
<path d="m535.2061,225.8647l9.3784-1.7187 .5559,.9953-6.2832,7.2602-.5881-1.053 1.9315-2.1477-1.6314-2.9208-2.8148,.5662-.5482-.9815zm4.3614,.2077l1.3229,2.3686 1.775-1.9482c.5388-.5922 .9909-1.0623 1.3573-1.4078-.5551,.1928-1.1267,.3477-1.7153,.464l-2.7399,.5234z"/>
<path d="m543.1455,249.2293l8.6573,3.9947-.1186,1.1337-9.3175,2.3183 .1254-1.1995 2.8158-.6438 .348-3.3274-2.6274-1.1579 .1169-1.118zm3.4463,2.6808l-.2821,2.6976 2.5729-.57c.7816-.175 1.4218-.298 1.9203-.3695-.5648-.1622-1.1214-.3646-1.6696-.6082l-2.5415-1.1498z"/>
<path d="m457.8656,260.5692l-8.8143,1.9426-.7633-3.4636c-.1535-.6967-.19-1.2438-.1094-1.6411 .0764-.3974 .291-.748 .644-1.0537 .3531-.3048 .7722-.5107 1.2572-.6176 .6253-.1378 1.1919-.0748 1.7,.1899 .5079,.2638 .9027,.7586 1.1841,1.4825 .0878-.3064 .1886-.5461 .3013-.7207 .2461-.3709 .574-.7426 .9835-1.1161l2.0994-1.8876 .2867,1.3006-1.6061,1.4374c-.4625,.4186-.8125,.757-1.0499,1.0144-.2377,.2565-.3951,.4762-.4728,.6574-.0787,.1776-.1224,.3512-.1314,.5201-.0023,.1235 .026,.3185 .0847,.5851l.2642,1.1988 3.9142-.8626 .2279,1.0342zm-5.152,.0511l-.4897-2.222c-.104-.4721-.2398-.8303-.4068-1.0729-.1709-.2418-.3919-.4048-.663-.491-.275-.0844-.5549-.0951-.8394-.0325-.4169,.0919-.7299,.302-.9389,.6313-.2098,.3257-.2509,.7782-.1232,1.3576l.5448,2.4722 2.9161-.6427z"/>
<path d="m456.7663,244.2746l-8.9926-.7739 .2587-3.0066c.0456-.5299 .109-.931 .1903-1.2054 .1074-.3853 .2766-.7007 .508-.9481 .2273-.2469 .5338-.4336 .9195-.5612 .3862-.1313 .8023-.1777 1.2479-.1394 .7648,.0658 1.3944,.3378 1.8889,.8141 .4904,.4769 .6871,1.2791 .5901,2.4065l-.1759,2.0443 3.6559,.3146-.0908,1.0551zm-4.6264-1.461l.1774-2.061c.0586-.6811-.0427-1.1769-.3043-1.4882-.2617-.3114-.6522-.4889-1.1715-.5336-.3762-.0324-.7046,.0254-.9851,.1723-.2842,.1438-.4811,.3493-.5907,.6175-.0684,.1736-.1231,.4989-.1643,.9777l-.1754,2.0387 3.2141,.2766z"/>
<path d="m460.5383,230.9348l-7.5097-5.007 1.6653-2.4976c.3389-.5083 .687-.8639 1.0448-1.0675 .356-.2082 .7507-.2933 1.1833-.2543 .4309,.0343 .8189,.1665 1.1639,.3965 .321,.214 .572,.4922 .7527,.8353 .1801,.344 .2539,.729 .2199,1.1574 .4017-.3141 .8345-.471 1.2992-.4725 .4662-.0037 .918,.1397 1.3552,.4312 .3517,.2345 .6352,.5197 .8504,.8557 .2136,.3305 .3377,.6473 .3725,.9504 .0348,.303-.0033,.6301-.1136,.9808-.1118,.3453-.3091,.7298-.5912,1.1529l-1.6926,2.5387zm-3.7667-3.7841l.9595-1.4391c.2604-.3906 .4184-.6905 .473-.8981 .0742-.2741 .0617-.5253-.0375-.7538-.0977-.2308-.2781-.4338-.5411-.6092-.2493-.1662-.5029-.2593-.7615-.2783-.2616-.0223-.4927,.0432-.6922,.1945-.203,.149-.4635,.4622-.7823,.9403l-.8872,1.3306 2.2693,1.513zm3.468,2.3122l1.1052-1.6576c.1896-.2843 .311-.4923 .3636-.6229 .0943-.2303 .1386-.4447 .1339-.645-.0048-.2001-.0681-.4047-.1907-.613-.126-.2105-.3083-.3957-.5474-.5551-.2801-.1867-.5649-.2848-.8546-.2944-.2929-.0119-.5565,.0688-.7897,.2413-.2348,.167-.4934,.4625-.7761,.8864l-1.0261,1.539 2.5818,1.7214z"/>
<path d="m475.4135,213.6322l-2.1976-9.2778 .9662-.6067 7.5722,5.9029-1.0207,.6409-2.244-1.8187-2.8333,1.7791 .709,2.7826-.952,.5978zm-.0156-4.3667l2.2969-1.4423-2.036-1.6731c-.6198-.5072-1.1118-.935-1.4763-1.2828 .2217,.544 .4058,1.1069 .5514,1.6892l.664,2.709z"/>
</g>
</g>
</svg>
