<svg width="1200" xmlns="http://www.w3.org/2000/svg" height="600" viewBox="0 0 12 6" xmlns:xlink="http://www.w3.org/1999/xlink">
<path fill="#ed1c24" d="m0,0h12v6h-12z"/>
<path fill="#005da4" d="m0,0h12v4h-12z"/>
<path fill="#fff" d="m0,0h12v2h-12z"/>
<g transform="matrix(.12937 0 0 .12937 2.2238 1)">
<svg width="12" viewBox="-120 -190.223125 240 309.188274" height="15.459">
<path fill="#005da4" d="m110.26-19.478l9.74-143.75a280.22,280.22 0 0,0 -240,0l9.74,143.75a155.61,155.61 0 0,0 110.26,138.45 155.61,155.61 0 0,0 110.26-138.45"/>
<path fill="#fff" d="m-90,0a138.29,138.29 0 0,0 90,100.77 138.29,138.29 0 0,0 90-100.77l-45-60-18,24-27-54-27,54-18-24-45,60"/>
<g fill="#005da4" id="wave" transform="matrix(5 0 0 5 0 25.981)">
<path d="m-17.196-2.1962a6,6 0 0,0 8.1962,2.1962 6,6 0 0,1 6,0 6,6 0 0,0 6,0 6,6 0 0,1 6,0 6,6 0 0,0 8.1962-2.1962v1.732a6,6 0 0,1 -8.1962,2.1962 6,6 0 0,0 -6,0 6,6 0 0,1 -6,0 6,6 0 0,0 -6,0 6,6 0 0,1 -8.1962-2.1962z"/>
</g>
<use xlink:href="#wave" transform="translate(0 17.321)"/>
<g id="s" transform="matrix(2.25 0 0 2.25 0 -120)">
<path fill="#fd0" stroke-width=".2" d="m0-5l1,3.2679 3.3301-.7679-2.3301,2.5 2.3301,2.5-3.3301-.7679-1,3.2679-1-3.2679-3.3301,.7679 2.3301-2.5-2.3301-2.5 3.3301,.7679z"/>
</g>
<use xlink:href="#s" transform="translate(-33.75 -45)"/>
<use xlink:href="#s" transform="translate(33.75 -45)"/>
<path fill="#ed1c24" d="m-111.58-167.05l9.96,146.99a146.95,146.95 0 0,0 101.62,129.95 146.95,146.95 0 0,0 101.62-129.95l9.96-146.99a280.22,280.22 0 0,0 8.42,3.82l-9.74,143.75a155.61,155.61 0 0,1 -110.26,138.45 155.61,155.61 0 0,1 -110.26-138.45l-9.74-143.75a280.22,280.22 0 0,0 8.42-3.82"/>
</svg>
</g>
</svg>
