<svg xmlns="http://www.w3.org/2000/svg" viewBox="0 0 900 600">
<path d="m0,0h900v600h-900z"/>
<path fill="#ffe700" d="m0,100h900v100h-900z"/>
<path fill="#de3908" d="m0,200h900v100h-900z"/>
<path fill="#ffe700" d="m0,400h900v100h-900z"/>
<path fill="#de3908" d="m0,500h900v100h-900z"/>
<g stroke="#000">
<path fill="#fffdff" d="m505,232.313a115,115 0 1,1 -230,0 115,115 0 1,1 230,0z" transform="matrix(.81227 0 0 .81227 133.2166 111.3)"/>
<path fill="#de3108" d="m433.5203,228.3906l-6.0644-11.1703c2.3401-2.3401 6.2772-4.149 12.5536-4.149 0,.4256-.6384,12.2344-.6384,12.2344l-5.8508,3.085z"/>
<path fill="#ffe700" d="m439.3711,225.412l.8512-12.3408c0,0 12.5536-.744 19.362,7.4469 .1064-.1064-6.702,9.5742-6.702,9.5742l-13.5112-4.6803z"/>
<path fill="#de3108" d="m453.0951,229.9859l6.17-9.5742c4.149,4.3619 5.8508,7.4468 6.4892,12.1279 .1064,.1064-9.787,2.4466-9.787,2.3401 0-.1064-2.7658-4.7875-2.8722-4.8939z"/>
<path d="m436.6053,388.0732c0,0 11.5959-13.2984 34.1493-10.4254-3.4042-5.5323-14.3617-4.8939-14.3617-4.8939 0,0-3.4042-25.8512-.7448-27.1281 2.6594-1.2769 13.936,.1064 13.936,.1064 1.4889,0 4.0427-4.0426 2.0217-6.5956-2.0217-2.5538-7.9789-12.3408-5.5323-14.2561 2.4474-1.9145 15.745,1.0641 15.745,1.0641l-37.5535-48.0853c0,0-3.8298-18.0851 3.8298-26.8088 9.2558-7.6597 8.2981-15.9578 7.9789-15.8514-1.2769-8.4045-14.0425-14.4689-22.6598-6.702-5.1067,6.17-1.7025,10.8511-1.7025,10.8511 0,0-13.404,3.617-13.936,5.9572-.532,2.3409 15.1065-.4248 15.1065-.4248l-1.4897,10.7447c0,0-30.4259,27.6593-7.1276,51.5959 .2128-.1064 .7449-1.0641 .7449-1.0641 0,0 8.1917,10.107 16.8082,12.3408 8.0853,8.2981 7.3413,7.0212 7.3413,7.0212 0,0 1.5953,13.0856 .1064,15.6386-2.0217-.6384-22.6598-1.3825-25.7456-.2128-2.7658,.8513-13.404,.3192-10.7447,17.6603 2.0209-4.6811 3.8298-8.8302 3.8298-8.8302 0,0-.3192,6.2764 2.2345,8.5109-.4256-6.5964 2.4465-11.0639 2.4465-11.0639 0,0 .532,7.234 2.1273,8.2973 1.5961,1.0641 1.5961-11.7023 10.4263-10.6383 8.8293,1.0641 15.2129,.7449 15.2129,.7449 0,0 2.9786,24.9999 2.0209,27.3409-6.3836-1.4897-21.5957,.6384-22.5534,4.4683 8.9357-.532 13.0856,.5312 13.0856,.5312 0,0-7.234,6.3836-5.0003,10.107z"/>
</g>
<g fill="#9ca69c" stroke="#9ca69c">
<path d="m440.1914,251.6604c0,0-22.1391,24.4021-12.5877,43.0753 .5085-2.6041 .2867-4.24 .6059-4.1336-.532-.3192 2.7455,2.2467 2.4961,1.7472 .0699-1.35-.9983-4.2433-.9983-4.2433 .9983,.2494 1.9974,.4995 2.9956,.7489-.5824-1.0819-1.1656-2.1631-1.748-3.245 1.415,.1665 2.8291,.3322 4.2441,.4987 0,0-1.4978-3.9939-.9983-3.9939 .4987,0 3.4944,.2494 3.4944,.2494-6.2959-11.2986-.3566-20.6819 2.4961-30.7037z"/>
<path d="m447.882,230.7308c0,0 1.1705,8.4045-3.4042,10.8511-.7448,.532-3.617,1.4897-3.1914,3.1922 .532,2.3401 1.8081,1.9145 3.617,1.4889 4.7867-.8512 10.319-11.0639 2.9786-15.5322z"/>
</g>
<path fill="#fff" d="m382.3071,153.4403a2.2265,2.2265 0 1,1 -4.4531,0 2.2265,2.2265 0 1,1 4.4531,0z" transform="matrix(.81227 0 0 .81227 129.1553 113.3307)"/>
<path fill="#de3108" stroke="#000" d="m432.5626,244.986c-1.1705,.9577-7.3404,7.3413-1.2769,9.6814 6.2772-1.7025 4.5747-2.8722 5.958-4.2555 .0357-2.8722-3.1207-3.617-4.6811-5.4259z"/>
<path fill="#9ca69c" stroke="#9ca69c" d="m445.9667,305.3065c-.3192,1.3833-1.7017,6.4892 .2128,10.4254 5.3195-2.2337 7.7661-1.5961 9.575-.4256-4.361-3.5106-6.0636-5.0003-9.7878-9.9998z"/>
<path fill="#fff" stroke="#fff" d="m455.116,329.4552l.3192,11.9151c0,0 4.1491,.7448 6.0636,0 1.9153-.7448-.1064-8.2981-6.3828-11.9151z"/>
<g stroke="#000">
<path fill="#9ca69c" d="m485.2227,330.9449c0,0-7.6597-18.5107-27.2345-23.1918-19.5748-4.6811-17.0218-25.532-15.4257-26.8088 .8513-1.8089 1.4897-4.5747 7.1276-1.9145 5.6387,2.6594 31.5963,15.7442 35.3198,16.3826 3.7234,.6384 .532,35.9582 .2128,35.5326z"/>
<path fill="#de3108" d="m466.6055,307.6467c-.3192,.2128 26.1704,15.6377 18.1915,28.9362 7.5541-5.0003 5.1067-13.7232 5.1067-13.7232 0,0 6.17,16.0642-8.8301,23.9367 1.5961,1.3833 2.6602,1.0632 2.6602,1.0632l-2.5538,2.5538c0,0-1.1705,1.9145 8.9366-2.9794-2.7666,2.2346-2.9786,3.8298-2.9786,3.8298 0,0 .744,2.1281 7.3404-3.617-5.3195,5.7451-6.49,8.7237-6.49,8.6173 14.3617-1.2769 45.6388-47.9789-9.8934-61.8094 2.9794,3.0858 2.553,2.6602 2.553,2.6602l-14.0425,10.5318z"/>
<path fill="#fff" d="m467.776,303.072c3.617,2.553 4.8931,3.4042 5.3187,4.6811-3.2978-.744-6.2764-.532-6.2764-.532 0,0-7.1276-6.8084-8.4045-7.3404-.9577,0-6.4892-3.5106-6.4892-3.5106-2.7658-1.3833-5.3187-10.9575 4.8939-8.1917 10.531,4.9995 12.0207,5.4259 12.0207,5.4259 4.1848,1.3118 8.3688,2.6244 12.5536,3.9362 2.4116,2.6951 4.8224,5.3902 7.234,8.0853 0,0-12.872-6.3836-14.4681-6.49 3.5106,2.8722 5.5323,6.8084 5.5323,6.8084-4.0784-1.1705-7.6239-2.2337-11.9151-2.8722z"/>
</g>
<path stroke="#fff" d="m417.6689,245.9437c0,0 12.3408-2.9786 13.8297-2.553"/>
</svg>
