<svg xmlns="http://www.w3.org/2000/svg" viewBox="0 0 992.126 496.063" xmlns:xlink="http://www.w3.org/1999/xlink">
<g stroke-width="1.25">
<path fill="#006" d="m0,0h992.126v496.063h-992.126z"/>
<g fill-rule="evenodd">
<path fill="#bd1021" d="m-0,248.031l992.126,248.032v-496.0634l-992.126,248.0314z"/>
<path fill="#fff" d="m992.126,26.5747v442.9133l-885.827-221.457 885.827-221.4563z"/>
<g stroke="#000" transform="matrix(1.36487 0 0 1.36487 645.5845 66.06387)">
<path fill="#9c3900" stroke-linejoin="round" d="m131.809,174.069c0,0-4.538-3.713 .825-9.695-2.888-2.475-.206-7.219-.206-7.219 0,0-4.951-1.857 .206-9.489-3.713-2.475-2.063-8.045-2.063-8.045 0,0-12.17-4.538-.618-8.869-9.489,4.125-18.359-5.57-18.359-5.57l-13.8201,.413c-2.3378-11.483-20.5587-1.513-7.0133-34.448-3.5067-.6189-7.4259-1.6501-11.3451,1.2377-3.9192,2.8878-15.058,9.0763-21.6588,2.8878-6.6007-6.1882 4.3318-15.0581 4.5381-15.2643 .2062-.2063 14.6454-7.6322 16.7082-12.5827-.2063-3.713-4.7444-6.6007-.6189-14.6455 4.7443-7.6321 33.8289-14.8517 47.0309-17.327 6.394-2.8878 9.282-8.4572 9.282-8.4572l1.444,5.3631c0,0 29.291-8.6635 30.735-12.789 1.444-4.1255 .619,3.7129 .619,3.7129 11.551-1.0314 26.196-10.9325 28.259-6.3945 9.695-1.8564 28.26-10.1074 28.26-10.1074 0,0 6.394-.2062 1.856,6.8071 2.888,4.538-.825,8.4572-1.031,8.4572-.207,0 1.237,4.538-2.476,7.0133 1.239,3.9192-2.269,7.0133-2.269,7.0133 0,0 1.651,4.7443-4.95,7.2196 .619,4.1255-3.713,4.9506-3.713,4.9506 0,0 .619,4.3318-2.269,6.1882 0,3.3004-3.3,4.9506-3.3,4.9506 0,0 2.062,1.2376-.826,3.3004-2.887,2.0627-32.797,20.4211-32.797,20.2148 0-.2062 21.865,3.9192 23.309,4.7443 1.444,.8251 17.946,11.7576 17.946,11.7576l-16.709,20.6271c0,0-18.564-2.062-19.389-1.031-.825,1.031 3.919,1.444 4.95,3.094 1.032,1.65 2.682,5.57 5.982,5.157 3.301-.413-6.188,5.982-12.376,6.601 0,2.269 7.838,2.475 9.901,.619 2.063-1.857-4.951,5.363-5.776,6.394-.825,1.031 9.283-1.444 9.283-1.444 0,0-1.651,6.807-10.52,8.87 3.506,5.776 2.062,9.489 1.856,9.489-.206,0-5.776-5.776-11.139-4.745 1.444,5.57 5.776,10.726 7.014,11.552 1.237,.825-9.695,.618-11.139-2.476-1.444-3.094-2.682,7.426 1.237,10.727-4.537,.206-8.457-2.476-8.457-2.476 0,0-2.681,6.188-.825,9.283 1.857,3.094-6.394-6.189-6.394-6.189l-15.677,6.601-3.507-5.982z"/>
<path fill="#ffc221" d="m10.6525,161.794c.3674,0 22.7745-.368 33.0597-6.245 5.1426,8.081 12.1218,13.591 12.1218,13.591l3.306-11.754c0,0 8.0812,.367 8.8159,2.204-1.102,2.203-1.4693,5.142-1.4693,5.142 0,0 5.5099,.368 5.8772,1.102 .3673,.735-1.4693,6.979-1.4693,6.979l23.5091,5.51c0,0 1.8366-9.183 3.6732-8.081 1.8367,1.102 9.9182,12.489 21.3052,13.224 11.387,.735 12.122-9.551 12.122-9.551l2.571,1.47c0,0 4.775-10.285 5.51-10.285 .735,0 1.837,1.469 8.081,1.469 1.837,2.204 2.572,7.346 2.572,7.346 0,0-6.98,6.98-4.776,12.49 2.204,5.51 2.572,4.04 2.572,4.04l50.691,12.122c0,0 2.572,4.041-1.836,6.245 0,.367-51.059-11.755-51.059-11.755 0,0-4.776,5.51-8.449,4.408-3.673-1.102-1.102,2.204-1.102,2.204l55.099,4.408c0,0 4.041,5.143 1.102,6.612-3.673,.367-59.507-3.673-59.507-3.673 0,0-3.306,6.979-6.979,1.102-2.571,4.04-5.51-1.102-5.51-1.102 0,0-4.775,3.673-5.51-.368-4.041,2.939-6.612-1.836-6.612-1.836l-23.509-1.47-1.4693,2.204c0,0 4.0406,1.102-2.204,3.674-6.2446,2.571 37.4673,1.469 38.5693,1.836 1.102,.368-2.938,3.674-2.938,3.674 0,0 22.407,1.469 26.447-3.306 4.041-4.776-1.469,6.244-1.469,6.244 0,0 17.632-.734 17.632-1.469 0-.735-.368,5.51-12.489,4.775 7.346,4.776 16.529,7.714 16.529,7.714 0,0-9.183,2.204-19.835-.367 1.836,4.775 9.918,9.183 9.918,9.183 0,0-5.878,5.143-19.102-7.347 3.674,6.612 .735,9.184 .368,8.449-.368-.735-6.612-9.918-21.305-13.224 9.183,5.877 5.142,8.449 5.142,8.449 0,0-4.775-8.449-12.489,0-2.939-7.714-14.3257-12.122-28.2842-12.857-4.4079-5.142-6.9793-3.673-17.2645-6.612-5.8772-6.611-14.3258-13.958-14.3258-13.958 0,0 .3673-9.918 10.2852-8.816 1.102,3.306 1.102,2.204 1.102,2.204 0,0 11.0198-4.041 14.3258,1.469 4.7752-8.449 11.3872-1.263 12.4892,1.675 3.1647,.464 19.1013,.896 19.1013,.896 0,0-1.837-3.306-.735-2.938 1.102,.367 9.918-3.306 9.551-4.408-.368-1.102-.735-4.775 .734-4.408 1.47,.367-12.489-1.837-20.2028,4.041-2.5713-2.572-.7346-9.551-.7346-9.551l-22.7744-4.775-1.102,5.877c0,0-6.6119,1.102-6.2446-.367 .3673-1.47-1.4693,5.142-1.4693,5.142 0,0-8.8159-2.204-8.8159-2.571 0-.367 2.5713-13.224 2.5713-12.857 0,.368-7.3466,.735-17.6318,8.449-2.9386-9.183-26.0804-21.305-26.0804-21.672z"/>
<g fill="none">
<path d="m66.4866,165.1l-4.7753,21.305"/>
<path d="m70.8945,173.181l-1.4693,6.979"/>
<path d="m94.4036,178.691l-2.204,6.612"/>
<path d="m135.177,223.505c-.367,0-11.754,1.469-13.224,1.102-1.469-.367 17.999,5.877 17.999,8.448"/>
<path d="m114.607,226.076c0,0-11.388-7.346-13.224-6.612-1.8368,.735 11.387-.367 12.489-1.469"/>
<path d="m91.0976,217.628c0,0-11.7545,.367-12.8565-.735-1.102-1.102 11.3872,8.081 13.5912,7.347"/>
<path d="m68.3232,212.485c-.3673,0-8.0813-2.938-11.3872-3.674 2.9386,2.939 5.1426,6.98 12.4892,8.449"/>
<path d="m71.2618,207.71c-.3673-.735-14.6931-5.143-14.6931-7.347 3.306,1.102 8.0812,2.571 12.4892,1.469"/>
<path d="m147.299,190.813l-1.469,6.611"/>
</g>
<path fill="#ffc221" d="m39.3042,131.673c0,0-15.4278,13.223 0,20.937 .7346-5.143 1.8367-5.877 1.8367-5.877 0,0 12.8565,4.775 20.5704-6.612-3.306-4.775-9.1832-2.938-9.1832-2.938 0,0-12.1219-.001-13.2239-5.51z"/>
<g fill="none">
<path d="m52.1607,137.55l-10.6525,9.183"/>
<path d="m84.9689,201.329c0,0 2.4554,2.707 .2514,6.013"/>
<path d="m136.646,204.036l-4.04,.368"/>
<path d="m103.587,201.832l7.346,1.102"/>
<path d="m123.352,182.939c0,0 .206,7.426-5.982,7.22-6.188-.207-4.126,.206-4.126,.206"/>
<path d="m128.096,181.701c0,0 2.475,.825 1.857,2.682-.619,1.856 .618,7.219-6.601,12.376-7.633,1.65-6.807-6.394-6.807-6.394"/>
<path d="m130.778,183.97c0,0 4.538-2.681 5.157,1.651 .618,4.331-3.713,12.376-6.807,13.614-3.095,1.237-6.601-.207-6.189-2.269"/>
<path d="m136.347,185.827c0,0 4.126-3.301 5.363,1.031 1.238,4.332-3.3,14.027-5.157,14.233"/>
<path d="m142.123,186.858c0,0 2.063-1.031 3.506,.206"/>
<path d="m135.522,201.71c-.825,.206-4.332,.412-5.569-2.269"/>
<path d="m116.957,194.49c-.206,0-4.331,.207-4.331,.207"/>
<path d="m132.84,210.786l-.412-6.807-1.65-2.269-2.888,2.888c0,0-.413,6.807-1.65,7.426"/>
<path d="m127.89,204.391c-.206-.412-2.269-4.331-2.269-4.331l-3.507,4.331c0,0-.412,6.189-1.65,6.808"/>
<path d="m122.114,204.185c0-.206-1.444-4.125-1.444-4.125 0,0-4.125,2.269-4.538,3.919-.412,1.65-.619,6.188-1.65,6.601"/>
<path d="m116.132,203.154c0,0 .413-3.713-.825-3.713-1.237,0-6.807,5.157-7.013,9.695"/>
</g>
<path fill="#fff" stroke-linejoin="round" d="m39.8109,131.783c0,0 2.0627-2.063 2.6816-4.538 .6188-2.475-.8251-5.157 1.6502-7.426 2.4752-2.269 35.0665-16.089 37.7481-18.771 2.6816-2.6814 7.6321-8.4571 8.251-9.6947 .6188-1.2377 2.4753,6.1882-3.0941,9.4887 5.9819-1.6506 9.9011-3.5068 12.3764-2.6817-2.4757,3.5067-9.076,9.2827-12.1702,9.2827 7.2196-2.682 13.8201-4.951 15.6771-3.507 1.856,1.444-8.87,8.664-13.2018,9.076 7.2196-1.856 16.9148-4.744 18.1518-1.65-3.919,1.238-2.682,2.268-10.7259,6.807-1.0313,.826-6.1882,1.031-6.1882,1.031 6.1882-.619 14.6451-3.094 15.4701,1.444-4.95,1.856-6.8066,4.332-10.9321,5.363-4.1255,1.032-13.6141,2.888-19.3898,5.157-5.7756,2.269-14.2329,8.87-14.2329,8.87 0,0-18.3584,.619-18.3584,.412 0-.206-3.5066-8.457-3.7129-8.663z"/>
<g fill="none">
<path d="m48.4744,130.339c0,0 .2063-4.125 2.0627-5.569 1.8565-1.444 11.1388-4.951 13.2016-8.045 2.0627-3.094-3.0941,5.363-2.269,7.632"/>
<path d="m52.1873,124.151c0,0 4.5381,1.651 3.5067,5.157"/>
<path d="m57.3442,126.0073a3.9192,3.9192 0 1,0 -7.8384,0 3.9192,3.9192 0 1,0 7.8384-.0003l-3.9192,.0003z" transform="matrix(.86842 0 0 .86842 7.75143 17.09525)"/>
</g>
<path fill="#fff" d="m197.198,119.2l35.685,6.807c0,0 3.92-4.538 1.857-7.013 5.363-1.237 3.919-8.251 3.919-8.251 0,0 6.188-2.681 1.031-8.87 3.508-3.5065-.825-6.188-.825-6.188 0,0 1.444-6.1882-3.094-6.807 1.238-4.9505-7.838-6.6008-7.838-6.6008 0,0-18.771,5.1569-31.973,5.5694 4.332,4.3318-1.65,7.0133-1.65,7.0133 0,0 3.507,2.4753 2.475,4.538-1.031,2.0631 .619,4.3321-3.919,5.7761 5.982,2.682-.619,7.219-.619,7.219 0,0 6.601,4.538 4.951,6.807z"/>
<g fill="none">
<path d="m193.691,111.568c0,0 31.56,3.713 33.004,3.713 1.444,0 7.013,1.857 8.045,3.713"/>
<path d="m195.342,109.712l43.936,1.031"/>
<path d="m195.548,108.68c0,0 41.667-2.475 44.555-6.807"/>
<path d="m196.785,99.6042c0,0 41.874-4.538 42.287-3.9192"/>
<path d="m195.342,94.4474c0,0 40.636-6.3945 41.048-5.3631"/>
<path d="m79.4155,68.2506c0,0 12.789,14.0266 11.5514,23.5152"/>
<path d="m90.1418,84.34c0,0 4.1254,5.9819 5.7756,6.6007 1.6502,.6188 16.0896,1.4439 16.9146,7.6321 .825,3.9192-3.094,2.6812-2.475,5.5692 1.031,3.713 10.726,8.457 21.246,2.888"/>
<path d="m121.908,109.918c0,0 8.663,12.789 21.452-1.031"/>
<path d="m136.76,114.456c0,0 10.52,5.569 19.183-8.87"/>
<path d="m144.804,115.693c0,0 5.157,4.332 15.884-1.443"/>
<path d="m175.539,108.474c0,0 15.883,3.3 16.915,4.332"/>
<path d="m181.521,104.967c.206,0 11.139,.413 11.139,.413"/>
<path d="m174.714,98.7791c0,0 18.977-1.2376 21.453,2.6819"/>
<path d="m166.463,92.7972c0,0 26.61,1.0313 27.847,2.4753"/>
<path d="m172.445,120.025c0,0 4.538-1.237 5.157-.618"/>
<path d="m162.131,131.164c0,0 5.982,5.157 13.615,2.888"/>
<path d="m165.432,139.828c0,0 6.807,3.094 14.852,1.237"/>
<path d="m167.701,144.985c0,0 6.807,4.538 11.345,3.712"/>
<path d="m164.607,147.666c0,0 4.744,3.507 4.95,5.363"/>
<path d="m158.006,151.792c0,0 1.444,7.425 6.601,10.107"/>
<path d="m154.499,155.092c0,0-2.269,9.695 3.507,15.677"/>
<path d="m148.517,162.724c0,.206-.412,4.538-.206,4.951"/>
<path d="m111.388,125.182l11.139-.619c0,0 4.125-1.65 1.237-4.331"/>
<path d="m125.208,122.707c.207,0 10.52,.825 13.202,3.919 2.681,3.094 5.982,9.282 7.838,10.314 1.857,1.031 2.269-.413 2.269-.413"/>
<path d="m143.979,134.877c0,0-5.569,9.489-1.237,12.377"/>
<path d="m140.885,145.397c0,0-4.95,6.601-1.031,9.901"/>
<path d="m138.822,154.473c0,0-3.919,6.395 .826,10.726"/>
<path d="m137.086,137.51c-.266,.266-4.791,3.46-6.388,2.662"/>
<path d="m132.295,147.625c0,0 1.863,1.863 3.46,1.597"/>
<path d="m132.516,157.298l2.973,2.039"/>
<path d="m132.917,164.706l2.572,1.552"/>
<path d="m86.3303,63.5436c0,0 5.4228,2.8199 9.761,0 4.3387-2.8198 25.1617-13.4484 30.5847-15.1837 5.422-1.7353 8.459-11.7131 9.544-16.0513"/>
<path d="m132.098,44.0217l30.368-8.8933c0,0 4.989-4.1213 5.206-11.7132"/>
<path d="m165.503,31.6578c0,0 30.367-3.0367 30.367-14.316"/>
<path d="m191.098,25.1505c0,0 31.886-8.6764 34.923-11.9301"/>
<path d="m102.165,70.4848c0,0 19.305-9.9779 22.342-11.0624 3.036-1.0846 9.977-9.761-.434-9.761"/>
<path d="m111.492,74.3892c.217,0 15.834-10.1948 21.04-11.4963 2.82-3.9043 1.302-8.0256-3.47-7.158"/>
<path d="m133.833,60.29c.434-.2169 8.46-.4338 5.64,5.8566-4.12,3.0367-21.908,11.9301-21.908,11.9301"/>
<path d="m129.712,53.5658l33.838-11.2794c0,0 2.82-5.8566-1.301-6.7242"/>
<path d="m190.447,25.3674c0,.2169 4.339,2.6029 1.736,6.5073-4.772,2.8199-27.331,8.2426-27.331,8.2426"/>
<path d="m224.719,21.8968l-31.886,8.8934"/>
<path d="m222.333,29.0549l-27.764,8.4595"/>
<path d="m219.947,35.996l-24.511,7.375"/>
<path d="m215.392,42.9371c-.651,0-18.22,5.4228-18.22,5.4228"/>
<path d="m211.488,48.3599l-11.28,4.5551"/>
<path d="m208.668,54.4334c-.434,0-9.761,4.1213-9.761,4.1213"/>
<path d="m205.848,59.4224l-8.676,4.1212"/>
<path d="m190.881,68.7495c0,0 1.085,.4338 .868,1.7353"/>
<path d="m168.973,80.6796c0,0 3.688,1.3014 .217,4.772-1.735,2.386-6.724,1.7354-9.761,6.0735"/>
<path d="m192.616,32.0917c0,0 4.556,1.0845 1.085,6.9411-9.111,3.4706-27.548,9.1102-27.548,9.1102 0,0-.867,1.5184-3.253,2.8199-2.386,1.3014-28.632,8.6764-28.632,8.6764"/>
<path d="m194.135,38.8159c0,0 4.989,2.1691 0,5.8566-5.64,3.2536-25.379,9.3271-25.379,9.3271 0,0-.217,1.7352-1.084,2.386-.868,.6507-26.897,9.3272-26.897,9.3272"/>
<path d="m195.436,44.6725c0,0 5.206,1.5184 .651,5.8565-5.423,3.2537-22.776,9.1103-22.776,9.1103 0,0-1.735,2.169-4.555,3.0367-2.82,.8676-20.823,8.2426-20.823,8.2426"/>
<path d="m196.737,50.529c1.519,.6507 5.64,1.3015 .651,5.2059-5.856,2.6029-20.172,8.2426-20.172,8.2426l-1.302,2.386-22.775,9.7609"/>
<path d="m198.039,56.3856c0,0 2.169,2.603-2.603,5.6397-5.206,2.8198-16.485,7.158-16.485,7.158"/>
<path d="m195.436,62.4591c0,0 2.386,1.5184-.65,3.6875-3.471,1.7353-17.136,8.8933-17.136,8.8933l-8.894,5.8566"/>
<path d="m164.201,42.5033c0,.2169 3.688,3.2537 2.386,6.7242 3.254,2.386 2.603,4.989 2.603,4.989 0,0 4.555,2.6029 3.905,6.2904 4.555,1.0846 4.338,3.6875 4.338,3.6875l-1.519,2.386c0,0 4.555-.2169 .651,5.6397 2.386,1.3015 1.302,2.8198 1.302,2.8198"/>
<path d="m176.565,72.437c-.651,0-15.834,5.6397-19.739,9.1102"/>
<path d="m139.907,65.7128c0,0 4.555-.2169 3.905,4.772 5.206-1.7353 4.121,3.2536 4.121,3.2536 0,0 6.073-2.386 4.989,5.2059 3.904-.8676 3.253,3.0367 3.253,3.0367 0,0 3.471-.2169 3.471,1.7353 2.386-2.1691 4.989-1.0845 4.989-1.0845 0,0 1.735-2.3861 4.121-1.7353"/>
<path d="m144.029,70.2678c0,.434-20.39,11.7132-20.39,11.7132"/>
<path d="m147.933,73.9554l-15.401,9.544"/>
<path d="m153.139,78.7274c0,.2169-13.449,8.0257-13.449,8.0257"/>
<path d="m156.175,81.7641c0,0-9.544,7.8088-11.713,7.375"/>
<path d="m159.429,84.1501c0,0-5.423,4.1214-9.978,6.0735"/>
<path d="m165.069,82.4149c0,0 1.735,2.1691-9.11,7.8087"/>
</g>
</g>
</g>
</g>
</svg>
