<svg width="1000" xmlns="http://www.w3.org/2000/svg" height="500" viewBox="0 0 1000 500" xmlns:xlink="http://www.w3.org/1999/xlink" enable-background="new 0 0 1000 500">
<path fill="#08296b" d="m0,0h1000v500h-1000z"/>
<path fill="#fff" d="m499.999,0-55.901,0-152.431,76.215 0-76.215-83.334,0 0,76.215-152.431-76.215-55.902,0 0,27.949 110.765,55.383-110.765,0 0,83.334 110.765,0-110.765,55.383 0,27.951 55.902,0 152.431-76.217 0,76.217 83.334,0 0-76.217 152.431,76.217 55.901,0 0-27.951-110.765-55.383 110.765,0 0-83.334-110.765,0 110.765-55.383z"/>
<g fill="#cf142b">
<path d="m499.999,0-37.268,0-166.666,83.332 37.268,0z"/>
<path d="M166.667,83.332 0,0 0,18.633 129.399,83.332z"/>
<path d="m0,250 37.268,0 166.666-83.334-37.267,0z"/>
<path d="m333.333,166.666 166.666,83.334 0-18.635-129.398-64.699z"/>
<path d="M225,0h50v100h225v50H275v100h-50V150H0v-50h225V0z"/>
</g>
<path fill="#fff" d="m750,114.377c-38.643,22.217-80.302,21.495-106.385,3.619 0,67.634 0,112.074 0,138.161 0,47.827 29.102,101.446 106.385,129.466 77.281-28.02 106.385-81.639 106.385-129.466 0-26.087 0-70.527 0-138.161-26.083,17.876-67.739,18.598-106.385-3.619z"/>
<path fill="#0073bd" d="m652.882,302.114c13.86,33.12 44.19,64.318 97.118,83.509 52.933-19.19 83.258-50.389 97.121-83.509h-194.239z"/>
<g fill="#e77329">
<path d="m819.918,178.021c-12.438-11.473-27.048-6.279-38.644-16.303-9.984-8.638-24.631-12.079-35.744-11.113 .728-1.448 1.692-3.138 2.417-4.586-52.65,12.559-58.443,82.121-10.385,90.093 .603-7.368-5.314-11.837-5.557-19.083 2.295,.481 4.952,1.451 6.764,2.66-.724-8.215-7.966-9.896-7.729-20.05 .482-20.531 10.906-33.256 29.706-34.782 8.938-.724 21.095,2.828 24.878,10.388 1.447,2.9 4.344,6.883 6.517,9.055 2.056,2.056 2.114,1.331 2.419-1.569 .637-6.124 11.557-8.859 24.392-2.896 3.379,1.567 3.487,.513 .966-1.814z"/>
<path d="m773.789,216.545c-3.861,2.295-8.815,10.989-16.664,11.836 .121-2.896 0-7.609-.481-9.417-4.469,6.883-5.559,15.697-16.908,23.427-12.74,8.676-35.351,11.454-46.852-.966-6.04-6.521-9.904-15.216-6.525-27.539 2.261-8.209 9.302-8.64 13.165-12.075 1.087-.963 .111-1.129-1.568-1.328-7.127-.845-9.201-10.727-3.141-25.601 1.328-3.263-.482-3.142-4.345,3.744-5.504,9.799-5.438,19.038-8.456,27.292-7.246,19.806-3.441,47.522 14.913,57.425-.905,1.33-1.991,3.08-3.141,4.408 41.603,9.902 83.142-7.486 80.003-51.206z"/>
<path d="m762.198,185.147c2.414,4.83 9.419,8.212 11.591,14.732-1.931,0-5.557,.968-7.487,2.175 5.193,2.416 7.971,2.78 12.798,6.644l1.207,.604c15.456,16.421 22.185,32.696 16.426,47.338-2.896,7.368-8.927,15.604-18.718,18.719-13.283,4.228-16.906-6.643-28.86-4.709-.842,.136-.188,.825 .966,1.33 7.489,3.259 4.887,11.57-9.297,17.872-1.088,.481-1.163,.574 1.236,.847 8.542,.966 19.351-1.828 24.966-4.832 7.005-3.745 15.604-6.267 23.067-9.783 14.61-6.882 22.578-19.08 24.875-35.989 2.777,2.055 3.621,3.865 4.95,6.161 6.038-27.293-13.043-62.319-57.72-61.109z"/>
</g>
<g fill="#fff">
<circle cx="719.933" cy="215.819" r="2.468"/>
<path d="m766.059,231.226c-1.357,0-2.463,1.105-2.463,2.466 0,1.365 1.105,2.472 2.463,2.472 1.364,0 2.468-1.106 2.468-2.472-.001-1.361-1.104-2.466-2.468-2.466z"/>
<path d="m785.383,190.788c-1.363,0-2.471,1.101-2.471,2.466 0,1.364 1.107,2.468 2.471,2.468 1.361,0 2.465-1.104 2.465-2.468-0-1.365-1.104-2.466-2.465-2.466z"/>
</g>
</svg>
