<svg width="900" xmlns="http://www.w3.org/2000/svg" height="450" viewBox="0 0 1098 549" xmlns:xlink="http://www.w3.org/1999/xlink">
<path fill="#c8313e" d="m0,0h1098v549h-1098z"/>
<path fill="#4aa657" d="m0,366h1098v183h-1098z"/>
<path fill="#fff" d="m0,0h122v549h-122z"/>
<g id="h">
<g fill="#c8313e" fill-rule="evenodd" id="q" transform="scale(5.30435 9)">
<path d="m4,0h3v1h1v1h1v1h1v1h1v1h-1v1h-1v1h-1v1h-1v1h-1v1h-1v-1h-1v-1h-1v-1h-1v-1h-1v-1h-1v-1h1v-1h1v-1h1v-1h1zm1,1h1v1h1v1h1v1h-1v1h-1v1h-1v-1h-1v-1h-1v-1h1v-1h1zm0,1h1v1h-1zm-5-4h1v1h-1zm0,5h1v1h-1zm11-8h.6v2h-.6zm0,5h.6v2h-.6zm-9,0h1v1h1v1h1v1h-1v1h-1v1h-1v-1h-1v-1h-1v-1h1v-1h1zm0,1h1v1h-1zm6-3h1v1h1v1h1v1h-1v1h-1v1h-1v-1h-1v-1h-1v-1h1v-1h1zm0,1h1v1h-1zm-8,3h1v1h-1zm11-2h.6v2h-.6z"/>
<path d="m0,18h1v-1h1v-1h1v-1h1v-1h1v-1h1v1h1v1h1v1h1v1h1v1h1v1h.6v4h-.6v1h-1v1h-1v1h-1v1h-1v1h-1v2.6h-2v-.6h-1v-1h-1v-1h-1v-1h-1v-3h1v1h1v1h1v1h1v-1h1v-1h1v-1h1v-1h1v-1h1v-1h-1v-1h-1v-1h-3v1h2v1h-1v1h-1v1h-1v-1h-1v-1h-1v-1h-1zm0,2h1v1h-1zm11,2h.6v1h-.6zm-2,1h1v1h1v1h.6v1.6h-.6v-.6h-1v-1h-1zm-2,1h1v.6h-1z"/>
</g>
<use xlink:href="#q" transform="matrix(-1 0 0 1 122 0)"/>
</g>
<use xlink:href="#h" transform="matrix(1 0 0 -1 0 549)"/>
</svg>
