<svg xmlns="http://www.w3.org/2000/svg" viewBox="0 0 600 300" xmlns:xlink="http://www.w3.org/1999/xlink">
<path fill="#fff" fill-rule="evenodd" d="m0-.0001h600v300.0001h-600z"/>
<path fill="#002b7f" fill-rule="evenodd" id="path570" d="m600.0001,260.8814c-6.7231,4.0445-12.4992,13.4973-30.3597,13.4973-35.7112,0-44.6417-19.9014-71.4278-19.9014-17.8556,0-26.7843,19.9014-44.6411,19.9014-35.7142,0-44.6429-19.9014-71.4284-19.9014-17.8574,0-26.7861,19.9014-44.6429,19.9014-35.7142,0-44.6429-19.9014-71.4284-19.9014-17.8574,0-26.7861,19.9014-44.6429,19.9014-35.7142,0-44.6429-19.9014-71.4284-19.9014-17.858,0-26.7861,19.9014-44.6429,19.9014-35.7142,0-44.6435-19.9014-71.4289-19.9014-17.8571,0-23.2143,14.1814-33.9285,14.1814l-0,25.6213c10.7143,0 16.0714-14.1814 33.9285-14.1814 26.7853,0 35.7146,19.9014 71.4289,19.9014 17.8568,0 26.7849-19.9014 44.6429-19.9014 26.7849,0 35.7142,19.9014 71.4284,19.9014 17.8568,0 26.7855-19.9014 44.6429-19.9014 26.7855,0 35.7142,19.9014 71.4284,19.9014 17.8568,0 26.7855-19.9014 44.6429-19.9014 26.7855,0 35.7142,19.9014 71.4284,19.9014 17.8568,0 26.7855-19.9014 44.6411-19.9014 26.7861,0 35.7166,19.9014 71.4278,19.9014 17.8604,0 23.6365-5.6396 30.3597-9.6842v-29.4345z"/>
<use width="600" height="300" xlink:href="#use3396" transform="translate(0 49.75348)"/>
<use width="600" height="300" id="use3396" xlink:href="#path570" transform="translate(0 -99.50701)"/>
<path fill="#002b7f" fill-rule="evenodd" id="path573" d="m266.0717,130.8382c26.7855,0 35.7142,19.9014 71.4284,19.9014 17.8568,0 26.7855-19.9014 44.6429-19.9014 26.7855,0 35.7142,19.9014 71.4284,19.9014 17.8568,0 26.7855-19.9014 44.6411-19.9014 26.7861,0 35.7166,19.9014 71.4278,19.9014 17.8604,0 23.6365-5.6396 30.3597-9.6842v-29.4345c-6.7231,4.0445-12.4992,13.4973-30.3597,13.4973-35.7112,0-44.6417-19.9014-71.4278-19.9014-17.8556,0-26.7843,19.9014-44.6411,19.9014-35.7142,0-44.6429-19.9014-71.4284-19.9014-17.8574,0-26.7861,19.9014-44.6429,19.9014-35.7142,0-44.6429-19.9014-71.4284-19.9014"/>
<use width="600" height="300" xlink:href="#path573" transform="translate(0 -49.75352)"/>
<use width="600" height="300" xlink:href="#path573" transform="translate(0 -99.50702)"/>
<g transform="matrix(.5 0 0 .5 0 154.7222)">
<path fill="#fff" fill-rule="evenodd" id="rect3179" d="m0-309.444h600v299.9996h-600z"/>
<path fill="#002b7f" fill-rule="evenodd" id="path4054" d="m-238.2897,473.0398l-.2143-94.299 81.7724,46.9639-81.5582,47.3351z" transform="matrix(2.84937 0 0 2.44966 679.5863 -1202.729)"/>
<use width="600" height="600" xlink:href="#path4054" transform="matrix(-1 0 0 1 600 -0)"/>
<use width="600" height="600" id="use6677" xlink:href="#path4054" transform="matrix(0 -.50215 2.01732 0 621.6497 -9.4444)"/>
<use width="600" height="600" xlink:href="#use6677" transform="matrix(1 0 0 -1 -0 -318.8888)"/>
</g>
<g fill="#ce1126" fill-rule="evenodd">
<path d="m177.64,50h22.36l100-50h-22.36l-100,50z"/>
<path d="m0,0v11.18l77.64,38.82h22.36l-100-50z"/>
<path d="m300,150v-11.18l-77.64-38.82h-22.36l100,50z"/>
<path d="m0,150h22.36l100-50h-22.36l-100,50z"/>
</g>
<g transform="matrix(.5 0 0 .5 0 .00001)">
<use width="600" height="300" id="use6763" xlink:href="#rect3179" transform="matrix(1 0 0 .33333 0 203.1481)"/>
<use width="600" height="300" xlink:href="#use6763" transform="matrix(0 .5 -1 0 450 0)"/>
</g>
<path fill="#ce1124" fill-rule="evenodd" id="use3168" d="m0,60h300v30h-300v-30a0,0 0 0,1 0,0"/>
<use width="600" height="300" xlink:href="#use3168" transform="matrix(0 .5 -1 0 225 .00001)"/>
<g transform="matrix(.60476 0 0 .60476 0 -.00012)">
<path fill="#a24300" fill-rule="evenodd" stroke="#fff" stroke-width="6.935" d="m814.961-301.181l-17.717,708.661c0,37.298 80.097,37.298 88.583-0l-17.717-708.661-53.149,0z" transform="matrix(.2 0 0 .475 575.1662 274.5648)"/>
</g>
<g fill-rule="evenodd">
<g transform="matrix(-.13794 .03951 -.06065 -.11427 581.15201 165.73444)">
<path fill="#006d00" stroke="#fff" stroke-width="8.25" d="m496.063,549.213l17.717,70.866 35.433-53.15-17.717,88.583 35.433-35.433-35.433,88.582 35.433-35.433-35.433,88.583 35.433-35.433-35.433,106.299 35.433-35.433-35.433,106.299 35.433-35.433-35.433,106.299-17.716,53.151-17.717,17.72-17.717-17.72-17.716-53.151-35.433-106.299 35.433,35.433-35.433-106.299 35.433,35.433-35.433-106.299 35.433,35.433-35.433-88.583 35.433,35.433-35.433-88.582 35.433,35.433-17.717-88.583 35.433,53.15 17.717-70.866z" transform="translate(177.1655 -224.0517)"/>
<g fill="none" stroke="#000" stroke-width="1.25">
<path d="m496.063,549.213v496.067" transform="translate(177.1655 -224.0517)"/>
<path d="m425.197,868.11l70.866,106.299 70.866-106.299" transform="translate(177.1655 -224.0517)"/>
<path d="m425.197,797.244l70.866,106.299 70.866-106.299" transform="translate(177.1655 -224.0517)"/>
<path d="m425.197,726.378l70.866,106.299 70.866-106.299" transform="translate(177.1655 -224.0517)"/>
<path d="m425.197,673.228l70.866,88.583 70.866-88.583" transform="translate(177.1655 -224.0517)"/>
<path d="m425.197,620.079l70.866,88.582 70.866-88.582" transform="translate(177.1655 -224.0517)"/>
<path d="m442.913,566.929l53.15,106.299 53.15-106.299" transform="translate(177.1655 -224.0517)"/>
</g>
</g>
<g transform="matrix(.10373 -.10621 .12936 .08577 277.7031 102.17688)">
<path fill="#006d00" stroke="#fff" stroke-width="8.25" d="m496.063,549.213l17.717,70.866 35.433-53.15-17.717,88.583 35.433-35.433-35.433,88.582 35.433-35.433-35.433,88.583 35.433-35.433-35.433,106.299 35.433-35.433-35.433,106.299 35.433-35.433-35.433,106.299-17.716,53.151-17.717,17.72-17.717-17.72-17.716-53.151-35.433-106.299 35.433,35.433-35.433-106.299 35.433,35.433-35.433-106.299 35.433,35.433-35.433-88.583 35.433,35.433-35.433-88.582 35.433,35.433-17.717-88.583 35.433,53.15 17.717-70.866z" transform="translate(177.1655 -224.0517)"/>
<g fill="none" stroke="#000" stroke-width="1.25">
<path d="m496.063,549.213v496.067" transform="translate(177.1655 -224.0517)"/>
<path d="m425.197,868.11l70.866,106.299 70.866-106.299" transform="translate(177.1655 -224.0517)"/>
<path d="m425.197,797.244l70.866,106.299 70.866-106.299" transform="translate(177.1655 -224.0517)"/>
<path d="m425.197,726.378l70.866,106.299 70.866-106.299" transform="translate(177.1655 -224.0517)"/>
<path d="m425.197,673.228l70.866,88.583 70.866-88.583" transform="translate(177.1655 -224.0517)"/>
<path d="m425.197,620.079l70.866,88.582 70.866-88.582" transform="translate(177.1655 -224.0517)"/>
<path d="m442.913,566.929l53.15,106.299 53.15-106.299" transform="translate(177.1655 -224.0517)"/>
</g>
</g>
<g transform="matrix(.0665 .12633 -.146 .06305 520.22002 -32.77383)">
<path fill="#006d00" stroke="#fff" stroke-width="8.25" d="m496.063,549.213l17.717,70.866 35.433-53.15-17.717,88.583 35.433-35.433-35.433,88.582 35.433-35.433-35.433,88.583 35.433-35.433-35.433,106.299 35.433-35.433-35.433,106.299 35.433-35.433-35.433,106.299-17.716,53.151-17.717,17.72-17.717-17.72-17.716-53.151-35.433-106.299 35.433,35.433-35.433-106.299 35.433,35.433-35.433-106.299 35.433,35.433-35.433-88.583 35.433,35.433-35.433-88.582 35.433,35.433-17.717-88.583 35.433,53.15 17.717-70.866z" transform="translate(177.1655 -224.0517)"/>
<g fill="none" stroke="#000" stroke-width="1.25">
<path d="m496.063,549.213v496.067" transform="translate(177.1655 -224.0517)"/>
<path d="m425.197,868.11l70.866,106.299 70.866-106.299" transform="translate(177.1655 -224.0517)"/>
<path d="m425.197,797.244l70.866,106.299 70.866-106.299" transform="translate(177.1655 -224.0517)"/>
<path d="m425.197,726.378l70.866,106.299 70.866-106.299" transform="translate(177.1655 -224.0517)"/>
<path d="m425.197,673.228l70.866,88.583 70.866-88.583" transform="translate(177.1655 -224.0517)"/>
<path d="m425.197,620.079l70.866,88.582 70.866-88.582" transform="translate(177.1655 -224.0517)"/>
<path d="m442.913,566.929l53.15,106.299 53.15-106.299" transform="translate(177.1655 -224.0517)"/>
</g>
</g>
<g transform="matrix(-.09189 .11398 -.13802 -.07516 622.76839 88.20632)">
<path fill="#006d00" stroke="#fff" stroke-width="8.25" d="m496.063,549.213l17.717,70.866 35.433-53.15-17.717,88.583 35.433-35.433-35.433,88.582 35.433-35.433-35.433,88.583 35.433-35.433-35.433,106.299 35.433-35.433-35.433,106.299 35.433-35.433-35.433,106.299-17.716,53.151-17.717,17.72-17.717-17.72-17.716-53.151-35.433-106.299 35.433,35.433-35.433-106.299 35.433,35.433-35.433-106.299 35.433,35.433-35.433-88.583 35.433,35.433-35.433-88.582 35.433,35.433-17.717-88.583 35.433,53.15 17.717-70.866z" transform="translate(177.1655 -224.0517)"/>
<g fill="none" stroke="#000" stroke-width="1.25">
<path d="m496.063,549.213v496.067" transform="translate(177.1655 -224.0517)"/>
<path d="m425.197,868.11l70.866,106.299 70.866-106.299" transform="translate(177.1655 -224.0517)"/>
<path d="m425.197,797.244l70.866,106.299 70.866-106.299" transform="translate(177.1655 -224.0517)"/>
<path d="m425.197,726.378l70.866,106.299 70.866-106.299" transform="translate(177.1655 -224.0517)"/>
<path d="m425.197,673.228l70.866,88.583 70.866-88.583" transform="translate(177.1655 -224.0517)"/>
<path d="m425.197,620.079l70.866,88.582 70.866-88.582" transform="translate(177.1655 -224.0517)"/>
<path d="m442.913,566.929l53.15,106.299 53.15-106.299" transform="translate(177.1655 -224.0517)"/>
</g>
</g>
<g transform="matrix(-.0911 -.09737 .10358 -.08861 424.80763 238.82317)">
<path fill="#006d00" stroke="#fff" stroke-width="8.25" d="m496.063,549.213l17.717,70.866 35.433-53.15-17.717,88.583 35.433-35.433-35.433,88.582 35.433-35.433-35.433,88.583 35.433-35.433-35.433,106.299 35.433-35.433-35.433,106.299 35.433-35.433-35.433,106.299-17.716,53.151-17.717,17.72-17.717-17.72-17.716-53.151-35.433-106.299 35.433,35.433-35.433-106.299 35.433,35.433-35.433-106.299 35.433,35.433-35.433-88.583 35.433,35.433-35.433-88.582 35.433,35.433-17.717-88.583 35.433,53.15 17.717-70.866z" transform="translate(177.1655 -224.0517)"/>
<g fill="none" stroke="#000" stroke-width="1.25">
<path d="m496.063,549.213v496.067" transform="translate(177.1655 -224.0517)"/>
<path d="m425.197,868.11l70.866,106.299 70.866-106.299" transform="translate(177.1655 -224.0517)"/>
<path d="m425.197,797.244l70.866,106.299 70.866-106.299" transform="translate(177.1655 -224.0517)"/>
<path d="m425.197,726.378l70.866,106.299 70.866-106.299" transform="translate(177.1655 -224.0517)"/>
<path d="m425.197,673.228l70.866,88.583 70.866-88.583" transform="translate(177.1655 -224.0517)"/>
<path d="m425.197,620.079l70.866,88.582 70.866-88.582" transform="translate(177.1655 -224.0517)"/>
<path d="m442.913,566.929l53.15,106.299 53.15-106.299" transform="translate(177.1655 -224.0517)"/>
</g>
</g>
<g transform="matrix(-.15884 -.03748 -.09202 .11973 658.3154 15.92737)">
<path fill="#006d00" stroke="#fff" stroke-width="8.25" d="m460.63,549.213l28.643,70.866 42.223-53.15-10.184,88.583 27.9-35.433-17.716,88.582 25.249-35.433-25.249,88.583 35.433-35.433-35.433,106.299 35.433-35.433-35.433,106.299 35.433-35.433-35.433,106.299-17.716,53.151-17.717,17.72-17.717-17.72-17.716-53.151-35.433-106.299 35.433,35.433-35.433-106.299 35.433,35.433-35.433-106.299 35.433,35.433-45.617-88.583 45.617,35.433-53.15-88.582 42.966,35.433-25.25-88.583 35.433,53.15 .001-70.866z" transform="translate(283.4647 -124.0162)"/>
<g fill="none" stroke="#000" stroke-width="1.25">
<path d="m467.208,584.646l28.855,124.016v336.618" transform="translate(283.4647 -124.0162)"/>
<path d="m436.23,885.827l59.833,88.582 60.682-88.582" transform="translate(283.4647 -124.0162)"/>
<path d="m434.533,814.961l61.53,88.582 60.682-88.582" transform="translate(283.4647 -124.0162)"/>
<path d="m435.381,744.095l60.682,88.582 59.833-88.582" transform="translate(283.4647 -124.0162)"/>
<path d="m432.835,690.945l63.228,70.866 53.149-70.866" transform="translate(283.4647 -124.0162)"/>
<path d="m425.197,637.796l70.866,70.865 45.406-70.865" transform="translate(283.4647 -124.0162)"/>
<path d="m436.124,593.238l53.15,86.886 35.327-95.478" transform="translate(283.4647 -124.0162)"/>
</g>
</g>
<g transform="matrix(.15827 .03923 .00579 .14339 320.76813 -65.10413)">
<path fill="#006d00" stroke="#fff" stroke-width="8.25" d="m460.63,549.213l28.643,70.866 42.223-53.15-10.184,88.583 27.9-35.433-17.716,88.582 25.249-35.433-25.249,88.583 35.433-35.433-35.433,106.299 35.433-35.433-35.433,106.299 35.433-35.433-35.433,106.299-17.716,53.151-17.717,17.72-17.717-17.72-17.716-53.151-35.433-106.299 35.433,35.433-35.433-106.299 35.433,35.433-35.433-106.299 35.433,35.433-45.617-88.583 45.617,35.433-53.15-88.582 42.966,35.433-25.25-88.583 35.433,53.15 .001-70.866z" transform="translate(283.4647 -124.0162)"/>
<g fill="none" stroke="#000" stroke-width="1.25">
<path d="m467.208,584.646l28.855,124.016v336.618" transform="translate(283.4647 -124.0162)"/>
<path d="m436.23,885.827l59.833,88.582 60.682-88.582" transform="translate(283.4647 -124.0162)"/>
<path d="m434.533,814.961l61.53,88.582 60.682-88.582" transform="translate(283.4647 -124.0162)"/>
<path d="m435.381,744.095l60.682,88.582 59.833-88.582" transform="translate(283.4647 -124.0162)"/>
<path d="m432.835,690.945l63.228,70.866 53.149-70.866" transform="translate(283.4647 -124.0162)"/>
<path d="m425.197,637.796l70.866,70.865 45.406-70.865" transform="translate(283.4647 -124.0162)"/>
<path d="m436.124,593.238l53.15,86.886 35.327-95.478" transform="translate(283.4647 -124.0162)"/>
</g>
</g>
<g transform="matrix(.02023 -.13745 .14298 .02442 288.67289 205.76261)">
<path fill="#006d00" stroke="#fff" stroke-width="8.25" d="m354.331,531.496l88.583,88.583 17.716-53.149v88.582l35.433-35.433-17.716,88.583 35.432-35.434-17.716,88.584 35.433-35.433-17.716,106.299 35.433-35.433-35.433,106.299 35.433-35.433-17.717,106.298-17.716,53.151-17.717,17.72-17.717-17.72-17.716-53.151-53.15-82.294 35.434,11.429-35.433-106.299 35.433,35.433-53.15-106.299 35.433,35.433-53.15-88.584 53.15,35.434-70.866-88.583 53.149,35.433-70.866-70.866 70.866,35.433-53.149-88.583z" transform="translate(442.9136 -42.96583)"/>
<g fill="none" stroke="#000" stroke-width="1.25">
<path d="m378.962,560.015l63.952,95.497 17.716,53.15 8.859,45.205 8.858,78.811 9.315,70.866 8.401,141.736" transform="translate(442.9136 -42.96583)"/>
<path d="m425.197,903.544l63.665,70.866 50.749-88.583" transform="translate(442.9136 -42.96583)"/>
<path d="m417.082,814.961l70.579,88.583 50.75-88.583" transform="translate(442.9136 -42.96583)"/>
<path d="m407.48,752.443l70.867,80.235 45.948-88.583" transform="translate(442.9136 -42.96583)"/>
<path d="m372.047,637.796l88.583,70.866 25.831-70.866" transform="translate(442.9136 -42.96583)"/>
<path d="m360.618,602.363l82.296,53.149 10.515-53.149" transform="translate(442.9136 -42.96583)"/>
<path d="m389.764,690.945l81.095,70.866 33.946-70.866" transform="translate(442.9136 -42.96583)"/>
</g>
</g>
</g>
<g stroke="#000" transform="matrix(.25333 0 0 .25333 412 157.1807)">
<path fill="#9d9d9d" fill-rule="evenodd" stroke-width="1.008" d="m52.504,257.6736l98.5363-17.68 102.642,17.68-47.6259,19.8016-87.8615,1.4144-65.6908-21.216z"/>
<path fill="#c00" stroke-width="1.629" d="m151.789,98.4453c-17.2235,5.9867-36.302-8.4255-67.3595,15.0933 0,0-54.1438-23.1627-58.2564,30.3711-.1653,2.1676 8.5702,15.2235 9.7859,14.2902 6.8043-5.2237-3.2297,5.0727-3.2297,6.5601 0,1.5001 .9979,2.3328 1.3348,2.9939 .3305,.6674 1.1632,1.6654 1.3285,4.494 .1653,2.8286-6.1368,10.544-3.4735,13.3726 2.657,2.8286 2.8223,10.9839 2.8223,13.3103 0,2.3265 1.6654,8.8164 2.8286,10.1512 1.1632,1.3285 3.1592,4.6529 3.1592,7.4815 0,2.8286 1.1632,10.647 .6611,12.6365-.4958,1.9959 2.9939,4.494 6.1594,5.4919 3.1591,.998 43.9353,1.7059 101.1622,.708 57.2332-.998 76.3283,8.0575 99.9742-.5427 3.655-1.3285 4.3224-4.3224 3.9918-5.9877-.3369-1.659 0-6.9793 .998-8.3142 .998-1.3285 7.6531-11.9755 6.3183-13.9714 1.2564-1.1343 10.5891,5.3897 4.645-.4355-1.5244-1.4939 .8533-17.2163 1.6732-20.528 .8264-3.318 2.0957-9.5498 3.6212-10.7066 1.5319-1.1569-2.5983-5.4878-2.3059-6.2696 .2988-.7882 1.4111-3.2291 2.9621-4.3414 0,0 2.8858-13.5265 1.106-20.1753-1.7671-6.6552-8.2692-36.583-48.8614-30.5889 0,0-54.3408-20.8996-71.0453-15.0933z"/>
</g>
<g fill="#f7d917" fill-rule="evenodd" stroke="#000">
<g stroke-width="1.241">
<g transform="matrix(.1367 -.01227 .02461 .19991 426.04709 191.45134)">
<path d="m49.75,.125c-5.0928,.8901-15.156,29.2453-12.6093,38.75 1.7631,6.5798 4.4981,11.1197 6.0468,13.9062-3.4041-4.6856-11.3824-13.75-22.25-13.75-13.6631-0-15.4303,29.9479-15.0938,31.875 .0014,.0068-.0015,.0253 0,.0312 .0015,.005 .0296,.0272 .0312,.0312 .0017-.0009 .0294,.0013 .0312,0 .613-.7144 6.1414-13.0938 19.6562-13.0938 8.8965,0 15.8292,7.0355 18.375,10.0312-.0007,.9443 .0228,1.8581 .0312,2.7812-2.0039,2.8285-3.2814,9.5312-9.4689,17.9688-7.4766,10.1953-30.3714,11.2405-34.2186,11.3438 .9706,0 37.5251,0 49.5312,0 .0474,0 .1095,.0029 .1562,0 .0219,.002 .0405-.0014 .0625,0 .0468,.0029 .1088,0 .1562,0 12.0061,0 48.5607,0 49.5312,0-3.8472-.1032-27.1795-1.1484-34.6561-11.3438-6.1875-8.4375-7.0275-15.1403-9.0314-17.9688 .0085-.9231 .032-1.8369 .0312-2.7812 2.5458-2.9958 9.4785-10.0313 18.375-10.0312 13.5148,0 19.0433,12.3793 19.6562,13.0938 .0018,.0013 .0296-.0009 .0312,0 .0016-.0041 .0297-.0263 .0312-.0312 .0015-.0059-.0014-.0244 0-.0312 .3366-1.9271-1.4307-31.875-15.0938-31.875-10.8676,0-18.8459,9.0644-22.25,13.75 1.5487-2.7865 4.2902-8.5753 5.7186-13.9062 2.5872-9.6556-7.44-38.7428-12.5311-38.75-.0795,.0001-.1692-.0141-.25,0zm-6.4375,52.8438c.3523,.4904 .6622,.9124 .9062,1.2812 .0052,.0078 .5417,2.9765 .5468,2.9842-.0024,.0637 2.6272,10.1858 2.6249,10.2495-.2644-.3917-3.737-13.9151-4.078-14.515zm13.375,0c-.3409,.5999-4.0323,14.1233-4.2967,14.515-.0024-.0637 3.3928-13.1388 3.3905-13.2025-.0004-.0106-.4371,2.9636-.4375,2.953 .244-.3688 .9914-3.7751 1.3437-4.2655z"/>
<path d="m42,67.5782c0,0 4-1.8593 8-1.8593 4,0 8,1.8593 8,1.8593v4.953c0,0-4-1.8593-8-1.8593-4,0-8,1.8593-8,1.8593v-4.953z"/>
</g>
<g transform="matrix(.13626 .01642 -.01749 .20066 460.21517 190.36428)">
<path d="m49.75,.125c-5.0928,.8901-15.156,29.2453-12.6093,38.75 1.7631,6.5798 4.4981,11.1197 6.0468,13.9062-3.4041-4.6856-11.3824-13.75-22.25-13.75-13.6631-0-15.4303,29.9479-15.0938,31.875 .0014,.0068-.0015,.0253 0,.0312 .0015,.005 .0296,.0272 .0312,.0312 .0017-.0009 .0294,.0013 .0312,0 .613-.7144 6.1414-13.0938 19.6562-13.0938 8.8965,0 15.8292,7.0355 18.375,10.0312-.0007,.9443 .0228,1.8581 .0312,2.7812-2.0039,2.8285-3.2814,9.5312-9.4689,17.9688-7.4766,10.1953-30.3714,11.2405-34.2186,11.3438 .9706,0 37.5251,0 49.5312,0 .0474,0 .1095,.0029 .1562,0 .0219,.002 .0405-.0014 .0625,0 .0468,.0029 .1088,0 .1562,0 12.0061,0 48.5607,0 49.5312,0-3.8472-.1032-27.1795-1.1484-34.6561-11.3438-6.1875-8.4375-7.0275-15.1403-9.0314-17.9688 .0085-.9231 .032-1.8369 .0312-2.7812 2.5458-2.9958 9.4785-10.0313 18.375-10.0312 13.5148,0 19.0433,12.3793 19.6562,13.0938 .0018,.0013 .0296-.0009 .0312,0 .0016-.0041 .0297-.0263 .0312-.0312 .0015-.0059-.0014-.0244 0-.0312 .3366-1.9271-1.4307-31.875-15.0938-31.875-10.8676,0-18.8459,9.0644-22.25,13.75 1.5487-2.7865 4.2902-8.5753 5.7186-13.9062 2.5872-9.6556-7.44-38.7428-12.5311-38.75-.0795,.0001-.1692-.0141-.25,0zm-6.4375,52.8438c.3523,.4904 .6622,.9124 .9062,1.2812 .0052,.0078 .5417,2.9765 .5468,2.9842-.0024,.0637 2.6272,10.1858 2.6249,10.2495-.2644-.3917-3.737-13.9151-4.078-14.515zm13.375,0c-.3409,.5999-4.0323,14.1233-4.2967,14.515-.0024-.0637 3.3928-13.1388 3.3905-13.2025-.0004-.0106-.4371,2.9636-.4375,2.953 .244-.3688 .9914-3.7751 1.3437-4.2655z"/>
<path d="m42,67.5782c0,0 4-1.8593 8-1.8593 4,0 8,1.8593 8,1.8593v4.953c0,0-4-1.8593-8-1.8593-4,0-8,1.8593-8,1.8593v-4.953z"/>
</g>
</g>
<g transform="matrix(.27506 0 0 .27506 413.75172 163.79575)">
<g stroke-width=".715">
<path d="m24.3078,134.5596l9.6899-11.8136c0,0 .9037,1.1682 0,0-19.8656-25.6813-20.8705-40.415-18.6343-47.8762 2.2361-7.4612 6.7084-15.5442 18.6343-25.4925 11.926-9.9483 20.1562-4.4191 31.3368-4.4191 11.1806,0 14.1621,2.4871 23.852,3.7306 9.6899,1.2435 35.7779,2.4871 35.7779,2.4871v-6.8395c0,0 1.0287,.1918 0,0-11.5187-2.1474-26.0881,0-35.7779-2.4871-9.6899-2.4871-17.889-3.1088-28.3242-3.1088-10.4352,0-17.9201-3.0422-24.6284,1.3102-6.7084,4.3524-14.9075,11.8136-20.8705,18.0313-5.963,6.2177-8.9445,18.6531-8.1991,26.7361 .7454,8.083 3.7269,14.9225 8.1991,21.1401 4.4722,6.2177 3.7269,11.1918 5.2176,15.5442 1.4907,4.3524 3.7269,13.6789 3.7269,13.0572z"/>
<path d="m239.2547,134.5596l-9.6899-11.8136c0,0-.9037,1.1682 0,0 19.8656-25.6813 20.8705-40.415 18.6343-47.8762-2.2361-7.4612-6.7084-15.5442-18.6343-25.4925-11.926-9.9483-20.1562-4.4191-31.3368-4.4191-11.1806,0-14.1621,2.4871-23.852,3.7306-9.6899,1.2435-35.7779,2.4871-35.7779,2.4871v-6.8395c0,0-1.0287,.1918 0,0 11.5187-2.1474 26.0881,0 35.7779-2.4871 9.6899-2.4871 17.889-3.1088 28.3242-3.1088 10.4352,0 17.9201-3.0422 24.6284,1.3102 6.7084,4.3524 14.9075,11.8136 20.8705,18.0313 5.963,6.2177 8.9445,18.6531 8.1991,26.7361-.7454,8.083-3.7269,14.9225-8.1991,21.1401-4.4722,6.2177-3.7269,11.1918-5.2176,15.5442-1.4907,4.3524-3.7269,13.6789-3.7269,13.0572z"/>
</g>
<path stroke-width=".835" d="m115.553,38.701h34.564v70.894h-34.564z"/>
</g>
</g>
<g transform="matrix(.27506 0 0 .27506 413.75172 161.59524)">
<path fill="#f7d917" fill-rule="evenodd" stroke="#000" stroke-width=".5" d="m119.6839-15.7991c0,0 3.7204,3.0282 6.5756,6.9217 2.8552,3.8934 4.8452,8.6521 4.8452,8.6521 0-0-4.7587-1.99-8.6521-4.8452-3.8935-2.8552-6.9217-6.5756-6.9217-6.5756v26.3024c0-0 3.0282-3.7204 6.9217-6.5756 3.8934-2.8552 8.6521-4.8452 8.6521-4.8452 0,0-1.5333,3.9266-2.5237,8.6521-.8909,4.2506-8.1827,14.0645-8.1827,14.0645l21.3024,1.4286c0,0-3.5418-11.2425-4.9685-15.4931-1.5362-4.5772-2.1666-8.6521-2.1666-8.6521 0,0 4.7587,1.99 8.6521,4.8452 3.8935,2.8552 6.9217,6.5756 6.9217,6.5756v-26.3024c0,0-3.0282,3.7204-6.9217,6.5756-3.8934,2.8552-8.6521,4.8452-8.6521,4.8452 0,0 1.99-4.7587 4.8452-8.6521 2.8552-3.8934 6.5756-6.9217 6.5756-6.9217h-26.3024z"/>
</g>
<g fill="#f7d917" fill-rule="evenodd" stroke="#000">
<g transform="matrix(.27506 0 0 .27506 413.75172 161.59524)">
<path stroke-width=".75" d="m150,23.0765a17.1429,17.1429 0 1,1 -34.2857,0 17.1429,17.1429 0 1,1 34.2857,0z" transform="translate(-.02209 8)"/>
<path stroke-width=".5" d="m116.0742,33.5346h34.1016c0,0 .4938-6.5959-1.9743-9.064-2.3786,0-10.594,0-10.594,0l-.1786-9.888h-3.945-6.0969l-.1786,9.888c0,0-7.1272,.3571-10.4109,.3571-1.4889,4.0416-1.2591,4.3809-1.2591,4.3809l.5357,4.326z"/>
</g>
<g stroke-width=".75" transform="matrix(.27506 0 0 .27506 413.75172 163.79575)">
<path d="m110.8769,107.2209c0,0 6.2118,5.0562 10.9791,11.5569 4.7672,6.5008 8.0899,14.4462 8.0899,14.4462 0,0-7.9454-3.3226-14.4462-8.0899-6.5008-4.7672-11.5569-10.9791-11.5569-10.9791v43.9163c0,0 5.0562-6.2118 11.5569-10.9791 6.5008-4.7672 14.4462-8.0899 14.4462-8.0899 0,0-3.3226,7.9454-8.0899,14.4462-4.7672,6.5008-10.9791,11.5569-10.9791,11.5569h43.9163c0,0-6.2118-5.0562-10.9791-11.5569-4.7672-6.5008-8.0899-14.4462-8.0899-14.4462 0,0 7.9454,3.3226 14.4462,8.0899 6.5008,4.7672 11.5569,10.9791 11.5569,10.9791v-43.9163c0,0-5.0562,6.2118-11.5569,10.9791-6.5008,4.7672-14.4462,8.0899-14.4462,8.0899 0,0 3.3226-7.9454 8.0899-14.4462 4.7672-6.5008 10.9791-11.5569 10.9791-11.5569h-43.9163z"/>
<path d="m27.2405,181.7798l21.6246-3.813c0,0-6.9955-3.9007-12.8191-9.4749-5.8237-5.5742-10.4755-12.8219-10.4755-12.8219 0,0 8.4016,1.8924 15.6315,5.4584 7.2298,3.566 13.2879,8.8054 13.2879,8.8054l-7.626-43.2491c0,0-3.9007,6.9955-9.4749,12.8191-5.5742,5.8237-12.8219,10.4755-12.8219,10.4755 0,0 1.8924-8.4016 5.4584-15.6315 3.566-7.2298 8.8054-13.2879 8.8054-13.2879l-21.6246,3.813 10.0342,56.9068z"/>
<path d="m226.8393,121.06c0,0 5.2395,6.058 8.8054,13.2878 3.566,7.2298 5.4584,15.6315 5.4584,15.6315 0,0-7.2477-4.6518-12.8219-10.4755-5.5742-5.8237-9.4749-12.8191-9.4749-12.8191l-7.626,43.2492c0,0 6.058-5.2395 13.2879-8.8054 7.2298-3.566 15.6315-5.4584 15.6315-5.4584 0,0-4.6518,7.2477-10.4755,12.8219-5.8237,5.5742-12.8191,9.4749-12.8191,9.4749l21.6246,3.813 10.0342-56.9068-21.6246-3.813z"/>
</g>
</g>
<g transform="matrix(.27506 0 0 .27506 413.75172 163.79575)">
<path fill="#f7d917" fill-rule="evenodd" stroke="#000" stroke-width=".75" d="m27.4638,179.5327l.1499,31.5065c0,0 52.6481-17.9282 105.2963-17.9282 52.6481,0 105.2963,17.9282 105.2963,17.9282v-31.5065c0,0-52.6856-17.9282-105.3712-17.9282-52.6856,0-105.3712,17.9282-105.3712,17.9282z"/>
</g>
<g fill-rule="evenodd" stroke="#000">
<g fill="#fff">
<g stroke-width="1.5">
<g transform="matrix(.27506 0 0 .27506 413.75172 163.79575)">
<path d="m2.0203,723.0524a12.1218,12.1218 0 1,1 -24.2437,0 12.1218,12.1218 0 1,1 24.2437,0z" transform="matrix(.66123 0 0 .66123 21.24618 -360.3206)"/>
<path d="m2.0203,723.0524a12.1218,12.1218 0 1,1 -24.2437,0 12.1218,12.1218 0 1,1 24.2437,0z" transform="matrix(.66123 0 0 .66123 10.96519 -378.6019)"/>
<path d="m2.0203,723.0524a12.1218,12.1218 0 1,1 -24.2437,0 12.1218,12.1218 0 1,1 24.2437,0z" transform="matrix(.66123 0 0 .66123 8.82233 -400.0304)"/>
<path d="m2.0203,723.0524a12.1218,12.1218 0 1,1 -24.2437,0 12.1218,12.1218 0 1,1 24.2437,0z" transform="matrix(.66123 0 0 .66123 15.25091 -420.0304)"/>
<path d="m2.0203,723.0524a12.1218,12.1218 0 1,1 -24.2437,0 12.1218,12.1218 0 1,1 24.2437,0z" transform="matrix(.66123 0 0 .66123 28.82233 -436.459)"/>
<path d="m2.0203,723.0524a12.1218,12.1218 0 1,1 -24.2437,0 12.1218,12.1218 0 1,1 24.2437,0z" transform="matrix(.66123 0 0 .66123 47.39376 -447.8875)"/>
<path d="m2.0203,723.0524a12.1218,12.1218 0 1,1 -24.2437,0 12.1218,12.1218 0 1,1 24.2437,0z" transform="matrix(.66123 0 0 .66123 68.10805 -446.459)"/>
<path d="m2.0203,723.0524a12.1218,12.1218 0 1,1 -24.2437,0 12.1218,12.1218 0 1,1 24.2437,0z" transform="matrix(.66123 0 0 .66123 88.82233 -443.0304)"/>
<path d="m2.0203,723.0524a12.1218,12.1218 0 1,1 -24.2437,0 12.1218,12.1218 0 1,1 24.2437,0z" transform="matrix(.66123 0 0 .66123 109.5366 -440.8875)"/>
<path d="m2.0203,723.0524a12.1218,12.1218 0 1,1 -24.2437,0 12.1218,12.1218 0 1,1 24.2437,0z" transform="matrix(-.66123 0 0 .66123 242.3163 -360.3206)"/>
<path d="m2.0203,723.0524a12.1218,12.1218 0 1,1 -24.2437,0 12.1218,12.1218 0 1,1 24.2437,0z" transform="matrix(-.66123 0 0 .66123 252.5973 -378.6019)"/>
<path d="m2.0203,723.0524a12.1218,12.1218 0 1,1 -24.2437,0 12.1218,12.1218 0 1,1 24.2437,0z" transform="matrix(-.66123 0 0 .66123 254.7402 -400.0304)"/>
<path d="m2.0203,723.0524a12.1218,12.1218 0 1,1 -24.2437,0 12.1218,12.1218 0 1,1 24.2437,0z" transform="matrix(-.66123 0 0 .66123 248.3116 -420.0304)"/>
<path d="m2.0203,723.0524a12.1218,12.1218 0 1,1 -24.2437,0 12.1218,12.1218 0 1,1 24.2437,0z" transform="matrix(-.66123 0 0 .66123 234.7402 -436.459)"/>
<path d="m2.0203,723.0524a12.1218,12.1218 0 1,1 -24.2437,0 12.1218,12.1218 0 1,1 24.2437,0z" transform="matrix(-.66123 0 0 .66123 216.1687 -447.8875)"/>
<path d="m2.0203,723.0524a12.1218,12.1218 0 1,1 -24.2437,0 12.1218,12.1218 0 1,1 24.2437,0z" transform="matrix(-.66123 0 0 .66123 195.4544 -446.459)"/>
<path d="m2.0203,723.0524a12.1218,12.1218 0 1,1 -24.2437,0 12.1218,12.1218 0 1,1 24.2437,0z" transform="matrix(-.66123 0 0 .66123 174.7402 -443.0304)"/>
<path d="m2.0203,723.0524a12.1218,12.1218 0 1,1 -24.2437,0 12.1218,12.1218 0 1,1 24.2437,0z" transform="matrix(-.66123 0 0 .66123 154.0259 -440.8875)"/>
</g>
<g transform="matrix(.27506 0 0 .27506 414.03788 163.79575)">
<path d="m2.0203,723.0524a12.1218,12.1218 0 1,1 -24.2437,0 12.1218,12.1218 0 1,1 24.2437,0z" transform="matrix(.66123 0 0 .66123 138.4742 -378.3206)"/>
<path d="m2.0203,723.0524a12.1218,12.1218 0 1,1 -24.2437,0 12.1218,12.1218 0 1,1 24.2437,0z" transform="matrix(.66123 0 0 .66123 138.4742 -392.6019)"/>
<path d="m2.0203,723.0524a12.1218,12.1218 0 1,1 -24.2437,0 12.1218,12.1218 0 1,1 24.2437,0z" transform="matrix(.66123 0 0 .66123 138.4742 -404.0304)"/>
<path d="m2.0203,723.0524a12.1218,12.1218 0 1,1 -24.2437,0 12.1218,12.1218 0 1,1 24.2437,0z" transform="matrix(.66123 0 0 .66123 138.4742 -414.459)"/>
<path d="m2.0203,723.0524a12.1218,12.1218 0 1,1 -24.2437,0 12.1218,12.1218 0 1,1 24.2437,0z" transform="matrix(.66123 0 0 .66123 138.4742 -447.8875)"/>
<path d="m2.0203,723.0524a12.1218,12.1218 0 1,1 -24.2437,0 12.1218,12.1218 0 1,1 24.2437,0z" transform="matrix(.66123 0 0 .66123 138.4742 -446.459)"/>
<path d="m2.0203,723.0524a12.1218,12.1218 0 1,1 -24.2437,0 12.1218,12.1218 0 1,1 24.2437,0z" transform="matrix(.66123 0 0 .66123 138.4742 -439.0304)"/>
<path d="m2.0203,723.0524a12.1218,12.1218 0 1,1 -24.2437,0 12.1218,12.1218 0 1,1 24.2437,0z" transform="matrix(.66123 0 0 .66123 138.4742 -428.8875)"/>
</g>
</g>
<g transform="matrix(.27506 0 0 .27506 413.75172 163.79575)">
<path d="m143.5714,136.2908a10.3571,10.3571 0 1,1 -20.7143,0 10.3571,10.3571 0 1,1 20.7143,0z" transform="translate(-.45714 -2)"/>
<path d="m143.5714,136.2908a10.3571,10.3571 0 1,1 -20.7143,0 10.3571,10.3571 0 1,1 20.7143,0z" transform="translate(-108.7143 16.78571)"/>
<path d="m143.5714,136.2908a10.3571,10.3571 0 1,1 -20.7143,0 10.3571,10.3571 0 1,1 20.7143,0z" transform="translate(107.2857 16.78571)"/>
</g>
</g>
<g transform="matrix(.25333 0 0 .25333 412 157.18063)">
<path fill="#002b7f" stroke-width=".841" d="m134.791,210.096h34.761v15.153h-34.761z"/>
<path fill="#3e8225" stroke-width="1.5" d="m16.0428,233.1108a22.9947,8.5561 0 1,1 -45.9893,0 22.9947,8.5561 0 1,1 45.9893,0z" transform="matrix(-.67815 -.06883 .02383 .9577 195.4766 -.8303)"/>
<g fill="#c00" stroke-width="1.086">
<path d="m36.937,229.285l-8.7095,8.7095 10.1013,5.832 23.4929-6.2949-4.187-13.3034-20.6978,5.0569z"/>
<path d="m267.4062,229.285l8.7095,8.7095-10.1013,5.832-23.4929-6.2949 4.187-13.3034 20.6978,5.0569z"/>
</g>
<path fill="#3e8225" stroke-width="1.5" d="m16.0428,233.1108a22.9947,8.5561 0 1,1 -45.9893,0 22.9947,8.5561 0 1,1 45.9893,0z" transform="matrix(.67815 -.06883 -.02383 .9577 108.8665 -.8303)"/>
<g fill="#fff" stroke-width=".7">
<path d="m126.2032,214.7036a4.2781,4.2781 0 1,1 -8.5562,0 4.2781,4.2781 0 1,1 8.5562,0z" transform="translate(1.06952 -3.47594)"/>
<path d="m126.2032,214.7036a4.2781,4.2781 0 1,1 -8.5562,0 4.2781,4.2781 0 1,1 8.5562,0z" transform="translate(2.40642 10.16042)"/>
<path d="m126.2032,214.7036a4.2781,4.2781 0 1,1 -8.5562,0 4.2781,4.2781 0 1,1 8.5562,0z" transform="translate(-52.40642 6.14973)"/>
<path d="m126.2032,214.7036a4.2781,4.2781 0 1,1 -8.5562,0 4.2781,4.2781 0 1,1 8.5562,0z" transform="translate(-47.05882 18.98396)"/>
<path d="m126.2032,214.7036a4.2781,4.2781 0 1,1 -8.5562,0 4.2781,4.2781 0 1,1 8.5562,0z" transform="matrix(-1 0 0 1 303.0748 -3.47594)"/>
<path d="m126.2032,214.7036a4.2781,4.2781 0 1,1 -8.5562,0 4.2781,4.2781 0 1,1 8.5562,0z" transform="matrix(-1 0 0 1 301.7379 10.16041)"/>
<path d="m126.2032,214.7036a4.2781,4.2781 0 1,1 -8.5562,0 4.2781,4.2781 0 1,1 8.5562,0z" transform="matrix(-1 0 0 1 356.5507 6.14972)"/>
<path d="m126.2032,214.7036a4.2781,4.2781 0 1,1 -8.5562,0 4.2781,4.2781 0 1,1 8.5562,0z" transform="matrix(-1 0 0 1 351.2031 18.98395)"/>
</g>
</g>
</g>
<g transform="matrix(.25333 0 0 .25333 412 157.18063)">
<path fill="#fff" stroke="#000" stroke-width="1.714" d="m238.5378,280.6033c3.2674-.5675 22.9776-5.2528 27.1268-7.7602-2.6774-4.8285-7.4835-8.6056-3.7433-7.0179 2.014,.8549 3.6064-5.7989-2.2394-10.8848-16.9732,5.5666-57.6796,15.7385-108.8289,15.7385-52.3445,0-93.5617-10.7067-110.5349-16.2733-5.8458,5.0859-4.0252,10.8645-4.3785,13.0238-.0031,.0166 .0036,2.7242 1.0695,4.8789 5.7535,6.2506 24.3941,9.3317 27.6616,9.8992 15.3524,2.6662 30.7054,6.6978 86.1484,6.6978 51.2888,0 72.3663-5.6359 87.7187-8.3021z"/>
</g>
<g transform="matrix(.27506 0 0 .27506 391.39361 139.67253)">
<path fill="#fff" stroke="#000" stroke-width="1.578" d="m132.9062,289.6553c-3.0093,.5226-22.1473,7.3004-25.9688,9.6096 .0033,.0144-.0028,.0455 0,.0608 .3254,1.9887-3.3215,11.2509 2.0625,15.935 15.6323-5.1268 59.5255-20.4053 106.6338-20.4053 48.2092,0 88.1401,15.2785 103.7725,20.4053 5.384-4.6841 1.7371-13.9463 2.0625-15.935 .0028-.0153-.0034-.0464 0-.0608-3.8215-2.3092-22.9594-9.087-25.9688-9.6096-14.1395-2.4556-28.7721-11.5863-79.835-11.5863-47.2369,0-68.6193,9.1307-82.7588,11.5863z"/>
</g>
<g fill-rule="evenodd" stroke="#000">
<g transform="matrix(.3808 -.0394 .04303 .34872 367.56581 121.86073)">
<g stroke-width="1.6">
<path d="m115.508,301.56a1.8717,1.8717 0 1,1 -3.7433,0 1.8717,1.8717 0 1,1 3.7433,0z" transform="matrix(.4996 0 0 .4996 56.86367 150.9007)"/>
<path d="m115.508,301.56a1.8717,1.8717 0 1,1 -3.7433,0 1.8717,1.8717 0 1,1 3.7433,0z" transform="matrix(.4996 0 0 .4996 55.52674 153.307)"/>
<path d="m115.508,301.56a1.8717,1.8717 0 1,1 -3.7433,0 1.8717,1.8717 0 1,1 3.7433,0z" transform="matrix(.4996 0 0 .4996 57.3984 154.9114)"/>
</g>
<path d="m113.5181,303.6687l8.526-3.1661-4.1846,2.3925 2.6858-.0834-2.4924,1.1687 4.0012,.275-8.536-.5867z"/>
</g>
<g transform="matrix(.3808 -.0394 .04303 .34872 379.00706 118.58657)">
<g stroke-width="1.6">
<path d="m115.508,301.56a1.8717,1.8717 0 1,1 -3.7433,0 1.8717,1.8717 0 1,1 3.7433,0z" transform="matrix(.4996 0 0 .4996 56.86367 150.9007)"/>
<path d="m115.508,301.56a1.8717,1.8717 0 1,1 -3.7433,0 1.8717,1.8717 0 1,1 3.7433,0z" transform="matrix(.4996 0 0 .4996 55.52674 153.307)"/>
<path d="m115.508,301.56a1.8717,1.8717 0 1,1 -3.7433,0 1.8717,1.8717 0 1,1 3.7433,0z" transform="matrix(.4996 0 0 .4996 57.3984 154.9114)"/>
</g>
<path d="m113.5181,303.6687l8.526-3.1661-4.1846,2.3925 2.6858-.0834-2.4924,1.1687 4.0012,.275-8.536-.5867z"/>
</g>
<g transform="matrix(.37915 .05291 -.04171 .34888 418.94663 106.42855)">
<g stroke-width="1.6">
<path d="m115.508,301.56a1.8717,1.8717 0 1,1 -3.7433,0 1.8717,1.8717 0 1,1 3.7433,0z" transform="matrix(.4996 0 0 .4996 56.86367 150.9007)"/>
<path d="m115.508,301.56a1.8717,1.8717 0 1,1 -3.7433,0 1.8717,1.8717 0 1,1 3.7433,0z" transform="matrix(.4996 0 0 .4996 55.52674 153.307)"/>
<path d="m115.508,301.56a1.8717,1.8717 0 1,1 -3.7433,0 1.8717,1.8717 0 1,1 3.7433,0z" transform="matrix(.4996 0 0 .4996 57.3984 154.9114)"/>
</g>
<path d="m113.5181,303.6687l8.526-3.1661-4.1846,2.3925 2.6858-.0834-2.4924,1.1687 4.0012,.275-8.536-.5867z"/>
</g>
<g transform="matrix(.3808 .0394 .04303 -.34872 406.36634 321.06537)">
<g stroke-width="1.6">
<path d="m115.508,301.56a1.8717,1.8717 0 1,1 -3.7433,0 1.8717,1.8717 0 1,1 3.7433,0z" transform="matrix(.4996 0 0 .4996 56.86367 150.9007)"/>
<path d="m115.508,301.56a1.8717,1.8717 0 1,1 -3.7433,0 1.8717,1.8717 0 1,1 3.7433,0z" transform="matrix(.4996 0 0 .4996 55.52674 153.307)"/>
<path d="m115.508,301.56a1.8717,1.8717 0 1,1 -3.7433,0 1.8717,1.8717 0 1,1 3.7433,0z" transform="matrix(.4996 0 0 .4996 57.3984 154.9114)"/>
</g>
<path d="m113.5181,303.6687l8.526-3.1661-4.1846,2.3925 2.6858-.0834-2.4924,1.1687 4.0012,.275-8.536-.5867z"/>
</g>
<g transform="matrix(.3808 .0394 .04303 -.34872 417.91312 324.08078)">
<g stroke-width="1.6">
<path d="m115.508,301.56a1.8717,1.8717 0 1,1 -3.7433,0 1.8717,1.8717 0 1,1 3.7433,0z" transform="matrix(.4996 0 0 .4996 56.86367 150.9007)"/>
<path d="m115.508,301.56a1.8717,1.8717 0 1,1 -3.7433,0 1.8717,1.8717 0 1,1 3.7433,0z" transform="matrix(.4996 0 0 .4996 55.52674 153.307)"/>
<path d="m115.508,301.56a1.8717,1.8717 0 1,1 -3.7433,0 1.8717,1.8717 0 1,1 3.7433,0z" transform="matrix(.4996 0 0 .4996 57.3984 154.9114)"/>
</g>
<path d="m113.5181,303.6687l8.526-3.1661-4.1846,2.3925 2.6858-.0834-2.4924,1.1687 4.0012,.275-8.536-.5867z"/>
</g>
</g>
</svg>
