<svg width="1200" xmlns="http://www.w3.org/2000/svg" height="600" viewBox="0 0 6400 3200">
<path fill="#f00" d="m0,0h6400v3200h-6400z"/>
<path fill="#fff" d="m1600,0h3200v3200h-3200z"/>
<path fill="#f00" d="m3199.9526,290l-209.5911,408.71c-23.7825,44.42-66.3937,40.3-109.0049,15.49l-151.7383-82.15 113.0929,627.77c23.7826,114.69-52.5225,114.69-90.1795,65.1l-264.8128-309.95-42.9919,157.4c-4.9577,20.67-26.756,42.38-59.4585,37.21l-334.8588-73.61 87.9528,334.32c18.8284,74.39 33.5149,105.19-19.008,124.81l-119.3545,58.65 576.4379,489.54c22.8157,18.51 34.3432,51.82 26.2206,81.98l-50.4506,173.1c198.4761-23.92 376.4188-45.33 574.8904-69.22 17.6353-.23 46.8779,15.44 46.7575,36.68l-26.2977,634.17h96.5l-15.1902-632.81c-.1205-21.24 26.3984-38.27 44.0337-38.04 198.4716,23.89 376.4145,45.3 574.8906,69.22l-50.4505-173.1c-8.1226-30.16 3.4048-63.47 26.2205-81.98l576.4378-489.54-119.3544-58.65c-52.523-19.62-37.8364-50.42-19.0081-124.81l87.953-334.32-334.859,73.61c-32.7025,5.17-54.5008-16.54-59.4586-37.21l-42.9919-157.4-264.8127,309.95c-37.6571,49.59-113.9622,49.59-90.1796-65.1l113.0927-627.77-151.738,82.15c-42.6123,24.81-85.2224,28.93-109.005-15.49"/>
</svg>
