<svg xmlns="http://www.w3.org/2000/svg" viewBox="0 0 510 300" xmlns:xlink="http://www.w3.org/1999/xlink">
<path fill="#003893" d="m125,302.362h637.5v375h-637.5z" transform="matrix(.8 0 0 .8 -100 -241.8897)"/>
<path fill="#fff" d="m125,489.862h637.5v93.75h-637.5z" transform="matrix(.8 0 0 .8 -100 -241.8897)"/>
<path fill="#ce1126" d="m125,521.112h637.5v31.25h-637.5z" transform="matrix(.8 0 0 .8 -100 -241.8897)"/>
<g fill="#fcd116" fill-rule="evenodd">
<path d="m38.8927,309.8664l-4.2088,12.9534h-13.62l11.0188,8.0057-4.2088,12.9534 11.0188-8.0057 11.0188,8.0057-4.2088-12.9534 11.0188-8.0057h-13.62l-4.2088-12.9534z" transform="matrix(.8 0 0 .8 160.1358 -150.3934)"/>
<path d="m38.8927,309.8664l-4.2088,12.9534h-13.62l11.0188,8.0057-4.2088,12.9534 11.0188-8.0057 11.0188,8.0057-4.2088-12.9534 11.0188-8.0057h-13.62l-4.2088-12.9534z" transform="matrix(.8 0 0 .8 116.0558 -136.0734)"/>
<path d="m38.8927,309.8664l-4.2088,12.9534h-13.62l11.0188,8.0057-4.2088,12.9534 11.0188-8.0057 11.0188,8.0057-4.2088-12.9534 11.0188-8.0057h-13.62l-4.2088-12.9534z" transform="matrix(.8 0 0 .8 88.80584 -98.57338)"/>
<path d="m38.8927,309.8664l-4.2088,12.9534h-13.62l11.0188,8.0057-4.2088,12.9534 11.0188-8.0057 11.0188,8.0057-4.2088-12.9534 11.0188-8.0057h-13.62l-4.2088-12.9534z" transform="matrix(.8 0 0 .8 88.80584 -52.21338)"/>
<path d="m38.8927,309.8664l-4.2088,12.9534h-13.62l11.0188,8.0057-4.2088,12.9534 11.0188-8.0057 11.0188,8.0057-4.2088-12.9534 11.0188-8.0057h-13.62l-4.2088-12.9534z" transform="matrix(.8 0 0 .8 116.0558 -14.71338)"/>
<path d="m38.8927,309.8664l-4.2088,12.9534h-13.62l11.0188,8.0057-4.2088,12.9534 11.0188-8.0057 11.0188,8.0057-4.2088-12.9534 11.0188-8.0057h-13.62l-4.2088-12.9534z" transform="matrix(.8 0 0 .8 160.1358 -.39346)"/>
<path d="m38.8927,309.8664l-4.2088,12.9534h-13.62l11.0188,8.0057-4.2088,12.9534 11.0188-8.0057 11.0188,8.0057-4.2088-12.9534 11.0188-8.0057h-13.62l-4.2088-12.9534z" transform="matrix(.8 0 0 .8 204.2158 -14.71338)"/>
<path d="m38.8927,309.8664l-4.2088,12.9534h-13.62l11.0188,8.0057-4.2088,12.9534 11.0188-8.0057 11.0188,8.0057-4.2088-12.9534 11.0188-8.0057h-13.62l-4.2088-12.9534z" transform="matrix(.8 0 0 .8 231.4658 -98.57338)"/>
<path d="m38.8927,309.8664l-4.2088,12.9534h-13.62l11.0188,8.0057-4.2088,12.9534 11.0188-8.0057 11.0188,8.0057-4.2088-12.9534 11.0188-8.0057h-13.62l-4.2088-12.9534z" transform="matrix(.8 0 0 .8 231.4658 -52.21338)"/>
<path d="m38.8927,309.8664l-4.2088,12.9534h-13.62l11.0188,8.0057-4.2088,12.9534 11.0188-8.0057 11.0188,8.0057-4.2088-12.9534 11.0188-8.0057h-13.62l-4.2088-12.9534z" transform="matrix(.8 0 0 .8 204.2158 -136.0734)"/>
</g>
</svg>
