<svg xmlns="http://www.w3.org/2000/svg" viewBox="0 0 1000 500">
<g fill-rule="evenodd" transform="matrix(1.00794 0 0 1.00794 0 .00004)">
<path fill="#0021ad" stroke-width="1.25" d="M 0,0 H992.126 V496.063 H0 z"/>
<path fill="#1c8a42" d="m0-0l992.126,496.063-.568-495.6955-991.558-.3675z"/>
<path fill="#ffc639" d="m227.5001,97.2838a34.9219,34.9219 0 1,1 -69.8438,0 34.9219,34.9219 0 1,1 69.8438,0z" transform="matrix(2.56605 0 0 2.56605 2.88617 -1.87486)"/>
<path fill="#1c8a42" d="m441.342,207.775c6.13,8.418 15.415,22.512 22.889,18.836 5.825,.019 8.838,.432 9.628,4.306 13.752,2.344 36.866-3.459 51.238-22.183 0,0 1.215,.157 .792-6.962 .08-3.105 4.241-2.478 4.341-1.477 .582,1.542 .477,2.699 1.257,2.737 1.778-.595 4.196-4.562 6.223-7.08 .555-1.111 .253-2.286 .382-3.679 1.068-2.634 3.736-2.059 4.301-.683 .505,.888 .513,1.573 1.018,2.461 2.708,1.804 7.601,.12 7.983,.12 .48-2.206 1.9-1.999 1.9-1.999 1.804-.399 1.1-.238 2.281,.38-1.045,11.91 2.343,12.435 2.063,18.55 .121,6.815-2.063,8.753-2.063,11.363 .693,3.171 10.752,3.281 7.211,5.971-3.111,1.663 .017,4.775-4.671,5.98-13.613,6.914-16.223,12.844-16.223,12.844 0,0-3.42,6.462-3.8,6.462-2.286,4.311-5.176,1.955-6.779,4.059-.803,2.641-1.705,8.488-.1,11.529 .801,4.178-.1,6.457-1.104,10.638-.902,8.718-4.357,10.039-4.756,13.105-1.605,3.268 .337,18.623-1.182,18.623-10.141,.2-17.913-1.94-21.923-2.74 3.91-16.842 2.396-31.65 2.396-33.169-1.004-12.048-18.055-9.115-20.659-10.718-2.166-.46-3.526-2.222-4.288-2.983-2.408-.253-3.31-.808-5.718-1.059-1.204,.6-.478,1.224-3.161,2.048-6.796,.82-9.803-5.925-9.803-5.925 .332-2.274-15.283,.463-23.772-1.507-3.481,1.94-5,7.677-7.854,8.361-.081,1.778-4.686-1.461-5.615-3.211-.199-5.091 4.437-7.347 4.437-7.347 3.675-2.584 5.861-3.009 7.632-4.792 .888-4.434 .439-7.712 2.329-11.045 1.599-2.543 3.957-1.35 5.556-2.492 1.724-1.139 2.448-8.596 .865-10.64 0,0-6.882-6.209-7.261-6.588-2.241-6.423 2.616-10.559 4.01-10.094z"/>
<path fill="#ffc639" d="m871.019,96.7873c-4.061-16.0663-40.4-50.6691-67.709-72.6883-6.524-4.4418-10.773-1.7962-9.924,4.5367 3.403,5.6711 5.951,11.9065 9.356,17.5775 .945,3.7798 2.74,6.4254 3.685,10.2052 0,0 .282,6.5202 .853,7.0872 8.503,9.359 9.637,17.295 9.637,17.295 4.914,9.451 9.26,16.3487 17.862,24.0974 9.639,6.048 2.548,24.855 2.833,34.874 0,6.332-4.534,5.576-8.504,4.818-31.28-28.729-62.278-28.822-89.592-37.138-10.676-1.135-10.866,3.969-7.369,6.802 19.089,20.414 37.047,34.306 60.673,45.93 3.969,2.458 7.936,4.915 11.906,7.373 4.537,3.779 9.071,7.559 13.608,11.339 10.49,6.805 11.342,13.043 11.342,13.607 .281,12.759-6.523,22.681-8.508,26.651-3.582,13.531-10.771,15.877-10.771,15.877-58.403,39.409-89.025,49.614-183.717,37.423-1.417-.756-10.491,.756 0,4.537 24.101,8.032 83.299,20.91 140.571-6.212 13.751-9.641 22.951-6.478 32.912-12.249 16.354-10.086 39.718-22.647 43.97-24.064 12.758-6.805 48.479-14.46 56.702-21.265 9.45-.757 19.24-1.996 19.902-10.123 3.108-2.004 7.641-.542 11.016-7.157 7.483-1.303 6.223-3.985 6.223-3.985-1.889-5.29-8.884-7.465-13.89-11.338-7.373-2.459-12.474-3.214-17.863-.569-1.701,.758-3.402,1.513-5.103,2.269 0,0-7.938-1.133-7.938-1.7-17.641-.968-15.924-59.428-22.163-83.8107z"/>
<path fill="#1c8a42" d="m354.375,73.8856a2.0703,1.3672 0 1,1 -4.1406,0 2.0703,1.3672 0 1,1 4.1406,0z" transform="matrix(2.00722 .63038 -.67406 1.87714 250.8724 -169.601)"/>
<g fill="#fff" stroke-width="1.25">
<path d="m73.8263,356.021-13.8025-12.921-13.9674,12.743 1.4962-18.847-18.671-2.976 15.6683-10.581-9.315-16.453 18.0418,5.653 7.0555-17.541 6.8295,17.63 18.113-5.42-9.5256,16.331 15.531,10.782-18.7077,2.735 1.2539,18.865z" transform="matrix(.91657 0 0 .91657 119.0079 -136.8826)"/>
<path d="m159.76,320.135-12.931-8.857-12.589,9.335 4.428-15.034-12.769-9.089 15.667-.434 4.698-14.953 5.255,14.766 15.672-.152-12.419,9.56 4.988,14.858z" transform="matrix(1.05522 0 0 1.02765 62.97 3.91022)"/>
<path d="m73.8263,356.021-13.8025-12.921-13.9674,12.743 1.4962-18.847-18.671-2.976 15.6683-10.581-9.315-16.453 18.0418,5.653 7.0555-17.541 6.8295,17.63 18.113-5.42-9.5256,16.331 15.531,10.782-18.7077,2.735 1.2539,18.865z" transform="matrix(.91657 0 0 .91657 226.5818 -52.52496)"/>
<path d="m73.8263,356.021-13.8025-12.921-13.9674,12.743 1.4962-18.847-18.671-2.976 15.6683-10.581-9.315-16.453 18.0418,5.653 7.0555-17.541 6.8295,17.63 18.113-5.42-9.5256,16.331 15.531,10.782-18.7077,2.735 1.2539,18.865z" transform="matrix(.91657 0 0 .91657 7.8246 -14.63)"/>
<path d="m73.8263,356.021-13.8025-12.921-13.9674,12.743 1.4962-18.847-18.671-2.976 15.6683-10.581-9.315-16.453 18.0418,5.653 7.0555-17.541 6.8295,17.63 18.113-5.42-9.5256,16.331 15.531,10.782-18.7077,2.735 1.2539,18.865z" transform="matrix(.91657 0 0 .91657 121.5094 130.0597)"/>
</g>
</g>
</svg>
