<svg width="1200" xmlns="http://www.w3.org/2000/svg" height="800" viewBox="0 0 3600 2400">
<path fill="#e32118" d="m0,0h3600v2400h-3600z"/>
<path fill="#fff" d="m0,0h3600v1600h-3600z"/>
<path fill="#3e9a00" d="m0,0h3600v800h-3600z"/>
<path fill="#0073ce" d="m0,0 0,2400 900-1200z"/>
<g stroke="#000">
<g fill="#fff">
<g stroke-width="3.5">
<path d="m2026.57,1352.13 25.66,36.28 .19-.08 22.29-33.95-15.99-29.05z"/>
<path d="m1867.95,1457.33l1.7114,36.1063c0,0 10.1811-.0449 18.8764-3.1039 8.6965-3.0591 15.9059-9.1335 15.9059-9.1335l-1.1551-19.1386-35.3386-4.7303z"/>
<path d="m1733.73,1457.32l-1.7398,34.9795c0,0-9.2468-.3614-17.5264-2.4343-8.2795-2.0728-15.8398-6.6-15.8398-6.6l-9.652-24.1701 44.7579-1.7752z"/>
</g>
<path stroke-width="4.8" d="m1608,958.766h382.668c0,0 0,275.256 0,401.333 0,134.63-175.359,31.0937-190.68,102.667-26.2713-73.4303-190.677,33.4937-190.677-110.786 0-140.044-1.311-393.214-1.311-393.214z"/>
</g>
<g stroke-width="3.5">
<path fill="#fff" d="m1572.59,1352.12-25.67,36.28-27.89-46.12 20.79-22.61z"/>
<g fill="#ffd700">
<path d="m1786.7,902.604-22.2,1.002-10.39,19.649-11.97-18.727-22.21,.826 10.23-19.73-11.82-18.822 22.2-1.004 10.39-19.648 11.98,18.726 22.21-.825-10.24,19.731z"/>
<path d="m1692.69,909.875-21.56,5.387-6.29,21.319-15.44-15.98-21.61,5.214 6.12-21.368-15.32-16.103 21.56-5.387 6.29-21.319 15.44,15.98 21.61-5.214-6.12,21.368z"/>
<path d="m1602.17,928.571-19.86,9.977-1.47,22.176-18.57-12.213-19.94,9.817 1.29-22.19-18.47-12.36 19.86-9.976 1.47-22.177 18.57,12.214 19.94-9.818-1.29,22.19z"/>
<path d="m1815.53,902.604 22.21,1.002 10.39,19.649 11.97-18.727 22.21,.826-10.23-19.73 11.82-18.822-22.21-1.004-10.39-19.648-11.97,18.726-22.21-.825 10.23,19.731z"/>
<path d="m1909.54,909.875 21.57,5.387 6.28,21.319 15.45-15.98 21.61,5.214-6.12-21.368 15.32-16.103-21.56-5.387-6.29-21.319-15.45,15.98-21.6-5.214 6.11,21.368z"/>
<path d="m2000.07,928.571 19.86,9.977 1.47,22.176 18.57-12.213 19.94,9.817-1.29-22.19 18.47-12.36-19.86-9.976-1.47-22.177-18.57,12.214-19.94-9.818 1.29,22.19z"/>
</g>
<g fill="#fff">
<path d="m1697.55,1480.54c0,0 0,48.5079 0,48.5079 0,33.9496 206.159,33.9354 206.159,0 0,0 0-48.5079 0-48.5079 0,25.2012-206.159,20.9315-206.159,0z"/>
<path d="m1514.24,1417.97c17.3291,91.9961 183.4,93.7996 183.4,93.7996 0,0-.0933-31.1067-.0933-31.1067-3.3555-11.5996 3.3898-15.7075 30.4287-19.4858 10.9736-1.5331 5.5972-17.5417 5.5972-17.5417 0,0-71.8819,13.735-122.954-6.835-68.3669-27.5327-78.6461-81.8315-78.6461-81.8315 0,0-4.702,41.6197-17.7331,63.0012z"/>
<path d="m2087.02,1417.97c-17.3268,91.9961-183.4,93.7996-183.4,93.7996 0,0 .0933-31.1067 .0933-31.1067 3.3567-11.5996-3.3886-15.7075-30.4276-19.4858-10.9736-1.5331-5.5984-17.5417-5.5984-17.5417 0,0 71.8819,13.735 122.955-6.835 68.3669-27.5327 76.5-81.5846 76.5-81.5846 0,0 6.848,41.3728 19.878,62.7543z"/>
<path d="m1526.84,1382.73c-46.2-25.0264-9.7996-50.9846-6.0673-125.067 7.7008,44.9161 57.8681,64.5744 51.8008,93.7996-20.7661,.7583-30.5669-31.3831-40.6004,3.4996 0,0-5.1331,27.7677-5.1331,27.7677z"/>
<path d="m2073.56,1382.49c46.2-25.0252 8.563-50.7366 4.8284-124.819-7.6996,44.9161-57.8657,64.5744-51.7996,93.7996 20.7661,.7583 30.5657-31.3831 40.5992,3.4996 0,0 6.372,27.5197 6.372,27.5197z"/>
</g>
</g>
</g>
<path d="m1761.07,1540.74v-32.0764h10.389c3.9354,0 6.5043,.1642 7.6996,.4854 1.8366,.4783 3.3827,1.5236 4.6228,3.1358 1.239,1.6134 1.8602,3.698 1.8602,6.2445 0,1.9713-.3591,3.6295-1.076,4.9665-.7169,1.3429-1.6205,2.3965-2.726,3.1653-1.0984,.7618-2.2181,1.2697-3.3531,1.5177-1.5449,.3059-3.7854,.4618-6.7216,.4618h-4.2189v12.0992h-6.476zm6.476-26.6469v9.0968h3.5398c2.5535,0 4.265-.1654 5.1224-.502 .8598-.3354 1.5307-.8575 2.0244-1.5744 .4854-.7181 .7323-1.5472 .7323-2.4945 0-1.1657-.3437-2.1283-1.0311-2.8902-.6803-.7547-1.5531-1.2331-2.5984-1.4197-.776-.1488-2.3303-.2161-4.6595-.2161h-3.1299zm49.0134,26.6469h-7.05l-2.8016-7.2886h-12.822l-2.6433,7.2886h-6.8717l12.4949-32.0764h6.848l12.8457,32.0764zm-11.9268-12.6886l-4.4209-11.9043-4.3323,11.9043h8.7532zm12.5764,12.6886v-5.8405l16.8484-20.8063h-14.9445v-5.4295h23.4791v5.0339l-17.5724,21.6343h18.2528v5.4083h-26.0634z"/>
<g stroke="#000">
<g fill="#73452b">
<path d="m1826.95,1398.69c0,0-4.8284,5.3693-14.0681,1.4102-9.2398-3.9602-10.0358-257.145-10.0358-257.145 19.8803-21.6957 36.2976-29.4508 36.2976-29.4508 0,0 12.1122,10.1728 12.1122,10.1728-45.7736,23.0339-41.2299,56.3823-37.4811,112.919 1.4043,21.1854 .9744,48.6697 6.3614,74.4579 6.9295,33.1748 20.9043,60.8882 21.828,81.763 .6106,13.6642-15.0142,5.8724-15.0142,5.8724z"/>
<path d="m1796.1,1108.43c0,0 17.6161,0 17.6161,0-14.6976,144.54-1.9394,230.986-2.0823,272.1-.0508,14.302 8.0433,19.3441 7.4728,19.9736-18.1465,19.9902-27.0898-1.4563-27.0898-1.4563l4.0831-290.617z"/>
</g>
<path fill="#a36629" d="m1768.33,1399.19c-17.4165,8.25-18.8539-8.6303-18.0413-10.2921 36.7193-75.052 52.9169-239.77 18.6661-257.583 0,0 2.0669-16.1339 2.0669-16.1339 12.5846,3.9165 24.5445,21.1346 24.5445,21.1346 4.9996,184.332 .0756,260.784-2.2772,263.333-17.922,19.4126-25.7504-2.1673-26.0008-4.3335m1.0417,3.8752l0,0z"/>
<g fill="none">
<path d="m1767.31,1395.46c-3.6331-15.5598 25.9323-56.2276 24.0992-99.1854"/>
<path d="m1815.7,1330.57c9.0413,25.4043 12.8917,47.3965 11.4343,68.0161"/>
</g>
<path fill="#009a3b" d="m1854.55,1039.95c6.5339-6.9425 5.9504-6.6496 17.5004-7.4669 1.4587-14.7 27.3508-14.4319 28.5756,4.1173 19.8331-4.1409 23.9752,8.4 16.5673,20.2996 18.4913-4.6653 35.648-.2669 30.9236,22.2496 34.0665,8.6917 21.2917,32.4331 5.5996,38.2665-1.4575,14.1165-15.9248,19.9512-35.2335,13.5331-23.8583,17.2677-37.6252,10.9665-48.9992-6.0661-26.426,4.5496-28.35-1.6323-40.8343-16.8-20.2996,9.1004-25.0831,8.9256-42.6992-1.8673-1.05,13.4752-5.8347,9.3343-14.7,8.6339 .7004,18.3165-6.1252,26.3091-22.1669,20.3008 12.1913,24.3248-18.8421,35.7579-34.5343,14.465-14.0575,1.6925-14.6409-2.7992-21.6992-7.6996-5.5417,19.95-27.6508,16.5673-32.2004,5.8335-27.6496-4.2579-24.4417-18.6661-1.8661-19.8331 2.6244-16.2165 16.1587-12.7748 25.4339-11.4331 .4075-9.2173 6.7075-7.4079 11.6657-5.3657-2.974-7.2921-1.2248-10.852 8.1673-13.5343-12.9496-16.2165-5.0752-22.7492 8.1661-28.4669-7.4669-15.9248 4.3748-15.1087 14.0008-16.3335-1.1669-16.7409 3.2669-20.1827 21.6992-21.4665-2.3327-6.7087 1.1079-10.9665 10.9665-11.1992-6.0083-17.5594 2.0409-21.1169 20.5335-18.4346 2.0421-24.3827 55.8839-12.7157 51.5669,21.7016 14.6409,1.7492 20.3587,4.7244 23.5665,16.5661z"/>
<g fill="none">
<path d="m1747.99,1031.3c4.0665,1.7764 9.1453-.6614 10.3205,10.4091 8.1508-13.9701 18.0461-5.6433 17.6362,9.9744"/>
<path d="m1830.98,1023.27c-4.3465,5.5405-18.5209,6.0378-17.3835,22.1669-5.1047-7.3795-14.1756-9.7134-18.9-2.2169"/>
<path d="m1854.67,1039.83c.4677,4.2-.9331,16.4209-5.1319,22.05"/>
<path d="m1917.19,1056.98c.4063,.6165-14.3988-.287-21.1075,5.1366"/>
<path d="m1953.6,1117.42c-3.8787-2.4496-11.6657-7.5827-17.3823,.4665 .2327-4.0831 .1453-14.6421-11.3173-15.1665"/>
<path d="m1918.48,1130.95c.8161-10.1209-1.7492-13.4457-3.2669-15.7488"/>
<path d="m1886.17,1116.48c-8.6043-5.1047-15.8965,3.1205-16.6831,8.5169"/>
<path d="m1828.42,1107.97c-.2043-3.8492-3.763-12.2492 3.3827-15.3992"/>
<path d="m1714.43,1149.73c1.7905-9.3106 8.3209-9.2776 7.7634-14.9031-.8138-8.1791-10.2969-15.1512-21.5303-4.2295"/>
<path d="m1722.19,1134.8c5.5996-1.6772 11.4909-1.0051 14.2335,2.6256"/>
<path d="m1704.6,1097.46c4.4268-3.6378 13.9713-2.8618 20.1839,.4051"/>
<path d="m1724.47,1074.25c5.9799-.5539 14.4366-2.1 17.85,7.1173 10.8791-17.7331 19.1327-14.9043 21-10.8496"/>
<path d="m1782.57,1068.18c8.5465-2.7709 22.0205,5.2205 30.45,18.5504 3.763-10.7055 9.45-9.2173 15.6331-9.3343"/>
<path d="m1867.03,1087.08c12.8043-6.124 21.4087,5.7165 25.0831,10.5 5.6598-7.4669 11.113-7.2921 17.1508-7.2331"/>
<path d="m1745.67,1110.54c3.7535-4.0417 10.0642-5.4449 15.0142-2.3114-.6602-9.5681 5.6917-13.2803 9.5693-11.5488"/>
</g>
</g>
<path d="m1555.15,1416.98l4.5945,4.1173-11.0433,12.3236c-1.7516,1.9559-2.8311,3.2752-3.2362,3.9567-.6378,1.1079-.8398,2.2748-.6047,3.5008 .2339,1.2272 .9933,2.4153 2.276,3.5657 1.3039,1.1669 2.5252,1.7823 3.6661,1.8437 1.1398,.0591 2.1236-.2374 2.9539-.8941 .8303-.6555 2.0516-1.8827 3.665-3.6839l11.2795-12.5882 4.5945,4.1173-10.7102,11.9516c-2.4472,2.7319-4.3004,4.5508-5.5594,5.4555-1.2591,.9059-2.5701,1.4469-3.9331,1.6252-1.363,.1783-2.8087-.0024-4.3394-.5433-1.5295-.5409-3.1949-1.6181-4.9949-3.2315-2.1732-1.9476-3.5976-3.6756-4.2697-5.1827-.6732-1.5083-.9756-2.9551-.9094-4.3405 .0673-1.3866 .3898-2.6114 .972-3.678 .8669-1.572 2.4425-3.6319 4.7232-6.1772l10.8756-12.1382zm3.0284,43.0382l16.3795-25.7894 5.0669,3.2173-.3827,23.9268 10.9382-17.2228 4.8378,3.0732-16.3795,25.7906-5.2252-3.3189 .2835-23.4224-10.6807,16.8189-4.8378-3.0732zm26.2713,15.6508l13.363-27.476 5.5465,2.6976-13.3618,27.476-5.5476-2.6976zm21.0295-23.3551l10.6181,3.7937c2.3941,.8563 4.1539,1.6913 5.2784,2.5075 1.5106,1.0996 2.6398,2.5004 3.3909,4.1988 .75,1.6996 1.1114,3.5799 1.0819,5.6433-.0283,2.0622-.5256,4.4409-1.4882,7.1362-.8457,2.3681-1.8697,4.3039-3.072,5.8075-1.4669,1.8354-3.0992,3.163-4.8969,3.9815-1.3583,.6213-2.9917,.9012-4.9028,.8374-1.4268-.052-3.2138-.4618-5.3587-1.2295l-10.9311-3.9059 10.2803-28.7705zm4.0713,6.9425l-6.8102,19.0571 4.337,1.5496c1.6228,.5799 2.8252,.9059 3.6106,.9815 1.0264,.1004 1.9512-.0201 2.7732-.3602 .8232-.3402 1.6606-1.0854 2.5134-2.2335 .8528-1.148 1.6772-2.8347 2.4721-5.0598 .7949-2.2228 1.2083-4.0004 1.2413-5.3315 .0331-1.3299-.1854-2.4567-.652-3.3756-.4689-.9201-1.2035-1.6925-2.2051-2.3161-.7465-.4724-2.3031-1.1327-4.6713-1.9784l-2.6091-.9331zm41.9492,36.998l-6.5882-1.2791-1.2957-7.3217-11.9882-2.3268-3.7984,6.3319-6.4252-1.2472 17.5063-27.724 6.4028,1.2425 6.1866,32.3244zm-8.8465-14.0303l-1.9724-11.9315-6.2114,10.3429 8.1839,1.5886zm13.5543-16.3122l11.263,.5114c2.5405,.1157 4.4669,.398 5.7815,.8468 1.7669,.6094 3.2575,1.6157 4.4728,3.0201 1.2165,1.4043 2.113,3.098 2.6917,5.0776 .5764,1.9807 .7996,4.3996 .6709,7.2591-.1146,2.5122-.5256,4.663-1.2331,6.4535-.8634,2.1862-2.035,3.9331-3.5126,5.2429-1.1161,.9921-2.5961,1.7398-4.4409,2.2394-1.3795,.3685-3.2079,.5008-5.485,.398l-11.5961-.5268 1.3878-30.522zm5.9268,5.4437l-.9177,20.2146 4.6016,.2102c1.7209,.078 2.9669,.0366 3.7394-.1228 1.011-.2043 1.8591-.5894 2.5453-1.1563 .6874-.5669 1.2685-1.5248 1.7468-2.8736 .4783-1.3476 .7724-3.202 .8787-5.5618 .1075-2.3587-.0177-4.1787-.378-5.4614-.3591-1.2827-.8965-2.2937-1.6146-3.0354-.7157-.7429-1.6453-1.2638-2.7862-1.5673-.8516-.2327-2.5335-.4063-5.0457-.5197l-2.7697-.1264z"/>
<path d="m1918.45,1472.52l5.9185-.7098 2.2323,18.6154c.2917,2.4331 .3024,4.3311 .0319,5.6929-.3697,1.7811-1.2484,3.2799-2.635,4.4976-1.3866,1.2177-3.3165,1.9736-5.7909,2.2713-2.902,.3484-5.2323-.1961-6.9921-1.6323-1.7587-1.4386-2.8335-3.7276-3.2244-6.8681l5.5193-1.3134c.2681,1.6772 .6591,2.837 1.1705,3.4807 .7677,.9803 1.8083,1.3913 3.1181,1.2342 1.3252-.1594 2.2146-.6484 2.6728-1.4693 .4571-.822 .5433-2.4236 .2587-4.8035l-2.2795-18.9957zm9.7429-1.1421l5.8547-1.213 3.2528,15.7087c.5161,2.4921 .9236,4.0937 1.2201,4.8024 .4972,1.135 1.2921,1.963 2.3823,2.4874 1.0925,.5232 2.4567,.6154 4.0913,.2776 1.6618-.3449 2.8453-.9437 3.548-1.7965 .7039-.8539 1.0382-1.7941 1.0051-2.8193-.0319-1.024-.287-2.6835-.763-4.9784l-3.3201-16.0441 5.8547-1.213 3.1547,15.2327c.7193,3.4819 1.0713,5.974 1.0524,7.4776-.0189,1.5035-.3508,2.837-.9968,4.0028-.6461,1.1657-1.6205,2.1898-2.9232,3.0709-1.3028,.8823-3.1028,1.5602-5.3976,2.035-2.7685,.574-4.9358,.6898-6.4984,.3461-1.5638-.3437-2.8665-.9402-3.9095-1.7905-1.0429-.8504-1.8118-1.8083-2.3079-2.8748-.7264-1.5827-1.4256-3.9968-2.0965-7.2402l-3.2032-15.4713zm30.9248,13.8709l5.3799-2.2866c.9213,1.7575 2.0291,2.9126 3.326,3.4653 1.2957,.5516 2.811,.5551 4.5449,.0083 1.8378-.5776 3.0992-1.402 3.7866-2.4721 .6874-1.0713 .8657-2.126 .5386-3.1677-.2102-.6673-.5858-1.174-1.1244-1.5201-.5398-.3449-1.3524-.5374-2.4378-.5776-.7406-.0213-2.3917,.0472-4.9559,.2043-3.2953,.2043-5.7331-.052-7.3157-.7689-2.2228-1.0075-3.6874-2.6303-4.3902-4.865-.4535-1.4386-.4689-2.9126-.0472-4.422 .4217-1.5106 1.2968-2.8335 2.6256-3.9721 1.3287-1.1386 3.0791-2.0504 5.25-2.7342 3.5457-1.115 6.4595-1.1776 8.7413-.1878 2.2807,.9909 3.8752,2.7685 4.7823,5.3362l-5.6256,2.0468c-.7004-1.376-1.5531-2.2547-2.5559-2.6374-1.0028-.3839-2.3079-.3224-3.913,.1831-1.6583,.522-2.8488,1.2697-3.5717,2.2465-.4665,.6272-.5846,1.3063-.3543,2.0386 .2114,.6673 .6732,1.1504 1.3878,1.448 .9094,.378 2.8547,.4571 5.8358,.2386 2.9823-.2185 5.2476-.1866 6.7984,.0957 1.5496,.2811 2.8913,.9106 4.0252,1.8874 1.1339,.978 1.9819,2.3598 2.5441,4.1457 .5091,1.6181 .5362,3.2764 .0827,4.9724-.4547,1.6961-1.3961,3.1476-2.8252,4.3512-1.4268,1.2059-3.3685,2.1945-5.8217,2.9669-3.5717,1.1244-6.574,1.1622-9.0083,.1134-2.4343-1.0476-4.3347-3.0933-5.7024-6.137zm36.7323-2.511l-9.6862-22.6193-8.0787,3.4595-1.9736-4.6063 21.6366-9.2658 1.9713,4.6063-8.0587,3.4512 9.6874,22.6205-5.498,2.3539zm16.7717-7.6713l-13.5898-26.315 5.3126-2.7437 13.5909,26.315-5.3138,2.7437zm20.7165-24.5244l5.889-1.5201c.9626,3.2114 .9839,6.0307 .0638,8.4579-.9189,2.4272-2.7248,4.4847-5.4189,6.1713-3.3331,2.087-6.7854,2.6646-10.3583,1.7315-3.5717-.9331-6.5941-3.3744-9.0685-7.324-2.6173-4.1776-3.5693-8.0976-2.8606-11.7602 .7098-3.6638 2.8228-6.5953 6.3378-8.7968 3.072-1.924 6.1335-2.5772 9.1878-1.963 1.8142,.3567 3.6354,1.363 5.4638,3.0142l-4.2661,4.3394c-1.1114-1.115-2.374-1.7551-3.7866-1.9181-1.415-.163-2.7945,.1772-4.1409,1.0205-1.8614,1.1657-2.9528,2.7779-3.2752,4.839-.3213,2.0622 .4535,4.5886 2.3268,7.578 1.9866,3.1736 3.9732,5.0764 5.9587,5.7083 1.9854,.6319 3.8906,.3756 5.7165-.7677 1.3476-.8433 2.237-1.9972 2.6716-3.4606 .4346-1.4646 .287-3.248-.4406-5.3492zm14.5654,2.9965l-17.7484-23.7106 4.787-3.5823 17.7484,23.7094-4.787,3.5835zm29.4236-24.5929l-4.872,4.3098-6.3957-3.3248-8.8665,7.8449 2.6268,6.6579-4.7516,4.2047-10.9854-29.8264 4.7362-4.1906 28.5083,14.3244zm-16.011-1.4799l-10.3394-5.5276 4.2862,10.8815 6.0532-5.3539z"/>
</svg>
