<svg xmlns="http://www.w3.org/2000/svg" viewBox="0 0 1000 500">
<g fill-rule="evenodd">
<path fill="#ea0437" stroke-width="1.25" d="m0,0h1000v500h-1000z"/>
<path fill="#ffc726" d="m230.2496,369.1616c-10.8102,2.9849-17.0078,11.3718-16.8491,19.2846l53.2107-.2136c.4781-8.5029-6.5171-16.3669-17.1665-19.4637 52.0977-1.0763 97.3569-20.5908 105.581-33.1122-8.1387-3.5322-17.549,2.1527-24.2573,.8444 15.9274-7.3614 63.6465-38.2477 55.8883-71.3599-6.0308,18.3914-24.3001,33.6087-32.0806,37.6943 17.8257-27.0672 42.1665-55.2474 21.0486-77.0692 1.0662,12.6475-8.0369,26.5667-12.0574,27.6125 10.3402-28.5993 20.2063-64.5071-2.1974-88.1785 2.9421,8.5558 1.7539,32.691-2.2972,33.7755-1.2472-19.4474-4.5658-60.3524-25.0468-59.7704 6.5048,5.7907 9.3513,21.596 9.4958,37.56-4.6675-10.9363-9.9719-19.1706-21.3172-27.2462-9.1784-17.6019-25.5086-32.1864-41.8409-42.6345 1.8332,12.8123 3.3511,22.9206 21.2399,36.209-9.3269-.5799-18.6518-18.2611-28.6196-18.7515-7.9291-.3825-14.1511,7.1844-27.1079,2.8302 1.4344,4.2769 7.4794,6.1711 8.7552,9.3351-2.7753,1.9167-9.3635-.2991-14.8409-3.1517 7.5344,10.2629 19.2093,16.2977 29.1202,14.261 11.7868-2.2666 24.4242-1.0682 36.4776,5.7907-3.0785,1.5809-15.0606,1.5708-22.7496,.6084 6.9891,7.0766 11.677,11.7665 23.83,11.6892 10.855-.0712 16.5459-5.7907 19.3334-2.2483 6.808,8.0675 11.3901,16.1308 17.0851,25.6287-12.5803,1.3897-8.7877-14.2284-22.7985-22.2165-7.8721,16.2936 9.0543,35.6087 20.5766,43.6375 .1546,12.2467 1.9452,22.4933 7.1396,31.8182 3.5017,6.574 8.0288,13.3027 6.3217,28.1395-6.8975-5.0236-13.6384-21.9663-11.1581-35.4154-8.6331,2.3541-12.0086,17.5348-7.9393,25.177 3.0398,5.8171 5.0684,16.9508 1.5626,21.9276-3.4162,4.637-3.7743,4.1182-3.7296,14.0697 .1221,5.9555-3.2046,12.9975-8.6229,17.9071 1.1313-4.1955 2.4213-11.4145 1.1679-15.9274-4.283,7.2658-15.0281,14.7839-18.4117,22.595-3.3226,7.8294-4.165,21.3905-20.245,24.5178-20.6865,4.106-27.8261,7.6911-41.1369,13.1379-1.4772-10.1103 2.9442-31.1935 11.3982-29.991 8.2546,1.469 33.2811-8.6229 24.3285-29.7062-1.7681,6.6452-7.6666,13.1297-14.0433,13.4166 6.8894-8.9383 19.1849-18.194 13.1969-33.1712-3.3287,6.3665-8.5639,14.0067-16.5032,18.3059 8.511-16.3099 .9889-21.189-9.1174-7.7562-3.817,5.1823-6.1223,15.5672-8.5477,28.756-3.9696-10.7268-3.7072-24.8474-8.4113-36.3127-4.9137-12.3993 6.5211-15.673 11.9028-14.6781 13.1765,3.518 35.1977,3.5159 33.5618-18.253-5.691,7.3635-15.671,9.6382-26.4486,6.987 12.1042-8.8386 21.6611-25.4639 8.1733-34.1438-.4497,9.2048-7.573,19.5247-17.0831,24.2777-2.2259-7.7663-2.2259-16.0088-.3174-25.0447-5.3105,5.5892-9.1886,17.2194-12.2731,30.4407-.232-13.0687 2.2402-22.4851 4.0734-29.5149 2.7794-10.269 9.6871-3.5871 20.2612-2.8302 10.1835,.5778 24.2044-5.05 21.5248-18.8593-3.4772,5.4631-10.6149,7.5893-17.9071,7.0115 8.7796-5.3186 24.0762-14.7697 15.6873-29.3074-3.524,5.5058-4.6655,10.2161-14.8653,11.9049 2.6715-6.1447 3.1151-14.8327 11.032-18.2754-14.1226-2.8119-22.2084,6.456-26.3185,20.9713-1.6664-10.0635-3.6502-13.7686-4.0449-21.13 7.6341-8.4785 8.4337-25.0651-8.0939-28.7743-.9807,8.5558-.6898,10.5945 1.1903,17.5612-7.7582-4.6085-18.6925-7.1519-25.9725-.6348 4.932,5.3227 12.5661,10.0085 24.3326,4.2036-2.7794,9.0929-10.0085,7.5364-19.9418,4.0693 6.0715,11.4043 13.734,13.4309 22.1901,12.1165 4.4274,11.6729 4.6228,20.542-8.3157,37.5417 .5982-10.564-.1526-18.4341-8.5456-26.9757-7.1926-7.044-13.0382,.3011-1.7987,15.962-6.8182-5.0216-14.5357-15.2132-16.8593-25.4028-2.2483,12.5885-.2238,27.4253 6.7449,35.743-3.2962,3.522-7.044-.3744-12.5885-8.9912 2.0978,27.5759 13.8622,32.8965 29.6736,26.7498 .4497,15.1359 .4497,29.1507 1.349,47.4342-9.2191-13.262-20.9062-23.1546-27.4273-25.6267-2.0225,7.4184 5.6218,17.0831 9.8926,22.479-6.5191-1.349-20.6824-12.1388-20.6824-12.1388-1.4243,12.2894 14.4645,23.6795 24.7294,28.7743-12.0636-.5249-17.3863-5.0948-25.179-12.5885 .1506,34.095 36.9415,28.1741 43.8369,22.9287 .8993,16.786 2.1812,36.1907 3.0805,52.9767-10.4012-1.8149-9.5833-4.9422-18.4829-5.7663-24.7009-.9624-44.2947-29.6512-50.7833-50.7548-1.8617,3.4732-.3846,7.1071-2.0876,11.3738-4.0103-10.3585-9.1336-23.7364-16.0047-29.9625 1.7498,6.0389 1.935,12.1755 1.3266,23.4618-2.3582-7.3126-4.5516-9.5548-4.7103-18.1391 .1506-6.5903 6.3583-11.4532 6.0145-20.7231-.2543-6.7673-6.4275-21.4352-7.335-32.7907-2.9889,11.6872-4.8649,24.0071-9.4429,31.2424 2.2748-12.4807 1.5455-21.0934 5.3939-29.4925 4.4458-8.8427 8.2262-16.7372 5.2657-25.6613-2.8384,3.4467-1.8617,6.5781-8.993,14.9528-1.549-9.1072 9.2209-23.6836 19.673-29.5434 7.3716-3.8842 16.6639-17.7769 10.6108-27.2991-6.9321,4.9788-10.0452,11.7054-19.838,23.1993 6.985-27.3053 25.1343-34.449 46.8625-34.5426 4.8079-.0224 14.5011-1.758 17.2214-8.1204-6.1243,2.3643-13.3657,2.6654-19.8095,1.3754 4.6899-6.8853 14.5662-5.9901 23.769-6.0308 7.219-.0346 18.489-1.0133 23.0447-11.2945-8.806,3.815-22.5401,4.6085-31.1874,1.9065 13.7523-7.1254 35.2934-7.8925 46.3416-17.2438-12.5926-9.3981-44.1035,2.1893-64.0066,15.8399 5.5628-5.0867 14.3546-14.1104 19.2052-21.3945-10.8855-5.2189-38.4145,25.2787-47.8981,43.3995-9.0075,5.0867-12.6109,13.0605-16.1085,18.6254 4.7998-16.2184 5.3085-27.9869 9.3127-41.3424-30.8769,10.6291-18.0426,67.6792-24.7589,81.3278 .7905-15.0688 .1504-34.4266-6.0535-44.4087-9.5105,7.2556-10.2779,49.9593-1.349,85.511-3.2243-9.5141-9.31-18.3955-11.2625-29.9748-14.0754,25.6714 8.2512,55.9575 26.9207,79.8811-14.0551-7.3207-27.9519-23.067-37.0802-36.268 2.5195,45.9469 50.5009,55.4936 57.9498,66.786-10.1103-4.7062-29.4388-14.0189-37.6406-4.2606 13.3519,3.0825 24.0022,6.6452 32.5844,12.2711 12.4522,15.5469 36.032,22.3468 77.0977,24.064z"/>
<path fill="#4189dd" d="m0,499.9999l1000-.3132-.0624-249.6868-999.9376,250z"/>
<path fill="#12ad2b" d="m0,.0003l999.9996,.3132-.0624,249.6867-999.9372-249.9999z"/>
</g>
</svg>
