<svg xmlns="http://www.w3.org/2000/svg" viewBox="0 0 600 400">
<path fill="#ce1126" d="m0,0h600v400h-600z"/>
<path fill="#fff" d="m0,100h600v200h-600z"/>
<g fill-rule="evenodd">
<g fill="#083d9c" stroke="#083d9c">
<path stroke-width="2.057" d="m279.875,275.4062c-6.1779,.3488-12.334,4.5177-15.2188,6.75 5.1802,2.2672 10.7104,4.037 16.5938,5.25 9.3748,1.574 18.7502,1.5625 28.125,1.5625 1.5304-.1927 3.0449-.4105 4.5312-.6562l19.75-6.6562c0,0-9.5008-6.2714-17.0312-6-7.5312,.2714-12.6148,7.6383-18.6875,7.0938-6.0727-.5436-8.5049-7.3438-17.25-7.3438-.2733,0-.539-.0154-.8125,0z"/>
<g stroke-width="1.932">
<path d="m244.0082,270.3076l112.2259,.4805c0,0-9.7159-10.3231-21.1336-10.5625-11.4168-.2418-8.2581,4.8012-17.0033,5.5203-8.7444,.7208-10.9322-5.2809-18.9481-5.0414-8.015,.2395-12.6315,5.0414-18.7034,5.2824-6.0727,.2395-13.8462-6.0032-18.4619-5.7614-4.6157,.2395-21.1336,7.2013-21.1336,7.2013l3.1579,2.8807z"/>
<path d="m229.6774,257.103l138.4597,.4813c2.1855-3.1209-6.802-10.5633-15.0601-11.2841-6.8036,.2395-11.6599,6.9619-17.2472,7.2029-5.5873,.2395-11.9022-6.9634-18.2188-6.7216-6.315,.2395-12.8738,6.7216-19.1904,6.7216-6.315,0-10.9306-6.9634-18.9465-6.9634-8.0159,0-11.6599,7.6826-17.7326,7.2029-6.0743-.4805-11.4176-7.6818-17.2472-7.6818-5.8296,0-15.5463,8.6421-17.4895,8.1616-1.9432-.4797 2.4278,3.6014 2.6725,2.8807z"/>
</g>
</g>
<g stroke="#630810">
<path fill="#ce1126" stroke-linejoin="round" stroke-width="1.932" d="m282.8735,181.0007l31.8227,8.4034v-44.8945c-14.5755,.7208-26.72-27.3677-.9716-29.2882-25.263-3.6015-28.1786,2.8807-31.0934,9.8426l.2423,55.9367z"/>
<g fill="#630810" stroke-linecap="round">
<path stroke-width="2.792" d="m262.7132,213.6509l71.9027,.2395"/>
<g stroke-width="1.806">
<g transform="matrix(1.55464 0 0 1.53646 -.11934 1.63912)">
<path d="m171.25,126.893l5.469,7.344"/>
<path d="m171.25,134.237l5.938-7.187"/>
<path d="m174.375,126.424l-.156,4.531"/>
</g>
<g transform="matrix(1.55464 0 0 1.53646 13.48379 1.63912)">
<path d="m171.25,126.893l5.469,7.344"/>
<path d="m171.25,134.237l5.938-7.187"/>
<path d="m174.375,126.424l-.156,4.531"/>
</g>
<g transform="matrix(1.55464 0 0 1.53646 27.32982 1.63912)">
<path d="m171.25,126.893l5.469,7.344"/>
<path d="m171.25,134.237l5.938-7.187"/>
<path d="m174.375,126.424l-.156,4.531"/>
</g>
<g transform="matrix(1.55464 0 0 1.53646 41.66169 1.63912)">
<path d="m171.25,126.893l5.469,7.344"/>
<path d="m171.25,134.237l5.938-7.187"/>
<path d="m174.375,126.424l-.156,4.531"/>
</g>
<g transform="matrix(1.55464 0 0 1.53646 55.50773 1.63912)">
<path d="m171.25,126.893l5.469,7.344"/>
<path d="m171.25,134.237l5.938-7.187"/>
<path d="m174.375,126.424l-.156,4.531"/>
</g>
</g>
</g>
</g>
<g fill="#ff9c10">
<path d="m214.3734,214.3708l30.6064,.2403v-18.9659l-34.9798-1.6794 4.3734,20.4051z"/>
<path d="m212.9148,188.2036l32.5512,3.1209-.2423-13.444-31.8219-12.4838-.487,22.8068z"/>
<path d="m219.4736,161.3156l25.0207,12.0033 3.5727-3.6863c0,0-2.301-1.5668-2.1871-3.0084 .0433-1.4582 2.3147-1.6794 2.358-3.2621 .0417-1.4582-2.573-1.6334-2.6011-3.0924-.1709-1.5811 2.0154-3.2764 2.0154-3.2764l-22.5906-19.4456-5.5881,23.7679z"/>
<path d="m383.6834,214.6111h-32.3073l-.2423-18.4854 35.4644-2.6412-2.9148,21.1266z"/>
<path d="m384.4688,187.9062c-.4079-3.001-.8357-5.9945-1.5312-8.9375-.9312-3.9401-2.1205-7.8167-3.5625-11.5938-.1064-.2788-.2658-.5348-.375-.8125l-27.625,11.5625 .25,13.6875 32.8438-3.9062z"/>
<path d="m365.5938,143.4688l-16.5312,12.5c-.0077,.0105-.0259,.0502-.0312,.0625-.0013,.0045 .001,.0266 0,.0312-.0008,.0049 .0005,.0262 0,.0312-.0003,.0052 0,.0258 0,.0312 .0002,.0056-.0004,.0255 0,.0312 .0013,.0119-.0021,.0499 0,.0625 .1423,.7169 1.6024,2.4803 1.8125,3.7812-.1107,1.9758-1.8051,2.8504-2.0938,3.7188-.0068,.0223-.0264,.0714-.0312,.0938-.0028,.0149 .0019,.0476 0,.0625-.0021,.0224 0,.0712 0,.0938 .0005,.0148-.0016,.048 0,.0625 .0021,.0143-.003,.0485 0,.0625 .0035,.0139 .0268,.0489 .0312,.0625 .0172,.0471 .035,.1121 .0625,.1562 .4541,.688 2.0625,1.088 2.0625,2.5312 0,1.5759-1.4696,2.5134-1.6562,2.625 1.9049,1.2571 2.2534,2.7881 2.6562,4.3438l24.75-12.875c-2.9522-6.2166-6.629-12.1026-11.0312-17.4688z"/>
<path d="m319.5558,191.4443l13.8454-.5994 .2423-5.5235-14.0877,6.1229z"/>
<path d="m277.2879,191.0232l-14.5747-.4195v-5.7622l14.5747,6.1816z"/>
<path d="m277.2277,189.3438l-14.5145-7.3829c0-3.2002 0-6.4021 0-9.6023 0,0-1.7009,.2395-1.4578-1.681 .0802-4.0011 10.6675,7.3028 16.0935,10.9836l-.1211,7.6826z"/>
<path d="m319.5542,188.443l-.0594-6.2411c0,0 13.1153-11.7028 15.9089-13.8642 0,2.401-1.5172,4.2604-1.5172,4.2604v9.1234l-14.3324,6.7216z"/>
<path d="m234.5353,135.8675c.2423,.2403 14.7175,16.1399 14.7175,16.1399 .406-1.5066 3.7436-1.7357 7.1437-1.4955 3.4018,.2395 6.1128-.2252 6.1128,2.1758 0,2.4002-1.7258,2.0592-1.7258,3.7402 0,1.681 2.5858,1.5399 2.5858,3.6982 0,2.1607-1.875,1.7198-1.8846,3.3929-.0056,1.3829 1.956,1.4566 1.956,1.4566l13.7852,13.2045 .0602-14.1053-28.4201-44.0524-14.3308,15.845z"/>
<path d="m257.2751,119.1868c.2158,.6407 19.2497,38.9056 19.2497,38.9056 0,0 .2158-35.9131 3.4604-37.8367l-5.4068-9.8338-17.3033,8.765z"/>
<path d="m319.4062,115.0625l-7.1875,24.8438c0,0 3.4699,.4321 6.2812,.2188 .703-.0535 1.1154,.0908 1.3438,.3125 .0474,.0498 .0942,.1299 .125,.1875 .0204,.0418 .0495,.1114 .0625,.1562 .0279,.109 .0377,.2557 .0312,.375-.0501,.6785-.5312,1.4375-.5312,1.4375l-.0312,16 20.3125-35.875c-4.1461-2.1173-8.5579-3.935-13.25-5.4062-2.4414-.9227-4.8107-1.6525-7.1562-2.25z"/>
<path d="m344.6875,125.4375l-25.125,38.625-.0312,14.875 16.5312-15.6875c.2019-.1915 .3518-.3602 .4375-.5 .0263-.0456 .0472-.1151 .0625-.1562 .0079-.0242 .0269-.071 .0312-.0938 .0021-.0149-.0006-.0481 0-.0625-.0002-.0141 .0016-.0489 0-.0625-.0023-.0134 .0036-.0496 0-.0625-.0043-.0127-.0257-.0502-.0312-.0625-.0154-.0303-.0401-.0654-.0625-.0938-.3992-.4714-1.7132-.7409-1.8438-2.1562 .0266-.2787 .0932-.5121 .1875-.6875 .358-.6303 1.0974-.7423 1.5625-1.3125 .2419-.3088 .4062-.7587 .4062-1.5 0-.5212-.0614-.8742-.1562-1.0938-.0113-.0244-.019-.0721-.0312-.0938-.0251-.0415-.0653-.0928-.0938-.125-.0048-.0051-.0263-.0263-.0312-.0312-.005-.0047-.0262-.0267-.0312-.0312-.2161-.1819-.5147-.2172-.7812-.4062-.0127-.0094-.0499-.021-.0625-.0312-.025-.0214-.0692-.0684-.0938-.0938-.0365-.0396-.0901-.1058-.125-.1562-.1615-.2448-.3116-.6421-.4062-1.25-.0493-.2422-.0638-.5018 0-.75 .0119-.0427 .0461-.114 .0625-.1562 .0139-.0337 .0455-.0917 .0625-.125 .0535-.0994 .1337-.2189 .2188-.3125 .022-.0233 .0696-.071 .0938-.0938 .581-.5277 1.7835-.9375 4.0312-.9375 4.0773,0 8.3626-.7822 9.0625,.875 .0704-.0708 9.0417-9.0428 12.8438-12.9688-4.8439-5.0457-10.425-9.5241-16.6875-13.2812z"/>
</g>
<g stroke-width="1.932">
<g fill="#ce1126" stroke="#630810" stroke-linejoin="round">
<path d="m289.9354,221.5817c-6.9215,11.3301-25.4251,7.9697-29.7519,.0603-1.2965-.3632-.5295-48.7997-.5295-48.7997 0,0-2.0675-.9309-2.163-2.42-.0947-1.5042 2.8113-1.6406 2.8113-3.5658 0-1.9236-2.9677-1.1696-3.0271-3.1059 .0128-1.8515 3.1683-1.5961 3.0271-3.3073-.1669-1.9284-3.5342-1.6429-3.677-3.4207-.1091-1.4122 2.4085-2.6436 3.1082-3.2787-.4525,.0222-2.3387-.0278-2.3508-.0341-1.7667,.0357-3.5342,.0714-5.3,.107-3.7652,.004 .065,.8112 .0096,2.9584-.0345,1.4027-1.9095,2.336-2.0772,3.5555-.0594,1.252 2.6829,2.1314 2.7174,3.634 .0313,1.3408-2.6941,1.432-2.5963,2.6777 .1693,2.1084 2.4141,2.5722 2.3804,3.8488-.0345,1.275-3.0207,1.7611-3.0287,2.7784 .1043,1.968 .4324,49.8075 .4324,49.8075 4.7585,24.3697 32.2279,30.5687 40.0151-1.4955z"/>
<path d="m308.0483,221.5817c6.9215,11.3301 25.4243,7.9697 29.7511,.0603 1.2965-.3632 .5303-48.7997 .5303-48.7997 0,0 2.0675-.9309 2.1622-2.42 .0947-1.5042-2.6292-1.6406-2.6292-3.5658 0-1.9236 2.7864-1.1696 2.845-3.1059-.012-1.8515-2.9252-1.7159-2.784-3.4278 .1661-1.9276 2.4534-1.7024 2.5834-3.4801 .1091-1.5311-1.4361-2.4636-2.1357-3.0987 .4525,.0222 2.2168-.0278 2.2296-.0341 1.7659,.0357 3.5334,.0714 5.2992,.107 3.766,.004-.065,.8112-.0088,2.9584 .0337,1.4027 1.9087,2.336 2.0772,3.5555 .0586,1.252-2.6837,2.1314-2.7182,3.634-.0305,1.3408 2.695,1.432 2.5963,2.6777-.1693,2.1084-2.4141,2.5722-2.3797,3.8488 .0337,1.275 3.0207,1.7611 3.0279,2.7784-.1035,1.968-.4316,49.8075-.4316,49.8075-4.7593,24.3697-32.2279,30.5687-40.015-1.4955z"/>
</g>
<g fill="#083d9c" stroke="#083d9c">
<path d="m283.2145,243.862l30.9081-.0182c.2407-.2403-6.9199-10.5498-15.4492-9.8227-9.5017,.2458-15.9563,9.841-15.4588,9.841z"/>
<path d="m381.7675,243.1183h-42.2936c0,0 5.4741-3.1971 6.9664-6.1475 2.7359,1.4756 1.9897,2.9505 7.4639,3.1963 5.4725,.2458 10.6972-6.1459 15.9226-5.9001 5.2238,.2458 11.9407,9.0972 11.9407,8.8514z"/>
<path d="m215.1027,243.1183h42.2936c0,0-5.4741-3.1971-6.9664-6.1475-2.7359,1.4756-1.9897,2.9505-7.4639,3.1963-5.4717,.2458-10.6972-6.1459-15.9226-5.9001-5.2238,.2458-11.9407,9.0972-11.9407,8.8514z"/>
<path d="m218.2597,229.9756l30.121,.2395c0,0-1.9432-4.0804-2.1855-9.1218-7.7752-2.6396-14.0901,5.7614-19.6774,6.0016-5.5856,.2395-11.4152-6.0016-11.4152-6.0016l3.1571,8.8823z"/>
<path d="m379.0693,229.9756l-30.1218,.2395c0,0 1.944-4.0804 2.1863-9.1218 7.7744-2.6396 14.0893,5.7614 19.6766,6.0016 5.5865,.2395 11.416-6.0016 11.416-6.0016l-3.1571,8.8823z"/>
<path d="m290.891,230.215l15.3024-.4789c0,0 .2439-4.5617-7.7728-4.5617-8.0158,0-7.2866,5.2817-7.5297,5.0406z"/>
</g>
</g>
<g fill="#630810" stroke="#630810" stroke-linecap="round" stroke-width="2.792">
<path d="m281.6596,223.7345c2.6725-1.4415 5.1011-2.8807 6.8019-6.2427l-10.446,.2395c0,0-4.8564,2.8823-7.2865,6.0032h10.9306z"/>
<path d="m315.4247,223.7345c-2.6725-1.4415-5.1003-2.8807-6.8012-6.2427l10.4452,.2395c0,0 4.8572,2.8823 7.2866,6.0032h-10.9306z"/>
</g>
</g>
<path fill="#fff" d="m0,100c0,0 0,200 0,200 0,0 600,0 600,0 0,0 0-200 0-200 0,0-600,0-600,0zm290.6248,12.5984c12.5002,0 23.4377,0 35.9379,4.7244 70.3123,22.0473 79.6871,121.2598 17.1876,159.0559-10.9375,7.8732-21.875,11.0236-34.3752,12.5976-9.3748,0-18.7503,0-28.1251-1.574-68.7496-14.174-90.6254-105.5126-39.0626-152.7567 14.063-12.5984 29.6878-18.8984 48.4374-22.0472z"/>
</svg>
