<svg xmlns="http://www.w3.org/2000/svg" viewBox="0 0 1000 500">
<g transform="matrix(1.95312 0 0 1.95312 0 -.00001)">
<path fill="#fff" d="m0,0h512v256h-512z"/>
<path fill="#da000c" d="m0,171.5h512v84.5h-512z"/>
</g>
<g transform="matrix(1.95312 0 0 1.95312 0 -.00001)">
<path fill="#f8d80e" stroke="#000" d="m235.7812,227.5625v8.0312h5.0312v-4.0312h6.8438v4.0312h5.4062v-8.0312h-17.2812zm0,11.0625v8.0625h17.2812v-8.0625h-5.4062v4.0312h-6.8438v-4.0312h-5.0312z" stroke-dashoffset="1"/>
<path d="m196.571,116.303h118.858v43.993h-118.858z"/>
<g fill="#da000c" stroke="#000">
<g stroke-linecap="square" stroke-dashoffset="1">
<path d="m229.8189,153.8647h-39.0689l-8.6601,5.6998v6.0397h47.729"/>
<path d="m282.1811,153.8647h39.0689l8.6601,5.6998v6.0397h-47.729"/>
<path d="m182.0899,159.5644h147.8202"/>
</g>
<path fill-rule="evenodd" d="m228.5625,156.8125l-9.7812,4.7188v7.0312h37.2188 37.2188v-7.0312l-9.7812-4.7188h-27.4375-27.4375z"/>
</g>
</g>
<g stroke="#000" fill-rule="evenodd" transform="matrix(1.95312 0 0 1.95312 0 -.00001)">
<path fill="#f8d80e" stroke-width=".768" d="m273.2969,150.0312c-1.3418,.3951-3.04,1.2531-5.125,2.4062-2.085,1.1532-4.4699,2.604-6.7188,4.0938-1.6672,1.1045-3.0598,2.2073-4.4375,3.2812-.4806,.3747-1.1431,.7662-1.5625,1.125-.4902,.4194-.8261,.8198-1.2188,1.2188-.2568,.2609-.5989,.5243-.8125,.7812-.5403,.6498-1.0625,1.2153-1.0625,2.4062 0,.2162 .0061,.433 .0312,.6562 .7748-.9289 1.8874-1.5749 3.125-1.7188 .006,.0001 .0275,.0002 .0312,0 .0315,.0001 .0934-.0006 .125,0 .0038-.0001 .0253-.0001 .0312,0 .1221-.0096 .2193,0 .3438,0 .1244,0 .2217-.0096 .3438,0 .1876,.0147 .3536,.0591 .5312,.0938 .0683-.063 .1215-.1262 .1875-.1875 .2272-.2111 .3499-.3583 .625-.5938 .5497-.4704 1.456-1.0657 2.1562-1.5938 1.1328-.8543 2.1593-1.6743 3.5-2.5625 2.1695-1.4372 4.4804-2.8378 6.4688-3.9375 1.9884-1.0997 3.7534-1.8923 4.4375-2.0938l-1-3.375z"/>
<g fill="none" fill-opacity=".75" stroke-linecap="round">
<path d="m260.4004,157.3913v3.9119"/>
<path d="m262.8169,155.6854v3.8828"/>
<path d="m265.2334,154.1798v3.8581"/>
<path d="m267.6499,152.6937v3.9813"/>
</g>
</g>
<g transform="matrix(1.95312 0 0 1.95312 0 -.00001)">
<g fill="#da000c" stroke="#000">
<path fill-rule="evenodd" d="m218.771,161.5192h74.458"/>
<path stroke-linecap="square" d="m213.4688,128.5938c5.6248,0 10.2188,4.6893 10.2188,10.4688v14.7812h7.3438v-56h-40.2812v56h12.5v-14.7812c-0-5.5537 4.5149-10.4688 10.2188-10.4688z" stroke-dashoffset="1"/>
</g>
<path d="m204.528,59.9617h18.524v33.9594h-18.524z"/>
<g fill="#da000c" stroke="#000" fill-rule="evenodd">
<path d="m223,88.6562h-16.2089v-5.75h-11.8848v5.75h-8.0625v-5.75h-4.8125v10.4375h40.9688m-36.1562-.0377h34.9704v4.5377h-34.9704v-4.5377z"/>
<path d="m200.7188,47.625v35.2812h6.0723v-9.6875c0-3.6293 2.5621-6.5994 6.1464-6.7812 .1156-.0059 .2267,0 .3438,0 3.7464-0 6.7812,3.0349 6.7812,6.7812v9.6875h5.7812v-35.2812h-25.125z"/>
</g>
<path d="m240.803,38.3511h29.329v53.2545h-29.329z"/>
<g stroke="#000">
<path fill="#da000c" fill-rule="evenodd" d="m238.75,38.375v44.5625h9.3125v-13.2188c0-3.0489 1.9525-7.2812 7.9375-7.2812 5.985,0 7.9375,4.2323 7.9375,7.2812v13.2188h9.3125v-44.5625h-17.25-17.25zm15.8125,5h1.4375 1.4375v15.25h-1.4375-1.4375v-15.25zm-8.25,3h2.9062v11.1562h-2.9062v-11.1562zm16.4688,0h2.9062v11.1562h-2.9062v-11.1562z"/>
<g stroke-dashoffset="1">
<g fill="#da000c" stroke-linecap="square">
<path d="m235.5938,31.9688v6.3438h20.4062 20.4062v-6.3438h-20.4062-20.4062z"/>
<path d="m231.75,24.5938v7.375h24.25 24.25v-7.375h-6.0938v4.0625h-6.875v-4.0625h-7.8438v4.0625h-3.4375-3.4375v-4.0625h-7.8438v4.0625h-6.875v-4.0625h-6.0938z"/>
<path d="m198.5312,42.8438v4.7812h29.25v-4.7812h-29.25z"/>
<path d="m194.7812,33.6875v9.1562h35.0938v-9.1562h-5.4062v4.6562h-6.5312v-4.6562h-9.9688v4.6562h-6.5312v-4.6562h-6.6562z"/>
</g>
<g fill="#f8d80e">
<path d="m253.052,193.651h4.99v58.115h-4.99z"/>
<path stroke-width="1.024" d="m255.5469,179.4062l10.625,6.1875-10.625,6.1562-10.625-6.1562 10.625-6.1875zm-14.2188,3.9688h-2.7812v4.4375h2.7812l14.2188,8.25 14.2188-8.25h2.7812v-4.4375h-2.7812l-14.2188-8.25-14.2188,8.25z"/>
</g>
</g>
</g>
</g>
<g stroke="#000" fill-rule="evenodd" transform="matrix(1.95312 0 0 1.95312 0 -.00001)">
<path fill="#f8d80e" stroke-width=".768" d="m238.8906,150.1562l-1.1875,3.3125c3.8406,1.388 9.2899,4.0862 13.6562,6.7188 2.1832,1.3163 4.0937,2.6103 5.4062,3.6875 .6563,.5386 1.1603,1.0385 1.4375,1.375 .0341,.0414 .0742,.0917 .0938,.125 .0035,.0063-.0031,.0252 0,.0312 .022,.0461 .0487,.0946 .0625,.125-.0253,.2237-.0654,.4648-.125,.625-.0052,.0128-.0257,.0508-.0312,.0625-.0029,.0056 .003,.026 0,.0312-.0031,.0049-.0281,.0266-.0312,.0312-.0207,.0267-.0405,.0676-.0625,.0938-.0046,.0052-.0265,.0262-.0312,.0312-.0051,.005-.0259,.0263-.0312,.0312-.0115,.0097-.0493,.022-.0625,.0312-.0213,.0135-.0672,.0504-.0938,.0625-.1429,.058-.3764,.0938-.75,.0938-.2216,0-.4008-.0327-.5312-.0625-.0502-.0126-.1165-.0153-.1562-.0312-.0127-.0055-.0508-.0254-.0625-.0312-.0339-.0179-.0669-.0424-.0938-.0625-.0083-.0083-.0268-.0274-.0312-.0312-.0027-.0034-.0286-.0273-.0312-.0312-.0077-.0134-.0237-.0517-.0312-.0625-.0022,.0001-.0288-0-.0312,0-.0028,.0002-.028-.0007-.0312,0-.007-.0002-.0233,0-.0312,0-.0164,.0001-.0484,0-.0625,0-.0969,0-.1868-.0095-.2812,0-1.1474,.1159-2.1197,.9341-2.4375,2.0625 .0003,.0027-.0001,.0286 0,.0312 .0038,.0042 .0274,.0274 .0312,.0312 .0157,.0143 .0467,.0458 .0625,.0625 .8027,.9688 2.18,1.625 3.7188,1.625 1.6184,0 3.0297-.6777 3.8125-1.6875 .7828-1.0098 .9688-2.1581 .9688-3.0938 0-1.0911-.4899-1.7245-1-2.3438-.5101-.6192-1.1723-1.2157-1.9375-1.8438-1.5304-1.256-3.535-2.5956-5.8125-3.9688-4.5551-2.7463-10.0808-5.5132-14.2812-7.0312z"/>
<g fill="none" fill-opacity=".75" stroke-linecap="round">
<path d="m254.0498,158.0352l-.3124,3.3395"/>
<path d="m256.8319,159.7391l-.862,3.2697"/>
<path d="m259.8044,162.0115l-1.8089,2.5373"/>
<path d="m260.7153,168.1808l-2.6102-1.4005"/>
<path d="m261.5279,165.429l-2.9954,.2805"/>
<path d="m257.665,169.7646l-.2051-2.6323"/>
<path d="m256.5681,166.7556l-2.473,1.8222"/>
<path d="m244.6767,152.9368v3.115"/>
<path d="m250.9634,156.2439v3.5342"/>
<path d="m247.82,154.5932v3.3189"/>
</g>
</g>
<g transform="matrix(1.95312 0 0 1.95312 0 -.00001)">
<g stroke="#000" stroke-dashoffset="1">
<path fill="#f8d80e" stroke-width="1.024" d="m255.3438,164.2812c-2.3197,.3563-4.0938,2.4671-4.0938,4.9375v11.0312c0,2.7174 2.1585,4.9688 4.8125,4.9688 .0691,0 .1191,.003 .1875,0 .0684,.003 .1184,0 .1875,0 1.8869,0 3.5241-1.147 4.3125-2.7812l-1.7188-1.0312c-.4275,1.0595-1.4305,1.7813-2.5938,1.7812-.045,0-.0883-.0003-.125,0-.0115-.0002-.046,.0001-.0625,0-.0176,.0013-.0472-.0002-.0625,0-.0367-.0003-.08,0-.125,0-1.551,0-2.8125-1.2781-2.8125-2.9375v-11.0312c0-1.6594 1.2615-2.9062 2.8125-2.9062 .044,0 .0879,.0003 .125,0 .0153,.0003 .0453-.0014 .0625,0 .0164-.0001 .051,.0002 .0625,0 .0371,.0003 .081,0 .125,0 .4362,0 .85,.1026 1.2188,.2812 .0025,.0001 .0291-.0003 .0312,0 .0817-.0148 .1652-.0408 .2188-.0625 .0251-.0161 .0778-.0524 .0938-.0625 .0052-.0055 .0261-.0257 .0312-.0312 .0029,0 .0276-.0002 .0312,0 .0054-.0049 .0262-.0262 .0312-.0312 .0066-.0065 .029-.0287 .0312-.0312 .0188-.0257 .0444-.0704 .0625-.0938-.0001-.0029 .0004-.0277 0-.0312 0,0 .0312-.0312 .0312-.0312 .0041-.0088 .023-.0459 .0312-.0625 .0596-.1602 .0997-.4013 .125-.625-.0138-.0304-.0405-.0789-.0625-.125 .0002-.0016 .0001-.0242 0-.0312-.0213-.0325-.0639-.0887-.0938-.125-.2031-.2465-.5516-.5647-.9688-.9375-.0032,.0006-.0285-.0002-.0312,0-.0299-.0068-.095-.0249-.125-.0312-.0042-.0002-.0274-0-.0312,0-.0161,.0002-.0531,.0004-.0625,0-.0061,.0001-.0273,.0001-.0312,0-.0177,.0002-.0504-.0004-.0625,0-.0324,.0014-.0959,.0023-.125,0-.1221-.0096-.2193,0-.3438,0-.0778,0-.1183,.0005-.1875,0-.0692,.0005-.1097,0-.1875,0-.1244,0-.2217-.0096-.3438,0-.0291,.0023-.0926,.0014-.125,0-.012-.0004-.0448,.0002-.0625,0-.0079,.0002-.0258-.0006-.0312,0-.0125,.0005-.0519,.0009-.0625,0-.0038-0-.0271-.0002-.0312,0-.0183,.0026-.0442-.0028-.0625,0zm5.7812,3.9062c-.0507,.0754-.1012,.1747-.1562,.25-.4159,.5365-1.0113,.9841-1.7188,1.2812v7.5625l2,1.1562v-9.2188c0-.3501-.0257-.6998-.0938-1.0312-.0032-.001-.0285,.0002-.0312,0z"/>
<g fill="#da000c">
<path stroke-linecap="square" d="m298.5312,128.5938c-5.6248,0-10.2188,4.6893-10.2188,10.4688v14.7812h-7.3438v-56h40.2812v56h-12.5v-14.7812c0-5.5537-4.5149-10.4688-10.2188-10.4688z"/>
<path stroke-linecap="round" d="m222.75,97.8438v4.5938h33.25 33.25v-4.5938h-33.25-33.25z"/>
</g>
</g>
<path d="m-307.472,59.9617h18.524v33.9594h-18.524z" transform="scale(-1 1)"/>
<g stroke="#000">
<g fill="#da000c">
<g fill-rule="evenodd">
<path d="m289,88.6562h16.2089v-5.75h11.8848v5.75h8.0625v-5.75h4.8125v10.4375h-40.9688m36.1562-.0377h-34.9704v4.5377h34.9704v-4.5377z"/>
<path d="m311.2812,47.625v35.2812h-6.0723v-9.6875c0-3.6293-2.5621-6.5994-6.1464-6.7812-.1156-.0059-.2267,0-.3438,0-3.7464-0-6.7812,3.0349-6.7812,6.7812v9.6875h-5.7812v-35.2812h25.125z"/>
<path d="m220.0312,82.9062v14.9375h35.9688 35.9688v-14.9375h-6.8125v5.75h-9.0625v-5.75h-12.1562v5.75h-7.9375-7.9375v-5.75h-12.1562v5.75h-9.0625v-5.75h-6.8125z"/>
</g>
<g stroke-linecap="square" stroke-dashoffset="1">
<path d="m313.4688,42.8438v4.7812h-29.25v-4.7812h29.25z"/>
<path d="m317.2188,33.6875v9.1562h-35.0938v-9.1562h5.4062v4.6562h6.5312v-4.6562h9.9688v4.6562h6.5312v-4.6562h6.6562z"/>
</g>
</g>
<path fill="#f8d80e" d="m253.052,198.679h4.99v50.06h-4.99z" stroke-dashoffset="1"/>
<path fill="#da000c" fill-rule="evenodd" stroke-linejoin="round" d="m228.6875,102.4375v54.3438h12.8438c0,0 0-11.2487 0-20.3438 0-9.5827 6.3963-14.0938 14.4688-14.0938 7.7589,0 14.4688,4.511 14.4688,14.0938 0,9.095 0,20.3438 0,20.3438h12.8438v-54.3438h-27.3125-27.3125z"/>
</g>
</g>
</svg>
