<svg xmlns="http://www.w3.org/2000/svg" viewBox="0 0 500 300" xmlns:xlink="http://www.w3.org/1999/xlink">
<path fill="#ce1126" d="m0,0h500v300h-500z"/>
<path fill="#007a5e" d="m42,42h416v216h-416z"/>
<use width="500" height="300" xlink:href="#path3519" transform="matrix(1 0 0 -1 0 300)"/>
<path fill="#fcd116" id="path3519" d="m42,258l208-108 208,108h-416z"/>
<path fill="#ce1126" d="m286,150a36,36 0 1,1 -72,0 36,36 0 1,1 72,0z"/>
<path fill="#fcd116" d="m218.615,139.8041h23.9781l7.4069-22.8041 7.4069,22.8041h23.9781l-19.3959,14.0917 7.4069,22.8041-19.3959-14.0917-19.3959,14.0917 7.4069-22.8041-19.3959-14.0917z"/>
<use width="500" height="300" id="use2413" xlink:href="#use2411" transform="translate(-100)"/>
<use width="500" height="300" id="use2411" xlink:href="#use2409" transform="translate(-100)"/>
<use width="500" height="300" id="use2409" xlink:href="#path6678" transform="translate(200 -258)"/>
<path fill="#fcd116" id="path6678" d="m131.455,272.9762h14.1684l4.3766-13.4762 4.3766,13.4762h14.1684l-11.4608,8.3276 4.3766,13.4762-11.4608-8.3276-11.4608,8.3276 4.3766-13.4762-11.4608-8.3276z"/>
<use width="500" height="300" xlink:href="#use2415" transform="translate(-100)"/>
<use width="500" height="300" id="use2415" xlink:href="#use2413" transform="translate(200 258)"/>
<path fill="#ce1126" d="m67.7485,150.4056c4.5041,8.3912 13.2656,17.5229 20.9164,20.7313 .1234-8.5146-2.8999-19.4356-7.0338-28.1353l-13.8826,7.404z"/>
<path fill="#fcd116" d="m60.1122,121.6302c6.5284,13.6122-16.9337,46.0756 22.1559,53.6898-4.8222-6.5794-7.9306-17.4431-6.7547-26.1647 8.2004,3.126 16.8293,12.2501 20.3169,19.232 10.2298-37.1503-26.2398-34.8845-35.718-46.7571z"/>
</svg>
