<svg width="1160" xmlns="http://www.w3.org/2000/svg" height="696" viewBox="0 0 500 300" xmlns:xlink="http://www.w3.org/1999/xlink">
<g fill-rule="evenodd">
<path fill="#00209f" d="m0-0h500v300h-500z"/>
<path fill="#d21034" d="m0,150h500v150h-500z"/>
<g transform="matrix(.18594 0 0 .17938 202.67919 112.28368)">
<path fill="#fff" d="m0,0h509v420h-509z"/>
<g fill="#016a16" stroke="#016a16">
<path d="m356.9375,303.7188l-103.875,3.125-103.4062,1.2188c0,0-53.1263,20.367-74.8438,24.9375-21.6535,4.5571-18.8378,11.9311-35.5938,15.8125-13.4211,3.1089-14.969,4.0892-22.8438,4.625-4.7653,.3243-10.6346,4.1245-16.375,8.3125v58.25h509v-55.4062c-5.5173-3.1163-10.7751-5.2602-16.1562-7.1562-7.4773-2.6347-12.5164-5.5161-25.9375-8.625-16.756-3.8814-13.9402-11.2554-35.5938-15.8125-21.7175-4.5705-74.375-29.2813-74.375-29.2812z"/>
<path d="m247.8125,74.25l-2.5,50.5625h15.5938l-2.2812-50.125 16.2546-2.3663-1.8004-19.9699-40.3932,1.6163 .2259,18.1349 14.9005,2.1475z"/>
</g>
</g>
</g>
<g transform="matrix(.18594 0 0 .17938 202.67919 112.28368)">
<g id="g3357">
<g stroke="#000" fill-rule="evenodd" transform="translate(-520)">
<path fill="#f1b517" d="m730.9686,213.2984l-13.5602-30.2356 5.8639-1.2827 24.7382,50.2094-17.0419-18.6911z"/>
<path fill="#fff" d="m699.6335,147.6963l15.0262,42.5131h7.6963l-22.7225-42.5131z"/>
<g fill="#f1b517">
<path d="m745.0785,174.0838l7.5131-.1832 13.7435,59.9215-2.9319,18.8743-18.3246-78.6126z"/>
<path d="m751.4922,235.8377l-23.089-64.3194 8.6126-.5497 26.9372,78.6126-12.4607-13.7434z"/>
</g>
<g fill="#fff">
<path d="m717.5916,134.8691l9.5288,44.712h7.6963l-17.2251-44.712z"/>
<path d="m737.199,134.1361l5.1309,46.178 5.4974-.3665-10.6283-45.8115z"/>
</g>
</g>
<g transform="translate(-520)">
<g fill-rule="evenodd">
<g stroke="#000">
<path fill="#0a328c" d="m732.8116,217.8586l-61.5026-69.5941c-19.2089,15.7658-15.6402,44.715-15.6402,44.715l69.6851,56.6722 7.4577-31.7931z"/>
<path fill="#d20014" d="m768.3732,256.1591l-45.6253-47.906c-19.2894,.6939-3.9834,30.5435-3.012,34.2904l48.6373,43.116v-29.5004z"/>
<g fill="#f1b517">
<path d="m764.4898,247.9238l-94.3303-104.695-3.6814,2.6956 99.8257,114.958-1.8141-12.9587z"/>
<path d="m664.7091,136.515l-2.0708-2.4849 .2071-4.9698-19.465-12.8386 8.6971,20.2933 6.6264,1.2424 2.0707,2.4849 3.9344-3.7273z"/>
<path d="m654.7695,143.9697c3.3132-4.1415 7.2476-8.283 14.2881-12.2174l5.3839,8.0759-11.5962,10.1467-8.0759-6.0052z"/>
</g>
<path fill="#0a328c" d="m705.941,236.3006l-77.2684-63.614c-13.2288,13.9537-2.2301,57.0377-2.2301,57.0377l75.5217,42.4074 3.9769-35.8311z"/>
<path fill="#d20014" d="m770.015,287.8383l-63.561-52.7748c-21.7068,3.1574-4.6425,36.2696-3.3483,39.9175l67.1254,37.7317-.2161-24.8743z"/>
<g fill="#f1b517" transform="matrix(.98481 -.17365 .17365 .98481 -54.7906 145.56389)">
<path d="m786.9368,272.4l-116.7773-129.1712-3.6814,2.6956 121.8572,140.1044-1.3985-13.6288z"/>
<path d="m664.7091,136.515l-2.0708-2.4849 .2071-4.9698-19.465-12.8386 8.6971,20.2933 6.6264,1.2424 2.0707,2.4849 3.9344-3.7273z"/>
<path d="m654.7695,143.9697c3.3132-4.1415 7.2476-8.283 14.2881-12.2174l5.3839,8.0759-11.5962,10.1467-8.0759-6.0052z"/>
</g>
<path fill="#0a328c" d="m700.4095,275.2026c-1.0251-.2563-99.5892-58.2117-99.5892-58.2117-7.1758,12.5576-.6861,30.7756 2.4596,33.609 .1823,8.3614-3.2405,12.858 3.8002,30.3206 2.0765,11.3539 7.1446,21.8142 14.5219,28.0273 8.9877,35.771 44.2212,38.1736 57.7926,9.0534l21.0149-42.7985z"/>
<path fill="#d20014" d="m765.6382,313.4504l-67.4861-40.9996c-21.7068,3.1574 .4601,44.9047 1.7543,48.5526l65.1628,23.9939 .5689-31.547z"/>
<g fill="#f1b517" transform="matrix(.94552 -.32557 .32557 .94552 -78.4561 297.23336)">
<path d="m786.9368,272.4l-116.7773-129.1712-3.6814,2.6956 121.8572,140.1044-1.3985-13.6288z"/>
<path d="m664.7091,136.515l-2.0708-2.4849 .2071-4.9698-19.465-12.8386 8.6971,20.2933 6.6264,1.2424 2.0707,2.4849 3.9344-3.7273z"/>
<path d="m654.7695,143.9697c3.3132-4.1415 7.2476-8.283 14.2881-12.2174l5.3839,8.0759-11.5962,10.1467-8.0759-6.0052z"/>
</g>
</g>
<g>
<path fill="#0a328c" stroke="#0a328c" d="m644.4074,161.6348c0,0 3.1618,5.7214 3.1618,5.7214 1.9573-.7528 21.681-19.272 21.681-19.272l14.1529-.4517 4.0652-4.6674c-10.3888-11.5933-20.1754,1.6562-20.1754,1.6562l-22.8855,17.0136z"/>
<path fill="#d20014" stroke="#d20014" d="m655.6996,171.2708c.7528-5.1191 10.0877-17.9169 11.4428-18.3686 7.0087,2.1806 13.5281,6.3615 20.6271-10.2383-6.1731,8.1304-18.6698-.1505-18.6698-.1505l-5.4203,4.6674 .1506,2.2584-16.4113,15.8091 8.2809,6.0225z"/>
</g>
<g transform="matrix(.98769 -.15643 .15643 .98769 -56.79557 135.1032)">
<path fill="#0a328c" stroke="#0a328c" d="m647.1636,159.6323c0,0-.0788,5.9703-.0788,5.9703 1.9573-.7528 22.1655-17.5184 22.1655-17.5184l14.1529-.4517 3.5248-4.1433c-7.7033-13.1497-20.3315,.7168-20.3315,.7168l-19.4329,15.4263z"/>
<path fill="#d20014" stroke="#d20014" d="m656.3725,171.8347c.2051-5.5108 9.8462-20.2418 11.2012-20.6935 7.8141,3.8326 14.3645,8.7806 20.1957-8.4773-6.1731,8.1304-18.7007-.9176-18.7007-.9176l-5.4203,4.6674 .1815,3.0255-16.8029,16.3568 9.3454,6.0387z"/>
</g>
<g transform="matrix(.9563 -.29237 .29237 .9563 -82.53649 274.17758)">
<path fill="#0a328c" stroke="#0a328c" d="m645.1915,160.615c0,0 1.1497,7.153 1.1497,7.153 1.9573-.7528 22.909-19.6838 22.909-19.6838l14.1529-.4517 4.0652-4.6674c-7.2808-13.0047-20.1754,1.6562-20.1754,1.6562l-22.1014,15.9938z"/>
<path fill="#d20014" stroke="#d20014" d="m656.2352,173.6387c.5969-5.6391 9.3283-21.6128 10.6834-22.0645 7.2682,4.9365 13.7519,7.6895 20.8508-8.9103-7.1608,6.7263-18.6698-.1505-18.6698-.1505l-5.4203,4.6674 .1506,2.2584-17.0276,17.8248 9.4328,6.3747z"/>
</g>
</g>
</g>
<g fill-rule="evenodd" stroke="#000">
<path fill="#f1b517" d="m233.1752,337.2782l-37.9707-12.2049-16.5444-29.2917-58.5833-2.9834 2.0346,21.9679 49.9043,9.9016 4.7459,8.815 57.3632,16.5452-.9497-12.7498z"/>
<g transform="translate(-520)">
<path fill="#503200" d="m713.52,345.461l-59.9587-91.4136-2.9427,2.2943 59.485,91.796 3.4165-2.6766z"/>
<path fill="#fff" d="m659.1409,257.639l-6.4013-11.1036c-1.1983-2.0521-3.0181-2.7334-5.6921-1.2728-2.6036,1.4222-2.3505,4.2327-1.2901,6.26l5.9183,10.3246 7.4651-4.2083z"/>
</g>
</g>
<g transform="translate(-520)">
<g fill="#f1b517" fill-rule="evenodd" stroke="#000">
<path d="m720.6428,289.0097l-120.9896-12.7461-2.9414,18.2367 120.4013,12.55 3.5297-18.0406z"/>
<path d="m597.4962,271.5574l-3.1375,25.296h5.0984l3.5297-23.139-5.4906-2.157z"/>
<path d="m617.6938,275.6753l-1.3727,22.7468 3.1375,.3922 2.5492-20.1976-4.3141-2.9414z"/>
<path d="m699.6608,285.48l-2.9414,21.3742 5.8828-.1961 2.3531-21.1781h-5.2945z"/>
<path d="m717.6875,286.0625l-4.1875,24.7188 6.6562,1 1.9062-13c.5349,2.6121 2.8555,4.5938 5.625,4.5938 3.1651,0 5.75-2.5849 5.75-5.75 0-3.1651-2.5849-5.7188-5.75-5.7188-2.2007,0-4.1973,1.3376-5.0625,3.8296l1.25-9.2671-6.1875-.4062z"/>
</g>
<g>
<g>
<g>
<g fill="#f1b517" fill-rule="evenodd" stroke="#000">
<path d="m674.0208,290.0766l-16.6391,19.4122 1.9412,2.3572 21.3535-15.1138-6.6556-6.6556z"/>
<path d="m635.335,338.4686l16.6391-19.4122-1.9412-2.3572-21.3535,15.1138 6.6556,6.6556z"/>
<path d="m678.8739,333.6155l-20.2442-16.2231-2.0799,1.5253 15.9458,20.9375 6.3783-6.2396z"/>
<path d="m628.9567,296.1776l20.5215,15.6685 2.4959-1.9412-16.0844-20.9375-6.933,7.2103z"/>
<path d="m651.2869,283.2493l1.9609,25.4921 2.7621-.1218 6.492-24.8156-11.2151-.5546z"/>
<path d="m658.0115,345.0999l-1.9609-25.4921-3.0394-.2941-3.7188,25.7863h8.7192z"/>
<path d="m685.2279,310.7429l-25.7863,2.8433-.3922,2.5492 26.0804,3.5297 .0981-8.9222z"/>
<path d="m623.8745,319.5671l25.1742-4.1249 .5308-2.0282-26.0398-3.0157 .3348,9.1688z"/>
</g>
<path fill="#f1b517" fill-rule="evenodd" stroke="#000" stroke-linecap="round" stroke-width=".617" d="m658.8614,314.6063c0,2.3283-1.8875,4.2157-4.2158,4.2157-2.3283,0-4.2157-1.8875-4.2157-4.2157 0-2.3283 1.8875-4.2158 4.2157-4.2158 2.3283,0 4.2158,1.8875 4.2158,4.2158z" transform="matrix(1.62016 0 0 1.62016 -406.09929 -196.05698)"/>
</g>
<path fill="#f1b517" fill-rule="evenodd" stroke="#000" stroke-linecap="round" d="m690.8064,313.6551c0,20.0242-16.2515,36.2756-36.2756,36.2756-20.0241,0-36.2756-16.2514-36.2756-36.2756 0-20.0241 16.2515-36.2756 36.2756-36.2756 20.0241,0 36.2756,16.2515 36.2756,36.2756zm-7.2467,0c0,16.024-13.005,29.029-29.029,29.029-16.024,0-29.029-13.005-29.029-29.029 0-16.024 13.005-29.029 29.029-29.029 16.024,0 29.029,13.005 29.029,29.029z"/>
</g>
<g fill="none" fill-rule="evenodd" stroke="#000">
<path d="m631.8685,295.3457l-5.685-4.4371"/>
<path d="m672.4956,291.0472l4.8531-5.1304"/>
<path d="m682.895,336.8047l-5.9623-4.8531"/>
<path d="m631.8685,342.351l5.1304-5.685"/>
</g>
</g>
</g>
<g fill-rule="evenodd">
<g stroke="#000">
<g transform="translate(-520)">
<path fill="#f1b517" d="m754.0396,277.8307l6.2116,32.8145-5.0667,2.7662-5.4507-35.1113 4.3058-.4693z"/>
<g fill="#fff">
<path d="m750.7909,273.6049c-2.8799-1.248-6.6238,.864-12.7676-7.1998-10.1019,9.5997-.576,11.0396 .96,20.5433 2.8566,1.2169 4.6164-7.3743 12.3836-8.2557 .96-.096 12.3583-1.1323 12.3583-1.1323 0,0-2.8613-4.0424-2.8613-4.0424 0,0-7.9274,.2155-10.0729,.0868z"/>
<path d="m754.9188,280.0367l-1.152-9.7917c-1.248-3.4559-5.3758-.48-5.3758,1.536l1.056,9.0237 5.4718-.768z"/>
</g>
</g>
<g fill="#f1b517" stroke-linecap="round" stroke-width="1.092" transform="translate(-520)">
<path d="m685.3163,361.2159c.0021,1.5535-.8255,2.9898-2.1705,3.7671-1.345,.7773-3.0027,.7773-4.3477,0-1.345-.7773-2.1726-2.2137-2.1705-3.7671-.0021-1.5535 .8255-2.9898 2.1705-3.7671 1.345-.7773 3.0027-.7773 4.3477,0 1.345,.7773 2.1726,2.2137 2.1705,3.7671z" transform="matrix(.91593 0 0 .91593 56.84457 30.23301)"/>
<path d="m685.3163,361.2159c.0021,1.5535-.8255,2.9898-2.1705,3.7671-1.345,.7773-3.0027,.7773-4.3477,0-1.345-.7773-2.1726-2.2137-2.1705-3.7671-.0021-1.5535 .8255-2.9898 2.1705-3.7671 1.345-.7773 3.0027-.7773 4.3477,0 1.345,.7773 2.1726,2.2137 2.1705,3.7671z" transform="matrix(.91593 0 0 .91593 46.66258 22.76619)"/>
<path d="m685.3163,361.2159c.0021,1.5535-.8255,2.9898-2.1705,3.7671-1.345,.7773-3.0027,.7773-4.3477,0-1.345-.7773-2.1726-2.2137-2.1705-3.7671-.0021-1.5535 .8255-2.9898 2.1705-3.7671 1.345-.7773 3.0027-.7773 4.3477,0 1.345,.7773 2.1726,2.2137 2.1705,3.7671z" transform="matrix(.91593 0 0 .91593 32.95083 27.65355)"/>
<path d="m685.3163,361.2159c.0021,1.5535-.8255,2.9898-2.1705,3.7671-1.345,.7773-3.0027,.7773-4.3477,0-1.345-.7773-2.1726-2.2137-2.1705-3.7671-.0021-1.5535 .8255-2.9898 2.1705-3.7671 1.345-.7773 3.0027-.7773 4.3477,0 1.345,.7773 2.1726,2.2137 2.1705,3.7671z" transform="matrix(.91593 0 0 .91593 11.77227 32.40515)"/>
<path d="m685.3163,361.2159c.0021,1.5535-.8255,2.9898-2.1705,3.7671-1.345,.7773-3.0027,.7773-4.3477,0-1.345-.7773-2.1726-2.2137-2.1705-3.7671-.0021-1.5535 .8255-2.9898 2.1705-3.7671 1.345-.7773 3.0027-.7773 4.3477,0 1.345,.7773 2.1726,2.2137 2.1705,3.7671z" transform="matrix(.91593 0 0 .91593 2.81211 33.49123)"/>
<path d="m685.3163,361.2159c.0021,1.5535-.8255,2.9898-2.1705,3.7671-1.345,.7773-3.0027,.7773-4.3477,0-1.345-.7773-2.1726-2.2137-2.1705-3.7671-.0021-1.5535 .8255-2.9898 2.1705-3.7671 1.345-.7773 3.0027-.7773 4.3477,0 1.345,.7773 2.1726,2.2137 2.1705,3.7671z" transform="matrix(.91593 0 0 .91593 -6.01229 33.49123)"/>
<path d="m685.3163,361.2159c.0021,1.5535-.8255,2.9898-2.1705,3.7671-1.345,.7773-3.0027,.7773-4.3477,0-1.345-.7773-2.1726-2.2137-2.1705-3.7671-.0021-1.5535 .8255-2.9898 2.1705-3.7671 1.345-.7773 3.0027-.7773 4.3477,0 1.345,.7773 2.1726,2.2137 2.1705,3.7671z" transform="matrix(.91593 0 0 .91593 -14.97244 33.21971)"/>
<path d="m685.3163,361.2159c.0021,1.5535-.8255,2.9898-2.1705,3.7671-1.345,.7773-3.0027,.7773-4.3477,0-1.345-.7773-2.1726-2.2137-2.1705-3.7671-.0021-1.5535 .8255-2.9898 2.1705-3.7671 1.345-.7773 3.0027-.7773 4.3477,0 1.345,.7773 2.1726,2.2137 2.1705,3.7671z" transform="matrix(.91593 0 0 .91593 -10.62813 26.16019)"/>
<path d="m685.3163,361.2159c.0021,1.5535-.8255,2.9898-2.1705,3.7671-1.345,.7773-3.0027,.7773-4.3477,0-1.345-.7773-2.1726-2.2137-2.1705-3.7671-.0021-1.5535 .8255-2.9898 2.1705-3.7671 1.345-.7773 3.0027-.7773 4.3477,0 1.345,.7773 2.1726,2.2137 2.1705,3.7671z" transform="matrix(.91593 0 0 .91593 -1.93949 26.56747)"/>
<path d="m685.3163,361.2159c.0021,1.5535-.8255,2.9898-2.1705,3.7671-1.345,.7773-3.0027,.7773-4.3477,0-1.345-.7773-2.1726-2.2137-2.1705-3.7671-.0021-1.5535 .8255-2.9898 2.1705-3.7671 1.345-.7773 3.0027-.7773 4.3477,0 1.345,.7773 2.1726,2.2137 2.1705,3.7671z" transform="matrix(.91593 0 0 .91593 6.34187 25.48139)"/>
<path d="m685.3163,361.2159c.0021,1.5535-.8255,2.9898-2.1705,3.7671-1.345,.7773-3.0027,.7773-4.3477,0-1.345-.7773-2.1726-2.2137-2.1705-3.7671-.0021-1.5535 .8255-2.9898 2.1705-3.7671 1.345-.7773 3.0027-.7773 4.3477,0 1.345,.7773 2.1726,2.2137 2.1705,3.7671z" transform="matrix(.91593 0 0 .91593 2.13331 18.55763)"/>
<path d="m685.3163,361.2159c.0021,1.5535-.8255,2.9898-2.1705,3.7671-1.345,.7773-3.0027,.7773-4.3477,0-1.345-.7773-2.1726-2.2137-2.1705-3.7671-.0021-1.5535 .8255-2.9898 2.1705-3.7671 1.345-.7773 3.0027-.7773 4.3477,0 1.345,.7773 2.1726,2.2137 2.1705,3.7671z" transform="matrix(.91593 0 0 .91593 -6.01229 18.42187)"/>
</g>
<g transform="translate(-520)">
<path fill="#fff" d="m689.928,334.7265c-3.4229-1.4339-3.3898,6.5327-3.3898,6.5327l5.3932,.0583c2.359,1.1101 4.2566,4.6974 2.7524,6.4582-1.2437,1.4558-11.7099-2.4587-12.4124-.2072 1.8502,10.8236 15.687,14.9883 20.6938,10.2535 4.8969-4.6309 6.1369-16.9904-9.7747-20.2282l-3.2624-2.8672z"/>
<path fill="none" d="m693.1285,337.6664l-1.5727,3.5616"/>
</g>
</g>
<g transform="translate(-520)">
<g fill="none" stroke="#000">
<path d="m585.9561,338.7765l-5.1805-22.5724"/>
<path d="m592.2467,337.4814l-7.9558-17.5768"/>
<path d="m605.9381,332.8559l-17.9469-9.991"/>
<path d="m613.7089,330.8207l-33.3035-14.9866"/>
</g>
<path fill="#d20014" stroke="#d20014" d="m560.5312,299.5183c0,0-12.1212-.1981-14.2829,.6801-.8723,.3544 3.0488,4.5966 2.2347,6.2184-3.0283,6.0332-23.6334,5.2065-25.2623,3.8865-2.7869-2.2583 19.1911-4.1958 19.3354-5.7326 .1656-1.7641-3.2502-6.3925-2.7206-9.2304 .6872-3.6821 9.6191-5.0525 9.6191-5.0525l11.0765,9.2305z"/>
<g stroke="#000">
<path fill="#503200" d="m576.763,310.8779l-27.4407-23.5367c0,0-1.2089-1.3279-2.2202-.185-.9903,1.1191 .37,2.4053 .37,2.4053l28.308,24.2375 .983-2.921z"/>
<path fill="#f1b517" d="m603.1856,334.1082c-.4858-.4858-22.3474-20.1127-22.3474-20.1127l-1.4574-5.7326c0,0-3.3764,2.3708-4.6152,3.595-1.2388,1.2242-3.1578,4.5666-3.1578,4.5666l6.1212,.2915 19.3354,18.3637 6.1212-.9716z"/>
</g>
</g>
<path fill="#f1b517" stroke="#000" d="m204.8333,307.097l.1014,9.1249c-2.8812,1.0224-2.4417,3.2611-2.3488,6.5141l.1014,26.5973c-1.0224,1.7659-4.1825,1.8482-5.6696,3.2316-1.4871,1.3835-1.3012,4.0681 5.4837,5.834l5.2468,.1943c7.9931-1.8124 9.6429-4.5562 5.6347-6.1034-2.1321-.823-4.9376-1.8048-6.0065-3.106l.1774-6.3367 5.1876,.1943c1.3941,0 4.0471-3.6329 4.14-6.6071l.0253-13.7718c-.1859-7.8073-5.8381-8.6855-7.4181-8.5925l.1098-7.19-4.7652,.0169zm8.7696,15.2194c.0929-2.2306-2.9881-4.2196-4.2289-4.2754-1.2408-.0558-3.9501,2.6024-4.043,4.8331v5.5766c.1859,2.0448 1.7616,8.9709 4.926,9.4802 1.499,.2413 3.4389-2.2306 3.4389-4.2754l-.0929-11.3391z"/>
</g>
<g transform="translate(-520)">
<g fill-rule="evenodd" stroke="#000">
<g fill="#016a16">
<path d="m773.5177,53.5969c-41.7553-43.3212-74.6377-22.1825-82.4668-16.1802 5.1753,1.0476 9.8205-2.2937 12.2245-2.6784-1.5066,1.9711-4.6563,6.8539-4.6563,6.8539 0,0 12.911-6.3183 14.3534-5.7414-1.861,1.5386-3.9146,5.2194-3.9146,5.2194 .9616,.3846 8.2224-5.8932 9.6559-6.0023-2.2117,2.5963-2.8982,8.5159-2.8982,8.5159l6.2908-3.0355c1.6347,1.202-.4544,3.5132 .967,3.3923 10.456-.8896 25.1578,9.9076 27.1771,13.2251"/>
<path d="m763.1794,61.5287c-4.3517-10.3353-83.8339-27.9018-99.8171,1.3599 6.2556,1.6319 12.2392-5.4396 12.2392-5.4396l-.544,6.5275 10.6073-8.4314-3.8077,8.7034 8.4314-7.0715-.272,7.0715 10.3353-11.6952-1.3599,6.7995 9.2474-4.0797-1.0879,5.7116"/>
<path d="m759.6437,63.1606c-20.3986-14.143-51.9484-4.6237-51.9484-4.6237-20.1266,11.6952-30.8546,9.5853-33.4537,31.2778 1.9039-.8159 7.3435-7.6155 7.3435-7.6155l4.0797,8.4314 1.3599-11.9672 3.2638,9.2474 4.8957-15.231 1.0879,10.3353 7.6155-10.3353 3.5358,2.9918 3.2638-7.8875 2.9918,5.1676c0,0 5.1676-3.2638 8.1594-1.3599l5.7116-6.7995 1.3599,4.8957 4.8957-5.9836 1.9039,4.3517 4.8957-4.6237-.272,3.2638 16.8628,.272"/>
<path d="m755.0295,65.6116c-14.216-.2751-55.0001,15.6734-65.5475,32.3658 4.2001-2.4315 6.79-3.5389 6.79-3.5389l2.081,6.7078 2.5427-6.7078 .544,5.1676c1.5592-4.0355 3.3207-4.4909 6.2556-.272 0,0 1.0879-6.2556 1.0879-6.2556l1.6319,5.9836 2.7198-6.5275c0,0 1.7109,7.0747 2.7198,6.7995 0,0 4.5098-12.2328 6.5276-12.7831l.544,7.6155 2.7198-7.6155 2.4478,5.7116 .544-8.1594 2.7198,6.2556c0,0 1.4263-6.1512 3.5358-7.3435l4.0797,3.8077 18.1644-13.5282"/>
<path d="m757.7609,69.093c-18.9372,7.523-35.8742,34.444-34.5771,45.8582 8.4148-10.8239 6.6025-9.3335 10.364,3.1184 0,0 1.423-10.8947 2.8497-12.1918l2.4698,8.0645 .9172-10.5474 2.5263,.121-.6485-6.615 3.7615,2.9833c-.8785-3.7824-1.8159-5.0586 2.0753-8.3012 0,0-4.9289,.6485-1.0376-8.5606l3.6318,3.6318c0,0-.6485-4.0209 .6485-5.5774l13.3598-4.7991"/>
</g>
<g>
<path fill="#016a16" d="m759.5953,71.1108l-7.1539,14.1243 3.6687,1.1006-8.2545,6.4201 6.9705-.7337c0,0-10.6391,4.0355-11.9231,14.8581l10.8225-4.9527c0,0-9.1716,9.7219-10.4557,15.5918l6.2367-5.6864c0,0-6.0533,6.787-5.1361,17.0593l4.5858-5.3196c-1.1006,12.4734-.7337,13.574 4.7693,23.1125 0,0-1.4675-14.6746 .1834-16.5089l12.1066,13.0237-6.787-18.5267c0,0 7.5207,11.7397 12.1066,10.6391l-9.5385-15.0415 9.3551,7.8876-10.6391-16.5089 9.9054,3.1184c0,0-7.1539-9.3551-6.6036-15.2249l6.787,7.7042c0,0-2.5681-8.8048-1.8343-11.3728l3.4852,.7337-6.787-8.071 4.5858-.9172-.5503-5.3196 3.3018-1.1006-.1834-5.8698"/>
<path fill="none" d="m766.7491,75.3298c-11.7397,16.509-5.6864,42.0061-12.6569,55.0298"/>
</g>
</g>
</g>
<g>
<path fill="#f1b517" fill-rule="evenodd" stroke="#000" d="m181.7349,366.2925c0-1.7643-4.1336-1.0055-4.1336-3.0701 0-2.2941 6.3041-.6078 7.1751,1.4106 3.5477-3.3229 5.0771-.894 7.2504,.1099 3.095-4.7685 6.9217-4.5903 10.6559-1.0985 2.1591-2.4688 7.5814-1.6527 9.4475,1.0985 3.5747-3.6742 6.7492-2.769 9.2278-.1099 .997-1.9317 2.4603-1.5091 3.5154-.1098 1.9046-3.5024 6.6802-2.451 8.6902-.139 1.7872-2.0362 3.6179-.446 5.99,1.0582 1.6018-1.5537 4.1856-1.2608 4.1856,.2839 0,1.6105-3.3763,1.0435-3.3763,2.6418 0,1.4259 2.463,.705 2.463,2.5086 0,1.4198-3.6557,1.9521-4.2207-.3115-1.2381,2.4512-5.7109,1.5101-6.1519-.769-1.4881,1.8621-4.8244,2.4287-6.7012-.3296-1.5412,1.2997-3.3855,1.4858-4.2323,.1735-2.781,3.0992-7.4687,2.4623-9.0835-.9542 0,0-1.5783,.0695-1.5783,.0695-2.7318,3.8449-7.0013,2.0686-8.1755-.0578-4.586,3.4295-7.3257,2.3494-9.887,.1099-2.9426,3.7163-7.4262,3.457-8.4588,0-1.9802,1.4956-6.1116,1.8477-6.1116,.0982 0-1.6762 3.5095-1.0668 3.5095-2.6132zm8.8986,.8349c0,.7983-1.0483,1.4462-2.34,1.4462-1.2917,0-2.34-.6479-2.34-1.4462 0-.7983 1.0483-1.4462 2.34-1.4462 1.2917,0 2.34,.6479 2.34,1.4462zm9.7901-1.2148c0,.9609-1.2618,1.7408-2.8166,1.7408-1.5548,0-2.8166-.7799-2.8166-1.7408 0-.9609 1.2618-1.7407 2.8166-1.7407 1.5548,0 2.8166,.7799 2.8166,1.7407zm19.2268,1.0991c0,.9727-1.1419,1.7622-2.5488,1.7622-1.4069,0-2.5488-.7895-2.5488-1.7622 0-.9727 1.1419-1.7622 2.5488-1.7622 1.407,0 2.5488,.7895 2.5488,1.7622zm-10.237-.4628c0,1.2293-1.1168,2.227-2.4929,2.227-1.3761,0-2.4929-.9977-2.4929-2.227 0-1.2293 1.1168-2.2269 2.4929-2.2269 1.3761,0 2.4929,.9977 2.4929,2.2269zm21.8333,.0578c0,1.0989-.9984,1.9907-2.2285,1.9907-1.2302,0-2.2285-.8918-2.2285-1.9907 0-1.0989 .9984-1.9907 2.2285-1.9907 1.2301,0 2.2285,.8918 2.2285,1.9907zm-6.6888,.4628c0,.7102-.6452,1.2865-1.4402,1.2865-.795,0-1.4402-.5763-1.4402-1.2865 0-.7101 .6452-1.2865 1.4402-1.2865 .795,0 1.4402,.5764 1.4402,1.2865zm13.0252,.5206c0,1.0202-.7272,1.8482-1.6232,1.8482-.896,0-1.6232-.828-1.6232-1.8482 0-1.0202 .7272-1.8482 1.6232-1.8482 .896,0 1.6232,.828 1.6232,1.8482z"/>
</g>
</g>
<use width="509" height="420" xlink:href="#g3357" transform="matrix(-1 0 0 1 508.23774 0)"/>
</g>
<g fill-rule="evenodd">
<g stroke="#000" transform="matrix(.18594 0 0 .17938 202.67919 112.28368)">
<g fill="#f1b517">
<path d="m259.5847,302.431c0,0 6.3928-55.4385 6.3774-79.3011-.0122-18.7789-4.3774-60.4005-4.3774-60.4005h-18.3774c0,0-2.7967,41.4141-2.3774,60.1442 .5344,23.8694 6.3774,79.5574 6.3774,79.5574h12.3774z"/>
<path d="m241.9883,165.3969h21.2956l-2.5001-14.8614h-15.436l-3.3594,14.8614z"/>
<path d="m243.352,153.4824h19.0308l-3.5872-14.8614h-11.7218l-3.7218,14.8614z"/>
<path d="m244.575,141.4338h15.8601l-2.6813-14.8614h-10.0911l-3.0877,14.8614z"/>
<path d="m258.3125,124.8125h-11.0938l-1.125,5.375h13.125l-.9062-5.375z"/>
</g>
<g fill="none">
<path d="m260.587,290.3471h-14.0927"/>
<path d="m261.3585,279.4915h-15.814"/>
<path d="m263.4486,268.475h-20.0435"/>
<path d="m264.4814,256.475h-20.978"/>
<path d="m264.629,244.475h-22.06"/>
<path d="m265.4896,233.5077h-23.9288"/>
<path d="m265.5388,223.5241h-25.0108"/>
<path d="m265.3913,211.4749h-25.0108"/>
<path d="m264.5552,199.5732h-24.1747"/>
<path d="m263.4486,187.4748h-21.8632"/>
<path d="m262.3913,176.5568h-19.7485"/>
</g>
</g>
<g transform="matrix(.18594 0 0 .17938 105.99226 112.28368)">
<g stroke-linecap="round">
<path fill="#0a328c" stroke="#0a328c" stroke-width="1.265" d="m773.625,297.875c-13.5078,0-24.4687,5.2625-24.4688,11.7188 0,1.1072 .3039,2.1722 .9062,3.1875 2.9212,3.5069 12.4061,6.0625 23.6562,6.0625 10.5236,0 19.4921-2.2452 23-5.4062 .8841-1.2083 1.375-2.4918 1.375-3.8438 0-6.4563-10.9609-11.7188-24.4688-11.7188z"/>
<path fill="#f1b517" stroke="#000" stroke-width="1.023" d="m798.311,310.4906c0,0 0,39.3463 0,39.3463 0,4.6134-11.0169,8.3576-24.5914,8.3576-13.5744,0-24.5914-3.7442-24.5914-8.3576 0,0 0-39.3463 0-39.3463 0,4.6134 11.0169,8.3576 24.5914,8.3576 13.5744,0 24.5914-3.7442 24.5914-8.3576z"/>
</g>
<path fill="#d20014" stroke="#d20014" d="m749.125,310.5c0,0 0,4.4655 0,6.0312l11.9375,38.1562 9.5312-29.3438 10.4688,30.4688 7.6601-28.7586 9.5899,19.3332c0,0 0-10.6995 0-10.6995l-8.9062-18.75c-.9991,.282-2.0643,.5238-3.1875,.75l-5.5312,21.25-7.7812-20.0938c-1.3031-.0146-2.5995-.044-3.8438-.125l-7.8125,20.2188-8.9375-24.3438c-2.0199-1.2133-3.1875-2.6012-3.1875-4.0938z"/>
</g>
<g stroke-linecap="round" stroke-width="1.023" transform="matrix(.18594 0 0 .17938 105.99226 112.28368)">
<path fill="#0a328c" stroke="#0a328c" d="m798.311,342.4906c0,0 0,7.3463 0,7.3463 0,4.6134-11.0169,8.3576-24.5914,8.3576-13.5744,0-24.5914-3.7442-24.5914-8.3576 0,0 0-7.3463 0-7.3463 0,4.6134 11.0169,8.3576 24.5914,8.3576 13.5744,0 24.5914-3.7442 24.5914-8.3576z"/>
<g fill="#f1b517" stroke="#000">
<path d="m263.8438,350.0938c-1.9994,.3083-4.1336,.5392-6.375,.6562l.0625,7.3438c2.242-.119 4.3764-.3458 6.375-.6562l-.0625-7.3438z" transform="translate(520)"/>
<path d="m237.6562,348.8125l-.0625,7.3125c1.8978,.5627 4.0323,1.03 6.375,1.375v-7.3438c-2.3151-.3409-4.4311-.79-6.3125-1.3438z" transform="translate(520)"/>
<path d="m229.125,342.5c0,0 0,7.3437 0,7.3438 0,1.37 .9971,2.6398 2.7188,3.7812l.125-7.25c-1.8068-1.1631-2.8438-2.4691-2.8438-3.875z" transform="translate(520)"/>
<path d="m278.3125,343.2812l-.125,.0312c-.4307,1.4911-2.0369,2.8741-4.4688,4.0312l.0312,7.3125c2.8523-1.3647 4.5625-3.0123 4.5625-4.8125 0,0 0-5.3143 0-6.5625z" transform="translate(520)"/>
</g>
</g>
<g transform="matrix(.18594 0 0 .17938 105.99226 112.28368)">
<g stroke-linecap="round">
<path fill="none" stroke="#000" stroke-width="1.023" d="m798.311,310.7475c0,0 0,39.0894 0,39.0894 0,4.6134-11.0169,8.3576-24.5914,8.3576-13.5744,0-24.5914-3.7442-24.5914-8.3576 0,0 0-39.0894 0-39.0894"/>
<path fill="#fff" stroke="#fff" stroke-width="1.569" d="m792.0629,307.5557c0,5.268-10.1015,9.5385-22.5622,9.5385-12.4608,0-22.5622-4.2705-22.5622-9.5385 0-5.268 10.1015-9.5385 22.5622-9.5385 12.4608,0 22.5622,4.2705 22.5622,9.5385z" transform="matrix(.84322 0 0 .53028 124.86448 144.83073)"/>
</g>
<g fill="#f1b517" stroke="#000">
<g stroke-linecap="round" stroke-width="1.265">
<path d="m247.5,311.6562l.8438,6.9688c1.6512,.1246 3.367,.2128 5.125,.2188l1.25-7.1875h-7.2188z" transform="translate(520)"/>
<path d="m269.5625,309.9688l-4.9062,1.375 .3125,6.5625c1.6683-.2929 3.2381-.6526 4.6562-1.0625l-.0625-6.875z" transform="translate(520)"/>
<path d="m240.5,299.3304c-1.3918,.4257-2.6935,.9212-3.875,1.4688l.6875,5.2634 3.125-1.0312 .0625-5.7009z" transform="translate(520)"/>
<path d="m253.625,297.2536c-.6544,0-1.296,.0383-1.9375,.0625l1.0625,6.592 3.25-.0625 1.2812-6.4357c-1.195-.0862-2.4114-.1562-3.6562-.1562z" transform="translate(520)"/>
<path d="m268,299.5812l-.6562,5.7625 3.7188,1.3625 .4062-5.6562c-1.0561-.5399-2.2178-1.0319-3.4688-1.4688z" transform="translate(520)"/>
</g>
<path d="m232.9506,315.0582l.9907-7.1781-5.0284-2.8226 .1495,8.1688 3.8881,1.8319z" transform="translate(520)"/>
<path d="m278.141,313.5101l.2243-7.1778-4.7105,1.458 4.4861,5.7198z" transform="translate(520)"/>
</g>
</g>
</g>
<g transform="matrix(.18594 0 0 .17938 202.67919 112.28368)">
<use width="509" fill="#016a16" height="420" xlink:href="#use3602" transform="matrix(1 0 0 -1 -.01216 534.0625)"/>
<g fill-rule="evenodd">
<path fill="#016a16" stroke="#fff" stroke-linecap="round" stroke-width=".564" d="m188.0758,269.236c0,2.5117-4.077,4.5502-9.1004,4.5502-5.0235,0-9.1004-2.0385-9.1004-4.5502 0,0 0-2.4687 0-2.4687 0,0 18.2009,0 18.2009,0 0,0 0,2.4687 0,2.4687z" transform="matrix(1.07456 0 0 2.88246 -10.21464 -500.30481)"/>
<path fill="#fff" d="m187.9925,267.2643c.0031,2.0955-2.7447,3.7953-6.1353,3.7953-3.3907,0-6.1385-1.6998-6.1353-3.7953-.0031-2.0955 2.7447-3.7953 6.1353-3.7953 3.3907,0 6.1385,1.6998 6.1353,3.7953z" transform="matrix(1.58293 0 0 1.31955 -105.76137 -86.31345)"/>
<path fill="#016a16" stroke="#f1b517" d="m179.8854,271.9944l-1.6684-18.3808h7.432l-1.2134,18.3808h-4.5502z"/>
</g>
<path fill="#016a16" fill-rule="evenodd" stroke="#fff" id="use3602" stroke-linecap="round" stroke-width="1.299" d="m192.8559,266.6562c-1.4251,2.7493-5.7042,4.75-10.75,4.75-5.0458-0-9.2936-2.0007-10.7188-4.75-.3289,.6345-.5312,1.3008-.5312,2 0,3.729 5.0398,6.75 11.25,6.75 6.2102,0 11.25-3.021 11.25-6.75 0-.6992-.1711-1.3655-.5-2z"/>
</g>
<g fill-rule="evenodd">
<g fill="#f1b517" stroke="#000" transform="matrix(.18594 0 0 .17938 105.99226 112.28368)">
<path d="m694.5312,304.6875l19.6562,2.0625 3.0625-18.0938-23.0625-2.4375"/>
<path d="m699.6608,285.48l-2.9414,21.3742 5.8828-.1961 2.3531-21.1781h-5.2945z"/>
</g>
<g transform="matrix(.18594 0 0 .17938 202.67919 112.28368)">
<g stroke="#000">
<path fill="#f1b517" d="m328.1073,266.1598c4.4684-.6383 11.0922,5.711 11.4901,13.5647 .3157,6.232-9.0964,5.9047-9.0964,5.9047-.4787,2.5534-5.6691,4.916-9.8943,5.1067-4.099,.185 1.1171-7.9793 1.1171-7.9793-2.5534-7.0217 .7979-15.3202 .7979-15.3202l5.5855-1.2767z"/>
<path fill="none" d="m321.7239,282.4375l4.3088-.1596c0,0 .3298,2.3031 1.1171,2.3938 .8468,.0975 1.7554-2.2342 1.7554-2.2342l6.543-.1596"/>
</g>
<path fill="#d20014" stroke="#f1b517" d="m330.5011,270.7878c3.6558-2.7396 .4515-8.2519-2.0746-8.2984 0,0-5.9047,.1596-5.9047,.1596-2.7827,.0596-7.4873,3.1924-6.8622,5.9047 .5451,2.3651 2.0765,3.4436 4.4684,3.0321 1.0862-.1869 3.3674-3.1405 4.4684-3.1917 1.4771-.0687 4.7213,3.2806 5.9047,2.3938z"/>
</g>
<g transform="matrix(.18594 0 0 .17938 202.67919 112.28368)">
<path fill="#0a328c" stroke="#0a328c" d="m254.0114,37.6852c-3.7016-1.8057-12.0761-7.3172-9.5917-10.6073 0,0 3.8367-6.7706 3.8367-6.7706 5.4353-12.6914-.0988-7.7743-.6771-11.7358-.5553-3.804 20.784-.8334 21.1018,7.7862 .0875,2.3744-1.5828,.9809-1.3541,14.5569 0,0-4.0624,8.1248-4.0624,8.1248-3.0384,.2935-6.6364-.0776-9.2532-1.3541z"/>
<path fill="#f1b517" stroke="#000" d="m256.6068,70.5227l-5.3037-4.6266 1.467-39.6082 5.1908,1.5798-1.3541,42.655z"/>
<path fill="#d20014" stroke="#d20014" d="m263.4903,38.8136c3.3299-2.02 5.5096-8.0442 3.4982-11.6229-5.4646-7.177-9.0015-4.2155-18.1679-7.4477-1.828,2.0182-5.6773,5.9017-4.8523,8.8018 12.0591,5.8847 7.3768,.8726 11.3668,1.6057 2.1509,.3952 3.5408,3.0386 8.1552,8.6631z"/>
</g>
</g>
<g transform="matrix(.18594 0 0 .17938 202.67919 112.28368)">
<path fill="#f1b517" fill-rule="evenodd" stroke="#000" d="m62.1875,348.8125c-3.3168,.4351-3.9313,4.3954-2.6875,8.0312-14.4477,4.2099-27.3549,9.6968-40.0938,13.4062-.5127-2.6396 6.3125-10.2813 6.3125-10.2812 1.8055,.9028 3.1562,5.1875 3.1562,5.1875 .4514-8.8018 8.8125-14.6563 8.8125-14.6562-4.9651-.6771-20.0695,5.3924-21.875,7.875 0,0 5.8472-.6771 6.75,0 0,0-11.5144,12.8868-12.0312,16.7188 1.7911,4.1873 21.6562,7.3125 21.6562,7.3125-.3135,1.084-5.8438,5.1875-5.8438,5.1875 7.9011,1.7988 19.8171-4.0024 23.375-7.5312 0,0-9.2939-.7943-16.5312-6.875 0,0 1.4924,3.7862 .5938,5.5938 0,0-11.2908-3.3742-12.4688-5.3125 .03-.1678 26.7082-7.329 39.625-11.1562 .4784,2.392 3.0431,6.9113 6.125,5.8438 2.0103-.6964 1.3734-4.826 .625-7.75 .7269,.647 1.6698,1.0312 2.7188,1.0312 2.2711,0 4.125-1.8227 4.125-4.0938 0-2.2711-1.8539-4.125-4.125-4.125-1.8162,0-3.3299,1.1788-3.875,2.8125-.5143-2.5239-1.8561-7.5451-4.3438-7.2188zm10.1578,8.5169c0,1.0624-.8622,1.9246-1.9246,1.9246-1.0624,0-1.9246-.8622-1.9246-1.9246 0-1.0624 .8622-1.9246 1.9246-1.9246 1.0624,0 1.9246,.8622 1.9246,1.9246z"/>
</g>
<g fill-rule="evenodd">
<g fill="#f1b517" stroke="#000" transform="matrix(.18594 0 0 .17938 202.67919 112.28368)">
<path d="m486.127,365.6988c.984-2.0436-.8703-12.3299-.8703-12.3299-2.0054,.2308-4.7445,3.7971-4.7445,3.7971 2.5863-8.4254-4.6526-22.5078-4.6526-22.5078 4.8973,1.0619 21.2192,17.439 22.0667,20.3894 0,0-7.1477-2.6432-8.2276-2.3157 1.1658,8.3938 6.7659,12.2945 8.8695,16.6582 0,0-9.2811,2.1126-8.3485,10.1566l-6.0622,.1166c-2.0984-2.6813 .8161-7.1114 .8161-7.1114l-41.6191-18.0699c-2.6813-1.1658-8.7148-4.0034-7.8109-7.3446 .9114-3.3687 10.842,1.399 13.2901,2.215l37.2932,16.3464z"/>
<path d="m446.1525,358.2125l4.8964-9.3264c1.7487-2.4482-1.8653-5.1295-4.43-1.9819l-5.4793,8.5104c-2.4482,4.6632 2.6814,5.9456 5.0129,2.7979z"/>
</g>
<g fill="#fff" stroke="#000" transform="matrix(.18594 0 0 .17938 202.67919 112.28368)">
<path d="m154.2878,379.5348l-.3391-10.1728-11.8683,.6782-.6782,11.0771 12.8856-1.5824z"/>
<path d="m67.5395,393.7961l-15.8699-9.2267c65.4452,6.2167 78.8102-17.4439 94.6246-18.7095 9.7213-.787 11.2394,11.1598-7.598,5.4766l4.8715,12.4947c0,0-46.4594,27.09-92.1241,15.8999l16.096-5.9351z"/>
</g>
<g fill="#fff" stroke="#000" transform="matrix(-.18594 0 0 .17938 297.17799 112.28368)">
<path d="m155.5878,379.5348l-.3391-10.1728-14.5168,.3471-.6782,11.0771 15.5341-1.2514z"/>
<path d="m65.8228,391.2991l-14.9336-8.4464c74.9652,2.3151 57.8974-12.7619 95.4049-16.9927 9.6922-1.0887 16.9778,11.822-7.598,5.4766l4.8715,12.4947c0,0-11.7901,.0121-11.7901,.0121-25.5359,17.4298-59.9988,18.9858-82.8311,13.3907l16.8763-5.9351z"/>
</g>
</g>
<g transform="matrix(.18594 0 0 .17938 202.67919 112.28368)">
<path fill="#fff" fill-rule="evenodd" stroke="#000" d="m138.4306,371.4054l0,17.5836c0,0 41.5626,15.9851 115.7318,15.9851 74.4883,0 115.7318-15.9851 115.7318-15.9851v-17.5836c0,0-31.4572,15.026-115.7318,15.026-83.955,0-115.7318-15.026-115.7318-15.026z"/>
</g>
<g transform="matrix(.18594 0 0 .17938 202.67919 112.28368)">
<path line-height="100%" d="m144.6373,389.0861l3.6676-12.8736 1.7036,.4853-3.2347,11.3544 6.3402,1.8063-.4328,1.5192-8.0438-2.2916zm12.0277-5.661l.2047-2.5286 .5472-2.1691 1.815,.4578-.5472,2.1691-1.0369,2.3187-.9827-.2479zm17.8838-.8691l1.7358,.3534-1.5428,7.5784c-.2684,1.3182-.6306,2.3347-1.0867,3.0495-.4561,.7147-1.1228,1.2359-2.0002,1.5636-.8774,.3277-1.9484,.3628-3.2129,.1054-1.2288-.2501-2.1908-.6665-2.8859-1.2491-.6952-.5826-1.1281-1.309-1.2989-2.1793-.1707-.8703-.1146-2.0003 .1683-3.3902l1.5428-7.5784 1.7358,.3533-1.5409,7.5695c-.2319,1.1393-.297,2.0004-.1951,2.5833 .1018,.5829 .381,1.0731 .8375,1.4704 .4565,.3973 1.0575,.6719 1.8031,.8237 1.2765,.2599 2.245,.1557 2.9056-.3124 .6606-.4681 1.1584-1.5253 1.4936-3.1716l1.5409-7.5695zm1.9537,13.9931l2.1609-13.2103 1.7932,.2933 5.242,11.5067 1.6965-10.3718 1.6761,.2742-2.1608,13.2103-1.7932-.2933-5.2405-11.5157-1.698,10.3808-1.6761-.2742zm13.6668,2.1388l1.8379-13.2591 1.7546,.2432-1.8379,13.2591-1.7546-.2432zm5.0415-5.8481c.2522-2.2075 1.0424-3.8679 2.3705-4.9814 1.3281-1.1134 2.9295-1.563 4.8044-1.3488 1.2277,.1403 2.301,.5601 3.2198,1.2593 .9188,.6993 1.5767,1.6031 1.974,2.7115 .3972,1.1084 .5198,2.3279 .3678,3.6584-.1541,1.3487-.5641,2.5241-1.2301,3.5264-.6659,1.0022-1.5291,1.72-2.5896,2.1533-1.0604,.4333-2.1682,.584-3.3234,.452-1.2519-.143-2.3362-.5733-3.2529-1.2907-.9167-.7174-1.5693-1.6283-1.9578-2.7326-.3885-1.1043-.516-2.2401-.3827-3.4074zm1.8113,.2345c-.1831,1.6027 .1035,2.9144 .86,3.9352 .7564,1.0208 1.7848,1.6055 3.0851,1.754 1.3245,.1513 2.4678-.1898 3.43-1.0234 .9622-.8336 1.5411-2.1062 1.7366-3.8177 .1237-1.0826 .0487-2.0485-.2249-2.8977-.2737-.8492-.7374-1.5363-1.3911-2.0613-.6538-.525-1.4192-.8376-2.2961-.9378-1.2459-.1423-2.3667,.1631-3.3626,.9162-.9959,.7532-1.6082,2.1307-1.8369,4.1325zm12.4153,7.8947l1.0907-13.3413 1.811,.1481 6.151,11.0476 .8563-10.4747 1.6927,.1384-1.0907,13.3413-1.811-.1481-6.1503-11.0566-.8571,10.4838-1.6927-.1384zm18.7657,1.3526l.5845-13.3731 9.0218,.3943-.069,1.5781-7.2521-.317-.181,4.1415 6.276,.2743-.069,1.5781-6.276-.2743-.2655,6.0754-1.7697-.0774zm9.8611,.4367l5.3988-13.2838 1.908,.0369 5.2184,13.4894-2.0175-.0391-1.4826-4.0836-5.5962-.1083-1.5483,4.0249-1.8806-.0364zm3.968-5.421l4.5372,.0878-1.325-3.7335c-.4042-1.1342-.7028-2.0654-.8957-2.7936-.187,.8548-.4439,1.7022-.7707,2.5422l-1.5458,3.8971zm10.2922,5.6343l.0258-13.3858 1.7714,.0034-.0258,13.3858-1.7714-.0034zm8.2933-.0369l-.1683-11.805-4.4098,.0629-.0225-1.5795 10.609-.1513 .0225,1.5795-4.428,.0631 .1683,11.805-1.7712,.0252zm13.1348-.3215l-.626-13.3712 1.7695-.0828 .5521,11.7933 6.5853-.3083 .0739,1.5779-8.3547,.3911zm9.007-.4068l4.1764-13.7173 1.9035-.1356 6.4159,12.9627-2.0128,.1434-1.8455-3.9329-5.5831,.3977-1.1783,4.1483-1.8762,.1337zm3.462-5.7574l4.5266-.3225-1.6569-3.5985c-.5051-1.093-.8865-1.9934-1.1445-2.7013-.109,.8682-.2883,1.7354-.5378,2.6014l-1.1873,4.0208zm15.7136,4.2262l-1.468-13.3051 8.976-.9904 .1732,1.5701-7.2152,.7961 .4546,4.1204 6.2441-.6889 .1732,1.5701-6.2441,.6889 .6669,6.0445-1.7607,.1943zm9.8157-7.6386c-.3139-2.1995 .0309-4.0058 1.0344-5.4188 1.0035-1.413 2.4393-2.2528 4.3075-2.5194 1.2233-.1746 2.3678-.0397 3.4335,.4047 1.0657,.4444 1.9308,1.1525 2.5952,2.1245 .6644,.972 1.0913,2.1209 1.2805,3.4466 .1918,1.3438 .0922,2.5848-.2988,3.7228-.391,1.138-1.0447,2.0507-1.9612,2.7379-.9165,.6873-1.9502,1.113-3.1012,1.2773-1.2474,.178-2.4053,.0358-3.4735-.4266-1.0683-.4624-1.9299-1.1788-2.5849-2.1491-.655-.9703-1.0655-2.0369-1.2315-3.2zm1.8117-.2309c.2279,1.5969 .8368,2.7936 1.8267,3.5901 .9899,.7964 2.1326,1.1022 3.4283,.9173 1.3197-.1883 2.3397-.8074 3.06-1.8571 .7203-1.0497 .9587-2.4273 .7153-4.1327-.154-1.0787-.4706-1.9942-.95-2.7467-.4794-.7525-1.1017-1.3-1.867-1.6428-.7653-.3427-1.5848-.4517-2.4586-.327-1.2414,.1772-2.2487,.756-3.0219,1.7364-.7732,.9804-1.0174,2.468-.7328,4.4626zm14.0574,4.4933l-2.3906-13.1706 5.8396-1.06c1.1739-.2131 2.0878-.2568 2.7417-.1311 .6538,.1257 1.2178,.4549 1.6919,.9875 .474,.5326 .7769,1.1613 .9084,1.886 .1696,.9343 .0101,1.7769-.4785,2.5275-.4886,.7507-1.349,1.3275-2.5813,1.7306 .5014,.1379 .8915,.2929 1.1702,.465 .5939,.3748 1.182,.8712 1.7644,1.4894l2.9416,3.1688-2.1921,.3979-2.2403-2.4238c-.6526-.6982-1.1817-1.227-1.5872-1.5865-.4055-.3595-.7538-.5994-1.0447-.7198-.291-.1204-.5772-.1891-.8587-.2061-.2053-.006-.5325,.0317-.9817,.1132l-2.0214,.3669 1.0616,5.8486-1.7429,.3164zm.4074-7.6743l3.7464-.68c.7966-.1446 1.4045-.34 1.8238-.5863 .4193-.2462 .7129-.5717 .8807-.9765 .1678-.4047 .2131-.8197 .1359-1.245-.1131-.6229-.4321-1.0939-.9571-1.4131-.525-.3192-1.2757-.3902-2.252-.213l-4.1686,.7567 .7909,4.3573zm21.1424-1.4587l1.8264,.0475c-.0428,1.5009-.4509,2.7299-1.2243,3.6871-.7735,.9572-1.8402,1.5889-3.2002,1.895-1.4075,.3168-2.6166,.288-3.6275-.0866-1.0109-.3745-1.8688-1.0534-2.5737-2.0366-.7049-.9831-1.1977-2.0983-1.4785-3.3454-.3062-1.3599-.3134-2.6047-.0217-3.7342 .2917-1.1295 .8579-2.065 1.6987-2.8065 .8408-.7415 1.8372-1.2419 2.9893-1.5013 1.3065-.2941 2.48-.2089 3.5205,.2557 1.0405,.4646 1.8717,1.2602 2.4934,2.3869l-1.6112,.7839c-.5168-.882-1.112-1.4749-1.7856-1.7788-.6737-.3038-1.447-.3575-2.3199-.161-1.0036,.226-1.7883,.6553-2.3541,1.288-.5657,.6328-.894,1.3852-.9846,2.2573-.0907,.8721-.0391,1.7387 .1547,2.5998 .25,1.1105 .6301,2.0436 1.1402,2.7992 .5102,.7556 1.1528,1.2614 1.928,1.5174 .7752,.256 1.5607,.2945 2.3564,.1153 .968-.2179 1.7247-.6815 2.2701-1.3908 .5454-.7093 .8132-1.64 .8034-2.7921zm4.9203,3.6396l-3.5995-12.8928 9.3222-2.6026 .4248,1.5215-7.6161,2.1263 1.1024,3.9488 7.1324-1.9913 .4223,1.5127-7.1324,1.9913 1.2252,4.3885 7.9151-2.2098 .4248,1.5215-9.6212,2.6861z"/>
<path fill="none" fill-rule="evenodd" d="m138.4306,386.989c0,0 41.5626,15.9851 115.7318,15.9851 74.4883,0 115.7318-15.9851 115.7318-15.9851"/>
</g>
</svg>
