<!DOCTYPE svg>
<svg width="900" xmlns="http://www.w3.org/2000/svg" height="600" viewBox="-120 -80 240 160" xmlns:xlink="http://www.w3.org/1999/xlink">
<defs>
<path id="spearshape" d="m-1,55.4256h2v-93.4256c2-2 2-5 2-8 0-2 0-10-3-18.6632-3,8.6632-3,16.6632-3,18.6632 0,3 0,6 2,8z" transform="rotate(30)" stroke-miterlimit="10"/>
</defs>
<path fill="#fff" d="m-120-80h240v160h-240z"/>
<path d="m-120-80h240v48h-240z"/>
<path fill="#060" d="m-120,32h240v48h-240z"/>
<g id="spear">
<use xlink:href="#spearshape"/>
<use fill="#fff" xlink:href="#spearshape"/>
</g>
<use xlink:href="#spear" transform="scale(-1 1)"/>
<path fill="#b00" d="m-120-24v48h101c3,8 13,24 19,24s16-16 19-24h101v-48h-101c-3-8-13-24-19-24s-16,16-19,24z"/>
<path id="deco_r" d="m19,24c3-8 5-16 5-24s-2-16-5-24c-3,8-5,16-5,24s2,16 5,24"/>
<use xlink:href="#deco_r" transform="scale(-1 1)"/>
<g fill="#fff">
<ellipse rx="4" ry="6"/>
<path id="deco_br" d="m1,5.85c0,0 4,8 4,21s-4,21-4,21z"/>
<use xlink:href="#deco_br" transform="scale(-1)"/>
<use xlink:href="#deco_br" transform="scale(-1 1)"/>
<use xlink:href="#deco_br" transform="scale(1 -1)"/>
</g>
</svg>
