<svg xmlns="http://www.w3.org/2000/svg" viewBox="0 0 600 300" xmlns:xlink="http://www.w3.org/1999/xlink">
<path fill="#ce1126" d="m0,0h600v300h-600z"/>
<g fill="#fcd116" stroke="#bd9c08">
<g fill-rule="evenodd" stroke-width="1.875">
<path d="m349.3904,141.2911c8.7581,2.3467 22.0129,1.7631 27.9632,8.7088-8.7581-2.3467-19.5509,11.81-27.9632,8.7088 7.4273,5.2007-108.0433,0-98.781,0-8.7581-2.3467-22.0129-1.7631-27.9632-8.7088 8.7581,2.3467 19.5509-11.81 27.9632-8.7088-7.4273-5.2007-20.3128-9.2274-23.2982-17.7477 7.4273,5.2006 22.5363-4.4479 29.2554,1.3803-5.2006-7.4273-16.0696-15.5787-15.8231-24.6458 5.2006,7.4273 22.7046,3.4507 27.019,11.3031-2.3467-8.7581-9.4146-20.051-6.4395-28.5713 2.3467,8.7581 19.9759,10.933 21.5237,19.8624 .7903-9.0325-2.3978-22.1049 3.7208-29.0506-.7902,9.0326 15.1324,17.0968 13.4324,26.0261 3.8319-8.2176 5.9503-21.4926 13.4323-26.0261-3.8319,8.2176 8.6687,21.1983 3.7208,29.0506 6.4114-6.4113 12.5983-18.2879 21.5237-19.8624-6.4114,6.4114 .425,22.7431-6.4395,28.5713 8.2176-3.832 17.915-12.8775 27.019-11.3031-8.2175,3.832-7.4039,21.5447-15.8231,24.6458 9.0326-.7903 21.1698-5.9139 29.2554-1.3803-9.0325,.7902-14.0359,17.7477-23.2982,17.7477z"/>
<path d="m258.3591,150.0018l-31.5867-12.9117 34.0979-1.3297-25.2658-22.9363 32.4963,10.4126-15.8974-30.1945 26.9752,20.8991-4.6115-33.8107 18.2005,28.8648 7.2305-33.3489 7.2305,33.3489 18.2005-28.8648-4.6115,33.8107 26.9752-20.8991-15.8974,30.1945 32.4963-10.4126-25.2658,22.9363 34.0979,1.3297-31.5867,12.9117 31.5867,12.9117h-146.4514l31.5867-12.9117z"/>
</g>
<path stroke-linecap="round" stroke-width="1.874" d="m341.3575,150c0,22.8411-18.5164,41.3576-41.3576,41.3576-22.8412,0-41.3576-18.5164-41.3576-41.3576 0-22.8412 18.5164-41.3576 41.3576-41.3576 22.8412,0 41.3576,18.5164 41.3576,41.3576z"/>
</g>
<path fill="#003f87" d="m0,165h600v135h-600z"/>
<path fill="#fff" fill-rule="evenodd" id="path6138" d="m-0,257.1427c20,0 40,12.8571 60,12.8571 20,0 40-12.8571 60-12.8571 20,0 40,12.8571 60,12.8571 20,0 40-12.8571 60-12.8571 20,0 40,12.8571 60,12.8571 20,0 40-12.8571 60-12.8571 20,0 40,12.8571 60,12.8571 20,0 40-12.8571 60-12.8571 20,0 40,12.8571 60,12.8571 20,0 40-12.8571 60-12.8571v-21.4286c-20,0-40,12.8571-60,12.8571-20,0-40-12.8571-60-12.8571-20,0-40,12.8571-60,12.8571-20,0-40-12.8571-60-12.8571-20,0-40,12.8571-60,12.8571-20,0-40-12.8571-60-12.8571-20,0-40,12.8571-60,12.8571-20,0-40-12.8571-60-12.8571-20,0-40,12.8571-60,12.8571-20,0-40-12.8571-60-12.8571l-0,21.4286z"/>
<g stroke="#bd9c08">
<g fill-rule="evenodd" stroke-width="1.875">
<g fill="#fcd116">
<path d="m313.6001,49.8623l22.1779,.1467c.1417-.9376-1.9029-2.8048-3.6441-3.0783-5.6155-.8819-9.8256,.936-16.6403,1.0059l-1.8935,1.9256z"/>
<path d="m269.4305,44.6432c5.208,6.5802 15.3052,11.1526 24.9518,11.2124 13.0004,.0805 27.4133-10.4403 44.851-13.6616l-56.918-1.1717c-7.3643-5.0453-12.9519-4.4051-16.7628-1.2775l-10.882,.3289c-1.5406,.8389 1.2718,4.3429 3.5512,4.4712l11.2087,.0984z"/>
<path d="m295.1602,40.8677c-2.0703-9.5175-9.7064-13.6198-18.8913-14.837-10.6061-1.4055-35.0222-2.8466-51.2393-7.5047 7.0159,6.9009 21.7101,10.3463 31.9167,11.9041 10.8102,1.6499 21.3353,4.0543 29.6739,10.3514l8.5399,.0863z"/>
</g>
<g stroke-linecap="round">
<path fill="#fcd116" d="m288.267,47.2214c3.3941,4.3536 8.6564,4.1073 14.3132,.3089 5.6391-3.7865 11.7651-14.4476 14.7251-14.6221 20.6933-1.2025 45.7244-9.9357 57.6648-16.6816-15.137,2.1433-30.1433,4.573-45.411,4.6338-26.0499,.1037-29.1325,11.9672-39.7475,20.2856"/>
<path fill="none" d="m292.3086,42.1032c5.5531-3.5366 10.065-8.151 15.2632-12.0058 8.607-6.3827 18.5499-6.5693 29.2234-6.7009 9.4602-.1166 26.0458-4.0694 35.0424-6.1789"/>
</g>
<g fill="none" fill-opacity=".75">
<path d="m286.5341,40.4364c-1.639-8.5111-9.6043-11.0655-19.6676-12.5942-10.9501-1.6634-22.1172-2.5888-33.0381-5.607-2.7084-.7485-5.2332-2.0703-7.8498-3.1054"/>
<g stroke-linecap="round">
<path d="m290.0226,52.9831c10.2726,.7535 17.9079-2.3358 26.6735-6.7061"/>
<path d="m254.6313,41.8315h12.96"/>
</g>
</g>
</g>
<path fill="#bd9c08" stroke-linejoin="round" stroke-linecap="round" stroke-width=".814" d="m273.3703,40.4374c.0005,.8951-.7249,1.6209-1.62,1.6209-.8951,0-1.6205-.7259-1.62-1.6209-.0005-.8951 .7249-1.6209 1.62-1.6209 .8951,0 1.6205,.7259 1.62,1.6209z"/>
</g>
<use width="600" height="300" id="use2426" xlink:href="#path6138" transform="translate(0 -85.71425)"/>
<use width="600" height="300" xlink:href="#use2426" transform="translate(0 42.85713)"/>
</svg>
