<svg width="896" xmlns="http://www.w3.org/2000/svg" height="448" viewBox="0 0 224 112">
<defs>
<pattern width="99" height="16" patternUnits="userSpaceOnUse" id="str">
<path fill="#fff" d="m0,0h99v16h-99z"/>
<path fill="#dc241f" d="m0,0h99v8h-99z"/>
</pattern>
</defs>
<path fill="url(#str)" d="m0,0h224v112h-224z"/>
<path fill="#0035ad" d="m0,0h112v64h-112z"/>
<circle fill="#ffd100" cx="46" cy="32" r="24"/>
<circle fill="#0035ad" cx="51" cy="32" r="21"/>
<path fill="#ffd100" d="m70,52-1.7802-12.2006-6.8975,10.22 3.6898-11.7647-10.6487,6.2151 8.4288-8.9987-12.2908,.9793 11.4986-4.4504-11.4986-4.4504 12.2908,.9793-8.4288-8.9987 10.6487,6.2151-3.6898-11.7647 6.8975,10.22 1.7802-12.2006 1.7802,12.2006 6.8975-10.22-3.6898,11.7647 10.6487-6.2151-8.4288,8.9987 12.2908-.9793-11.4986,4.4504 11.4986,4.4504-12.2908-.9793 8.4288,8.9987-10.6487-6.2151 3.6898,11.7647-6.8975-10.22z"/>
</svg>
