<svg width="750" xmlns="http://www.w3.org/2000/svg" height="500" viewBox="0 0 75 50" xmlns:xlink="http://www.w3.org/1999/xlink">
<path fill="#21428e" d="m0,0h75v50h-75z"/>
<path fill="#fff" id="path8" d="m62.3,11.9c-2.4,1.1-4.3,2.7-4.3,3.5 0,.9 1.4118,.9182-.3595,1.4858-1.7713,.5676-6.2999,1.4638-9.5559,1.2661-1.0747,.0046-3.6581-.6977-4.407-.6037-.7489,.094 3.39,1.783 1.79,1.383-2.2-.6-3.4614-.8207-1.7614,.2793 1.3,.8 4.168,.8369 8.268,.3369 1.65-.2 5.7929-1.1939 7.3151-1.3205 1.052-.0875 .971,.7232 1.621,.7732 5.4,.3 14.9896,.1 19.1896-.5 3.5-.5 4.8-.3 5.8,.9 2,2.3-.1,4.3-5.8,5.5-7,1.5-9.9,2.8-12.6,5.7-6.5,7 1.1,14.9 15.3,16 8.3,.7 13.7,2.3 12.4,3.6-.5,.5-6,1.3-12.3,1.8-13.7,1.1-19.8,3-25,8-2.9,2.8-3.9,4.5-3.9,6.8 0,3.2 0,3.2-5.3,3.2-2.8,0-6.7-.4-8.5-1-2.8-.7-3.2-.7-2.2,.5 2,2.4 7.7,4.5 12.4,4.5 3.6,0 5.6,.7 8.8,3 6.4,4.7 13.7,6.5 25.8,6.4 15.9-.1 25-4.3 25-11.4 0-5.3-6-8.4-18.5-9.5-6.3-.6-18.7,.4-24.1,2-1,.3 .1-.4 2.5-1.6 2.9-1.4 7.7-2.4 14.2-3 14.4-1.2 20.9-4.4 20.9-10.4 0-5.8-6.4-9.1-20.1-10.4-13.5-1.2-14.5-3.6-3.1-7.1 8.1-2.4 12.2-6 12.2-10.9 0-7.5-4.1-10-17.8-10.7-8.3-.4-10.3-.2-13.9,1.5zm7.2,2.1c-.3,.5-1.1,1-1.6,1-.6,0-.7-.5-.4-1 .3-.6 1.1-1 1.6-1 .6,0 .7,.4 .4,1zm28.9,56c1.9,.7 2.6,1.4 2,2-1.7,1.7-12.7,3.2-19.4,2.7-7.4-.7-15.4-3.1-13-4.1 6.7-2.6 24.3-2.9 30.4-.6z" transform="matrix(.23001 0 0 .23034 -.02592 -.09549)"/>
<g fill="#fff">
<path d="m0,21.375h75v7.25h-75z"/>
<path d="m33.875,0h7.25v50h-7.25z"/>
</g>
<use width="75" height="50" xlink:href="#path8" transform="translate(41.125)"/>
<use width="75" height="50" xlink:href="#path8" transform="translate(41.125 28.625)"/>
<use width="75" height="50" xlink:href="#path8" transform="translate(0 28.625)"/>
</svg>
