<svg xmlns="http://www.w3.org/2000/svg" viewBox="0 0 900 600">
<g fill-rule="evenodd" stroke-width="1.25">
<path d="m0,206.25h900v187.5h-900z" transform="matrix(1 0 0 3.2 0 -660)"/>
<path fill="#fff" d="m0,187.457h900v18.772h-900z" transform="matrix(1 0 0 10.98745 0 -2059.676)"/>
<path fill="#007168" d="m0,0h900v187.5h-900z"/>
<path fill="#fff" d="m0,393.728h900v18.772h-900z" transform="matrix(1 0 0 11.00077 0 -3937.817)"/>
<path fill="#fce100" d="m0,412.5h900v187.5h-900z"/>
<path fill="#d21034" d="m0,0v600l393.75-300-393.75-300z"/>
<path fill="#fce100" d="m189.546,214.5687l-60.7603-42.5724-58.8552,45.0744 21.7128-70.9421-61.0555-42.0458 74.1796-1.2722 21.1208-71.0601 24.1327,70.1559 74.1089-1.8717-59.2648,44.6309 24.681,69.9033z" transform="matrix(1.22179 .02543 -.02543 1.22179 -21.7604 145.5065)"/>
<g stroke="#000">
<g stroke-linejoin="round" stroke-linecap="round">
<path fill="#fff" d="m77.1122,167.913h41.8338c3.366,3.776 10.876,5.316 18.029-.045 13.112-7.18 38.479,.045 38.479,.045l4.995-5.307-12.176-39.961-4.371-4.683c0,0-9.365-5.619-27.161-3.746-17.795,1.873-24.039-.624-24.039-.624 0,0-15.6093,1.873-19.9801,4.058-.4805,.389-4.9951,4.995-4.9951,4.995l-10.6146,45.268z" transform="matrix(1.25972 0 0 1.25972 -29.41569 140.9042)"/>
<path fill="none" d="m85.5415,157.611c0,0 39.9605-4.995 51.5125,10.302-6.524,4.464-12.268,4.832-18.42,.313 .98-1.633 14.361-15.61 48.39-10.927" transform="matrix(1.25972 0 0 1.25972 -29.41569 140.9042)"/>
</g>
<g fill="none">
<path d="m128.312,117.65l-.312,44.02" transform="matrix(1.25972 0 0 1.25972 -29.41569 140.9042)"/>
<path d="m163.902,118.274l7.493,34.966" transform="matrix(1.25972 0 0 1.25972 -29.41569 140.9042)"/>
</g>
<g stroke-linejoin="round" stroke-linecap="round">
<path fill="none" d="m93.1339,117.725l-4.1583,18.032" transform="matrix(1.25972 0 0 1.25972 -29.41569 140.9042)"/>
<path d="m49.9417,172.706l9.8382,11.535c1.1553,.689 2.1815,.645 3.2077,0l14.5805-17.496 6.1238-7.582c.9482-1.123 1.2509-2.376 1.1664-3.499l11.7074-10.403c.9577,.066 1.5281,.174 2.4858,.239-1.1315-.293-1.9617-.844-1.0708-2.084l2.6243-2.041 2.041,2.624c0,0-2.9156,3.791-3.2072,3.791-.2916,0-3.2077,0-3.2077,0l-6.1238,5.541 2.677,2.366 4.03,11.048 4.9577-3.5-3.2081-11.372 6.9991-7.582-2.625-4.083 1.75-2.333c0,0 24.222,15.25 33.554,11.168 .252,.091 .564-10.876 .564-10.876 0,0-25.078-2.624-25.662-7.582-.583-4.957 5.541-5.54 5.541-5.54l-2.625-3.791 .584-2.042 4.374,5.541 9.915-8.457 58.321,66.487c3.184-1.291 3.864-2.07 4.083-5.249-.082-.08-57.155-65.612-57.155-65.612l4.374-4.665c.862-.972 1.165-1.385 1.166-2.917l6.707-5.8318c2.017,.6929 3.303,1.9018 4.374,3.4988l18.439-15.6269c.486,.486 1.962,.972 2.964,.4254l30.485-29.2613-33.225,23.4674-1.166-.8748c0-.9721 1.205-1.2125 0-2.9161-1.291-1.5491-3.208,1.4581-3.499,1.4581-.292,0-4.809-1.5964-5.799-3.6188l-.325,5.3684-8.457,7.8735-6.415-.2916-9.332,9.0398-1.166,3.4989 1.458,2.917c0,0-4.958,4.374-4.958,4.082 0-.291-1.002-1.289-1.045-1.418l4.253-3.831 .583-2.6243-1.419-2.2158c-.43,.3125-5.871,6.0071-6.163,5.4231-.486-.544-15.746-17.7878-15.746-17.7878l.874-3.2077-9.914-10.7896c-3.6145-1.2479-9.3318-1.458-10.4982,6.4154-.9083,1.8493-8.4567,.2916-8.4567,.2916l-4.0825,.8749-23.0372,32.6602 12.8308,15.455 26.2449-33.2432 .7791-9.4176 5.5068,6.1573c1.836,.2359 3.585,.2566 5.249-.5832l15.549,17.3557-2.589,2.526c.875,.972 1.477,1.593 2.352,2.565 .875-.583 1.71-1.283 2.585-1.867 .292,.39 .778,1.129 1.07,1.518-1.303,.709-2.217,1.653-3.52,2.362-2.085-1.359-4.098-3.051-3.945-5.744l-8.748,7.29-.292,1.458-25.9529,21.579-2.3329,.292-.5832,6.707 16.9133-13.997v-2.042l1.7497,1.458 13.122-10.497c0,0 .875,1.166 .584,1.166-.292,0-11.665,10.498-11.665,10.498l-.291,1.166-2.0416,1.75-1.1665-.875-15.7469,13.997h-2.3328l-8.7483,8.749c-2.2564,.196-4.2116,.435-6.1238,1.749l-15.6704,13.835z" transform="matrix(1.25972 0 0 1.25972 -29.41569 140.9042)"/>
</g>
</g>
</g>
</svg>
