<svg xmlns="http://www.w3.org/2000/svg" viewBox="0 0 900 600">
<defs>
<clipPath id="r">
<path d="m0,0h900v600h-900z"/>
</clipPath>
</defs>
<path fill="#003580" d="m0,0h900l-900,600z"/>
<path fill="#009543" d="m0,600h900v-600z"/>
<path stroke="#fff" stroke-width="200" d="M 0,600 900,0" clip-path="url(#r)"/>
<path stroke="#d21034" stroke-width="150" d="M 0,600 900,0" clip-path="url(#r)"/>
<path fill="#ffce00" d="m679.3046,422.7036l-52.6804-9.0316 9.0316,52.6804-41.1068-34.1618-18.5186,50.1384-18.5186-50.1384-41.1068,34.1618 9.0316-52.6804-52.6804,9.0316 34.1618-41.1068-50.1384-18.5186 50.1384-18.5186-34.1618-41.1068 52.6804,9.0316-9.0316-52.6804 41.1068,34.1618 18.5186-50.1384 18.5186,50.1384 41.1068-34.1618-9.0316,52.6804 52.6804-9.0316-34.1618,41.1068 50.1384,18.5186-50.1384,18.5186 34.1618,41.1068z" transform="matrix(.83857 0 0 .83857 -303.0406 -139.4657)"/>
<path fill="#003580" d="m239.1926,161.7325a58.2843,58.2843 0 1,1 -116.5686,0 58.2843,58.2843 0 1,1 116.5686,0z" transform="matrix(1.02944 0 0 1.02944 -6.23374 -1.49345)"/>
<path fill="#ffce00" d="m231.6232,165.5172a52.9857,52.9857 0 1,1 -105.9714,0 52.9857,52.9857 0 1,1 105.9714,0z" transform="matrix(.94365 0 0 .94365 11.42854 8.80948)"/>
</svg>
