<svg xmlns="http://www.w3.org/2000/svg" viewBox="0 0 600 300" xmlns:xlink="http://www.w3.org/1999/xlink">
<path fill="#002b7f" d="m0,0h600v300h-600z"/>
<path fill="#ffc61e" d="m0,137.5h600v25h-600z"/>
<path fill="#fff" d="m150,262.5l-6.4705-25.8519-18.5295,19.1531 7.3223-25.6235-25.6236,7.3223 19.1532-18.5295-25.8519-6.4705 25.8519-6.4705-19.1532-18.5295 25.6236,7.3223-7.3223-25.6235 18.5295,19.1531 6.4705-25.8519 6.4705,25.8519 18.5295-19.1531-7.3223,25.6235 25.6236-7.3223-19.1532,18.5295 25.8519,6.4705-25.8519,6.4705 19.1532,18.5295-25.6236-7.3223 7.3223,25.6235-18.5295-19.1531-6.4705,25.8519z"/>
</svg>
