<svg xmlns="http://www.w3.org/2000/svg" viewBox="0 0 900 450" xmlns:xlink="http://www.w3.org/1999/xlink">
<path fill="#009543" d="m0,0h900v450h-900z"/>
<path fill="#ed4135" d="m0,0h900v300h-900z"/>
<path fill="#0035ad" d="m0,0h900v150h-900z"/>
<g stroke="#000">
<circle fill="#fae600" cx="300" cy="225" r="147.48" stroke-width="5"/>
<path stroke-width="6" d="m275,247h50m-50-37h50m-25-132v252"/>
</g>
<path d="m240.62,360.419c60.191,24.58 116.608,1.51 116.608,1.51 0,0-21.297-23.048-32.214-32.047-10.653-8.778-41.991-8.431-52.685,0-8.924,7.038-34.52,32.97-31.709,30.537Z"/>
<ellipse cx="300" cy="293" rx="16.5" ry="24"/>
<ellipse cx="300" cy="228.5" rx="20" ry="12.66"/>
<ellipse cx="300" cy="170" rx="20" ry="20"/>
<path d="m324,95.5c-.006-.0134 1.733,2.8708-1.913,9.436-17.426,31.383-34.913,32.061-38.232,34.764-3.658,2.978-5.202,2.774-5.202,2.774 .261-2.688 .504-13.679 .695-14.738 2.645-14.663 24.796-14.461 42.132-29.4755 2.708-2.3455 2.514-2.7739 2.514-2.7739Z"/>
<g id="leaf">
<path d="m265.5,163c0,0 3.9144,11.2297 4.5,22.5 .9352,17.9966 18.1803,18.5 30,18.5v-10c-8.8585,0-16.5527-1.3166-23-14.5-3.1805-6.5034-11.5-16.5-11.5-16.5z"/>
<path d="m265,308c0,0 6.2964-7.7654 13.6619-25.9746 3.8429-9.5005 12.9496-15.0254 21.3381-15.0254v-14c-19.0276,0-28.1503,7.0552-29.1128,17.3633-1.9774,21.1776-5.8872,37.6367-5.8872,37.6367z"/>
</g>
<use xlink:href="#leaf" transform="translate(-1 1)"/>
</svg>
