<svg xmlns="http://www.w3.org/2000/svg" viewBox="0 0 768 576" xmlns:xlink="http://www.w3.org/1999/xlink">
<path d="m0,0h768v576h-768z"/>
<path fill="#ce1126" fill-rule="evenodd" d="m0,0h768v576l-768-576z"/>
<path fill="#fcd116" d="m475.4847,167.3535c-5.6722,7.3264-19.095-7.3697-35.175-7.7053-16.08-.3357-27.4707,15.4097-32.16,20.7703-4.6893,5.3607-19.7643,33.4997-19.4297,36.5147 .3347,3.015 9.3807-8.3747 12.7303-10.3847 .3347,4.02-3.6853,8.7103-2.6803,10.05 1.005,1.3397 11.7243-8.04 15.4097-8.3747 1.005,2.6803-2.01,5.3597-1.005,9.3797 1.3407,1.3397 7.3707-6.7003 11.3907-8.3747 .6693,3.015-3.6853,8.7103-1.3407,12.3947 1.6753,.3347 11.7243-11.3897 15.075-12.7303 3.3507-1.3407-1.6753,11.055 0,12.06 3.015-2.01 12.3957-12.7303 15.4107-14.07 3.015-1.3397-.3347,13.7353 1.005,13.7353 3.6843-2.6803 13.065-15.4097 14.07-17.4197 1.005-2.01-1.005,19.4297 9.3797,30.8203 10.3847,11.3907 26.131,24.4547 27.8053,24.4547 2.01-3.6853-.6693-11.3897 1.005-11.055 4.6893,5.025 13.3997,12.3947 15.4097,12.3947 2.01,0-1.3407-8.04 1.3397-8.04 5.3607,5.025 20.7703,24.7903 50.9203,33.8353-2.01-5.6953-6.3657-10.7203-6.7003-13.3997 2.01,.3347 9.046,3.6853 10.3857,3.3497 1.3397-.3357-14.7403-20.1-13.7353-22.7803 3.6853-.3347 5.3607,2.01 6.7003,.3347-1.6753-2.6793-15.7453-18.4247-15.7453-22.11 0-3.6853 4.3557,.6703 5.6953,0 1.3397-.6703-5.3597-14.7403-4.02-16.4147 1.3397-1.6743 16.079,9.045 19.7643,9.045 3.6853,0 1.005-13.065 2.6803-13.7353 1.6753-.6703 14.071,7.035 16.7503,7.035 2.6793,0 2.3447-5.6953 3.3497-5.025 1.005,.6703 30.15,29.8153 20.1,63.9853-10.05,24.4557-30.149,37.5207-59.6297,26.8003 1.6743,2.6803 17.4197,15.7453 34.5047,11.055 17.085-4.6903 37.8543-18.09 35.5097-51.5897-2.3447-33.4997-13.4007-38.19-15.075-43.215-1.6743-5.025 2.6813,1.3397 6.3657,2.6803 3.6843,1.3407-.6703-7.036-1.6753-10.7213-1.005-3.6853 11.055,7.7053 14.07,8.7103 3.015,1.005-7.035-27.4697-10.05-29.4797-3.015-2.01 3.015,.6693 5.025,1.3397 2.01,.6703-18.4257-31.155-22.7803-31.155-4.3547,0 3.6843-1.6753 6.03-1.6753 2.3457,0-23.4487-20.7703-27.8043-20.7703-4.3557,0 9.3787-5.3607 10.7193-5.6953 2.3457,.3347-29.8143-17.085-58.6247,.3347-1.6753-1.3387 13.5685-11.8912 14.07-16.4137 .1678-1.1728-5.024-3.6853-5.3597-5.025-.3357-1.3397 8.04-5.3597 8.3747-8.3747-2.01-2.6803-5.6953-1.6753-7.7053-2.3447-.5015-2.5125 7.036-8.7103 6.3657-11.3897-.5025-1.5075-6.031-2.01-7.3707-1.005-1.3397,1.005 3.5185-7.035 2.6803-9.3797-.6693-1.005-3.3497-.3347-6.03,.3347-1.6753-.3347 8.7103-14.7403 6.7003-16.7503-2.01-2.01-30.151,14.7393-40.5357,33.4997-10.3847,18.7603-2.3437,33.8353-3.6843,40.2-1.3407,6.3647-3.016,12.7303-7.3707,12.7303-4.3547,0-14.4037-6.7003-17.7543-10.05-3.3507-3.3497-4.02-5.6953-8.7103-7.035-4.6903-1.3397-15.4097,2.6803-19.4297,3.015-4.02,.3347-19.7653-3.015-20.7703-2.01-1.005,1.005 15.4097,7.035 19.095,9.045 3.6853,2.01 4.021,4.6903 6.7003,6.3647 2.6793,1.6743 27.8043,9.045 19.7643,19.4297zm98.1553,47.235c8.04,8.04 62.31,44.22 62.31,88.44 0,44.22-39.5307,42.8813-50.9203,41.5407 12.7303,10.7193 60.9703,8.7093 60.9703-41.5407 0-44.22-62.31-88.44-70.35-92.46-8.04-4.02-10.05-4.02-2.01,4.02z"/>
<use width="768" height="576" id="use2392" xlink:href="#use2390" transform="translate(-87.582 -104.504)"/>
<use width="768" height="576" xlink:href="#use2392" transform="translate(-88 112.504)"/>
<use width="768" height="576" id="use2390" xlink:href="#polygon5131" transform="translate(87.582 -160)"/>
<path fill="#fff" id="polygon5131" d="m192.54,176.394 8.4,28.84 29.018,0-22.91,17.626 8.401,28.038-22.909-17.625-22.909,16.823 8.4-27.236-22.909-17.626 28.254,0 9.164-28.84z" transform="translate(-.122 266.606)"/>
<path fill="#fff" d="m192.54,176.394 8.4,28.84 29.018,0-22.91,17.626 8.401,28.038-22.909-17.625-22.909,16.823 8.4-27.236-22.909-17.626 28.254,0 9.164-28.84z" transform="matrix(.5 0 0 .5 135.439 293.551)"/>
</svg>
