<svg xmlns="http://www.w3.org/2000/svg" viewBox="0 0 750 500">
<g fill-rule="evenodd">
<path fill="#009530" d="m0,0h750v500h-750z"/>
<g fill="#fff">
<path d="m189.0042,141.732c-.8658,11.681-1.905,32.2368 8.0202,34.3454 12.0045,1.1541 5.3854-20.318 9.7306-24.2116 .8215-1.9241 2.3364-1.9342 2.4614,.4929 0,6.0708 0,12.1426 0,18.2134-.1099,5.9226 3.7838,7.6674 6.8086,8.891 3.1478-.2429 5.2493-.1381 6.483,2.925 .4919,10.5017 .9848,21.0034 1.4766,31.5051 0,0 7.3005,2.0894 7.6482-17.7205 .3487-11.6316-2.3233-21.3683-.757-23.6311 .0554-2.2235 2.8948-2.3566 4.8643-1.273 3.1377,2.2134 4.5357,4.947 9.4121,3.8533 7.4204-2.0441 11.8805-5.6535 11.9904-11.3514-.4334-5.4146-1.0402-10.8303-3.3867-16.2449 .3276-.9848-1.4323-3.5358-1.1057-4.5206 1.3335,2.0884 3.3625,1.9151 3.8241,0-1.2629-4.1618-3.2224-8.1492-6.3994-9.8748-2.6257-2.3132-6.4679-1.8405-7.875,2.9835-.6521,5.5588 2.0038,12.1628 6.0517,17.5472 .8598,2.1036 2.0673,5.5991 1.5361,8.7469-2.154,1.2287-4.3079,.7166-6.1121-1.1884 0,0-5.9065-4.4299-5.9065-5.4146 1.5673-10.035 .3477-11.173-.5211-13.9579-.6068-3.8443-2.4312-5.077-3.9088-7.7027-1.4776-1.5663-3.4764-1.5663-4.4319,0-2.6105,4.5256-1.393,14.2411 .4929,18.5924 1.3627,4.0025 3.4451,6.5143 2.4614,6.5143-.8104,2.2618-2.4856,1.7397-3.7042-.8708-1.7397-5.3955-2.0884-13.4459-2.0884-17.0714-.5221-4.4944-1.0956-14.0809-4.0539-16.5171-1.8042-2.4573-4.4793-1.2589-5.4136,.9838-.1945,4.4611-.2147,8.9212 .2873,13.0326 2.029,7.2108 2.666,13.5507 3.6507,20.9348 .2731,9.8909-5.719,4.2918-5.4449-.6118 1.3819-6.3692 1.0231-16.3941-.2046-18.9351-.9737-2.541-2.1227-3.1679-4.4904-2.7497-1.8798-.1149-6.7169,5.1667-8.0746,13.9277 0,0-1.1581,4.5095-1.652,8.513-.6642,4.5246-3.6427,7.7178-5.7311-.636-1.8052-6.0718-2.915-21.0195-5.9378-17.5189z"/>
<path d="m221.6251,189.6544c-10.5934,5.1788-20.8391,10.0098-31.2601,15.0142 .381-7.0858 14.862-19.8765 24.7378-20.0569 6.4276,.1794 4.8129,2.4906 6.5224,5.0427z"/>
<path d="m261.528,123.5037c-.5958,.0753-1.2389,.4192-2.0159,.5985-2.5521,.8124-4.9432,3.0137-4.1892,7.3075 3.0168,18.3323 4.9837,32.3154 8.0005,50.6488 .4637,2.1469-1.3335,4.9825-3.6538,4.6932-3.9451-2.669-4.9223-8.0738-11.6543-7.843-4.8734,.0585-10.4558,5.3501-11.1503,10.4573-.8124,4.0589-1.1017,8.4609 0,12.0007 3.425,4.1184 7.553,3.7011 11.1503,2.7718 2.9583-1.2176 5.3804-4.1603 6.4256-3.4648 .0027,.0034 .0288-.0037 .0315,0 .0026,.0039-.0026,.0273 0,.0315 .6451,1.1276-.0769,10.6804-13.9536,18.0484-8.5281,3.8291-15.309,4.7265-18.9618-2.2364-2.2628-4.3513 .1847-20.9021-5.3862-17.0719-16.4747,42.4674 38.5747,48.3777 44.7272,1.7324 .3984-1.3159 1.6317-2.6231 2.4883-2.2994 .3759,.1601 .6952,.6519 .8189,1.6064-1.2771,42.2346-42.5901,45.1311-49.6094,31.8445-1.7397-3.1317-2.251-10.0907-2.4253-14.2686-.3182-2.5275-.9658-3.9901-1.7009-4.5672-1.6745-1.2582-3.9282,2.0213-4.4097,7.717-.6965,4.5831-.504,5.8596-.504,10.2683 2.2044,33.3587 55.3924,19.021 64.0355-8.536 4.2787-14.2459-.0765-25.0127 1.3544-26.3323 .0124-.0104 .0498-.0224 .063-.0315 .0136-.0084 .0485-.0245 .063-.0315 .0149-.0064 .0472-.0265 .063-.0315 .0487-.013 .1319-.0308 .189-.0315 5.2796,5.6868 12.6753,.7441 14.3001-1.2284 .6965-.9868 2.4362-1.6225 3.6538-.3465 4.1184,2.9603 11.3443,1.5673 12.8512-3.6538 .8709-5.1052 1.5895-10.3601 1.7639-15.812-2.6827,.8329-4.8299,1.444-5.7011,2.3623-.2075,.2266-.3642,.4839-.4095,.756-.2328,1.5089-.4601,3.0268-.6929,4.5357-.0249,.1247-.066,.2427-.126,.3465-.1144,.1852-.3073,.3597-.504,.4725-.9484,.5178-2.5921,.2125-2.6773-1.1654-1.276-5.8017-6.5418-6.5685-9.7329,2.4254-2.1469,1.7397-6.0499,2.0751-6.4571-.5355 .5221-6.0335-1.8997-6.8436-6.7721-4.0002-1.5663-11.9511-3.1259-23.3582-4.6932-35.3093 2.031-.0585 3.876,1.4383 5.7326-.8819-2.0092-6.2487-6.2349-18.9657-8.6305-20.1587-.0188-.0087-.0444-.0242-.063-.0315-.1088-.1305-.2402-.2534-.3465-.3465-.0442-.0375-.1135-.0943-.1575-.126-.0439-.0305-.1138-.0694-.1575-.0945-.0962-.0528-.2189-.0968-.315-.126-.2184-.0619-.4358-.0915-.6615-.063zm-14.8356,65.5789c1.0815-.133 2.3097,.2785 2.9293,1.8269 .4878,1.2428 .0186,2.5362-.567,3.1813-.0026,.005 .0027,.0266 0,.0315-.0085,.0144-.0217,.0496-.0315,.063-.4145,.534-1.8612,.315-2.8978,.315-1.2539-.0554-1.8614-.2714-2.6143-1.2914-.3598-1.1339 .7141-2.2412 1.1969-3.0868 .0046-.0079 .0266-.0236 .0315-.0315 .0524-.0788 .1397-.1753 .2205-.252 .375-.3435 1.0371-.6705 1.7324-.756z"/>
<path d="m298.5938,122.5312c-1.4216,.0725-2.6766,.4799-3.75,1.0312-2.7265,2.6106-3.3657,6.7957-1.2188,9.4062 2.0895,.9868 4.1742,3.0899 2.7812,4.25-5.9087,6.3111-21.2871,16.8568-22.0625,18.7812-.0055,.0157-.0279,.0481-.0312,.0625-.0023,.0138 .0002,.05 0,.0625 .0005,.0059-.001,.0256 0,.0312 .0048,.0159 .0214,.0496 .0312,.0625 .0038,.004 .0268,.0276 .0312,.0312 .005,.0033 .0257-.003 .0312,0 .0062,.0026 .0245,.029 .0312,.0312 .0073,.0019 .0233-.0016 .0312,0 .0023,.0022 .0286,.029 .0312,.0312 .7815,.5242 10.404,.5118 11.4688,.0312 .0077-.0041 .0248-.0271 .0312-.0312 .0029-.0021 .0286,.0021 .0312,0 .0023-.0021-.002-.0291 0-.0312 3.3071-1.2186 19-19.1562 19-19.1562-.8134-.6965-1.5626-1.2098-2.375-1.9062-.8709-.7539-.7832-1.4951 0-2.25 3.8866-2.2618 2.655-7.2382 .625-9.5-1.6827-.7545-3.2659-1.01-4.6875-.9375zm-.75,5.5625c.9598-.0978 2.1195,.7841 2.6875,2.0312 .6059,1.3303 .302,2.6014-.6875,2.8438-.9895,.2424-2.2691-.6384-2.875-1.9688-.6059-1.3303-.302-2.6327 .6875-2.875 .0618-.0152 .1235-.0247 .1875-.0312z"/>
<path d="m191.4414,219.7221c-5.8753,9.3597-6.3863,23.3428-3.1448,27.5116 1.7226,1.9695 4.5529,2.8323 6.6463,2.2154 3.6911-1.6006 5.3068-9.0795 4.4309-11.815-1.2317-1.9282-2.2023-2.2336-3.432-.5937-2.5974,5.2735-3.6759,1.656-3.9037-1.2912-.3981-5.589 .128-10.7365 .7348-14.8126 .6461-4.1779-.0111-2.9008-1.3315-1.2146z"/>
<path d="m442.5013,204.7341c-5.6807-12.2273-13.5447-24.3104-16.0474-28.952-2.5017-4.6436-21.3914-32.0574-24.1723-35.1407-6.1363-7.2924 9.9645,3.0369-2.037-11.4411-4.576-3.9259-4.8421-4.1648-8.64-7.368-1.9161-1.3597-6.5939-3.8433-7.4224,.2732-.4163,3.6296-.1915,5.5981 .4183,8.6199 .4677,2.0149 3.4028,5.3894 4.8462,7.3448 19.1649,25.7608 36.1587,51.7767 52.5468,84.4862 2.5874-1.2297 2.0219-15.7762 .508-17.8223z"/>
<path d="m417.5669,245.6442c-1.1168,1.2539 2.7577,6.6171 7.7934,6.6121 8.4213-.9777 15.8347-5.7079 22.6987-18.16 1.8354-2.9039 5.0618-9.1148 5.1566-13.9327 .6421-28.2474-1.4141-50.2275-5.6465-70.6432-.2711-1.9887-.1058-4.3261 .2308-4.9228 .5453-.6511 2.3949,.003 3.3756-1.6056 1.4393-1.4696-3.8221-13.6424-6.8217-18.3313-1.0654-2.0935-1.4363-3.4915-3.1992,.2459-1.8546,3.0379-3.1004,8.3387-2.9543,13.2917 4.0176,27.814 5.2514,52.1466 7.877,79.9616 .2137,2.6902-.1814,6.599-1.9695,8.1572-6.6141,6.9064-16.1602,15.4073-26.541,19.3272z"/>
<path d="m531.3287,245.495c-6.0436,3.4935-6.0506,7.5122-1.1642,7.6573 8.4213-.9777 18.3717-1.6772 25.2357-12.0398 1.8365-2.9039 4.0176-10.7567 4.1124-15.5746 .6421-28.2474-.3689-55.8751-4.6012-76.2908-.2711-1.9887-1.1511-6.5657-.8144-7.1624 .5453-1.398 3.2909,.1522 4.2716-1.4565 1.4393-1.4696-7.107-12.448-10.1066-17.1369-1.0654-2.0935-1.4363-3.4915-3.1992,.2459-1.8546,3.0379-2.5027,8.4878-1.7599,13.2917 4.4652,30.2028 7.7893,59.4371 8.4747,86.2069-.384,2.541-.4798,3.9108-1.6712,7.112-2.6357,3.3786-5.5557,7.6029-8.2943,9.6449-2.7375,2.0411-8.5785,3.9894-10.4835,5.5023z"/>
<path d="m535.8584,218.4199c-.0695-7.0636 .0998-13.1626-.133-18.4311-.2318-5.2685-2.6407-25.0455-3.451-29.3161-.8094-4.2696-1.6098-10.664-2.8334-15.7309-.3356-1.9786-1.3637-8.3155-1.0462-8.9233 .4989-1.4141 2.3989,.0444 3.3272-1.5946 1.3899-1.5149-4.821-17.5855-7.9718-22.1746-1.1329-2.0572-3.1901-1.3527-5.7271,1.9927-2.3525,2.2013-1.4796,7.2219-.5816,11.9985 6.0426,31.5343 10.5501,64.5919 9.5663,94.6103-.3014,2.5521 8.9132-7.6129 8.8507-12.4309z"/>
<path d="m491.2078,179.3039c-3.8009-.0695-11.7616-7.3962-14.0849-11.689-.8779-2.4624-.3145-4.8643 .4596-6.2714 1.4071-.9152 3.5721-1.9433 5.1909-.9575 0,0 1.6782,2.3485 1.3537,2.6468 2.0753,.9938 2.9563,.4223 3.1669-.4223 .1411-1.4776-.6138-2.3586-.6219-3.9864 .8799-4.4148 5.9257-5.1012 7.8256-2.286 1.391,1.7165 1.901,5.3632 2.1116,7.8256-.0222,1.2579-2.0592-.2177-3.2163,.0847-1.1581,.3034-1.4363,1.6389-1.526,2.8474-.2096,3.2012-.5886,8.3376-.6592,12.2081z"/>
<path d="m421.0685,226.2505c1.0473-9.5976-.387-29.1902-.4828-34.8537-.384-13.3794-2.5692-39.2208-3.6094-43.5378-1.1722-8.1381 3.3474,.893 2.7214-3.8372-1.4655-8.127-5.973-13.6354-11.2717-21.079-1.7085-2.4211-1.651-2.915-4.2888,.5937-2.919,6.6222-.3991,11.177 .3548,16.3336 3.8211,16.8023 6.0506,32.263 7.0888,47.5464 1.0382,15.2844 1.3567,34.3085 .4092,50.4052 2.8635,.1129 7.4678-4.6325 9.0785-11.5711z"/>
<path d="m548.7942,210.8775c-6.7018-11.2455-16.8154-24.4244-19.5177-28.9531-2.7013-4.5297-25.5532-38.0416-28.4651-41.0009-8.3598-8.7822 3.8342-1.4292-1.6006-8.2127-4.5962-5.0467-5.9368-6.6312-9.8707-9.6661-1.9725-1.275-3.168-3.7092-3.8161,.4395-.258,3.6447-.5272,7.8609-.2822,10.9331-.0141,1.7075 1.7639,4.9157 3.2909,6.8066 20.2686,24.9021 42.3757,55.3571 60.1728,87.3218 2.5319-1.3416 1.6903-15.6895 .0887-17.6681z"/>
<path d="m467.625,343.5938c-.0078,.0036-.0234,.0258-.0312,.0312-5.9277,1.521-5.7433,7.6749-1.9375,10.375-62.5939,0-158.6475-1.0625-179.25-1.0625-11.5247,0-47.987-1.375-48.6875-1.375 7.8196,11.4371 19.147,13.7661 33.9688,14 27.8017,0 156.6199-.3438 193.2812-.3438-2.6062,4.6275 .2364,12.074 2.2812,13.4375 .0434,.0279 .1137,.0715 .1562,.0938 .0763,.038 .1769,.0749 .25,.0938 .0242,.0056 .07-.0034 .0938,0 2.4271,.5725 3.4951-1.1846 4.3125-2.4688 3.9373,.347 26.0968,.6676 28.125-.0312 .0074-.0028 .0245-.0284 .0312-.0312 1.3718,2.0189 2.7332,3.9264 5.3438,3.5938 4.569-.9797 8.1674-1.477 8.2812-10.75 0,0-.467-15.8023-10.8438-14.8125-2.4553,.3709-9.3438,1.0625-9.3438,1.0625-7.9718-.9485-13.8187-1.0454-22.7812-1.375 .8272-1.0502 2.2878-5.3034 .5-6.8438-.4662-.3877-1.1617-.6035-2.125-.5312-.0069,.0005-.0244-.0001-.0312,0-.0136-.0007-.0492,.0023-.0625,0-.0066-.0016-.0248-.0293-.0312-.0312-.0257-.0093-.0692-.0161-.0938-.0312-.0486-.033-.1117-.1029-.1562-.1562-.011-.0139-.0517-.0475-.0625-.0625-.4532-.6599-.7007-2.2777-1-2.6875-.0035-.0045-.0277-.0271-.0312-.0312-.0036-.0034-.0276-.0282-.0312-.0312-.0109-.007-.0514-.0277-.0625-.0312-.0038-.0004-.0275-.0001-.0312,0-.0038,.0009-.0274-.0014-.0312,0zm4.25,22.5938c.0109-.005 .0202,.0048 .0312,0 9.1319,.4455 17.7118,.0857 26.8438,.5312 1.4473,1.2303 .7235,4.0484-.2188,4.5625-.0422,.0211-.1134,.051-.1562,.0625-.0344,.0076-.0905-.001-.125,0-.0345-.0007-.0905,.0077-.125,0-2.9694-.0746-4.6869-.1442-7.6562-.2188-.0052-.1477-.0215-.3071-.0625-.4375-.7037-2.0856-5.8008-1.9461-7-.3125-.0166,.0235-.0475,.0696-.0625,.0938-.0192,.0325-.0463,.0915-.0625,.125-.0193,.0422-.0482,.1124-.0625,.1562-.0187,.0619-.0229,.1537-.0312,.2188-.0078,.0748-.0379,.1711-.0312,.25-4.0086,.4818-7.6164-.1331-11.625-.2812-1.1761-1.4641-1.0388-4.1134 .3438-4.75z"/>
<path d="m309.2188,132.1072c-6.102,17.4403 3.4955,36.5175 10.1499,34.6599 4.8008,1.9877 7.8579-7.1453 9.8234-17.151 1.3446-2.8081 2.3606-3.1075 3.051-1.6641-.1774,13.3058 .9555,16.253 4.3765,20.2918 7.6311,5.8874 13.9438,.7519 14.4387,.256 .4949-.4949 5.9418-5.9418 5.9418-5.9418 1.3224-1.391 3.0833-1.4726 4.951-.2469 1.8153,1.65 1.5603,4.5004 5.4469,6.477 3.2708,1.3083 10.2638,.3024 11.8836-2.5158 2.1802-3.7364 2.7033-5.0195 3.7132-6.4367 1.5562-2.0713 4.2091-1.1501 4.2091-.4959-.248,1.1551-1.8052,2.3112-.7428,4.3916 1.8506,1.3879 2.2779,.4949 3.3726,.1865 3.8715-1.8506 6.7784-10.2719 6.7784-10.2719 .1714-3.1327-1.5845-2.8736-2.7234-2.2285-1.4857,.9082-1.5825,1.1984-3.0682,2.1066-1.8929,.2812-5.5648,1.5361-7.3801-1.275-1.8536-3.3796-1.8788-8.0947-3.296-11.5036 0-.248-2.4594-5.3693-.1703-5.6969 1.1551,.2147 3.6195,.8668 4.0116-1.2085 1.2115-2.0229-2.5944-7.751-5.1989-10.6458-2.2608-2.4815-5.3935-2.7809-8.4173-.2469-2.1177,1.9483-1.8133,4.1255-2.2285,6.1887-.5393,2.3697-.4243,5.2846 1.9806,8.4173 2.1137,4.1678 5.97,9.5351 4.704,17.0825 0,0-2.2527,3.5671-6.1776,3.1004-1.6359-.3568-4.2888-1.0513-5.7059-11.5177-1.0724-7.9224 .253-19.0067-3.1095-24.2036-1.2146-3.1377-2.1016-6.1676-5.0609-.8013-.7953,2.1076-4.2081,5.3058-1.7326,11.8836 2.0249,4.1708 2.8494,10.9583 1.9302,18.5097-1.403,2.1459-1.7145,2.8726-3.554,5.0185-2.5844,2.7789-5.3884,2.0693-7.5363,1.0321-2.0068-1.3527-3.5782-2.0522-4.4944-6.349 .1653-6.8489 .5473-18.0602-.7045-20.4389-1.8455-3.684-4.8895-2.3515-6.1897-1.2388-6.2472,5.712-9.3335,15.3499-11.2193,23.0243-1.7326,5.593-3.5762,3.9904-4.8724,1.7336-3.1558-2.9573-3.3695-26.0834-7.1795-22.2815z"/>
<path d="m329.7842,168.1364c-.0537,.0197-.1081,.0664-.1575,.0945-.0242,.0147-.07,.0454-.0945,.063-.4022,.3019-.8922,.9811-1.9529,1.7324-1.7891,2.035-2.0942,3.4489-1.9844,7.528 .1018,.4315 3.3826,9.5932 6.1736,16.0325 1.8818,6.6927 3.6414,14.3696 2.3623,21.6076-4.4057,9.5684-13.2788,18.1419-21.8281,22.8046-4.3557,1.395-8.0954,.9197-9.1029-.0315-.0077-.0076-.0242-.0238-.0315-.0315-2.5014-1.6818-2.5779-4.6852-2.4253-5.1972-0-.0029 .0002-.028 0-.0315 .0057-.0058 .0258-.0261 .0315-.0315 7.2138-5.0246 15.4708-9.0823 21.9226-22.6471 1.905-5.1838 2.4914-8.2998 .5985-16.316-.7379-2.9868-1.6787-5.4416-3.7168-7.5595 .0053-.0056 .0262-.026 .0315-.0315 1.228-.5875 4.4215,1.7619 4.9137,.2835-.7539-3.8271-3.333-8.9626-6.2681-11.5913-2.5702-2.3344-5.3645-2.6083-7.717-.4725-2.6499,1.4746-3.2289,6.7668-1.9529,11.4023 1.4172,3.4895 5.2435,4.0955 7.969,11.1188-.0001,.007-.0002,.0291 0,.0315 .0568,.4404 .9319,5.268-.441,7.213-1.1141,3.4742-15.4288,14.7551-16.442,15.434-.0112,.0112-.0521,.0524-.063,.063-.0056,.0058-.0261,.0263-.0315,.0315-.0025,.0023-.0249,.0247-.0315,.0315-.0027,.0029-.0286,.0283-.0315,.0315-.0029,0-.028,.0002-.0315,0-.0016-.0001-.0244-.0001-.0315,0-.0057-.0053-.026-.0256-.0315-.0315 .0002-.0034-.0001-.0286 0-.0315-.0058-.0108-.0258-.0516-.0315-.063-.0431-.2817 .0326-1.0162 0-2.1734-.094-2.1144 .7553-6.8962 .693-7.717 0-.0028-.0001-.0283 0-.0315-.0058-.0057-.0256-.026-.0315-.0315 0-.0029-.0002-.028 0-.0315-.0074,.0001-.0304,.0001-.0315,0-4.7302,3.0541-6.2862,12.4102-7.15,15.182-11.9753,8.2741-25.5552,14.4531-33.3879,22.8361-4.0791,6.3702 28.1051-7.3229 31.8445-8.9769 .0321,.0241 .0649,.0637 .0945,.0945 .7109,.7824 .7632,3.4947 2.8978,5.9531 3.3453,4.5317 10.4359,7.3353 17.3554,5.6066 11.6034-4.194 18.2983-12.1101 25.1039-20.8832 .9727-1.4151 2.4966-2.51 3.9058-1.4174 4.6768,10.4704 18.1605,17.9113 35.5928,18.6783 4.0338-4.9056 2.1083-7.3209 .4725-8.347-.5039-.3349-8.6542-3.5084-9.9219-6.6776-.7983-2.9492 1.1196-5.5615 5.0082-7.528 11.1931-1.3537 22.2046-2.8756 32.8524-6.2996 .1078-3.5772 2.2122-8.9215 3.6223-11.2448 .9791-1.612 1.6232-1.7874 1.8584-2.0159 .0076-.008 .0249-.0233 .0315-.0315 .0031-.0042 .0287-.0272 .0315-.0315 .0058-.0055 .0258-.0259 .0315-.0315 0-.0107 .0004-.0519 0-.063 .0063-.0708-.0007-.1637-.0315-.2835l-1.8269-1.0709-35.7188-.1575c-.4412-.1699-.777-.3443-.9764-.504-.0152-.0127-.0494-.0504-.063-.063-.0064-.0063-.0255-.0253-.0315-.0315-.0056-.0062-.0263-.0253-.0315-.0315-.0055-.0109-.0265-.0521-.0315-.063-.0029-.0028-.0279-.0282-.0315-.0315 .0001-.0028-.0003-.0282 0-.0315-.0029-.0028-.0278-.0282-.0315-.0315 0-.0028-.0002-.0282 0-.0315 0-.0028-.0001-.0282 0-.0315 0-.0028-.0001-.0282 0-.0315-.0003-.0048 .0001-.0267 0-.0315 .0001-.0024 .0001-.0248 0-.0315-0-.0028 .0001-.0281 0-.0315-0-.0028 .0001-.0282 0-.0315-.0001-.0028 .0002-.0282 0-.0315 .0058-.0056 .0257-.0259 .0315-.0315 .0085-.0165 .0206-.0467 .0315-.063 .1744-.235 .606-.4617 1.1339-.6615 8.5292-1.1621 23.6885-3.6331 24.6944-18.2058-.1572-7.5908-3.2534-12.5768-12.5677-13.9536-6.8439,.5292-11.717,7.1692-10.9298,14.4576-.3276,1.9624 .6534,5.8002-1.3544,6.2366-13.1284,1.1994-27.458,9.4207-27.9387,15.308-.0032-.0005-.0287,.0001-.0315,0-.0055,.0057-.026,.0259-.0315,.0315-.0101,.0049-.0465,.0234-.063,.0315-.0109-.0002-.052,.0004-.063,0-.0211,.0068-.073,.0259-.0945,.0315-.0058,.0005-.0234-.0001-.0315,0-.0178-.0003-.0512,0-.063,0-.006-.0002-.0234-.0002-.0315,0-.0132,.0003-.052,.0005-.063,0-.0339-.0068-.0966-.0241-.126-.0315-.8538-.2371-1.9365-1.6435-1.7639-3.6223-.4999-10.1771-3.8206-21.6832-9.0084-30.5531-1.8513-1.8508-2.6517-2.5906-3.1813-2.6773-.0171-.0022-.0464,.0008-.063,0-.0219-.0001-.0664,.0003-.0945,0-.0053,.0001-.0266-.0004-.0315,0-.0027-.0001-.0286,.0003-.0315,0-.0037,.0012-.0277-.0014-.0315,0zm52.2237,13.0402c.7779-.0825 1.7888,.1874 2.7718,.7559 1.4228,.8229 2.2857,2.0577 2.1734,2.9608-.0036,.0245 .0051,.0705 0,.0945-.0055,.0238-.0244,.0713-.0315,.0945-.0076,.023-.0224,.0721-.0315,.0945-.0064,.0148-.0244,.0485-.0315,.063-.0075,.0144-.0233,.0489-.0315,.063-.0466,.0763-.1251,.1581-.189,.2205-.6839,.6388-2.2608,.5454-3.7483-.315-1.4098-.8154-2.2983-2.0601-2.2049-2.9608 .0031-.0246 .027-.0704 .0315-.0945 .0236-.1118 .0689-.2162 .126-.315 .0204-.0353 .0389-.0936 .063-.126 .005-.0064 .0264-.0252 .0315-.0315 .042-.049 .1067-.1158 .1575-.1575 .2267-.1783 .5552-.3085 .9134-.3465zm-33.2304,30.1751c.1178-.0083 .2243,.0007 .3465,0 .0205-.0001 .0423-.0001 .063,0 3.9793,1.0815 9.838,1.1757 14.9301,1.7009 4.1477,.2631 6.2154,3.5174 2.3308,4.8822-3.8322,1.3124-7.5109,2.3369-7.528,7.8745 .5038,2.7431 .3968,4.1895-.0315,4.8507-.0335,.0496-.0888,.1168-.126,.1575-.0054,.0056-.026,.026-.0315,.0315-.0055,.0053-.0259,.0264-.0315,.0315-.0057,.005-.0258,.0267-.0315,.0315-.0055,.0057-.0259,.0259-.0315,.0315-.011,.0055-.0519,.0262-.063,.0315-.0557,.0346-.1283,.0722-.189,.0945-.0536,.0182-.132,.0219-.189,.0315-.911,.1336-2.2281-.745-3.2128-1.2599-2.3626-1.6964-9.0089-5.7956-9.9534-14.6151-.1344-1.9902 1.3536-3.7056 3.7483-3.8742z"/>
<path d="m234.0267,132.2957c4.1134,1.9614 11.8463,1.1269 11.5197-5.5053 0-.5866-.1492-2.5712-.2076-3.1085-.8396-1.9554-3.1307-1.4726-3.6497,.5463-.1633,.6612 .2913,1.7377-.3074,2.0703-.3437,.3467-1.6581,.1431-1.6036-1.6893 0-.5836-.4304-1.2115-.6894-1.5815-.2601-.1703-.4254-.2177-.8961-.2177-.5735,.0232-.5644,.1724-.8789,.6542-.133,.4909-.3175,.9706-.3175,1.527-.0716,.6521-.3175,.885-.7973,.9807-.5362,0-.4153,.0595-.8497-.2177-.258-.2822-.5806-.3901-.5806-.8719 0-.4989-.1129-1.3063-.2631-1.6359-.2278-.3004-.5937-.4395-1.0059-.5453-2.2467,.0081-2.4019,2.5702-2.2729,3.5429-.1683,.1834-.2641,4.7796 2.8,6.0516z"/>
<path d="m354.6011,183.3316c4.1134,1.9614 13.9045,.8325 11.5197-5.5053 0-.5866-.1492-2.5713-.2076-3.1085-.8396-1.9554-3.1307-1.4726-3.6497,.5463-.1633,.6612 .2913,1.7377-.3074,2.0703-.3437,.3467-1.6581,.1431-1.6036-1.6893 0-.5836-.4304-1.2115-.6894-1.5814-.26-.1703-.4253-.2177-.8961-.2177-.5735,.0232-.5644,.1724-.8789,.6542-.133,.4909-.3175,.9706-.3175,1.527-.0716,.6521-.3175,.885-.7973,.9807-.5362,0-.4153,.0595-.8497-.2177-.258-.2822-.5806-.3901-.5806-.8719 0-.4989-.1129-1.3063-.2631-1.6359-.2278-.3004-.5937-.4395-1.0059-.5453-2.2467,.0081-2.4019,2.5702-2.2729,3.5429-.1683,.1834-.2641,4.7796 2.8,6.0517z"/>
<path d="m424.9108,162.2082c4.1134,1.9614 11.8463,1.1269 11.5197-5.5053 0-.5866-.1492-2.5712-.2076-3.1085-.8396-1.9554-3.1307-1.4726-3.6497,.5463-.1633,.6612 .2913,1.7377-.3074,2.0703-.3437,.3467-1.6581,.1431-1.6036-1.6893 0-.5836-.4304-1.2115-.6894-1.5815-.26-.1703-.4253-.2177-.8961-.2177-.5735,.0232-.5644,.1724-.8789,.6542-.133,.4909-.3175,.9706-.3175,1.527-.0716,.6521-.3175,.885-.7973,.9807-.5362,0-.4153,.0595-.8497-.2177-.258-.2822-.5806-.3901-.5806-.8719 0-.4989-.1129-1.3063-.2631-1.6359-.2278-.3004-.5937-.4395-1.0059-.5453-2.2467,.0081-2.4019,2.5702-2.2729,3.5429-.1683,.1834-.2641,4.7796 2.8,6.0516z"/>
<path d="m461.3265,215.259c-7.1685,8.0786-4.0076,21.4408-2.3888,24.3195 2.3636,4.7282 4.2666,7.7611 8.8658,10.0995 4.189,3.0833 7.4527,1.1561 9.2518-1.0029 4.2152-4.3684 4.2656-15.5212 6.2442-17.7316 1.3879-4.06 4.8825-3.3665 6.5788-1.5673 1.644,2.3636 3.5802,3.8876 5.9952,5.1737 3.932,3.4683 8.6269,4.1023 13.2524,.9414 3.1609-1.773 5.2161-4.064 7.0666-8.6118 2.0562-5.4993 .9102-35.4302 .4989-50.4887-.1582-1.1813-4.0862-20.708-4.0862-20.9258 0-.2187-.5191-9.9655-.9515-12.2877-.0756-.9424-.3094-1.2136 .6784-1.0936 1.0472,.8809 1.1904,.9364 1.8445,1.2267 1.0573,.1935 2.0038-1.6056 1.3657-3.2617-3.2707-6.0325-6.5415-12.066-9.8123-18.0985-.7872-.7751-1.8042-1.6268-3.053,.2187-1.1934,1.0462-2.4644,2.9402-2.4251,5.3743 .2903,4.2888 1.0442,8.6531 1.3345,12.9419 1.3083,7.3408 2.6176,14.6826 3.9259,22.0234 1.2357,15.6996 1.5452,30.0478 2.7809,45.7474-.1734,6.6473-2.2396,15.4668-4.1779,16.3034 0,0-2.9492,1.7095-4.9268-.1784-1.4383-.5776-7.1957-9.5945-7.1957-9.5945-2.9432-2.6983-4.8834-1.9272-6.9779,0-5.7755,5.5769-8.3891,16.0101-12.314,23.2057-1.012,1.6056-3.8725,2.9805-7.0414-.1169-8.0484-10.9956-3.3312-26.6387-4.3331-22.6161z"/>
<path d="m426.7563,123.698c3.685,1.5421 6.2845,9.0069 5.4368,12.6516-.7338,4.5085-2.6882,9.3778-4.0932,8.7439-1.527-.5665 1.0412-4.4813-.4264-8.5896-.8154-2.674-5.844-7.5595-5.3149-8.9999-1.0382-3.0178 2.1378-4.3382 4.3976-3.806z"/>
<path d="m473.1909,219.6868c.7751-8.9636-.5332-14.4296-.766-19.6981-.2318-5.2685-5.9589-47.9879-7.1201-51.9742-1.401-7.5373 5.5668-1.011 4.8058-5.3945-2.411-5.5265-8.4102-13.5739-10.294-18.3747-1.1329-2.0572-.6572-3.8866-3.1942-.5413-2.3525,7.6916-3.169,13.9781-2.2709,18.7547 6.0426,31.5343 12.2394,60.2736 11.2556,90.292 2.8656,.0192 6.1686-6.5566 7.5837-13.0639z"/>
<path d="m536.1537,134.3862c3.3595,1.6702 5.3269,11.0248 4.956,13.6969-.6683,4.8814-2.4503,10.1529-3.7314,9.4665-1.392-.6128 .2792-7.239-.3891-9.2992-.7429-2.8948-5.327-8.1844-4.8451-9.7437-.9465-3.2667 1.9493-4.696 4.0096-4.1204z"/>
<path d="m286.4767,202.7354c3.2133,1.2267 5.0971,8.1008 4.7423,10.0653-.6411,3.5862-2.3465,7.4597-3.5701,6.9558-1.3325-.4506 .2671-5.3199-.3729-6.8338-.2711-3.6719-4.7313-5.5729-4.6375-7.1594-.8326-2.916 1.8657-3.4522 3.8382-3.0278z"/>
<path d="m200.5854,121.4735c4.7413,1.4293 5.0215,8.3981 4.6718,10.4352-.632,3.7183-2.3112,7.7339-3.5177,7.2108-1.3123-.4667-.0514-5.5144-.6814-7.0848-.7025-2.2054-4.7091-6.2341-4.2545-7.4214-.892-2.4896 1.8385-3.5792 3.7818-3.1397z"/>
<path d="m294.2197,154.3302c-3.6376,1.9675-5.0488,7.8327-2.7839,11.2476 2.1157,3.0077 5.457,1.8929 5.9025,1.8929 3.5641,.4455 5.6787-6.6816 5.6787-6.6816 0,0 .1119-2.0038-4.1204,1.783-1.781,.3336-2.0038-.3346-2.4493-1.3375-.3709-1.8556-.2973-3.7112 .5564-5.5678 .631-1.781-.7428-2.5612-2.7839-1.3365z"/>
<path d="m321.5035,118.7803c-1.8284,1.2257-5.4671,4.9953-5.5779,9.3385-.1109,2.4503-.5675,2.4432 1.0372,4.0025 1.1591,1.6712 2.3283,1.521 4.6678,.2953 1.3436-.9898 1.7982-1.647 2.2507-3.307 .5574-2.7839-2.9432,1.3204-3.3887-1.778-.7791-2.8766 1.4686-4.0539 3.5842-6.8378 .0705-1.907 .0292-3.2576-2.5733-1.7135z"/>
<path d="m343.4866,122.685c-.7882,1.7407-1.7326,10.8333-1.5754,10.8333-.629,2.7093 2.8353,3.8685 4.4107,.386 2.3616-6.3843 2.3616-9.0926 2.5198-11.8009-.7358-4.1255-3.5177-3.9965-5.3552,.5816z"/>
<path d="m482.0779,193.2083c.4727-.4727 19.5298-14.0164 19.5298-14.0164 1.9423-.6824 1.522,6.982 .63,6.9296 .3669,1.522-18.794,14.5415-20.1597,14.0164-.9444,.6824-1.8899-5.2493 0-6.9296z"/>
<path d="m499.4577,193.0985c3.3594,1.6702 4.697,11.4975 4.3261,14.1696 .1189,5.1969-3.2375,9.3658-4.5186,8.6793-1.392-.6128 .122-6.4518-.5463-8.512-.7428-2.8948-3.5953-8.3417-3.1135-9.901-.9465-3.2667 1.7921-5.0115 3.8523-4.4359z"/>
<path d="m386.1012,235.4167c1.3254-1.9372 5.4197-4.7252 5.5124-4.7252 1.8889-.9454 3.7344,.7408 3.6225,.63 .3145,1.8899-1.1954,3.6487-.7227,6.1696 .4133,1.016 .7156,2.1439 2.5773,1.7135 3.0258-2.3808 5.8289-2.534 8.8547-2.6861 2.3193,.1401 2.411,4.066 .9444,4.0952-5.587,1.2146-8.0907,2.7103-12.0801,4.2333-1.8899,1.1017-3.5116-.2963-3.5116-.4536 0-.1572-1.1057-1.0725-.3336-3.5762 .1371-2.0078-.6713-3.1085-2.3434-2.8807-1.2599,.6814-2.3697,1.1329-2.9996-.3155-.248-1.0694-.3286-1.5895 .4798-2.2044z"/>
<path d="m519.5066,240.7094c.8164,1.0392 1.3446,2.0007-.0655,3.7082-1.3365,1.2246-2.2779,1.8989-3.6145,3.1236-.631,1.0765-1.0341,2.7093 .8961,3.2294 3.5641,1.0019 11.805-4.3432 11.805-4.4551 1.3365-1.0019 .891-2.8948 .7791-2.8948-.7791-.891-2.535-.3618-3.7163-.506-.5624,0-2.4069-.2792-1.529-1.912 .7328-1.016 .9948-1.6379 1.4918-2.8897 .5564-1.2246 .0786-2.0421-1.9262-2.7104-2.0421-.3709-2.8575-.1855-5.1223,0-1.2246,.2601-1.6429,.8074-1.8657,2.292 .0877,2.2517 1.4575,2.1237 2.8676,3.0147z"/>
</g>
</g>
</svg>
