<svg xmlns="http://www.w3.org/2000/svg" viewBox="0 0 744.0945 496.063" xmlns:xlink="http://www.w3.org/1999/xlink">
<g fill-rule="evenodd">
<path fill="#3e5eb9" d="m0-.0001h744.094v496.0631h-744.094z"/>
<path fill="#ffd900" d="M 0,88.5826 H744.094 V407.48 H0 z"/>
<path fill="#b10c0c" d="M 0,124.016 H744.094 V372.047 H0 z"/>
<g stroke="#000">
<path fill="#ffd900" stroke-width="1.339" d="m79.4159,242.717h591.8861a5.2379,5.315 0 0,1 5.238,5.315v-.001a5.2379,5.315 0 0,1 -5.238,5.315h-591.8861a5.2379,5.315 0 0,1 -5.2379-5.315v.001a5.2379,5.315 0 0,1 5.2379-5.315"/>
<g transform="translate(-609.4489 -24.80314)">
<path fill="#fff" stroke-width="3.914" d="m-106.299,265.748l-88.583,35.433 88.583,35.433 88.5825-35.433-88.5825-35.433z" transform="matrix(.34 0 0 .3 1256.811 136.4168)"/>
<path fill="#ffd900" stroke-width="1.25" d="m765.662,223.228h435.208a3.8514,3.5433 0 0,1 3.85,3.544 3.8514,3.5433 0 0,1 -3.85,3.543h-435.208a3.8514,3.5433 0 0,1 -3.851-3.543 3.8514,3.5433 0 0,1 3.851-3.544"/>
<g fill="none" stroke-width="2.5">
<path d="m1224.44,279.921c-3.54,0-7.09-3.544-7.09-7.087 0-3.543 3.55-7.087 7.09-7.087" transform="matrix(-.50001 0 0 .5 1806.328 90.35433)"/>
<path d="m1224.44,279.921c-3.54,0-7.09-3.544-7.09-7.087 0-3.543 3.55-7.087 7.09-7.087" transform="matrix(-.50001 0 0 .5 1802.785 90.35418)"/>
<path d="m1224.44,279.921c-3.54,0-7.09-3.544-7.09-7.087 0-3.543 3.55-7.087 7.09-7.087" transform="matrix(-.50001 0 0 .5 1799.241 90.3546)"/>
</g>
</g>
<g transform="translate(-637.7953 -3.54341)">
<path fill="#fff" stroke-width="3.914" d="m-106.299,265.748l-88.583,35.433 88.583,35.433 88.5825-35.433-88.5825-35.433z" transform="matrix(.34 0 0 .3 1256.811 136.4168)"/>
<path fill="#ffd900" stroke-width="1.25" d="m765.662,223.228h435.208a3.8514,3.5433 0 0,1 3.85,3.544 3.8514,3.5433 0 0,1 -3.85,3.543h-435.208a3.8514,3.5433 0 0,1 -3.851-3.543 3.8514,3.5433 0 0,1 3.851-3.544"/>
<g fill="none" stroke-width="2.5">
<path d="m1224.44,279.921c-3.54,0-7.09-3.544-7.09-7.087 0-3.543 3.55-7.087 7.09-7.087" transform="matrix(-.50001 0 0 .5 1806.328 90.35433)"/>
<path d="m1224.44,279.921c-3.54,0-7.09-3.544-7.09-7.087 0-3.543 3.55-7.087 7.09-7.087" transform="matrix(-.50001 0 0 .5 1802.785 90.35418)"/>
<path d="m1224.44,279.921c-3.54,0-7.09-3.544-7.09-7.087 0-3.543 3.55-7.087 7.09-7.087" transform="matrix(-.50001 0 0 .5 1799.241 90.3546)"/>
</g>
</g>
</g>
<g stroke-width="1.25">
<g transform="matrix(.46801 0 0 .47009 345.6805 251.5207)">
<path fill="#3d5da7" stroke="#000" d="m338.066-.4163c-5.571,12.4418 4.275-4.1375 28.299,16.6906 4.452,3.8696 8.342,14.0901 8.342,21.1767-1.13-.9748-1.969-3.1443-3.214-4.5522-1.743,2.2527 1.664,12.5766 2.162,17.4573-3.756-2.7108-3.394-3.9938-4.642-7.3242 .249,4.0258-.645,15.1156 .849,19.3864-2.96-1.0897-2.764-4.1629-4.31-4.7801 1.052,4.834-.916,10.094-.394,15.5277-1.73-2.2082-3.573-3.9375-4.376-4.829-.135,2.5882-3.327,9.3883-3.4,11.8347-1.468-1.1436-1.866-2.9265-2.111-4.1265-1.824,2.9554-8.308,13.8717-8.724,17.202-4.996-5.6892-17.793-19.5447-19.459-26.899-1.473,4.175-3.604,5.583-7.817,8.6317-1.665-11.656-7.891-24.7561-4.561-34.7469-2.359,1.8039-4.302,3.6077-6.66,5.8279 2.234-16.88 13.628-36.674 30.016-46.4771z" transform="matrix(2.05863 0 0 1.58942 -79.54089 -15.73869)"/>
<g fill="#a70000">
<path d="m273.498,33.156c-19.565,.6626-27.155-1.6652-39.755-1.2489-22.163,.7088-38.09,4.4093-38.09-.4162 0-4.8256 8.006-7.0769 30.181-7.0769 22.174,0 27.682,1.4187 47.664,8.742z" transform="matrix(-.27666 .47556 -.98145 -.25924 681.8329 -39.92822)"/>
<path d="m273.498,33.156c-19.565,.6626-27.155-1.6652-39.755-1.2489-22.163,.7088-38.09,4.4093-38.09-.4162 0-4.8256 8.006-7.0769 30.181-7.0769 22.174,0 27.682,1.4187 47.664,8.742z" transform="matrix(.0006 .37154 -.90479 .08269 635.6661 -.24702)"/>
<path d="m273.498,33.156c-19.565,.6626-27.155-1.6652-39.755-1.2489-22.163,.7088-38.09,4.4093-38.09-.4162 0-4.8256 8.006-7.0769 30.181-7.0769 22.174,0 27.682,1.4187 47.664,8.742z" transform="matrix(.06913 .52214 -.8386 .21649 639.1691 -31.72491)"/>
<path d="m273.498,33.156c-19.565,.6626-27.155-1.6652-39.755-1.2489-22.163,.7088-38.09,4.4093-38.09-.4162 0-4.8256 8.006-7.0769 30.181-7.0769 22.174,0 27.682,1.4187 47.664,8.742z" transform="matrix(.32032 .21152 .45182 -.55995 553.0942 8.39449)"/>
<path d="m273.498,33.156c-19.565,.6626-27.155-1.6652-39.755-1.2489-22.163,.7088-38.09,4.4093-38.09-.4162 0-4.8256 8.006-7.0769 30.181-7.0769 22.174,0 27.682,1.4187 47.664,8.742z" transform="matrix(.18815 .32091 .80839 -.33791 573.209 4.55939)"/>
</g>
</g>
<g transform="matrix(.45853 0 0 .46926 -110.5911 247.8502)">
<path fill="#3d5da7" stroke="#000" d="m329.598,20.7033c-.272-2.6623 .253-2.9806-1.258-4.9889 2.2,.9974 2.284,3.6487 4.959,1.7668 .983-.5511 1.411-.5686 .217-3.526 2.79,.1401 11.927,3.5353 13.39,3.6142 3.842,.191 10.855-4.3733 15.723,1.2392 4.672,5.1175 3.112,10.4294 3.112,17.516-1.877-.9748-.973-1.4548-2.965-3.9891 1.494,6.195-.08,17.3638-.08,23.934-.767-1.5844-.654-.8963-1.404-2.537-1.992,5.9969-4.38,7.231-4.38,14.3177-.719-2.7793-.025-2.1917-.825-3.6536-1.936,4.5523-14.925,8.4437-9.92,13.0326-4.518-2.8699-6.499-2.5689-8.548-5.15-.882,.6171-1.584,1.7852-2.404,3.3868-7.943-3.9596-5.103-12.5007-11.326-18.2061-1.077,2.3922-.586,2.0448-1.75,5.9383-1.26-5.4076-1.604-8.8441-3.021-12.8193-1.223,2.2038-1.113,1.359-3.333,4.6893-.918-6.5873-2.413-8.142-1.822-12.5009-2.359,1.8039-.815,1.0733-3.173,3.2935 2.234-16.88 11.884-29.3525 18.808-25.3575z" transform="matrix(2.40293 0 0 2.16694 -332.3264 -34.37559)"/>
<g fill="#a70000">
<path d="m273.498,33.156c-19.565,.6626-27.155-1.6652-39.755-1.2489-22.163,.7088-38.09,4.4093-38.09-.4162 0-4.8256 8.006-7.0769 30.181-7.0769 22.174,0 27.682,1.4187 47.664,8.742z" transform="matrix(-.28442 .59052 -.97713 -.33674 546.3839 -80.15939)"/>
<path d="m273.498,33.156c-19.565,.6626-27.155-1.6652-39.755-1.2489-22.163,.7088-38.09,4.4093-38.09-.4162 0-4.8256 8.006-7.0769 30.181-7.0769 22.174,0 27.682,1.4187 47.664,8.742z" transform="matrix(-.13148 .53639 -.90793 -.09701 520.879 -43.83943)"/>
<path d="m273.498,33.156c-19.565,.6626-27.155-1.6652-39.755-1.2489-22.163,.7088-38.09,4.4093-38.09-.4162 0-4.8256 8.006-7.0769 30.181-7.0769 22.174,0 27.682,1.4187 47.664,8.742z" transform="matrix(-.05773 .52353 -.86604 .00969 521.5908 -23.37511)"/>
<path d="m273.498,33.156c-19.565,.6626-27.155-1.6652-39.755-1.2489-22.163,.7088-38.09,4.4093-38.09-.4162 0-4.8256 8.006-7.0769 30.181-7.0769 22.174,0 27.682,1.4187 47.664,8.742z" transform="matrix(.49337 .4315 .76655 -.69323 364.558 -41.83645)"/>
<path d="m273.498,33.156c-19.565,.6626-27.155-1.6652-39.755-1.2489-22.163,.7088-38.09,4.4093-38.09-.4162 0-4.8256 8.006-7.0769 30.181-7.0769 22.174,0 27.682,1.4187 47.664,8.742z" transform="matrix(.33146 .44175 .797 -.44557 402.2715 -18.44129)"/>
</g>
</g>
</g>
<path fill="#fff" stroke="#000" stroke-width="1.976" d="m637.795,230.315c-53.149,59.055-124.016,177.165-265.748,177.165-124.016,0-212.598-118.11-265.748-177.165 53.15-59.055 141.732-177.1654 265.748-177.1654 141.732,0 212.599,118.1104 265.748,177.1654z" transform="matrix(.66667 0 0 .6 124.016 109.8426)"/>
<g stroke-width="1.25">
<path d="m353.498,114.777c14.14,17.671 2.333,24.795 17.3,25.955 15.784,1.288 6.837,18.672 20.114,19.276 9.282,.45-.927,41.652 8.009,55.247 9.102,14.174 16.725,4.153 16.885,14.393 .158,10.59-24.773,9.522-25.21,42.146-.731,18.8-21.039,20.004-22.008,32.101-1.205,11.378 40.008,17.766 39.459,27.952-.565,10.155-44.501,8.565-46.414,20.146-.981,10.402 60.359,18.928 65.291,49.013-9.153,3.326-35.194,6.457-54.877,6.474-124.009,.109-212.598-118.11-265.748-177.165 53.15-59.055 141.732-177.1654 265.748-177.1654 0,0-36.813,37.3737-18.549,61.6274z" transform="matrix(.66667 0 0 .6 124.0159 109.8424)"/>
<g fill="#fff" transform="matrix(.48485 0 0 .53333 183.7152 210.2362)">
<path d="m159.449,0h17.716v53.1496h-17.716z"/>
<path d="m159.449,88.5828h17.716v53.1492h-17.716z"/>
<path d="m194.882,.0001h17.716v53.1496h-17.716z"/>
<path d="m194.882,88.5828h17.716v53.1492h-17.716z"/>
<path d="m230.315-0h17.716v53.1496h-17.716z"/>
<path d="m230.315,88.5827h17.716v53.1493h-17.716z"/>
<path d="m265.748,0h17.717v53.1496h-17.717z"/>
<path d="m265.748,88.5828h17.717v53.1492h-17.717z"/>
<path d="m301.181-0h17.717v53.1496h-17.717z"/>
<path d="m301.181,88.5827h17.717v53.1493h-17.717z"/>
<path d="m336.614,0h17.717v53.1496h-17.717z"/>
<path d="m336.614,88.5828h17.717v53.1492h-17.717z"/>
</g>
<g transform="matrix(.48485 0 0 .53333 313.6365 210.2362)">
<path d="m159.449,0h17.716v53.1496h-17.716z"/>
<path d="m159.449,88.5828h17.716v53.1492h-17.716z"/>
<path d="m194.882,.0001h17.716v53.1496h-17.716z"/>
<path d="m194.882,88.5828h17.716v53.1492h-17.716z"/>
<path d="m230.315-0h17.716v53.1496h-17.716z"/>
<path d="m230.315,88.5827h17.716v53.1493h-17.716z"/>
<path d="m265.748,0h17.717v53.1496h-17.717z"/>
<path d="m265.748,88.5828h17.717v53.1492h-17.717z"/>
<path d="m301.181-0h17.717v53.1496h-17.717z"/>
<path d="m301.181,88.5827h17.717v53.1493h-17.717z"/>
<path d="m336.614,0h17.717v53.1496h-17.717z"/>
<path d="m336.614,88.5828h17.717v53.1492h-17.717z"/>
</g>
<g transform="matrix(.52716 0 0 .51612 142.6729 160.8184)">
<path fill="#3d5da7" stroke="#000" d="m338.066-.4163c-5.571,12.4418 9.754-4.1376 33.778,16.6906 4.452,3.8696 10.833,19.1588 10.833,26.2454-5.115-1.2564-14.173-7.0866-14.173-7.0866 0,0 10.63,12.295 10.63,26.4683-3.756-2.7108-5.635-2.3043-6.883-5.6345 0,4.5889 3.34,7.5126 3.34,14.5993-2.711-2.4977-5.006-4.1629-7.3-5.6248 3.543,7.0866-6.457,20.8338-1.452,25.4227-8.752-1.4619-17.707-7.9192-21.25-15.0058-1.878,1.4619-2.082,3.7564-2.155,6.2028 .276,.2643-13.322-11.6559-12.073-16.235-1.824,2.9554-2.081,4.5791-2.497,7.9094-4.996-5.6892-9.574-11.3784-11.24-18.7327-2.22,3.3302-2.359,3.3302-4.579,6.6605-1.665-11.656-1.665-11.2396 1.665-21.2304-2.359,1.8039-4.302,3.6077-6.66,5.8279 2.234-16.88 13.628-36.674 30.016-46.4771z" transform="matrix(1.67143 0 0 1.47831 -238.6252 .19911)"/>
<g fill="#a70000">
<path d="m273.498,33.156c-19.565,.6626-27.155-1.6652-39.755-1.2489-22.163,.7088-38.09,4.4093-38.09-.4162 0-4.8256 8.006-7.0769 30.181-7.0769 22.174,0 27.682,1.4187 47.664,8.742z" transform="matrix(-.11102 .64597 -1.03206 -.05499 368.0553 -85.39377)"/>
<path d="m273.498,33.156c-19.565,.6626-27.155-1.6652-39.755-1.2489-22.163,.7088-38.09,4.4093-38.09-.4162 0-4.8256 8.006-7.0769 30.181-7.0769 22.174,0 27.682,1.4187 47.664,8.742z" transform="matrix(.02113 .55187 -.89959 .15647 353.5242 -43.45949)"/>
<path d="m273.498,33.156c-19.565,.6626-27.155-1.6652-39.755-1.2489-22.163,.7088-38.09,4.4093-38.09-.4162 0-4.8256 8.006-7.0769 30.181-7.0769 22.174,0 27.682,1.4187 47.664,8.742z" transform="matrix(.25282 .46206 .80443 -.32096 274.2416 15.86573)"/>
<path d="m273.498,33.156c-19.565,.6626-27.155-1.6652-39.755-1.2489-22.163,.7088-38.09,4.4093-38.09-.4162 0-4.8256 8.006-7.0769 30.181-7.0769 22.174,0 27.682,1.4187 47.664,8.742z" transform="matrix(.59303 .27915 .5463 -.87734 203.7838 1.46334)"/>
<path d="m273.498,33.156c-19.565,.6626-27.155-1.6652-39.755-1.2489-22.163,.7088-38.09,4.4093-38.09-.4162 0-4.8256 8.006-7.0769 30.181-7.0769 22.174,0 27.682,1.4187 47.664,8.742z" transform="matrix(.44018 .33354 .6437 -.64761 246.4775 13.58279)"/>
</g>
</g>
</g>
</g>
</svg>
