<svg xmlns="http://www.w3.org/2000/svg" viewBox="0 0 1000 500" xmlns:xlink="http://www.w3.org/1999/xlink">
<g fill-rule="evenodd">
<path fill="#fff" d="m0,142.778h1000v214.444h-1000z"/>
<g stroke-width="1.25">
<path fill="#060" d="M 0,357.222 H1000 V500 H0 z"/>
<path fill="#c00" d="m0,0h1000v142.778h-1000z"/>
</g>
</g>
<g fill="#fc0">
<path fill="#fc0" fill-rule="evenodd" id="polygon3941" d="m397.1382,260.1905l3.5709,11.7599 11.5603-.26-9.5883,7.1866 3.8087,11.4206-9.4969-7.3183-9.2064,7.3183 3.7189-11.7096-9.4985-6.8976 11.7953,.0814 3.336-11.5813z"/>
<g fill-rule="evenodd">
<path d="m552.7016,168.7088l3.5709,11.7599 11.5603-.26-9.5883,7.1866 3.8087,11.4206-9.4968-7.3183-9.2064,7.3183 3.7189-11.7096-9.4985-6.8976 11.7953,.0814 3.336-11.5813z"/>
<path d="m591.5923,210.0302l3.571,11.7599 11.5603-.26-9.5883,7.1866 3.8087,11.4206-9.4969-7.3183-9.2063,7.3183 3.7189-11.7096-9.4985-6.8976 11.7952,.0814 3.336-11.5813z"/>
<path d="m602.8618,260.1904l3.5709,11.7599 11.5603-.26-9.5883,7.1866 3.8087,11.4206-9.4969-7.3183-9.2063,7.3183 3.7189-11.7096-9.4985-6.8976 11.7952,.0814 3.336-11.5813z"/>
<path d="m498.7295,217.5998c-10.4676,.4975-18.75,7.1036-18.75,15.125 0,6.829 6.0034,12.5957 14.25,14.4688v38.5313c-5.4685,8.9232-12.8773,13.5377-24.3438,13.2812-11.235,.215-15.0757-3.33-21.8438-12.25-2.496,6.209-6.8207,20.2665-25.9688,19.8125-10.7114,.2868-17.3927-3.2927-21.875-13.5 5.125,14.532 10.3595,22.6736 26.0938,23.1875 14.476,.174 21.113-8.2035 24.25-13.9375 10.429,5.54 11.4952,6.7532 26.2812,6.4062 11.037-.355 17.3818-7.5453 23.0938-14.4062 5.712,6.861 12.0568,14.0512 23.0937,14.4062 14.786,.347 15.8523-.8663 26.2812-6.4062 3.137,5.734 9.7427,14.1115 24.2187,13.9375 15.7983-.516 21.0125-8.73 26.7188-23.125-4.9568,10.1957-11.6362,13.8197-22.4063,13.5312-19.148,.454-23.4727-13.6035-25.9687-19.8125-6.768,8.92-10.6087,12.465-21.8438,12.25-11.4425,.2559-18.8473-4.3232-24.3125-13.25v-38.6563c8.2952-1.8502 14.375-7.6137 14.375-14.4688 0-8.3447-9.0009-15.125-20.0625-15.125-.3025,0-.607-.01-.9062,0-.1247,.0042-.2509-.0059-.375,0zm.5938,9.2188c.2222-.008 .4305,0 .6562,0 5.7788,0 10.4688,2.66 10.4688,5.9375 0,3.2775-4.69,5.9375-10.4688,5.9375-5.7788,0-10.4688-2.66-10.4688-5.9375 0-3.1495 4.3465-5.7408 9.8125-5.9375zm101.0313,66c-.0189,.0415-.0124,.0836-.0313,.125 .0172-.0407 .0141-.0841 .0313-.125z"/>
</g>
<path fill="#fc0" fill-rule="evenodd" id="path4048" d="m451.6097,308.0651l5.225,7.241 10.019-.294-7.732,8.762-15.137,.387-4.735-6.342 8.743-1.413 3.671-8.32"/>
<g fill-rule="evenodd">
<path d="m487.3627,312.7171c0-.039 6.875,.039 6.875,.039l5.781-4.609 5.644,4.551 6.817,.098-6.133,9.062h-12.891l-6.093-9.141z"/>
<path d="m574.3347,344.9911c-26.731-5.519-44.622-8.234-74.413-8.234-29.791,0-47.682,2.715-74.244,8.168l-.037-11.525c26.599-5.503 44.49-8.219 74.281-8.219 29.791,0 47.682,2.716 74.281,8.219l.132,11.591z"/>
</g>
<use width="992.126" height="496.063" xlink:href="#path4048" transform="matrix(-1 0 0 1 999.7067 0)"/>
<use width="992.126" height="496.063" xlink:href="#polygon3941" transform="translate(11.4908 -50.38161)"/>
<use width="992.126" height="496.063" xlink:href="#polygon3941" transform="translate(50.3818 -91.48161)"/>
<use width="992.126" height="496.063" xlink:href="#polygon3941" transform="translate(102.7518 -105.1816)"/>
</g>
</svg>
