<svg xmlns="http://www.w3.org/2000/svg" viewBox="0 0 1000 500" xmlns:xlink="http://www.w3.org/1999/xlink">
<g transform="matrix(1.66667 0 0 1.66667 0 -.00012)">
<path fill="#75aadb" fill-rule="evenodd" d="m300-0h300v300h-600v-150h300v-150z"/>
</g>
<g fill="#fcd116" fill-rule="evenodd" stroke-width="1.25" transform="matrix(1.00793 0 0 1.00793 -.01219 .00543)">
<path d="m591.041,433.161-57.267-41.685-57.273,41.675 21.948-67.345-57.334-41.592 70.831,.064 21.839-67.381 21.828,67.384 70.832-.051-57.341,41.582 21.937,67.349z" transform="matrix(.49876 0 0 .46938 657.6627 -98.2599)"/>
<path d="m591.041,433.161-57.267-41.685-57.273,41.675 21.948-67.345-57.334-41.592 70.831,.064 21.839-67.381 21.828,67.384 70.832-.051-57.341,41.582 21.937,67.349z" transform="matrix(.49876 0 0 .46938 569.0006 153.8731)"/>
<path d="m591.041,433.161-57.267-41.685-57.273,41.675 21.948-67.345-57.334-41.592 70.831,.064 21.839-67.381 21.828,67.384 70.832-.051-57.341,41.582 21.937,67.349z" transform="matrix(.49876 0 0 .46938 657.6628 96.79682)"/>
<path d="m591.041,433.161-57.267-41.685-57.273,41.675 21.948-67.345-57.334-41.592 70.831,.064 21.839-67.381 21.828,67.384 70.832-.051-57.341,41.582 21.937,67.349z" transform="matrix(.49876 0 0 .46938 276.4154 279.6626)"/>
<path d="m591.041,433.161-57.267-41.685-57.273,41.675 21.948-67.345-57.334-41.592 70.831,.064 21.839-67.381 21.828,67.384 70.832-.051-57.341,41.582 21.937,67.349z" transform="matrix(-.49876 0 -0 -.46938 910.834 486.0882)"/>
<path d="m591.041,433.161-57.267-41.685-57.273,41.675 21.948-67.345-57.334-41.592 70.831,.064 21.839-67.381 21.828,67.384 70.832-.051-57.341,41.582 21.937,67.349z" transform="matrix(-.49876 0 -0 -.46938 1015.012 342.0122)"/>
<path d="m591.041,433.161-57.267-41.685-57.273,41.675 21.948-67.345-57.334-41.592 70.831,.064 21.839-67.381 21.828,67.384 70.832-.051-57.341,41.582 21.937,67.349z" transform="matrix(-.49876 0 -0 -.46938 1102.566 312.0887)"/>
<path d="m591.041,433.161-57.267-41.685-57.273,41.675 21.948-67.345-57.334-41.592 70.831,.064 21.839-67.381 21.828,67.384 70.832-.051-57.341,41.582 21.937,67.349z" transform="matrix(-.49876 0 -0 -.46938 1015.012 561.451)"/>
<path d="m591.041,433.161-57.267-41.685-57.273,41.675 21.948-67.345-57.334-41.592 70.831,.064 21.839-67.381 21.828,67.384 70.832-.051-57.341,41.582 21.937,67.349z" transform="matrix(-.49876 0 -0 -.46938 910.834 586.9413)"/>
</g>
<g transform="matrix(.83333 0 0 .83333 0 -.00002)">
<g fill-rule="evenodd">
<path fill="#00267f" d="m0-0h600v300h-600z"/>
<g fill="#fff">
<path d="m0,300h67.08l532.92-266.46v-33.54l-67.08-0-532.92,266.46 0,33.54z"/>
<path d="m600,300h-67.08l-532.92-266.46 0-33.54 67.08-0 532.92,266.46v33.54z"/>
<path d="m250,0v100h-250v100h250v100h100v-100h250v-100h-250v-100h-100z"/>
</g>
<path fill="#d21034" d="m270,0v120h-270v60h270v120h60v-120h270v-60h-270v-120h-60z"/>
</g>
<path fill="#d21034" fill-rule="evenodd" id="path8371" d="m355.28,100h44.72l200-100-44.72-0-200,100z"/>
<path fill="#d21034" fill-rule="evenodd" id="path9616" d="m0-0v22.36l155.28,77.64h44.72l-200-100z"/>
<use width="600" height="300" xlink:href="#path9616" transform="matrix(-1 0 0 -1 600 300)"/>
<use width="600" height="300" xlink:href="#path8371" transform="translate(-355.28 200)"/>
</g>
</svg>
