<svg xmlns="http://www.w3.org/2000/svg" viewBox="0 0 1350 900" xmlns:xlink="http://www.w3.org/1999/xlink">
<path fill="#fff" d="m0,0h1350v900h-1350z"/>
<g fill="#fcd116" stroke="#000" id="4wavyrays" stroke-width=".6" transform="matrix(5.50551 0 0 5.50551 250 250)" stroke-miterlimit="20">
<g id="2wavyrays">
<g id="wavyray" transform="rotate(22.5)">
<path d="m0,0 6,12c-8,13 1,15-6,21 3-8-4-5-3-20"/>
<path fill="none" d="m0,11c-2,13 4.5,17 0,22"/>
</g>
<use width="243" height="162" xlink:href="#wavyray" transform="scale(-1)"/>
</g>
<use width="243" height="162" xlink:href="#2wavyrays" transform="rotate(90)"/>
</g>
<use width="243" fill="#fcd116" height="162" stroke="#000" xlink:href="#4wavyrays" stroke-width=".6" transform="matrix(.70711 .70711 -.70711 .70711 250 -103.55339)" stroke-miterlimit="20"/>
<g fill="#fcd116" stroke="#000" id="4straightrays" stroke-width=".6" transform="matrix(5.50551 0 0 5.50551 250 250)" stroke-miterlimit="20">
<g id="2straightrays">
<path id="straightray" d="m0,0h6l-6,33-6-33h6v33"/>
<use width="243" height="162" xlink:href="#straightray" transform="scale(-1)"/>
</g>
<use width="243" height="162" xlink:href="#2straightrays" transform="rotate(90)"/>
</g>
<use width="243" fill="#fcd116" height="162" stroke="#000" xlink:href="#4straightrays" stroke-width=".6" transform="matrix(.70711 .70711 -.70711 .70711 250 -103.55339)" stroke-miterlimit="20"/>
<circle fill="#fcd116" cx="0" cy="0" stroke="#000" r="11" stroke-width=".6" transform="matrix(5.50551 0 0 5.50551 250 250)" stroke-miterlimit="20"/>
<g transform="matrix(.55055 0 0 .55055 250 250)">
<g id="right">
<path d="m81-44c-7,8-11-6-36-6-25,0-29,15-33,12-4-3 21-21 29-22 8-1 31,7 40,16"/>
<path d="m52-35c7,6 1,19-6,19-7,0-20-12-14-20"/>
<path d="m19-26c1-12 11-14 27-14 16,0 23,12 29,15-7,0-13-10-29-10-16,0-16,0-27,10"/>
<path d="m22-23c4-6 9,6 20,6 11,0 17-3 24-8 7-5-10,12-21,12-11,0-26-6-23-10"/>
<path d="m56-17c13-7 5-17 0-19 2,2 10,12 0,19"/>
<path d="m0,43c6,0 8-2 16-2 8,0 27,11 38,7-23,9-14,3-54,3h-5"/>
<path d="m58,57c-4-7-3-5-11-16 8,6 10,9 11,16"/>
<path d="m0,67c25,0 21-5 54-19-24,3-29,11-54,11h-5"/>
<path d="m0,30c7,0 9-5 17-5 8,0 19,3 24,7 1,1-3-8-11-9-8-1-5-14-14-16 0,4 3,3 4,9 0,5-9,5-11,0 2,8-4,8-9,8"/>
</g>
<use width="243" height="162" xlink:href="#right" transform="scale(-1 1)"/>
<path d="m0,76c-5,0-18,3 0,3 18,0 5-3 0-3"/>
</g>
<path fill="#0038a8" id="rect3641" d="m0,700h1350v100h-1350z"/>
<use width="364.5" height="243" xlink:href="#rect3641" transform="translate(0 -200)"/>
<path fill="#0038a8" id="rect3986" d="m500,300h850v100h-850z"/>
<use width="1350" height="900" xlink:href="#rect3986" transform="translate(0 -200)"/>
</svg>
