<svg xmlns="http://www.w3.org/2000/svg" viewBox="0 0 799.9999 400">
<path d="m0,0h800v133.333h-800z"/>
<path fill="#008000" d="M 0,266.667 H800 V400 H0 z"/>
<path fill="#fff" d="m0,133.333h800v133.334h-800z"/>
<g fill="#c00">
<path d="m0,0l266.6666,200.4826-266.6666,199.5174v-400l0,0z"/>
<circle cx="120" cy="120" r="60" transform="matrix(.88624 0 0 .88624 293.65073 93.6508)"/>
</g>
<circle fill="#fff" cx="120" cy="120" r="60" transform="matrix(.88624 0 0 .88624 313.96816 93.6508)"/>
<path fill="#c00" d="m385.6839,232.2939l22.7418-16.257 22.564,16.5028-8.4337-26.6524 22.6677-16.36-27.9541-.2151-8.5545-26.6138-8.8429,26.5194-27.9547-.0882 22.4889,16.605-8.7225,26.5593z"/>
</svg>
