<svg xmlns="http://www.w3.org/2000/svg" viewBox="0 0 2100 1400">
<path fill="#198a00" d="m0,0h2100v1400h-2100z"/>
<path fill="#ef7d00" d="m1850,500h250v900h-250z"/>
<path d="m1600,500h250v900h-250z"/>
<path fill="#de2010" d="m1350,500h250v900h-250z"/>
<g fill="#ef7d00" fill-rule="evenodd" stroke="#000">
<g stroke-linejoin="round" stroke-width="2.262">
<path d="m1916.4245,168.3344c0,0 86.002-33.7059 94.3348-40.6559 3.7896,4.1698-34.4764,46.5633-108.7317,62.2002 67.4357-14.5945 125.0235-60.4629 136.7681-59.0729 3.4099,.695 2.6504,44.8258-151.9226,83.0494 106.837-25.7142 168.97-72.9723 168.2124-67.76 .7576,1.0424-10.6073,37.181-104.1847,65.3274 26.1416-5.5606 96.9873-45.1732 96.2297-37.5283 2.2726,3.1273-68.573,86.5235-196.6266,59.4207 102.2917,24.3236 168.5902-34.4019 178.0622-33.3594 1.8948,.3475-18.944,51.4279-147.7533,54.5554 61.7552-5.9067 43.9465-.3482 43.9465-.3482 0,0-36.3712,26.0614-80.3176,8.3412 34.4763,8.6878 38.2639,9.0343 39.0216,11.8135-2.2727,3.474-30.6869,8.6877-57.9638-4.8654 21.9723,8.3395 41.6738,9.7309 42.0517,12.8584-.3779,1.0413-14.3951,8.3395-26.8972,3.1275-12.5022-5.2137-127.6758-70.1928-127.6758-70.1928l196.2488-49.3431 7.1975,2.4324z"/>
<path d="m1685.7126,344.1053c-17.257,0-17.7332,14.085-17.7332,14.085 0,0-1.4243,1.0171-.4742,7.8439 2.8489-4.6488 4.2752-6.1008 4.2752-6.1008 1.9004,.2911 9.8158,2.4691 22.3236-6.534-11.4008,10.8901-4.5906,14.9567-4.5906,14.9567 0,0-2.6918,8.5682 6.0151,10.3113-2.6902-3.4862-1.1071-6.5357-1.1071-6.5357 0,0 12.1904-1.1609 11.399-14.811 .476,12.3419 7.7585,15.3915 7.7585,15.3915 0,0 0,6.8251 7.9154,7.4073-4.2731-3.4862-3.3249-8.8592-3.3249-8.8592 0,0 10.2919-6.8251 1.5832-18.4428 5.2252-2.7603 9.5003-10.4551 9.5003-10.4551 0,0-7.1238-2.7602-10.4487-5.082-1.585-3.0513-.1586-19.751-.1586-19.751l-4.2752-21.6379-12.1923,33.6923c.4741-4.7927 .7916,14.5217-16.4655,14.5217z"/>
<path d="m1770.9438,295.5136c.3778,.3483 12.8818,13.2066 25.0044,12.5101 4.5451-3.4741-9.4721-11.1187-9.4721-12.8566 4.9249,4.1705 25.7619,20.5012 39.0234,14.5944 5.3027-6.9498-9.472-5.9067-25.7637-24.6718 11.3649,6.9499 39.781,22.2392 53.0406,16.3324 5.6843-5.5602-29.5514-22.9358-41.296-36.4872l-30.307-14.2462-41.2961,30.9269 31.0665,13.8979z"/>
<path stroke-linecap="round" d="m1724.3449,189.8785c0,0 14.0173-7.6447 70.0881-3.8223 6.0622,.6948 38.2641-10.077 48.4936-13.2044 16.2898-2.7799 68.1933-13.2046 82.2123-22.9343 9.8499-1.0423-2.6542,16.6795-15.1543,20.8492-13.2617,5.5599-61.3755,20.8493-78.4249,18.7644 20.4592,.3476 9.0943,15.6368-25.0042,8.3396 16.2917,8.3396 10.2295,9.7296 10.2295,9.7296 0,0-28.792,1.3899-36.3692-4.5173 19.3219,6.6023 11.3649,9.0346 11.3649,9.0346 0,0-19.6996,1.7374-28.7939-2.0849 14.0173,3.8223 6.8197,6.2549 6.8197,6.2549 0,0-11.3649,1.7374-20.8369-1.3899-9.4702-3.1274-23.8671-25.0191-24.6247-25.0191z"/>
<path d="m1746.8274,302.7164l2.0591,33.9816c0,0-1.1089,1.7431-2.0591,2.7602-.9503,1.0154-26.2833-3.6317-22.7998,14.085 0,7.2618 .1587,9.1487 5.5427,13.2153-1.4263-4.7926-.9502-8.1315-.9502-8.1315 0,0 7.1238,3.9211 14.0909-6.8251-4.7493,10.6006-1.4264,14.3762-.3174,14.6672 1.1089,1.8886-1.8986,10.4551 7.5999,10.3096-3.6403-3.1951-1.8986-7.8422-1.8986-7.8422 0,0 9.9746-1.4502 6.491-18.0061 3.6422-3.3407 5.0666-.1455 5.0666-.1455 0,0 1.1071,9.8746 9.8159,7.8422 3.9596,2.0324-.6328,7.4055-.6328,7.4055 0,0 6.3322,.1456 8.2327-4.7926 1.9005-4.9364 4.1164-13.7957-6.3342-17.4257-1.2657-3.4844 4.1183-3.7756 4.1183-3.7756 0,0 6.6496,2.0324 8.5482,5.0821 1.9005,3.0495 1.2676-7.9861-6.9652-9.1487-10.1332-.2911-10.766-2.178-10.766-2.6129 0-.4366-1.7418-24.6873-2.5333-31.658l-16.3087,1.0154z"/>
</g>
<g stroke-width="2.261">
<g stroke-linecap="round">
<g stroke-linejoin="round">
<path d="m1782.0688,331.6749c.1246-1.5577-17.2854-23.0587-12.8687-25.8379 4.4148,.8334 11.6558,10.6127 17.5215,7.4384-1.7777-3.8119-7.018-1.6651-12.9687-11.4236-5.9488-11.0321-6.8178-27.5931-27.6548-45.6583 13.4902,19.1168 44.092,30.3222 45.388,24.7481 1.2959-5.5741-26.9464-26.6523-25.4993-31.7325 5.6163,10.4326 33.9738,33.6784 54.8674,31.7534 1.432-4.4755-17.1097-13.5081-21.8816-21.9428-13.3466-8.2235-49.0642-36.462-49.7801-43.011-12.9971-17.3866-21.1108-22.6463-24.8891-24.6488-1.4603-1.5776-1.8267-3.0858-2.112-4.0446-8.0684-17.446 2.6183-23.1111 8.8732-23.9488 5.1478-.5247 6.6421,.1821 10.3467-1.4632-4.3866-1.5739-8.7712-3.0458-13.1559-4.6197 5.7184,3.8472 20.3251,.4601 17.1589,11.5414 6.4041-2.2348 20.0303-17.104-15.4436-20.4597-11.5443-12.1472-59.0084-19.1282-70.8889,33.8879 .9483,.7433 1.4451,1.3541 4.464,3.4219-14.9883-6.6634-55.421-11.8018-69.9918-13.9612-39.3635-10.4168-80.2441-35.5199-84.1738-32.4327-5.256,2.1397 23.7834,26.9194 22.274,27.4679-25.1795-13.4657-48.1819-23.0059-69.5854-31.6873-15.0574-5.1625-30.1389-17.182-31.8019-14.8955-5.5416,10.5292 24.1406,36.9961 29.6618,40.1095 5.5229,2.9782 48.9472,21.4534 48.3069,21.6841-65.4052-27.2288-76.3711-32.1651-79.6532-35.3045-5.7647-1.1909-19.8074-18.5813-23.7209-17.463-2.1425,1.9306 2.1546,29.4088 33.3648,41.7434 5.0871,3.4006 66.9003,23.7391 66.295,25.3337-.1512,.3985-70.7982-26.7438-73.5424-27.7142-13.6209-4.8989-30.3342-22.0706-33.4588-20.1396-2.9822,1.7522 7.7047,20.3384 21.4683,26.1678 7.2143,2.92 34.8868,15.4911 59.8185,23.4921 1.5912,.5278-44.8145-16.1407-67.1258-24.6921-10.1162-5.1497-14.8801-11.5686-16.421-10.1875-2.2793,1.3809 3.6824,28.8371 75.3802,44.3296 1.889,.7374 25.2378-5.0733 24.0838-4.3026-.2887,.1927-23.1857,4.7647-25.4151,4.6085-1.9841-.278-14.528,1.3621-14.7549,1.9583-.7579,1.8572 4.5448,11.6882 41.5641,9.6381 4.7326-.261 30.4153-8.5784 28.2576-6.7892-1.0789,.8951-34.9728,10.9967-37.5541,11.196-2.242,.2905-14.1489,1.4326-14.5891,2.5941-.5376,1.5842 8.8133,8.581 28.6936,9.702 17.602,.8577 51.0489-9.8647 50.378-9.1696-.6711,.6951-32.2438,10.6181-33.07,11.2229-1.1424,.5926-12.7038,1.1678-13.1096,1.9822-.9421,2.0256 16.6774,17.1381 68.7864,1.0102-5.2348,6.4855-30.4929,10.9212-30.4566,12.089-.1171,.8473 5.5647,5.8825 14.3953,7.6846 4.415,.901 10.4601,.7173 15.9819-.0832 9.918-1.8211 20.3704-5.4199 33.6508-16.6772 1.587,3.533-33.1747,19.6678-31.5425,21.2064 7.5376,6.411 32.576-.8265 34.2157-1.6668 1.6416-.8421 48.2158-24.93 48.0552-27.7179 .7236,3.5728-60.0454,33.8585-59.3899,35.1009 3.901,5.7092 24.6605-.2998 25.6522-.8248 .99-.5233 26.493-13.1598 27.1919-13.5324 .6972-.3725-29.9726,16.4641-27.2409,19.0267-1.3205,10.9334 47.8985-7.5458 51.756-9.8469 1.9288-1.1505-23.6442,10.313-23.7122,15.7588 8.2348,12.77 34.603,8.719 38.6702,5.9102 2.0346-1.4052-2.3935,9.4865-.9672,8.4971 .4969-.2045 5.7354-5.886 7.7492-9.9977-.6424,3.5677-3.5327,9.1885-5.2197,15.6376-1.6888,6.4491-2.1725,13.7264-4.4903,21.4577-.531,3.396 16.2482-6.6397 13.8112-30.6306 1.4358,12.4789-5.2989,35.8131-3.5365,37.026 3.5252,2.4257 13.2711-11.6212 14.2553-21.1198 2.8942,4.7978 8.9677,14.8128 14.193,17.1173-.5686-7.2582 .1001-6.9255-2.2518-14.0591 1.3563-9.4708 1.5453-22.5787 1.8739-37.3794 14.1987,24.9473 19.8622,35.4821 15.8951,54.5868 4.2221,1.6148 10.9662-13.3348 10.4222-21.0298 5.4218,21.3815 28.8241,24.587 29.1963,23.9649z"/>
<path d="m1545.5749,173.2876c0,0-9.6643,6.6972-21.6907,6.3034 3.0066,11.0306 27.9187,2.5607 27.9187,2.5607 0,0-12.0265,12.2126-20.6168,14.1822 5.1542,3.9395 26.845,2.5608 30.4966,.591 3.6499-1.9699 10.0935-9.6519 10.0935-9.6519 0,0-22.3356,23.6372-25.5569,23.4404-.4296,2.7576 23.4091,1.7727 28.3491-2.3637 4.9382-4.1366 17.395-10.2428 17.395-10.2428 0,0-32.6439,20.8795-34.1477,20.8795 12.2416,2.9548 36.7245-3.5456 52.4022-12.4095-23.1946,14.1824-25.3406,16.743-37.1533,21.4704 10.5243,2.1669 15.8913,8.6673 51.5427-5.5153 20.4024-8.8637 31.9978-25.0161 31.9978-25.0161-12.6703,15.5613-32.6438,28.7597-54.7616,41.7596-1.2903,2.3634 23.6214,12.0145 55.4058-18.3193"/>
</g>
<path d="m1718.2413,239.078c0,0 2.1478,9.2578 10.7376,16.3497 8.5918,7.0902 9.236,13.9846 9.236,13.9846"/>
<path d="m1713.9473,178.8031c0,0 3.0056,8.2729 11.8107,13.5914 9.0206,5.3183 22.5523,22.0614 23.6253,25.016 1.039,3.5761 6.2265,29.3503 5.7978,32.107"/>
<path d="m1659.1838,191.6065c.6441,3.1516-12.6722,19.1069 5.5823,37.8197-16.5373,18.5146-16.5354,20.8797-16.5354,20.8797 0,0 9.2339,4.7268 25.7712-8.2736 27.2732,30.7293 18.1847,44.7919 18.1847,44.7919"/>
<path stroke-linejoin="round" d="m1690.0141,265.1307c0,0-2.5125-3.3008 1.9666-15.6271 4.0332,4.4565 8.518,5.4077 10.4846,7.2115 1.9646,1.8037 22.5579,4.538 23.867,17.1606"/>
</g>
<path d="m1714.2231,149.4322c0-.9273-4.1466-9.0883-19.6165,1.1129 8.2913,.4635 16.4806,4.8223 19.6165-1.1129z"/>
<path stroke-linejoin="round" d="m1861.8688,186.7512c.7575,.3474 46.2209,9.3821 61.3755,4.8648-19.3219,23.6291-57.9657,7.6447-57.9657,7.6447 18.9421,5.2123 19.7016,4.8649 25.7618,9.7296 1.8948,4.5173-34.8541,2.4324-46.9785-3.8223 33.7189,9.7297 34.4765,9.0347 35.6136,12.857 1.5171,5.2123-55.3132-1.39-60.2382-8.3396 15.1545,10.7721 23.4893,12.8571 31.8241,17.7218-10.2295,4.17-29.1718,8.3389-64.0278-14.2469 45.8412,38.2234 87.1374,35.7907 93.5792,42.7405-15.912,21.5443-77.6672-12.8565-106.0814-30.2312-28.4141-17.3742 62.133,42.0464 70.4697,41.0034-4.1692,5.9067-34.0985,.6948-35.9934-2.0844"/>
<g stroke-linecap="round">
<path d="m1873.6134,226.7121c-5.3028,.695-21.2148,.695-23.4874,.3474"/>
<path stroke-linejoin="round" d="m1532.2598,166.9845c0,0 34.5765,16.7429 49.1793,15.5611-3.8651,3.3486-9.6647,4.7275-9.6647,4.7275 3.6517,1.3789 13.7452,6.3033 28.9941,3.1516-3.6516,3.3486-8.3763,7.0914-8.3763,7.0914 0,0 13.101,4.5303 27.9192-2.5609-4.5093,5.1213-7.088,8.8641-7.088,8.8641l10.309,.5909"/>
</g>
</g>
</g>
</svg>
