<svg width="1008" xmlns="http://www.w3.org/2000/svg" height="504" viewBox="0 0 252 126" xmlns:xlink="http://www.w3.org/1999/xlink">
<path fill="#319208" d="m0,0h252v126h-252z"/>
<path fill="#ffd200" d="m0,18h252v90h-252z"/>
<path fill="#de2010" d="m0,36h252v54h-252z"/>
<path d="m0,54h252v18h-252z"/>
<path d="m4.5826,0l84,63-84,63h-4.5826v-126z"/>
<path fill="#fff" d="m0,0l84,63-84,63"/>
<g fill="#de2010">
<g transform="matrix(32 0 0 32 34 63)">
<path id="triangle_ur" d="m0,0 0,1 .75,0z" transform="matrix(.89674 .44257 -.44257 .89674 0 -1)"/>
<use id="triangle_ul" xlink:href="#triangle_ur" transform="scale(-1 1)"/>
<path id="triangle2_ur" d="m0,0 0,1 .75,0z" transform="matrix(.94217 .33512 -.33512 .94217 0 -1)"/>
<use id="triangle2_ul" xlink:href="#triangle2_ur" transform="scale(-1 1)"/>
<use xlink:href="#triangle_ur" transform="rotate(72)"/>
<use xlink:href="#triangle_ul" transform="matrix(.30902 -.95106 .95106 .30902 0 0)"/>
<use xlink:href="#triangle2_ur" transform="rotate(72)"/>
<use xlink:href="#triangle2_ul" transform="matrix(.30902 -.95106 .95106 .30902 0 0)"/>
</g>
<g transform="matrix(27.5 0 0 27.5 34 63)">
<g id="cone_l">
<path id="triangle_l" d="m0,0 0,1 .5,0z" transform="matrix(.91194 .41032 -.41032 .91194 0 -1)"/>
<use xlink:href="#triangle_l" transform="scale(-1 1)"/>
</g>
<use xlink:href="#cone_l" transform="rotate(144)"/>
<use xlink:href="#cone_l" transform="matrix(-.80902 -.58779 .58779 -.80902 0 0)"/>
</g>
</g>
<path fill="#ffc618" d="m28.6354,55.1093c1.9762,4.3053 2.4703,4.5877 7.4108,6.2816 4.9405,1.6937 18.8976,3.2995 20.2739,3.4583-.8999-.8999-16.6214-12.5454-19.8504-14.8746-3.229-2.3291-4.1289-3.3878-4.1289-3.3878 0,0-2.9114-5.2405-3.9172-6.7756-1.0058-1.5351-2.8585-3.7054-5.2934-3.7054-2.435,0-3.917,1.4292-4.6229,3.9701-.3882,.1059-2.4703,1.3765-2.3997,2.6821 .6-.0707 4.376-1.1294 5.6817,3.1407 1.3058,4.2701 1.3763,11.2572 .0353,14.7158-1.341,3.4585-3.4231,6.0697-3.4231,9.1047 0,.4235 .2822,1.2704 .9881,1.2704 .247,1.3411 2.2232,10.9045 2.2232,10.9045h28.1612l4.473-17.292"/>
<g fill="none" stroke="#000">
<g stroke-width=".212">
<path d="m28.6354,55.1093c1.9762,4.3053 2.4703,4.5877 7.4108,6.2816 4.9405,1.6937 18.8976,3.2995 20.2739,3.4583-.8999-.8999-16.6214-12.5454-19.8504-14.8746-3.229-2.3291-4.1289-3.3878-4.1289-3.3878 0,0-2.9114-5.2405-3.9172-6.7756-1.0058-1.5351-2.8585-3.7054-5.2934-3.7054-2.435,0-3.917,1.4292-4.6229,3.9701-.3882,.1059-2.4703,1.3765-2.3997,2.6821 .6-.0707 4.376-1.1294 5.6817,3.1407 1.3058,4.2701 1.3763,11.2572 .0353,14.7158-1.341,3.4585-3.4231,6.0697-3.4231,9.1047 0,.4235 .2822,1.2704 .9881,1.2704 .247,1.3411 2.2232,10.9045 2.2232,10.9045h28.1612l4.473-17.292"/>
<path d="m19.3896,70.9896c0,0 5.9993-.3528 7.6227-.3528 1.6232,0 16.7339,.0186 25.1648,1.9679"/>
<path d="m21.5082,70.8708c0,0-.6011-.7281-.213-2.1749 .3881-1.4468 4.623-5.1878 4.623-10.481"/>
<path d="m25.1417,70.6369c0,0-.494-2.3645 4.9053-4.376 1.5175-.4588 5.8579-2.8938 5.9992-4.87"/>
<path d="m29.4731,66.4853c0,0 13.2433,.0579 23.7241,2.1753"/>
<path d="m32.7926,64.9053c0,0 4.5505,.1557 5.2916-.056 .7411-.2117 2.0529-.7622 2.5748-2.3132"/>
<path d="m35.4904,64.9593c0,0 2.4342-1.2655 2.911-2.911"/>
<path d="m28.1414,81.8941c0,0-1.0411-7.2164-1.2529-11.2572l2.7174,2.5938 2.8748-2.5142 2.4716,2.6378 2.8576-2.4248 2.471,2.7776 2.8299-2.4066 2.2518,2.6184 2.8223-2.0409 3.3551,3.1887"/>
<path d="m50.9508,77.3451c-10.0805-1.4437-23.5703-1.35-23.5703-1.35"/>
<path d="m22.6939,51.0522c0,0 8.1999-3.9184 9.6469-4.4653"/>
</g>
<g transform="matrix(.21174 0 0 .21174 16 36)">
<path d="m52.4873,177.0859 13.0176,11.8516 11.7617-11.7617 11.8965,12.2666 12.8457-11.3584 11.8271,12.4297 13.3389-11.0127 10.8975,12.7275 13.2695-10.1445 13.9473,12.3193"/>
<circle cx="89.425" cy="154.584" r="5.167"/>
<circle cx="111.237" cy="156.047" r="5.167"/>
<circle cx="30.05" cy="16.5" r="4"/>
</g>
</g>
</svg>
