<svg xmlns="http://www.w3.org/2000/svg" viewBox="0 0 1500 1000">
<g fill-rule="evenodd" transform="translate(955.00018 1409.0663)">
<g stroke-width="1.25">
<path fill="#00267f" d="m-955-1409.07h1500v1000.004h-1500z"/>
<path fill="#ffc726" d="m-455-1409.07h499.9998v1000.004h-499.9998z"/>
</g>
<path d="m-205.0002-1151.3125c-16.2534,44.3256-32.7943,90.4167-68.25,125.7812 11.002-3.6366 30.2709-6.8884 42.5937-6.5625v186.3438l-52.5625,7.8125c-1.907-.1935-2.5565-3.1346-2.5625-7.1562-5.0397-57.8253-18.7389-106.4963-34.4688-156.75-1.1128-6.8963-21.0343-33.1314-5.6875-28.5312 1.8485,.2379 22.4572,8.6386 19.1875,4.625-28.0247-28.9802-68.9224-49.8516-108.6875-56.0625-3.5137-.9011-5.5732,.8634-2.4062,4.9375 52.6889,81.2135 96.8336,177.0104 96.4688,290.6875 20.5296,0 70.1891-12.0938 90.7187-12.0938 0,0 0,131.4688 0,131.4688h51.3125c0,0 0-131.4688 0-131.4688 20.5297-0 70.1891,12.0938 90.7188,12.0938-.3649-113.6771 43.7799-209.474 96.4687-290.6875 3.1669-4.0741 1.1074-5.8386-2.4063-4.9375-39.7651,6.2109-80.6628,27.0823-108.6875,56.0625-3.2698,4.0136 17.339-4.3871 19.1875-4.625 15.3468-4.6002-4.5747,21.6349-5.6875,28.5312-15.7299,50.2537-29.4603,98.9247-34.5,156.75-.0061,4.0217-.6242,6.9627-2.5312,7.1562l-52.5625-7.8125v-186.3438c12.3228-.3259 31.5918,2.9259 42.5938,6.5625-35.4557-35.3645-51.9966-81.4556-68.25-125.7812z"/>
</g>
</svg>
