<svg xmlns="http://www.w3.org/2000/svg" viewBox="0 0 1200 800" xmlns:xlink="http://www.w3.org/1999/xlink">
<path fill="#de2910" d="m0,0h1200v800h-1200z"/>
<path fill="#ffde00" d="m-16.5796,99.6007l2.3686-8.1032-6.953-4.7883 8.4386-.2514 2.4053-8.0924 2.8467,7.9479 8.4396-.2131-6.6792,5.1634 2.8106,7.9607-6.9747-4.7567-6.7025,5.1331z" transform="matrix(9.93352 .27747 -.27747 9.93352 324.2925 -695.2415)"/>
<path fill="#ffde00" id="star" d="m365.8552,332.6895l28.3068,11.3757 19.6722-23.3171-2.0716,30.4367 28.2549,11.504-29.5872,7.4352-2.2097,30.4269-16.2142-25.8415-29.6206,7.3009 19.5662-23.4061-16.0968-25.9148z"/>
<g fill="#ffde00">
<path d="m519.0779,179.3129l-30.0534-5.2418-14.3945,26.8976-4.3017-30.2023-30.0293-5.3781 27.3948-13.4242-4.1647-30.2215 21.2326,21.9057 27.4554-13.2998-14.2723,26.9627 21.1331,22.0017z"/>
<path d="m455.2592,315.9795l9.3734-29.0314-24.6325-17.9978 30.507-.0566 9.505-28.9886 9.481,28.9964 30.507,.0818-24.6474,17.9774 9.3493,29.0392-24.714-17.8858-24.7288,17.8653z"/>
</g>
<use xlink:href="#star" transform="matrix(.99863 .05234 -.05234 .99863 19.40005 -300.53681)"/>
</svg>
