<svg xmlns="http://www.w3.org/2000/svg" viewBox="0 0 600 300">
<path fill="#e23d28" d="m0,0h600v300h-600z"/>
<path fill="#f9dd16" d="m0,0h600v200h-600z"/>
<path fill="#006b3f" d="m0,0h600v100h-600z"/>
<path fill="#00a5db" d="m296.2169,563.248a27.2296,27.993 0 1,1 -54.4591,0 27.2296,27.993 0 1,1 54.4591,0z" transform="matrix(2.75436 0 0 2.67924 -440.8878 -1359.077)"/>
<path fill="#f9dd16" d="m367.9368,508.5881h43.5926l9.8564-30.335 2.6286,8.0902-14.3234,44.0831-4.2532-3.0902 4.467-13.7481h-35.086l-6.8819-5m21.7963,67.082l13.4708-41.459-25.8045-18.7481h8.5065l37.4993,27.2448-4.2532,3.0902-11.6948-8.4968-10.8422,33.3688-6.8819,5m70.5342,0l-35.2671-25.6231-25.8045,18.7481 2.6287-8.0902 37.4993-27.2448 1.6246,5-11.6948,8.4968 28.3852,20.6231 2.6287,8.0902m21.7963-67.082l-35.2671,25.6231 9.8564,30.335-6.8819-5-14.3234-44.0831h5.2573l4.467,13.7481 28.3852-20.6231h8.5065m-57.0634-41.459l13.4708,41.459h31.8961l-6.8819,5h-46.3517l1.6246-5h14.4556l-10.8422-33.3688 2.6287-8.0902z" transform="translate(-125 -377.3622)"/>
<path stroke="#f9dd16" stroke-width="2.5" d="m425.0003,554.8622v32.5m-26.154-51.502l-30.9093,10.043m40.8993-40.789l-19.103-26.293m51.4312,26.293l19.103-26.293m-9.1131,57.039l30.9093,10.043-30.9093-10.043z" transform="translate(-125 -377.3622)"/>
</svg>
