<svg width="900" xmlns="http://www.w3.org/2000/svg" height="600" viewBox="-150 -100 300 200" xmlns:xlink="http://www.w3.org/1999/xlink">
<defs>
<g id="smallcross">
<clipPath id="vclip">
<path d="m-109,104a104,104 0 0,0 0-208h218a104,104 0 0,0 0,208z"/>
</clipPath>
<path id="varm" d="m-55,74a55,55 0 0,1 110,0v-148a55,55 0 0,1 -110,0z" clip-path="url(#vclip)"/>
<use xlink:href="#varm" transform="rotate(90)"/>
</g>
</defs>
<path fill="#fff" d="m-150-100h300v200h-300z"/>
<g fill="#f00">
<path d="m-20-100h40v200h-40z"/>
<path d="m-150-20h300v40h-300z"/>
</g>
<use fill="#f00" xlink:href="#smallcross" transform="translate(-85 -60)"/>
<use fill="#f00" xlink:href="#smallcross" transform="translate(85 -60)"/>
<use fill="#f00" xlink:href="#smallcross" transform="translate(-85 60)"/>
<use fill="#f00" xlink:href="#smallcross" transform="translate(85 60)"/>
</svg>
