<svg xmlns="http://www.w3.org/2000/svg" viewBox="0 0 820 440">
<defs/>
<path d="m-749.1111,2820.1133 0,0"/>
<g fill="#d53848">
<path d="m19.7809,420.2189 709.4623,0 0-410.4382-709.4623,0 0,410.4382z"/>
<path d="m0,0 0,440 820,0 0-440-820,0z"/>
</g>
<path fill="#0050c8" d="m20,420 780,0 0-400-780,0 0,400z"/>
<g transform="matrix(1.16326 0 0 1.07518 -24.86885 -20.6791)">
<path fill="#d53848" d="m374.058,112.2412c0,0-68.9935,50.8848-68.9935,110.8848 0,60.0096 68.9936,112.3344 68.9936,112.3344 0,0 68.5511-48.0096 68.5511-112.3344 0-64.32-68.5511-110.8848-68.5511-110.8848"/>
<path fill="#66afeb" d="m432.2264,242.974c1.5134-6.384 2.3732-13.0128 2.3732-19.848 0-57.6-60.5416-100.32-60.5416-100.32 0,0-61.4265,44.1648-61.4265,100.32 0,6.744 .8749,13.3152 2.4185,19.68l117.1764,.168"/>
<path fill="#013a76" d="m373.5552,324.4156c0,0 47.484-34.0224 58.6511-81.6096h-117.2016c11.338,46.6704 58.5505,81.6096 58.5505,81.6096"/>
<path fill="#e7dede" d="m434.3029,229.8508c-10.3877,8.0064-68.8477,4.1616-68.8477,4.1616l-3.2682,8.9616h70.0343c.2916-1.2288 .5581-2.4576 .7994-3.7008l1.2821-9.4224"/>
<g fill="#fff100">
<path d="m370.463,286.4956c-.8899-6.7056-28.2319-13.8864-42.7426-13.296 4.5302,7.6896 9.6637,14.7264 14.8274,20.9808 7.371-8.5584 28.2068-5.472 27.9152-7.6848"/>
<path d="m425.8057,261.5644c-3.4743,.1344-9.7794,.7344-14.0984,3.168-6.2296,3.5184-20.1772,7.3632-26.4118,5.4384-6.2296-1.92-16.0241,4.1616-14.8325,5.4384 1.976,2.136 16.3157-.3168 16.3157,13.4448 0,11.52-16.6123,6.4032-23.1437,11.2032-3.9369,2.8848-6.6821,6.0192-8.2408,8.0352 10.1967,10.2096 18.1811,16.1232 18.1811,16.1232 0,0 18.9302-13.5648 35.6934-35.5296l7.8838-11.3184c3.1777-5.0352 6.1241-10.3776 8.6531-16.0032"/>
</g>
<path d="m352.0356,258.4156 2.514,0 0-29.28-2.514,0 0,29.28z"/>
<path fill="#7b4800" d="m360.201,263.9356c0,0-1.0307,.1968-2.6698,.4224v-2.2848h-1.6693v2.4816c-1.7095,.1872-3.781,.3408-5.9531,.3408-2.3078,0-4.6358-.1824-6.5564-.3936v-2.3664h-1.8402v2.1408c-1.5888-.216-2.6145-.4032-2.6145-.4032 0,0-.5028,3 10.8503,3 11.3481,0 10.4581-2.9376 10.4581-2.9376"/>
<g fill="#009270">
<path d="m370.277,172.8508c0,0-9.4626-6-22.3693-3.1248-12.9068,2.88-15.6922,11.6352-15.6922,11.6352l4.3391-2.1552 .1106,1.92 3.8967-2.64 .1106,1.92 3.3386-3.3552 .548,2.1552 3.0067-2.88 .2263,1.56 4.8922-3.36v2.16l3.8967-1.9248-.3318,2.0448 7.3458-1.4352c0,0-17.3615,6.2352-19.5839,21.2352l3.3335-4.3104 .3369,2.0304 2.1117-4.5552 .5581,1.8 1.8905-4.2 .5531,2.5152 2.8911-4.56 .2263,2.6448 3.3335-4.92v2.3904l3.5648-4.2-.1106,3.1296c0,0 3.4492-3.1296 4.5553-3.1296l-4.1129,5.7648 1.3374,.48c0,0-2.8961,2.52-3.1173,3-.2212,.4752 1.8955,0 1.8955,0 0,0-2.5643,2.8752-2.6749,3.72-.1106,.8448 1.6693,0 1.6693,0 0,0-2.338,3.2352-2.6698,4.4448-.3369,1.2 1.2218,.2352 1.2218,.2352 0,0-1.443,3.84-1.5587,4.92-.1106,1.0704 1.6693-.2448 1.6693-.2448l1.0056,6.6 1.7799-7.9104 1.1112,1.8v-5.6448l1.0006,.9552-.1106-3.7104 1.3324,1.4352-.6637-4.56 1.443,1.7904-.2212-3.8304 1.443,1.5648v-5.0448l1.3374,1.3104 .2212-3.4656 1.5587,.8352c0,0 .2212-4.2 2.0061-4.08 1.7749,.1104 4.0023,2.1552 3.1123,3.1104l1.5587-.4656-.3318,4.0656 1.443-.9552-.2212,3 1.2218-.6-.4425,3.8352 1.4481-.9456 .1056,4.6656 1.6642-1.3104-.1106,5.5104 1.6693-1.4304v4.5552l1.5587-1.1904 1.6743,4.4352-.3369-6.6 1.2268,1.0752-2.2324-4.6752 1.6743-.2448-1.7849-3.1248 1.6693,.1344-2.4436-3.1248 1.6642-.3552-3.6754-2.8848 2.0062-.8352-3.786-2.6448 1.4481-.6-2.6648-3 2.7804,1.2 .8849-1.92 3.3386,2.8848v-2.8848l2.8911,4.32 .3369-2.6448 2.2274,3.3648 .4425-1.5552 1.5587,3.3552 .7743-2.5104 1.5587,3.6 .4425-2.5296 1.4481,3.9648 1.3374-1.5648 .6687,4.0848 1.3274-1.5648 1.2218,3.6 1.5587-1.32 1.3374,4.0848c0,0 3.6704-21.8448-27.8197-22.2096l-9.347-1.9104"/>
<path d="m355.8116,153.406 1.7749,2.3904-.8899,.7296 3.0067,1.8-.6687,1.3152 3.0067,1.2-1.1162,.9648 2.6749,1.6704-1.7799,.6096 3.2229,1.6752-.4425,1.5552 2.7804,.7248-1.2218,1.0752 3.2229,2.7696 3.6754,2.7552 2.5592-.9552-1.0056-5.2896c0,0-10.5688-15.6-18.7995-15"/>
<path d="m365.4904,138.286 1.2268,3.1104-1.6743,.3648 3.786,4.08-3.0067,.12 3.6754,3.1152-1.7849,.6096 3.3436,3.6-1.7849,.9552 3.4492,3.72-2.333,.9552 3.8967,3.8448-2.2274,.1248 2.333,3.2304-2.1117,.7248c0,0 2.5592,5.1552 2.4436,7.32l4.3391,.2352c0,0 .6687-13.92 .1156-15.72l-1.1162,.84 .3318-5.04-1.6693,1.0848-.3268-6-1.6743,1.9152-.4374-5.88-1.2268,2.0448-1.2268-5.7648-1.3324,1.8-1.2268-3.7152-1.0006,1.4352-2.7805-3.12"/>
<path d="m376.7279,173.326c1.2268-8.4 9.352-20.64 24.5967-21.12l-3.4542,1.92 2.0062,.96-4.0073,1.5648 2.0011,1.3104-4.7816,.3648 2.4436,1.8-3.5548,.48-2.7855,.6 2.0011,2.0352-4.0073,.4752 2.5643,1.4448c0,0-6.3453,2.4-6.7877,3.1248 0,0 21.3688-5.88 26.5979,5.0304l-4.1229-1.92 .3369,2.0448-2.8911-2.28 .4425,1.68-3.0017-1.68 .4425,2.0352-3.1173-1.92 .6687,1.8096-4.0073-2.0448 .6687,1.92-3.4492-1.2 .3369,2.0352-3.4542-.2352 .3369,2.4-10.6844-.2448-1.3374-2.4"/>
</g>
<path fill="#7b4800" d="m373.4647,180.5644 2.2274-.1584c-1.0408,22.8864-.0654,55.6992 2.8157,67.848 4.8922,20.6352 19.1565,28.584 22.5504,30.5616 1.9257,1.1136 1.1866,5.7552-2.6749,5.4384-3.8514-.3216-17.3112-11.0448-21.9571-30.2448-6.2246-25.7616-3.2028-70.7616-2.9615-73.4448"/>
<g fill="#d53848">
<path d="m343.7244,215.6284-2.6397,0c-.2061-1.2288-.7039-2.0928-1.4933-2.568-.4425-.2736-.9302-.4032-1.4682-.4032-1.0408,0-1.8855,.5328-2.5492,1.632-.6687,1.0848-1.0006,2.736-1.0006,4.92 0,2.2128 .362,3.768 1.081,4.6992 .719,.9072 1.5385,1.368 2.4587,1.368 .9,0 1.6341-.36 2.2123-1.0896 .5732-.72 .9251-1.6752 1.0659-2.8608h-2.9765v-2.9904h5.3497v9.6288h-1.7749l-.2715-2.2416c-.5179,.8544-.9805,1.4544-1.3927,1.8096-.7089,.6096-1.5788,.912-2.6145,.912-1.6995,0-3.0972-.8256-4.1782-2.4768-1.1313-1.6512-1.6995-3.9168-1.6995-6.7872 0-2.904 .5732-5.2416 1.7196-6.9936 1.1363-1.752 2.6497-2.6256 4.5352-2.6256 1.6291,0 2.9413,.5808 3.9318,1.7376 .9855,1.152 1.5587,2.5968 1.7045,4.3296"/>
<path d="m356.2892,221.0572 0-11.0352 2.7251,0 0,11.0352c0,1.2288 .1106,2.1264 .3168,2.6976 .3268,1.0032 1.0307,1.512 2.1268,1.512 1.081,0 1.7899-.5088 2.1168-1.512 .2112-.5712 .3067-1.4688 .3067-2.6976v-11.0352h2.7302v11.0352c0,1.9008-.2112,3.384-.6335,4.4544-.7944,1.9392-2.2978,2.9136-4.5252,2.9136-2.2224,0-3.7358-.9648-4.5302-2.9136-.4223-1.0608-.6335-2.5536-.6335-4.4544"/>
<path d="m383.3396,227.9644 .8899-3.6816 4.7313,0 .8246,3.6816 2.9062,0-4.5503-17.9424-3.0218,0-4.5855,17.9424 2.8056,0"/>
<path d="m409.6459,224.1292 2.3179-14.1072 3.8564,0 0,17.9424-2.4989,0 0-12.1296c0-.3552 .005-.8448 .0101-1.4736 .005-.6288 .0101-1.1136 .0101-1.4496l-2.4335,15.0528h-2.6045l-2.4134-15.0528c0,.336 .005,.8208 .0101,1.4496 .005,.6288 .0101,1.1184 .0101,1.4736v12.1296h-2.4989v-17.9424h3.9017l2.333,14.1072"/>
</g>
<path fill="#7b4800" d="m349.4261,258.3292c9.2011,0 16.9191-1.5936 16.9191-1.5936 0,0 1.1816,6.3936-16.9191,6.3936-18.1006,0-16.6174-5.4336-16.6174-5.4336 0,0 7.4212,.6336 16.6174,.6336"/>
<path fill="#fff" d="m341.7082,230.806c0,0 14.2442,5.7648 19.8856,25.9296 0,0-13.0576-2.8752-20.4789,.3216h-4.1531c0-.01 7.1246-11.2032 4.7464-26.2512"/>
<g fill="#7b4800">
<path d="m377.0647,172.8892c1.3877,0 2.519,1.2192 2.519,2.7168 0,1.5024-1.1313,2.7168-2.519,2.7168-1.3927,0-2.519-1.2144-2.519-2.7168 0-1.4976 1.1263-2.7168 2.519-2.7168"/>
<path d="m373.0575,172.102c1.3022,0 2.3581,1.1328 2.3581,2.5392 0,1.4064-1.0559,2.5488-2.3581,2.5488-1.3022,0-2.3581-1.1424-2.3581-2.5488 0-1.4064 1.0559-2.5392 2.3581-2.5392"/>
<path d="m373.0575,176.7148c1.2168,0 2.2022,1.056 2.2022,2.3712 0,1.3104-.9855,2.3808-2.2022,2.3808-1.2168,0-2.2022-1.0704-2.2022-2.3808 0-1.3152 .9855-2.3712 2.2022-2.3712"/>
<path d="m376.0591,175.342c1.3073,0 2.3631,1.1376 2.3631,2.544 0,1.4064-1.0559,2.5392-2.3631,2.5392-1.3022,0-2.3581-1.1328-2.3581-2.5392 0-1.4064 1.0559-2.544 2.3581-2.544"/>
</g>
<path fill="#3796d2" d="m388.2117,221.1868-3.2581,0 1.6542-7.0608 1.6039,7.0608"/>
</g>
</svg>
