<svg xmlns="http://www.w3.org/2000/svg" viewBox="0 0 1540 880" xmlns:xlink="http://www.w3.org/1999/xlink">
<defs>
<path fill="#fff" id="Allahu_Akbar" d="m0,0 1,0 0-2 3,0 0,2 5,0 0-3-3,0 0,1 2,0 0,1-3,0 0-2-5,0 0,3zm2,0 1,0 0-1-1,0 0,1zm-2-4 13,0 0-1-13,0 0,1zm13,4-3,0 0-3 4,0 0-2 1,0 0,4 1,0 0-4 1,0 0,4 1,0 0-4 1,0 0,5-5,0 0-2-3,0 0,1 2,0 0,1z" transform="translate(-9.5)"/>
<path fill="#fff" id="lines" d="m0,0 9,0 0-2-9,0 0,2zm10,0 9,0 0-2-9,0 0,2z" transform="translate(-9.5)"/>
</defs>
<path fill="#fff" d="m0,0 1540,0 0,880h-1540v-880z"/>
<path fill="#239f40" d="m0,0h1540v294h-1540z"/>
<path fill="#da0000" d="m743,329c-2,7 1,14 7,18 7,4 15,2 20-3 5,5 13,7 20,3 6-4 9-11 7-18-2,4-7,7-12,8-5,1-11,0-15-3-4,3-10,4-15,3-5-1-10-4-12-8zm27,19-14,11 2,149c-11-9-21-20-29-33-22-38-19-86 7-121-40,31-51,88-25,132 10,17 24,30 40,38-16,6-32,8-49,6 18,7 38,9 57,5v1l11,13 11-13v-1c19,4 39,2 57-5-17,2-33,0-49-6 16-8 30-21 40-38 26-44 15-101-25-132 26,35 29,83 7,121-8,13-18,24-29,33l2-149-14-11zm-47,2c-35,10-60,39-64,75-5,36 14,70 45,88-20-24-30-55-26-86 4-31 20-59 45-77zm94,0c25,18 41,46 45,77 4,31-6,62-26,86 31-18 50-52 45-88-4-36-29-65-64-75zm-817,236v294h1540v-294h-1540z"/>
<use width="1540" height="880" xlink:href="#Allahu_Akbar" transform="matrix(7 0 0 7 70 280)"/>
<use width="1540" height="880" xlink:href="#Allahu_Akbar" transform="matrix(7 0 0 7 210 280)"/>
<use width="1540" height="880" xlink:href="#Allahu_Akbar" transform="matrix(7 0 0 7 350 280)"/>
<use width="1540" height="880" xlink:href="#Allahu_Akbar" transform="matrix(7 0 0 7 490 280)"/>
<use width="1540" height="880" xlink:href="#Allahu_Akbar" transform="matrix(7 0 0 7 630 280)"/>
<use width="1540" height="880" xlink:href="#Allahu_Akbar" transform="matrix(7 0 0 7 770 280)"/>
<use width="1540" height="880" xlink:href="#Allahu_Akbar" transform="matrix(7 0 0 7 910 280)"/>
<use width="1540" height="880" xlink:href="#Allahu_Akbar" transform="matrix(7 0 0 7 1050 280)"/>
<use width="1540" height="880" xlink:href="#Allahu_Akbar" transform="matrix(7 0 0 7 1190 280)"/>
<use width="1540" height="880" xlink:href="#Allahu_Akbar" transform="matrix(7 0 0 7 1330 280)"/>
<use width="1540" height="880" xlink:href="#Allahu_Akbar" transform="matrix(7 0 0 7 1470 280)"/>
<use width="1540" height="880" xlink:href="#lines" transform="matrix(7 0 0 7 70 301)"/>
<use width="1540" height="880" xlink:href="#lines" transform="matrix(7 0 0 7 210 301)"/>
<use width="1540" height="880" xlink:href="#lines" transform="matrix(7 0 0 7 350 301)"/>
<use width="1540" height="880" xlink:href="#lines" transform="matrix(7 0 0 7 490 301)"/>
<use width="1540" height="880" xlink:href="#lines" transform="matrix(7 0 0 7 630 301)"/>
<use width="1540" height="880" xlink:href="#lines" transform="matrix(7 0 0 7 770 301)"/>
<use width="1540" height="880" xlink:href="#lines" transform="matrix(7 0 0 7 910 301)"/>
<use width="1540" height="880" xlink:href="#lines" transform="matrix(7 0 0 7 1050 301)"/>
<use width="1540" height="880" xlink:href="#lines" transform="matrix(7 0 0 7 1190 301)"/>
<use width="1540" height="880" xlink:href="#lines" transform="matrix(7 0 0 7 1330 301)"/>
<use width="1540" height="880" xlink:href="#lines" transform="matrix(7 0 0 7 1470 301)"/>
<use width="1540" height="880" xlink:href="#Allahu_Akbar" transform="matrix(7 0 0 7 70 635)"/>
<use width="1540" height="880" xlink:href="#Allahu_Akbar" transform="matrix(7 0 0 7 210 635)"/>
<use width="1540" height="880" xlink:href="#Allahu_Akbar" transform="matrix(7 0 0 7 350 635)"/>
<use width="1540" height="880" xlink:href="#Allahu_Akbar" transform="matrix(7 0 0 7 490 635)"/>
<use width="1540" height="880" xlink:href="#Allahu_Akbar" transform="matrix(7 0 0 7 630 635)"/>
<use width="1540" height="880" xlink:href="#Allahu_Akbar" transform="matrix(7 0 0 7 770 635)"/>
<use width="1540" height="880" xlink:href="#Allahu_Akbar" transform="matrix(7 0 0 7 910 635)"/>
<use width="1540" height="880" xlink:href="#Allahu_Akbar" transform="matrix(7 0 0 7 1050 635)"/>
<use width="1540" height="880" xlink:href="#Allahu_Akbar" transform="matrix(7 0 0 7 1190 635)"/>
<use width="1540" height="880" xlink:href="#Allahu_Akbar" transform="matrix(7 0 0 7 1330 635)"/>
<use width="1540" height="880" xlink:href="#Allahu_Akbar" transform="matrix(7 0 0 7 1470 635)"/>
<use width="1540" height="880" xlink:href="#lines" transform="matrix(7 0 0 7 70 593)"/>
<use width="1540" height="880" xlink:href="#lines" transform="matrix(7 0 0 7 210 593)"/>
<use width="1540" height="880" xlink:href="#lines" transform="matrix(7 0 0 7 350 593)"/>
<use width="1540" height="880" xlink:href="#lines" transform="matrix(7 0 0 7 490 593)"/>
<use width="1540" height="880" xlink:href="#lines" transform="matrix(7 0 0 7 630 593)"/>
<use width="1540" height="880" xlink:href="#lines" transform="matrix(7 0 0 7 770 593)"/>
<use width="1540" height="880" xlink:href="#lines" transform="matrix(7 0 0 7 910 593)"/>
<use width="1540" height="880" xlink:href="#lines" transform="matrix(7 0 0 7 1050 593)"/>
<use width="1540" height="880" xlink:href="#lines" transform="matrix(7 0 0 7 1190 593)"/>
<use width="1540" height="880" xlink:href="#lines" transform="matrix(7 0 0 7 1330 593)"/>
<use width="1540" height="880" xlink:href="#lines" transform="matrix(7 0 0 7 1470 593)"/>
</svg>
