<svg xmlns="http://www.w3.org/2000/svg" viewBox="0 0 750 500" xmlns:xlink="http://www.w3.org/1999/xlink">
<path fill="#ed1c24" d="m0,0h750v500h-750z"/>
<path fill="#fff" d="m0,125h750v250h-750z"/>
<path fill="#00a651" d="m371.5894,125l-4.1002,6.8297c-2.255,3.757-7.7183,9.3961-12.1236,12.5212-4.4053,3.125-9.7151,7.7782-11.8286,10.3421l-3.8642,4.6507 4.1002-1.0733c2.2462-.5935 5.1724-1.5443 6.519-2.114 1.3466-.5697 2.4483-.2528 2.4483,.7155 0,.0259 .002,.0706 0,.0976-.0054,.0546-.0163,.1367-.0295,.1951-.5939,2.4091-7.6312,7.93-13.215,10.2445-5.3445,2.2153-13.2682,7.9993-14.3064,10.3096-.0246,.0573-.0432,.1424-.059,.1951-.0071,.026-.0246,.0728-.0295,.0976-.0041,.0244 .0017,.0744 0,.0975-.0003,.0076 0,.0251 0,.0325-0,.0064-.0002,.0262 0,.0325 .0005,.0062-.0007,.0264 0,.0325 .0009,.0061-.0012,.0265 0,.0325 .0057,.0237 .0199,.0751 .0295,.0975 .0079,.0167 .0195,.0491 .0295,.0651 .0036,.0053 .0257,.0274 .0295,.0325 .008,.0102 .0206,.0226 .0295,.0325 .0047,.0049 .0246,.0277 .0295,.0325 .0205,.0189 .0645,.0474 .0885,.0651 .6258,.437 2.3482,.5034 4.3362,.0651 3.4871-.769 4.9246-.2917 6.0765,2.0814 1.762,3.63 .752,5.2687-3.3037,5.2686-4.9051,0-11.8873,4.926-12.8315,9.0738-.6331,2.781-3.3092,5.0492-9.0558,7.6753-9.3822,4.2874-21.4897,12.4733-22.3297,14.9929-.0212,.0701-.0268,.1669-.0295,.2277 0,3.5714 7.9022,3.3224 19.3505-.618 2.5668-.8834 3.6983,.0162 5.6341,4.4231 2.3963,5.4552 2.3585,5.5888-3.2152,12.7813-3.8923,5.0228-7.3145,7.613-11.0321,8.3908-7.4068,1.5495-9.7089,3.0539-19.321,12.6512-4.6,4.5929-9.2174,8.3937-10.2652,8.4233-.4108,.0116-.6837,.0738-.8259,.1951-.0046,.0043-.0252,.0281-.0295,.0325-.004,.0045-.0258,.0279-.0295,.0325-.0032,.0048-.0266,.0276-.0295,.0325-.0026,.005 .0023,.0274 0,.0325-.0021,.0052-.0277,.0271-.0295,.0325-.0015,.0054 .0013,.0269 0,.0325-.001,.0057 .0007,.0268 0,.0325-.0005,.0058 .0002,.0266 0,.0325 .0002,.012-.0012,.0526 0,.065 .0008,.0063-.0011,.0261 0,.0325 .0054,.0259 .0201,.0703 .0295,.0976 .0052,.0138 .0234,.0509 .0295,.065 .0066,.0143 .022,.0505 .0295,.065 .7732,1.4224 5.8471,4.2279 8.7018,4.2279 2.0892,0 7.1804-2.3882 11.2976-5.3012 7.2254-5.112 7.5827-5.1885 10.5012-2.2766 1.663,1.6593 3.0383,4.8761 3.0383,7.1224 0,3.424-1.84,4.989-11.3271,9.8218-7.0194,3.5757-15.2629,9.7217-21.7103,16.1636-8.6654,8.6582-11.1238,10.2553-14.8078,9.6592-2.326-.3764-3.6266-.5334-4.0412-.2927-.0133,.0088-.0478,.0227-.059,.0325-.0051,.0052-.0249,.0271-.0295,.0325-.0041,.0057-.0259,.0266-.0295,.0326-.0153,.0312-.0268,.0919-.0295,.1301-.0026,.4432 .7799,1.3477 2.1828,2.8945 1.3284,1.4647 4.4114,2.6669 6.8435,2.6669 6.6349,0 27.6082-7.8171 34.0698-12.6838 5.999-4.5183 11.8314-5.3896 16.6662-2.5367 7.4799,4.4136-5.0278,13.3012-28.5832,20.3265-8.6654,2.5844-16.1739,5.0995-17.1382,5.7239-.0139,.0096-.0485,.0239-.059,.0325-.0044,.0041-.0261,.0287-.0295,.0325-.0032,.0041-.0264,.0283-.0295,.0325-.003,.0043 .0029,.0281 0,.0325-.3372,.5584 .1607,2.0284 1.1799,3.3823 2.4595,3.2674 14.8363,3.4251 25.3975,.2927 4.2268-1.2536 14.7532-5.5124 23.3917-9.4315 15.6685-7.1086 15.7267-7.0962 21.2088-4.2279 12.7381,6.6645 11.5612,18.3263-3.7462,37.4984-6.6662,8.3493-12.5808,12.0733-23.3327,14.7001-3.9778,.9718-12.1531,8.6747-12.1531,11.4479 0,.2737 .0534,.4898 .118,.6829h2.7433c.6025-.4401 1.2177-1.0744 1.8288-1.8863 3.3893-4.5026 10.2245-7.5063 17.1381-7.5452 7.5122-.0423 16.7151-4.1674 23.6276-10.6023 6.0731-5.6534 12.1738-7.3387 16.7842-4.6182 2.5542,1.5071 4.878,1.6575 7.9644,.4878 5.4884-2.0799 8.2003-1.0745 8.2004,3.0246 0,1.8434 1.9316,4.316 4.5722,5.8215 2.5247,1.4394 7.0295,4.9626 9.9997,7.8379 2.2621,2.1899 3.9104,3.19 4.7786,3.1872 .0331-.0009 .0872,.004 .118,0 .0227-.0035 .0672,.0053 .0885,0 .0139-.0039 .0456-.0279 .059-.0325 .013-.005 .0466-.0268 .059-.0325 .0365-.0185 .0869-.0398 .118-.0651 .005-.0044 .0246-.0279 .0295-.0325 .0047-.0048 .0249-.0276 .0295-.0325 .0044-.0051 .0252-.0272 .0295-.0325 .0041-.0055 .0255-.0268 .0295-.0325 .0114-.0176 .0194-.0457 .0295-.065 .0064-.0132 .0237-.0511 .0295-.065 .0055-.0143 .0247-.0499 .0295-.065 .0068-.0231 .0241-.0727 .0295-.0976 .0066-.0338-.0041-.0934 0-.1301 .0882-.9629-.6578-2.9008-2.3893-5.6264-1.0177-1.6019-1.536-3.1986-1.3864-4.0002 .008-.0385 .0182-.0955 .0295-.1301 .0048-.0135 .0242-.0522 .0295-.065 .0028-.0063-.0029-.0265 0-.0325 .0031-.0059 .0263-.0268 .0295-.0325 .0167-.0279 .0388-.0741 .059-.0976 .0042-.0045 .0252-.0282 .0295-.0325 .0134-.0124 .0444-.0218 .059-.0325 .005-.0034 .0239-.0292 .0295-.0325 .0123-.0065 .0445-.0263 .059-.0325 .9583-.3706 6.0366-.1817 11.5926,.4553 9.7732,1.1204 10.9578,1.7079 16.7252,8.3908 2.8482,3.3002 5.1853,5.3735 7.0795,6.2443h3.9232c.8364-.3766 1.4264-.9222 1.5634-1.4635 .0034-.0146 .0268-.0504 .0295-.065 .0035-.022-.002-.0756 0-.0976 .001-.0146-.0003-.0504 0-.065-.0001-.0146 .0008-.0505 0-.0651-.0003-.0036 .0005-.0288 0-.0325-.0013-.0078 .002-.0241 0-.0325-.3359-1.1224-6.123-6.628-13.0675-12.4236-15.7831-13.1718-18.2031-17.9853-18.2591-36.23-.0335-10.911 .4844-13.7057 3.0383-16.5214 3.9783-4.3863 6.1636-4.2803 15.9287,.8131 7.3744,3.8464 9.6655,4.1676 26.4299,3.8051 18.004-.3893 18.5309-.2769 27.5803,5.041 5.0722,2.9806 11.2688,6.9721 13.8049,8.8786 5.5985,4.2087 11.2835,4.5049 12.625,.6505 1.5843-4.5519-9.0588-13.3808-29.0552-24.0341-19.8847-10.5938-21.9676-13.5562-12.802-18.3752 5.2132-2.7409 5.5743-2.6889 13.8344,1.9188 6.6214,3.6936 9.6497,4.4877 13.8934,3.61l5.4276-1.1383-11.9466-9.7893c-6.5687-5.3828-12.9229-11.093-14.1294-12.7163-3.4885-4.6936-10.2358-7.8054-16.8727-7.8054-3.11,0-6.0152-.5962-6.814-1.3334-.0258-.0251-.0676-.0721-.0885-.0976-.0049-.0064-.0249-.0261-.0295-.0325-.0085-.0129-.0223-.0522-.0295-.0651-1.8666-3.33 3.7547-4.9113 19.439-5.5288 21.1301-.8319 24.0369-3.294 9.4687-8.0005-5.8172-1.8793-14.5339-4.2577-19.38-5.3012-5.9088-1.2724-9.1844-2.6595-9.9997-4.2604-.0894-.1825-.1504-.3964-.177-.5854-.0171-.1395-.0167-.3119 0-.4553 .0723-.5438 .3953-1.1189 .9439-1.7237 .9923-1.0941 5.7333-.972 13.8049,.3903 9.0479,1.5271 14.0005,1.8692 14.8963,.8131 .9319-1.2145-3.2379-4.2382-12.448-9.3339-8.3913-4.6427-18.9815-12.1561-23.8046-16.9117-4.7796-4.7126-11.8793-10.0731-15.7518-11.9032-5.1111-2.4155-6.7662-4.0546-6.106-5.9516 1.1518-3.3092 9.1943-3.3428 14.3949-.065 2.1134,1.332 7.651,2.4068 12.3005,2.3741l8.4659-.0651-5.6046-2.2765c-5.5979-2.2704-20.8253-13.1011-22.0053-15.5457-.0217-.0483-.0492-.1214-.059-.1626-.003-.0159 .001-.0504 0-.065 0-.0045-.0005-.0281 0-.0325 .0009-.0044-.0014-.0282 0-.0325 .0023-.0043 .0268-.0283 .0295-.0326 .0064-.0083 .0214-.0244 .0295-.0325 .0045-.004 .0246-.0285 .0295-.0325 .6228-.46 4.1343-.6566 8.3478-.4228l8.4658,.4878-12.1825-9.399c-8.9379-6.887-14.4459-9.8516-20.7369-11.1877-4.7144-1.0013-10.119-2.1915-12.0055-2.6343-5.0524-1.1859-13.5373-10.0292-16.9907-17.7247l-3.0088-6.7322zm-27.7573,47.4177c.1843-.0067 .3862,0 .5899,0 1.5707,0 2.7121,.3829 3.1857,.9757 .0107,.0139 .0491,.0509 .059,.065 .0096,.0143 .0207,.0505 .0295,.065 .0507,.0877 .0947,.197 .118,.2927 .0052,.0241 .026,.073 .0295,.0976 .0038,.0329-.0006,.0963 0,.1301-.0002,.0255 .002,.0717 0,.0976-.0043,.0434-.02,.1181-.0295,.1626-.0063,.0268-.0213,.0704-.0295,.0976-.3281,1.0853-2.097,3.0645-3.9527,4.4231-1.4187,1.0385-2.2654,1.6037-2.7433,1.5285-.0327-.0068-.0886-.0194-.118-.0325-.0143-.0074-.0455-.0236-.059-.0325-.0263-.0195-.0652-.0716-.0885-.0976-.3227-.3931-.3835-1.449-.3835-3.3173 0-3.42 .6281-4.3548 3.3922-4.4556zm41.0902,4.2279c.0371-.0005 .051,0 .0885,0 2.3975,0 4.0094,1.1213 4.3362,2.9921 .4047,2.3171-.5574,2.9596-4.3362,2.9596-2.1256,0-3.3564-.2211-3.9527-.8131-.4421-.4604-.5279-1.1509-.354-2.1465 .3217-1.8416 1.883-2.9585 4.2182-2.9921zm-12.035,1.0082c2.0834-.1622 2.9203,1.0704 2.9203,3.7075 0,3.1743-1.214,4.1638-6.9319,5.6264-3.6069,.9226-6.9142,1.3467-7.6104,1.0082-.0162-.0087-.046-.0229-.059-.0325-.004-.0033-.0259-.0291-.0295-.0325-1.9795-2.1824-.2445-4.9833 4.6901-7.5777 3.1743-1.6689 5.4508-2.5772 7.0205-2.6994zm27.6983,.0325c3.0525-.1009 3.4382,1.3415 1.9468,5.6264-.5131,1.4743-2.6379,2.6669-4.7196,2.6668-3.046,0-3.699-.7366-3.3038-3.8051 .3517-2.7301 1.6932-3.9741 4.7196-4.358 .5015-.0636 .9517-.1167 1.3569-.1301zm-46.7243,8.2932c.105-.009 .2249,0 .3245,0 3.7024,0 1.3934,6.9823-3.3627,10.1795-4.2353,2.8471-8.7366,4.0692-9.9997,2.9596-.0057-.0053-.0239-.0272-.0295-.0325-.0814-.0816-.1579-.1883-.2065-.2927-.0062-.0141-.0239-.0505-.0295-.0651-.0079-.0221-.023-.0745-.0295-.0976-.004-.0156-.0261-.049-.0295-.065-.0046-.0243 .0032-.0724 0-.0976-.0045-.0426-.0291-.1174-.0295-.1626 .0001-.0092-.0002-.0233 0-.0325 .1025-3.8138 9.0169-11.9167 13.3919-12.2935zm34.7777,16.1637c1.7638-.213 2.882,1.7212 2.2713,5.2686-.3401,1.9752-2.1033,3.3383-4.7491,3.675-2.0221,.2573-3.2686,.1671-3.7462-.3903-.0045-.0054-.0252-.027-.0295-.0325-.0209-.0281-.0417-.0672-.059-.0976-.0066-.0123-.0234-.0523-.0295-.065-.0029-.0064-.0267-.026-.0295-.0325-.0131-.0331-.0199-.0947-.0295-.1301-.2359-.9467 .7353-2.7071 2.8908-5.5614 1.2473-1.6517 2.4868-2.5108 3.5102-2.6343zm-13.8344,.7805c.0857-.0066 .1633,0 .236,0 3.5426,0 4.1157,3.1195 .9144,5.0085-1.4774,.8718-2.9126,1.523-3.3922,1.5936-.0157,.0017-.0457,.0323-.059,.0325-.0121-.0005-.0494-.0304-.059-.0325-.2669-.0929-2.2228-.7227-4.3362-1.431l-3.8347-1.3009 4.3361-1.9514c2.231-.9964 4.909-1.8194 6.1945-1.9188zm29.8222,3.9027c1.6743-.0888 3.4864,.2362 5.2506,.9757 3.2017,1.3421 3.824,2.5057 3.2153,6.0167-.8267,4.7678-3.43,5.3034-12.33,2.4717-4.3721-1.3911-4.8218-2.0591-3.4217-4.9434 1.3357-2.7517 4.0896-4.3511 7.2859-4.5206zm-66.0158,1.1708c.1004-.001 .1919,0 .295,0 6.4765,0 7.3699,1.1259 4.2182,5.2687-1.0567,1.3889-3.0632,3.5037-4.4837,4.6832-2.1707,1.8025-2.8362,1.6112-4.2181-1.2359-1.645-3.3889-2.1582-5.6183-1.3569-6.9598 .7402-1.1976 2.5596-1.7252 5.5455-1.7562zm-17.0496,2.862c2.7623-.0749 4.4644,1.2296 6.6665,5.0085l3.0973,5.3337-4.6311,1.7887c-4.2268,1.6246-4.9382,1.3182-8.4363-3.61-2.2049-3.1062-3.0482-5.1664-2.4483-6.472 .0552-.1151 .1281-.2538 .2065-.3578 .0201-.0257 .067-.0725 .0885-.0976 .022-.0249 .065-.0734 .0885-.0976 .791-.7909 2.3828-1.2206 4.8081-1.4309 .1943-.0169 .3763-.0601 .5605-.0651zm102.003,15.9685c3.0687-.2481 6.2015,1.9135 5.752,5.3987-.571,4.4269-5.4064,5.708-9.3803,2.5042-2.3732-1.9133-2.4607-2.6224-.6194-5.3987 1.0547-1.5903 2.6403-2.3743 4.2477-2.5042zm-57.9039,8.2932c.1129-.0072 .2356,0 .354,0 .2593,0 .5003,.0549 .7079,.1301 .1306,.05 .2742,.1154 .3835,.1951 .0308,.0234 .0889,.0718 .118,.0976 .0143,.0132 .0451,.0512 .059,.065 .0136,.0141 .0458,.0503 .059,.065 .013,.015 .0464,.0495 .059,.0651 .4681,.6034 .632,1.6369 .4425,3.0571-.6089,4.5628-3.6305,5.9016-4.9261,2.179-1.1568-3.3237-.0339-5.6765 2.7433-5.854zm-19.3505,3.5124c1.3002-.1764 3.4358,.6879 5.575,2.4717 1.4538,1.2122 2.0562,2.3886 2.0354,3.2523-.0033,.0797-.0158,.1857-.0295,.2602-.0093,.0461-.0162,.1186-.0295,.1626-.0112,.0348-.0453,.0967-.059,.1301-.0214,.0495-.0617,.1166-.0885,.1626-.0092,.0152-.0197,.0503-.0295,.0651-.0101,.0146-.0484,.0508-.059,.065-.0492,.0628-.1167,.1408-.177,.1951-.0137,.0119-.0448,.0537-.059,.065-.8888,.6879-2.7718,.5253-4.9261-1.1383-1.7801-1.3747-3.2582-3.1718-3.3922-4.0978-.0019-.0149 .0011-.0506 0-.065-.0008-.0142 0-.0513 0-.0651 0-.8818 .4588-1.3576 1.2389-1.4635zm30.7661,.6505c.6004-.0519 1.2235,.5359 2.2713,1.6912 1.315,1.4498 2.8597,4.2268 3.4217,6.1792 1.3504,4.6913-.7833,6.651-4.9556,4.5206-4.4797-2.2874-5.5691-5.9077-2.9793-9.9844 .9886-1.5562 1.6027-2.3513 2.2418-2.4067zm10.7371,6.3744c1.1388-.1555 2.6841,1.5488 3.0677,4.423 .2237,1.6762-.009,3.105-.531,3.5449-.005,.004-.0245,.0287-.0295,.0325-.0152,.0109-.0433,.0233-.059,.0325-.0211,.0116-.0666,.0239-.0885,.0325-.0055,.002-.0239,.0308-.0295,.0325-.0056,.0016-.0239-.0014-.0295,0-.0114,.0024-.0474-.0016-.059,0-.0058,.0006-.0236-.0004-.0295,0-.0059,.0002-.0236,0-.0295,0-2.1949,0-3.4512-1.9792-3.4512-5.4963 0-1.6824 .562-2.5053 1.2684-2.6018zm-67.4317,6.7647c2.2587-.0024 4.2407,.1204 5.5455,.3903 2.154,.4455 3.5867,1.0608 4.2772,1.7887 .1459,.1585 .2768,.3492 .3539,.5203 .0367,.0859 .069,.2037 .0885,.2927 .0352,.1787 .0335,.3945 0,.5854-.2572,1.3197-2.1514,2.9296-5.6635,4.7808-2.9127,1.5353-7.8409,3.3065-10.9731,3.9027-5.2009,.99-5.914,.6228-8.0824-4.0003-1.2854-2.7407-2.3271-5.3487-2.3598-5.854 0-.0062-.0005-.0263 0-.0325 .002-.0125-.0041-.0526 0-.065 .0025-.0062 .0264-.0263 .0295-.0325 .0071-.0124 .0204-.0526 .0295-.065 .005-.0062 .024-.0263 .0295-.0325 1.087-1.1249 10.0948-2.1721 16.7252-2.179zm104.5987,15.2205c6.0567-.2677 9.3246,3.8287 2.7433,8.9111-4.234,3.2697-10.451,3.4009-14.3064,.2927-2.774-2.2364-2.6326-2.5564 2.4188-5.9516 3.194-2.1468 6.441-3.1328 9.1443-3.2523zm22.0642,4.7808c.1073-.0131 .2273,.0004 .3245,0 .8951-.0035 2.9607,1.0512 4.6016,2.3742 2.9228,2.3564 2.9129,2.513-.7374,6.7972-1.8893,2.2173-3.8153,3.9561-4.4837,4.0978-.0055,.001-.0242-.0007-.0295,0-.0051,.0005-.0246-.0002-.0295,0-.0047,.0001-.0249,.0002-.0295,0-.0044-.0004-.0253,.0007-.0295,0-.4867-.1491-3.1521-.5673-5.8995-.9432-3.0564-.4182-4.9851-1.6498-4.9851-3.1547 0-.0668 .017-.1546 .0295-.2276 .4858-2.533 8.0495-8.5491 11.2681-8.9437zm-110.9407,6.7647c.2809-.0157 .6161,0 .9734,0 4.1645,0 6.46,3.4278 6.46,9.6592 0,8.3729-5.105,7.7011-7.4629-.9757-2.0529-7.5544-2.2579-8.5553 .0295-8.6835zm31.71,2.3741c2.5107-.0797 8.5873,1.3215 9.3803,2.2766 .0037,.0047 .0261,.0278 .0295,.0325 .0029,.0046 .0269,.0279 .0295,.0325 .0023,.0046-.0021,.0279 0,.0325 .0018,.0046 .028,.028 .0295,.0325 .0009,.0045-.0007,.0281 0,.0325 .0003,.0044-.0001,.0281 0,.0325-.0002,.0046 .0004,.0276 0,.0325-.0794,.6475-1.7047,3.2862-3.6577,5.9191l-3.5987,4.8459-1.8879-6.2443c-.9321-3.114-1.5059-5.9192-1.3864-6.6346 .0011-.0059-.0012-.027 0-.0325 .0027-.0104 .0264-.0233 .0295-.0325 .0017-.0043-.0017-.0285 0-.0325 .0038-.0072 .0253-.0266 .0295-.0326 .0074-.0073 .0211-.0255 .0295-.0325 .0045-.0034 .0248-.0292 .0295-.0325 .005-.0032 .0243,.0031 .0295,0 .0055-.003 .0238-.0296 .0295-.0325 .0119-.0057 .0461-.0271 .059-.0325 .1874-.0727 .4762-.119 .8259-.1301zm-15.4273,2.7644c.4548-.045 1.1671,.0729 2.1533,.2277 1.9768,.3102 3.7967,1.9531 4.1002,3.7076 .3684,2.1297 .1638,3.6164-.354,4.3906-.0408,.059-.1028,.1447-.1475,.1951-.0516,.0563-.1207,.1176-.177,.1626-.0213,.0163-.0666,.0503-.0885,.0651-.1033,.0664-.2385,.1311-.354,.1626-.0499,.0124-.1251,.0266-.177,.0326-.087,.0081-.2031,.0099-.295,0-1.0256-.1304-2.3529-1.4027-3.5102-3.8702-1.3339-2.844-1.9463-4.1922-1.7109-4.7483 .0192-.0392 .06-.0991 .0885-.1301 .1034-.1001 .2572-.1739 .472-.1952z"/>
</svg>
