<svg width="1140" xmlns="http://www.w3.org/2000/svg" height="600" viewBox="0 0 209 110" xmlns:xlink="http://www.w3.org/1999/xlink">
<path fill="#bf0a30" d="m0,0h209v110h-209z"/>
<path stroke="#fff" stroke-width="10" d="M0,15 H209 M0,35 H209 M0,55 H209 M0,75 H209 M0,95 H209"/>
<path fill="#002868" d="m0,0h50v50h-50z"/>
<g transform="matrix(15 0 0 15 25 25)">
<g id="2">
<path fill="#fff" id="1" d="m0,0 0,1 .5,0z" transform="matrix(.95106 .30902 -.30902 .95106 0 -1)"/>
<use xlink:href="#1" transform="scale(-1 1)"/>
</g>
<use xlink:href="#2" transform="rotate(72)"/>
<use xlink:href="#2" transform="matrix(.30902 -.95106 .95106 .30902 0 0)"/>
<use xlink:href="#2" transform="rotate(144)"/>
<use xlink:href="#2" transform="matrix(-.80902 -.58779 .58779 -.80902 0 0)"/>
</g>
</svg>
