<svg xmlns="http://www.w3.org/2000/svg" viewBox="0 0 450 300">
<path d="m125-72.6378h1125v749.9998h-1125z" transform="matrix(.4 0 0 .2 -50 14.52756)"/>
<path fill="#339e35" d="m125,427.362h1125v250h-1125z" transform="matrix(.4 0 0 .6 -50 -106.4173)"/>
<g fill="#ce1126">
<path d="m125,177.362h1125v500h-1125z" transform="matrix(.4 0 0 .2 -50 64.52756)"/>
<path d="m225,49.5c-28.0839,0-51.9582,17.9481-60.8125,43h121.625c-8.8543-25.0519-32.7286-43-60.8125-43z"/>
<path fill-rule="evenodd" d="m225,12c-2.1667,0-3,3.25-3,6.5 0,7.8333 .9596,11.9285 3,23.5 2.0404-11.5715 3-15.6667 3-23.5 0-3.25-.8333-6.5-3-6.5zm-8.875,.375c-2.1584,.1888-2.7208,3.5124-2.4375,6.75 .6827,7.8035 1.9901,11.8066 5.0312,23.1562 1.0241-11.7053 1.6202-15.884 .9375-23.6875-.2833-3.2376-1.3728-6.4076-3.5312-6.2188zm17.75,0c-2.1584-.1888-3.248,2.9811-3.5312,6.2188-.6827,7.8035-.0866,11.9822 .9375,23.6875 3.0411-11.3496 4.3485-15.3527 5.0312-23.1562 .2833-3.2376-.2791-6.5612-2.4375-6.75zm-26.1875,1.1562c-.1275-.0025-.2729,.0077-.4062,.0312-2.1337,.3762-2.3769,3.7056-1.8125,6.9062 1.3603,7.7143 3.0125,11.5836 7.0312,22.625 0-11.75 .2352-15.9419-1.125-23.6562-.5291-3.0006-1.7751-5.8688-3.6875-5.9062zm34.625,0c-1.9124,.0374-3.1584,2.9057-3.6875,5.9062-1.3603,7.7143-1.125,11.9062-1.125,23.6562 4.0187-11.0414 5.671-14.9107 7.0312-22.625 .5643-3.2006 .3212-6.53-1.8125-6.9062-.1334-.0235-.2788-.0337-.4062-.0312zm-43.3125,1.875c-.1272,.0086-.2755,.0275-.4062,.0625-2.0928,.5608-2.0599,3.9232-1.2188,7.0625 2.0274,7.5664 4.0342,11.2884 9,21.9375-1.0241-11.7053-1.1601-15.9336-3.1875-23.5-.7886-2.9431-2.2791-5.6919-4.1875-5.5625zm52,0c-1.9084-.1294-3.3989,2.6194-4.1875,5.5625-2.0274,7.5664-2.1634,11.7947-3.1875,23.5 4.9658-10.6491 6.9726-14.3711 9-21.9375 .8412-3.1393 .8741-6.5017-1.2188-7.0625-.1308-.035-.279-.0539-.4062-.0625zm-60.125,2.625c-.2488-.0108-.4955,.0324-.75,.125-2.036,.741-1.7053,4.071-.5938,7.125 2.6791,7.3609 4.9688,10.8867 10.8438,21.0625-2.0404-11.5715-2.5396-15.7641-5.2188-23.125-.9726-2.6723-2.5394-5.1122-4.2812-5.1875zm68.25,0c-1.7418,.0753-3.3086,2.5152-4.2812,5.1875-2.6791,7.3609-3.1784,11.5535-5.2188,23.125 5.875-10.1758 8.1646-13.7016 10.8438-21.0625 1.1116-3.054 1.4423-6.384-.5938-7.125-.2545-.0926-.5012-.1358-.75-.125zm-76.5,3.3438c-.2488,.011-.4733,.073-.7188,.1875-1.9637,.9157-1.3735,4.2108 0,7.1562 3.3105,7.0994 5.9167,10.4062 12.6562,20.0312-3.0411-11.3496-3.9082-15.4631-7.2188-22.5625-1.2018-2.5773-2.977-4.8893-4.7188-4.8125zm84.75,0c-1.7417-.0768-3.5169,2.2352-4.7188,4.8125-3.3105,7.0994-4.1776,11.2129-7.2188,22.5625 6.7395-9.625 9.3457-12.9318 12.6562-20.0312 1.3735-2.9455 1.9637-6.2406 0-7.1562-.2455-.1145-.4699-.1765-.7188-.1875zm-92.6562,4.0312c-.2469,.0326-.4842,.1146-.7188,.25-1.8764,1.0833-.9688,4.3104 .6562,7.125 3.9167,6.7839 6.791,9.874 14.3438,18.875-4.0187-11.0414-5.2396-15.0911-9.1562-21.875-1.4219-2.4628-3.3966-4.6033-5.125-4.375zm100.1875,0c-1.6338,.0929-3.4297,2.0882-4.75,4.375-3.9167,6.7839-5.1375,10.8336-9.1562,21.875 7.5527-9.001 10.4271-12.0911 14.3438-18.875 1.625-2.8146 2.5326-6.0417 .6562-7.125-.3518-.2031-.7167-.2714-1.0938-.25zm-107.3438,4.6875c-.3775,.0115-.7297,.1107-1.0625,.3438-1.7748,1.2427-.5829,4.4003 1.2812,7.0625 4.493,6.4167 7.5977,9.2227 15.9062,17.5312-4.9658-10.6491-6.507-14.5521-11-20.9688-1.5146-2.1631-3.4893-4.0186-5.125-3.9688zm114.875,0c-1.6357-.0498-3.6104,1.8057-5.125,3.9688-4.493,6.4167-6.0342,10.3196-11,20.9688 8.3085-8.3085 11.4132-11.1146 15.9062-17.5312 1.8641-2.6622 3.0561-5.8198 1.2812-7.0625-.3328-.233-.685-.3323-1.0625-.3438zm-121.9688,5.3125c-.375,.0443-.72,.2076-1.0312,.4688-1.6598,1.3927-.2141,4.4166 1.875,6.9062 5.0352,6.0007 8.4052,8.5097 17.4062,16.0625-5.875-10.1758-7.7773-13.9368-12.8125-19.9375-1.6974-2.0228-3.8124-3.6922-5.4375-3.5zm128.6875,0c-1.5652,.0787-3.4957,1.6328-5.0625,3.5-5.0352,6.0007-6.9375,9.7617-12.8125,19.9375 9.001-7.5528 12.3711-10.0618 17.4062-16.0625 2.0891-2.4896 3.5348-5.5135 1.875-6.9062-.4149-.3482-.8845-.495-1.4062-.4688zm-134.9062,5.875c-.522,.0193-.992,.2107-1.375,.5938-1.5321,1.5321 .1706,4.4207 2.4688,6.7188 5.539,5.539 9.125,7.7605 18.75,14.5-6.7395-9.625-8.961-13.211-14.5-18.75-1.7236-1.7236-3.7776-3.1205-5.3438-3.0625zm141.5,0c-1.5661-.058-3.6202,1.3389-5.3438,3.0625-5.539,5.539-7.7605,9.125-14.5,18.75 9.625-6.7395 13.211-8.961 18.75-14.5 2.2981-2.2981 4.0008-5.1867 2.4688-6.7188-.383-.383-.853-.5744-1.375-.5938zm-147.1562,6.4375c-.6879-.0134-1.2835,.2001-1.7188,.7188-1.3927,1.6598 .5416,4.3797 3.0312,6.4688 6.0007,5.0352 9.7617,6.9375 19.9375,12.8125-7.5528-9.001-10.0618-12.3711-16.0625-17.4062-1.7116-1.4362-3.6741-2.5643-5.1875-2.5938zm152.8125,0c-1.5134,.0295-3.4759,1.1575-5.1875,2.5938-6.0007,5.0352-8.5097,8.4052-16.0625,17.4062 10.1758-5.875 13.9368-7.7773 19.9375-12.8125 2.4896-2.0891 4.424-4.809 3.0312-6.4688-.4352-.5187-1.0308-.7321-1.7188-.7188zm-158.3125,6.9062c-.6865,.0466-1.2679,.3204-1.6562,.875-1.2427,1.7748 .9628,4.3234 3.625,6.1875 6.4167,4.493 10.3196,6.0342 20.9688,11-8.3085-8.3085-11.1146-11.4132-17.5312-15.9062-1.8303-1.2816-3.896-2.2588-5.4062-2.1562zm163.375,0c-1.4574,.0767-3.3048,.9912-4.9688,2.1562-6.4167,4.493-9.2228,7.5977-17.5312,15.9062 10.6491-4.9658 14.5521-6.507 20.9688-11 2.6622-1.8641 4.8678-4.4127 3.625-6.1875-.466-.6656-1.2193-.921-2.0938-.875zm-167.8125,7.3438c-.8751,.0304-1.5938,.3276-2,1.0312-1.0833,1.8764 1.3104,4.2188 4.125,5.8438 6.7839,3.9167 10.8336,5.1375 21.875,9.1562-9.001-7.5528-12.0911-10.4271-18.875-14.3438-1.7591-1.0156-3.6665-1.7381-5.125-1.6875zm172.6875,0c-1.4585-.0506-3.3659,.6719-5.125,1.6875-6.7839,3.9167-9.874,6.791-18.875,14.3438 11.0414-4.0187 15.0911-5.2396 21.875-9.1562 2.8146-1.625 5.2083-3.9674 4.125-5.8438-.4062-.7036-1.1249-1.0009-2-1.0312zm-175.9688,7.6875c-1.3071-.0808-2.3547,.2682-2.8125,1.25-.9157,1.9637 1.6795,4.064 4.625,5.4375 7.0994,3.3105 11.2129,4.1776 22.5625,7.2188-9.625-6.7395-12.9318-9.3457-20.0312-12.6562-1.4727-.6868-3.0367-1.1692-4.3438-1.25zm179.25,0c-1.3071,.0808-2.871,.5632-4.3438,1.25-7.0994,3.3105-10.4062,5.9167-20.0312,12.6562 11.3496-3.0411 15.4631-3.9082 22.5625-7.2188 2.9455-1.3735 5.5407-3.4738 4.625-5.4375-.4578-.9818-1.5054-1.3308-2.8125-1.25zm-182.7812,7.9688c-1.3091,.0334-2.317,.482-2.6875,1.5-.741,2.036 2.0085,3.9197 5.0625,5.0312 7.3609,2.6792 11.5535,3.1784 23.125,5.2188-10.1758-5.875-13.7016-8.1646-21.0625-10.8438-1.527-.5558-3.1284-.9397-4.4375-.9062zm186.3125,0c-1.3091-.0334-2.9105,.3505-4.4375,.9062-7.3609,2.6792-10.8867,4.9688-21.0625,10.8438 11.5715-2.0404 15.7641-2.5396 23.125-5.2188 3.054-1.1116 5.8035-2.9952 5.0625-5.0312-.3705-1.018-1.3784-1.4666-2.6875-1.5zm-188.0938,8.2188c-1.7986-.032-3.2433,.442-3.5938,1.75-.5608,2.0928 2.3607,3.7526 5.5,4.5938 .446,.1195 .8564,.2056 1.2812,.3125h16.0625c-6.2745-2.9371-9.9079-4.5512-15.7812-6.125-1.1772-.3154-2.3896-.512-3.4688-.5312zm189.875,0c-1.0792,.0192-2.2915,.2158-3.4688,.5312-5.8733,1.5738-9.5067,3.1879-15.7812,6.125h16.0625c.4248-.1069 .8353-.193 1.2812-.3125 3.1393-.8412 6.0608-2.5009 5.5-4.5938-.3505-1.308-1.7951-1.782-3.5938-1.75z"/>
</g>
</svg>
