<svg width="900" xmlns="http://www.w3.org/2000/svg" height="600" viewBox="-60 -40 120 80" xmlns:xlink="http://www.w3.org/1999/xlink">
<path fill="#c1272d" d="m-60-40h120v80h-120z"/>
<g fill="#0b4527" stroke="#000" stroke-width=".89" transform="matrix(.43929 0 0 .46186 -84.3429 -57.0089)">
<path d="m181.25,113.1875l-34.7812,.0312 39.5938,28.75 5.9375-4.3125-24-17.4375 10.9688-.0312 2.2812-7z"/>
<path d="m202.7656,113.1988l-10.7777-33.0693-15.1077,46.5401 5.9362,4.3143 9.1676-28.2138 3.4193,10.4222 7.3623,.0065z"/>
<path d="m209.4036,133.665l28.1203-20.4692-48.9308,.0134-2.2687,6.9789 29.6659,.0004-8.8555,6.4725 2.2689,7.004z"/>
<path d="m191.9905,146.3022l28.157,20.4186-15.1332-46.5319-7.3384-.0011 9.1669,28.2141-8.8923-6.422-5.9601,4.3222z"/>
<path d="m174.5908,133.6466l-10.7183,33.0886 39.578-28.7717-2.2666-6.9795-24.0005,17.4369 3.3598-10.4416-5.9524-4.3327z"/>
</g>
</svg>
