<svg xmlns="http://www.w3.org/2000/svg" viewBox="0 0 600 300">
<g fill-rule="evenodd">
<path fill="#fcd116" d="m125,377.362h600v300h-600z" transform="translate(-125 -377.3622)"/>
<path fill="#002868" d="m125,489.862h375v187.5h-375z" transform="matrix(.8 0 0 .8 -100 -391.8898)"/>
<g fill="#fff">
<path d="m125,677.3622h41.925l333.075-166.5375v-20.9625h-41.925l-333.075,166.5375v20.9625z" transform="matrix(.8 0 0 .8 -100 -391.8898)"/>
<path d="m500,677.3622h-41.925l-333.075-166.5375v-20.9625h41.925l333.075,166.5375v20.9625z" transform="matrix(.8 0 0 .8 -100 -391.8898)"/>
<path d="m281.25,489.862h62.5v187.5h-62.5z" transform="matrix(.8 0 0 .8 -100 -391.8898)"/>
<path d="m125,552.362h375v62.5h-375z" transform="matrix(.8 0 0 .8 -100 -391.8898)"/>
</g>
<g fill="#ce1126">
<path d="m125,564.862h375v37.5h-375z" transform="matrix(.8 0 0 .8 -100 -391.8898)"/>
<path d="m293.75,489.862h37.5v187.5h-37.5z" transform="matrix(.8 0 0 .8 -100 -391.8898)"/>
<path d="m125,677.3622h27.95l125-62.5h-27.95l-125,62.5z" transform="matrix(.8 0 0 .8 -100 -391.8898)"/>
<path d="m347.05,552.3622h27.95l125-62.5h-27.95l-125,62.5z" transform="matrix(.8 0 0 .8 -100 -391.8898)"/>
<path d="m500,677.3622v-13.975l-97.05-48.525h-27.95l125,62.5z" transform="matrix(.8 0 0 .8 -100 -391.8898)"/>
<path d="m125,489.8622v13.975l97.05,48.525h27.95l-125-62.5z" transform="matrix(.8 0 0 .8 -100 -391.8898)"/>
</g>
<path fill="#002868" d="m321.0234,529.7994c0-51.6783-33.5148-93.5719-74.8575-93.5719-41.3426,0-74.8575,41.8936-74.8575,93.5719 0,51.6783 33.5148,93.5718 74.8575,93.5718 41.3426,0 74.8575-41.8936 74.8575-93.5718z" transform="matrix(.33397 0 0 .26717 67.7885 -66.5486)"/>
<g fill="#fcd116">
<path d="m251.2251,444.6372h18.1641l5.6109-17.275 5.6109,17.275h18.1641l-14.6929,10.675 5.6109,17.275-14.6929-10.675-14.6929,10.675 5.6109-17.275-14.6929-10.675z" transform="translate(-125 -377.3622)"/>
<path d="m260.735,499.1656h10.8985l3.3665-10.3659 3.3665,10.3659h10.8985l-8.8158,6.4056 3.3665,10.3659-8.8158-6.4056-8.8158,6.4056 3.3665-10.3659-8.8158-6.4056z" transform="translate(-125 -377.3622)"/>
<path d="m260.735,399.1656h10.8985l3.3665-10.3659 3.3665,10.3659h10.8985l-8.8158,6.4056 3.3665,10.3659-8.8158-6.4056-8.8158,6.4056 3.3665-10.3659-8.8158-6.4056z" transform="translate(-125 -377.3622)"/>
<path d="m173.235,449.1594h10.8985l3.3665-10.3659 3.3665,10.3659h10.8985l-8.8158,6.4056 3.3665,10.3659-8.8158-6.4056-8.8158,6.4056 3.3665-10.3659-8.8158-6.4056z" transform="translate(-125 -377.3622)"/>
<path d="m348.235,449.1594h10.8985l3.3665-10.3659 3.3665,10.3659h10.8985l-8.8158,6.4056 3.3665,10.3659-8.8158-6.4056-8.8158,6.4056 3.3665-10.3659-8.8158-6.4056z" transform="translate(-125 -377.3622)"/>
</g>
</g>
</svg>
