<svg xmlns="http://www.w3.org/2000/svg" viewBox="0 0 900 450">
<path fill="#0038a8" d="m0,0h900v450h-900z"/>
<path fill="#ce1126" d="m0,225h900v225h-900z"/>
<path fill="#fff" d="M 389.983,225.0004 0,450 7.8142663e-4,0 389.983,225.0004 z"/>
<g fill="#fcd116">
<path d="m151.9157,182.5382 8.084-30.988-5.3877-6.71-6.6436,37.698 3.9472,0zm-16.7897,0-4.6853-41.998 9.4504-10.54 9.3263,10.54-4.7058,41.998-9.3855,0zm-7.4104,0-7.7159-30.988 5.475-6.71 6.1943,37.698-3.9535,0z"/>
<circle cx="82.531" cy="149.808" r="30.916" transform="matrix(1.45558 0 0 1.45558 19.86999 6.94313)"/>
<path d="m128.0838,267.4618-8.084,30.988 5.3877,6.71 6.6436-37.698-3.9472,0zm16.7897,0 4.6853,41.998-9.4503,10.54-9.3263-10.54 4.7058-41.998 9.3855,0zm7.4104,0 7.7159,30.988-5.4751,6.71-6.1943-37.698 3.9535,0z"/>
<path d="m182.4616,236.916 30.988,8.084 6.71-5.3877-37.698-6.6436 0,3.9472zm0-16.7897 41.998-4.6853 10.54,9.4504-10.54,9.3263-41.998-4.7058 0-9.3855zm0-7.4104 30.988-7.7159 6.71,5.4751-37.698,6.1943 0-3.9535z"/>
<circle cx="82.531" cy="149.808" r="30.916" transform="matrix(0 1.45558 -1.45558 0 358.05665 104.87021)"/>
<path d="m97.538,213.084-30.988-8.084l-6.71,5.3877 37.698,6.6436v-3.9472zm0,16.7897-41.998,4.6853-10.54-9.4504 10.54-9.3263 41.998,4.7058 0,9.3855zm0,7.4104l-30.988,7.7159-6.71-5.4751 37.698-6.1943v3.9535z"/>
<path d="m118.4006,186.5491-16.1955-27.6281-8.5544-.935 21.9588,31.3542 2.7911-2.7911zm-11.8721,11.8721-33.01-26.3841-.7705-14.1353 14.0476,.8582 26.3696,33.0246-6.6366,6.6366zm-5.2399,5.2399-27.3678-16.4558-.8732-8.6161 31.0366,22.2765-2.7955,2.7955z"/>
<circle cx="82.531" cy="149.808" r="30.916" transform="matrix(1.02925 -1.02925 1.02925 1.02925 -99.13432 155.7551)"/>
<path d="m161.5989,263.4509 16.1955,27.6281 8.5544,.935-21.9588-31.3542-2.7911,2.7911zm11.8721-11.8721 33.0101,26.3841 .7705,14.1353-14.0476-.8582-26.3695-33.0246 6.6366-6.6366zm5.2399-5.2399 27.3678,16.4558 .8732,8.6161-31.0366-22.2765 2.7955-2.7955z"/>
<path d="m178.4506,203.4008 27.6281-16.1955 .935-8.5544-31.3542,21.9588 2.7911,2.7911zm-11.8721-11.8721 26.3841-33.0101 14.1353-.7705-.8582,14.0476-33.0246,26.3696-6.6366-6.6366zm-5.2399-5.2399 16.4558-27.3678 8.6161-.8732-22.2765,31.0366-2.7955-2.7955z"/>
<circle cx="82.531" cy="149.808" r="30.916" transform="matrix(1.02925 1.02925 -1.02925 1.02925 209.24469 -14.13408)"/>
<path d="m101.5489,246.5992-27.6281,16.1956-.935,8.5544 31.3542-21.9588-2.7911-2.7911zm11.8721,11.8721-26.3841,33.01-14.1353,.7705 .8582-14.0476 33.0246-26.3695 6.6366,6.6366zm5.2399,5.2399-16.4558,27.3678-8.6161,.8732 22.2764-31.0366 2.7955,2.7955z"/>
<path d="m295.5119,241.2742 11.9175-16.2489-11.9504-16.2248 19.1364,6.3131 11.7378-16.3792-.0792,20.1506 19.2049,6.1019-19.1922,6.1407 .1187,20.1504-11.7707-16.3555-19.1237,6.3517z"/>
<path d="m60.7433,73.1529-20.0308-2.1964-8.0759,18.4617-4.1009-19.7292-20.0537-1.9757 17.4906-10.0067-4.318-19.6829 14.9141,13.5506 17.3914-10.178-8.2789,18.3715 15.0626,13.3858z"/>
<path d="m60.7433,376.8471-20.0308,2.1964-8.0759-18.4617-4.1009,19.7292-20.0537,1.9757 17.4906,10.0067-4.318,19.6829 14.9141-13.5506 17.3914,10.178-8.2789-18.3715 15.0626-13.3858z"/>
</g>
</svg>
