<svg xmlns="http://www.w3.org/2000/svg" viewBox="0 0 600 400">
<path fill="#0084c9" d="m0,0h600v200h-600z"/>
<path fill="#f9d616" d="m0,200h600v100h-600z"/>
<path fill="#007c59" d="m0,300h600v100h-600z"/>
<g fill="#eaaf0f">
<path d="m559.3865,145.6365l-31.028-23.7934 14.9521,36.1289-23.8125-31.0133 5.0917,38.7677-14.9743-36.1197-5.1156,38.7646-5.1156-38.7646-14.9743,36.1197 5.0917-38.7677-23.8125,31.0133 14.9521-36.1289-31.028,23.7934 23.7934-31.028-36.1289,14.9521 31.0133-23.8125-38.7677,5.0917 36.1197-14.9743-38.7646-5.1156 38.7646-5.1156-36.1197-14.9743 38.7677,5.0917-31.0133-23.8125 36.1289,14.9521-23.7934-31.028 31.028,23.7934-14.9521-36.1289 23.8125,31.0133-5.0917-38.7677 14.9743,36.1197 5.1156-38.7646 5.1156,38.7646 14.9743-36.1197-5.0917,38.7677 23.8125-31.0133-14.9521,36.1289 31.028-23.7934-23.7934,31.028 36.1289-14.9521-31.0133,23.8125 38.7677-5.0917-36.1197,14.9743 38.7646,5.1156-38.7646,5.1156 36.1197,14.9743-38.7677-5.0917 31.0133,23.8125-36.1289-14.9521 23.7934,31.028z"/>
<path stroke="#0084c9" stroke-width="2.8" d="m532.75,90.75a28.25,28.25 0 1,1 -56.5,0 28.25,28.25 0 1,1 56.5,0z"/>
</g>
</svg>
