<svg xmlns="http://www.w3.org/2000/svg" viewBox="0 0 1200 600">
<defs/>
<path fill="#006" d="m1200.0008,599.9999v-600l-1200-0 0,600h1200z"/>
<g stroke="#000" fill-opacity=".996" transform="translate(0 -.25966)">
<path fill="#fff" stroke-width=".558" d="m1008.9384,171.2483c0,0 0,64.1442 0,85.1747 0,69.9277-27.4673,133.9397-108.9535,172.8481-81.4862-38.9084-108.9534-102.9203-108.9534-172.8481 0-21.0306 0-85.1747 0-85.1747h217.9069z"/>
<path fill="#fdc300" stroke-width=".521" d="m1001.6078,179.9284c0,0 0,59.8284 0,79.444 0,65.2229-25.6193,124.9279-101.6229,161.2185-76.0036-36.2906-101.6229-95.9956-101.6229-161.2185 0-19.6156 0-79.444 0-79.444h203.2457z"/>
</g>
<g stroke="#000" stroke-width=".062" transform="matrix(4.16641 0 0 4.16688 -5.45887 -5.71932)">
<path fill="#ff9e3d" d="m205.963,52.8468c-.353-.2648-.736-.4266-1.265-.4413 .117-1.2946-.824-1.8536-1.501-2.089-.676-.2354-.912-.5002-1.029-1.0298-.118-.5296-.471-.8532-1.089-1.0297-.618-.1766-1.148-.7944-1.383-1.0887-.235-.2942-.324-.2354-.5,.2648-.177,.5002-.883,1.4417-.236,1.4712-.47,.3824-.735,.8238-.441,1.4122-.324,.2648-.559,.6473-.118,.7944 .442,.1471 .559,.2648 .589,.3825-.397,0-.5,.7944 .441,.9709-.206,.0294-.294,.6767 .089,.6767-.53,0-.972,.7945-1.648,.7945-.677,0-1.03,.147-1.059,.4413-.03,.2942-.383,.6472-.559,.7944 .5,.0588 .823,0 1.088-.206 .265-.206 .706-.2648 1.001-.0294 .294,.2354 .912,.353 1.206,.2942-.647,.4414-1.118,1.0298-1.177,1.5888-.059,.5591-.441,1.2063-.883,1.3829-.441,.1765-1.029,.6473-1.235,1.2063 .559,1.3828 1.352,1.7244 2.147,2.0889 1.413,.6474 2.295,1.1181 2.884,1.7654 .588,.6473 .824,.1765 1.706,1.2945 .883,1.1181 1.707,3.2365 2.589,3.5896 .883,.353 2.001,.1177 2.648-1.0004 .648-1.118 1.06-12.4161-2.265-14.2992z"/>
<path fill="#ff927f" d="m207.464,48.1392c-.824,.8827-1.884,1.7654-1.707,3.3542 .177,1.5888 .353,4.178-1.118,5.0606-1.471,.8827-2.177,3.1188-.412,4.4133 1.765,1.2947 1.824,2.8835 2.118,4.3546 .295,1.4711 1.06,2.6479 2.237,1.6476 1.176,.1765 1.824-.2942 1.824-1.2357 0-.9415 .059-1.4711 .941-1.7654 .883-.2942 1.118-.5885 1.53-1.3828 .412-.7944 .647-1.1475 .412-1.6183-.235-.4707-.324-1.4416-.147-2.1478 .177-.7061-.235-1.0886-.471-1.5299-.235-.4413-.323-.8238-.206-1.4123 .118-.5885-.176-.9709-.588-1.2652-.412-.2942-.589-.5884-.5-1.0592 .088-.4707-.295-.7649-.736-1.118-.441-.3531-.765-.8238-.765-1.5299 0-.7062-1.353-2.3539-2.412-2.7658z"/>
<path fill="#ff9ee1" d="m207.787,67.352c1.971-.5002 1.795-3.7366 1.501-5.09-.295-1.3535-1.051-3.292-.471-4.8253 .824-2.1772-1.001-4.2368-.53-5.0606 .471-.8239 .412-1.2652 .353-1.53-.058-.2648-.5-.4707-.529,.0883-.03,.559-.177,.7649-.53,1.118-.353,.3531-.265,1.118 0,1.9713 .265,.8532 .824,2.1479-.059,3.8543-.882,1.7065-.519,2.4669-.176,3.2659 .529,1.2357 1.795,5.5314 .441,6.2081z"/>
<g fill="none">
<path d="m198.96,48.9043c.221,0 .648-.0884 .648,.2059"/>
<path d="m198.519,50.3165c.265-.1913 .736,.0294 1.206-.2501"/>
<path d="m198.99,51.4934c.353,0 .824-.0147 1.265-.3678"/>
<path d="m199.431,52.4643c.324,0 .927-.2059 1.074-.6325"/>
<path d="m199.52,53.141c.632-.0294 1.471,.206 1.588-.0147"/>
<path d="m199.549,55.23c.441-.4119 1.486-.6914 1.721-1.118"/>
<path d="m200.667,48.6688c.735,.2355 .431,.6901 .794,.971 .648,.5002 .059,1.0592 .589,1.2063 .529,.1471 .52,.2365 .382,.8238-.162,.6915 .5,.7208 .265,1.1769"/>
<path d="m204.698,52.4055c-.294,0-1.162,.0294-1.53,.8091"/>
<path d="m198.416,60.8938c.339,.0589 .508-.1338 .603-.3236 .103-.206 .147-.3531 .456-.3678 .309-.0148 .78-.103 .883-.3384 .103-.2353 .471-.0147 .78-.6326 .309-.6178 .515-1.3534 1.338-1.6182"/>
</g>
</g>
<g transform="matrix(4.16641 0 0 4.16688 -5.45887 -5.71932)">
<path fill="#00a728" stroke="#000" stroke-width=".062" d="m221.758,73.7502c.333,.4838-.012,1.0068 .553,1.216 .662,.245 .084,1.1156 .865,1.4224 .692,.2722 .005,1.1045 .753,1.4783 .669,.3347-.112,1.1157 .781,1.562 .892,.4462-.168,1.4503 .502,1.8408 .669,.3905-.223,1.3946 .558,1.7851 .781,.3904-.335,1.1714 .39,1.7293 .725,.5578-.167,1.3945 .558,1.8966 .725,.5021-.445,1.1725 .279,1.8967 .558,.5578-.201,1.1041 .223,1.9524 .279,.5578-.279,2.7892-1.841,2.566-.558,.9484-2.733,1.7851-3.514,1.5062-.781,.5578-3.291,1.3388-4.575,.1116-1.282,1.2272-3.793,.4462-4.574-.1116-.781,.2789-2.956-.5578-3.514-1.5062-1.562,.2232-2.12-2.0082-1.841-2.566 .424-.8483-.335-1.3946 .223-1.9524 .724-.7242-.446-1.3946 .279-1.8967 .725-.5021-.167-1.3388 .558-1.8966 .725-.5579-.391-1.3389 .39-1.7293 .781-.3905-.111-1.3946 .558-1.7851 .67-.3905-.39-1.3946 .502-1.8408 .893-.4463 .112-1.2273 .781-1.562 .748-.3738 .061-1.2061 .753-1.4783 .781-.3068 .203-1.1774 .865-1.4224 .574-.2125 .208-.7489 .57-1.2391 1.661,.6534 6.803,1.1223 8.918,.0231z"/>
</g>
<g fill="#fdc300" stroke="#000" fill-opacity=".996" stroke-width=".062" transform="matrix(4.16641 0 0 4.16688 -5.45887 -5.71932)">
<path d="m213.511,76.6675c.001,.2505-.005,.5-.237,.8089-.502,.6694 .223,1.0042-.335,1.7293-.557,.7252 .112,1.1715-.502,1.7851-.613,.6136 .112,1.1715-.502,1.8409-.613,.6694 .112,1.1156-.502,1.7292-.613,.6137 .112,1.2831-.502,1.8966-.613,.6137 .112,1.3946-.558,2.1199-.669,.7251 .112,1.2829-.446,1.8408-.558,.5578-.056,1.1156-.446,1.5061 .669-.502 .669-1.2829 1.171-1.6734 .502-.3906-.167-.9484 .112-1.2273 .279-.2789 .056-1.4504 .558-2.0082 .502-.5579 .056-1.6735 .502-2.064 .446-.3905 .111-1.5619 .669-1.9524 .558-.3905 0-1.3388 .446-1.8409 .447-.502 0-1.283 .447-1.8966 .446-.6136 .02-1.1707 .334-1.6735 .14-.2231 .14-1.8408-.209-.9205z"/>
<path d="m215.115,77.3649c-.39,.7252 .279,.8925-.223,1.6177-.502,.7252 .279,1.283-.279,2.0082-.558,.7252 .279,1.1156-.223,1.8409-.502,.7251 .223,1.1156-.223,1.6735-.447,.5578 .334,1.1156-.223,1.785-.558,.6695 .223,1.1715-.224,1.7851-.446,.6136 .168,1.283-.223,1.785-.39,.5021 .279,1.2273-.279,1.8967-.558,.6694 .112,1.1157-.223,1.562 .67-.2232 .419-1.1436 .67-1.3388 .251-.1953-.084-1.4783 .306-1.813 .391-.3347-.251-1.3672 .112-1.813 .614-.753 .084-1.2551 .446-1.8408 .363-.5858-.138-1.3377 .14-1.7293 .474-.6694-.21-1.2728 .139-1.7572 .502-.6973-.097-1.2715 .251-1.7293 .53-.6973-.056-1.3946 .168-1.7572 .223-.3626 .585-1.9245-.112-2.1755z"/>
<path d="m217.29,77.9738c-.39,.972 .279,1.3608 .056,2.1383-.223,.7776 .279,1.3608-.056,2.2031-.334,.8424 .447,1.4903 0,2.5919-.446,1.1016 .288,1.3758 0,2.4623-.334,1.2637 .558,1.9331 0,2.8257-.557,.8925 .639,1.188 .056,2.1197-.279,.4463 .028,1.5899 .474,.2232 .447-1.3667-.334-1.534 .056-2.0919 .391-.5579-.139-2.0361 .028-2.8171 .168-.781-.39-1.8409-.028-2.6776 .363-.8367-.558-1.7292-.195-2.4545 .363-.7251-.167-1.6177 .167-2.2034 .335-.5857-.251-1.3667-.111-1.7014 .139-.3347-.14-1.5712-.447-.6183z"/>
</g>
<g transform="matrix(4.16641 0 0 4.16688 -5.45887 -5.71932)">
<path fill="#ef072d" stroke="#000" stroke-width=".062" d="m221.474,74.4083c0-6.3035-.892-8.479-4.184-8.479-3.291,0-4.183,2.1755-4.183,8.479h8.367z"/>
</g>
<g fill="none" stroke="#000" stroke-width=".062" transform="matrix(4.16641 0 0 4.16688 -5.45887 -5.71932)">
<path d="m214.334,73.9063c-.614,.6136 .112,1.0599-.502,1.785-.614,.7253-.056,1.1157-.558,1.7851-.502,.6694 .223,1.0042-.335,1.7293-.557,.7252 .112,1.1715-.502,1.7851-.613,.6136 .112,1.1715-.502,1.8409-.613,.6694 .112,1.1156-.502,1.7292-.613,.6137 .112,1.2831-.502,1.8966-.613,.6137 .112,1.3946-.558,2.1199-.669,.7251 .112,1.2829-.446,1.8408-.558,.5578-.056,1.1156-.446,1.5061-.391,.3905-.446,.9345-.279,1.1715"/>
<path d="m215.505,74.1294c-.557,.7252 .279,1.0599-.223,1.6735-.502,.6137 .223,.8368-.167,1.562-.39,.7252 .279,.8925-.223,1.6177-.502,.7252 .279,1.283-.279,2.0082-.558,.7252 .279,1.1156-.223,1.8409-.502,.7251 .223,1.1156-.223,1.6735-.447,.5578 .334,1.1156-.223,1.785-.558,.6695 .223,1.1715-.224,1.7851-.446,.6136 .168,1.283-.223,1.785-.39,.5021 .279,1.2273-.279,1.8967-.558,.6694 .112,1.1157-.223,1.562-.335,.4462-.599,1.1017-.279,1.283"/>
<path d="m217.29,74.7988c-.278,1.1663 .391,2.2031 0,3.175-.39,.972 .279,1.3608 .056,2.1383-.223,.7776 .279,1.3608-.056,2.2031-.334,.8424 .447,1.4903 0,2.5919-.446,1.1016 .288,1.3758 0,2.4623-.334,1.2637 .558,1.9331 0,2.8257-.557,.8925 .503,1.1157 .056,2.1197-.446,1.0042 .279,1.3946-.056,2.3988"/>
<path d="m220.247,73.9063c.614,.6136-.112,1.0599 .502,1.785 .614,.7253 .056,1.1157 .558,1.7851 .502,.6694-.223,1.0042 .335,1.7293 .557,.7252-.112,1.1715 .502,1.7851 .613,.6136-.112,1.1715 .502,1.8409 .613,.6694-.112,1.1156 .502,1.7292 .613,.6137-.112,1.2831 .502,1.8966 .613,.6137-.112,1.3946 .558,2.1199 .669,.7251-.112,1.2829 .446,1.8408 .558,.5578 .056,1.1156 .446,1.5061 .391,.3905 .447,.9345 .279,1.1715"/>
<path d="m219.076,74.1294c.557,.7252-.279,1.0599 .223,1.6735 .502,.6137-.223,.8368 .167,1.562 .391,.7252-.279,.8925 .223,1.6177 .502,.7252-.279,1.283 .279,2.0082 .558,.7252-.279,1.1156 .223,1.8409 .502,.7251-.223,1.1156 .223,1.6735 .447,.5578-.334,1.1156 .224,1.785 .557,.6695-.224,1.1715 .223,1.7851 .446,.6136-.168,1.283 .223,1.785 .39,.5021-.279,1.2273 .279,1.8967 .558,.6694-.112,1.1157 .223,1.562 .335,.4462 .6,1.1017 .279,1.283"/>
</g>
<g stroke="#000" stroke-width=".062" transform="matrix(4.16641 0 0 4.16688 -5.45887 -5.71932)">
<path d="m213.107,74.4083c0-6.3035 .892-8.479 4.183-8.479-1.506,0-2.426,1.1713-2.677,1.9523-.251,.781-.112,.7252 .223,.4184 .335-.3068 .167,.3626-.111,.7252-.279,.3626-.558,1.3946-.168,1.0599 .391-.3347 .697,.0558 .279,.6415-.418,.5857-.781,1.9524-.363,1.4783 .419-.4742 .502,.3068 .252,.6973-.252,.3905-.224,.7251 0,.5578 .223-.1673 .195,.6415-.028,.9483h-1.59z"/>
<path d="m220.833,74.0457c0-4.9368-.613-6.4151-1.84-6.9171-.695-.2847-.715-.2231-.383,.2231 .332,.4462 .281,1.0878-.026,.6415-.306-.4462-.408-.5299-.536-.3346-.128,.1952 .357,1.1156 .715,1.9524 .288,.673 .102,1.004-.332,.3346-.434-.6694-.434-.063-.053,.5021 .489,.7252 .474,2.9286 .474,3.849l1.981-.251z"/>
<path fill="#ef072d" d="m217.29,75.3288c1.311,0 2.746-.2336 3.71-.6079 1.144-.4441 1.205-.8343 .809-1.3325-.279-.3507-.893-.1402-1.478,.1169-.586,.2571-2.204,.4208-3.041,.4208-.836,0-2.454-.1637-3.04-.4208-.585-.2571-1.199-.4676-1.478-.1169-.396,.4982-.335,.8884 .809,1.3325 .963,.3743 2.399,.6079 3.709,.6079z"/>
</g>
<g fill="#b95a1e" fill-rule="evenodd" transform="matrix(.8956 0 0 .8957 239.4897 59.47948)">
<g stroke="#000">
<g stroke-width="4.375">
<path d="m779.408,912.595c0,0-.12,103.595 0,179.235 .12,75.63 19.822,104.91 54.262,103.59 34.44-1.33 41.108-58.83 34.531-92.08-6.577-33.26-53.24-198.967-53.24-198.967l-35.553,8.222z" transform="matrix(.06308 -.04074 .03863 .06652 712.0953 209.8693)"/>
<path d="m779.408,912.595c0,0-.12,103.595 0,179.235 .12,75.63 19.822,104.91 54.262,103.59 34.44-1.33 41.108-58.83 34.531-92.08-6.577-33.26-53.24-198.967-53.24-198.967l-35.553,8.222z" transform="matrix(.07236 -.0162 .01536 .0763 725.1523 182.3482)"/>
<path d="m779.408,912.595c0,0-.12,103.595 0,179.235 .12,75.63 19.822,104.91 54.262,103.59 34.44-1.33 41.108-58.83 34.531-92.08-6.577-33.26-53.24-198.967-53.24-198.967l-35.553,8.222z" transform="matrix(.07397 0 0 .078 736.2345 168.4202)"/>
</g>
<path stroke-width="5.554" d="m779.528,255.118c159.568-1.394 177.165-35.432 177.165-35.432 0,0 35.43-70.866 17.716-88.584-17.717-17.716-194.881-17.716-194.881-17.716v141.732z" transform="matrix(.04591 0 0 .078 758.114 219.5496)"/>
<g stroke-width="4.375">
<path d="m779.528,255.118c106.299,0 124.016-35.432 124.016-35.432 0,0 35.43-70.866 17.716-88.584-17.717-17.716-141.732-17.716-141.732-17.716v141.732z" transform="matrix(.07397 0 0 .078 736.2344 214.0221)"/>
<path d="m779.528,255.118c88.583,0 141.733-35.433 141.733-35.433 0,0 35.43-70.866 17.716-88.584-17.717-17.716-159.449-17.715-159.449-17.715v141.732z" transform="matrix(.07397 0 0 .078 736.2344 208.4946)"/>
</g>
<g stroke-width="3.927">
<path d="m832.677,113.386c0,0 70.866-88.5828 194.883-177.1655 124.01-88.5825 213.73-156.7215 230.31-141.7325 0,17.717-106.3,106.2994-194.88,177.1655-88.581,70.8661-194.88,177.1655-194.88,177.1655l-35.433-35.433z" transform="matrix(.0918 0 0 .078 721.8746 168.5821)"/>
<path d="m832.677,113.386c0,0 70.05-52.0252 204.383-124.0158 132.23-63.9177 318.89-53.1497 318.89-35.4331-17.71,17.7164-177.16,17.7165-283.46,70.8661-101.467,50.7319-204.38,124.0158-204.38,124.0158l-35.433-35.433z" transform="matrix(.0918 0 0 .078 722.6294 174.1096)"/>
<path d="m832.677,113.386c0,0 61.675-35.0681 204.383-88.5828 141.72-53.1496 329.87-17.7166 329.87-0-17.71,17.7164-170.43,6.9482-276.73,35.4331-109.993,27.7573-222.09,88.5827-222.09,88.5827l-35.433-35.433z" transform="matrix(.0918 0 0 .078 722.6986 183.628)"/>
<path d="m832.677,113.386c0,0 71.079-70.9758 222.473-88.5828 152.33-17.7165 276.35,88.5828 276.35,106.2988-17.71,17.717-159.45-77.9745-265.75-64.2885-112.618,13.6544-197.64,82.0055-197.64,82.0055l-35.433-35.433z" transform="matrix(.0918 0 0 .078 723.317 193.294)"/>
</g>
<g stroke-width="4.375">
<path d="m779.528,255.118c159.568-1.394 159.449-45.508 159.449-45.508 0,0 35.43-70.866 17.716-88.584-17.717-17.716-177.165-7.64-177.165-7.64v141.732z" transform="matrix(.07397 0 0 .078 736.2344 201.5853)"/>
<path d="m779.528,255.118c159.568-1.394 177.165-35.432 177.165-35.432 0,0 35.43-70.866 17.716-88.584-17.717-17.716-194.881-17.716-194.881-17.716v141.732z" transform="matrix(.07397 0 0 .078 736.2344 196.0577)"/>
<path d="m779.528,255.118c159.568-1.394 194.882-35.433 194.882-35.433 0,0 35.43-70.866 17.716-88.583-17.717-17.716-212.598-17.716-212.598-17.716v141.732z" transform="matrix(.07397 0 0 .078 736.2344 189.1483)"/>
<path d="m779.528,255.118c159.568-1.394 212.598-35.433 212.598-35.433 0,0 17.714-70.866 0-88.583-17.717-17.716-212.598-17.716-212.598-17.716v141.732z" transform="matrix(.07397 0 0 .078 736.2345 182.239)"/>
</g>
<g stroke-width="3.927">
<path d="m832.677,113.386c0,0 114.206-88.5828 114.206-159.4489 0-70.8661-50.349-141.7321-64.625-177.1651 28.552,0 93.176,106.299 93.176,177.1651 0,77.4436-107.324,194.8819-107.324,194.8819l-35.433-35.433z" transform="matrix(.0918 0 0 .078 720.0775 162.8927)"/>
<path d="m832.677,113.386c0,0-14.276-53.1496-14.276-159.4489 0-124.0161 63.001-202.8931 85.654-230.3151 5.898,27.422-57.102,124.016-57.102,230.3151 0,77.4437 21.157,194.8819 21.157,194.8819l-35.433-35.433z" transform="matrix(.0918 0 0 .078 720.0775 162.8927)"/>
</g>
<g stroke-width="4.375">
<path d="m779.528,255.118c159.568-1.394 212.598-35.433 212.598-35.433 0,0 0-70.866-17.716-88.583-17.717-17.716-194.882-17.716-194.882-17.716v141.732z" transform="matrix(.07397 0 0 .078 736.2344 175.3296)"/>
<path d="m779.528,255.118c159.568-1.394 194.881-35.433 194.881-35.433 0,0 0-70.866-17.716-88.583-17.717-17.716-177.165-17.716-177.165-17.716v141.732z" transform="matrix(.07397 0 0 .078 736.2345 168.4202)"/>
</g>
</g>
<path stroke="#fdc301" stroke-width="11.026" d="m318.898,1318.11c55.065-122.32 70.866-336.614 70.866-372.047 0-99.782-32.948-585.106-35.433-779.528-2.485-194.422 124.015-301.181 248.031-301.181 106.299-0 177.166,70.8665 177.166,177.1657h-53.15c0-70.8662-53.15-124.0157-124.016-124.0157-106.299,0-187.994,83.739-194.882,248.031-7.605,189.886 21.316,682.945 17.717,814.961-3.599,132.024-51.234,249.724-106.299,336.614z" transform="matrix(-.07397 0 0 .078 851.564 168.4202)"/>
<g stroke="#000">
<g stroke-width="4.375">
<path d="m779.408,912.595c0,0-.12,103.595 0,179.235 .12,75.63 19.822,104.91 54.262,103.59 34.44-1.33 41.108-58.83 34.531-92.08-6.577-33.26-53.24-198.967-53.24-198.967l-35.553,8.222z" transform="matrix(-.06308 -.04074 -.03863 .06652 875.6903 209.8693)"/>
<path d="m779.528,32.8841c124.136,.1406 177.767,102.3889 177.466,100.3039l-35.734,33.347c-18.985,17.717-141.732,17.717-140.208,17.626l-1.524-151.2769z" transform="matrix(.07397 0 0 .078 736.2345 168.4202)"/>
<path d="m779.408,912.595c0,0-.12,103.595 0,179.235 .12,75.63 19.822,104.91 54.262,103.59 34.44-1.33 41.108-58.83 34.531-92.08-6.577-33.26-53.24-198.967-53.24-198.967l-35.553,8.222z" transform="matrix(-.07236 -.0162 -.01536 .0763 862.6333 182.3482)"/>
<path d="m779.408,912.595c0,0-.12,103.595 0,179.235 .12,75.63 19.822,104.91 54.262,103.59 34.44-1.33 41.108-58.83 34.531-92.08-6.577-33.26-53.24-198.967-53.24-198.967l-35.553,8.222z" transform="matrix(-.07397 0 0 .078 851.5511 168.4202)"/>
</g>
<path stroke-width="5.554" d="m779.528,255.118c159.568-1.394 177.165-35.432 177.165-35.432 0,0 35.43-70.866 17.716-88.584-17.717-17.716-194.881-17.716-194.881-17.716v141.732z" transform="matrix(-.04591 0 0 .078 829.6716 219.5496)"/>
<g stroke-width="4.375">
<path d="m779.528,255.118c106.299,0 124.016-35.432 124.016-35.432 0,0 35.43-70.866 17.716-88.584-17.717-17.716-141.732-17.716-141.732-17.716v141.732z" transform="matrix(-.07397 0 0 .078 851.5511 214.0221)"/>
<path d="m779.528,255.118c88.583,0 141.733-35.433 141.733-35.433 0,0 35.43-70.866 17.716-88.584-17.717-17.716-159.449-17.715-159.449-17.715v141.732z" transform="matrix(-.07397 0 0 .078 851.5511 208.4946)"/>
</g>
<g stroke-width="3.927">
<path d="m832.677,113.386c0,0 70.866-88.5828 194.883-177.1655 124.01-88.5825 213.73-156.7215 230.31-141.7325 0,17.717-106.3,106.2994-194.88,177.1655-88.581,70.8661-194.88,177.1655-194.88,177.1655l-35.433-35.433z" transform="matrix(-.0918 0 0 .078 865.9109 168.5821)"/>
<path d="m832.677,113.386c0,0 70.05-52.0252 204.383-124.0158 132.23-63.9177 318.89-53.1497 318.89-35.4331-17.71,17.7164-177.16,17.7165-283.46,70.8661-101.467,50.7319-204.38,124.0158-204.38,124.0158l-35.433-35.433z" transform="matrix(-.0918 0 0 .078 865.1562 174.1096)"/>
<path d="m832.677,113.386c0,0 61.675-35.0681 204.383-88.5828 141.72-53.1496 329.87-17.7166 329.87-0-17.71,17.7164-170.43,6.9482-276.73,35.4331-109.993,27.7573-222.09,88.5827-222.09,88.5827l-35.433-35.433z" transform="matrix(-.0918 0 0 .078 865.087 183.628)"/>
<path d="m832.677,113.386c0,0 71.079-70.9758 222.473-88.5828 152.33-17.7165 276.35,88.5828 276.35,106.2988-17.71,17.717-159.45-77.9745-265.75-64.2885-112.618,13.6544-197.64,82.0055-197.64,82.0055l-35.433-35.433z" transform="matrix(-.0918 0 0 .078 864.4686 193.294)"/>
</g>
<g stroke-width="4.375">
<path d="m779.528,255.118c159.568-1.394 159.449-45.508 159.449-45.508 0,0 35.43-70.866 17.716-88.584-17.717-17.716-177.165-7.64-177.165-7.64v141.732z" transform="matrix(-.07397 0 0 .078 851.5511 201.5853)"/>
<path d="m779.528,255.118c159.568-1.394 177.165-35.432 177.165-35.432 0,0 35.43-70.866 17.716-88.584-17.717-17.716-194.881-17.716-194.881-17.716v141.732z" transform="matrix(-.07397 0 0 .078 851.5511 196.0577)"/>
<path d="m779.528,255.118c159.568-1.394 194.882-35.433 194.882-35.433 0,0 35.43-70.866 17.716-88.583-17.717-17.716-212.598-17.716-212.598-17.716v141.732z" transform="matrix(-.07397 0 0 .078 851.5511 189.1483)"/>
<path d="m779.528,255.118c159.568-1.394 212.598-35.433 212.598-35.433 0,0 17.714-70.866 0-88.583-17.717-17.716-212.598-17.716-212.598-17.716v141.732z" transform="matrix(-.07397 0 0 .078 851.5511 182.239)"/>
</g>
<g stroke-width="3.927">
<path d="m832.677,113.386c0,0 114.206-88.5828 114.206-159.4489 0-70.8661-50.349-141.7321-64.625-177.1651 28.552,0 93.176,106.299 93.176,177.1651 0,77.4436-107.324,194.8819-107.324,194.8819l-35.433-35.433z" transform="matrix(-.0918 0 0 .078 867.7081 162.8927)"/>
<path d="m832.677,113.386c0,0-14.276-53.1496-14.276-159.4489 0-124.0161 63.001-202.8931 85.654-230.3151 5.898,27.422-57.102,124.016-57.102,230.3151 0,77.4437 21.157,194.8819 21.157,194.8819l-35.433-35.433z" transform="matrix(-.0918 0 0 .078 867.7081 162.8927)"/>
</g>
<g stroke-width="4.375">
<path d="m779.528,255.118c159.568-1.394 212.598-35.433 212.598-35.433 0,0 0-70.866-17.716-88.583-17.717-17.716-194.882-17.716-194.882-17.716v141.732z" transform="matrix(-.07397 0 0 .078 851.5511 175.3296)"/>
<path d="m779.528,255.118c159.568-1.394 194.881-35.433 194.881-35.433 0,0 0-70.866-17.716-88.583-17.717-17.716-177.165-17.716-177.165-17.716v141.732z" transform="matrix(-.07397 0 0 .078 851.5511 168.4202)"/>
</g>
</g>
<path stroke="#fdc301" stroke-width="11.026" d="m318.898,1318.11c55.065-122.32 70.866-336.614 70.866-372.047 0-99.782-32.948-585.106-35.433-779.528-2.485-194.422 124.015-301.181 248.031-301.181 106.299-0 177.166,70.8665 177.166,177.1657h-53.15c0-70.8662-53.15-124.0157-124.016-124.0157-106.299,0-187.994,83.739-194.882,248.031-7.605,189.886 21.316,682.945 17.717,814.961-3.599,132.024-51.234,249.724-106.299,336.614z" transform="matrix(.07397 0 0 .078 736.2217 168.4202)"/>
<path stroke="#000" stroke-width="4.375" d="m779.528,32.8841c124.136,.1406 177.767,102.3889 177.466,100.3039l-35.734,33.347c-18.985,17.717-141.732,17.717-140.208,17.626l-1.524-151.2769z" transform="matrix(-.07397 0 0 .078 851.5511 168.4202)"/>
</g>
<g transform="matrix(1.2 0 0 1.2 0 .0001)">
<path fill="#006" fill-rule="evenodd" d="m0,0h500v250h-500z"/>
</g>
<g stroke-width="1.25" transform="matrix(10 0 0 10 0 -.00018)">
<g fill="#fff">
<path d="m0,0v3.3541l53.2918,26.6459h6.7082v-3.3541l-53.2918-26.6459h-6.7082zm60,0v3.354l-53.2918,26.6459h-6.7082v-3.3542l53.2918-26.6458h6.7082z"/>
<path d="m25,0v30h10v-30h-10zm-25,10v10h60v-10h-60z"/>
</g>
<g fill="#c00">
<path d="m0,12v6h60v-6h-60zm27-12v30h6v-30h-6z"/>
<path d="m0,30l20-10h4.4721l-20,10h-4.4721zm0-30l20,10h-4.4721l-15.5279-7.7639v-2.2361zm35.5279,10l20-10h4.4721l-20,10h-4.4721zm24.4721,20l-20-10h4.4721l15.5279,7.7639v2.2361z"/>
</g>
</g>
</svg>
