<svg xmlns="http://www.w3.org/2000/svg" viewBox="0 0 950 570" xmlns:xlink="http://www.w3.org/1999/xlink">
<path fill="#d21034" d="m0,0h950v285h-950z"/>
<path fill="#009543" d="m0,285h950v285h-950z"/>
<path fill-rule="evenodd" d="m0,0l552.8133,285-552.8133,285v-570z"/>
<path d="m0,234h950v102h-950z"/>
<g fill="#ffce00">
<path fill-rule="evenodd" d="m0,40.502l474.251,244.4975-474.251,244.4975v-488.995z"/>
<path d="m0,270h950v30h-950z"/>
</g>
<path fill-rule="evenodd" d="m0,74.2547l408.7817,210.7453-408.7817,210.745v-421.4903z"/>
<switch transform="matrix(.79211 0 0 .79211 50 198)">
<g>
<g>
<path fill="#fdce12" d="m82.667,178.667c0,0 0,26 0,41 35.667,0 105.667-27.333 105.667-115.333 0-88-74.667-104.334-97.001-104.334-22.333,0-91.333,16-91.333,88 0,72 67.667,78.667 81,78.667 13.333,0 63.333-12 57.667-66 0,15.333-17.333,47.667-53.667,47.667-36.334,0-59-27.001-59-53.667 0-26.667 22-62.334 60.333-62.334 38.333,0 66.333,33.999 66.333,68.333 0,34.334-26.999,78.001-69.999,78.001z"/>
<path fill="#fdce12" stroke="#fdce12" d="m51.417,125.292l2.125,1.375c0,0 16.875-38.5 62.25-65.875-5.75,3.125-36.125,18.25-64.375,64.5z"/>
<path fill="#fdce12" d="m55.792,118.667c0,0-5.25-10.75-.625-15.5 4.625-4.75 2.5,12.625 2.5,12.625l2-2.875c0,0-3.125-13.125 .375-15.875 3.5-2.75 1.75,12.625 1.75,12.625l2.125-2.75c0,0-2.25-12.75 1.125-15.125 3.375-2.375 1.25,12 1.25,12l2.5-2.875c0,0-1.875-12.125 2.25-15 4.125-2.875 .5,11.5 .5,11.5l2.75-3c0,0-1.25-11.125 2.25-13.625 3.5-2.5 .5,10.5 .5,10.5l2.5-2.625c0,0-.75-10.375 2.625-12.75 3.375-2.375 .25,9.875 .25,9.875l2.625-2.5c0,0-.625-10.375 3.625-12.375 4.25-2-.75,9.75-.75,9.75l2.875-2.5c0,0 .875-12.125 4.5-13.25 3.625-1.125-1.625,10.75-1.625,10.75l2.625-2.125c0,0 1.375-10.375 5.375-11.625 4-1.25-2.5,9.5-2.5,9.5l2.625-2c0,0 2.875-10.375 6.625-11.5 3.75-1.125-3.875,9.75-3.875,9.75l2.5-1.75c0,0 4.125-9.375 7.5-10 3.375-.625-3.75,7.75-3.75,7.75l3.125-1.875c0,0 5.375-9.75 7.25-6.75 1.875,3-7.5,7.375-7.5,7.375l-3.125,1.75c0,0 11.375-5.375 12.75-2.625 1.375,2.75-15.625,4.5-15.625,4.5l-2.75,1.875c0,0 11.375-3.125 10-.25-1.375,2.875-12.625,2.25-12.625,2.25l-2.625,1.875c0,0 11.375-2.75 9.875-.125-1.5,2.625-12.625,2.375-12.625,2.375l-2.75,2.25c0,0 11.125-2.875 9.5,.5-1.625,3.375-14.25,3.25-14.25,3.25l-3.125,2.875c0,0 11.75-4 10.75-.875-1,3.125-14.375,4.75-14.375,4.75l-3,3c0,0 12.625-4.25 8.875-.375-3.75,3.875-12.875,4.875-12.875,4.875l-3.625,4.375c0,0 12.5-7.5 10.75-3.25-1.75,4.25-14,7.125-14,7.125l-2.5,3c0,0 11.25-6.5 10.125-2.875-1.125,3.625-13.125,7.5-13.125,7.5l-2,2.75c0,0 13.25-7.875 12.125-3.875-1.125,4-13.75,6.875-13.75,6.875l-1.625,2.5c0,0 12.25-7 12.375-3.625 .125,3.375-14.375,6.75-14.375,6.75l-.25-2.875z"/>
<path fill="#fdce12" stroke="#fdce12" d="m123.371,125.292l-2.125,1.375c0,0-16.875-38.5-62.25-65.875 5.75,3.125 36.125,18.25 64.375,64.5z"/>
<path fill="#fdce12" d="m118.996,118.667c0,0 5.25-10.75 .625-15.5-4.625-4.75-2.5,12.625-2.5,12.625l-2-2.875c0,0 3.125-13.125-.375-15.875-3.5-2.75-1.75,12.625-1.75,12.625l-2.125-2.75c0,0 2.25-12.75-1.125-15.125-3.375-2.375-1.25,12-1.25,12l-2.5-2.875c0,0 1.875-12.125-2.25-15-4.125-2.875-.5,11.5-.5,11.5l-2.75-3c0,0 1.25-11.125-2.25-13.625-3.5-2.5-.5,10.5-.5,10.5l-2.5-2.625c0,0 .75-10.375-2.625-12.75-3.375-2.375-.25,9.875-.25,9.875l-2.625-2.5c0,0 .625-10.375-3.625-12.375-4.25-2 .75,9.75 .75,9.75l-2.875-2.5c0,0-.875-12.125-4.5-13.25-3.625-1.125 1.625,10.75 1.625,10.75l-2.625-2.125c0,0-1.375-10.375-5.375-11.625-4-1.25 2.5,9.5 2.5,9.5l-2.625-2c0,0-2.875-10.375-6.625-11.5-3.75-1.125 3.875,9.75 3.875,9.75l-2.5-1.75c0,0-4.125-9.375-7.5-10-3.375-.625 3.75,7.75 3.75,7.75l-3.125-1.875c0,0-5.375-9.75-7.25-6.75-1.875,3 7.5,7.375 7.5,7.375l3.125,1.75c0,0-11.375-5.375-12.75-2.625-1.375,2.75 15.625,4.5 15.625,4.5l2.75,1.875c0,0-11.375-3.125-10-.25 1.375,2.875 12.625,2.25 12.625,2.25l2.625,1.875c0,0-11.375-2.75-9.875-.125 1.5,2.625 12.625,2.375 12.625,2.375l2.75,2.25c0,0-11.125-2.875-9.5,.5 1.625,3.375 14.25,3.25 14.25,3.25l3.125,2.875c0,0-11.75-4-10.75-.875 1,3.125 14.375,4.75 14.375,4.75l3,3c0,0-12.625-4.25-8.875-.375 3.75,3.875 12.875,4.875 12.875,4.875l3.625,4.375c0,0-12.5-7.5-10.75-3.25 1.75,4.25 14,7.125 14,7.125l2.5,3c0,0-11.25-6.5-10.125-2.875 1.125,3.625 13.125,7.5 13.125,7.5l2,2.75c0,0-13.25-7.875-12.125-3.875 1.125,4 13.75,6.875 13.75,6.875l1.625,2.5c0,0-12.25-7-12.375-3.625-.125,3.375 14.375,6.75 14.375,6.75l.25-2.875z"/>
</g>
</g>
</switch>
</svg>
