<svg width="185" height="43" viewBox="0 0 185 43" fill="none" xmlns="http://www.w3.org/2000/svg">
<path d="M7.22 10.06C6.68 10.06 6.19667 9.94333 5.77 9.71C5.35 9.47667 5.02 9.15667 4.78 8.75C4.54 8.33667 4.42 7.87 4.42 7.35C4.42 6.83 4.54 6.36667 4.78 5.96C5.02 5.54667 5.35 5.22667 5.77 5C6.19667 4.76667 6.68 4.65 7.22 4.65C7.7 4.65 8.12667 4.74667 8.5 4.94C8.88 5.13333 9.17333 5.41333 9.38 5.78L8.65 6.25C8.48333 5.99667 8.27667 5.80667 8.03 5.68C7.78333 5.55333 7.51 5.49 7.21 5.49C6.86333 5.49 6.55 5.56667 6.27 5.72C5.99667 5.87333 5.78 6.09333 5.62 6.38C5.46667 6.66 5.39 6.98333 5.39 7.35C5.39 7.72333 5.46667 8.05333 5.62 8.34C5.78 8.62 5.99667 8.83667 6.27 8.99C6.55 9.14333 6.86333 9.22 7.21 9.22C7.51 9.22 7.78333 9.15667 8.03 9.03C8.27667 8.90333 8.48333 8.71333 8.65 8.46L9.38 8.92C9.17333 9.28667 8.88 9.57 8.5 9.77C8.12667 9.96333 7.7 10.06 7.22 10.06ZM14.8148 10.06C14.2881 10.06 13.8148 9.94333 13.3948 9.71C12.9748 9.47667 12.6448 9.15667 12.4048 8.75C12.1714 8.33667 12.0548 7.87 12.0548 7.35C12.0548 6.83 12.1714 6.36667 12.4048 5.96C12.6448 5.54667 12.9748 5.22667 13.3948 5C13.8148 4.76667 14.2881 4.65 14.8148 4.65C15.3414 4.65 15.8114 4.76667 16.2248 5C16.6448 5.22667 16.9714 5.54667 17.2048 5.96C17.4448 6.36667 17.5648 6.83 17.5648 7.35C17.5648 7.87 17.4448 8.33667 17.2048 8.75C16.9714 9.15667 16.6448 9.47667 16.2248 9.71C15.8114 9.94333 15.3414 10.06 14.8148 10.06ZM14.8148 9.22C15.1548 9.22 15.4581 9.14333 15.7248 8.99C15.9981 8.83 16.2114 8.61 16.3648 8.33C16.5181 8.04333 16.5948 7.71667 16.5948 7.35C16.5948 6.98333 16.5181 6.66 16.3648 6.38C16.2114 6.09333 15.9981 5.87333 15.7248 5.72C15.4581 5.56667 15.1548 5.49 14.8148 5.49C14.4748 5.49 14.1681 5.56667 13.8948 5.72C13.6281 5.87333 13.4148 6.09333 13.2548 6.38C13.1014 6.66 13.0248 6.98333 13.0248 7.35C13.0248 7.71667 13.1014 8.04333 13.2548 8.33C13.4148 8.61 13.6281 8.83 13.8948 8.99C14.1681 9.14333 14.4748 9.22 14.8148 9.22ZM25.8324 4.7V10H24.9224V9.2C24.7291 9.47333 24.4724 9.68667 24.1524 9.84C23.8391 9.98667 23.4958 10.06 23.1224 10.06C22.4158 10.06 21.8591 9.86667 21.4524 9.48C21.0458 9.08667 20.8424 8.51 20.8424 7.75V4.7H21.8024V7.64C21.8024 8.15333 21.9258 8.54333 22.1724 8.81C22.4191 9.07 22.7724 9.2 23.2324 9.2C23.7391 9.2 24.1391 9.04667 24.4324 8.74C24.7258 8.43333 24.8724 8 24.8724 7.44V4.7H25.8324ZM32.49 4.65C33.1633 4.65 33.6967 4.84667 34.09 5.24C34.49 5.62667 34.69 6.19667 34.69 6.95V10H33.73V7.06C33.73 6.54667 33.6067 6.16 33.36 5.9C33.1133 5.64 32.76 5.51 32.3 5.51C31.78 5.51 31.37 5.66333 31.07 5.97C30.77 6.27 30.62 6.70333 30.62 7.27V10H29.66V4.7H30.58V5.5C30.7733 5.22667 31.0333 5.01667 31.36 4.87C31.6933 4.72333 32.07 4.65 32.49 4.65ZM41.4466 9.69C41.3066 9.81 41.1333 9.90333 40.9266 9.97C40.72 10.03 40.5066 10.06 40.2866 10.06C39.7533 10.06 39.34 9.91667 39.0466 9.63C38.7533 9.34333 38.6066 8.93333 38.6066 8.4V5.49H37.7066V4.7H38.6066V3.54H39.5666V4.7H41.0866V5.49H39.5666V8.36C39.5666 8.64667 39.6366 8.86667 39.7766 9.02C39.9233 9.17333 40.13 9.25 40.3966 9.25C40.69 9.25 40.94 9.16667 41.1466 9L41.4466 9.69ZM45.5273 5.59C45.6939 5.28333 45.9406 5.05 46.2673 4.89C46.5939 4.73 46.9906 4.65 47.4573 4.65V5.58C47.4039 5.57333 47.3306 5.57 47.2373 5.57C46.7173 5.57 46.3073 5.72667 46.0073 6.04C45.7139 6.34667 45.5673 6.78667 45.5673 7.36V10H44.6073V4.7H45.5273V5.59ZM55.5453 4.7L52.9753 10.53C52.7486 11.07 52.482 11.45 52.1753 11.67C51.8753 11.89 51.512 12 51.0853 12C50.8253 12 50.572 11.9567 50.3253 11.87C50.0853 11.79 49.8853 11.67 49.7253 11.51L50.1353 10.79C50.4086 11.05 50.7253 11.18 51.0853 11.18C51.3186 11.18 51.512 11.1167 51.6653 10.99C51.8253 10.87 51.9686 10.66 52.0953 10.36L52.2653 9.99L49.9253 4.7H50.9253L52.7753 8.94L54.6053 4.7H55.5453Z" fill="black"/>
<path d="M99 16C99 14.3431 97.6569 13 96 13C94.3431 13 93 14.3431 93 16C93 17.6569 94.3431 19 96 19C97.6569 19 99 17.6569 99 16Z" fill="black"/>
<path d="M12.54 35.24C10.44 35.24 8.54 34.78 6.84 33.86C5.16 32.92 3.84 31.64 2.88 30.02C1.92 28.38 1.44 26.54 1.44 24.5C1.44 22.46 1.92 20.63 2.88 19.01C3.84 17.37 5.17 16.09 6.87 15.17C8.57 14.23 10.47 13.76 12.57 13.76C14.21 13.76 15.71 14.04 17.07 14.6C18.43 15.14 19.59 15.95 20.55 17.03L18.6 18.92C17.02 17.26 15.05 16.43 12.69 16.43C11.13 16.43 9.72 16.78 8.46 17.48C7.2 18.18 6.21 19.15 5.49 20.39C4.79 21.61 4.44 22.98 4.44 24.5C4.44 26.02 4.79 27.4 5.49 28.64C6.21 29.86 7.2 30.82 8.46 31.52C9.72 32.22 11.13 32.57 12.69 32.57C15.03 32.57 17 31.73 18.6 30.05L20.55 31.94C19.59 33.02 18.42 33.84 17.04 34.4C15.68 34.96 14.18 35.24 12.54 35.24ZM46.7116 29.75H35.5516L33.2416 35H30.1516L39.6616 14H42.6316L52.1716 35H49.0216L46.7116 29.75ZM45.6616 27.35L41.1316 17.06L36.6016 27.35H45.6616ZM72.4943 14C75.2143 14 77.3543 14.65 78.9143 15.95C80.4743 17.25 81.2543 19.04 81.2543 21.32C81.2543 23.6 80.4743 25.39 78.9143 26.69C77.3543 27.99 75.2143 28.64 72.4943 28.64H67.3043V35H64.3043V14H72.4943ZM72.4043 26.03C74.3043 26.03 75.7543 25.63 76.7543 24.83C77.7543 24.01 78.2543 22.84 78.2543 21.32C78.2543 19.8 77.7543 18.64 76.7543 17.84C75.7543 17.02 74.3043 16.61 72.4043 16.61H67.3043V26.03H72.4043Z" fill="black"/>
<path d="M117.32 16.61H110.12V14H127.49V16.61H120.29V35H117.32V16.61ZM152.083 29.75H140.923L138.613 35H135.523L145.033 14H148.003L157.543 35H154.393L152.083 29.75ZM151.033 27.35L146.503 17.06L141.973 27.35H151.033ZM169.675 14H172.675V32.39H184.045V35H169.675V14Z" fill="black"/>
<rect x="94" y="25" width="4" height="9" fill="black"/>
</svg>
