<svg width="180" height="180" viewBox="0 0 180 180" fill="none" xmlns="http://www.w3.org/2000/svg">
<rect width="180" height="180" fill="#22A696"/>
<path fill-rule="evenodd" clip-rule="evenodd" d="M180 57.4072V180H59.5L21.7208 141.893L159.49 36.7195L180 57.4072Z" fill="url(#paint0_linear)" fill-opacity="0.25"/>
<g filter="url(#filter0_d)">
<path d="M21 140.117V40.8625C29.0707 45.1163 47.3485 57.8775 90.0758 40.8625C134.939 25.2655 150.843 34.1313 159.864 38.3851V140.117C155.354 133.5 135.082 124.236 90.0758 140.117C45.0697 155.997 25.2727 146.733 21 140.117Z" fill="white"/>
<path d="M90 39.5C54.8245 54.7428 29.5102 46.7675 21 40.4163V95C26.6735 100.175 52.3673 112.642 93.5 95C133.722 77.7483 154.327 89.825 160 95V37.5C151.49 31.1488 125.176 24.2572 90 39.5Z" fill="#AF3800"/>
</g>
<g filter="url(#filter1_i)">
<rect x="89" width="91" height="180" fill="white" fill-opacity="0.05"/>
</g>
<g filter="url(#filter2_i)">
<rect width="89" height="180" fill="url(#paint1_linear)" fill-opacity="0.05"/>
</g>
<defs>
<filter id="filter0_d" x="13" y="22.3022" width="155" height="134.583" filterUnits="userSpaceOnUse" color-interpolation-filters="sRGB">
<feFlood flood-opacity="0" result="BackgroundImageFix"/>
<feColorMatrix in="SourceAlpha" type="matrix" values="0 0 0 0 0 0 0 0 0 0 0 0 0 0 0 0 0 0 127 0"/>
<feOffset/>
<feGaussianBlur stdDeviation="4"/>
<feColorMatrix type="matrix" values="0 0 0 0 0 0 0 0 0 0 0 0 0 0 0 0 0 0 0.25 0"/>
<feBlend mode="normal" in2="BackgroundImageFix" result="effect1_dropShadow"/>
<feBlend mode="normal" in="SourceGraphic" in2="effect1_dropShadow" result="shape"/>
</filter>
<filter id="filter1_i" x="89" y="0" width="91" height="180" filterUnits="userSpaceOnUse" color-interpolation-filters="sRGB">
<feFlood flood-opacity="0" result="BackgroundImageFix"/>
<feBlend mode="normal" in="SourceGraphic" in2="BackgroundImageFix" result="shape"/>
<feColorMatrix in="SourceAlpha" type="matrix" values="0 0 0 0 0 0 0 0 0 0 0 0 0 0 0 0 0 0 127 0" result="hardAlpha"/>
<feOffset/>
<feGaussianBlur stdDeviation="0.5"/>
<feComposite in2="hardAlpha" operator="arithmetic" k2="-1" k3="1"/>
<feColorMatrix type="matrix" values="0 0 0 0 0 0 0 0 0 0 0 0 0 0 0 0 0 0 0.25 0"/>
<feBlend mode="normal" in2="shape" result="effect1_innerShadow"/>
</filter>
<filter id="filter2_i" x="0" y="0" width="89" height="180" filterUnits="userSpaceOnUse" color-interpolation-filters="sRGB">
<feFlood flood-opacity="0" result="BackgroundImageFix"/>
<feBlend mode="normal" in="SourceGraphic" in2="BackgroundImageFix" result="shape"/>
<feColorMatrix in="SourceAlpha" type="matrix" values="0 0 0 0 0 0 0 0 0 0 0 0 0 0 0 0 0 0 127 0" result="hardAlpha"/>
<feOffset/>
<feGaussianBlur stdDeviation="0.5"/>
<feComposite in2="hardAlpha" operator="arithmetic" k2="-1" k3="1"/>
<feColorMatrix type="matrix" values="0 0 0 0 0 0 0 0 0 0 0 0 0 0 0 0 0 0 0.25 0"/>
<feBlend mode="normal" in2="shape" result="effect1_innerShadow"/>
</filter>
<linearGradient id="paint0_linear" x1="-28.5" y1="-57.5422" x2="163.344" y2="157.678" gradientUnits="userSpaceOnUse">
<stop stop-color="#1BA090"/>
<stop offset="1" stop-opacity="0"/>
</linearGradient>
<linearGradient id="paint1_linear" x1="62.1044" y1="175.5" x2="19.2738" y2="6.94561" gradientUnits="userSpaceOnUse">
<stop stop-color="#1C897C"/>
<stop offset="1" stop-color="#22A696"/>
</linearGradient>
</defs>
</svg>
